<?xml version="1.0" encoding="utf-8"?>
<!-- Generator: Adobe Illustrator 22.0.0, SVG Export Plug-In . SVG Version: 6.00 Build 0)  -->
<svg version="1.1" id="Layer_1" xmlns="http://www.w3.org/2000/svg" xmlns:xlink="http://www.w3.org/1999/xlink" x="0px" y="0px"
	 viewBox="0 0 80 77.2" style="enable-background:new 0 0 80 77.2;" xml:space="preserve">
<style type="text/css">
	.st0{display:none;}
	.st1{display:inline;}
	.st2{fill:#282D3A;}
	.st3{fill:#85888B;}
	.st4{display:none;fill:none;stroke:#FFFFFF;stroke-width:2;stroke-linecap:round;stroke-linejoin:round;stroke-miterlimit:10;}
	.st5{display:inline;fill:none;stroke:#282D3A;stroke-width:1.5;stroke-linejoin:round;stroke-miterlimit:10;}
	.st6{display:inline;fill:#282D3A;}
	.st7{opacity:0.66;}
	.st8{fill:#FF005F;}
	.st9{fill:none;stroke:#FFFFFF;stroke-width:2;stroke-linecap:round;stroke-linejoin:round;stroke-miterlimit:10;}
	.st10{fill:#FFFFFF;}
	.st11{font-family:'SFUIText-Bold';}
	.st12{font-size:12px;}
	.st13{fill:none;stroke:#282D3A;stroke-width:1.5;stroke-linecap:round;stroke-linejoin:round;stroke-miterlimit:10;}
	.st14{fill:#F5F5F5;}
	
		.st15{display:inline;fill:none;stroke:#282D3A;stroke-width:1.5;stroke-linecap:round;stroke-linejoin:round;stroke-miterlimit:10;}
	
		.st16{display:inline;fill:none;stroke:#0096FF;stroke-width:1.5;stroke-linecap:round;stroke-linejoin:round;stroke-miterlimit:10;}
	.st17{display:inline;fill:none;stroke:#282D3A;stroke-width:2;stroke-linecap:round;stroke-linejoin:round;stroke-miterlimit:10;}
	.st18{display:none;fill:#282D3A;}
	.st19{display:inline;fill:#FFFFFF;}
	.st20{font-size:10px;}
	.st21{display:inline;opacity:0.66;}
	.st22{display:inline;fill:#FF005F;}
	.st23{fill:none;stroke:#FFFFFF;stroke-width:1.5;stroke-linecap:round;stroke-linejoin:round;stroke-miterlimit:10;}
	.st24{display:none;fill:none;stroke:#0096FF;stroke-width:2;stroke-linecap:round;stroke-linejoin:round;stroke-miterlimit:10;}
	.st25{display:inline;fill:#FF005E;}
	.st26{display:none;fill:none;stroke:#FFFFFF;stroke-width:1.5;stroke-linecap:round;stroke-linejoin:round;stroke-miterlimit:10;}
	.st27{fill:#282D3B;}
	.st28{fill:#FF005E;}
	.st29{font-size:9px;}
</style>
<g id="_x35_s" class="st0">
	<g class="st1">
		<path class="st2" d="M13.7,55.7h-10c-1.1,0-2,0.9-2,2v20c0,1.1,0.9,2,2,2h10c1.1,0,2-0.9,2-2v-20C15.7,56.6,14.8,55.7,13.7,55.7z
			 M8.7,78.7c-0.5,0-1-0.4-1-1c0-0.5,0.5-1,1-1c0.6,0,1,0.5,1,1C9.7,78.3,9.3,78.7,8.7,78.7z M14.2,74.7c0,0.4-0.2,0.7-0.5,0.9
			c-0.1,0.1-0.3,0.1-0.5,0.1h-9c-0.2,0-0.3,0-0.5-0.1c-0.3-0.2-0.5-0.5-0.5-0.9v-15c0-0.4,0.2-0.7,0.5-0.9c0.2-0.1,0.3-0.1,0.5-0.1
			h9c0.2,0,0.4,0,0.5,0.1c0.3,0.2,0.5,0.5,0.5,0.9V74.7z"/>
	</g>
</g>
<g id="_x36_" class="st0">
	<g class="st1">
		<path class="st2" d="M14.4,55h-11c-1.1,0-2,0.9-2,2v22c0,1.1,0.9,2,2,2h11c1.1,0,2-0.9,2-2V57C16.4,55.9,15.5,55,14.4,55z M8.9,80
			c-0.6,0-1-0.5-1-1c0-0.6,0.4-1,1-1c0.5,0,1,0.4,1,1C9.9,79.5,9.5,80,8.9,80z M14.9,76c0,0.4-0.2,0.7-0.5,0.9
			c-0.2,0.1-0.3,0.1-0.5,0.1h-10c-0.2,0-0.4,0-0.5-0.1c-0.3-0.2-0.5-0.5-0.5-0.9V59c0-0.4,0.2-0.7,0.5-0.9C3.6,58,3.7,58,3.9,58h10
			c0.2,0,0.3,0,0.5,0.1c0.3,0.2,0.5,0.5,0.5,0.9V76z"/>
	</g>
</g>
<g id="plus" class="st0">
	<g id="_x36__2_" class="st1">
		<g>
			<path class="st2" d="M20.5,53H7.3c-1.1,0-2,0.9-2,2v1h4c0.4,0,0.8,0.1,1.1,0.3h9.5c0.2,0,0.4,0.1,0.6,0.2
				c0.3,0.2,0.4,0.5,0.4,0.8v20.2c0,0.3-0.2,0.6-0.4,0.8c-0.2,0.1-0.4,0.2-0.6,0.2h-8.6V82c0,0.5-0.4,1-1,1h10.2c1.1,0,2-0.9,2-2V55
				C22.5,53.9,21.6,53,20.5,53z M15.1,81c-0.1,0.6-0.6,1-1.2,1c-0.6,0-1.1-0.4-1.2-1c0-0.1,0-0.1,0-0.2c0-0.6,0.5-1.2,1.2-1.2
				c0.7,0,1.2,0.5,1.2,1.2C15.1,80.9,15.1,80.9,15.1,81z"/>
		</g>
	</g>
	<g id="_x36__1_" class="st1">
		<g>
			<path class="st2" d="M8.3,57h-11C-3,57-3.2,57-3.5,57.1c-0.7,0.3-1.2,1-1.2,1.8v22c0,1.1,0.9,2,2,2h11c0.7,0,1.4-0.4,1.7-1
				c0.2-0.3,0.3-0.6,0.3-1V59C10.3,57.9,9.4,57,8.3,57z M2.8,82c-0.5,0-1-0.5-1-1s0.5-1,1-1c0.6,0,1,0.5,1,1S3.4,82,2.8,82z M8.8,78
				c0,0.2,0,0.3-0.1,0.5c-0.1,0.2-0.2,0.3-0.4,0.4C8.2,78.9,8,79,7.8,79h-10c-0.2,0-0.3,0-0.5-0.1C-3,78.7-3.2,78.3-3.2,78V61
				c0-0.4,0.2-0.7,0.5-0.9C-2.5,60-2.4,60-2.2,60h10c0.2,0,0.4,0,0.5,0.1c0.3,0.2,0.5,0.5,0.5,0.9V78z"/>
		</g>
	</g>
</g>
<g id="x" class="st0">
	<g class="st1">
		<path class="st2" d="M14.9,55h-12c-1.1,0-2,0.9-2,2v23c0,1.1,0.9,2,2,2h12c1.1,0,2-0.9,2-2V57C16.9,55.9,16,55,14.9,55z M15.9,80
			c0,0.6-0.5,1-1,1h-12c-0.6,0-1-0.4-1-1V57c0-0.5,0.4-1,1-1h1.4v0.3c0,0.3,0.1,0.5,0.3,0.7c0.2,0.2,0.4,0.3,0.7,0.3h7.2
			c0.3,0,0.5-0.1,0.7-0.3c0.2-0.2,0.3-0.4,0.3-0.7V56h1.4c0.5,0,1,0.5,1,1V80z"/>
	</g>
</g>
<g id="all" class="st0">
	<g id="_x35_s_1_" class="st1">
		<g>
			<path class="st2" d="M4.9,81v-3h-6.5c-0.2,0-0.4,0-0.5-0.1c-0.3-0.2-0.5-0.5-0.5-0.9V62c0-0.4,0.2-0.7,0.5-0.9
				c0.1-0.1,0.3-0.1,0.5-0.1h6.5v-3h-7c-1.1,0-2,0.9-2,2v20c0,1.1,0.9,2,2,2h8C5.4,82,4.9,81.6,4.9,81z M2.9,81c-0.6,0-1-0.5-1-1
				c0-0.6,0.4-1,1-1c0.5,0,1,0.4,1,1C3.9,80.6,3.5,81,2.9,81z"/>
		</g>
	</g>
	<g id="x_2_" class="st1">
		<g>
			<path class="st2" d="M19.9,55h-12c-1.1,0-2,0.9-2,2v23c0,0.4,0.1,0.7,0.3,1c0.3,0.6,1,1,1.7,1h12c1.1,0,2-0.9,2-2V57
				C21.9,55.9,21,55,19.9,55z M20.9,80c0,0.5-0.5,1-1,1h-12c-0.6,0-1-0.5-1-1V57c0-0.6,0.4-1,1-1h1.4v0.3c0,0.3,0.1,0.5,0.3,0.7
				c0.2,0.2,0.4,0.3,0.7,0.3h7.2c0.3,0,0.5-0.1,0.7-0.3c0.2-0.2,0.3-0.4,0.3-0.7V56h1.4c0.5,0,1,0.4,1,1V80z"/>
		</g>
	</g>
</g>
<g id="x_1_" class="st0">
	<g class="st1">
		<path class="st3" d="M14.9,55.5h-12c-1.1,0-2,0.9-2,2v23c0,1.1,0.9,2,2,2h12c1.1,0,2-0.9,2-2v-23C16.9,56.4,16,55.5,14.9,55.5z
			 M15.9,80.5c0,0.5-0.5,1-1,1h-12c-0.6,0-1-0.5-1-1v-23c0-0.6,0.4-1,1-1h1.4v0.3c0,0.3,0.1,0.5,0.3,0.7c0.2,0.2,0.4,0.3,0.7,0.3
			h7.2c0.3,0,0.5-0.1,0.7-0.3c0.2-0.2,0.3-0.4,0.3-0.7v-0.3h1.4c0.5,0,1,0.4,1,1V80.5z"/>
	</g>
</g>
<circle class="st0" cx="34.2" cy="179.5" r="10"/>
<polyline class="st4" points="30.4,120.5 33.5,122.9 38.5,115.2 "/>
<g id="x_3_" class="st0">
	<path class="st5" d="M98,184H78.4c-0.6,0-1-0.4-1-1v-36.6c0-0.6,0.4-1,1-1H98c0.6,0,1,0.4,1,1V183C99,183.5,98.6,184,98,184z"/>
	<path class="st6" d="M94.3,148.3H82.1c-0.6,0-1-0.4-1-1v-2.5h14.2v2.5C95.3,147.8,94.9,148.3,94.3,148.3z"/>
</g>
<g id="icon1" class="st0">
	<g class="st1">
		<g>
			<g>
				<g>
					<path class="st2" d="M37.1,51.4L37.1,51.4C37.1,51.4,37.1,51.4,37.1,51.4c0-0.1-0.1-0.2-0.1-0.2c0,0,0,0,0-0.1
						c0,0-0.1-0.1-0.1-0.1c-0.1,0-0.1-0.1-0.2-0.1c-0.1,0-0.1,0-0.2-0.1c0,0,0,0-0.1,0h0l-20.7-2c-0.2,0-0.3,0-0.5,0.1l-4.1,2.8l0,0
						c-0.1,0.1-0.2,0.2-0.3,0.4c0,0,0,0.1,0,0.1c0,0,0,0.1,0,0.2v33.9c0,0.4,0.3,0.7,0.7,0.7l20.6,2c0.1,0,0.1,0,0.2,0
						c0.1,0,0.1,0,0.2,0c0.1,0,0.1-0.1,0.2-0.1l4.1-2.8c0.2-0.1,0.3-0.4,0.3-0.6V51.6C37.1,51.5,37.1,51.5,37.1,51.4z M15.8,50.3
						l18.4,1.8L32,53.6l-18.4-1.8L15.8,50.3z M31.5,87.5l-19.3-1.9V53.2l19.3,1.8V87.5z M35.6,85.1L33,86.9v-32l2.6-1.8V85.1z"/>
					<path class="st2" d="M37.1,51.4C37.1,51.4,37.1,51.4,37.1,51.4S37.1,51.4,37.1,51.4C37.1,51.3,37.1,51.4,37.1,51.4z"/>
				</g>
			</g>
		</g>
		<g id="_x36__3_">
			<g>
				<path class="st2" d="M27.4,58.2l-11.1-1c-1.1,0-2,0.9-2,2v22c0,1.1,0.9,2,1.9,2h0l11,1h0.1c1.1,0,2-0.9,2-2v-22
					C29.3,59.1,28.4,58.2,27.4,58.2z M22.1,82.7L22.1,82.7c-0.2,0.1-0.4,0.2-0.6,0.2c-0.3,0-0.5-0.1-0.7-0.3
					c-0.2-0.2-0.3-0.4-0.3-0.7c0-0.1,0-0.2,0.1-0.3c0.1-0.4,0.5-0.7,0.9-0.7c0.5,0,0.9,0.4,1,0.8c0,0,0,0.1,0,0.2
					C22.5,82.3,22.4,82.6,22.1,82.7z M27.8,79.2c0,0.4-0.2,0.7-0.5,0.9c-0.2,0.1-0.3,0.1-0.5,0.1l-10-1c-0.2,0-0.4,0-0.5-0.1
					c-0.3-0.2-0.5-0.5-0.5-0.9v-17c0-0.3,0.2-0.6,0.4-0.8c0.2-0.1,0.4-0.2,0.6-0.2l10,1c0.2,0,0.3,0,0.5,0.1
					c0.3,0.2,0.5,0.5,0.5,0.9V79.2z"/>
			</g>
		</g>
	</g>
	<g class="st1">
		<g>
			<g>
				<path class="st2" d="M-19.2,51.3C-19.2,51.4-19.2,51.4-19.2,51.3C-19.2,51.4-19.2,51.4-19.2,51.3
					C-19.2,51.4-19.2,51.3-19.2,51.3z"/>
			</g>
			<g>
				<path class="st2" d="M-15.2,86.9l-2.6-1.8V53l2.6,1.8V86.9z M7.1,52.3C7.1,52.2,7.1,52.2,7.1,52.3C7,52,6.9,51.9,6.8,51.8l0,0
					L2.7,49c-0.2-0.1-0.3-0.1-0.5-0.1l-20.7,2h0c0,0,0,0-0.1,0c-0.1,0-0.2,0-0.2,0.1c-0.1,0-0.1,0.1-0.2,0.1c-0.1,0-0.1,0.1-0.1,0.1
					c0,0,0,0,0,0.1c0,0,0,0.1,0,0.1c0,0,0,0,0,0.1v0c0,0,0,0.1,0,0.1v33.9c0,0.3,0.1,0.5,0.3,0.6l4.1,2.8c0,0,0,0,0.1,0
					c0,0,0.1,0.1,0.1,0.1c0.1,0,0.1,0,0.2,0c0.1,0,0.1,0,0.2,0l20.6-2c0.4,0,0.7-0.4,0.7-0.7V52.4C7.1,52.4,7.1,52.3,7.1,52.3z
					 M-16.4,52.1L2,50.3l2.2,1.5l-18.4,1.8L-16.4,52.1z M5.6,85.6l-19.3,1.9V55.1l19.3-1.8V85.6z"/>
			</g>
		</g>
	</g>
	<g id="x_4_" class="st1">
		<g>
			<path class="st2" d="M1.9,55.2L1.9,55.2L-10,56.4c-1.1,0-2,0.9-2,2v25c0,1.1,0.9,2,2.1,2h0l12-1.1c1.1,0,2-0.9,2-2v-25
				C4,56.1,3.1,55.2,1.9,55.2z M3,82.2c0,0.5-0.5,1-1,1l-12,1.1c-0.6,0-1-0.5-1-1v-25c0-0.6,0.4-1,1-1l1.4-0.1v0.5
				c0,0.2,0,0.3,0.1,0.5c0.2,0.3,0.5,0.5,0.9,0.5l7.2-0.8c0.4,0,0.8-0.3,0.9-0.6c0-0.1,0.1-0.3,0.1-0.4v-0.6L2,56.2c0.5,0,1,0.5,1,1
				V82.2z"/>
		</g>
	</g>
	<g class="st1">
		<g class="st7">
			
				<image style="overflow:visible;" width="92" height="92" xlink:href="76613BB7.png"  transform="matrix(1 0 0 1 -11.9688 2.0463)">
			</image>
		</g>
		<circle class="st8" cx="34" cy="48" r="10"/>
		<polyline class="st9" points="30.5,49.5 33.6,51.9 38.6,44.2 		"/>
	</g>
</g>
<g id="icon2" class="st0">
	<g class="st1">
		<path class="st2" d="M15.5,81.9l-0.3-0.2c-0.2-0.1-18-9.2-17.6-36.4l0-0.7l0.7-0.1c0.1,0,7.8-0.9,16.8-6.2l0.4-0.2l0.4,0.2
			c9,5.4,16.8,6.2,16.9,6.2l0.7,0.1l0,0.7C33.8,72.6,16,81.7,15.8,81.8L15.5,81.9z M-0.9,46c-0.1,23.7,14,32.9,16.4,34.2
			C17.8,78.9,32,69.7,31.9,46c-2.1-0.3-8.7-1.6-16.4-6.1C7.8,44.4,1.2,45.7-0.9,46z"/>
	</g>
	<g class="st1">
		<path class="st2" d="M25.9,50.1c0.2,16.5-10.5,22.8-10.5,22.8S4.8,66.6,5,50.1c0,0,4.8-0.5,10.4-3.9
			C21.1,49.6,25.9,50.1,25.9,50.1z"/>
	</g>
	<g class="st1">
		<g class="st7">
			
				<image style="overflow:visible;" width="92" height="92" xlink:href="76613BB5.png"  transform="matrix(1 0 0 1 -11.9688 -3.9537)">
			</image>
		</g>
		<circle class="st8" cx="34" cy="42" r="10"/>
		<text transform="matrix(1 0 0 1 29.6865 45.9162)" class="st10 st11 st12">3</text>
	</g>
</g>
<g id="icon3" class="st0">
	<g class="st1">
		<g>
			<path class="st2" d="M56.4,40c0,0-0.1-0.1-0.1-0.1c-0.2-0.2-0.8-0.8-4.6-0.4c-0.3,0-0.6,0.3-0.7,0.6c-0.1,0.1-0.2,0.3-0.5,0.4
				c-1.1,0.2-10.5,0.3-12.1-0.2c-0.1-0.2-0.2-0.3-0.4-0.5c-0.8-0.6-2-0.5-2.3-0.5c-0.2,0-0.4,0.1-0.5,0.3c0,0-0.1,0.1-0.2,0.3
				c-0.3,0.4-0.5,0.6-0.7,0.8c0-0.1,0-0.2,0-0.3c0-0.1,0-0.3,0.1-0.4c0.4-1.3-2.2-3.4-2.7-3.8c-0.8-0.5-1.4-0.7-1.9-0.6
				c-0.6,0.1-3.2-0.8-5.3-1.7c-0.1,0-0.2-0.1-0.3-0.1h-30c-0.4,0-0.7,0.3-0.8,0.7c0,0-0.1,0.7-0.2,1.3l0,0.1c0,0.3-0.1,0.4-0.1,0.4
				c-0.2,0.3-1,1.5-1,2.8v11.2c0,0.8,0.4,1.3,0.8,1.6c0.1,0.1,0.2,0.2,0.3,0.3c0.6,0.5,0.8,0.7,0.7,1.2c0,0,0,0.1,0,0.1
				c-0.1,1.6,1.5,3.2,2.6,4.1c0.3,0.2,0.5,0.4,0.6,0.6c0.2,0.2,0.5,0.6,0.7,0.9l0.4,0.5c1,1.3,1.6,1.9,2.3,1.7
				c0.1,0,0.2-0.1,0.3-0.1c0.8-0.2,1.1-0.2,1.4,0.1c0.9,1.1,4.2,1.8,5.3,1.9h0.8c0,0,0.1,0,0.2,0c0.7-0.1,2.6-0.4,3.6,0
				c0.2,0.1,0.4,0.2,0.4,0.3c0.1,0.5,0.3,1,0.7,1.5c0.6,1.1,1.5,1.8,1.5,1.9c0.2,0.2,0.4,0.2,0.6,0.2c0.2,0,0.4-0.2,0.5-0.4
				c0,0,0.5-0.8,0.7-1.4c0.4,0.2,0.8,0.9,1.2,2.1c0.1,0.3,0.2,0.7,0.4,1c0.4,0.9,1.1,1.7,2,2.4c0.9,0.7,1.7,1,1.7,1
				c0.2,0.1,0.5,0.1,0.7-0.1s0.3-0.4,0.3-0.6c0,0,0-0.4,0-0.9c0-0.6,0-1.4,0.1-2.1c0-0.2,0-0.4,0-0.6c0.1-0.6,2.5-1.6,3.4-1.8
				c0.2,0,1.1,0.4,1.7,0.6c2,0.8,2.8,1,3.3,0.6c0.2-0.2,0.4-0.4,0.4-0.7c0-0.2,0.8-0.8,1.2-1l0.3-0.2c0.1,0,0.2,0.1,0.3,0.2
				c0.2,0.2,0.5,0.5,0.7,0.7c0.4,0.4,0.7,0.8,1.1,0.8c0.1,0.4,0.3,0.8,0.4,1.3c0.2,0.6,0.3,1.2,0.4,1.7c0.1,0.5,0.1,0.8,0,1
				c0,0.4,0.1,0.8,0.4,1.4c0.3,0.6,1,1,2,1.1c0,0,0.3,0,0.7,0c0.6,0,1.4-0.1,1.7-0.4c0.3-0.3,0.5-1.1,0.5-2.4c0-0.5,0.1-1.5-0.1-2.3
				c-0.1-0.6-0.3-1.1-0.6-1.4c-0.1-0.1-0.4-0.8-0.6-2.1c-0.1-0.7-0.1-1.4,0-2c0.1-0.5,0.1-0.6,0.1-0.6c0.4-0.3,1.5-1.3,2.7-2.4
				c0.9-0.8,1.7-1.6,2.2-2.2c1.1-1.2,1.5-1.9,1.3-2.5c-0.1-0.3-0.3-0.5-0.6-0.7c-0.2-0.1-0.3-0.1-0.2-0.8c0-0.2,0.1-0.5,0.1-0.8
				c0.1-0.4,0.1-0.8,0.2-1.3c0-0.1,0-0.1,0-0.2c1,0,1.6-0.5,1.9-1.9c0.1-0.3,0.2-0.6,0.5-0.9c0.7-0.6,1.8-0.9,2.5-1.1
				c0.7-0.2,1.2-0.3,1.3-0.9c0.1-0.3-0.1-0.6-0.3-0.8c0,0,0,0-0.1-0.1c-0.1-0.4,0-1.1,0.4-1.4c0.1-0.1,0.3-0.3,0.5-0.4
				c0.3-0.2,0.7-0.5,1.1-0.8C55.9,42,57.1,40.9,56.4,40z M53.5,42c-0.4,0.3-0.7,0.6-1,0.8c-0.2,0.2-0.4,0.3-0.6,0.5
				c-0.9,0.7-1.1,2.1-0.9,3c-0.9,0.2-2.1,0.6-3,1.4c-0.5,0.5-0.8,1.1-1,1.7c-0.1,0.6-0.2,0.7-0.2,0.7h-0.2c-0.6,0-1.4,0.1-1.6,1.6
				c0,0.4-0.1,0.8-0.2,1.2c-0.1,0.3-0.1,0.6-0.1,0.9c0,0.5-0.1,1.4,0.7,2c-0.1,0.2-0.4,0.5-0.8,1c-0.5,0.6-1.2,1.3-2.1,2.1
				c-1.2,1.1-2.3,2-2.7,2.3c-0.4,0.3-0.6,0.8-0.7,1.6c-0.1,0.6-0.1,1.5,0,2.3c0.1,0.8,0.4,2.3,1,2.9c0,0,0.1,0.1,0.2,0.6
				c0.1,0.5,0.1,1.2,0.1,2c0,0.7-0.1,1.2-0.2,1.4c-0.6,0.1-1.7,0-1.9-0.3c-0.2-0.4-0.2-0.5-0.2-0.5c0-0.4,0-0.8,0-1.4
				c-0.1-0.5-0.2-1.2-0.4-1.8c-0.7-2.7-1.3-2.6-1.6-2.6c0,0-0.1,0-0.1,0c0,0,0,0-0.1-0.1c-0.2-0.3-0.5-0.6-0.8-0.9
				c-1-0.9-1.7-0.6-2.1-0.4l-0.4,0.3C32,64.9,31.3,65.3,31,66c-0.5-0.1-1.3-0.4-1.8-0.6c-1.5-0.6-2-0.7-2.4-0.7c0,0-4.6,1.1-4.7,3.2
				c0,0.2,0,0.4,0,0.6c0,0.6,0,1.3,0,1.9c-0.1-0.1-0.3-0.2-0.4-0.3c-0.7-0.6-1.3-1.2-1.6-1.9c-0.1-0.2-0.2-0.5-0.3-0.7
				c-0.4-1.5-1.1-2.6-1.9-3.1c-0.6-0.4-1.3-0.3-1.8,0.1c-0.1,0.1-0.2,0.2-0.2,0.3c-0.1,0.2-0.2,0.4-0.3,0.6
				c-0.2-0.2-0.4-0.5-0.6-0.8c-0.3-0.4-0.4-0.8-0.5-1.1c-0.1-0.4-0.4-1-1.3-1.3c-1.3-0.5-3.4-0.2-4.3,0H8.1
				c-1.5-0.2-3.9-0.9-4.2-1.4C3,59.6,1.7,59.9,1,60.1c0,0-0.1,0-0.1,0c-0.1-0.1-0.4-0.4-1-1.2l-0.4-0.5c-0.3-0.4-0.6-0.8-0.8-1
				c-0.2-0.2-0.4-0.4-0.8-0.7c-0.7-0.7-2.1-1.9-2-2.9c0.2-1.3-0.7-2-1.3-2.5c-0.1-0.1-0.2-0.1-0.3-0.2l0,0C-6,50.8-6,50.7-6,50.6
				V39.5c0-1,0.7-2,0.7-2c0,0,0-0.1,0-0.1c0.1-0.2,0.2-0.4,0.2-0.8l0-0.2c0-0.2,0.1-0.5,0.1-0.7h2.1l0.2-0.5c0-0.2,0.3-0.2,0.3,0
				l0.2,0.5h4.9l0.2-0.5c0.1-0.2,0.3-0.2,0.3,0l0.2,0.5h4.9l0.2-0.5c0.1-0.2,0.3-0.2,0.3,0l0.2,0.5h4.8l0.2-0.5
				c0.1-0.2,0.3-0.2,0.3,0l0.2,0.5h9.8c2.3,0.9,5,1.9,6.1,1.7c0.1,0,0.3,0.1,0.6,0.3c1,0.7,1.9,1.8,2.1,2.2c0,0.2-0.1,0.4-0.1,0.5
				c-0.1,0.5,0,1.4,0.5,1.9c0.3,0.2,0.7,0.3,1.1,0.2c0.2-0.1,0.8-0.3,1.8-1.5c0,0,0,0,0,0c0.3,0,0.7,0,0.8,0.2
				c0.6,1.9,13.7,1,13.8,0.9c0.7-0.2,1.1-0.7,1.3-1c0.9-0.1,1.9-0.1,2.5,0C54.5,41.2,54.1,41.5,53.5,42z"/>
		</g>
		<g>
			<g>
				<line class="st13" x1="19.1" y1="67.5" x2="22.7" y2="67.5"/>
				<line class="st13" x1="37" y1="67.5" x2="40.7" y2="67.5"/>
				<line class="st13" x1="0.6" y1="60.6" x2="41.5" y2="60.6"/>
				<line class="st13" x1="-4.4" y1="53.7" x2="45.1" y2="53.7"/>
				<line class="st13" x1="17.6" y1="46.8" x2="51.1" y2="46.8"/>
				<line class="st13" x1="17.6" y1="39.9" x2="33.1" y2="39.9"/>
			</g>
		</g>
		<g>
			<path class="st2" d="M-5.6,34.8l-1.5,4.5l0.3,11.8h24.4c0.8,0,1.5-0.7,1.5-1.5V34.8H-5.6z M-0.4,47.7l-1.1,0.8l0.4,1.3
				c0,0.2-0.1,0.3-0.3,0.2l-1.1-0.8L-3.5,50c-0.1,0.1-0.3,0-0.3-0.2l0.4-1.3l-1-0.8c-0.1-0.1-0.1-0.3,0.1-0.3l1.3,0l0.1-0.3l0.3-1
				c0-0.2,0.3-0.2,0.3,0l0.3,1l0.1,0.3l1.3,0C-0.4,47.4-0.3,47.6-0.4,47.7z M-0.4,42.2L-1.5,43l0.4,1.3c0,0.2-0.1,0.3-0.3,0.2
				l-1.1-0.8l-1.1,0.8c-0.1,0.1-0.3,0-0.3-0.2l0.4-1.3l-1-0.8c-0.1-0.1-0.1-0.3,0.1-0.3l1.3,0l0.1-0.3l0.3-0.9c0-0.2,0.3-0.2,0.3,0
				l0.3,0.9l0.1,0.3l1.3,0C-0.4,41.9-0.3,42.1-0.4,42.2z M-0.4,36.7l-1.1,0.8l0.4,1.3c0,0.2-0.1,0.3-0.3,0.2l-1.1-0.8l-1.1,0.8
				c-0.1,0.1-0.3,0-0.3-0.2l0.4-1.3l-1-0.8c-0.1-0.1-0.1-0.3,0.1-0.3l1.3,0l0.1-0.3l0.2-0.5l0.2-0.5c0-0.2,0.3-0.2,0.3,0l0.2,0.5
				L-2,36l0.1,0.3l1.3,0C-0.4,36.4-0.3,36.6-0.4,36.7z M5.1,47.7L4,48.5l0.4,1.3c0.1,0.2-0.1,0.3-0.3,0.2l-1.1-0.8L2,50
				c-0.1,0.1-0.3,0-0.3-0.2l0.4-1.3l-1.1-0.8c-0.1-0.1-0.1-0.3,0.1-0.3l1.3,0l0.1-0.3l0.3-1C3,46,3.2,46,3.2,46.1l0.3,1l0.1,0.3
				l1.3,0C5.1,47.4,5.2,47.6,5.1,47.7z M5.1,42.2L4,43l0.4,1.3c0.1,0.2-0.1,0.3-0.3,0.2l-1.1-0.8L2,44.4c-0.1,0.1-0.3,0-0.3-0.2
				L2.1,43l-1.1-0.8c-0.1-0.1-0.1-0.3,0.1-0.3l1.3,0l0.1-0.3l0.3-0.9c0.1-0.2,0.3-0.2,0.3,0l0.3,0.9l0.1,0.3l1.3,0
				C5.1,41.9,5.2,42.1,5.1,42.2z M5.1,36.7L4,37.4l0.4,1.3c0.1,0.2-0.1,0.3-0.3,0.2l-1.1-0.8L2,38.9c-0.1,0.1-0.3,0-0.3-0.2l0.4-1.3
				l-1.1-0.8c-0.1-0.1-0.1-0.3,0.1-0.3l1.3,0L2.6,36l0.2-0.5l0.2-0.5c0.1-0.2,0.3-0.2,0.3,0l0.2,0.5L3.6,36l0.1,0.3l1.3,0
				C5.1,36.4,5.2,36.6,5.1,36.7z M10.6,47.7l-1,0.8l0.4,1.3c0,0.2-0.1,0.3-0.3,0.2l-1.1-0.8L7.5,50c-0.1,0.1-0.3,0-0.3-0.2l0.4-1.3
				l-1.1-0.8c-0.1-0.1-0.1-0.3,0.1-0.3l1.3,0l0.1-0.3l0.3-1c0.1-0.2,0.3-0.2,0.3,0l0.3,1l0.1,0.3l1.3,0
				C10.7,47.4,10.7,47.6,10.6,47.7z M10.6,42.2l-1,0.8l0.4,1.3c0,0.2-0.1,0.3-0.3,0.2l-1.1-0.8l-1.1,0.8c-0.1,0.1-0.3,0-0.3-0.2
				L7.7,43l-1.1-0.8c-0.1-0.1-0.1-0.3,0.1-0.3l1.3,0l0.1-0.3l0.3-0.9c0.1-0.2,0.3-0.2,0.3,0l0.3,0.9l0.1,0.3l1.3,0
				C10.7,41.9,10.7,42.1,10.6,42.2z M10.6,36.7l-1,0.8l0.4,1.3c0,0.2-0.1,0.3-0.3,0.2l-1.1-0.8l-1.1,0.8c-0.1,0.1-0.3,0-0.3-0.2
				l0.4-1.3l-1.1-0.8c-0.1-0.1-0.1-0.3,0.1-0.3l1.3,0L8.1,36l0.2-0.5l0.2-0.5c0.1-0.2,0.3-0.2,0.3,0l0.2,0.5L9.1,36l0.1,0.3l1.3,0
				C10.7,36.4,10.7,36.6,10.6,36.7z M16.1,47.7l-1.1,0.8l0.4,1.3c0.1,0.2-0.1,0.3-0.3,0.2l-1.1-0.8L13.1,50c-0.1,0.1-0.3,0-0.3-0.2
				l0.4-1.3l-1.1-0.8c-0.1-0.1-0.1-0.3,0.1-0.3l1.3,0l0.1-0.3l0.3-1c0.1-0.2,0.3-0.2,0.3,0l0.3,1l0.1,0.3l1.3,0
				C16.2,47.4,16.3,47.6,16.1,47.7z M16.1,42.2L15.1,43l0.4,1.3c0.1,0.2-0.1,0.3-0.3,0.2l-1.1-0.8l-1.1,0.8c-0.1,0.1-0.3,0-0.3-0.2
				l0.4-1.3l-1.1-0.8c-0.1-0.1-0.1-0.3,0.1-0.3l1.3,0l0.1-0.3l0.3-0.9c0.1-0.2,0.3-0.2,0.3,0l0.3,0.9l0.1,0.3l1.3,0
				C16.2,41.9,16.3,42.1,16.1,42.2z M14.6,36l0.1,0.3l1.3,0c0.2,0,0.2,0.2,0.1,0.3l-1.1,0.8l0.4,1.3c0.1,0.2-0.1,0.3-0.3,0.2
				l-1.1-0.8l-1.1,0.8c-0.1,0.1-0.3,0-0.3-0.2l0.4-1.3l-1.1-0.8c-0.1-0.1-0.1-0.3,0.1-0.3l1.3,0l0.1-0.3l0.1-0.5l0.2-0.5
				c0.1-0.2,0.3-0.2,0.3,0l0.2,0.5L14.6,36z"/>
		</g>
	</g>
	<g class="st1">
		<g class="st7">
			
				<image style="overflow:visible;" width="92" height="92" xlink:href="76613BBB.png"  transform="matrix(1 0 0 1 4.0313 -11.9537)">
			</image>
		</g>
		<circle class="st8" cx="50" cy="34" r="10"/>
		<path class="st14" d="M54.6,32.6l-3.2,0l-0.2-0.7l-0.8-2.3c-0.1-0.4-0.7-0.4-0.8,0l-0.8,2.3l-0.2,0.7l-3.2,0
			c-0.4,0-0.6,0.5-0.3,0.8l2.5,1.9l-1,3c-0.1,0.4,0.3,0.7,0.7,0.5l2.6-1.8l2.6,1.8c0.3,0.2,0.8-0.1,0.7-0.5l-1-3l2.5-1.9
			C55.2,33.1,55,32.6,54.6,32.6z"/>
	</g>
</g>
<g id="icon4" class="st0">
	<g id="_x34_" class="st1">
		<g>
			<g id="head">
				<g>
					<path class="st2" d="M38.6,34.1c-0.3,0-0.7-0.3-1-0.6c-0.3-0.3-0.5-0.8-0.7-1.3c-0.1-0.2-0.2-0.4-0.2-0.6l-0.1-0.1
						c0-0.1-0.1-0.2-0.1-0.4c0-0.1,0-0.2-0.1-0.3c-0.1-0.5-0.4-0.9-0.8-1.2c-0.4-0.3-0.8-0.4-1.2-0.4c-0.5,0-0.9,0.2-1.3,0.3
						c-0.1,0.1-0.3,0.1-0.4,0.2c-0.5,0.1-0.9,0.2-1.2,0.3c-0.8,0.1-1.6,0.2-2.4,0.2c-0.9,0-1.7-0.1-2.5-0.2
						c-0.4-0.1-0.8-0.2-1.2-0.3c-0.1,0-0.3-0.1-0.4-0.2c-0.6-0.2-1.5-0.6-2.4,0.1c-0.4,0.3-0.7,0.7-0.8,1.2c0,0.1,0,0.3-0.1,0.4
						c0,0.2,0,0.3-0.1,0.3c-0.1,0.1-0.1,0.3-0.2,0.4c0,0.1-0.1,0.2-0.1,0.4c-0.2,0.5-0.4,1-0.7,1.3c-0.3,0.3-0.8,0.6-1,0.6
						c-0.1-0.3-0.3-1-0.2-2.3c0-0.4,1-8.6,9.7-8.6s9.6,8.3,9.7,8.6C38.9,33,38.7,33.8,38.6,34.1z"/>
				</g>
			</g>
			<g>
				<path class="st2" d="M46.2,65l-2.1-10.4c0-0.1-0.8-2.5-3.4-3.3l-5.5-1.7l-1.6-1.1v-1.1c2.8-1.6,4.8-4.6,4.8-8.1
					c0.1,0,0.2,0,0.3,0c1.7,0,3.1-1.4,3.1-3.1c0-1-0.5-2-1.3-2.5c0.1-0.5,0.1-1.3,0-2.2c0-0.1-1.1-10.1-11.3-10.1
					s-11.3,10-11.3,10.1c-0.1,0.9-0.1,1.6,0,2.2c-0.8,0.6-1.3,1.5-1.3,2.5c0,1.7,1.4,3.1,3.1,3.1c0.1,0,0.2,0,0.3,0
					c0,3.5,2,6.5,4.8,8.1v1.1L23,49.6l-5.5,1.7c-2.6,0.8-3.4,3.2-3.5,3.4L12,65c-0.2,1,0.1,1.7,0.4,2.2c0.9,1.1,2.5,1.3,2.7,1.3h4.2
					l19.3,0h4.4c0.2,0,1.8-0.2,2.7-1.3C46.1,66.7,46.4,66,46.2,65z M33.8,50.7l-1.3,3.4l-2.1-0.7l2.5-3.4h0L33.8,50.7z M29.1,52.5
					l-2.8-3.8v-0.6c0.9,0.3,1.8,0.4,2.8,0.4s1.9-0.2,2.8-0.4v0.6L29.1,52.5z M39.7,35.3c0.2,0.3,0.3,0.6,0.3,0.9
					c0,0.8-0.6,1.4-1.4,1.4c-0.1,0-0.2,0-0.3,0v-2c0.1,0,0.2,0,0.3,0C39,35.7,39.3,35.6,39.7,35.3L39.7,35.3z M19.8,37.7
					c-0.1,0-0.2,0-0.3,0c-0.8,0-1.4-0.6-1.4-1.4c0-0.3,0.1-0.7,0.3-0.9l0.1,0.1c0.4,0.3,0.9,0.4,1.3,0.3V37.7z M20.7,33.5
					c-0.3,0.3-0.8,0.6-1,0.6c-0.1-0.3-0.3-1-0.2-2.3c0-0.4,1-8.6,9.7-8.6s9.6,8.3,9.7,8.6c0.1,1.3-0.1,2-0.2,2.3
					c-0.3,0-0.7-0.3-1-0.6c-0.3-0.3-0.5-0.8-0.7-1.3c-0.1-0.2-0.2-0.4-0.2-0.6l-0.1-0.1c0-0.1-0.1-0.2-0.1-0.4c0-0.1,0-0.2-0.1-0.3
					c-0.1-0.5-0.4-0.9-0.8-1.2c-0.4-0.3-0.8-0.4-1.2-0.4c-0.5,0-0.9,0.2-1.3,0.3c-0.1,0.1-0.3,0.1-0.4,0.2c-0.5,0.1-0.9,0.2-1.2,0.3
					c-0.8,0.1-1.6,0.2-2.4,0.2c-0.9,0-1.7-0.1-2.5-0.2c-0.4-0.1-0.8-0.2-1.2-0.3c-0.1,0-0.3-0.1-0.4-0.2c-0.6-0.2-1.5-0.6-2.4,0.1
					c-0.4,0.3-0.7,0.7-0.8,1.2c0,0.1,0,0.3-0.1,0.4c0,0.2,0,0.3-0.1,0.3c-0.1,0.1-0.1,0.3-0.2,0.4c0,0.1-0.1,0.2-0.1,0.4
					C21.2,32.7,21,33.2,20.7,33.5z M21.5,39.2V35c0.2-0.1,0.3-0.2,0.3-0.3c0.5-0.5,0.8-1.2,1.1-1.8c0.1-0.1,0.1-0.3,0.2-0.4
					c0-0.1,0.1-0.2,0.2-0.4c0.1-0.3,0.1-0.5,0.2-0.7c0-0.1,0-0.2,0-0.3c0-0.1,0.1-0.1,0.1-0.2c0.2-0.1,0.3-0.1,0.8,0.1
					c0.2,0.1,0.4,0.1,0.6,0.2c0.4,0.1,0.9,0.3,1.4,0.4c0.9,0.1,1.8,0.2,2.8,0.2c0.9-0.1,1.8-0.1,2.7-0.3c0.4-0.1,0.8-0.2,1.4-0.4
					c0.2-0.1,0.4-0.1,0.6-0.2c0.6-0.2,0.7-0.2,0.8-0.1c0.1,0,0.1,0.1,0.1,0.2c0,0.1,0,0.2,0,0.2c0,0.2,0.1,0.5,0.2,0.8l0.1,0.1
					c0.1,0.2,0.2,0.4,0.3,0.7c0.3,0.6,0.6,1.3,1.1,1.8c0,0,0.1,0.1,0.3,0.3v4.3c0,4.2-3.4,7.6-7.6,7.6
					C24.9,46.9,21.5,43.4,21.5,39.2z M25.3,50.1l2.5,3.3l-2.1,0.7l-1.3-3.4L25.3,50.1z M44.4,66.1c-0.3,0.5-1.2,0.6-1.4,0.7h-3.4
					v-6.3c0-0.5-0.4-0.8-0.8-0.8c-0.5,0-0.8,0.4-0.8,0.8v6.3H20.2v-6.3c0-0.5-0.4-0.8-0.8-0.8c-0.5,0-0.8,0.4-0.8,0.8v6.3h-3.3
					c-0.2,0-1.1-0.2-1.5-0.7c-0.1-0.1-0.2-0.4-0.1-0.8l2-10.2c0,0,0.6-1.7,2.3-2.2l4.9-1.5l1.5,4.1c0.1,0.3,0.4,0.5,0.8,0.5
					c0.1,0,0.2,0,0.3,0l2.8-0.9v5.9c0,0.5,0.4,0.8,0.8,0.8c0.5,0,0.8-0.4,0.8-0.8V55l2.8,0.9c0.1,0,0.2,0,0.3,0
					c0.3,0,0.7-0.2,0.8-0.5l1.5-4.1l4.9,1.5c0.9,0.3,1.4,0.8,1.8,1.3c0.4,0.5,0.5,0.9,0.5,0.9l2.1,10.3C44.6,65.8,44.5,66,44.4,66.1
					z"/>
				<path class="st2" d="M38.9,68.4C38.9,68.5,38.8,68.5,38.9,68.4c-0.1,0-0.1,0-0.2,0H38.9z"/>
			</g>
		</g>
		<g>
			<g>
				<circle class="st2" cx="26.3" cy="36.9" r="1.1"/>
			</g>
			<g>
				<circle class="st2" cx="31.9" cy="36.9" r="1.1"/>
			</g>
		</g>
		<g>
			<path class="st2" d="M32,41.6c0,1.1-1.3,2-2.9,2c-1.6,0-2.9-0.9-2.9-2c0-0.3,0.2-0.6,0.6-0.6c0.3,0,0.6,0.3,0.6,0.6
				c0,0.4,0.7,0.9,1.8,0.9c1,0,1.8-0.5,1.8-0.9c0-0.3,0.2-0.6,0.6-0.6C31.7,41.1,32,41.3,32,41.6z"/>
		</g>
	</g>
	<g class="st1">
		<g class="st7">
			
				<image style="overflow:visible;" width="92" height="92" xlink:href="76613BBD.png"  transform="matrix(1 0 0 1 2.0313 -15.9537)">
			</image>
		</g>
		<circle class="st8" cx="48" cy="30" r="10"/>
		<g>
			<path class="st10" d="M44.5,28.2h-1.4c-0.2,0-0.3,0.2-0.3,0.3v6.1c0,0.2,0.2,0.3,0.3,0.3h1.4c0.2,0,0.3-0.2,0.3-0.3v-6.1
				C44.9,28.4,44.7,28.2,44.5,28.2z"/>
			<path class="st10" d="M49.8,28.2l0.4-1c0.2-0.7,0.1-1.7-0.6-2.1c-0.2-0.1-0.5-0.2-0.8-0.1c-0.1,0-0.3,0.1-0.3,0.3
				c-0.1,0.1-0.1,0.3-0.1,0.5c-0.1,0.4-0.3,0.8-0.6,1.1c-0.5,0.5-2.2,2-2.2,2v5.4h5.7c0.8,0,1.3-0.9,0.9-1.5
				c0.5-0.3,0.6-0.9,0.3-1.4c0.5-0.3,0.6-0.9,0.3-1.4c0.8-0.5,0.5-1.7-0.4-1.9C52.3,28.2,49.8,28.2,49.8,28.2z"/>
		</g>
	</g>
</g>
<g class="st0">
	<line class="st15" x1="201.1" y1="7.1" x2="211" y2="17"/>
	<line class="st15" x1="211" y1="7.1" x2="201.1" y2="17"/>
</g>
<g id="show_x5F_more" class="st0">
	<path class="st16" d="M43.3,37.5c0,0-0.5-0.5-0.7-0.7c-2.3-2.3-6.1-2.4-8.4,0c-2.3,2.3-2.3,6.1,0,8.5c2.3,2.3,6.1,2.3,8.5,0"/>
	<polyline class="st16" points="41,38 43.7,38 43.7,35.3 	"/>
</g>
<g class="st0">
	<line class="st17" x1="137" y1="22" x2="157" y2="22"/>
	<line class="st17" x1="137" y1="28" x2="157" y2="28"/>
	<line class="st17" x1="137" y1="34" x2="157" y2="34"/>
</g>
<circle class="st18" cx="119.5" cy="21.5" r="2"/>
<circle class="st18" cx="111.5" cy="21.5" r="2"/>
<circle class="st18" cx="119.5" cy="29.5" r="2"/>
<circle class="st18" cx="111.5" cy="29.5" r="2"/>
<g id="skoro" class="st0">
	<path class="st6" d="M28.4,76.9h-39c-2.2,0-4-1.8-4-4v-8c0-2.2,1.8-4,4-4h39c2.2,0,4,1.8,4,4v8C32.4,75.1,30.6,76.9,28.4,76.9z"/>
	<text transform="matrix(1 0 0 1 -7.4365 71.8016)" class="st19 st11 st20">Скоро</text>
</g>
<g id="skoro_x5F_v_x5F_prodaje" class="st0">
	<g class="st21">
		
			<image style="overflow:visible;" width="144" height="144" xlink:href="76613BBF.png"  transform="matrix(1 0 0 1 -33.9688 -30.9537)">
		</image>
	</g>
	<circle class="st22" cx="38" cy="41.1" r="35.5"/>
	<g class="st1">
		<ellipse class="st23" cx="38" cy="22.6" rx="8" ry="8"/>
		<line class="st23" x1="38" y1="22.6" x2="38" y2="14.6"/>
		<line class="st23" x1="38" y1="28.4" x2="38" y2="30.6"/>
		<line class="st23" x1="46" y1="22.6" x2="43.9" y2="22.6"/>
		<line class="st23" x1="32.2" y1="22.6" x2="30" y2="22.6"/>
		<line class="st23" x1="38" y1="22.6" x2="43.7" y2="16.9"/>
		<line class="st23" x1="33.9" y1="26.7" x2="32.4" y2="28.2"/>
		<line class="st23" x1="43.7" y1="28.2" x2="42.2" y2="26.7"/>
		<line class="st23" x1="33.9" y1="18.4" x2="32.4" y2="16.9"/>
	</g>
	<text transform="matrix(1 0 0 1 21.5716 44.9111)" class="st1"><tspan x="0" y="0" class="st10 st11 st20">Скоро</tspan><tspan x="-11.3" y="12" class="st10 st11 st20">в продаже</tspan></text>
</g>
<g id="map_x5F_pin" class="st0">
	<g class="st21">
		
			<image style="overflow:visible;" width="108" height="117" xlink:href="76613BBC.png"  transform="matrix(1 0 0 1 -15.9688 -16.9537)">
		</image>
	</g>
	<g class="st1">
		<g>
			<g>
				<g>
					<path class="st8" d="M55.1,35.8c0,13.6-14.9,26.2-15.5,26.7c-0.5,0.4-1,0.6-1.6,0.6c-0.6,0-1.1-0.2-1.6-0.6
						C35.8,62,20.9,49.4,20.9,35.8c0-9.2,7.7-16.7,17.1-16.7S55.1,26.6,55.1,35.8z"/>
				</g>
			</g>
		</g>
	</g>
	<path class="st19" d="M38,29.4c0.6-1.5,2.1-2.9,4.3-2.9c0,2.7-1.9,4.4-3.8,4.5C37.6,31.3,37.6,30.4,38,29.4z M38.4,43.6
		c-2.5,0-4.9-1.5-6.1-3.8c-1.1-2.2-0.9-4.7,0.5-6.6c0.1-0.1,0.1-0.2,0.2-0.3c0.6-0.7,1.4-1.1,2.3-1.2c0.8-0.1,1.4,0.2,2.2,0.4
		c0.2,0.1,0.4,0.1,0.6,0.1c0.6,0.1,1.2-0.1,1.7-0.3c0.5-0.2,1.1-0.2,1.6-0.2c1,0.1,1.9,0.6,2.6,1.5c0.1,0.2,0.2,0.3,0.3,0.5
		c-0.9,0.7-1.5,1.8-1.5,3.1c0,1.3,0.6,2.5,1.5,3.2C43.2,42.2,40.9,43.6,38.4,43.6z"/>
</g>
<polyline id="arrow" class="st24" points="33,39.1 38,43.1 43,39.1 "/>
<g id="fire_x5F_label" class="st0">
	<g class="st21">
		
			<image style="overflow:visible;" width="103" height="103" xlink:href="76613BB4.png"  transform="matrix(1 0 0 1 -12.9688 -9.9537)">
		</image>
	</g>
	<circle class="st25" cx="38" cy="41.1" r="15"/>
	<g id="surface1" class="st1">
		<path class="st10" d="M35.1,50.1c-2-6.6,2.2-9,2.2-9c-0.3,3.5,1.7,6.3,1.7,6.3c0.7-0.2,2.1-1.3,2.1-1.3c0,1.3-0.7,4-0.7,4
			s2.6-2,3.4-5.3c0.8-3.3-1.6-6.7-1.6-6.7c0.1,2.4-0.7,4.7-2.2,6.4c0.1-0.1,0.1-0.2,0.2-0.3c0.3-0.6,0.7-2,0.5-5.4
			c-0.4-4.7-4.7-6.7-4.7-6.7c0.4,2.9-0.7,3.6-3.3,9C30.2,46.6,35.1,50.1,35.1,50.1z"/>
	</g>
</g>
<g id="v_x5F_nalichii" class="st0">
	<path class="st25" d="M44,41.1c0,3.3-2.7,6-6,6c-3.3,0-6-2.7-6-6s2.7-6,6-6c1.6,0,3.1,0.7,4.2,1.7c0.4,0.4,0.7,0.8,0.9,1.2
		C43.7,38.9,44,40,44,41.1z"/>
	<g class="st1">
		<path class="st10" d="M43.2,38l-4.6,5.5c-0.2,0.2-0.4,0.3-0.6,0.3h0c-0.2,0-0.5-0.1-0.6-0.3l-2-3c-0.2-0.3-0.1-0.8,0.2-1
			c0.3-0.2,0.8-0.1,1,0.2l1.5,2.2l4.1-5C42.6,37.2,42.9,37.6,43.2,38z"/>
	</g>
</g>
<polyline id="galochka" class="st26" points="35,41.6 37,43.6 41,38.6 "/>
<polyline id="arrow_x5F_slide" class="st24" points="40,37.1 36,41.1 40,45.1 "/>
<g id="_x31_2h">
	<circle class="st27" cx="36" cy="41.1" r="35"/>
	<g>
		<path class="st9" d="M22.2,33.8c-1.3,2.3-2.1,4.4-2.1,7.3c0,8.8,7.2,16,16,16c8.8,0,16-7.2,16-16c0-8.8-7.2-16-16-16"/>
		<circle class="st9" cx="36" cy="41.1" r="1.5"/>
		<line class="st9" x1="36" y1="41.1" x2="28.8" y2="36.7"/>
		<line class="st9" x1="36" y1="29.4" x2="36" y2="25.1"/>
	</g>
	<g class="st7">
		
			<image style="overflow:visible;" width="95" height="95" xlink:href="76613BB6.png"  transform="matrix(1 0 0 1 17.0313 -29.9537)">
		</image>
	</g>
	<circle class="st28" cx="64" cy="17.1" r="11"/>
	<text transform="matrix(1 0 0 1 55.4554 19.9475)"><tspan x="0" y="0" class="st10 st11 st20">12</tspan><tspan x="11.6" y="0" class="st10 st11 st29">ч</tspan></text>
</g>
</svg>
