<?xml version="1.0" encoding="utf-8"?>
<!-- Generator: Adobe Illustrator 22.0.0, SVG Export Plug-In . SVG Version: 6.00 Build 0)  -->
<svg version="1.1" id="Layer_1" xmlns="http://www.w3.org/2000/svg" xmlns:xlink="http://www.w3.org/1999/xlink" x="0px" y="0px"
	 viewBox="0 0 13.8 8" style="enable-background:new 0 0 13.8 8;" xml:space="preserve">
<style type="text/css">
	.st0{display:none;}
	.st1{display:inline;}
	.st2{fill:#282D3A;}
	.st3{fill:#85888B;}
	.st4{display:none;fill:none;stroke:#FFFFFF;stroke-width:2;stroke-linecap:round;stroke-linejoin:round;stroke-miterlimit:10;}
	.st5{display:inline;fill:none;stroke:#282D3A;stroke-width:1.5;stroke-linejoin:round;stroke-miterlimit:10;}
	.st6{display:inline;fill:#282D3A;}
	.st7{opacity:0.66;}
	.st8{fill:#FF005F;}
	.st9{fill:none;stroke:#FFFFFF;stroke-width:2;stroke-linecap:round;stroke-linejoin:round;stroke-miterlimit:10;}
	.st10{fill:#FFFFFF;}
	.st11{font-family:'SFUIText-Bold';}
	.st12{font-size:12px;}
	.st13{fill:none;stroke:#282D3A;stroke-width:1.5;stroke-linecap:round;stroke-linejoin:round;stroke-miterlimit:10;}
	.st14{fill:#F5F5F5;}
	
		.st15{display:inline;fill:none;stroke:#282D3A;stroke-width:1.5;stroke-linecap:round;stroke-linejoin:round;stroke-miterlimit:10;}
	
		.st16{display:inline;fill:none;stroke:#000000;stroke-width:1.5;stroke-linecap:round;stroke-linejoin:round;stroke-miterlimit:10;}
	.st17{display:inline;fill:none;stroke:#282D3A;stroke-width:2;stroke-linecap:round;stroke-linejoin:round;stroke-miterlimit:10;}
	.st18{display:none;fill:#282D3A;}
	.st19{display:inline;opacity:0.66;}
	.st20{display:inline;fill:#FF005F;}
	.st21{fill:none;stroke:#FFFFFF;stroke-width:1.5;stroke-linecap:round;stroke-linejoin:round;stroke-miterlimit:10;}
	.st22{font-size:10px;}
	.st23{display:inline;fill:#FFFFFF;}
	.st24{fill:none;stroke:#0096FF;stroke-width:2;stroke-linecap:round;stroke-linejoin:round;stroke-miterlimit:10;}
</style>
<g id="_x35_s" class="st0">
	<g class="st1">
		<path class="st2" d="M-17.4,18.6h-10c-1.1,0-2,0.9-2,2v20c0,1.1,0.9,2,2,2h10c1.1,0,2-0.9,2-2v-20C-15.4,19.5-16.3,18.6-17.4,18.6
			z M-22.4,41.6c-0.5,0-1-0.4-1-1c0-0.5,0.5-1,1-1c0.6,0,1,0.5,1,1C-21.4,41.2-21.9,41.6-22.4,41.6z M-16.9,37.6
			c0,0.4-0.2,0.7-0.5,0.9c-0.1,0.1-0.3,0.1-0.5,0.1h-9c-0.2,0-0.3,0-0.5-0.1c-0.3-0.2-0.5-0.5-0.5-0.9v-15c0-0.4,0.2-0.7,0.5-0.9
			c0.2-0.1,0.3-0.1,0.5-0.1h9c0.2,0,0.4,0,0.5,0.1c0.3,0.2,0.5,0.5,0.5,0.9V37.6z"/>
	</g>
</g>
<g id="_x36_" class="st0">
	<g class="st1">
		<path class="st2" d="M-16.7,17.9h-11c-1.1,0-2,0.9-2,2v22c0,1.1,0.9,2,2,2h11c1.1,0,2-0.9,2-2v-22C-14.7,18.8-15.6,17.9-16.7,17.9
			z M-22.2,42.9c-0.6,0-1-0.5-1-1c0-0.6,0.4-1,1-1c0.5,0,1,0.4,1,1C-21.2,42.4-21.7,42.9-22.2,42.9z M-16.2,38.9
			c0,0.4-0.2,0.7-0.5,0.9c-0.2,0.1-0.3,0.1-0.5,0.1h-10c-0.2,0-0.4,0-0.5-0.1c-0.3-0.2-0.5-0.5-0.5-0.9v-17c0-0.4,0.2-0.7,0.5-0.9
			c0.1-0.1,0.3-0.1,0.5-0.1h10c0.2,0,0.3,0,0.5,0.1c0.3,0.2,0.5,0.5,0.5,0.9V38.9z"/>
	</g>
</g>
<g id="plus" class="st0">
	<g id="_x36__2_" class="st1">
		<g>
			<path class="st2" d="M-10.6,15.9h-13.2c-1.1,0-2,0.9-2,2v1h4c0.4,0,0.8,0.1,1.1,0.3h9.5c0.2,0,0.4,0.1,0.6,0.2
				c0.3,0.2,0.4,0.5,0.4,0.8v20.2c0,0.3-0.2,0.6-0.4,0.8c-0.2,0.1-0.4,0.2-0.6,0.2h-8.6v3.5c0,0.5-0.4,1-1,1h10.2c1.1,0,2-0.9,2-2
				v-26C-8.6,16.8-9.5,15.9-10.6,15.9z M-16.1,43.9c-0.1,0.6-0.6,1-1.2,1c-0.6,0-1.1-0.4-1.2-1c0-0.1,0-0.1,0-0.2
				c0-0.6,0.5-1.2,1.2-1.2c0.7,0,1.2,0.5,1.2,1.2C-16.1,43.8-16.1,43.8-16.1,43.9z"/>
		</g>
	</g>
	<g id="_x36__1_" class="st1">
		<g>
			<path class="st2" d="M-22.8,19.9h-11c-0.3,0-0.6,0.1-0.8,0.2c-0.7,0.3-1.2,1-1.2,1.8v22c0,1.1,0.9,2,2,2h11c0.7,0,1.4-0.4,1.7-1
				c0.2-0.3,0.3-0.6,0.3-1v-22C-20.8,20.8-21.7,19.9-22.8,19.9z M-28.3,44.9c-0.5,0-1-0.5-1-1s0.5-1,1-1c0.6,0,1,0.5,1,1
				S-27.8,44.9-28.3,44.9z M-22.3,40.9c0,0.2,0,0.3-0.1,0.5c-0.1,0.2-0.2,0.3-0.4,0.4c-0.1,0.1-0.3,0.1-0.5,0.1h-10
				c-0.2,0-0.3,0-0.5-0.1c-0.3-0.2-0.5-0.5-0.5-0.9v-17c0-0.4,0.2-0.7,0.5-0.9c0.2-0.1,0.3-0.1,0.5-0.1h10c0.2,0,0.4,0,0.5,0.1
				c0.3,0.2,0.5,0.5,0.5,0.9V40.9z"/>
		</g>
	</g>
</g>
<g id="x" class="st0">
	<g class="st1">
		<path class="st2" d="M-16.2,17.9h-12c-1.1,0-2,0.9-2,2v23c0,1.1,0.9,2,2,2h12c1.1,0,2-0.9,2-2v-23C-14.2,18.8-15.1,17.9-16.2,17.9
			z M-15.2,42.9c0,0.6-0.5,1-1,1h-12c-0.6,0-1-0.4-1-1v-23c0-0.5,0.4-1,1-1h1.4v0.3c0,0.3,0.1,0.5,0.3,0.7c0.2,0.2,0.4,0.3,0.7,0.3
			h7.2c0.3,0,0.5-0.1,0.7-0.3c0.2-0.2,0.3-0.4,0.3-0.7v-0.3h1.4c0.5,0,1,0.5,1,1V42.9z"/>
	</g>
</g>
<g id="all" class="st0">
	<g id="_x35_s_1_" class="st1">
		<g>
			<path class="st2" d="M-26.2,43.9v-3h-6.5c-0.2,0-0.4,0-0.5-0.1c-0.3-0.2-0.5-0.5-0.5-0.9v-15c0-0.4,0.2-0.7,0.5-0.9
				c0.1-0.1,0.3-0.1,0.5-0.1h6.5v-3h-7c-1.1,0-2,0.9-2,2v20c0,1.1,0.9,2,2,2h8C-25.8,44.9-26.2,44.5-26.2,43.9z M-28.2,43.9
				c-0.6,0-1-0.5-1-1c0-0.6,0.4-1,1-1c0.5,0,1,0.4,1,1C-27.2,43.5-27.7,43.9-28.2,43.9z"/>
		</g>
	</g>
	<g id="x_2_" class="st1">
		<g>
			<path class="st2" d="M-11.2,17.9h-12c-1.1,0-2,0.9-2,2v23c0,0.4,0.1,0.7,0.3,1c0.3,0.6,1,1,1.7,1h12c1.1,0,2-0.9,2-2v-23
				C-9.2,18.8-10.1,17.9-11.2,17.9z M-10.2,42.9c0,0.5-0.5,1-1,1h-12c-0.6,0-1-0.5-1-1v-23c0-0.6,0.4-1,1-1h1.4v0.3
				c0,0.3,0.1,0.5,0.3,0.7c0.2,0.2,0.4,0.3,0.7,0.3h7.2c0.3,0,0.5-0.1,0.7-0.3c0.2-0.2,0.3-0.4,0.3-0.7v-0.3h1.4c0.5,0,1,0.4,1,1
				V42.9z"/>
		</g>
	</g>
</g>
<g id="x_1_" class="st0">
	<g class="st1">
		<path class="st3" d="M-16.2,18.4h-12c-1.1,0-2,0.9-2,2v23c0,1.1,0.9,2,2,2h12c1.1,0,2-0.9,2-2v-23C-14.2,19.3-15.1,18.4-16.2,18.4
			z M-15.2,43.4c0,0.5-0.5,1-1,1h-12c-0.6,0-1-0.5-1-1v-23c0-0.6,0.4-1,1-1h1.4v0.3c0,0.3,0.1,0.5,0.3,0.7c0.2,0.2,0.4,0.3,0.7,0.3
			h7.2c0.3,0,0.5-0.1,0.7-0.3c0.2-0.2,0.3-0.4,0.3-0.7v-0.3h1.4c0.5,0,1,0.4,1,1V43.4z"/>
	</g>
</g>
<circle class="st0" cx="3" cy="142.5" r="10"/>
<polyline class="st4" points="-0.7,83.5 2.3,85.8 7.3,78.1 "/>
<g id="x_3_" class="st0">
	<path class="st5" d="M66.9,146.9H47.3c-0.6,0-1-0.4-1-1v-36.6c0-0.6,0.4-1,1-1h19.6c0.6,0,1,0.4,1,1v36.6
		C67.9,146.4,67.4,146.9,66.9,146.9z"/>
	<path class="st6" d="M63.2,111.2H51c-0.6,0-1-0.4-1-1v-2.5h14.2v2.5C64.2,110.7,63.8,111.2,63.2,111.2z"/>
</g>
<g id="icon1" class="st0">
	<g class="st1">
		<g>
			<g>
				<g>
					<path class="st2" d="M5.9,14.3L5.9,14.3C5.9,14.3,5.9,14.3,5.9,14.3c0-0.1-0.1-0.2-0.1-0.2c0,0,0,0,0-0.1c0,0-0.1-0.1-0.1-0.1
						c-0.1,0-0.1-0.1-0.2-0.1c-0.1,0-0.1,0-0.2-0.1c0,0,0,0-0.1,0h0l-20.7-2c-0.2,0-0.3,0-0.5,0.1l-4.1,2.8l0,0
						c-0.1,0.1-0.2,0.2-0.3,0.4c0,0,0,0.1,0,0.1c0,0,0,0.1,0,0.2v33.9c0,0.4,0.3,0.7,0.7,0.7l20.6,2C1,52,1,52,1.1,52
						c0.1,0,0.1,0,0.2,0c0.1,0,0.1-0.1,0.2-0.1L5.6,49C5.8,48.8,6,48.6,6,48.4V14.5C6,14.4,5.9,14.4,5.9,14.3z M-15.3,13.3L3.1,15
						l-2.2,1.5l-18.4-1.8L-15.3,13.3z M0.4,50.4l-19.3-1.9V16.2L0.4,18V50.4z M4.5,48l-2.6,1.8v-32l2.6-1.8V48z"/>
					<path class="st2" d="M5.9,14.3C5.9,14.3,5.9,14.3,5.9,14.3S5.9,14.3,5.9,14.3C5.9,14.3,5.9,14.3,5.9,14.3z"/>
				</g>
			</g>
		</g>
		<g id="_x36__3_">
			<g>
				<path class="st2" d="M-3.8,21.1l-11.1-1c-1.1,0-2,0.9-2,2v22c0,1.1,0.9,2,1.9,2h0l11,1h0.1c1.1,0,2-0.9,2-2v-22
					C-1.8,22-2.7,21.2-3.8,21.1z M-9,45.7L-9,45.7c-0.2,0.1-0.4,0.2-0.6,0.2c-0.3,0-0.5-0.1-0.7-0.3c-0.2-0.2-0.3-0.4-0.3-0.7
					c0-0.1,0-0.2,0.1-0.3c0.1-0.4,0.5-0.7,0.9-0.7c0.5,0,0.9,0.4,1,0.8c0,0,0,0.1,0,0.2C-8.6,45.2-8.7,45.5-9,45.7z M-3.3,42.1
					c0,0.4-0.2,0.7-0.5,0.9c-0.2,0.1-0.3,0.1-0.5,0.1l-10-1c-0.2,0-0.4,0-0.5-0.1c-0.3-0.2-0.5-0.5-0.5-0.9v-17
					c0-0.3,0.2-0.6,0.4-0.8c0.2-0.1,0.4-0.2,0.6-0.2l10,1c0.2,0,0.3,0,0.5,0.1c0.3,0.2,0.5,0.5,0.5,0.9V42.1z"/>
			</g>
		</g>
	</g>
	<g class="st1">
		<g>
			<g>
				<path class="st2" d="M-50.3,14.2C-50.4,14.3-50.4,14.3-50.3,14.2C-50.4,14.3-50.4,14.3-50.3,14.2
					C-50.4,14.3-50.4,14.3-50.3,14.2z"/>
			</g>
			<g>
				<path class="st2" d="M-46.3,49.8l-2.6-1.8V15.9l2.6,1.8V49.8z M-24.1,15.2C-24.1,15.2-24.1,15.1-24.1,15.2
					c-0.1-0.2-0.2-0.4-0.3-0.5l0,0l-4.1-2.8c-0.2-0.1-0.3-0.1-0.5-0.1l-20.7,2h0c0,0,0,0-0.1,0c-0.1,0-0.2,0-0.2,0.1
					c-0.1,0-0.1,0.1-0.2,0.1c-0.1,0-0.1,0.1-0.1,0.1c0,0,0,0,0,0.1c0,0,0,0.1,0,0.1c0,0,0,0,0,0.1v0c0,0,0,0.1,0,0.1v33.9
					c0,0.3,0.1,0.5,0.3,0.6l4.1,2.8c0,0,0,0,0.1,0c0,0,0.1,0.1,0.1,0.1c0.1,0,0.1,0,0.2,0c0.1,0,0.1,0,0.2,0l20.6-2
					c0.4,0,0.7-0.4,0.7-0.7V15.3C-24,15.3-24,15.2-24.1,15.2z M-47.5,15l18.4-1.8l2.2,1.5l-18.4,1.8L-47.5,15z M-25.5,48.5
					l-19.3,1.9V18l19.3-1.8V48.5z"/>
			</g>
		</g>
	</g>
	<g id="x_4_" class="st1">
		<g>
			<path class="st2" d="M-29.3,18.1L-29.3,18.1l-11.9,1.1c-1.1,0-2,0.9-2,2v25c0,1.1,0.9,2,2.1,2h0l12-1.1c1.1,0,2-0.9,2-2v-25
				C-27.2,19-28.1,18.1-29.3,18.1z M-28.2,45.1c0,0.5-0.5,1-1,1l-12,1.1c-0.6,0-1-0.5-1-1v-25c0-0.6,0.4-1,1-1l1.4-0.1v0.5
				c0,0.2,0,0.3,0.1,0.5c0.2,0.3,0.5,0.5,0.9,0.5l7.2-0.8c0.4,0,0.8-0.3,0.9-0.6c0-0.1,0.1-0.3,0.1-0.4v-0.6l1.4-0.1
				c0.5,0,1,0.5,1,1V45.1z"/>
		</g>
	</g>
	<g class="st1">
		<g class="st7">
			
				<image style="overflow:visible;" width="92" height="92" xlink:href="39E94C39.png"  transform="matrix(1 0 0 1 -43.0938 -35.037)">
			</image>
		</g>
		<circle class="st8" cx="2.9" cy="11" r="10"/>
		<polyline class="st9" points="-0.6,12.5 2.4,14.8 7.4,7.1 		"/>
	</g>
</g>
<g id="icon2" class="st0">
	<g class="st1">
		<path class="st2" d="M-15.6,44.9l-0.3-0.2c-0.2-0.1-18-9.2-17.6-36.4l0-0.7l0.7-0.1c0.1,0,7.8-0.9,16.8-6.2l0.4-0.2l0.4,0.2
			c9,5.4,16.8,6.2,16.9,6.2l0.7,0.1l0,0.7c0.4,27.2-17.4,36.3-17.6,36.4L-15.6,44.9z M-32,8.9c-0.1,23.7,14,32.9,16.4,34.2
			c2.4-1.4,16.5-10.5,16.4-34.2c-2.1-0.3-8.7-1.6-16.4-6.1C-23.3,7.3-30,8.6-32,8.9z"/>
	</g>
	<g class="st1">
		<path class="st2" d="M-5.2,13c0.2,16.5-10.5,22.8-10.5,22.8S-26.3,29.5-26.1,13c0,0,4.8-0.5,10.4-3.9C-10,12.5-5.2,13-5.2,13z"/>
	</g>
	<g class="st1">
		<g class="st7">
			
				<image style="overflow:visible;" width="92" height="92" xlink:href="39E94C3B.png"  transform="matrix(1 0 0 1 -43.0938 -41.037)">
			</image>
		</g>
		<circle class="st8" cx="2.9" cy="5" r="10"/>
		<text transform="matrix(1 0 0 1 -1.4385 8.8329)" class="st10 st11 st12">3</text>
	</g>
</g>
<g id="icon3" class="st0">
	<g class="st1">
		<g>
			<path class="st2" d="M25.3,3c0,0-0.1-0.1-0.1-0.1c-0.2-0.2-0.8-0.8-4.6-0.4c-0.3,0-0.6,0.3-0.7,0.6c-0.1,0.1-0.2,0.3-0.5,0.4
				C18.4,3.7,8.9,3.8,7.3,3.2C7.3,3.1,7.1,2.9,7,2.8c-0.8-0.6-2-0.5-2.3-0.5c-0.2,0-0.4,0.1-0.5,0.3c0,0-0.1,0.1-0.2,0.3
				C3.7,3.3,3.4,3.5,3.3,3.7c0-0.1,0-0.2,0-0.3c0-0.1,0-0.3,0.1-0.4c0.4-1.2-2.2-3.4-2.7-3.8c-0.8-0.5-1.4-0.7-1.9-0.6
				c-0.6,0.1-3.2-0.8-5.3-1.7C-6.5-3-6.6-3-6.7-3h-30c-0.4,0-0.7,0.3-0.8,0.7c0,0-0.1,0.7-0.2,1.3l0,0.1c0,0.3-0.1,0.4-0.1,0.4
				c-0.2,0.3-1,1.5-1,2.8v11.2c0,0.8,0.4,1.3,0.8,1.6c0.1,0.1,0.2,0.2,0.3,0.3c0.6,0.5,0.8,0.7,0.7,1.2c0,0,0,0.1,0,0.1
				c-0.1,1.6,1.5,3.2,2.6,4.1c0.3,0.2,0.5,0.4,0.6,0.6c0.2,0.2,0.5,0.6,0.7,0.9l0.4,0.5c1,1.3,1.6,1.9,2.3,1.7
				c0.1,0,0.2-0.1,0.3-0.1c0.8-0.2,1.1-0.2,1.4,0.1c0.9,1.1,4.2,1.8,5.3,1.9h0.8c0,0,0.1,0,0.2,0c0.7-0.1,2.6-0.4,3.6,0
				c0.2,0.1,0.4,0.2,0.4,0.3c0.1,0.5,0.3,1,0.7,1.5c0.6,1.1,1.5,1.8,1.5,1.9c0.2,0.2,0.4,0.2,0.6,0.2c0.2,0,0.4-0.2,0.5-0.4
				c0,0,0.5-0.8,0.7-1.4c0.4,0.2,0.8,0.9,1.2,2.1c0.1,0.3,0.2,0.7,0.4,1c0.4,0.9,1.1,1.7,2,2.4c0.9,0.7,1.7,1,1.7,1
				c0.2,0.1,0.5,0.1,0.7-0.1s0.3-0.4,0.3-0.6c0,0,0-0.4,0-0.9c0-0.6,0-1.4,0.1-2.1c0-0.2,0-0.4,0-0.6c0.1-0.6,2.5-1.6,3.4-1.8
				c0.2,0,1.1,0.4,1.7,0.6c2,0.8,2.8,1,3.3,0.6c0.2-0.2,0.4-0.4,0.4-0.7c0-0.2,0.8-0.8,1.2-1l0.3-0.2c0.1,0,0.2,0.1,0.3,0.2
				c0.2,0.2,0.5,0.5,0.7,0.7C4,29.7,4.3,30,4.7,30.1c0.1,0.4,0.3,0.8,0.4,1.3c0.2,0.6,0.3,1.2,0.4,1.7c0.1,0.5,0.1,0.8,0,1
				c0,0.4,0.1,0.8,0.4,1.4c0.3,0.6,1,1,2,1.1c0,0,0.3,0,0.7,0c0.6,0,1.4-0.1,1.7-0.4c0.3-0.3,0.5-1.1,0.5-2.4c0-0.5,0.1-1.5-0.1-2.3
				c-0.1-0.6-0.3-1.1-0.6-1.4c-0.1-0.1-0.4-0.8-0.6-2.1c-0.1-0.7-0.1-1.4,0-2c0.1-0.5,0.1-0.6,0.1-0.6c0.4-0.3,1.5-1.3,2.7-2.4
				c0.9-0.8,1.7-1.6,2.2-2.2c1.1-1.2,1.5-1.9,1.3-2.5c-0.1-0.3-0.3-0.5-0.6-0.7c-0.2-0.1-0.3-0.1-0.2-0.8c0-0.2,0.1-0.5,0.1-0.8
				c0.1-0.4,0.1-0.8,0.2-1.3c0-0.1,0-0.1,0-0.2c1,0,1.6-0.5,1.9-1.9c0.1-0.3,0.2-0.6,0.5-0.9c0.7-0.6,1.8-0.9,2.5-1.1
				c0.7-0.2,1.2-0.3,1.3-0.9c0.1-0.3-0.1-0.6-0.3-0.8c0,0,0,0-0.1-0.1c-0.1-0.4,0-1.1,0.4-1.4c0.1-0.1,0.3-0.3,0.5-0.4
				c0.3-0.2,0.7-0.5,1.1-0.8C24.8,4.9,25.9,3.9,25.3,3z M22.4,4.9c-0.4,0.3-0.7,0.6-1,0.8c-0.2,0.2-0.4,0.3-0.6,0.5
				c-0.9,0.7-1.1,2.1-0.9,3c-0.9,0.2-2.1,0.6-3,1.4c-0.5,0.5-0.8,1.1-1,1.7c-0.1,0.6-0.2,0.7-0.2,0.7h-0.2c-0.6,0-1.4,0.1-1.6,1.6
				c0,0.4-0.1,0.8-0.2,1.2c-0.1,0.3-0.1,0.6-0.1,0.9c0,0.5-0.1,1.4,0.7,2c-0.1,0.2-0.4,0.5-0.8,1c-0.5,0.6-1.2,1.3-2.1,2.1
				c-1.2,1.1-2.3,2-2.7,2.3c-0.4,0.3-0.6,0.8-0.7,1.6C8,26.4,8,27.2,8.1,28c0.1,0.8,0.4,2.3,1,2.9c0,0,0.1,0.1,0.2,0.6
				c0.1,0.5,0.1,1.2,0.1,2c0,0.7-0.1,1.2-0.2,1.4c-0.6,0.1-1.7,0-1.9-0.3C7,34.3,7,34.1,7,34.1c0-0.4,0-0.8,0-1.4
				c-0.1-0.5-0.2-1.2-0.4-1.8c-0.7-2.7-1.3-2.6-1.6-2.6c0,0-0.1,0-0.1,0c0,0,0,0-0.1-0.1c-0.2-0.3-0.5-0.6-0.8-0.9
				c-1-0.9-1.7-0.6-2.1-0.4l-0.4,0.3c-0.6,0.4-1.3,0.9-1.6,1.5c-0.5-0.1-1.3-0.4-1.8-0.6c-1.5-0.6-2-0.7-2.4-0.7
				c0,0-4.6,1.1-4.7,3.2c0,0.2,0,0.4,0,0.6c0,0.6,0,1.3,0,1.9c-0.1-0.1-0.3-0.2-0.4-0.3c-0.7-0.6-1.3-1.2-1.6-1.9
				c-0.1-0.2-0.2-0.5-0.3-0.7c-0.4-1.5-1.1-2.6-1.9-3.1c-0.6-0.4-1.3-0.3-1.8,0.1c-0.1,0.1-0.2,0.2-0.2,0.3
				c-0.1,0.2-0.2,0.4-0.3,0.6c-0.2-0.2-0.4-0.5-0.6-0.8c-0.3-0.4-0.4-0.8-0.5-1.1c-0.1-0.4-0.4-1-1.3-1.3c-1.3-0.5-3.4-0.2-4.3,0
				H-23c-1.5-0.2-3.9-0.9-4.2-1.4c-0.9-1.1-2.2-0.8-2.9-0.7c0,0-0.1,0-0.1,0c-0.1-0.1-0.4-0.4-1-1.2l-0.4-0.5
				c-0.3-0.4-0.6-0.8-0.8-1c-0.2-0.2-0.4-0.4-0.8-0.7c-0.7-0.7-2.1-1.9-2-2.9c0.2-1.3-0.7-2-1.3-2.5c-0.1-0.1-0.2-0.1-0.3-0.2l0,0
				c-0.3-0.3-0.3-0.4-0.3-0.5V2.4c0-1,0.7-2,0.7-2c0,0,0-0.1,0-0.1c0.1-0.2,0.2-0.4,0.2-0.8l0-0.2c0-0.2,0.1-0.5,0.1-0.7h2.1
				l0.2-0.5c0-0.2,0.3-0.2,0.3,0l0.2,0.5h4.9l0.2-0.5c0.1-0.2,0.3-0.2,0.3,0l0.2,0.5h4.9l0.2-0.5c0.1-0.2,0.3-0.2,0.3,0l0.2,0.5h4.8
				l0.2-0.5c0.1-0.2,0.3-0.2,0.3,0l0.2,0.5h9.8c2.3,0.9,5,1.9,6.1,1.7c0.1,0,0.3,0.1,0.6,0.3c1,0.7,1.9,1.8,2.1,2.2
				c0,0.2-0.1,0.4-0.1,0.5c-0.1,0.5,0,1.4,0.5,1.9C2.6,5.4,3,5.5,3.4,5.3c0.2-0.1,0.8-0.3,1.8-1.5c0,0,0,0,0,0c0.3,0,0.7,0,0.8,0.2
				c0.6,1.9,13.7,1,13.8,0.9c0.7-0.2,1.1-0.7,1.3-1c0.9-0.1,1.9-0.1,2.5,0C23.4,4.1,23,4.4,22.4,4.9z"/>
		</g>
		<g>
			<g>
				<line class="st13" x1="-12" y1="30.4" x2="-8.5" y2="30.4"/>
				<line class="st13" x1="5.9" y1="30.4" x2="9.6" y2="30.4"/>
				<line class="st13" x1="-30.5" y1="23.5" x2="10.4" y2="23.5"/>
				<line class="st13" x1="-35.5" y1="16.6" x2="13.9" y2="16.6"/>
				<line class="st13" x1="-13.5" y1="9.7" x2="19.9" y2="9.7"/>
				<line class="st13" x1="-13.5" y1="2.8" x2="1.9" y2="2.8"/>
			</g>
		</g>
		<g>
			<path class="st2" d="M-36.7-2.2l-1.5,4.5l0.3,11.8h24.4c0.8,0,1.5-0.7,1.5-1.5V-2.2H-36.7z M-31.6,10.6l-1.1,0.8l0.4,1.3
				c0,0.2-0.1,0.3-0.3,0.2l-1.1-0.8l-1.1,0.8c-0.1,0.1-0.3,0-0.3-0.2l0.4-1.3l-1-0.8c-0.1-0.1-0.1-0.3,0.1-0.3l1.3,0l0.1-0.3l0.3-1
				c0-0.2,0.3-0.2,0.3,0l0.3,1l0.1,0.3l1.3,0C-31.5,10.3-31.4,10.5-31.6,10.6z M-31.6,5.1l-1.1,0.8l0.4,1.3c0,0.2-0.1,0.3-0.3,0.2
				l-1.1-0.8l-1.1,0.8c-0.1,0.1-0.3,0-0.3-0.2l0.4-1.3l-1-0.8c-0.1-0.1-0.1-0.3,0.1-0.3l1.3,0l0.1-0.3l0.3-0.9c0-0.2,0.3-0.2,0.3,0
				l0.3,0.9l0.1,0.3l1.3,0C-31.5,4.8-31.4,5-31.6,5.1z M-31.6-0.4l-1.1,0.8l0.4,1.3c0,0.2-0.1,0.3-0.3,0.2l-1.1-0.8l-1.1,0.8
				c-0.1,0.1-0.3,0-0.3-0.2l0.4-1.3l-1-0.8c-0.1-0.1-0.1-0.3,0.1-0.3l1.3,0l0.1-0.3l0.2-0.5l0.2-0.5c0-0.2,0.3-0.2,0.3,0l0.2,0.5
				l0.1,0.5l0.1,0.3l1.3,0C-31.5-0.7-31.4-0.5-31.6-0.4z M-26,10.6l-1.1,0.8l0.4,1.3c0.1,0.2-0.1,0.3-0.3,0.2l-1.1-0.8l-1.1,0.8
				c-0.1,0.1-0.3,0-0.3-0.2l0.4-1.3l-1.1-0.8c-0.1-0.1-0.1-0.3,0.1-0.3l1.3,0l0.1-0.3l0.3-1c0.1-0.2,0.3-0.2,0.3,0l0.3,1l0.1,0.3
				l1.3,0C-26,10.3-25.9,10.5-26,10.6z M-26,5.1l-1.1,0.8l0.4,1.3c0.1,0.2-0.1,0.3-0.3,0.2l-1.1-0.8l-1.1,0.8
				c-0.1,0.1-0.3,0-0.3-0.2l0.4-1.3l-1.1-0.8c-0.1-0.1-0.1-0.3,0.1-0.3l1.3,0l0.1-0.3l0.3-0.9c0.1-0.2,0.3-0.2,0.3,0l0.3,0.9
				l0.1,0.3l1.3,0C-26,4.8-25.9,5-26,5.1z M-26-0.4l-1.1,0.8l0.4,1.3c0.1,0.2-0.1,0.3-0.3,0.2l-1.1-0.8l-1.1,0.8
				c-0.1,0.1-0.3,0-0.3-0.2l0.4-1.3l-1.1-0.8c-0.1-0.1-0.1-0.3,0.1-0.3l1.3,0l0.1-0.3l0.2-0.5l0.2-0.5c0.1-0.2,0.3-0.2,0.3,0
				l0.2,0.5l0.2,0.5l0.1,0.3l1.3,0C-26-0.7-25.9-0.5-26-0.4z M-20.5,10.6l-1,0.8l0.4,1.3c0,0.2-0.1,0.3-0.3,0.2l-1.1-0.8l-1.1,0.8
				c-0.1,0.1-0.3,0-0.3-0.2l0.4-1.3l-1.1-0.8c-0.1-0.1-0.1-0.3,0.1-0.3l1.3,0L-23,10l0.3-1c0.1-0.2,0.3-0.2,0.3,0l0.3,1l0.1,0.3
				l1.3,0C-20.5,10.3-20.4,10.5-20.5,10.6z M-20.5,5.1l-1,0.8l0.4,1.3c0,0.2-0.1,0.3-0.3,0.2l-1.1-0.8l-1.1,0.8
				c-0.1,0.1-0.3,0-0.3-0.2l0.4-1.3l-1.1-0.8c-0.1-0.1-0.1-0.3,0.1-0.3l1.3,0l0.1-0.3l0.3-0.9c0.1-0.2,0.3-0.2,0.3,0l0.3,0.9
				l0.1,0.3l1.3,0C-20.5,4.8-20.4,5-20.5,5.1z M-20.5-0.4l-1,0.8l0.4,1.3c0,0.2-0.1,0.3-0.3,0.2l-1.1-0.8l-1.1,0.8
				c-0.1,0.1-0.3,0-0.3-0.2l0.4-1.3l-1.1-0.8c-0.1-0.1-0.1-0.3,0.1-0.3l1.3,0L-23-1l0.2-0.5l0.2-0.5c0.1-0.2,0.3-0.2,0.3,0l0.2,0.5
				L-22-1l0.1,0.3l1.3,0C-20.5-0.7-20.4-0.5-20.5-0.4z M-15,10.6l-1.1,0.8l0.4,1.3c0.1,0.2-0.1,0.3-0.3,0.2l-1.1-0.8l-1.1,0.8
				c-0.1,0.1-0.3,0-0.3-0.2l0.4-1.3l-1.1-0.8c-0.1-0.1-0.1-0.3,0.1-0.3l1.3,0l0.1-0.3l0.3-1c0.1-0.2,0.3-0.2,0.3,0l0.3,1l0.1,0.3
				l1.3,0C-14.9,10.3-14.9,10.5-15,10.6z M-15,5.1l-1.1,0.8l0.4,1.3c0.1,0.2-0.1,0.3-0.3,0.2L-17,6.6l-1.1,0.8
				c-0.1,0.1-0.3,0-0.3-0.2l0.4-1.3L-19,5.1c-0.1-0.1-0.1-0.3,0.1-0.3l1.3,0l0.1-0.3l0.3-0.9c0.1-0.2,0.3-0.2,0.3,0l0.3,0.9l0.1,0.3
				l1.3,0C-14.9,4.8-14.9,5-15,5.1z M-16.5-1l0.1,0.3l1.3,0c0.2,0,0.2,0.2,0.1,0.3l-1.1,0.8l0.4,1.3c0.1,0.2-0.1,0.3-0.3,0.2
				L-17,1.1l-1.1,0.8c-0.1,0.1-0.3,0-0.3-0.2l0.4-1.3L-19-0.4c-0.1-0.1-0.1-0.3,0.1-0.3l1.3,0l0.1-0.3l0.1-0.5l0.2-0.5
				c0.1-0.2,0.3-0.2,0.3,0l0.2,0.5L-16.5-1z"/>
		</g>
	</g>
	<g class="st1">
		<g class="st7">
			
				<image style="overflow:visible;" width="92" height="92" xlink:href="39E94C3E.png"  transform="matrix(1 0 0 1 -27.0938 -49.037)">
			</image>
		</g>
		<circle class="st8" cx="18.9" cy="-3" r="10"/>
		<path class="st14" d="M23.5-4.5l-3.2,0l-0.2-0.7l-0.8-2.3c-0.1-0.4-0.7-0.4-0.8,0l-0.8,2.3l-0.2,0.7l-3.2,0
			c-0.4,0-0.6,0.5-0.3,0.8l2.5,1.9l-1,3c-0.1,0.4,0.3,0.7,0.7,0.5l2.6-1.8l2.6,1.8c0.3,0.2,0.8-0.1,0.7-0.5l-1-3l2.5-1.9
			C24.1-4,23.9-4.5,23.5-4.5z"/>
	</g>
</g>
<g id="icon4" class="st0">
	<g id="_x34_" class="st1">
		<g>
			<g id="head">
				<g>
					<path class="st2" d="M7.5-3c-0.3,0-0.7-0.3-1-0.6C6.1-3.9,5.9-4.4,5.7-4.9C5.6-5.1,5.5-5.3,5.5-5.5L5.4-5.6
						c0-0.1-0.1-0.2-0.1-0.4c0-0.1,0-0.2-0.1-0.3C5.2-6.8,4.9-7.3,4.5-7.5C4.1-7.9,3.7-8,3.3-8C2.8-8,2.4-7.8,2-7.6
						C1.9-7.6,1.8-7.5,1.6-7.5C1.2-7.3,0.8-7.2,0.4-7.2C-0.4-7-1.2-7-2-6.9C-2.9-7-3.7-7-4.5-7.2c-0.4-0.1-0.8-0.2-1.2-0.3
						c-0.1,0-0.3-0.1-0.4-0.2c-0.6-0.2-1.5-0.6-2.4,0.1c-0.4,0.3-0.7,0.7-0.8,1.2c0,0.1,0,0.3-0.1,0.4c0,0.2,0,0.3-0.1,0.3
						c-0.1,0.1-0.1,0.3-0.2,0.4c0,0.1-0.1,0.2-0.1,0.4c-0.2,0.5-0.4,1-0.7,1.3c-0.3,0.3-0.8,0.6-1,0.6c-0.1-0.3-0.3-1-0.2-2.3
						c0-0.4,1-8.6,9.7-8.6s9.6,8.3,9.7,8.6C7.8-4,7.6-3.3,7.5-3z"/>
				</g>
			</g>
			<g>
				<path class="st2" d="M15,27.9L13,17.5c0-0.1-0.8-2.5-3.4-3.3L4,12.5l-1.6-1.1v-1.1c2.8-1.6,4.8-4.6,4.8-8.1c0.1,0,0.2,0,0.3,0
					c1.7,0,3.1-1.4,3.1-3.1c0-1-0.5-2-1.3-2.5c0.1-0.5,0.1-1.3,0-2.2C9.3-5.6,8.2-15.6-2-15.6s-11.3,10-11.3,10.1
					c-0.1,0.9-0.1,1.6,0,2.2c-0.8,0.6-1.3,1.5-1.3,2.5c0,1.7,1.4,3.1,3.1,3.1c0.1,0,0.2,0,0.3,0c0,3.5,2,6.5,4.8,8.1v1.1l-1.6,1.1
					l-5.5,1.7c-2.6,0.8-3.4,3.2-3.5,3.4l-2.1,10.3c-0.2,1,0.1,1.7,0.4,2.2c0.9,1.1,2.5,1.3,2.7,1.3h4.2l19.3,0H12
					c0.2,0,1.8-0.2,2.7-1.3C14.9,29.6,15.2,28.9,15,27.9z M2.7,13.6l-1.3,3.4l-2.1-0.7L1.8,13h0L2.7,13.6z M-2,15.4l-2.8-3.8V11
					c0.9,0.3,1.8,0.4,2.8,0.4s1.9-0.2,2.8-0.4v0.6L-2,15.4z M8.6-1.7c0.2,0.3,0.3,0.6,0.3,0.9c0,0.8-0.6,1.4-1.4,1.4
					c-0.1,0-0.2,0-0.3,0v-2c0.1,0,0.2,0,0.3,0C7.8-1.4,8.2-1.4,8.6-1.7L8.6-1.7z M-11.3,0.6c-0.1,0-0.2,0-0.3,0
					C-12.4,0.6-13,0-13-0.8c0-0.3,0.1-0.7,0.3-0.9l0.1,0.1c0.4,0.3,0.9,0.4,1.3,0.3V0.6z M-10.5-3.6c-0.3,0.3-0.8,0.6-1,0.6
					c-0.1-0.3-0.3-1-0.2-2.3c0-0.4,1-8.6,9.7-8.6s9.6,8.3,9.7,8.6C7.8-4,7.6-3.3,7.5-3c-0.3,0-0.7-0.3-1-0.6
					C6.1-3.9,5.9-4.4,5.7-4.9C5.6-5.1,5.5-5.3,5.5-5.5L5.4-5.6c0-0.1-0.1-0.2-0.1-0.4c0-0.1,0-0.2-0.1-0.3C5.2-6.8,4.9-7.3,4.5-7.5
					C4.1-7.9,3.7-8,3.3-8C2.8-8,2.4-7.8,2-7.6C1.9-7.6,1.8-7.5,1.6-7.5C1.2-7.3,0.8-7.2,0.4-7.2C-0.4-7-1.2-7-2-6.9
					C-2.9-7-3.7-7-4.5-7.2c-0.4-0.1-0.8-0.2-1.2-0.3c-0.1,0-0.3-0.1-0.4-0.2c-0.6-0.2-1.5-0.6-2.4,0.1c-0.4,0.3-0.7,0.7-0.8,1.2
					c0,0.1,0,0.3-0.1,0.4c0,0.2,0,0.3-0.1,0.3c-0.1,0.1-0.1,0.3-0.2,0.4c0,0.1-0.1,0.2-0.1,0.4C-10-4.4-10.2-3.9-10.5-3.6z
					 M-9.6,2.2v-4.3c0.2-0.1,0.3-0.2,0.3-0.3c0.5-0.5,0.8-1.2,1.1-1.8c0.1-0.1,0.1-0.3,0.2-0.4C-8-4.7-8-4.9-7.9-5
					c0.1-0.3,0.1-0.5,0.2-0.7c0-0.1,0-0.2,0-0.3c0-0.1,0.1-0.1,0.1-0.2c0.2-0.1,0.3-0.1,0.8,0.1C-6.6-6-6.4-6-6.2-5.9
					c0.4,0.1,0.9,0.3,1.4,0.4C-3.9-5.4-2.9-5.3-2-5.3c0.9-0.1,1.8-0.1,2.7-0.3c0.4-0.1,0.8-0.2,1.4-0.4C2.3-6,2.5-6,2.7-6.1
					c0.6-0.2,0.7-0.2,0.8-0.1c0.1,0,0.1,0.1,0.1,0.2c0,0.1,0,0.2,0,0.2c0,0.2,0.1,0.5,0.2,0.8l0.1,0.1C4-4.6,4.1-4.4,4.2-4.2
					c0.3,0.6,0.6,1.3,1.1,1.8c0,0,0.1,0.1,0.3,0.3v4.3c0,4.2-3.4,7.6-7.6,7.6C-6.2,9.8-9.6,6.4-9.6,2.2z M-5.8,13l2.5,3.3l-2.1,0.7
					l-1.3-3.4L-5.8,13z M13.3,29.1c-0.3,0.5-1.2,0.6-1.4,0.7H8.5v-6.3c0-0.5-0.4-0.8-0.8-0.8c-0.5,0-0.8,0.4-0.8,0.8v6.3h-17.7v-6.3
					c0-0.5-0.4-0.8-0.8-0.8c-0.5,0-0.8,0.4-0.8,0.8v6.3h-3.3c-0.2,0-1.1-0.2-1.5-0.7c-0.1-0.1-0.2-0.4-0.1-0.8l2-10.2
					c0,0,0.6-1.7,2.3-2.2l4.9-1.5l1.5,4.1c0.1,0.3,0.4,0.5,0.8,0.5c0.1,0,0.2,0,0.3,0l2.8-0.9v5.9c0,0.5,0.4,0.8,0.8,0.8
					c0.5,0,0.8-0.4,0.8-0.8V18l2.8,0.9c0.1,0,0.2,0,0.3,0c0.3,0,0.7-0.2,0.8-0.5l1.5-4.1L9,15.8c0.9,0.3,1.4,0.8,1.8,1.3
					c0.4,0.5,0.5,0.9,0.5,0.9l2.1,10.3C13.5,28.7,13.4,28.9,13.3,29.1z"/>
				<path class="st2" d="M7.7,31.4C7.7,31.4,7.7,31.4,7.7,31.4c-0.1,0-0.1,0-0.2,0H7.7z"/>
			</g>
		</g>
		<g>
			<g>
				<circle class="st2" cx="-4.8" cy="-0.2" r="1.1"/>
			</g>
			<g>
				<circle class="st2" cx="0.7" cy="-0.2" r="1.1"/>
			</g>
		</g>
		<g>
			<path class="st2" d="M0.8,4.6c0,1.1-1.3,2-2.9,2s-2.9-0.9-2.9-2C-4.9,4.3-4.6,4-4.3,4C-4,4-3.8,4.3-3.8,4.6C-3.8,5-3,5.4-2,5.4
				c1,0,1.8-0.5,1.8-0.9C-0.3,4.3,0,4,0.3,4C0.6,4,0.8,4.3,0.8,4.6z"/>
		</g>
	</g>
	<g class="st1">
		<g class="st7">
			
				<image style="overflow:visible;" width="92" height="92" xlink:href="39E94C3F.png"  transform="matrix(1 0 0 1 -29.0938 -53.037)">
			</image>
		</g>
		<circle class="st8" cx="16.9" cy="-7" r="10"/>
		<g>
			<path class="st10" d="M13.4-8.8H12c-0.2,0-0.3,0.2-0.3,0.3v6.1C11.7-2.2,11.8-2,12-2h1.4c0.2,0,0.3-0.2,0.3-0.3v-6.1
				C13.7-8.7,13.6-8.8,13.4-8.8z"/>
			<path class="st10" d="M18.6-8.8l0.4-1c0.2-0.7,0.1-1.7-0.6-2.1c-0.2-0.1-0.5-0.2-0.8-0.1c-0.1,0-0.3,0.1-0.3,0.3
				c-0.1,0.1-0.1,0.3-0.1,0.5c-0.1,0.4-0.3,0.8-0.6,1.1c-0.5,0.5-2.2,2-2.2,2v5.4h5.7c0.8,0,1.3-0.9,0.9-1.5
				c0.5-0.3,0.6-0.9,0.3-1.4c0.5-0.3,0.6-0.9,0.3-1.4c0.8-0.5,0.5-1.7-0.4-1.9C21.2-8.9,18.6-8.8,18.6-8.8z"/>
		</g>
	</g>
</g>
<g class="st0">
	<line class="st15" x1="36.9" y1="69" x2="36.9" y2="70"/>
	<line class="st15" x1="39.9" y1="67" x2="39.9" y2="70"/>
	<line class="st15" x1="42.9" y1="64" x2="42.9" y2="70"/>
</g>
<g class="st0">
	<line class="st15" x1="170" y1="-30" x2="179.9" y2="-20.1"/>
	<line class="st15" x1="179.9" y1="-30" x2="170" y2="-20.1"/>
</g>
<g class="st0">
	<path class="st16" d="M159.8-27.5c0,0-0.5-0.5-0.6-0.6c-2-2-5.3-2.1-7.3,0c-2,2-2,5.3,0,7.4c2,2,5.3,2,7.4,0"/>
	<polyline class="st16" points="157.9,-27.1 160.2,-27.1 160.2,-29.5 	"/>
</g>
<g class="st0">
	<line class="st17" x1="105.9" y1="-15" x2="125.9" y2="-15"/>
	<line class="st17" x1="105.9" y1="-9" x2="125.9" y2="-9"/>
	<line class="st17" x1="105.9" y1="-3" x2="125.9" y2="-3"/>
</g>
<circle class="st18" cx="88.4" cy="-15.5" r="2"/>
<circle class="st18" cx="80.4" cy="-15.5" r="2"/>
<circle class="st18" cx="88.4" cy="-7.5" r="2"/>
<circle class="st18" cx="80.4" cy="-7.5" r="2"/>
<g id="skoro" class="st0">
	<path class="st6" d="M-2.7,39.8h-39c-2.2,0-4-1.8-4-4v-8c0-2.2,1.8-4,4-4h39c2.2,0,4,1.8,4,4v8C1.3,38.1-0.5,39.8-2.7,39.8z"/>
	<text transform="matrix(1 0 0 1 -38.5615 34.7183)" class="st23 st11 st22">Скоро</text>
</g>
<g id="skoro_x5F_v_x5F_prodaje" class="st0">
	<g class="st19">
		
			<image style="overflow:visible;" width="144" height="144" xlink:href="39E94C3A.png"  transform="matrix(1 0 0 1 -65.0938 -68.037)">
		</image>
	</g>
	<circle class="st20" cx="6.9" cy="4" r="35.5"/>
	<g class="st1">
		<ellipse class="st21" cx="6.9" cy="-14.5" rx="8" ry="8"/>
		<line class="st21" x1="6.9" y1="-14.5" x2="6.9" y2="-22.5"/>
		<line class="st21" x1="6.9" y1="-8.7" x2="6.9" y2="-6.5"/>
		<line class="st21" x1="14.9" y1="-14.5" x2="12.7" y2="-14.5"/>
		<line class="st21" x1="1.1" y1="-14.5" x2="-1.1" y2="-14.5"/>
		<line class="st21" x1="6.9" y1="-14.5" x2="12.6" y2="-20.2"/>
		<line class="st21" x1="2.8" y1="-10.4" x2="1.3" y2="-8.8"/>
		<line class="st21" x1="12.6" y1="-8.8" x2="11" y2="-10.4"/>
		<line class="st21" x1="2.8" y1="-18.6" x2="1.3" y2="-20.2"/>
	</g>
	<text transform="matrix(1 0 0 1 -9.5534 7.8277)" class="st1"><tspan x="0" y="0" class="st10 st11 st22">Скоро</tspan><tspan x="-11.3" y="12" class="st10 st11 st22">в продаже</tspan></text>
</g>
<g id="map_x5F_pin" class="st0">
	<g class="st19">
		
			<image style="overflow:visible;" width="108" height="117" xlink:href="39E94C35.png"  transform="matrix(1 0 0 1 -47.0938 -54.037)">
		</image>
	</g>
	<g class="st1">
		<g>
			<g>
				<g>
					<path class="st8" d="M24-1.3C24,12.3,9.1,24.9,8.5,25.4C8,25.8,7.5,26,6.9,26s-1.1-0.2-1.6-0.6C4.7,24.9-10.2,12.3-10.2-1.3
						c0-9.2,7.7-16.7,17.1-16.7S24-10.5,24-1.3z"/>
				</g>
			</g>
		</g>
	</g>
	<path class="st23" d="M6.9-7.6c0.6-1.5,2.1-2.9,4.3-2.9c0,2.7-1.9,4.4-3.8,4.5C6.4-5.8,6.4-6.7,6.9-7.6z M7.3,6.5
		C4.8,6.5,2.4,5,1.2,2.7C0.1,0.5,0.3-2,1.7-3.9C1.8-4,1.9-4.1,1.9-4.2c0.6-0.7,1.4-1.1,2.3-1.2C5-5.5,5.7-5.2,6.4-5
		C6.6-4.9,6.8-4.9,7-4.9C7.6-4.8,8.2-5,8.7-5.2c0.5-0.2,1.1-0.2,1.6-0.2c1,0.1,1.9,0.6,2.6,1.5c0.1,0.2,0.2,0.3,0.3,0.5
		c-0.9,0.7-1.5,1.8-1.5,3.1s0.6,2.5,1.5,3.2C12.1,5.1,9.7,6.5,7.3,6.5z"/>
</g>
<polyline class="st24" points="1.9,2 6.9,6 11.9,2 "/>
</svg>
