<?xml version="1.0" encoding="utf-8"?>
<!-- Generator: Adobe Illustrator 22.0.0, SVG Export Plug-In . SVG Version: 6.00 Build 0)  -->
<svg version="1.1" id="Layer_1" xmlns="http://www.w3.org/2000/svg" xmlns:xlink="http://www.w3.org/1999/xlink" x="0px" y="0px"
	 viewBox="0 0 7.9 12.1" style="enable-background:new 0 0 7.9 12.1;" xml:space="preserve">
<style type="text/css">
	.st0{display:none;}
	.st1{display:inline;}
	.st2{fill:#282D3A;}
	.st3{fill:#85888B;}
	.st4{display:none;fill:none;stroke:#FFFFFF;stroke-width:2;stroke-linecap:round;stroke-linejoin:round;stroke-miterlimit:10;}
	.st5{display:inline;fill:none;stroke:#282D3A;stroke-width:1.5;stroke-linejoin:round;stroke-miterlimit:10;}
	.st6{display:inline;fill:#282D3A;}
	.st7{opacity:0.66;}
	.st8{fill:#FF005F;}
	.st9{fill:none;stroke:#FFFFFF;stroke-width:2;stroke-linecap:round;stroke-linejoin:round;stroke-miterlimit:10;}
	.st10{fill:#FFFFFF;}
	.st11{font-family:'SFUIText-Bold';}
	.st12{font-size:12px;}
	.st13{fill:none;stroke:#282D3A;stroke-width:1.5;stroke-linecap:round;stroke-linejoin:round;stroke-miterlimit:10;}
	.st14{fill:#F5F5F5;}
	
		.st15{display:inline;fill:none;stroke:#282D3A;stroke-width:1.5;stroke-linecap:round;stroke-linejoin:round;stroke-miterlimit:10;}
	
		.st16{display:inline;fill:none;stroke:#0096FF;stroke-width:1.5;stroke-linecap:round;stroke-linejoin:round;stroke-miterlimit:10;}
	.st17{display:inline;fill:none;stroke:#282D3A;stroke-width:2;stroke-linecap:round;stroke-linejoin:round;stroke-miterlimit:10;}
	.st18{display:none;fill:#282D3A;}
	.st19{display:inline;opacity:0.66;}
	.st20{display:inline;fill:#FF005F;}
	.st21{fill:none;stroke:#FFFFFF;stroke-width:1.5;stroke-linecap:round;stroke-linejoin:round;stroke-miterlimit:10;}
	.st22{font-size:10px;}
	.st23{display:inline;fill:#FFFFFF;}
	.st24{display:none;fill:none;stroke:#0096FF;stroke-width:2;stroke-linecap:round;stroke-linejoin:round;stroke-miterlimit:10;}
	.st25{display:inline;fill:#FF005E;}
	.st26{display:none;fill:none;stroke:#FFFFFF;stroke-width:1.5;stroke-linecap:round;stroke-linejoin:round;stroke-miterlimit:10;}
	.st27{fill:none;stroke:#0096FF;stroke-width:2;stroke-linecap:round;stroke-linejoin:round;stroke-miterlimit:10;}
</style>
<g id="_x35_s" class="st0">
	<g class="st1">
		<path class="st2" d="M-20.4,20.7h-10c-1.1,0-2,0.9-2,2v20c0,1.1,0.9,2,2,2h10c1.1,0,2-0.9,2-2v-20C-18.4,21.6-19.3,20.7-20.4,20.7
			z M-25.4,43.7c-0.5,0-1-0.4-1-1c0-0.5,0.5-1,1-1c0.6,0,1,0.5,1,1C-24.4,43.2-24.8,43.7-25.4,43.7z M-19.9,39.7
			c0,0.4-0.2,0.7-0.5,0.9c-0.1,0.1-0.3,0.1-0.5,0.1h-9c-0.2,0-0.3,0-0.5-0.1c-0.3-0.2-0.5-0.5-0.5-0.9v-15c0-0.4,0.2-0.7,0.5-0.9
			c0.2-0.1,0.3-0.1,0.5-0.1h9c0.2,0,0.4,0,0.5,0.1c0.3,0.2,0.5,0.5,0.5,0.9V39.7z"/>
	</g>
</g>
<g id="_x36_" class="st0">
	<g class="st1">
		<path class="st2" d="M-19.7,19.9h-11c-1.1,0-2,0.9-2,2v22c0,1.1,0.9,2,2,2h11c1.1,0,2-0.9,2-2v-22C-17.7,20.8-18.6,19.9-19.7,19.9
			z M-25.2,44.9c-0.6,0-1-0.5-1-1c0-0.6,0.4-1,1-1c0.5,0,1,0.4,1,1C-24.2,44.5-24.6,44.9-25.2,44.9z M-19.2,40.9
			c0,0.4-0.2,0.7-0.5,0.9c-0.2,0.1-0.3,0.1-0.5,0.1h-10c-0.2,0-0.4,0-0.5-0.1c-0.3-0.2-0.5-0.5-0.5-0.9v-17c0-0.4,0.2-0.7,0.5-0.9
			c0.1-0.1,0.3-0.1,0.5-0.1h10c0.2,0,0.3,0,0.5,0.1c0.3,0.2,0.5,0.5,0.5,0.9V40.9z"/>
	</g>
</g>
<g id="plus" class="st0">
	<g id="_x36__2_" class="st1">
		<g>
			<path class="st2" d="M-13.6,17.9h-13.2c-1.1,0-2,0.9-2,2v1h4c0.4,0,0.8,0.1,1.1,0.3h9.5c0.2,0,0.4,0.1,0.6,0.2
				c0.3,0.2,0.4,0.5,0.4,0.8v20.2c0,0.3-0.2,0.6-0.4,0.8c-0.2,0.1-0.4,0.2-0.6,0.2h-8.6v3.5c0,0.5-0.4,1-1,1h10.2c1.1,0,2-0.9,2-2
				v-26C-11.6,18.8-12.5,17.9-13.6,17.9z M-19,45.9c-0.1,0.6-0.6,1-1.2,1c-0.6,0-1.1-0.4-1.2-1c0-0.1,0-0.1,0-0.2
				c0-0.6,0.5-1.2,1.2-1.2c0.7,0,1.2,0.5,1.2,1.2C-19,45.8-19,45.9-19,45.9z"/>
		</g>
	</g>
	<g id="_x36__1_" class="st1">
		<g>
			<path class="st2" d="M-25.8,21.9h-11c-0.3,0-0.6,0.1-0.8,0.2c-0.7,0.3-1.2,1-1.2,1.8v22c0,1.1,0.9,2,2,2h11c0.7,0,1.4-0.4,1.7-1
				c0.2-0.3,0.3-0.6,0.3-1v-22C-23.8,22.8-24.7,21.9-25.8,21.9z M-31.3,46.9c-0.5,0-1-0.5-1-1s0.5-1,1-1c0.6,0,1,0.5,1,1
				S-30.7,46.9-31.3,46.9z M-25.3,42.9c0,0.2,0,0.3-0.1,0.5c-0.1,0.2-0.2,0.3-0.4,0.4c-0.1,0.1-0.3,0.1-0.5,0.1h-10
				c-0.2,0-0.3,0-0.5-0.1c-0.3-0.2-0.5-0.5-0.5-0.9v-17c0-0.4,0.2-0.7,0.5-0.9c0.2-0.1,0.3-0.1,0.5-0.1h10c0.2,0,0.4,0,0.5,0.1
				c0.3,0.2,0.5,0.5,0.5,0.9V42.9z"/>
		</g>
	</g>
</g>
<g id="x" class="st0">
	<g class="st1">
		<path class="st2" d="M-19.2,19.9h-12c-1.1,0-2,0.9-2,2v23c0,1.1,0.9,2,2,2h12c1.1,0,2-0.9,2-2v-23C-17.2,20.8-18.1,19.9-19.2,19.9
			z M-18.2,44.9c0,0.6-0.5,1-1,1h-12c-0.6,0-1-0.4-1-1v-23c0-0.5,0.4-1,1-1h1.4v0.3c0,0.3,0.1,0.5,0.3,0.7c0.2,0.2,0.4,0.3,0.7,0.3
			h7.2c0.3,0,0.5-0.1,0.7-0.3c0.2-0.2,0.3-0.4,0.3-0.7v-0.3h1.4c0.5,0,1,0.5,1,1V44.9z"/>
	</g>
</g>
<g id="all" class="st0">
	<g id="_x35_s_1_" class="st1">
		<g>
			<path class="st2" d="M-29.2,46v-3h-6.5c-0.2,0-0.4,0-0.5-0.1c-0.3-0.2-0.5-0.5-0.5-0.9V27c0-0.4,0.2-0.7,0.5-0.9
				C-36,26-35.9,26-35.7,26h6.5v-3h-7c-1.1,0-2,0.9-2,2v20c0,1.1,0.9,2,2,2h8C-28.7,47-29.2,46.5-29.2,46z M-31.2,46
				c-0.6,0-1-0.5-1-1c0-0.6,0.4-1,1-1c0.5,0,1,0.4,1,1C-30.2,45.5-30.6,46-31.2,46z"/>
		</g>
	</g>
	<g id="x_2_" class="st1">
		<g>
			<path class="st2" d="M-14.2,20h-12c-1.1,0-2,0.9-2,2v23c0,0.4,0.1,0.7,0.3,1c0.3,0.6,1,1,1.7,1h12c1.1,0,2-0.9,2-2V22
				C-12.2,20.9-13.1,20-14.2,20z M-13.2,45c0,0.5-0.5,1-1,1h-12c-0.6,0-1-0.5-1-1V22c0-0.6,0.4-1,1-1h1.4v0.3c0,0.3,0.1,0.5,0.3,0.7
				c0.2,0.2,0.4,0.3,0.7,0.3h7.2c0.3,0,0.5-0.1,0.7-0.3c0.2-0.2,0.3-0.4,0.3-0.7V21h1.4c0.5,0,1,0.4,1,1V45z"/>
		</g>
	</g>
</g>
<g id="x_1_" class="st0">
	<g class="st1">
		<path class="st3" d="M-19.2,20.5h-12c-1.1,0-2,0.9-2,2v23c0,1.1,0.9,2,2,2h12c1.1,0,2-0.9,2-2v-23C-17.2,21.4-18.1,20.5-19.2,20.5
			z M-18.2,45.5c0,0.5-0.5,1-1,1h-12c-0.6,0-1-0.5-1-1v-23c0-0.6,0.4-1,1-1h1.4v0.3c0,0.3,0.1,0.5,0.3,0.7c0.2,0.2,0.4,0.3,0.7,0.3
			h7.2c0.3,0,0.5-0.1,0.7-0.3c0.2-0.2,0.3-0.4,0.3-0.7v-0.3h1.4c0.5,0,1,0.4,1,1V45.5z"/>
	</g>
</g>
<circle class="st0" cx="0.1" cy="144.5" r="10"/>
<polyline class="st4" points="-3.7,85.5 -0.6,87.9 4.4,80.1 "/>
<g id="x_3_" class="st0">
	<path class="st5" d="M63.9,148.9H44.3c-0.6,0-1-0.4-1-1v-36.6c0-0.6,0.4-1,1-1h19.6c0.6,0,1,0.4,1,1v36.6
		C64.9,148.5,64.5,148.9,63.9,148.9z"/>
	<path class="st6" d="M60.2,113.2H48c-0.6,0-1-0.4-1-1v-2.5h14.2v2.5C61.2,112.8,60.8,113.2,60.2,113.2z"/>
</g>
<g id="icon1" class="st0">
	<g class="st1">
		<g>
			<g>
				<g>
					<path class="st2" d="M3,16.4L3,16.4C3,16.3,3,16.3,3,16.4c0-0.1-0.1-0.2-0.1-0.2c0,0,0,0,0-0.1c0,0-0.1-0.1-0.1-0.1
						c-0.1,0-0.1-0.1-0.2-0.1c-0.1,0-0.1,0-0.2-0.1c0,0,0,0-0.1,0h0l-20.7-2c-0.2,0-0.3,0-0.5,0.1l-4.1,2.8l0,0
						c-0.1,0.1-0.2,0.2-0.3,0.4c0,0,0,0.1,0,0.1c0,0,0,0.1,0,0.2v33.9c0,0.4,0.3,0.7,0.7,0.7L-2,54c0.1,0,0.1,0,0.2,0
						c0.1,0,0.1,0,0.2,0c0.1,0,0.1-0.1,0.2-0.1L2.7,51C2.9,50.9,3,50.7,3,50.4V16.5C3,16.5,3,16.4,3,16.4z M-18.3,15.3l18.4,1.8
						l-2.2,1.5l-18.4-1.8L-18.3,15.3z M-2.6,52.4l-19.3-1.9V18.2l19.3,1.8V52.4z M1.5,50l-2.6,1.8v-32L1.5,18V50z"/>
					<path class="st2" d="M3,16.3C3,16.4,3,16.4,3,16.3S3,16.3,3,16.3C3,16.3,3,16.3,3,16.3z"/>
				</g>
			</g>
		</g>
		<g id="_x36__3_">
			<g>
				<path class="st2" d="M-6.7,23.2l-11.1-1c-1.1,0-2,0.9-2,2v22c0,1.1,0.9,2,1.9,2h0l11,1h0.1c1.1,0,2-0.9,2-2v-22
					C-4.8,24.1-5.7,23.2-6.7,23.2z M-11.9,47.7L-11.9,47.7c-0.2,0.1-0.4,0.2-0.6,0.2c-0.3,0-0.5-0.1-0.7-0.3
					c-0.2-0.2-0.3-0.4-0.3-0.7c0-0.1,0-0.2,0.1-0.3c0.1-0.4,0.5-0.7,0.9-0.7c0.5,0,0.9,0.4,1,0.8c0,0,0,0.1,0,0.2
					C-11.5,47.2-11.7,47.5-11.9,47.7z M-6.3,44.2c0,0.4-0.2,0.7-0.5,0.9c-0.2,0.1-0.3,0.1-0.5,0.1l-10-1c-0.2,0-0.4,0-0.5-0.1
					c-0.3-0.2-0.5-0.5-0.5-0.9v-17c0-0.3,0.2-0.6,0.4-0.8c0.2-0.1,0.4-0.2,0.6-0.2l10,1c0.2,0,0.3,0,0.5,0.1
					c0.3,0.2,0.5,0.5,0.5,0.9V44.2z"/>
			</g>
		</g>
	</g>
	<g class="st1">
		<g>
			<g>
				<path class="st2" d="M-53.3,16.3C-53.3,16.3-53.3,16.3-53.3,16.3C-53.3,16.4-53.3,16.4-53.3,16.3
					C-53.3,16.3-53.3,16.3-53.3,16.3z"/>
			</g>
			<g>
				<path class="st2" d="M-49.3,51.8l-2.6-1.8V18l2.6,1.8V51.8z M-27,17.2C-27,17.2-27,17.2-27,17.2c-0.1-0.2-0.2-0.4-0.3-0.5l0,0
					l-4.1-2.8c-0.2-0.1-0.3-0.1-0.5-0.1l-20.7,2h0c0,0,0,0-0.1,0c-0.1,0-0.2,0-0.2,0.1c-0.1,0-0.1,0.1-0.2,0.1
					c-0.1,0-0.1,0.1-0.1,0.1c0,0,0,0,0,0.1c0,0,0,0.1,0,0.1c0,0,0,0,0,0.1v0c0,0,0,0.1,0,0.1v33.9c0,0.3,0.1,0.5,0.3,0.6l4.1,2.8
					c0,0,0,0,0.1,0c0,0,0.1,0.1,0.1,0.1c0.1,0,0.1,0,0.2,0c0.1,0,0.1,0,0.2,0l20.6-2c0.4,0,0.7-0.4,0.7-0.7V17.4
					C-27,17.3-27,17.3-27,17.2z M-50.5,17.1l18.4-1.8l2.2,1.5l-18.4,1.8L-50.5,17.1z M-28.5,50.6l-19.2,1.9V20.1l19.2-1.8V50.6z"/>
			</g>
		</g>
	</g>
	<g id="x_4_" class="st1">
		<g>
			<path class="st2" d="M-32.2,20.2L-32.2,20.2l-11.9,1.1c-1.1,0-2,0.9-2,2v25c0,1.1,0.9,2,2.1,2h0l12-1.1c1.1,0,2-0.9,2-2v-25
				C-30.1,21.1-31,20.2-32.2,20.2z M-31.1,47.2c0,0.5-0.5,1-1,1l-12,1.1c-0.6,0-1-0.5-1-1v-25c0-0.6,0.4-1,1-1l1.4-0.1v0.5
				c0,0.2,0,0.3,0.1,0.5c0.2,0.3,0.5,0.5,0.9,0.5l7.2-0.8c0.4,0,0.8-0.3,0.9-0.6c0-0.1,0.1-0.3,0.1-0.4v-0.6l1.4-0.1
				c0.5,0,1,0.5,1,1V47.2z"/>
		</g>
	</g>
	<g class="st1">
		<g class="st7">
			
				<image style="overflow:visible;" width="92" height="92" xlink:href="DF3AE1C0.png"  transform="matrix(1 0 0 1 -46.0521 -32.9953)">
			</image>
		</g>
		<circle class="st8" cx="-0.1" cy="13" r="10"/>
		<polyline class="st9" points="-3.6,14.5 -0.5,16.9 4.5,9.1 		"/>
	</g>
</g>
<g id="icon2" class="st0">
	<g class="st1">
		<path class="st2" d="M-18.6,46.9l-0.3-0.2c-0.2-0.1-18-9.2-17.6-36.4l0-0.7l0.7-0.1c0.1,0,7.8-0.9,16.8-6.2l0.4-0.2l0.4,0.2
			c9,5.4,16.8,6.2,16.9,6.2l0.7,0.1l0,0.7c0.4,27.2-17.4,36.3-17.6,36.4L-18.6,46.9z M-35,11c-0.1,23.7,14,32.9,16.4,34.2
			C-16.2,43.8-2.1,34.7-2.2,11c-2.1-0.3-8.7-1.6-16.4-6.1C-26.3,9.4-32.9,10.7-35,11z"/>
	</g>
	<g class="st1">
		<path class="st2" d="M-8.1,15.1c0.2,16.5-10.5,22.8-10.5,22.8S-29.3,31.5-29,15.1c0,0,4.8-0.5,10.4-3.9
			C-12.9,14.6-8.1,15.1-8.1,15.1z"/>
	</g>
	<g class="st1">
		<g class="st7">
			
				<image style="overflow:visible;" width="92" height="92" xlink:href="DF3AE1C1.png"  transform="matrix(1 0 0 1 -46.0521 -38.9953)">
			</image>
		</g>
		<circle class="st8" cx="-0.1" cy="7" r="10"/>
		<text transform="matrix(1 0 0 1 -4.3968 10.8745)" class="st10 st11 st12">3</text>
	</g>
</g>
<g id="icon3" class="st0">
	<g class="st1">
		<g>
			<path class="st2" d="M22.3,5c0,0-0.1-0.1-0.1-0.1c-0.2-0.2-0.8-0.8-4.6-0.4c-0.3,0-0.6,0.3-0.7,0.6c-0.1,0.1-0.2,0.3-0.5,0.4
				C15.4,5.7,5.9,5.8,4.4,5.3C4.3,5.1,4.2,5,4,4.8C3.2,4.2,2,4.3,1.7,4.3c-0.2,0-0.4,0.1-0.5,0.3c0,0-0.1,0.1-0.2,0.3
				C0.7,5.3,0.5,5.6,0.3,5.7c0-0.1,0-0.2,0-0.3c0-0.1,0-0.3,0.1-0.4c0.4-1.3-2.2-3.4-2.7-3.8c-0.8-0.5-1.4-0.7-1.9-0.6
				C-4.7,0.9-7.3,0-9.4-0.9C-9.5-0.9-9.6-1-9.7-1h-30c-0.4,0-0.7,0.3-0.8,0.7c0,0-0.1,0.7-0.2,1.3l0,0.1c0,0.3-0.1,0.4-0.1,0.4
				c-0.2,0.3-1,1.5-1,2.8v11.2c0,0.8,0.4,1.3,0.8,1.6c0.1,0.1,0.2,0.2,0.3,0.3c0.6,0.5,0.8,0.7,0.7,1.2c0,0,0,0.1,0,0.1
				c-0.1,1.6,1.5,3.2,2.6,4.1c0.3,0.2,0.5,0.4,0.6,0.6c0.2,0.2,0.5,0.6,0.7,0.9l0.4,0.5c1,1.3,1.6,1.9,2.3,1.7
				c0.1,0,0.2-0.1,0.3-0.1c0.8-0.2,1.1-0.2,1.4,0.1c0.9,1.1,4.2,1.8,5.3,1.9h0.8c0,0,0.1,0,0.2,0c0.7-0.1,2.6-0.4,3.6,0
				c0.2,0.1,0.4,0.2,0.4,0.3c0.1,0.5,0.3,1,0.7,1.5c0.6,1.1,1.5,1.8,1.5,1.9c0.2,0.2,0.4,0.2,0.6,0.2c0.2,0,0.4-0.2,0.5-0.4
				c0,0,0.5-0.8,0.7-1.4c0.4,0.2,0.8,0.9,1.2,2.1c0.1,0.3,0.2,0.7,0.4,1c0.4,0.9,1.1,1.7,2,2.4c0.9,0.7,1.7,1,1.7,1
				c0.2,0.1,0.5,0.1,0.7-0.1s0.3-0.4,0.3-0.6c0,0,0-0.4,0-0.9c0-0.6,0-1.4,0.1-2.1c0-0.2,0-0.4,0-0.6c0.1-0.6,2.5-1.6,3.4-1.8
				c0.2,0,1.1,0.4,1.7,0.6c2,0.8,2.8,1,3.3,0.6c0.2-0.2,0.4-0.4,0.4-0.7c0-0.2,0.8-0.8,1.2-1l0.3-0.2c0.1,0,0.2,0.1,0.3,0.2
				c0.2,0.2,0.5,0.5,0.7,0.7c0.4,0.4,0.7,0.8,1.1,0.8c0.1,0.4,0.3,0.8,0.4,1.3C2.3,34,2.4,34.6,2.5,35c0.1,0.5,0.1,0.8,0,1
				c0,0.4,0.1,0.8,0.4,1.4c0.3,0.6,1,1,2,1.1c0,0,0.3,0,0.7,0c0.6,0,1.4-0.1,1.7-0.4c0.3-0.3,0.5-1.1,0.5-2.4c0-0.5,0.1-1.5-0.1-2.3
				c-0.1-0.6-0.3-1.1-0.6-1.4c-0.1-0.1-0.4-0.8-0.6-2.1c-0.1-0.7-0.1-1.4,0-2c0.1-0.5,0.1-0.6,0.1-0.6C7.1,27,8.3,26,9.4,24.9
				c0.9-0.8,1.7-1.6,2.2-2.2c1.1-1.2,1.5-1.9,1.3-2.5c-0.1-0.3-0.3-0.5-0.6-0.7c-0.2-0.1-0.3-0.1-0.2-0.8c0-0.2,0.1-0.5,0.1-0.8
				c0.1-0.4,0.1-0.8,0.2-1.3c0-0.1,0-0.1,0-0.2c1,0,1.6-0.5,1.9-1.9c0.1-0.3,0.2-0.6,0.5-0.9c0.7-0.6,1.8-0.9,2.5-1.1
				c0.7-0.2,1.2-0.3,1.3-0.9c0.1-0.3-0.1-0.6-0.3-0.8c0,0,0,0-0.1-0.1c-0.1-0.4,0-1.1,0.4-1.4c0.1-0.1,0.3-0.3,0.5-0.4
				c0.3-0.2,0.7-0.5,1.1-0.8C21.8,7,23,5.9,22.3,5z M19.4,7c-0.4,0.3-0.7,0.6-1,0.8C18.2,8,18,8.1,17.8,8.2c-0.9,0.7-1.1,2.1-0.9,3
				c-0.9,0.2-2.1,0.6-3,1.4c-0.5,0.5-0.8,1.1-1,1.7c-0.1,0.6-0.2,0.7-0.2,0.7h-0.2c-0.6,0-1.4,0.1-1.6,1.6c0,0.4-0.1,0.8-0.2,1.2
				c-0.1,0.3-0.1,0.6-0.1,0.9c0,0.5-0.1,1.4,0.7,2c-0.1,0.2-0.4,0.5-0.8,1C10,22.3,9.3,23,8.4,23.8c-1.2,1.1-2.3,2-2.7,2.3
				c-0.4,0.3-0.6,0.8-0.7,1.6c-0.1,0.6-0.1,1.5,0,2.3c0.1,0.8,0.4,2.3,1,2.9c0,0,0.1,0.1,0.2,0.6c0.1,0.5,0.1,1.2,0.1,2
				c0,0.7-0.1,1.2-0.2,1.4c-0.6,0.1-1.7,0-1.9-0.3C4.1,36.3,4,36.2,4,36.2c0-0.4,0-0.8,0-1.4c-0.1-0.5-0.2-1.2-0.4-1.8
				c-0.7-2.7-1.3-2.6-1.6-2.6c0,0-0.1,0-0.1,0c0,0,0,0-0.1-0.1C1.6,30,1.3,29.7,1,29.4c-1-0.9-1.7-0.6-2.1-0.4l-0.4,0.3
				c-0.6,0.4-1.3,0.9-1.6,1.5c-0.5-0.1-1.3-0.4-1.8-0.6c-1.5-0.6-2-0.7-2.4-0.7c0,0-4.6,1.1-4.7,3.2c0,0.2,0,0.4,0,0.6
				c0,0.6,0,1.3,0,1.9c-0.1-0.1-0.3-0.2-0.4-0.3c-0.7-0.6-1.3-1.2-1.6-1.9c-0.1-0.2-0.2-0.5-0.3-0.7c-0.4-1.5-1.1-2.6-1.9-3.1
				c-0.6-0.4-1.3-0.3-1.8,0.1c-0.1,0.1-0.2,0.2-0.2,0.3c-0.1,0.2-0.2,0.4-0.3,0.6c-0.2-0.2-0.4-0.5-0.6-0.8
				c-0.3-0.4-0.4-0.8-0.5-1.1c-0.1-0.4-0.4-1-1.3-1.3c-1.3-0.5-3.4-0.2-4.3,0H-26c-1.5-0.2-3.9-0.9-4.2-1.4
				c-0.9-1.1-2.2-0.8-2.9-0.7c0,0-0.1,0-0.1,0c-0.1-0.1-0.4-0.4-1-1.2l-0.4-0.5c-0.3-0.4-0.6-0.8-0.8-1c-0.2-0.2-0.4-0.4-0.8-0.7
				c-0.7-0.7-2.1-1.9-2-2.9c0.2-1.3-0.7-2-1.3-2.5c-0.1-0.1-0.2-0.1-0.3-0.2l0,0c-0.3-0.3-0.3-0.4-0.3-0.5V4.4c0-1,0.7-2,0.7-2
				c0,0,0-0.1,0-0.1c0.1-0.2,0.2-0.4,0.2-0.8l0-0.2C-39,1-39,0.8-39,0.5h2.1l0.2-0.5c0-0.2,0.3-0.2,0.3,0l0.2,0.5h4.9l0.2-0.5
				c0.1-0.2,0.3-0.2,0.3,0l0.2,0.5h4.9l0.2-0.5c0.1-0.2,0.3-0.2,0.3,0l0.2,0.5h4.8l0.2-0.5c0.1-0.2,0.3-0.2,0.3,0l0.2,0.5h9.8
				c2.2,0.9,5,1.9,6.1,1.7c0.1,0,0.3,0.1,0.6,0.3c1,0.7,1.9,1.8,2.1,2.2c0,0.2-0.1,0.4-0.1,0.5c-0.1,0.5,0,1.4,0.5,1.9
				C-0.4,7.4,0,7.5,0.4,7.4c0.2-0.1,0.8-0.3,1.8-1.5c0,0,0,0,0,0c0.3,0,0.7,0,0.8,0.2c0.6,1.9,13.7,1,13.8,0.9
				c0.7-0.2,1.1-0.7,1.3-1c0.9-0.1,1.9-0.1,2.5,0C20.4,6.1,20,6.5,19.4,7z"/>
		</g>
		<g>
			<g>
				<line class="st13" x1="-15" y1="32.5" x2="-11.4" y2="32.5"/>
				<line class="st13" x1="2.9" y1="32.5" x2="6.6" y2="32.5"/>
				<line class="st13" x1="-33.5" y1="25.6" x2="7.4" y2="25.6"/>
				<line class="st13" x1="-38.5" y1="18.7" x2="11" y2="18.7"/>
				<line class="st13" x1="-16.5" y1="11.8" x2="17" y2="11.8"/>
				<line class="st13" x1="-16.5" y1="4.8" x2="-1" y2="4.8"/>
			</g>
		</g>
		<g>
			<path class="st2" d="M-39.6-0.2l-1.5,4.5l0.3,11.8h24.4c0.8,0,1.5-0.7,1.5-1.5V-0.2H-39.6z M-34.5,12.7l-1.1,0.8l0.4,1.3
				c0,0.2-0.1,0.3-0.3,0.2l-1.1-0.8l-1.1,0.8c-0.1,0.1-0.3,0-0.3-0.2l0.4-1.3l-1-0.8c-0.1-0.1-0.1-0.3,0.1-0.3l1.3,0l0.1-0.3l0.3-1
				c0-0.2,0.3-0.2,0.3,0l0.3,1l0.1,0.3l1.3,0C-34.5,12.4-34.4,12.6-34.5,12.7z M-34.5,7.2l-1.1,0.8l0.4,1.3c0,0.2-0.1,0.3-0.3,0.2
				l-1.1-0.8l-1.1,0.8c-0.1,0.1-0.3,0-0.3-0.2l0.4-1.3l-1-0.8c-0.1-0.1-0.1-0.3,0.1-0.3l1.3,0l0.1-0.3l0.3-0.9c0-0.2,0.3-0.2,0.3,0
				l0.3,0.9l0.1,0.3l1.3,0C-34.5,6.8-34.4,7.1-34.5,7.2z M-34.5,1.6l-1.1,0.8l0.4,1.3c0,0.2-0.1,0.3-0.3,0.2l-1.1-0.8l-1.1,0.8
				c-0.1,0.1-0.3,0-0.3-0.2l0.4-1.3l-1-0.8c-0.1-0.1-0.1-0.3,0.1-0.3l1.3,0L-37,1l0.2-0.5l0.2-0.5c0-0.2,0.3-0.2,0.3,0l0.2,0.5
				l0.1,0.5l0.1,0.3l1.3,0C-34.5,1.3-34.4,1.5-34.5,1.6z M-29,12.7l-1.1,0.8l0.4,1.3c0.1,0.2-0.1,0.3-0.3,0.2l-1.1-0.8l-1.1,0.8
				c-0.1,0.1-0.3,0-0.3-0.2l0.4-1.3l-1.1-0.8c-0.1-0.1-0.1-0.3,0.1-0.3l1.3,0l0.1-0.3l0.3-1c0.1-0.2,0.3-0.2,0.3,0l0.3,1l0.1,0.3
				l1.3,0C-28.9,12.4-28.9,12.6-29,12.7z M-29,7.2l-1.1,0.8l0.4,1.3c0.1,0.2-0.1,0.3-0.3,0.2L-31,8.6l-1.1,0.8
				c-0.1,0.1-0.3,0-0.3-0.2l0.4-1.3L-33,7.2c-0.1-0.1-0.1-0.3,0.1-0.3l1.3,0l0.1-0.3l0.3-0.9c0.1-0.2,0.3-0.2,0.3,0l0.3,0.9l0.1,0.3
				l1.3,0C-28.9,6.8-28.9,7.1-29,7.2z M-29,1.6l-1.1,0.8l0.4,1.3c0.1,0.2-0.1,0.3-0.3,0.2L-31,3.1l-1.1,0.8c-0.1,0.1-0.3,0-0.3-0.2
				l0.4-1.3L-33,1.6c-0.1-0.1-0.1-0.3,0.1-0.3l1.3,0l0.1-0.3l0.2-0.5l0.2-0.5c0.1-0.2,0.3-0.2,0.3,0l0.2,0.5l0.2,0.5l0.1,0.3l1.3,0
				C-28.9,1.3-28.9,1.5-29,1.6z M-23.5,12.7l-1,0.8l0.4,1.3c0,0.2-0.1,0.3-0.3,0.2l-1.1-0.8l-1.1,0.8c-0.1,0.1-0.3,0-0.3-0.2
				l0.4-1.3l-1.1-0.8c-0.1-0.1-0.1-0.3,0.1-0.3l1.3,0l0.1-0.3l0.3-1c0.1-0.2,0.3-0.2,0.3,0l0.3,1l0.1,0.3l1.3,0
				C-23.4,12.4-23.3,12.6-23.5,12.7z M-23.5,7.2l-1,0.8l0.4,1.3c0,0.2-0.1,0.3-0.3,0.2l-1.1-0.8l-1.1,0.8c-0.1,0.1-0.3,0-0.3-0.2
				l0.4-1.3l-1.1-0.8c-0.1-0.1-0.1-0.3,0.1-0.3l1.3,0l0.1-0.3l0.3-0.9c0.1-0.2,0.3-0.2,0.3,0l0.3,0.9l0.1,0.3l1.3,0
				C-23.4,6.8-23.3,7.1-23.5,7.2z M-23.5,1.6l-1,0.8l0.4,1.3c0,0.2-0.1,0.3-0.3,0.2l-1.1-0.8l-1.1,0.8c-0.1,0.1-0.3,0-0.3-0.2
				l0.4-1.3l-1.1-0.8c-0.1-0.1-0.1-0.3,0.1-0.3l1.3,0L-26,1l0.2-0.5l0.2-0.5c0.1-0.2,0.3-0.2,0.3,0l0.2,0.5L-25,1l0.1,0.3l1.3,0
				C-23.4,1.3-23.3,1.5-23.5,1.6z M-18,12.7l-1.1,0.8l0.4,1.3c0.1,0.2-0.1,0.3-0.3,0.2l-1.1-0.8l-1.1,0.8c-0.1,0.1-0.3,0-0.3-0.2
				l0.4-1.3l-1.1-0.8c-0.1-0.1-0.1-0.3,0.1-0.3l1.3,0l0.1-0.3l0.3-1c0.1-0.2,0.3-0.2,0.3,0l0.3,1l0.1,0.3l1.3,0
				C-17.9,12.4-17.8,12.6-18,12.7z M-18,7.2L-19,7.9l0.4,1.3c0.1,0.2-0.1,0.3-0.3,0.2L-20,8.6L-21,9.4c-0.1,0.1-0.3,0-0.3-0.2
				l0.4-1.3L-22,7.2c-0.1-0.1-0.1-0.3,0.1-0.3l1.3,0l0.1-0.3l0.3-0.9c0.1-0.2,0.3-0.2,0.3,0l0.3,0.9l0.1,0.3l1.3,0
				C-17.9,6.8-17.8,7.1-18,7.2z M-19.5,1l0.1,0.3l1.3,0c0.2,0,0.2,0.2,0.1,0.3L-19,2.4l0.4,1.3c0.1,0.2-0.1,0.3-0.3,0.2L-20,3.1
				L-21,3.9c-0.1,0.1-0.3,0-0.3-0.2l0.4-1.3L-22,1.6c-0.1-0.1-0.1-0.3,0.1-0.3l1.3,0l0.1-0.3l0.1-0.5l0.2-0.5c0.1-0.2,0.3-0.2,0.3,0
				l0.2,0.5L-19.5,1z"/>
		</g>
	</g>
	<g class="st1">
		<g class="st7">
			
				<image style="overflow:visible;" width="92" height="92" xlink:href="DF3AE1C7.png"  transform="matrix(1 0 0 1 -30.0521 -46.9953)">
			</image>
		</g>
		<circle class="st8" cx="15.9" cy="-1" r="10"/>
		<path class="st14" d="M20.5-2.4l-3.2,0l-0.2-0.7l-0.8-2.3c-0.1-0.4-0.7-0.4-0.8,0l-0.8,2.3l-0.2,0.7l-3.2,0
			c-0.4,0-0.6,0.5-0.3,0.8l2.5,1.9l-1,3c-0.1,0.4,0.3,0.7,0.7,0.5l2.6-1.8l2.6,1.8c0.3,0.2,0.8-0.1,0.7-0.5l-1-3l2.5-1.9
			C21.1-1.9,20.9-2.4,20.5-2.4z"/>
	</g>
</g>
<g id="icon4" class="st0">
	<g id="_x34_" class="st1">
		<g>
			<g id="head">
				<g>
					<path class="st2" d="M4.5-1c-0.3,0-0.7-0.3-1-0.6C3.2-1.9,2.9-2.3,2.7-2.8C2.6-3,2.6-3.2,2.5-3.4L2.4-3.6
						c0-0.1-0.1-0.2-0.1-0.4c0-0.1,0-0.2-0.1-0.3C2.2-4.8,1.9-5.2,1.5-5.5C1.1-5.8,0.7-5.9,0.3-5.9c-0.5,0-0.9,0.2-1.3,0.3
						c-0.1,0.1-0.3,0.1-0.4,0.2c-0.5,0.1-0.9,0.2-1.2,0.3C-3.3-5-4.2-5-4.9-4.9C-5.8-5-6.6-5-7.4-5.1c-0.4-0.1-0.8-0.2-1.2-0.3
						c-0.1,0-0.3-0.1-0.4-0.2c-0.6-0.2-1.5-0.6-2.4,0.1c-0.4,0.3-0.7,0.7-0.8,1.2c0,0.1,0,0.3-0.1,0.4c0,0.2,0,0.3-0.1,0.3
						c-0.1,0.1-0.1,0.3-0.2,0.4c0,0.1-0.1,0.2-0.1,0.4c-0.2,0.5-0.4,1-0.7,1.3c-0.3,0.3-0.8,0.6-1,0.6c-0.1-0.3-0.3-1-0.2-2.3
						c0-0.4,1-8.6,9.7-8.6s9.6,8.3,9.7,8.6C4.8-2,4.6-1.3,4.5-1z"/>
				</g>
			</g>
			<g>
				<path class="st2" d="M12.1,29.9L10,19.6c0-0.1-0.8-2.5-3.4-3.3l-5.5-1.7l-1.6-1.1v-1.1c2.8-1.6,4.8-4.6,4.8-8.1
					c0.1,0,0.2,0,0.3,0c1.7,0,3.1-1.4,3.1-3.1c0-1-0.5-2-1.3-2.5c0.1-0.5,0.1-1.3,0-2.2C6.3-3.6,5.2-13.6-5-13.6s-11.3,10-11.3,10.1
					c-0.1,0.9-0.1,1.6,0,2.2c-0.8,0.6-1.3,1.5-1.3,2.5c0,1.7,1.4,3.1,3.1,3.1c0.1,0,0.2,0,0.3,0c0,3.5,2,6.5,4.8,8.1v1.1l-1.6,1.1
					l-5.5,1.7c-2.6,0.8-3.4,3.2-3.5,3.4l-2.1,10.3c-0.2,1,0.1,1.7,0.4,2.2c0.9,1.1,2.5,1.3,2.7,1.3h4.2l19.3,0H9
					c0.2,0,1.8-0.2,2.7-1.3C12,31.7,12.3,31,12.1,29.9z M-0.3,15.7l-1.3,3.4l-2.1-0.7l2.5-3.4h0L-0.3,15.7z M-5,17.4l-2.8-3.8V13
					c0.9,0.3,1.8,0.4,2.8,0.4s1.9-0.2,2.8-0.4v0.6L-5,17.4z M5.6,0.3C5.8,0.6,6,0.9,6,1.2C6,2,5.3,2.6,4.6,2.6c-0.1,0-0.2,0-0.3,0
					v-2c0.1,0,0.2,0,0.3,0C4.9,0.7,5.2,0.6,5.6,0.3L5.6,0.3z M-14.3,2.6c-0.1,0-0.2,0-0.3,0c-0.8,0-1.4-0.6-1.4-1.4
					c0-0.3,0.1-0.7,0.3-0.9l0.1,0.1c0.4,0.3,0.9,0.4,1.3,0.3V2.6z M-13.4-1.6c-0.3,0.3-0.8,0.6-1,0.6c-0.1-0.3-0.3-1-0.2-2.3
					c0-0.4,1-8.6,9.7-8.6s9.6,8.3,9.7,8.6C4.8-2,4.6-1.3,4.5-1c-0.3,0-0.7-0.3-1-0.6C3.2-1.9,2.9-2.3,2.7-2.8C2.6-3,2.6-3.2,2.5-3.4
					L2.4-3.6c0-0.1-0.1-0.2-0.1-0.4c0-0.1,0-0.2-0.1-0.3C2.2-4.8,1.9-5.2,1.5-5.5C1.1-5.8,0.7-5.9,0.3-5.9c-0.5,0-0.9,0.2-1.3,0.3
					c-0.1,0.1-0.3,0.1-0.4,0.2c-0.5,0.1-0.9,0.2-1.2,0.3C-3.3-5-4.2-5-4.9-4.9C-5.8-5-6.6-5-7.4-5.1c-0.4-0.1-0.8-0.2-1.2-0.3
					c-0.1,0-0.3-0.1-0.4-0.2c-0.6-0.2-1.5-0.6-2.4,0.1c-0.4,0.3-0.7,0.7-0.8,1.2c0,0.1,0,0.3-0.1,0.4c0,0.2,0,0.3-0.1,0.3
					c-0.1,0.1-0.1,0.3-0.2,0.4c0,0.1-0.1,0.2-0.1,0.4C-12.9-2.3-13.1-1.9-13.4-1.6z M-12.6,4.2v-4.3c0.2-0.1,0.3-0.2,0.3-0.3
					c0.5-0.5,0.8-1.2,1.1-1.8c0.1-0.1,0.1-0.3,0.2-0.4c0-0.1,0.1-0.2,0.2-0.4c0.1-0.3,0.1-0.5,0.2-0.7c0-0.1,0-0.2,0-0.3
					c0-0.1,0.1-0.1,0.1-0.2c0.2-0.1,0.3-0.1,0.8,0.1C-9.5-4-9.3-3.9-9.1-3.9c0.4,0.1,0.9,0.3,1.4,0.4c0.9,0.1,1.8,0.2,2.8,0.2
					c0.9-0.1,1.8-0.1,2.7-0.3c0.4-0.1,0.8-0.2,1.4-0.4C-0.6-3.9-0.4-4-0.3-4.1c0.6-0.2,0.7-0.2,0.8-0.1C0.6-4.1,0.7-4,0.7-4
					c0,0.1,0,0.2,0,0.2c0,0.2,0.1,0.5,0.2,0.8L1-2.8C1-2.6,1.1-2.4,1.2-2.2c0.3,0.6,0.6,1.3,1.1,1.8c0,0,0.1,0.1,0.3,0.3v4.3
					c0,4.2-3.4,7.6-7.6,7.6C-9.2,11.8-12.6,8.4-12.6,4.2z M-8.8,15.1l2.5,3.3l-2.1,0.7l-1.3-3.4L-8.8,15.1z M10.3,31.1
					c-0.3,0.5-1.2,0.6-1.4,0.7H5.5v-6.3c0-0.5-0.4-0.8-0.8-0.8c-0.5,0-0.8,0.4-0.8,0.8v6.3h-17.7v-6.3c0-0.5-0.4-0.8-0.8-0.8
					c-0.5,0-0.8,0.4-0.8,0.8v6.3h-3.3c-0.2,0-1.1-0.2-1.5-0.7c-0.1-0.1-0.2-0.4-0.1-0.8l2-10.2c0,0,0.6-1.7,2.3-2.2l4.9-1.5l1.5,4.1
					c0.1,0.3,0.4,0.5,0.8,0.5c0.1,0,0.2,0,0.3,0l2.8-0.9v5.9c0,0.5,0.4,0.8,0.8,0.8c0.5,0,0.8-0.4,0.8-0.8V20l2.8,0.9
					c0.1,0,0.2,0,0.3,0c0.3,0,0.7-0.2,0.8-0.5l1.5-4.1l4.9,1.5c0.9,0.3,1.4,0.8,1.8,1.3C8.2,19.6,8.4,20,8.4,20l2.1,10.3
					C10.6,30.7,10.4,31,10.3,31.1z"/>
				<path class="st2" d="M4.8,33.4C4.8,33.4,4.7,33.4,4.8,33.4c-0.1,0-0.1,0-0.2,0H4.8z"/>
			</g>
		</g>
		<g>
			<g>
				<circle class="st2" cx="-7.7" cy="1.8" r="1.1"/>
			</g>
			<g>
				<circle class="st2" cx="-2.2" cy="1.8" r="1.1"/>
			</g>
		</g>
		<g>
			<path class="st2" d="M-2.1,6.6c0,1.1-1.3,2-2.9,2s-2.9-0.9-2.9-2C-7.8,6.3-7.6,6-7.3,6C-7,6-6.7,6.3-6.7,6.6C-6.7,7-6,7.5-5,7.5
				c1,0,1.8-0.5,1.8-0.9C-3.2,6.3-3,6-2.7,6C-2.4,6-2.1,6.3-2.1,6.6z"/>
		</g>
	</g>
	<g class="st1">
		<g class="st7">
			
				<image style="overflow:visible;" width="92" height="92" xlink:href="DF3AE1C2.png"  transform="matrix(1 0 0 1 -32.0521 -50.9953)">
			</image>
		</g>
		<circle class="st8" cx="13.9" cy="-5" r="10"/>
		<g>
			<path class="st10" d="M10.4-6.8H9.1c-0.2,0-0.3,0.2-0.3,0.3v6.1C8.7-0.1,8.9,0,9.1,0h1.4c0.2,0,0.3-0.2,0.3-0.3v-6.1
				C10.8-6.6,10.6-6.8,10.4-6.8z"/>
			<path class="st10" d="M15.7-6.8l0.4-1c0.2-0.7,0.1-1.7-0.6-2.1C15.2-10,14.9-10,14.7-10c-0.1,0-0.3,0.1-0.3,0.3
				c-0.1,0.1-0.1,0.3-0.1,0.5c-0.1,0.4-0.3,0.8-0.6,1.1c-0.5,0.5-2.2,2-2.2,2v5.4h5.7c0.8,0,1.3-0.9,0.9-1.5
				c0.5-0.3,0.6-0.9,0.3-1.4c0.5-0.3,0.6-0.9,0.3-1.4c0.8-0.5,0.5-1.7-0.4-1.9C18.3-6.8,15.7-6.8,15.7-6.8z"/>
		</g>
	</g>
</g>
<g class="st0">
	<line class="st15" x1="167" y1="-27.9" x2="176.9" y2="-18"/>
	<line class="st15" x1="176.9" y1="-27.9" x2="167" y2="-18"/>
</g>
<g id="show_x5F_more" class="st0">
	<path class="st16" d="M9.2,2.5c0,0-0.5-0.5-0.7-0.7C6.1-0.5,2.4-0.6,0,1.8c-2.3,2.3-2.3,6.1,0,8.5c2.3,2.3,6.1,2.3,8.5,0"/>
	<polyline class="st16" points="7,2.9 9.6,2.9 9.6,0.3 	"/>
</g>
<g class="st0">
	<line class="st17" x1="102.9" y1="-13" x2="122.9" y2="-13"/>
	<line class="st17" x1="102.9" y1="-7" x2="122.9" y2="-7"/>
	<line class="st17" x1="102.9" y1="-1" x2="122.9" y2="-1"/>
</g>
<circle class="st18" cx="85.4" cy="-13.5" r="2"/>
<circle class="st18" cx="77.4" cy="-13.5" r="2"/>
<circle class="st18" cx="85.4" cy="-5.5" r="2"/>
<circle class="st18" cx="77.4" cy="-5.5" r="2"/>
<g id="skoro" class="st0">
	<path class="st6" d="M-5.7,41.9h-39c-2.2,0-4-1.8-4-4v-8c0-2.2,1.8-4,4-4h39c2.2,0,4,1.8,4,4v8C-1.7,40.1-3.5,41.9-5.7,41.9z"/>
	<text transform="matrix(1 0 0 1 -41.5199 36.76)" class="st23 st11 st22">Скоро</text>
</g>
<g id="skoro_x5F_v_x5F_prodaje" class="st0">
	<g class="st19">
		
			<image style="overflow:visible;" width="144" height="144" xlink:href="DF3AE1C3.png"  transform="matrix(1 0 0 1 -68.0521 -65.9953)">
		</image>
	</g>
	<circle class="st20" cx="4" cy="6" r="35.5"/>
	<g class="st1">
		<ellipse class="st21" cx="4" cy="-12.5" rx="8" ry="8"/>
		<line class="st21" x1="4" y1="-12.5" x2="4" y2="-20.5"/>
		<line class="st21" x1="4" y1="-6.6" x2="4" y2="-4.5"/>
		<line class="st21" x1="12" y1="-12.5" x2="9.8" y2="-12.5"/>
		<line class="st21" x1="-1.9" y1="-12.5" x2="-4" y2="-12.5"/>
		<line class="st21" x1="4" y1="-12.5" x2="9.6" y2="-18.1"/>
		<line class="st21" x1="-0.2" y1="-8.4" x2="-1.7" y2="-6.8"/>
		<line class="st21" x1="9.6" y1="-6.8" x2="8.1" y2="-8.4"/>
		<line class="st21" x1="-0.2" y1="-16.6" x2="-1.7" y2="-18.1"/>
	</g>
	<text transform="matrix(1 0 0 1 -12.5117 9.8694)" class="st1"><tspan x="0" y="0" class="st10 st11 st22">Скоро</tspan><tspan x="-11.3" y="12" class="st10 st11 st22">в продаже</tspan></text>
</g>
<g id="map_x5F_pin" class="st0">
	<g class="st19">
		
			<image style="overflow:visible;" width="108" height="117" xlink:href="DF3AE1CE.png"  transform="matrix(1 0 0 1 -50.0521 -51.9953)">
		</image>
	</g>
	<g class="st1">
		<g>
			<g>
				<g>
					<path class="st8" d="M21.1,0.8c0,13.6-14.9,26.2-15.5,26.7C5.1,27.8,4.5,28,4,28s-1.1-0.2-1.6-0.6C1.8,26.9-13.2,14.4-13.2,0.8
						C-13.2-8.5-5.5-16,4-16S21.1-8.5,21.1,0.8z"/>
				</g>
			</g>
		</g>
	</g>
	<path class="st23" d="M3.9-5.6C4.5-7.1,6-8.5,8.3-8.5c0,2.7-1.9,4.4-3.8,4.5C3.5-3.8,3.5-4.6,3.9-5.6z M4.4,8.5
		C1.8,8.5-0.5,7-1.7,4.7c-1.1-2.2-0.9-4.7,0.5-6.6C-1.2-1.9-1.1-2-1-2.1c0.6-0.7,1.4-1.1,2.3-1.2C2-3.4,2.7-3.1,3.5-3
		C3.7-2.9,3.8-2.9,4-2.8c0.6,0.1,1.2-0.1,1.7-0.3c0.5-0.2,1.1-0.2,1.6-0.2c1,0.1,1.9,0.6,2.6,1.5c0.1,0.2,0.2,0.3,0.3,0.5
		C9.4-0.7,8.8,0.5,8.8,1.8s0.6,2.5,1.5,3.2C9.1,7.1,6.8,8.5,4.4,8.5z"/>
</g>
<polyline id="arrow" class="st24" points="-1,4 4,8 9,4 "/>
<g id="fire_x5F_label" class="st0">
	<g class="st19">
		
			<image style="overflow:visible;" width="103" height="103" xlink:href="DF3AE1CF.png"  transform="matrix(1 0 0 1 -47.0521 -44.9953)">
		</image>
	</g>
	<circle class="st25" cx="4" cy="6" r="15"/>
	<g id="surface1" class="st1">
		<path class="st10" d="M1.1,15c-2-6.6,2.2-9,2.2-9C3,9.6,5,12.3,5,12.3C5.7,12.1,7.1,11,7.1,11c0,1.3-0.7,4-0.7,4S9,13,9.8,9.7
			C10.6,6.4,8.2,3,8.2,3C8.4,5.4,7.6,7.7,6,9.5c0.1-0.1,0.1-0.2,0.2-0.3c0.3-0.6,0.7-2,0.5-5.4C6.3-1,2-3,2-3c0.4,2.9-0.7,3.6-3.3,9
			C-3.9,11.6,1.1,15,1.1,15z"/>
	</g>
</g>
<g id="v_x5F_nalichii" class="st0">
	<path class="st25" d="M10,6c0,3.3-2.7,6-6,6c-3.3,0-6-2.7-6-6s2.7-6,6-6c1.6,0,3.1,0.7,4.2,1.7C8.5,2.1,8.9,2.5,9.1,3
		C9.7,3.9,10,4.9,10,6z"/>
	<g class="st1">
		<path class="st10" d="M9.1,3L4.5,8.5C4.4,8.7,4.2,8.8,3.9,8.8h0c-0.2,0-0.5-0.1-0.6-0.3l-2-3c-0.2-0.3-0.1-0.8,0.2-1
			c0.3-0.2,0.8-0.1,1,0.2L4,6.8l4.1-5C8.5,2.1,8.9,2.5,9.1,3z"/>
	</g>
</g>
<polyline id="galochka" class="st26" points="1,6.5 3,8.5 7,3.5 "/>
<polyline class="st27" points="6,2 2,6 6,10 "/>
</svg>
