<?xml version="1.0" encoding="utf-8"?>
<!-- Generator: Adobe Illustrator 22.0.0, SVG Export Plug-In . SVG Version: 6.00 Build 0)  -->
<svg version="1.1" id="Layer_1" xmlns="http://www.w3.org/2000/svg" xmlns:xlink="http://www.w3.org/1999/xlink" x="0px" y="0px"
	 viewBox="0 0 16.7 16.1" style="enable-background:new 0 0 16.7 16.1;" xml:space="preserve">
<style type="text/css">
	.st0{display:none;}
	.st1{display:inline;}
	.st2{fill:#282D3A;}
	.st3{fill:#85888B;}
	.st4{display:none;fill:none;stroke:#FFFFFF;stroke-width:2;stroke-linecap:round;stroke-linejoin:round;stroke-miterlimit:10;}
	.st5{display:inline;fill:none;stroke:#282D3A;stroke-width:1.5;stroke-linejoin:round;stroke-miterlimit:10;}
	.st6{display:inline;fill:#282D3A;}
	.st7{opacity:0.66;}
	.st8{fill:#FF005F;}
	.st9{fill:none;stroke:#FFFFFF;stroke-width:2;stroke-linecap:round;stroke-linejoin:round;stroke-miterlimit:10;}
	.st10{fill:#FFFFFF;}
	.st11{font-family:'SFUIText-Bold';}
	.st12{font-size:12px;}
	.st13{fill:none;stroke:#282D3A;stroke-width:1.5;stroke-linecap:round;stroke-linejoin:round;stroke-miterlimit:10;}
	.st14{fill:#F5F5F5;}
	
		.st15{display:inline;fill:none;stroke:#0096FF;stroke-width:1.5;stroke-linecap:round;stroke-linejoin:round;stroke-miterlimit:10;}
	.st16{display:inline;fill:none;stroke:#282D3A;stroke-width:2;stroke-linecap:round;stroke-linejoin:round;stroke-miterlimit:10;}
	.st17{display:none;fill:#282D3A;}
	.st18{display:inline;opacity:0.66;}
	.st19{display:inline;fill:#FF005F;}
	.st20{fill:none;stroke:#FFFFFF;stroke-width:1.5;stroke-linecap:round;stroke-linejoin:round;stroke-miterlimit:10;}
	.st21{font-size:10px;}
	.st22{display:inline;fill:#FFFFFF;}
	.st23{display:none;fill:none;stroke:#0096FF;stroke-width:2;stroke-linecap:round;stroke-linejoin:round;stroke-miterlimit:10;}
	.st24{display:inline;fill:#FF005E;}
	.st25{display:none;fill:none;stroke:#FFFFFF;stroke-width:1.5;stroke-linecap:round;stroke-linejoin:round;stroke-miterlimit:10;}
	.st26{display:inline;fill:#282D3B;}
</style>
<g id="_x35_s" class="st0">
	<g class="st1">
		<path class="st2" d="M-17.9,25.2h-10c-1.1,0-2,0.9-2,2v20c0,1.1,0.9,2,2,2h10c1.1,0,2-0.9,2-2v-20C-15.9,26.1-16.8,25.2-17.9,25.2
			z M-22.9,48.2c-0.5,0-1-0.4-1-1c0-0.5,0.5-1,1-1c0.6,0,1,0.5,1,1C-21.9,47.8-22.4,48.2-22.9,48.2z M-17.4,44.2
			c0,0.4-0.2,0.7-0.5,0.9c-0.1,0.1-0.3,0.1-0.5,0.1h-9c-0.2,0-0.3,0-0.5-0.1c-0.3-0.2-0.5-0.5-0.5-0.9v-15c0-0.4,0.2-0.7,0.5-0.9
			c0.2-0.1,0.3-0.1,0.5-0.1h9c0.2,0,0.4,0,0.5,0.1c0.3,0.2,0.5,0.5,0.5,0.9V44.2z"/>
	</g>
</g>
<g id="_x36_" class="st0">
	<g class="st1">
		<path class="st2" d="M-17.2,24.5h-11c-1.1,0-2,0.9-2,2v22c0,1.1,0.9,2,2,2h11c1.1,0,2-0.9,2-2v-22C-15.2,25.4-16.1,24.5-17.2,24.5
			z M-22.7,49.5c-0.6,0-1-0.5-1-1c0-0.6,0.4-1,1-1c0.5,0,1,0.4,1,1C-21.7,49-22.2,49.5-22.7,49.5z M-16.7,45.5
			c0,0.4-0.2,0.7-0.5,0.9c-0.2,0.1-0.3,0.1-0.5,0.1h-10c-0.2,0-0.4,0-0.5-0.1c-0.3-0.2-0.5-0.5-0.5-0.9v-17c0-0.4,0.2-0.7,0.5-0.9
			c0.1-0.1,0.3-0.1,0.5-0.1h10c0.2,0,0.3,0,0.5,0.1c0.3,0.2,0.5,0.5,0.5,0.9V45.5z"/>
	</g>
</g>
<g id="plus" class="st0">
	<g id="_x36__2_" class="st1">
		<g>
			<path class="st2" d="M-11.1,22.5h-13.2c-1.1,0-2,0.9-2,2v1h4c0.4,0,0.8,0.1,1.1,0.3h9.5c0.2,0,0.4,0.1,0.6,0.2
				c0.3,0.2,0.4,0.5,0.4,0.8V47c0,0.3-0.2,0.6-0.4,0.8c-0.2,0.1-0.4,0.2-0.6,0.2h-8.6v3.5c0,0.5-0.4,1-1,1h10.2c1.1,0,2-0.9,2-2v-26
				C-9.1,23.4-10,22.5-11.1,22.5z M-16.6,50.5c-0.1,0.6-0.6,1-1.2,1c-0.6,0-1.1-0.4-1.2-1c0-0.1,0-0.1,0-0.2c0-0.6,0.5-1.2,1.2-1.2
				c0.7,0,1.2,0.5,1.2,1.2C-16.6,50.4-16.6,50.4-16.6,50.5z"/>
		</g>
	</g>
	<g id="_x36__1_" class="st1">
		<g>
			<path class="st2" d="M-23.3,26.5h-11c-0.3,0-0.6,0.1-0.8,0.2c-0.7,0.3-1.2,1-1.2,1.8v22c0,1.1,0.9,2,2,2h11c0.7,0,1.4-0.4,1.7-1
				c0.2-0.3,0.3-0.6,0.3-1v-22C-21.3,27.4-22.2,26.5-23.3,26.5z M-28.8,51.5c-0.5,0-1-0.5-1-1s0.5-1,1-1c0.6,0,1,0.5,1,1
				S-28.3,51.5-28.8,51.5z M-22.8,47.5c0,0.2,0,0.3-0.1,0.5c-0.1,0.2-0.2,0.3-0.4,0.4c-0.1,0.1-0.3,0.1-0.5,0.1h-10
				c-0.2,0-0.3,0-0.5-0.1c-0.3-0.2-0.5-0.5-0.5-0.9v-17c0-0.4,0.2-0.7,0.5-0.9c0.2-0.1,0.3-0.1,0.5-0.1h10c0.2,0,0.4,0,0.5,0.1
				c0.3,0.2,0.5,0.5,0.5,0.9V47.5z"/>
		</g>
	</g>
</g>
<g id="x" class="st0">
	<g class="st1">
		<path class="st2" d="M-16.7,24.5h-12c-1.1,0-2,0.9-2,2v23c0,1.1,0.9,2,2,2h12c1.1,0,2-0.9,2-2v-23C-14.7,25.4-15.6,24.5-16.7,24.5
			z M-15.7,49.5c0,0.6-0.5,1-1,1h-12c-0.6,0-1-0.4-1-1v-23c0-0.5,0.4-1,1-1h1.4v0.3c0,0.3,0.1,0.5,0.3,0.7c0.2,0.2,0.4,0.3,0.7,0.3
			h7.2c0.3,0,0.5-0.1,0.7-0.3c0.2-0.2,0.3-0.4,0.3-0.7v-0.3h1.4c0.5,0,1,0.5,1,1V49.5z"/>
	</g>
</g>
<g id="all" class="st0">
	<g id="_x35_s_1_" class="st1">
		<g>
			<path class="st2" d="M-26.7,50.5v-3h-6.5c-0.2,0-0.4,0-0.5-0.1c-0.3-0.2-0.5-0.5-0.5-0.9v-15c0-0.4,0.2-0.7,0.5-0.9
				c0.1-0.1,0.3-0.1,0.5-0.1h6.5v-3h-7c-1.1,0-2,0.9-2,2v20c0,1.1,0.9,2,2,2h8C-26.3,51.5-26.7,51.1-26.7,50.5z M-28.7,50.5
				c-0.6,0-1-0.5-1-1c0-0.6,0.4-1,1-1c0.5,0,1,0.4,1,1C-27.7,50.1-28.2,50.5-28.7,50.5z"/>
		</g>
	</g>
	<g id="x_2_" class="st1">
		<g>
			<path class="st2" d="M-11.7,24.5h-12c-1.1,0-2,0.9-2,2v23c0,0.4,0.1,0.7,0.3,1c0.3,0.6,1,1,1.7,1h12c1.1,0,2-0.9,2-2v-23
				C-9.7,25.4-10.6,24.5-11.7,24.5z M-10.7,49.5c0,0.5-0.5,1-1,1h-12c-0.6,0-1-0.5-1-1v-23c0-0.6,0.4-1,1-1h1.4v0.3
				c0,0.3,0.1,0.5,0.3,0.7c0.2,0.2,0.4,0.3,0.7,0.3h7.2c0.3,0,0.5-0.1,0.7-0.3c0.2-0.2,0.3-0.4,0.3-0.7v-0.3h1.4c0.5,0,1,0.4,1,1
				V49.5z"/>
		</g>
	</g>
</g>
<g id="x_1_" class="st0">
	<g class="st1">
		<path class="st3" d="M-16.7,25h-12c-1.1,0-2,0.9-2,2v23c0,1.1,0.9,2,2,2h12c1.1,0,2-0.9,2-2V27C-14.7,25.9-15.6,25-16.7,25z
			 M-15.7,50c0,0.5-0.5,1-1,1h-12c-0.6,0-1-0.5-1-1V27c0-0.6,0.4-1,1-1h1.4v0.3c0,0.3,0.1,0.5,0.3,0.7c0.2,0.2,0.4,0.3,0.7,0.3h7.2
			c0.3,0,0.5-0.1,0.7-0.3c0.2-0.2,0.3-0.4,0.3-0.7V26h1.4c0.5,0,1,0.4,1,1V50z"/>
	</g>
</g>
<circle class="st0" cx="2.5" cy="149" r="10"/>
<polyline class="st4" points="-1.2,90 1.8,92.4 6.8,84.7 "/>
<g id="x_3_" class="st0">
	<path class="st5" d="M66.4,153.5H46.8c-0.6,0-1-0.4-1-1v-36.6c0-0.6,0.4-1,1-1h19.6c0.6,0,1,0.4,1,1v36.6
		C67.4,153,66.9,153.5,66.4,153.5z"/>
	<path class="st6" d="M62.7,117.8H50.5c-0.6,0-1-0.4-1-1v-2.5h14.2v2.5C63.7,117.3,63.3,117.8,62.7,117.8z"/>
</g>
<g id="icon1" class="st0">
	<g class="st1">
		<g>
			<g>
				<g>
					<path class="st2" d="M5.4,20.9L5.4,20.9C5.4,20.9,5.4,20.9,5.4,20.9c0-0.1-0.1-0.2-0.1-0.2c0,0,0,0,0-0.1c0,0-0.1-0.1-0.1-0.1
						c-0.1,0-0.1-0.1-0.2-0.1c-0.1,0-0.1,0-0.2-0.1c0,0,0,0-0.1,0h0l-20.7-2c-0.2,0-0.3,0-0.5,0.1l-4.1,2.8l0,0
						c-0.1,0.1-0.2,0.2-0.3,0.4c0,0,0,0.1,0,0.1c0,0,0,0.1,0,0.2v33.9c0,0.4,0.3,0.7,0.7,0.7l20.6,2c0.1,0,0.1,0,0.2,0
						c0.1,0,0.1,0,0.2,0c0.1,0,0.1-0.1,0.2-0.1l4.1-2.8c0.2-0.1,0.3-0.4,0.3-0.6V21.1C5.5,21,5.4,21,5.4,20.9z M-15.8,19.8l18.4,1.8
						l-2.2,1.5L-18,21.4L-15.8,19.8z M-0.1,57l-19.3-1.9V22.7l19.3,1.8V57z M4,54.6l-2.6,1.8v-32L4,22.5V54.6z"/>
					<path class="st2" d="M5.4,20.9C5.4,20.9,5.4,20.9,5.4,20.9S5.4,20.9,5.4,20.9C5.4,20.8,5.4,20.9,5.4,20.9z"/>
				</g>
			</g>
		</g>
		<g id="_x36__3_">
			<g>
				<path class="st2" d="M-4.3,27.7l-11.1-1c-1.1,0-2,0.9-2,2v22c0,1.1,0.9,2,1.9,2h0l11,1h0.1c1.1,0,2-0.9,2-2v-22
					C-2.3,28.6-3.2,27.7-4.3,27.7z M-9.5,52.2L-9.5,52.2c-0.2,0.1-0.4,0.2-0.6,0.2c-0.3,0-0.5-0.1-0.7-0.3c-0.2-0.2-0.3-0.4-0.3-0.7
					c0-0.1,0-0.2,0.1-0.3c0.1-0.4,0.5-0.7,0.9-0.7c0.5,0,0.9,0.4,1,0.8c0,0,0,0.1,0,0.2C-9.1,51.8-9.2,52.1-9.5,52.2z M-3.8,48.7
					c0,0.4-0.2,0.7-0.5,0.9c-0.2,0.1-0.3,0.1-0.5,0.1l-10-1c-0.2,0-0.4,0-0.5-0.1c-0.3-0.2-0.5-0.5-0.5-0.9v-17
					c0-0.3,0.2-0.6,0.4-0.8c0.2-0.1,0.4-0.2,0.6-0.2l10,1c0.2,0,0.3,0,0.5,0.1c0.3,0.2,0.5,0.5,0.5,0.9V48.7z"/>
			</g>
		</g>
	</g>
	<g class="st1">
		<g>
			<g>
				<path class="st2" d="M-50.8,20.8C-50.9,20.9-50.9,20.9-50.8,20.8C-50.9,20.9-50.9,20.9-50.8,20.8
					C-50.9,20.9-50.9,20.8-50.8,20.8z"/>
			</g>
			<g>
				<path class="st2" d="M-46.8,56.4l-2.6-1.8V22.5l2.6,1.8V56.4z M-24.6,21.8C-24.6,21.7-24.6,21.7-24.6,21.8
					c-0.1-0.2-0.2-0.4-0.3-0.5l0,0l-4.1-2.8c-0.2-0.1-0.3-0.1-0.5-0.1l-20.7,2h0c0,0,0,0-0.1,0c-0.1,0-0.2,0-0.2,0.1
					c-0.1,0-0.1,0.1-0.2,0.1c-0.1,0-0.1,0.1-0.1,0.1c0,0,0,0,0,0.1c0,0,0,0.1,0,0.1c0,0,0,0,0,0.1v0c0,0,0,0.1,0,0.1v33.9
					c0,0.3,0.1,0.5,0.3,0.6l4.1,2.8c0,0,0,0,0.1,0c0,0,0.1,0.1,0.1,0.1c0.1,0,0.1,0,0.2,0c0.1,0,0.1,0,0.2,0l20.6-2
					c0.4,0,0.7-0.4,0.7-0.7V21.9C-24.5,21.9-24.5,21.8-24.6,21.8z M-48,21.6l18.4-1.8l2.2,1.5l-18.4,1.8L-48,21.6z M-26,55.1
					L-45.3,57V24.6l19.3-1.8V55.1z"/>
			</g>
		</g>
	</g>
	<g id="x_4_" class="st1">
		<g>
			<path class="st2" d="M-29.8,24.7L-29.8,24.7l-11.9,1.1c-1.1,0-2,0.9-2,2v25c0,1.1,0.9,2,2.1,2h0l12-1.1c1.1,0,2-0.9,2-2v-25
				C-27.7,25.6-28.6,24.7-29.8,24.7z M-28.7,51.7c0,0.5-0.5,1-1,1l-12,1.1c-0.6,0-1-0.5-1-1v-25c0-0.6,0.4-1,1-1l1.4-0.1v0.5
				c0,0.2,0,0.3,0.1,0.5c0.2,0.3,0.5,0.5,0.9,0.5l7.2-0.8c0.4,0,0.8-0.3,0.9-0.6c0-0.1,0.1-0.3,0.1-0.4v-0.6l1.4-0.1
				c0.5,0,1,0.5,1,1V51.7z"/>
		</g>
	</g>
	<g class="st1">
		<g class="st7">
			
				<image style="overflow:visible;" width="92" height="92" xlink:href="18BB819E.png"  transform="matrix(1 0 0 1 -43.5938 -28.458)">
			</image>
		</g>
		<circle class="st8" cx="2.4" cy="17.5" r="10"/>
		<polyline class="st9" points="-1.1,19 1.9,21.4 6.9,13.7 		"/>
	</g>
</g>
<g id="icon2" class="st0">
	<g class="st1">
		<path class="st2" d="M-16.1,51.4l-0.3-0.2c-0.2-0.1-18-9.2-17.6-36.4l0-0.7l0.7-0.1c0.1,0,7.8-0.9,16.8-6.2l0.4-0.2l0.4,0.2
			c9,5.4,16.8,6.2,16.9,6.2l0.7,0.1l0,0.7C2.2,42-15.6,51.2-15.8,51.3L-16.1,51.4z M-32.5,15.5c-0.1,23.7,14,32.9,16.4,34.2
			c2.4-1.4,16.5-10.5,16.4-34.2c-2.1-0.3-8.7-1.6-16.4-6.1C-23.8,13.9-30.5,15.2-32.5,15.5z"/>
	</g>
	<g class="st1">
		<path class="st2" d="M-5.7,19.6c0.2,16.5-10.5,22.8-10.5,22.8s-10.7-6.3-10.4-22.8c0,0,4.8-0.5,10.4-3.9
			C-10.5,19.1-5.7,19.6-5.7,19.6z"/>
	</g>
	<g class="st1">
		<g class="st7">
			
				<image style="overflow:visible;" width="92" height="92" xlink:href="18BB81A2.png"  transform="matrix(1 0 0 1 -43.5938 -34.458)">
			</image>
		</g>
		<circle class="st8" cx="2.4" cy="11.5" r="10"/>
		<text transform="matrix(1 0 0 1 -1.9385 15.4118)" class="st10 st11 st12">3</text>
	</g>
</g>
<g id="icon3" class="st0">
	<g class="st1">
		<g>
			<path class="st2" d="M24.8,9.5c0,0-0.1-0.1-0.1-0.1c-0.2-0.2-0.8-0.8-4.6-0.4c-0.3,0-0.6,0.3-0.7,0.6c-0.1,0.1-0.2,0.3-0.5,0.4
				c-1.1,0.2-10.5,0.3-12.1-0.2C6.8,9.7,6.6,9.5,6.5,9.4c-0.8-0.6-2-0.5-2.3-0.5C4,8.9,3.8,9,3.7,9.2c0,0-0.1,0.1-0.2,0.3
				c-0.3,0.4-0.5,0.6-0.7,0.8c0-0.1,0-0.2,0-0.3c0-0.1,0-0.3,0.1-0.4c0.4-1.3-2.2-3.4-2.7-3.8c-0.8-0.5-1.4-0.7-1.9-0.6
				c-0.6,0.1-3.2-0.8-5.3-1.7c-0.1,0-0.2-0.1-0.3-0.1h-30c-0.4,0-0.7,0.3-0.8,0.7c0,0-0.1,0.7-0.2,1.3l0,0.1c0,0.3-0.1,0.4-0.1,0.4
				c-0.2,0.3-1,1.5-1,2.8v11.2c0,0.8,0.4,1.3,0.8,1.6c0.1,0.1,0.2,0.2,0.3,0.3c0.6,0.5,0.8,0.7,0.7,1.2c0,0,0,0.1,0,0.1
				c-0.1,1.6,1.5,3.2,2.6,4.1c0.3,0.2,0.5,0.4,0.6,0.6c0.2,0.2,0.5,0.6,0.7,0.9l0.4,0.5c1,1.3,1.6,1.9,2.3,1.7
				c0.1,0,0.2-0.1,0.3-0.1c0.8-0.2,1.1-0.2,1.4,0.1c0.9,1.1,4.2,1.8,5.3,1.9h0.8c0,0,0.1,0,0.2,0c0.7-0.1,2.6-0.4,3.6,0
				c0.2,0.1,0.4,0.2,0.4,0.3c0.1,0.5,0.3,1,0.7,1.5c0.6,1.1,1.5,1.8,1.5,1.9c0.2,0.2,0.4,0.2,0.6,0.2c0.2,0,0.4-0.2,0.5-0.4
				c0,0,0.5-0.8,0.7-1.4c0.4,0.2,0.8,0.9,1.2,2.1c0.1,0.3,0.2,0.7,0.4,1c0.4,0.9,1.1,1.7,2,2.4c0.9,0.7,1.7,1,1.7,1
				c0.2,0.1,0.5,0.1,0.7-0.1s0.3-0.4,0.3-0.6c0,0,0-0.4,0-0.9c0-0.6,0-1.4,0.1-2.1c0-0.2,0-0.4,0-0.6c0.1-0.6,2.5-1.6,3.4-1.8
				c0.2,0,1.1,0.4,1.7,0.6c2,0.8,2.8,1,3.3,0.6c0.2-0.2,0.4-0.4,0.4-0.7c0-0.2,0.8-0.8,1.2-1l0.3-0.2c0.1,0,0.2,0.1,0.3,0.2
				c0.2,0.2,0.5,0.5,0.7,0.7c0.4,0.4,0.7,0.8,1.1,0.8c0.1,0.4,0.3,0.8,0.4,1.3c0.2,0.6,0.3,1.2,0.4,1.7c0.1,0.5,0.1,0.8,0,1
				c0,0.4,0.1,0.8,0.4,1.4c0.3,0.6,1,1,2,1.1c0,0,0.3,0,0.7,0c0.6,0,1.4-0.1,1.7-0.4c0.3-0.3,0.5-1.1,0.5-2.4c0-0.5,0.1-1.5-0.1-2.3
				c-0.1-0.6-0.3-1.1-0.6-1.4c-0.1-0.1-0.4-0.8-0.6-2.1c-0.1-0.7-0.1-1.4,0-2c0.1-0.5,0.1-0.6,0.1-0.6c0.4-0.3,1.5-1.3,2.7-2.4
				c0.9-0.8,1.7-1.6,2.2-2.2c1.1-1.2,1.5-1.9,1.3-2.5c-0.1-0.3-0.3-0.5-0.6-0.7c-0.2-0.1-0.3-0.1-0.2-0.8c0-0.2,0.1-0.5,0.1-0.8
				c0.1-0.4,0.1-0.8,0.2-1.3c0-0.1,0-0.1,0-0.2c1,0,1.6-0.5,1.9-1.9c0.1-0.3,0.2-0.6,0.5-0.9c0.7-0.6,1.8-0.9,2.5-1.1
				c0.7-0.2,1.2-0.3,1.3-0.9c0.1-0.3-0.1-0.6-0.3-0.8c0,0,0,0-0.1-0.1c-0.1-0.4,0-1.1,0.4-1.4c0.1-0.1,0.3-0.3,0.5-0.4
				c0.3-0.2,0.7-0.5,1.1-0.8C24.3,11.5,25.4,10.4,24.8,9.5z M21.9,11.5c-0.4,0.3-0.7,0.6-1,0.8c-0.2,0.2-0.4,0.3-0.6,0.5
				c-0.9,0.7-1.1,2.1-0.9,3c-0.9,0.2-2.1,0.6-3,1.4c-0.5,0.5-0.8,1.1-1,1.7c-0.1,0.6-0.2,0.7-0.2,0.7H15c-0.6,0-1.4,0.1-1.6,1.6
				c0,0.4-0.1,0.8-0.2,1.2c-0.1,0.3-0.1,0.6-0.1,0.9c0,0.5-0.1,1.4,0.7,2c-0.1,0.2-0.4,0.5-0.8,1c-0.5,0.6-1.2,1.3-2.1,2.1
				c-1.2,1.1-2.3,2-2.7,2.3c-0.4,0.3-0.6,0.8-0.7,1.6c-0.1,0.6-0.1,1.5,0,2.3c0.1,0.8,0.4,2.3,1,2.9c0,0,0.1,0.1,0.2,0.6
				c0.1,0.5,0.1,1.2,0.1,2c0,0.7-0.1,1.2-0.2,1.4c-0.6,0.1-1.7,0-1.9-0.3c-0.2-0.4-0.2-0.5-0.2-0.5c0-0.4,0-0.8,0-1.4
				c-0.1-0.5-0.2-1.2-0.4-1.8c-0.7-2.7-1.3-2.6-1.6-2.6c0,0-0.1,0-0.1,0c0,0,0,0-0.1-0.1C4,34.6,3.7,34.2,3.4,34
				c-1-0.9-1.7-0.6-2.1-0.4l-0.4,0.3c-0.6,0.4-1.3,0.9-1.6,1.5c-0.5-0.1-1.3-0.4-1.8-0.6c-1.5-0.6-2-0.7-2.4-0.7
				c0,0-4.6,1.1-4.7,3.2c0,0.2,0,0.4,0,0.6c0,0.6,0,1.3,0,1.9c-0.1-0.1-0.3-0.2-0.4-0.3c-0.7-0.6-1.3-1.2-1.6-1.9
				c-0.1-0.2-0.2-0.5-0.3-0.7c-0.4-1.5-1.1-2.6-1.9-3.1c-0.6-0.4-1.3-0.3-1.8,0.1c-0.1,0.1-0.2,0.2-0.2,0.3
				c-0.1,0.2-0.2,0.4-0.3,0.6c-0.2-0.2-0.4-0.5-0.6-0.8c-0.3-0.4-0.4-0.8-0.5-1.1c-0.1-0.4-0.4-1-1.3-1.3c-1.3-0.5-3.4-0.2-4.3,0
				h-0.6c-1.5-0.2-3.9-0.9-4.2-1.4c-0.9-1.1-2.2-0.8-2.9-0.7c0,0-0.1,0-0.1,0c-0.1-0.1-0.4-0.4-1-1.2l-0.4-0.5
				c-0.3-0.4-0.6-0.8-0.8-1c-0.2-0.2-0.4-0.4-0.8-0.7c-0.7-0.7-2.1-1.9-2-2.9c0.2-1.3-0.7-2-1.3-2.5c-0.1-0.1-0.2-0.1-0.3-0.2l0,0
				c-0.3-0.3-0.3-0.4-0.3-0.5V9c0-1,0.7-2,0.7-2c0,0,0-0.1,0-0.1c0.1-0.2,0.2-0.4,0.2-0.8l0-0.2c0-0.2,0.1-0.5,0.1-0.7h2.1l0.2-0.5
				c0-0.2,0.3-0.2,0.3,0l0.2,0.5h4.9l0.2-0.5c0.1-0.2,0.3-0.2,0.3,0l0.2,0.5h4.9l0.2-0.5c0.1-0.2,0.3-0.2,0.3,0l0.2,0.5h4.8l0.2-0.5
				c0.1-0.2,0.3-0.2,0.3,0l0.2,0.5h9.8C-5.1,6-2.3,7-1.3,6.8c0.1,0,0.3,0.1,0.6,0.3c1,0.7,1.9,1.8,2.1,2.2c0,0.2-0.1,0.4-0.1,0.5
				c-0.1,0.5,0,1.4,0.5,1.9C2.1,12,2.5,12,2.9,11.9c0.2-0.1,0.8-0.3,1.8-1.5c0,0,0,0,0,0c0.3,0,0.7,0,0.8,0.2
				c0.6,1.9,13.7,1,13.8,0.9c0.7-0.2,1.1-0.7,1.3-1c0.9-0.1,1.9-0.1,2.5,0C22.9,10.7,22.5,11,21.9,11.5z"/>
		</g>
		<g>
			<g>
				<line class="st13" x1="-12.5" y1="37" x2="-9" y2="37"/>
				<line class="st13" x1="5.4" y1="37" x2="9.1" y2="37"/>
				<line class="st13" x1="-31" y1="30.1" x2="9.9" y2="30.1"/>
				<line class="st13" x1="-36" y1="23.2" x2="13.4" y2="23.2"/>
				<line class="st13" x1="-14" y1="16.3" x2="19.4" y2="16.3"/>
				<line class="st13" x1="-14" y1="9.4" x2="1.4" y2="9.4"/>
			</g>
		</g>
		<g>
			<path class="st2" d="M-37.2,4.3l-1.5,4.5l0.3,11.8H-14c0.8,0,1.5-0.7,1.5-1.5V4.3H-37.2z M-32.1,17.2l-1.1,0.8l0.4,1.3
				c0,0.2-0.1,0.3-0.3,0.2l-1.1-0.8l-1.1,0.8c-0.1,0.1-0.3,0-0.3-0.2L-35,18l-1-0.8c-0.1-0.1-0.1-0.3,0.1-0.3l1.3,0l0.1-0.3l0.3-1
				c0-0.2,0.3-0.2,0.3,0l0.3,1l0.1,0.3l1.3,0C-32,16.9-31.9,17.1-32.1,17.2z M-32.1,11.7l-1.1,0.8l0.4,1.3c0,0.2-0.1,0.3-0.3,0.2
				l-1.1-0.8l-1.1,0.8c-0.1,0.1-0.3,0-0.3-0.2l0.4-1.3l-1-0.8c-0.1-0.1-0.1-0.3,0.1-0.3l1.3,0l0.1-0.3l0.3-0.9c0-0.2,0.3-0.2,0.3,0
				l0.3,0.9l0.1,0.3l1.3,0C-32,11.4-31.9,11.6-32.1,11.7z M-32.1,6.2l-1.1,0.8l0.4,1.3c0,0.2-0.1,0.3-0.3,0.2l-1.1-0.8l-1.1,0.8
				c-0.1,0.1-0.3,0-0.3-0.2l0.4-1.3l-1-0.8c-0.1-0.1-0.1-0.3,0.1-0.3l1.3,0l0.1-0.3l0.2-0.5l0.2-0.5c0-0.2,0.3-0.2,0.3,0l0.2,0.5
				l0.1,0.5l0.1,0.3l1.3,0C-32,5.9-31.9,6.1-32.1,6.2z M-26.5,17.2l-1.1,0.8l0.4,1.3c0.1,0.2-0.1,0.3-0.3,0.2l-1.1-0.8l-1.1,0.8
				c-0.1,0.1-0.3,0-0.3-0.2l0.4-1.3l-1.1-0.8c-0.1-0.1-0.1-0.3,0.1-0.3l1.3,0l0.1-0.3l0.3-1c0.1-0.2,0.3-0.2,0.3,0l0.3,1l0.1,0.3
				l1.3,0C-26.5,16.9-26.4,17.1-26.5,17.2z M-26.5,11.7l-1.1,0.8l0.4,1.3c0.1,0.2-0.1,0.3-0.3,0.2l-1.1-0.8l-1.1,0.8
				c-0.1,0.1-0.3,0-0.3-0.2l0.4-1.3l-1.1-0.8c-0.1-0.1-0.1-0.3,0.1-0.3l1.3,0l0.1-0.3l0.3-0.9c0.1-0.2,0.3-0.2,0.3,0l0.3,0.9
				l0.1,0.3l1.3,0C-26.5,11.4-26.4,11.6-26.5,11.7z M-26.5,6.2l-1.1,0.8l0.4,1.3c0.1,0.2-0.1,0.3-0.3,0.2l-1.1-0.8l-1.1,0.8
				c-0.1,0.1-0.3,0-0.3-0.2l0.4-1.3l-1.1-0.8c-0.1-0.1-0.1-0.3,0.1-0.3l1.3,0l0.1-0.3l0.2-0.5l0.2-0.5c0.1-0.2,0.3-0.2,0.3,0
				l0.2,0.5l0.2,0.5l0.1,0.3l1.3,0C-26.5,5.9-26.4,6.1-26.5,6.2z M-21,17.2l-1,0.8l0.4,1.3c0,0.2-0.1,0.3-0.3,0.2l-1.1-0.8l-1.1,0.8
				c-0.1,0.1-0.3,0-0.3-0.2L-24,18l-1.1-0.8c-0.1-0.1-0.1-0.3,0.1-0.3l1.3,0l0.1-0.3l0.3-1c0.1-0.2,0.3-0.2,0.3,0l0.3,1l0.1,0.3
				l1.3,0C-21,16.9-20.9,17.1-21,17.2z M-21,11.7l-1,0.8l0.4,1.3c0,0.2-0.1,0.3-0.3,0.2l-1.1-0.8l-1.1,0.8c-0.1,0.1-0.3,0-0.3-0.2
				l0.4-1.3l-1.1-0.8c-0.1-0.1-0.1-0.3,0.1-0.3l1.3,0l0.1-0.3l0.3-0.9c0.1-0.2,0.3-0.2,0.3,0l0.3,0.9l0.1,0.3l1.3,0
				C-21,11.4-20.9,11.6-21,11.7z M-21,6.2l-1,0.8l0.4,1.3c0,0.2-0.1,0.3-0.3,0.2L-23,7.6l-1.1,0.8c-0.1,0.1-0.3,0-0.3-0.2l0.4-1.3
				L-25,6.2c-0.1-0.1-0.1-0.3,0.1-0.3l1.3,0l0.1-0.3l0.2-0.5l0.2-0.5c0.1-0.2,0.3-0.2,0.3,0l0.2,0.5l0.1,0.5l0.1,0.3l1.3,0
				C-21,5.9-20.9,6.1-21,6.2z M-15.5,17.2l-1.1,0.8l0.4,1.3c0.1,0.2-0.1,0.3-0.3,0.2l-1.1-0.8l-1.1,0.8c-0.1,0.1-0.3,0-0.3-0.2
				l0.4-1.3l-1.1-0.8c-0.1-0.1-0.1-0.3,0.1-0.3l1.3,0l0.1-0.3l0.3-1c0.1-0.2,0.3-0.2,0.3,0l0.3,1l0.1,0.3l1.3,0
				C-15.4,16.9-15.4,17.1-15.5,17.2z M-15.5,11.7l-1.1,0.8l0.4,1.3c0.1,0.2-0.1,0.3-0.3,0.2l-1.1-0.8l-1.1,0.8
				c-0.1,0.1-0.3,0-0.3-0.2l0.4-1.3l-1.1-0.8c-0.1-0.1-0.1-0.3,0.1-0.3l1.3,0l0.1-0.3l0.3-0.9c0.1-0.2,0.3-0.2,0.3,0l0.3,0.9
				l0.1,0.3l1.3,0C-15.4,11.4-15.4,11.6-15.5,11.7z M-17,5.5l0.1,0.3l1.3,0c0.2,0,0.2,0.2,0.1,0.3l-1.1,0.8l0.4,1.3
				c0.1,0.2-0.1,0.3-0.3,0.2l-1.1-0.8l-1.1,0.8c-0.1,0.1-0.3,0-0.3-0.2l0.4-1.3l-1.1-0.8c-0.1-0.1-0.1-0.3,0.1-0.3l1.3,0l0.1-0.3
				l0.1-0.5l0.2-0.5c0.1-0.2,0.3-0.2,0.3,0l0.2,0.5L-17,5.5z"/>
		</g>
	</g>
	<g class="st1">
		<g class="st7">
			
				<image style="overflow:visible;" width="92" height="92" xlink:href="18BB81A5.png"  transform="matrix(1 0 0 1 -27.5938 -42.458)">
			</image>
		</g>
		<circle class="st8" cx="18.4" cy="3.5" r="10"/>
		<path class="st14" d="M23,2.1l-3.2,0l-0.2-0.7l-0.8-2.3c-0.1-0.4-0.7-0.4-0.8,0l-0.8,2.3L17,2.1l-3.2,0c-0.4,0-0.6,0.5-0.3,0.8
			l2.5,1.9l-1,3c-0.1,0.4,0.3,0.7,0.7,0.5l2.6-1.8L21,8.2c0.3,0.2,0.8-0.1,0.7-0.5l-1-3l2.5-1.9C23.6,2.6,23.4,2.1,23,2.1z"/>
	</g>
</g>
<g id="icon4" class="st0">
	<g id="_x34_" class="st1">
		<g>
			<g id="head">
				<g>
					<path class="st2" d="M7,3.6c-0.3,0-0.7-0.3-1-0.6C5.6,2.7,5.4,2.2,5.2,1.7C5.1,1.5,5,1.3,5,1.1L4.9,1c0-0.1-0.1-0.2-0.1-0.4
						c0-0.1,0-0.2-0.1-0.3C4.7-0.2,4.4-0.7,4-1C3.6-1.3,3.2-1.4,2.8-1.4c-0.5,0-0.9,0.2-1.3,0.3C1.4-1,1.3-0.9,1.1-0.9
						C0.7-0.8,0.3-0.7-0.1-0.6c-0.8,0.1-1.6,0.2-2.4,0.2c-0.9,0-1.7-0.1-2.5-0.2c-0.4-0.1-0.8-0.2-1.2-0.3c-0.1,0-0.3-0.1-0.4-0.2
						C-7.2-1.3-8.1-1.7-9-1c-0.4,0.3-0.7,0.7-0.8,1.2c0,0.1,0,0.3-0.1,0.4c0,0.2,0,0.3-0.1,0.3C-10,1.1-10,1.2-10.1,1.4
						c0,0.1-0.1,0.2-0.1,0.4c-0.2,0.5-0.4,1-0.7,1.3c-0.3,0.3-0.8,0.6-1,0.6c-0.1-0.3-0.3-1-0.2-2.3c0-0.4,1-8.6,9.7-8.6
						s9.6,8.3,9.7,8.6C7.3,2.5,7.1,3.3,7,3.6z"/>
				</g>
			</g>
			<g>
				<path class="st2" d="M14.5,34.5l-2.1-10.4c0-0.1-0.8-2.5-3.4-3.3l-5.5-1.7L1.9,18v-1.1c2.8-1.6,4.8-4.6,4.8-8.1
					c0.1,0,0.2,0,0.3,0c1.7,0,3.1-1.4,3.1-3.1c0-1-0.5-2-1.3-2.5c0.1-0.5,0.1-1.3,0-2.2C8.8,1,7.7-9-2.5-9S-13.8,1-13.8,1.1
					c-0.1,0.9-0.1,1.6,0,2.2c-0.8,0.6-1.3,1.5-1.3,2.5c0,1.7,1.4,3.1,3.1,3.1c0.1,0,0.2,0,0.3,0c0,3.5,2,6.5,4.8,8.1V18l-1.6,1.1
					l-5.5,1.7c-2.6,0.8-3.4,3.2-3.5,3.4l-2.1,10.3c-0.2,1,0.1,1.7,0.4,2.2c0.9,1.1,2.5,1.3,2.7,1.3h4.2l19.3,0h4.4
					c0.2,0,1.8-0.2,2.7-1.3C14.4,36.2,14.7,35.5,14.5,34.5z M2.2,20.2l-1.3,3.4L-1.2,23l2.5-3.4h0L2.2,20.2z M-2.5,22l-2.8-3.8v-0.6
					c0.9,0.3,1.8,0.4,2.8,0.4s1.9-0.2,2.8-0.4v0.6L-2.5,22z M8.1,4.8c0.2,0.3,0.3,0.6,0.3,0.9c0,0.8-0.6,1.4-1.4,1.4
					c-0.1,0-0.2,0-0.3,0v-2c0.1,0,0.2,0,0.3,0C7.3,5.2,7.7,5.1,8.1,4.8L8.1,4.8z M-11.8,7.2c-0.1,0-0.2,0-0.3,0
					c-0.8,0-1.4-0.6-1.4-1.4c0-0.3,0.1-0.7,0.3-0.9l0.1,0.1c0.4,0.3,0.9,0.4,1.3,0.3V7.2z M-11,3c-0.3,0.3-0.8,0.6-1,0.6
					c-0.1-0.3-0.3-1-0.2-2.3c0-0.4,1-8.6,9.7-8.6s9.6,8.3,9.7,8.6c0.1,1.3-0.1,2-0.2,2.3c-0.3,0-0.7-0.3-1-0.6
					C5.6,2.7,5.4,2.2,5.2,1.7C5.1,1.5,5,1.3,5,1.1L4.9,1c0-0.1-0.1-0.2-0.1-0.4c0-0.1,0-0.2-0.1-0.3C4.7-0.2,4.4-0.7,4-1
					C3.6-1.3,3.2-1.4,2.8-1.4c-0.5,0-0.9,0.2-1.3,0.3C1.4-1,1.3-0.9,1.1-0.9C0.7-0.8,0.3-0.7-0.1-0.6c-0.8,0.1-1.6,0.2-2.4,0.2
					c-0.9,0-1.7-0.1-2.5-0.2c-0.4-0.1-0.8-0.2-1.2-0.3c-0.1,0-0.3-0.1-0.4-0.2C-7.2-1.3-8.1-1.7-9-1c-0.4,0.3-0.7,0.7-0.8,1.2
					c0,0.1,0,0.3-0.1,0.4c0,0.2,0,0.3-0.1,0.3C-10,1.1-10,1.2-10.1,1.4c0,0.1-0.1,0.2-0.1,0.4C-10.5,2.2-10.7,2.7-11,3z M-10.1,8.7
					V4.4c0.2-0.1,0.3-0.2,0.3-0.3C-9.3,3.6-9,3-8.7,2.4c0.1-0.1,0.1-0.3,0.2-0.4c0-0.1,0.1-0.2,0.2-0.4C-8.3,1.3-8.3,1-8.2,0.8
					c0-0.1,0-0.2,0-0.3c0-0.1,0.1-0.1,0.1-0.2c0.2-0.1,0.3-0.1,0.8,0.1c0.2,0.1,0.4,0.1,0.6,0.2C-6.3,0.8-5.8,1-5.3,1
					c0.9,0.1,1.8,0.2,2.8,0.2C-1.6,1.2-0.7,1.2,0.2,1C0.6,1,1.1,0.9,1.6,0.7C1.8,0.6,2,0.5,2.2,0.5C2.8,0.2,2.8,0.2,3,0.4
					c0.1,0,0.1,0.1,0.1,0.2c0,0.1,0,0.2,0,0.2c0,0.2,0.1,0.5,0.2,0.8l0.1,0.1c0.1,0.2,0.2,0.4,0.3,0.7C3.9,3,4.2,3.6,4.8,4.2
					c0,0,0.1,0.1,0.3,0.3v4.3c0,4.2-3.4,7.6-7.6,7.6C-6.7,16.4-10.1,12.9-10.1,8.7z M-6.3,19.6l2.5,3.3l-2.1,0.7l-1.3-3.4L-6.3,19.6
					z M12.8,35.6c-0.3,0.5-1.2,0.6-1.4,0.7H8V30c0-0.5-0.4-0.8-0.8-0.8c-0.5,0-0.8,0.4-0.8,0.8v6.3h-17.7V30c0-0.5-0.4-0.8-0.8-0.8
					c-0.5,0-0.8,0.4-0.8,0.8v6.3h-3.3c-0.2,0-1.1-0.2-1.5-0.7c-0.1-0.1-0.2-0.4-0.1-0.8l2-10.2c0,0,0.6-1.7,2.3-2.2l4.9-1.5l1.5,4.1
					c0.1,0.3,0.4,0.5,0.8,0.5c0.1,0,0.2,0,0.3,0l2.8-0.9v5.9c0,0.5,0.4,0.8,0.8,0.8c0.5,0,0.8-0.4,0.8-0.8v-5.9l2.8,0.9
					c0.1,0,0.2,0,0.3,0c0.3,0,0.7-0.2,0.8-0.5l1.5-4.1l4.9,1.5c0.9,0.3,1.4,0.8,1.8,1.3c0.4,0.5,0.5,0.9,0.5,0.9l2.1,10.3
					C13,35.3,12.9,35.5,12.8,35.6z"/>
				<path class="st2" d="M7.2,37.9C7.2,38,7.2,38,7.2,37.9c-0.1,0-0.1,0-0.2,0H7.2z"/>
			</g>
		</g>
		<g>
			<g>
				<circle class="st2" cx="-5.3" cy="6.4" r="1.1"/>
			</g>
			<g>
				<circle class="st2" cx="0.2" cy="6.4" r="1.1"/>
			</g>
		</g>
		<g>
			<path class="st2" d="M0.3,11.1c0,1.1-1.3,2-2.9,2s-2.9-0.9-2.9-2c0-0.3,0.2-0.6,0.6-0.6c0.3,0,0.6,0.3,0.6,0.6
				c0,0.4,0.7,0.9,1.8,0.9c1,0,1.8-0.5,1.8-0.9c0-0.3,0.2-0.6,0.6-0.6C0.1,10.6,0.3,10.8,0.3,11.1z"/>
		</g>
	</g>
	<g class="st1">
		<g class="st7">
			
				<image style="overflow:visible;" width="92" height="92" xlink:href="18BB81A6.png"  transform="matrix(1 0 0 1 -29.5938 -46.458)">
			</image>
		</g>
		<circle class="st8" cx="16.4" cy="-0.5" r="10"/>
		<g>
			<path class="st10" d="M12.9-2.3h-1.4c-0.2,0-0.3,0.2-0.3,0.3v6.1c0,0.2,0.2,0.3,0.3,0.3h1.4c0.2,0,0.3-0.2,0.3-0.3v-6.1
				C13.2-2.1,13.1-2.3,12.9-2.3z"/>
			<path class="st10" d="M18.1-2.3l0.4-1c0.2-0.7,0.1-1.7-0.6-2.1c-0.2-0.1-0.5-0.2-0.8-0.1c-0.1,0-0.3,0.1-0.3,0.3
				c-0.1,0.1-0.1,0.3-0.1,0.5c-0.1,0.4-0.3,0.8-0.6,1.1c-0.5,0.5-2.2,2-2.2,2v5.4h5.7c0.8,0,1.3-0.9,0.9-1.5
				c0.5-0.3,0.6-0.9,0.3-1.4c0.5-0.3,0.6-0.9,0.3-1.4c0.8-0.5,0.5-1.7-0.4-1.9C20.7-2.3,18.1-2.3,18.1-2.3z"/>
		</g>
	</g>
</g>
<g>
	<line class="st13" x1="2.4" y1="2.1" x2="14.4" y2="14.1"/>
	<line class="st13" x1="14.4" y1="2.1" x2="2.4" y2="14.1"/>
</g>
<g id="show_x5F_more" class="st0">
	<path class="st15" d="M11.6,7c0,0-0.5-0.5-0.7-0.7C8.6,4,4.8,4,2.5,6.3c-2.3,2.3-2.3,6.1,0,8.5c2.3,2.3,6.1,2.3,8.5,0"/>
	<polyline class="st15" points="9.4,7.5 12.1,7.5 12.1,4.8 	"/>
</g>
<g class="st0">
	<line class="st16" x1="105.4" y1="-8.5" x2="125.4" y2="-8.5"/>
	<line class="st16" x1="105.4" y1="-2.5" x2="125.4" y2="-2.5"/>
	<line class="st16" x1="105.4" y1="3.5" x2="125.4" y2="3.5"/>
</g>
<circle class="st17" cx="87.9" cy="-9" r="2"/>
<circle class="st17" cx="79.9" cy="-9" r="2"/>
<circle class="st17" cx="87.9" cy="-1" r="2"/>
<circle class="st17" cx="79.9" cy="-1" r="2"/>
<g id="skoro" class="st0">
	<path class="st6" d="M-3.2,46.4h-39c-2.2,0-4-1.8-4-4v-8c0-2.2,1.8-4,4-4h39c2.2,0,4,1.8,4,4v8C0.8,44.6-1,46.4-3.2,46.4z"/>
	<text transform="matrix(1 0 0 1 -39.0615 41.2973)" class="st22 st11 st21">Скоро</text>
</g>
<g id="skoro_x5F_v_x5F_prodaje" class="st0">
	<g class="st18">
		
			<image style="overflow:visible;" width="144" height="144" xlink:href="18BB81A4.png"  transform="matrix(1 0 0 1 -65.5938 -61.458)">
		</image>
	</g>
	<circle class="st19" cx="6.4" cy="10.6" r="35.5"/>
	<g class="st1">
		<ellipse class="st20" cx="6.4" cy="-7.9" rx="8" ry="8"/>
		<line class="st20" x1="6.4" y1="-7.9" x2="6.4" y2="-15.9"/>
		<line class="st20" x1="6.4" y1="-2.1" x2="6.4" y2="0.1"/>
		<line class="st20" x1="14.4" y1="-7.9" x2="12.2" y2="-7.9"/>
		<line class="st20" x1="0.6" y1="-7.9" x2="-1.6" y2="-7.9"/>
		<line class="st20" x1="6.4" y1="-7.9" x2="12.1" y2="-13.6"/>
		<line class="st20" x1="2.3" y1="-3.8" x2="0.8" y2="-2.3"/>
		<line class="st20" x1="12.1" y1="-2.3" x2="10.5" y2="-3.8"/>
		<line class="st20" x1="2.3" y1="-12.1" x2="0.8" y2="-13.6"/>
	</g>
	<text transform="matrix(1 0 0 1 -10.0534 14.4067)" class="st1"><tspan x="0" y="0" class="st10 st11 st21">Скоро</tspan><tspan x="-11.3" y="12" class="st10 st11 st21">в продаже</tspan></text>
</g>
<g id="map_x5F_pin" class="st0">
	<g class="st18">
		
			<image style="overflow:visible;" width="108" height="117" xlink:href="18BB81A3.png"  transform="matrix(1 0 0 1 -47.5938 -47.458)">
		</image>
	</g>
	<g class="st1">
		<g>
			<g>
				<g>
					<path class="st8" d="M23.5,5.3C23.5,18.9,8.6,31.5,8,32c-0.5,0.4-1,0.6-1.6,0.6S5.3,32.4,4.8,32C4.2,31.5-10.7,18.9-10.7,5.3
						c0-9.2,7.7-16.7,17.1-16.7S23.5-3.9,23.5,5.3z"/>
				</g>
			</g>
		</g>
	</g>
	<path class="st22" d="M6.4-1.1c0.6-1.5,2.1-2.9,4.3-2.9c0,2.7-1.9,4.4-3.8,4.5C5.9,0.8,5.9-0.1,6.4-1.1z M6.8,13.1
		c-2.5,0-4.9-1.5-6.1-3.8C-0.4,7-0.2,4.6,1.2,2.7c0.1-0.1,0.1-0.2,0.2-0.3C2,1.7,2.8,1.3,3.7,1.2c0.8-0.1,1.4,0.2,2.2,0.4
		c0.2,0.1,0.4,0.1,0.6,0.1c0.6,0.1,1.2-0.1,1.7-0.3c0.5-0.2,1.1-0.2,1.6-0.2c1,0.1,1.9,0.6,2.6,1.5c0.1,0.2,0.2,0.3,0.3,0.5
		c-0.9,0.7-1.5,1.8-1.5,3.1s0.6,2.5,1.5,3.2C11.6,11.7,9.2,13.1,6.8,13.1z"/>
</g>
<polyline id="arrow" class="st23" points="1.4,8.6 6.4,12.6 11.4,8.6 "/>
<g id="fire_x5F_label" class="st0">
	<g class="st18">
		
			<image style="overflow:visible;" width="103" height="103" xlink:href="18BB81AD.png"  transform="matrix(1 0 0 1 -44.5938 -40.458)">
		</image>
	</g>
	<circle class="st24" cx="6.4" cy="10.6" r="15"/>
	<g id="surface1" class="st1">
		<path class="st10" d="M3.5,19.6c-2-6.6,2.2-9,2.2-9c-0.3,3.5,1.7,6.3,1.7,6.3c0.7-0.2,2.1-1.3,2.1-1.3c0,1.3-0.7,4-0.7,4
			s2.6-2,3.4-5.3c0.8-3.3-1.6-6.7-1.6-6.7c0.1,2.4-0.7,4.7-2.2,6.4c0.1-0.1,0.1-0.2,0.2-0.3c0.3-0.6,0.7-2,0.5-5.4
			C8.8,3.6,4.5,1.6,4.5,1.6c0.4,2.9-0.7,3.6-3.3,9C-1.5,16.1,3.5,19.6,3.5,19.6z"/>
	</g>
</g>
<g id="v_x5F_nalichii" class="st0">
	<path class="st24" d="M12.4,10.6c0,3.3-2.7,6-6,6c-3.3,0-6-2.7-6-6s2.7-6,6-6c1.6,0,3.1,0.7,4.2,1.7c0.4,0.4,0.7,0.8,0.9,1.2
		C12.1,8.4,12.4,9.5,12.4,10.6z"/>
	<g class="st1">
		<path class="st10" d="M11.6,7.5L7,13c-0.2,0.2-0.4,0.3-0.6,0.3h0c-0.2,0-0.5-0.1-0.6-0.3l-2-3C3.6,9.6,3.6,9.2,4,8.9
			c0.3-0.2,0.8-0.1,1,0.2l1.5,2.2l4.1-5C11,6.7,11.3,7.1,11.6,7.5z"/>
	</g>
</g>
<polyline id="galochka" class="st25" points="3.4,11.1 5.4,13.1 9.4,8.1 "/>
<polyline id="arrow_x5F_slide" class="st23" points="8.4,6.6 4.4,10.6 8.4,14.6 "/>
<g id="_x31_2h" class="st0">
	<circle class="st26" cx="4.4" cy="10.6" r="35"/>
	<g class="st1">
		<path class="st9" d="M-9.5,3.3c-1.3,2.3-2.1,4.4-2.1,7.3c0,8.8,7.2,16,16,16c8.8,0,16-7.2,16-16c0-8.8-7.2-16-16-16"/>
		<circle class="st9" cx="4.4" cy="10.6" r="1.5"/>
		<line class="st9" x1="4.4" y1="10.5" x2="-2.9" y2="6.2"/>
		<line class="st9" x1="4.4" y1="-1.1" x2="4.4" y2="-5.4"/>
	</g>
	<g class="st18">
		
			<image style="overflow:visible;" width="95" height="95" xlink:href="18BB81AE.png"  transform="matrix(1 0 0 1 -14.5938 -60.458)">
		</image>
	</g>
	<circle class="st24" cx="32.4" cy="-13.4" r="11"/>
	<text transform="matrix(1 0 0 1 23.8304 -10.5569)" class="st1"><tspan x="0" y="0" class="st10 st11 st21">12</tspan><tspan x="11.6" y="0" class="st10 st11" style="font-size:9px;">ч</tspan></text>
</g>
</svg>
