<?xml version="1.0" encoding="utf-8"?>
<!-- Generator: Adobe Illustrator 22.0.0, SVG Export Plug-In . SVG Version: 6.00 Build 0)  -->
<svg version="1.1" id="Layer_1" xmlns="http://www.w3.org/2000/svg" xmlns:xlink="http://www.w3.org/1999/xlink" x="0px" y="0px"
	 viewBox="0 0 43.7 44" style="enable-background:new 0 0 43.7 44;" xml:space="preserve">
<style type="text/css">
	.st0{display:none;}
	.st1{display:inline;}
	.st2{fill:#282D3A;}
	.st3{fill:#85888B;}
	.st4{display:none;fill:none;stroke:#FFFFFF;stroke-width:2;stroke-linecap:round;stroke-linejoin:round;stroke-miterlimit:10;}
	.st5{display:inline;fill:none;stroke:#282D3A;stroke-width:1.5;stroke-linejoin:round;stroke-miterlimit:10;}
	.st6{display:inline;fill:#282D3A;}
	.st7{opacity:0.66;}
	.st8{fill:#FF005F;}
	.st9{fill:none;stroke:#FFFFFF;stroke-width:2;stroke-linecap:round;stroke-linejoin:round;stroke-miterlimit:10;}
	.st10{fill:#FFFFFF;}
	.st11{font-family:'SFUIText-Bold';}
	.st12{font-size:12px;}
	.st13{fill:none;stroke:#282D3A;stroke-width:1.5;stroke-linecap:round;stroke-linejoin:round;stroke-miterlimit:10;}
	.st14{fill:#F5F5F5;}
	
		.st15{display:inline;fill:none;stroke:#282D3A;stroke-width:1.5;stroke-linecap:round;stroke-linejoin:round;stroke-miterlimit:10;}
	
		.st16{display:inline;fill:none;stroke:#000000;stroke-width:1.5;stroke-linecap:round;stroke-linejoin:round;stroke-miterlimit:10;}
	.st17{display:inline;fill:none;stroke:#282D3A;stroke-width:2;stroke-linecap:round;stroke-linejoin:round;stroke-miterlimit:10;}
	.st18{display:none;fill:#282D3A;}
	.st19{display:inline;opacity:0.66;}
	.st20{display:inline;fill:#FF005F;}
	.st21{fill:none;stroke:#FFFFFF;stroke-width:1.5;stroke-linecap:round;stroke-linejoin:round;stroke-miterlimit:10;}
	.st22{font-size:10px;}
	.st23{display:inline;fill:#FFFFFF;}
	.st24{display:none;fill:none;stroke:#0096FF;stroke-width:2;stroke-linecap:round;stroke-linejoin:round;stroke-miterlimit:10;}
	.st25{fill:#FF005E;}
</style>
<g id="_x35_s" class="st0">
	<g class="st1">
		<path class="st2" d="M-2.5,36.6h-10c-1.1,0-2,0.9-2,2v20c0,1.1,0.9,2,2,2h10c1.1,0,2-0.9,2-2v-20C-0.5,37.5-1.4,36.6-2.5,36.6z
			 M-7.5,59.6c-0.5,0-1-0.4-1-1c0-0.5,0.5-1,1-1c0.6,0,1,0.5,1,1C-6.5,59.2-6.9,59.6-7.5,59.6z M-2,55.6c0,0.4-0.2,0.7-0.5,0.9
			c-0.1,0.1-0.3,0.1-0.5,0.1h-9c-0.2,0-0.3,0-0.5-0.1c-0.3-0.2-0.5-0.5-0.5-0.9v-15c0-0.4,0.2-0.7,0.5-0.9c0.2-0.1,0.3-0.1,0.5-0.1
			h9c0.2,0,0.4,0,0.5,0.1c0.3,0.2,0.5,0.5,0.5,0.9V55.6z"/>
	</g>
</g>
<g id="_x36_" class="st0">
	<g class="st1">
		<path class="st2" d="M-1.8,35.9h-11c-1.1,0-2,0.9-2,2v22c0,1.1,0.9,2,2,2h11c1.1,0,2-0.9,2-2v-22C0.2,36.8-0.7,35.9-1.8,35.9z
			 M-7.3,60.9c-0.6,0-1-0.5-1-1c0-0.6,0.4-1,1-1c0.5,0,1,0.4,1,1C-6.3,60.4-6.7,60.9-7.3,60.9z M-1.3,56.9c0,0.4-0.2,0.7-0.5,0.9
			c-0.2,0.1-0.3,0.1-0.5,0.1h-10c-0.2,0-0.4,0-0.5-0.1c-0.3-0.2-0.5-0.5-0.5-0.9v-17c0-0.4,0.2-0.7,0.5-0.9c0.1-0.1,0.3-0.1,0.5-0.1
			h10c0.2,0,0.3,0,0.5,0.1c0.3,0.2,0.5,0.5,0.5,0.9V56.9z"/>
	</g>
</g>
<g id="plus" class="st0">
	<g id="_x36__2_" class="st1">
		<g>
			<path class="st2" d="M4.3,33.9H-8.9c-1.1,0-2,0.9-2,2v1h4c0.4,0,0.8,0.1,1.1,0.3h9.5c0.2,0,0.4,0.1,0.6,0.2
				c0.3,0.2,0.4,0.5,0.4,0.8v20.2c0,0.3-0.2,0.6-0.4,0.8c-0.2,0.1-0.4,0.2-0.6,0.2h-8.6v3.5c0,0.5-0.4,1-1,1H4.3c1.1,0,2-0.9,2-2
				v-26C6.3,34.8,5.4,33.9,4.3,33.9z M-1.1,61.9c-0.1,0.6-0.6,1-1.2,1c-0.6,0-1.1-0.4-1.2-1c0-0.1,0-0.1,0-0.2
				c0-0.6,0.5-1.2,1.2-1.2c0.7,0,1.2,0.5,1.2,1.2C-1.1,61.8-1.1,61.8-1.1,61.9z"/>
		</g>
	</g>
	<g id="_x36__1_" class="st1">
		<g>
			<path class="st2" d="M-7.9,37.9h-11c-0.3,0-0.6,0.1-0.8,0.2c-0.7,0.3-1.2,1-1.2,1.8v22c0,1.1,0.9,2,2,2h11c0.7,0,1.4-0.4,1.7-1
				c0.2-0.3,0.3-0.6,0.3-1v-22C-5.9,38.8-6.8,37.9-7.9,37.9z M-13.4,62.9c-0.5,0-1-0.5-1-1s0.5-1,1-1c0.6,0,1,0.5,1,1
				S-12.8,62.9-13.4,62.9z M-7.4,58.9c0,0.2,0,0.3-0.1,0.5c-0.1,0.2-0.2,0.3-0.4,0.4c-0.1,0.1-0.3,0.1-0.5,0.1h-10
				c-0.2,0-0.3,0-0.5-0.1c-0.3-0.2-0.5-0.5-0.5-0.9v-17c0-0.4,0.2-0.7,0.5-0.9c0.2-0.1,0.3-0.1,0.5-0.1h10c0.2,0,0.4,0,0.5,0.1
				c0.3,0.2,0.5,0.5,0.5,0.9V58.9z"/>
		</g>
	</g>
</g>
<g id="x" class="st0">
	<g class="st1">
		<path class="st2" d="M-1.3,35.9h-12c-1.1,0-2,0.9-2,2v23c0,1.1,0.9,2,2,2h12c1.1,0,2-0.9,2-2v-23C0.7,36.8-0.2,35.9-1.3,35.9z
			 M-0.3,60.9c0,0.6-0.5,1-1,1h-12c-0.6,0-1-0.4-1-1v-23c0-0.5,0.4-1,1-1h1.4v0.3c0,0.3,0.1,0.5,0.3,0.7c0.2,0.2,0.4,0.3,0.7,0.3
			h7.2c0.3,0,0.5-0.1,0.7-0.3c0.2-0.2,0.3-0.4,0.3-0.7v-0.3h1.4c0.5,0,1,0.5,1,1V60.9z"/>
	</g>
</g>
<g id="all" class="st0">
	<g id="_x35_s_1_" class="st1">
		<g>
			<path class="st2" d="M-11.3,61.9v-3h-6.5c-0.2,0-0.4,0-0.5-0.1c-0.3-0.2-0.5-0.5-0.5-0.9v-15c0-0.4,0.2-0.7,0.5-0.9
				c0.1-0.1,0.3-0.1,0.5-0.1h6.5v-3h-7c-1.1,0-2,0.9-2,2v20c0,1.1,0.9,2,2,2h8C-10.9,62.9-11.3,62.5-11.3,61.9z M-13.3,61.9
				c-0.6,0-1-0.5-1-1c0-0.6,0.4-1,1-1c0.5,0,1,0.4,1,1C-12.3,61.5-12.7,61.9-13.3,61.9z"/>
		</g>
	</g>
	<g id="x_2_" class="st1">
		<g>
			<path class="st2" d="M3.7,35.9h-12c-1.1,0-2,0.9-2,2v23c0,0.4,0.1,0.7,0.3,1c0.3,0.6,1,1,1.7,1h12c1.1,0,2-0.9,2-2v-23
				C5.7,36.8,4.8,35.9,3.7,35.9z M4.7,60.9c0,0.5-0.5,1-1,1h-12c-0.6,0-1-0.5-1-1v-23c0-0.6,0.4-1,1-1h1.4v0.3
				c0,0.3,0.1,0.5,0.3,0.7c0.2,0.2,0.4,0.3,0.7,0.3h7.2c0.3,0,0.5-0.1,0.7-0.3c0.2-0.2,0.3-0.4,0.3-0.7v-0.3h1.4c0.5,0,1,0.4,1,1
				V60.9z"/>
		</g>
	</g>
</g>
<g id="x_1_" class="st0">
	<g class="st1">
		<path class="st3" d="M-1.3,36.4h-12c-1.1,0-2,0.9-2,2v23c0,1.1,0.9,2,2,2h12c1.1,0,2-0.9,2-2v-23C0.7,37.3-0.2,36.4-1.3,36.4z
			 M-0.3,61.4c0,0.5-0.5,1-1,1h-12c-0.6,0-1-0.5-1-1v-23c0-0.6,0.4-1,1-1h1.4v0.3c0,0.3,0.1,0.5,0.3,0.7c0.2,0.2,0.4,0.3,0.7,0.3
			h7.2c0.3,0,0.5-0.1,0.7-0.3c0.2-0.2,0.3-0.4,0.3-0.7v-0.3h1.4c0.5,0,1,0.4,1,1V61.4z"/>
	</g>
</g>
<circle class="st0" cx="17.9" cy="160.5" r="10"/>
<polyline class="st4" points="14.2,101.5 17.3,103.8 22.3,96.1 "/>
<g id="x_3_" class="st0">
	<path class="st5" d="M81.8,164.9H62.2c-0.6,0-1-0.4-1-1v-36.6c0-0.6,0.4-1,1-1h19.6c0.6,0,1,0.4,1,1v36.6
		C82.8,164.4,82.4,164.9,81.8,164.9z"/>
	<path class="st6" d="M78.1,129.2H65.9c-0.6,0-1-0.4-1-1v-2.5h14.2v2.5C79.1,128.7,78.7,129.2,78.1,129.2z"/>
</g>
<g id="icon1" class="st0">
	<g class="st1">
		<g>
			<g>
				<g>
					<path class="st2" d="M20.9,32.3L20.9,32.3C20.9,32.3,20.8,32.3,20.9,32.3c0-0.1-0.1-0.2-0.1-0.2c0,0,0,0,0-0.1
						c0,0-0.1-0.1-0.1-0.1c-0.1,0-0.1-0.1-0.2-0.1c-0.1,0-0.1,0-0.2-0.1c0,0,0,0-0.1,0h0l-20.7-2c-0.2,0-0.3,0-0.5,0.1l-4.1,2.8l0,0
						c-0.1,0.1-0.2,0.2-0.3,0.4c0,0,0,0.1,0,0.1c0,0,0,0.1,0,0.2v33.9c0,0.4,0.3,0.7,0.7,0.7l20.6,2c0.1,0,0.1,0,0.2,0
						c0.1,0,0.1,0,0.2,0c0.1,0,0.1-0.1,0.2-0.1l4.1-2.8c0.2-0.1,0.3-0.4,0.3-0.6V32.5C20.9,32.4,20.9,32.4,20.9,32.3z M-0.4,31.3
						L18,33l-2.2,1.5l-18.4-1.8L-0.4,31.3z M15.3,68.4L-4,66.5V34.2L15.3,36V68.4z M19.4,66l-2.6,1.8v-32l2.6-1.8V66z"/>
					<path class="st2" d="M20.9,32.3C20.9,32.3,20.9,32.3,20.9,32.3S20.8,32.3,20.9,32.3C20.8,32.3,20.8,32.3,20.9,32.3z"/>
				</g>
			</g>
		</g>
		<g id="_x36__3_">
			<g>
				<path class="st2" d="M11.2,39.1l-11.1-1c-1.1,0-2,0.9-2,2v22c0,1.1,0.9,2,1.9,2h0l11,1h0.1c1.1,0,2-0.9,2-2v-22
					C13.1,40,12.2,39.2,11.2,39.1z M5.9,63.7L5.9,63.7c-0.2,0.1-0.4,0.2-0.6,0.2c-0.3,0-0.5-0.1-0.7-0.3c-0.2-0.2-0.3-0.4-0.3-0.7
					c0-0.1,0-0.2,0.1-0.3c0.1-0.4,0.5-0.7,0.9-0.7c0.5,0,0.9,0.4,1,0.8c0,0,0,0.1,0,0.2C6.3,63.2,6.2,63.5,5.9,63.7z M11.6,60.1
					c0,0.4-0.2,0.7-0.5,0.9c-0.2,0.1-0.3,0.1-0.5,0.1l-10-1c-0.2,0-0.4,0-0.5-0.1c-0.3-0.2-0.5-0.5-0.5-0.9v-17
					c0-0.3,0.2-0.6,0.4-0.8c0.2-0.1,0.4-0.2,0.6-0.2l10,1c0.2,0,0.3,0,0.5,0.1c0.3,0.2,0.5,0.5,0.5,0.9V60.1z"/>
			</g>
		</g>
	</g>
	<g class="st1">
		<g>
			<g>
				<path class="st2" d="M-35.4,32.2C-35.4,32.3-35.5,32.3-35.4,32.2C-35.5,32.3-35.5,32.3-35.4,32.2
					C-35.4,32.3-35.4,32.3-35.4,32.2z"/>
			</g>
			<g>
				<path class="st2" d="M-31.4,67.8L-34,66V33.9l2.6,1.8V67.8z M-9.1,33.2C-9.1,33.2-9.2,33.1-9.1,33.2c-0.1-0.2-0.2-0.4-0.3-0.5
					l0,0l-4.1-2.8c-0.2-0.1-0.3-0.1-0.5-0.1l-20.7,2h0c0,0,0,0-0.1,0c-0.1,0-0.2,0-0.2,0.1c-0.1,0-0.1,0.1-0.2,0.1
					c-0.1,0-0.1,0.1-0.1,0.1c0,0,0,0,0,0.1c0,0,0,0.1,0,0.1c0,0,0,0,0,0.1v0c0,0,0,0.1,0,0.1v33.9c0,0.3,0.1,0.5,0.3,0.6l4.1,2.8
					c0,0,0,0,0.1,0c0,0,0.1,0.1,0.1,0.1c0.1,0,0.1,0,0.2,0c0.1,0,0.1,0,0.2,0l20.6-2c0.4,0,0.7-0.4,0.7-0.7V33.3
					C-9.1,33.3-9.1,33.2-9.1,33.2z M-32.6,33l18.4-1.8l2.2,1.5l-18.4,1.8L-32.6,33z M-10.6,66.5l-19.3,1.9V36l19.3-1.8V66.5z"/>
			</g>
		</g>
	</g>
	<g id="x_4_" class="st1">
		<g>
			<path class="st2" d="M-14.3,36.1L-14.3,36.1l-11.9,1.1c-1.1,0-2,0.9-2,2v25c0,1.1,0.9,2,2.1,2h0l12-1.1c1.1,0,2-0.9,2-2v-25
				C-12.2,37-13.1,36.1-14.3,36.1z M-13.2,63.1c0,0.5-0.5,1-1,1l-12,1.1c-0.6,0-1-0.5-1-1v-25c0-0.6,0.4-1,1-1l1.4-0.1v0.5
				c0,0.2,0,0.3,0.1,0.5c0.2,0.3,0.5,0.5,0.9,0.5l7.2-0.8c0.4,0,0.8-0.3,0.9-0.6c0-0.1,0.1-0.3,0.1-0.4v-0.6l1.4-0.1
				c0.5,0,1,0.5,1,1V63.1z"/>
		</g>
	</g>
	<g class="st1">
		<g class="st7">
			
				<image style="overflow:visible;" width="92" height="92" xlink:href="6986128A.png"  transform="matrix(1 0 0 1 -28.1771 -17.037)">
			</image>
		</g>
		<circle class="st8" cx="17.8" cy="29" r="10"/>
		<polyline class="st9" points="14.3,30.5 17.4,32.8 22.4,25.1 		"/>
	</g>
</g>
<g id="icon2" class="st0">
	<g class="st1">
		<path class="st2" d="M-0.7,62.9l-0.3-0.2c-0.2-0.1-18-9.2-17.6-36.4l0-0.7l0.7-0.1c0.1,0,7.8-0.9,16.8-6.2l0.4-0.2l0.4,0.2
			c9,5.4,16.8,6.2,16.9,6.2l0.7,0.1l0,0.7C17.6,53.5-0.2,62.6-0.4,62.7L-0.7,62.9z M-17.1,26.9c-0.1,23.7,14,32.9,16.4,34.2
			c2.4-1.4,16.5-10.5,16.4-34.2c-2.1-0.3-8.7-1.6-16.4-6.1C-8.4,25.3-15.1,26.6-17.1,26.9z"/>
	</g>
	<g class="st1">
		<path class="st2" d="M9.7,31C10,47.5-0.7,53.8-0.7,53.8S-11.4,47.5-11.2,31c0,0,4.8-0.5,10.4-3.9C4.9,30.5,9.7,31,9.7,31z"/>
	</g>
	<g class="st1">
		<g class="st7">
			
				<image style="overflow:visible;" width="92" height="92" xlink:href="6986128E.png"  transform="matrix(1 0 0 1 -28.1771 -23.037)">
			</image>
		</g>
		<circle class="st8" cx="17.8" cy="23" r="10"/>
		<text transform="matrix(1 0 0 1 13.4782 26.8329)" class="st10 st11 st12">3</text>
	</g>
</g>
<g id="icon3" class="st0">
	<g class="st1">
		<g>
			<path class="st2" d="M40.2,21c0,0-0.1-0.1-0.1-0.1c-0.2-0.2-0.8-0.8-4.6-0.4c-0.3,0-0.6,0.3-0.7,0.6c-0.1,0.1-0.2,0.3-0.5,0.4
				c-1.1,0.2-10.5,0.3-12.1-0.2c-0.1-0.2-0.2-0.3-0.4-0.5c-0.8-0.6-2-0.5-2.3-0.5c-0.2,0-0.4,0.1-0.5,0.3c0,0-0.1,0.1-0.2,0.3
				c-0.3,0.4-0.5,0.6-0.7,0.8c0-0.1,0-0.2,0-0.3c0-0.1,0-0.3,0.1-0.4c0.4-1.3-2.2-3.4-2.7-3.8c-0.8-0.5-1.4-0.7-1.9-0.6
				c-0.6,0.1-3.2-0.8-5.3-1.7C8.4,15,8.3,15,8.2,15h-30c-0.4,0-0.7,0.3-0.8,0.7c0,0-0.1,0.7-0.2,1.3l0,0.1c0,0.3-0.1,0.4-0.1,0.4
				c-0.2,0.3-1,1.5-1,2.8v11.2c0,0.8,0.4,1.3,0.8,1.6c0.1,0.1,0.2,0.2,0.3,0.3c0.6,0.5,0.8,0.7,0.7,1.2c0,0,0,0.1,0,0.1
				c-0.1,1.6,1.5,3.2,2.6,4.1c0.3,0.2,0.5,0.4,0.6,0.6c0.2,0.2,0.5,0.6,0.7,0.9l0.4,0.5c1,1.3,1.6,1.9,2.3,1.7
				c0.1,0,0.2-0.1,0.3-0.1c0.8-0.2,1.1-0.2,1.4,0.1c0.9,1.1,4.2,1.8,5.3,1.9h0.8c0,0,0.1,0,0.2,0c0.7-0.1,2.6-0.4,3.6,0
				c0.2,0.1,0.4,0.2,0.4,0.3c0.1,0.5,0.3,1,0.7,1.5c0.6,1.1,1.5,1.8,1.5,1.9c0.2,0.2,0.4,0.2,0.6,0.2c0.2,0,0.4-0.2,0.5-0.4
				c0,0,0.5-0.8,0.7-1.4c0.4,0.2,0.8,0.9,1.2,2.1c0.1,0.3,0.2,0.7,0.4,1c0.4,0.9,1.1,1.7,2,2.4c0.9,0.7,1.7,1,1.7,1
				c0.2,0.1,0.5,0.1,0.7-0.1s0.3-0.4,0.3-0.6c0,0,0-0.4,0-0.9c0-0.6,0-1.4,0.1-2.1c0-0.2,0-0.4,0-0.6c0.1-0.6,2.5-1.6,3.4-1.8
				c0.2,0,1.1,0.4,1.7,0.6c2,0.8,2.8,1,3.3,0.6c0.2-0.2,0.4-0.4,0.4-0.7c0-0.2,0.8-0.8,1.2-1l0.3-0.2c0.1,0,0.2,0.1,0.3,0.2
				c0.2,0.2,0.5,0.5,0.7,0.7c0.4,0.4,0.7,0.8,1.1,0.8c0.1,0.4,0.3,0.8,0.4,1.3c0.2,0.6,0.3,1.2,0.4,1.7c0.1,0.5,0.1,0.8,0,1
				c0,0.4,0.1,0.8,0.4,1.4c0.3,0.6,1,1,2,1.1c0,0,0.3,0,0.7,0c0.6,0,1.4-0.1,1.7-0.4c0.3-0.3,0.5-1.1,0.5-2.4c0-0.5,0.1-1.5-0.1-2.3
				c-0.1-0.6-0.3-1.1-0.6-1.4c-0.1-0.1-0.4-0.8-0.6-2.1c-0.1-0.7-0.1-1.4,0-2c0.1-0.5,0.1-0.6,0.1-0.6c0.4-0.3,1.5-1.3,2.7-2.4
				c0.9-0.8,1.7-1.6,2.2-2.2c1.1-1.2,1.5-1.9,1.3-2.5c-0.1-0.3-0.3-0.5-0.6-0.7c-0.2-0.1-0.3-0.1-0.2-0.8c0-0.2,0.1-0.5,0.1-0.8
				c0.1-0.4,0.1-0.8,0.2-1.3c0-0.1,0-0.1,0-0.2c1,0,1.6-0.5,1.9-1.9c0.1-0.3,0.2-0.6,0.5-0.9c0.7-0.6,1.8-0.9,2.5-1.1
				c0.7-0.2,1.2-0.3,1.3-0.9c0.1-0.3-0.1-0.6-0.3-0.8c0,0,0,0-0.1-0.1c-0.1-0.4,0-1.1,0.4-1.4c0.1-0.1,0.3-0.3,0.5-0.4
				c0.3-0.2,0.7-0.5,1.1-0.8C39.7,22.9,40.8,21.9,40.2,21z M37.3,22.9c-0.4,0.3-0.7,0.6-1,0.8c-0.2,0.2-0.4,0.3-0.6,0.5
				c-0.9,0.7-1.1,2.1-0.9,3c-0.9,0.2-2.1,0.6-3,1.4c-0.5,0.5-0.8,1.1-1,1.7c-0.1,0.6-0.2,0.7-0.2,0.7h-0.2c-0.6,0-1.4,0.1-1.6,1.6
				c0,0.4-0.1,0.8-0.2,1.2c-0.1,0.3-0.1,0.6-0.1,0.9c0,0.5-0.1,1.4,0.7,2c-0.1,0.2-0.4,0.5-0.8,1c-0.5,0.6-1.2,1.3-2.1,2.1
				c-1.2,1.1-2.3,2-2.7,2.3c-0.4,0.3-0.6,0.8-0.7,1.6c-0.1,0.6-0.1,1.5,0,2.3c0.1,0.8,0.4,2.3,1,2.9c0,0,0.1,0.1,0.2,0.6
				c0.1,0.5,0.1,1.2,0.1,2c0,0.7-0.1,1.2-0.2,1.4c-0.6,0.1-1.7,0-1.9-0.3c-0.2-0.4-0.2-0.5-0.2-0.5c0-0.4,0-0.8,0-1.4
				c-0.1-0.5-0.2-1.2-0.4-1.8c-0.7-2.7-1.3-2.6-1.6-2.6c0,0-0.1,0-0.1,0c0,0,0,0-0.1-0.1c-0.2-0.3-0.5-0.6-0.8-0.9
				c-1-0.9-1.7-0.6-2.1-0.4l-0.4,0.3c-0.6,0.4-1.3,0.9-1.6,1.5c-0.5-0.1-1.3-0.4-1.8-0.6c-1.5-0.6-2-0.7-2.4-0.7
				c0,0-4.6,1.1-4.7,3.2c0,0.2,0,0.4,0,0.6c0,0.6,0,1.3,0,1.9c-0.1-0.1-0.3-0.2-0.4-0.3c-0.7-0.6-1.3-1.2-1.6-1.9
				c-0.1-0.2-0.2-0.5-0.3-0.7c-0.4-1.5-1.1-2.6-1.9-3.1c-0.6-0.4-1.3-0.3-1.8,0.1c-0.1,0.1-0.2,0.2-0.2,0.3
				c-0.1,0.2-0.2,0.4-0.3,0.6c-0.2-0.2-0.4-0.5-0.6-0.8c-0.3-0.4-0.4-0.8-0.5-1.1c-0.1-0.4-0.4-1-1.3-1.3c-1.3-0.5-3.4-0.2-4.3,0
				h-0.6c-1.5-0.2-3.9-0.9-4.2-1.4c-0.9-1.1-2.2-0.8-2.9-0.7c0,0-0.1,0-0.1,0c-0.1-0.1-0.4-0.4-1-1.2l-0.4-0.5
				c-0.3-0.4-0.6-0.8-0.8-1c-0.2-0.2-0.4-0.4-0.8-0.7c-0.7-0.7-2.1-1.9-2-2.9c0.2-1.3-0.7-2-1.3-2.5c-0.1-0.1-0.2-0.1-0.3-0.2l0,0
				c-0.3-0.3-0.3-0.4-0.3-0.5V20.4c0-1,0.7-2,0.7-2c0,0,0-0.1,0-0.1c0.1-0.2,0.2-0.4,0.2-0.8l0-0.2c0-0.2,0.1-0.5,0.1-0.7h2.1
				l0.2-0.5c0-0.2,0.3-0.2,0.3,0l0.2,0.5h4.9l0.2-0.5c0.1-0.2,0.3-0.2,0.3,0l0.2,0.5h4.9l0.2-0.5c0.1-0.2,0.3-0.2,0.3,0l0.2,0.5h4.8
				l0.2-0.5c0.1-0.2,0.3-0.2,0.3,0l0.2,0.5H8c2.3,0.9,5,1.9,6.1,1.7c0.1,0,0.3,0.1,0.6,0.3c1,0.7,1.9,1.8,2.1,2.2
				c0,0.2-0.1,0.4-0.1,0.5c-0.1,0.5,0,1.4,0.5,1.9c0.3,0.2,0.7,0.3,1.1,0.2c0.2-0.1,0.8-0.3,1.8-1.5c0,0,0,0,0,0
				c0.3,0,0.7,0,0.8,0.2c0.6,1.9,13.7,1,13.8,0.9c0.7-0.2,1.1-0.7,1.3-1c0.9-0.1,1.9-0.1,2.5,0C38.3,22.1,37.9,22.4,37.3,22.9z"/>
		</g>
		<g>
			<g>
				<line class="st13" x1="2.9" y1="48.4" x2="6.4" y2="48.4"/>
				<line class="st13" x1="20.8" y1="48.4" x2="24.5" y2="48.4"/>
				<line class="st13" x1="-15.6" y1="41.5" x2="25.3" y2="41.5"/>
				<line class="st13" x1="-20.6" y1="34.6" x2="28.8" y2="34.6"/>
				<line class="st13" x1="1.4" y1="27.7" x2="34.8" y2="27.7"/>
				<line class="st13" x1="1.4" y1="20.8" x2="16.8" y2="20.8"/>
			</g>
		</g>
		<g>
			<path class="st2" d="M-21.8,15.8l-1.5,4.5L-23,32H1.4C2.3,32,3,31.4,3,30.5V15.8H-21.8z M-16.7,28.6l-1.1,0.8l0.4,1.3
				c0,0.2-0.1,0.3-0.3,0.2l-1.1-0.8l-1.1,0.8c-0.1,0.1-0.3,0-0.3-0.2l0.4-1.3l-1-0.8c-0.1-0.1-0.1-0.3,0.1-0.3l1.3,0l0.1-0.3l0.3-1
				c0-0.2,0.3-0.2,0.3,0l0.3,1l0.1,0.3l1.3,0C-16.6,28.3-16.5,28.5-16.7,28.6z M-16.7,23.1l-1.1,0.8l0.4,1.3c0,0.2-0.1,0.3-0.3,0.2
				l-1.1-0.8l-1.1,0.8c-0.1,0.1-0.3,0-0.3-0.2l0.4-1.3l-1-0.8c-0.1-0.1-0.1-0.3,0.1-0.3l1.3,0l0.1-0.3l0.3-0.9c0-0.2,0.3-0.2,0.3,0
				l0.3,0.9l0.1,0.3l1.3,0C-16.6,22.8-16.5,23-16.7,23.1z M-16.7,17.6l-1.1,0.8l0.4,1.3c0,0.2-0.1,0.3-0.3,0.2l-1.1-0.8l-1.1,0.8
				c-0.1,0.1-0.3,0-0.3-0.2l0.4-1.3l-1-0.8c-0.1-0.1-0.1-0.3,0.1-0.3l1.3,0l0.1-0.3l0.2-0.5l0.2-0.5c0-0.2,0.3-0.2,0.3,0l0.2,0.5
				l0.1,0.5l0.1,0.3l1.3,0C-16.6,17.3-16.5,17.5-16.7,17.6z M-11.1,28.6l-1.1,0.8l0.4,1.3c0.1,0.2-0.1,0.3-0.3,0.2l-1.1-0.8
				l-1.1,0.8c-0.1,0.1-0.3,0-0.3-0.2l0.4-1.3l-1.1-0.8c-0.1-0.1-0.1-0.3,0.1-0.3l1.3,0l0.1-0.3l0.3-1c0.1-0.2,0.3-0.2,0.3,0l0.3,1
				l0.1,0.3l1.3,0C-11.1,28.3-11,28.5-11.1,28.6z M-11.1,23.1l-1.1,0.8l0.4,1.3c0.1,0.2-0.1,0.3-0.3,0.2l-1.1-0.8l-1.1,0.8
				c-0.1,0.1-0.3,0-0.3-0.2l0.4-1.3l-1.1-0.8c-0.1-0.1-0.1-0.3,0.1-0.3l1.3,0l0.1-0.3l0.3-0.9c0.1-0.2,0.3-0.2,0.3,0l0.3,0.9
				l0.1,0.3l1.3,0C-11.1,22.8-11,23-11.1,23.1z M-11.1,17.6l-1.1,0.8l0.4,1.3c0.1,0.2-0.1,0.3-0.3,0.2l-1.1-0.8l-1.1,0.8
				c-0.1,0.1-0.3,0-0.3-0.2l0.4-1.3l-1.1-0.8c-0.1-0.1-0.1-0.3,0.1-0.3l1.3,0l0.1-0.3l0.2-0.5l0.2-0.5c0.1-0.2,0.3-0.2,0.3,0
				l0.2,0.5l0.2,0.5l0.1,0.3l1.3,0C-11.1,17.3-11,17.5-11.1,17.6z M-5.6,28.6l-1,0.8l0.4,1.3c0,0.2-0.1,0.3-0.3,0.2l-1.1-0.8
				l-1.1,0.8c-0.1,0.1-0.3,0-0.3-0.2l0.4-1.3l-1.1-0.8c-0.1-0.1-0.1-0.3,0.1-0.3l1.3,0l0.1-0.3l0.3-1c0.1-0.2,0.3-0.2,0.3,0l0.3,1
				l0.1,0.3l1.3,0C-5.5,28.3-5.5,28.5-5.6,28.6z M-5.6,23.1l-1,0.8l0.4,1.3c0,0.2-0.1,0.3-0.3,0.2l-1.1-0.8l-1.1,0.8
				c-0.1,0.1-0.3,0-0.3-0.2l0.4-1.3l-1.1-0.8c-0.1-0.1-0.1-0.3,0.1-0.3l1.3,0l0.1-0.3l0.3-0.9c0.1-0.2,0.3-0.2,0.3,0l0.3,0.9
				l0.1,0.3l1.3,0C-5.5,22.8-5.5,23-5.6,23.1z M-5.6,17.6l-1,0.8l0.4,1.3c0,0.2-0.1,0.3-0.3,0.2l-1.1-0.8l-1.1,0.8
				c-0.1,0.1-0.3,0-0.3-0.2l0.4-1.3l-1.1-0.8c-0.1-0.1-0.1-0.3,0.1-0.3l1.3,0l0.1-0.3l0.2-0.5l0.2-0.5c0.1-0.2,0.3-0.2,0.3,0
				l0.2,0.5l0.1,0.5l0.1,0.3l1.3,0C-5.5,17.3-5.5,17.5-5.6,17.6z M-0.1,28.6l-1.1,0.8l0.4,1.3c0.1,0.2-0.1,0.3-0.3,0.2l-1.1-0.8
				l-1.1,0.8c-0.1,0.1-0.3,0-0.3-0.2l0.4-1.3l-1.1-0.8c-0.1-0.1-0.1-0.3,0.1-0.3l1.3,0l0.1-0.3l0.3-1c0.1-0.2,0.3-0.2,0.3,0l0.3,1
				l0.1,0.3l1.3,0C0,28.3,0.1,28.5-0.1,28.6z M-0.1,23.1l-1.1,0.8l0.4,1.3c0.1,0.2-0.1,0.3-0.3,0.2l-1.1-0.8l-1.1,0.8
				c-0.1,0.1-0.3,0-0.3-0.2l0.4-1.3l-1.1-0.8C-4.2,23-4.1,22.8-4,22.8l1.3,0l0.1-0.3l0.3-0.9c0.1-0.2,0.3-0.2,0.3,0l0.3,0.9l0.1,0.3
				l1.3,0C0,22.8,0.1,23-0.1,23.1z M-1.6,17l0.1,0.3l1.3,0c0.2,0,0.2,0.2,0.1,0.3l-1.1,0.8l0.4,1.3c0.1,0.2-0.1,0.3-0.3,0.2
				l-1.1-0.8l-1.1,0.8c-0.1,0.1-0.3,0-0.3-0.2l0.4-1.3l-1.1-0.8c-0.1-0.1-0.1-0.3,0.1-0.3l1.3,0l0.1-0.3l0.1-0.5l0.2-0.5
				c0.1-0.2,0.3-0.2,0.3,0l0.2,0.5L-1.6,17z"/>
		</g>
	</g>
	<g class="st1">
		<g class="st7">
			
				<image style="overflow:visible;" width="92" height="92" xlink:href="69861289.png"  transform="matrix(1 0 0 1 -12.1771 -31.037)">
			</image>
		</g>
		<circle class="st8" cx="33.8" cy="15" r="10"/>
		<path class="st14" d="M38.4,13.5l-3.2,0L35,12.8l-0.8-2.3c-0.1-0.4-0.7-0.4-0.8,0l-0.8,2.3l-0.2,0.7l-3.2,0
			c-0.4,0-0.6,0.5-0.3,0.8l2.5,1.9l-1,3c-0.1,0.4,0.3,0.7,0.7,0.5l2.6-1.8l2.6,1.8c0.3,0.2,0.8-0.1,0.7-0.5l-1-3l2.5-1.9
			C39,14,38.8,13.5,38.4,13.5z"/>
	</g>
</g>
<g id="icon4" class="st0">
	<g id="_x34_" class="st1">
		<g>
			<g id="head">
				<g>
					<path class="st2" d="M22.4,15c-0.3,0-0.7-0.3-1-0.6c-0.3-0.3-0.5-0.8-0.7-1.3c-0.1-0.2-0.2-0.4-0.2-0.6l-0.1-0.1
						c0-0.1-0.1-0.2-0.1-0.4c0-0.1,0-0.2-0.1-0.3c-0.1-0.5-0.4-0.9-0.8-1.2C19,10.1,18.6,10,18.2,10c-0.5,0-0.9,0.2-1.3,0.3
						c-0.1,0.1-0.3,0.1-0.4,0.2c-0.5,0.1-0.9,0.2-1.2,0.3c-0.8,0.1-1.6,0.2-2.4,0.2c-0.9,0-1.7-0.1-2.5-0.2
						c-0.4-0.1-0.8-0.2-1.2-0.3c-0.1,0-0.3-0.1-0.4-0.2c-0.6-0.2-1.5-0.6-2.4,0.1c-0.4,0.3-0.7,0.7-0.8,1.2c0,0.1,0,0.3-0.1,0.4
						c0,0.2,0,0.3-0.1,0.3c-0.1,0.1-0.1,0.3-0.2,0.4c0,0.1-0.1,0.2-0.1,0.4c-0.2,0.5-0.4,1-0.7,1.3c-0.3,0.3-0.8,0.6-1,0.6
						c-0.1-0.3-0.3-1-0.2-2.3c0-0.4,1-8.6,9.7-8.6s9.6,8.3,9.7,8.6C22.7,14,22.5,14.7,22.4,15z"/>
				</g>
			</g>
			<g>
				<path class="st2" d="M30,45.9l-2.1-10.4c0-0.1-0.8-2.5-3.4-3.3l-5.5-1.7l-1.6-1.1v-1.1c2.8-1.6,4.8-4.6,4.8-8.1
					c0.1,0,0.2,0,0.3,0c1.7,0,3.1-1.4,3.1-3.1c0-1-0.5-2-1.3-2.5c0.1-0.5,0.1-1.3,0-2.2c0-0.1-1.1-10.1-11.3-10.1S1.6,12.4,1.6,12.5
					c-0.1,0.9-0.1,1.6,0,2.2c-0.8,0.6-1.3,1.5-1.3,2.5c0,1.7,1.4,3.1,3.1,3.1c0.1,0,0.2,0,0.3,0c0,3.5,2,6.5,4.8,8.1v1.1l-1.6,1.1
					l-5.5,1.7C-1.2,33-2,35.4-2.1,35.6l-2.1,10.3c-0.2,1,0.1,1.7,0.4,2.2c0.9,1.1,2.5,1.3,2.7,1.3h4.2l19.3,0h4.4
					c0.2,0,1.8-0.2,2.7-1.3C29.8,47.6,30.2,46.9,30,45.9z M17.6,31.6l-1.3,3.4l-2.1-0.7l2.5-3.4h0L17.6,31.6z M12.9,33.4l-2.8-3.8
					V29c0.9,0.3,1.8,0.4,2.8,0.4s1.9-0.2,2.8-0.4v0.6L12.9,33.4z M23.5,16.3c0.2,0.3,0.3,0.6,0.3,0.9c0,0.8-0.6,1.4-1.4,1.4
					c-0.1,0-0.2,0-0.3,0v-2c0.1,0,0.2,0,0.3,0C22.8,16.6,23.1,16.6,23.5,16.3L23.5,16.3z M3.6,18.6c-0.1,0-0.2,0-0.3,0
					c-0.8,0-1.4-0.6-1.4-1.4c0-0.3,0.1-0.7,0.3-0.9l0.1,0.1c0.4,0.3,0.9,0.4,1.3,0.3V18.6z M4.4,14.4c-0.3,0.3-0.8,0.6-1,0.6
					c-0.1-0.3-0.3-1-0.2-2.3c0-0.4,1-8.6,9.7-8.6s9.6,8.3,9.7,8.6c0.1,1.3-0.1,2-0.2,2.3c-0.3,0-0.7-0.3-1-0.6
					c-0.3-0.3-0.5-0.8-0.7-1.3c-0.1-0.2-0.2-0.4-0.2-0.6l-0.1-0.1c0-0.1-0.1-0.2-0.1-0.4c0-0.1,0-0.2-0.1-0.3
					c-0.1-0.5-0.4-0.9-0.8-1.2C19,10.1,18.6,10,18.2,10c-0.5,0-0.9,0.2-1.3,0.3c-0.1,0.1-0.3,0.1-0.4,0.2c-0.5,0.1-0.9,0.2-1.2,0.3
					c-0.8,0.1-1.6,0.2-2.4,0.2c-0.9,0-1.7-0.1-2.5-0.2c-0.4-0.1-0.8-0.2-1.2-0.3c-0.1,0-0.3-0.1-0.4-0.2c-0.6-0.2-1.5-0.6-2.4,0.1
					c-0.4,0.3-0.7,0.7-0.8,1.2c0,0.1,0,0.3-0.1,0.4c0,0.2,0,0.3-0.1,0.3c-0.1,0.1-0.1,0.3-0.2,0.4c0,0.1-0.1,0.2-0.1,0.4
					C5,13.6,4.7,14.1,4.4,14.4z M5.3,20.2v-4.3c0.2-0.1,0.3-0.2,0.3-0.3c0.5-0.5,0.8-1.2,1.1-1.8c0.1-0.1,0.1-0.3,0.2-0.4
					c0-0.1,0.1-0.2,0.2-0.4c0.1-0.3,0.1-0.5,0.2-0.7c0-0.1,0-0.2,0-0.3c0-0.1,0.1-0.1,0.1-0.2c0.2-0.1,0.3-0.1,0.8,0.1
					C8.4,12,8.5,12,8.7,12.1c0.4,0.1,0.9,0.3,1.4,0.4c0.9,0.1,1.8,0.2,2.8,0.2c0.9-0.1,1.8-0.1,2.7-0.3c0.4-0.1,0.8-0.2,1.4-0.4
					c0.2-0.1,0.4-0.1,0.6-0.2c0.6-0.2,0.7-0.2,0.8-0.1c0.1,0,0.1,0.1,0.1,0.2c0,0.1,0,0.2,0,0.2c0,0.2,0.1,0.5,0.2,0.8l0.1,0.1
					c0.1,0.2,0.2,0.4,0.3,0.7c0.3,0.6,0.6,1.3,1.1,1.8c0,0,0.1,0.1,0.3,0.3v4.3c0,4.2-3.4,7.6-7.6,7.6C8.7,27.8,5.3,24.4,5.3,20.2z
					 M9.1,31l2.5,3.3l-2.1,0.7l-1.3-3.4L9.1,31z M28.2,47.1c-0.3,0.5-1.2,0.6-1.4,0.7h-3.4v-6.3c0-0.5-0.4-0.8-0.8-0.8
					c-0.5,0-0.8,0.4-0.8,0.8v6.3H4v-6.3c0-0.5-0.4-0.8-0.8-0.8c-0.5,0-0.8,0.4-0.8,0.8v6.3H-1c-0.2,0-1.1-0.2-1.5-0.7
					c-0.1-0.1-0.2-0.4-0.1-0.8l2-10.2c0,0,0.6-1.7,2.3-2.2l4.9-1.5l1.5,4.1c0.1,0.3,0.4,0.5,0.8,0.5c0.1,0,0.2,0,0.3,0l2.8-0.9v5.9
					c0,0.5,0.4,0.8,0.8,0.8c0.5,0,0.8-0.4,0.8-0.8V36l2.8,0.9c0.1,0,0.2,0,0.3,0c0.3,0,0.7-0.2,0.8-0.5l1.5-4.1l4.9,1.5
					c0.9,0.3,1.4,0.8,1.8,1.3c0.4,0.5,0.5,0.9,0.5,0.9l2.1,10.3C28.4,46.7,28.3,46.9,28.2,47.1z"/>
				<path class="st2" d="M22.7,49.4C22.6,49.4,22.6,49.4,22.7,49.4c-0.1,0-0.1,0-0.2,0H22.7z"/>
			</g>
		</g>
		<g>
			<g>
				<circle class="st2" cx="10.1" cy="17.8" r="1.1"/>
			</g>
			<g>
				<circle class="st2" cx="15.7" cy="17.8" r="1.1"/>
			</g>
		</g>
		<g>
			<path class="st2" d="M15.7,22.6c0,1.1-1.3,2-2.9,2s-2.9-0.9-2.9-2c0-0.3,0.2-0.6,0.6-0.6c0.3,0,0.6,0.3,0.6,0.6
				c0,0.4,0.7,0.9,1.8,0.9c1,0,1.8-0.5,1.8-0.9c0-0.3,0.2-0.6,0.6-0.6C15.5,22,15.7,22.3,15.7,22.6z"/>
		</g>
	</g>
	<g class="st1">
		<g class="st7">
			
				<image style="overflow:visible;" width="92" height="92" xlink:href="6986128B.png"  transform="matrix(1 0 0 1 -14.1771 -35.037)">
			</image>
		</g>
		<circle class="st8" cx="31.8" cy="11" r="10"/>
		<g>
			<path class="st10" d="M28.3,9.2H27c-0.2,0-0.3,0.2-0.3,0.3v6.1c0,0.2,0.2,0.3,0.3,0.3h1.4c0.2,0,0.3-0.2,0.3-0.3V9.5
				C28.7,9.3,28.5,9.2,28.3,9.2z"/>
			<path class="st10" d="M33.6,9.2l0.4-1c0.2-0.7,0.1-1.7-0.6-2.1C33.1,6,32.8,5.9,32.5,6c-0.1,0-0.3,0.1-0.3,0.3
				c-0.1,0.1-0.1,0.3-0.1,0.5c-0.1,0.4-0.3,0.8-0.6,1.1c-0.5,0.5-2.2,2-2.2,2v5.4H35c0.8,0,1.3-0.9,0.9-1.5c0.5-0.3,0.6-0.9,0.3-1.4
				c0.5-0.3,0.6-0.9,0.3-1.4c0.8-0.5,0.5-1.7-0.4-1.9C36.1,9.1,33.6,9.2,33.6,9.2z"/>
		</g>
	</g>
</g>
<g class="st0">
	<line class="st15" x1="184.9" y1="-12" x2="194.8" y2="-2.1"/>
	<line class="st15" x1="194.8" y1="-12" x2="184.9" y2="-2.1"/>
</g>
<g class="st0">
	<path class="st16" d="M174.7-9.5c0,0-0.5-0.5-0.6-0.6c-2-2-5.3-2.1-7.3,0c-2,2-2,5.3,0,7.4c2,2,5.3,2,7.4,0"/>
	<polyline class="st16" points="172.8,-9.1 175.1,-9.1 175.1,-11.5 	"/>
</g>
<g class="st0">
	<line class="st17" x1="120.8" y1="3" x2="140.8" y2="3"/>
	<line class="st17" x1="120.8" y1="9" x2="140.8" y2="9"/>
	<line class="st17" x1="120.8" y1="15" x2="140.8" y2="15"/>
</g>
<circle class="st18" cx="103.3" cy="2.5" r="2"/>
<circle class="st18" cx="95.3" cy="2.5" r="2"/>
<circle class="st18" cx="103.3" cy="10.5" r="2"/>
<circle class="st18" cx="95.3" cy="10.5" r="2"/>
<g id="skoro" class="st0">
	<path class="st6" d="M12.2,57.8h-39c-2.2,0-4-1.8-4-4v-8c0-2.2,1.8-4,4-4h39c2.2,0,4,1.8,4,4v8C16.2,56.1,14.4,57.8,12.2,57.8z"/>
	<text transform="matrix(1 0 0 1 -23.6449 52.7183)" class="st23 st11 st22">Скоро</text>
</g>
<g id="skoro_x5F_v_x5F_prodaje" class="st0">
	<g class="st19">
		
			<image style="overflow:visible;" width="144" height="144" xlink:href="69861288.png"  transform="matrix(1 0 0 1 -50.1771 -50.037)">
		</image>
	</g>
	<circle class="st20" cx="21.8" cy="22" r="35.5"/>
	<g class="st1">
		<ellipse class="st21" cx="21.8" cy="3.5" rx="8" ry="8"/>
		<line class="st21" x1="21.8" y1="3.5" x2="21.8" y2="-4.5"/>
		<line class="st21" x1="21.8" y1="9.3" x2="21.8" y2="11.5"/>
		<line class="st21" x1="29.8" y1="3.5" x2="27.6" y2="3.5"/>
		<line class="st21" x1="16" y1="3.5" x2="13.8" y2="3.5"/>
		<line class="st21" x1="21.8" y1="3.5" x2="27.5" y2="-2.2"/>
		<line class="st21" x1="17.7" y1="7.6" x2="16.2" y2="9.2"/>
		<line class="st21" x1="27.5" y1="9.2" x2="26" y2="7.6"/>
		<line class="st21" x1="17.7" y1="-0.6" x2="16.2" y2="-2.2"/>
	</g>
	<text transform="matrix(1 0 0 1 5.3633 25.8277)" class="st1"><tspan x="0" y="0" class="st10 st11 st22">Скоро</tspan><tspan x="-11.3" y="12" class="st10 st11 st22">в продаже</tspan></text>
</g>
<g id="map_x5F_pin" class="st0">
	<g class="st19">
		
			<image style="overflow:visible;" width="108" height="117" xlink:href="69861296.png"  transform="matrix(1 0 0 1 -32.1771 -36.037)">
		</image>
	</g>
	<g class="st1">
		<g>
			<g>
				<g>
					<path class="st8" d="M38.9,16.7c0,13.6-14.9,26.2-15.5,26.7c-0.5,0.4-1,0.6-1.6,0.6s-1.1-0.2-1.6-0.6
						C19.6,42.9,4.7,30.3,4.7,16.7C4.7,7.5,12.4,0,21.8,0S38.9,7.5,38.9,16.7z"/>
				</g>
			</g>
		</g>
	</g>
	<path class="st23" d="M21.8,10.4c0.6-1.5,2.1-2.9,4.3-2.9c0,2.7-1.9,4.4-3.8,4.5C21.4,12.2,21.4,11.3,21.8,10.4z M22.2,24.5
		c-2.5,0-4.9-1.5-6.1-3.8c-1.1-2.2-0.9-4.7,0.5-6.6c0.1-0.1,0.1-0.2,0.2-0.3c0.6-0.7,1.4-1.1,2.3-1.2c0.8-0.1,1.4,0.2,2.2,0.4
		c0.2,0.1,0.4,0.1,0.6,0.1c0.6,0.1,1.2-0.1,1.7-0.3c0.5-0.2,1.1-0.2,1.6-0.2c1,0.1,1.9,0.6,2.6,1.5c0.1,0.2,0.2,0.3,0.3,0.5
		c-0.9,0.7-1.5,1.8-1.5,3.1c0,1.3,0.6,2.5,1.5,3.2C27,23.1,24.7,24.5,22.2,24.5z"/>
</g>
<polyline id="arrow" class="st24" points="16.8,20 21.8,24 26.8,20 "/>
<g id="fire_x5F_label">
	<g class="st7">
		
			<image style="overflow:visible;" width="103" height="103" xlink:href="69861299.png"  transform="matrix(1 0 0 1 -29.1771 -29.037)">
		</image>
	</g>
	<circle class="st25" cx="21.8" cy="22" r="15"/>
	<g id="surface1">
		<path class="st10" d="M18.9,31c-2-6.6,2.2-9,2.2-9c-0.3,3.5,1.7,6.3,1.7,6.3C23.6,28,25,27,25,27c0,1.3-0.7,4-0.7,4s2.6-2,3.4-5.3
			c0.8-3.3-1.6-6.7-1.6-6.7c0.1,2.4-0.7,4.7-2.2,6.4c0.1-0.1,0.1-0.2,0.2-0.3c0.3-0.6,0.7-2,0.5-5.4C24.2,15,19.9,13,19.9,13
			c0.4,2.9-0.7,3.6-3.3,9C14,27.5,18.9,31,18.9,31z"/>
	</g>
</g>
</svg>
