<?xml version="1.0" encoding="utf-8"?>
<!-- Generator: Adobe Illustrator 22.0.0, SVG Export Plug-In . SVG Version: 6.00 Build 0)  -->
<svg version="1.1" id="Layer_1" xmlns="http://www.w3.org/2000/svg" xmlns:xlink="http://www.w3.org/1999/xlink" x="0px" y="0px"
	 viewBox="0 0 8 8.1" style="enable-background:new 0 0 8 8.1;" xml:space="preserve">
<style type="text/css">
	.st0{display:none;}
	.st1{display:inline;}
	.st2{fill:#282D3A;}
	.st3{fill:#85888B;}
	.st4{display:none;fill:none;stroke:#FFFFFF;stroke-width:2;stroke-linecap:round;stroke-linejoin:round;stroke-miterlimit:10;}
	.st5{display:inline;fill:none;stroke:#282D3A;stroke-width:1.5;stroke-linejoin:round;stroke-miterlimit:10;}
	.st6{display:inline;fill:#282D3A;}
	.st7{opacity:0.66;}
	.st8{fill:#FF005F;}
	.st9{fill:none;stroke:#FFFFFF;stroke-width:2;stroke-linecap:round;stroke-linejoin:round;stroke-miterlimit:10;}
	.st10{fill:#FFFFFF;}
	.st11{font-family:'SFUIText-Bold';}
	.st12{font-size:12px;}
	.st13{fill:none;stroke:#282D3A;stroke-width:1.5;stroke-linecap:round;stroke-linejoin:round;stroke-miterlimit:10;}
	.st14{fill:#F5F5F5;}
	
		.st15{display:inline;fill:none;stroke:#282D3A;stroke-width:1.5;stroke-linecap:round;stroke-linejoin:round;stroke-miterlimit:10;}
	
		.st16{display:inline;fill:none;stroke:#000000;stroke-width:1.5;stroke-linecap:round;stroke-linejoin:round;stroke-miterlimit:10;}
	.st17{display:inline;fill:none;stroke:#282D3A;stroke-width:2;stroke-linecap:round;stroke-linejoin:round;stroke-miterlimit:10;}
	.st18{display:none;fill:#282D3A;}
	.st19{display:inline;opacity:0.66;}
	.st20{display:inline;fill:#FF005F;}
	.st21{fill:none;stroke:#FFFFFF;stroke-width:1.5;stroke-linecap:round;stroke-linejoin:round;stroke-miterlimit:10;}
	.st22{font-size:10px;}
	.st23{display:inline;fill:#FFFFFF;}
	.st24{display:none;fill:none;stroke:#0096FF;stroke-width:2;stroke-linecap:round;stroke-linejoin:round;stroke-miterlimit:10;}
	.st25{display:inline;fill:#FF005E;}
</style>
<g id="_x35_s" class="st0">
	<g class="st1">
		<path class="st2" d="M-20.3,18.7h-10c-1.1,0-2,0.9-2,2v20c0,1.1,0.9,2,2,2h10c1.1,0,2-0.9,2-2v-20C-18.3,19.6-19.2,18.7-20.3,18.7
			z M-25.3,41.7c-0.5,0-1-0.4-1-1c0-0.5,0.5-1,1-1c0.6,0,1,0.5,1,1C-24.3,41.2-24.8,41.7-25.3,41.7z M-19.8,37.7
			c0,0.4-0.2,0.7-0.5,0.9c-0.1,0.1-0.3,0.1-0.5,0.1h-9c-0.2,0-0.3,0-0.5-0.1c-0.3-0.2-0.5-0.5-0.5-0.9v-15c0-0.4,0.2-0.7,0.5-0.9
			c0.2-0.1,0.3-0.1,0.5-0.1h9c0.2,0,0.4,0,0.5,0.1c0.3,0.2,0.5,0.5,0.5,0.9V37.7z"/>
	</g>
</g>
<g id="_x36_" class="st0">
	<g class="st1">
		<path class="st2" d="M-19.6,17.9h-11c-1.1,0-2,0.9-2,2v22c0,1.1,0.9,2,2,2h11c1.1,0,2-0.9,2-2v-22C-17.6,18.8-18.5,17.9-19.6,17.9
			z M-25.1,42.9c-0.6,0-1-0.5-1-1c0-0.6,0.4-1,1-1c0.5,0,1,0.4,1,1C-24.1,42.5-24.6,42.9-25.1,42.9z M-19.1,38.9
			c0,0.4-0.2,0.7-0.5,0.9c-0.2,0.1-0.3,0.1-0.5,0.1h-10c-0.2,0-0.4,0-0.5-0.1c-0.3-0.2-0.5-0.5-0.5-0.9v-17c0-0.4,0.2-0.7,0.5-0.9
			c0.1-0.1,0.3-0.1,0.5-0.1h10c0.2,0,0.3,0,0.5,0.1c0.3,0.2,0.5,0.5,0.5,0.9V38.9z"/>
	</g>
</g>
<g id="plus" class="st0">
	<g id="_x36__2_" class="st1">
		<g>
			<path class="st2" d="M-13.6,15.9h-13.2c-1.1,0-2,0.9-2,2v1h4c0.4,0,0.8,0.1,1.1,0.3h9.5c0.2,0,0.4,0.1,0.6,0.2
				c0.3,0.2,0.4,0.5,0.4,0.8v20.2c0,0.3-0.2,0.6-0.4,0.8c-0.2,0.1-0.4,0.2-0.6,0.2h-8.6v3.5c0,0.5-0.4,1-1,1h10.2c1.1,0,2-0.9,2-2
				v-26C-11.6,16.8-12.5,15.9-13.6,15.9z M-19,43.9c-0.1,0.6-0.6,1-1.2,1c-0.6,0-1.1-0.4-1.2-1c0-0.1,0-0.1,0-0.2
				c0-0.6,0.5-1.2,1.2-1.2c0.7,0,1.2,0.5,1.2,1.2C-19,43.8-19,43.9-19,43.9z"/>
		</g>
	</g>
	<g id="_x36__1_" class="st1">
		<g>
			<path class="st2" d="M-25.7,19.9h-11c-0.3,0-0.6,0.1-0.8,0.2c-0.7,0.3-1.2,1-1.2,1.8v22c0,1.1,0.9,2,2,2h11c0.7,0,1.4-0.4,1.7-1
				c0.2-0.3,0.3-0.6,0.3-1v-22C-23.7,20.8-24.6,19.9-25.7,19.9z M-31.2,44.9c-0.5,0-1-0.5-1-1s0.5-1,1-1c0.6,0,1,0.5,1,1
				S-30.7,44.9-31.2,44.9z M-25.2,40.9c0,0.2,0,0.3-0.1,0.5c-0.1,0.2-0.2,0.3-0.4,0.4c-0.1,0.1-0.3,0.1-0.5,0.1h-10
				c-0.2,0-0.3,0-0.5-0.1c-0.3-0.2-0.5-0.5-0.5-0.9v-17c0-0.4,0.2-0.7,0.5-0.9c0.2-0.1,0.3-0.1,0.5-0.1h10c0.2,0,0.4,0,0.5,0.1
				c0.3,0.2,0.5,0.5,0.5,0.9V40.9z"/>
		</g>
	</g>
</g>
<g id="x" class="st0">
	<g class="st1">
		<path class="st2" d="M-19.1,17.9h-12c-1.1,0-2,0.9-2,2v23c0,1.1,0.9,2,2,2h12c1.1,0,2-0.9,2-2v-23C-17.1,18.8-18,17.9-19.1,17.9z
			 M-18.1,42.9c0,0.6-0.5,1-1,1h-12c-0.6,0-1-0.4-1-1v-23c0-0.5,0.4-1,1-1h1.4v0.3c0,0.3,0.1,0.5,0.3,0.7c0.2,0.2,0.4,0.3,0.7,0.3
			h7.2c0.3,0,0.5-0.1,0.7-0.3c0.2-0.2,0.3-0.4,0.3-0.7v-0.3h1.4c0.5,0,1,0.5,1,1V42.9z"/>
	</g>
</g>
<g id="all" class="st0">
	<g id="_x35_s_1_" class="st1">
		<g>
			<path class="st2" d="M-29.1,44v-3h-6.5c-0.2,0-0.4,0-0.5-0.1c-0.3-0.2-0.5-0.5-0.5-0.9V25c0-0.4,0.2-0.7,0.5-0.9
				C-36,24-35.8,24-35.6,24h6.5v-3h-7c-1.1,0-2,0.9-2,2v20c0,1.1,0.9,2,2,2h8C-28.7,45-29.1,44.5-29.1,44z M-31.1,44
				c-0.6,0-1-0.5-1-1c0-0.6,0.4-1,1-1c0.5,0,1,0.4,1,1C-30.1,43.5-30.6,44-31.1,44z"/>
		</g>
	</g>
	<g id="x_2_" class="st1">
		<g>
			<path class="st2" d="M-14.1,18h-12c-1.1,0-2,0.9-2,2v23c0,0.4,0.1,0.7,0.3,1c0.3,0.6,1,1,1.7,1h12c1.1,0,2-0.9,2-2V20
				C-12.1,18.9-13,18-14.1,18z M-13.1,43c0,0.5-0.5,1-1,1h-12c-0.6,0-1-0.5-1-1V20c0-0.6,0.4-1,1-1h1.4v0.3c0,0.3,0.1,0.5,0.3,0.7
				c0.2,0.2,0.4,0.3,0.7,0.3h7.2c0.3,0,0.5-0.1,0.7-0.3c0.2-0.2,0.3-0.4,0.3-0.7V19h1.4c0.5,0,1,0.4,1,1V43z"/>
		</g>
	</g>
</g>
<g id="x_1_" class="st0">
	<g class="st1">
		<path class="st3" d="M-19.1,18.5h-12c-1.1,0-2,0.9-2,2v23c0,1.1,0.9,2,2,2h12c1.1,0,2-0.9,2-2v-23C-17.1,19.4-18,18.5-19.1,18.5z
			 M-18.1,43.5c0,0.5-0.5,1-1,1h-12c-0.6,0-1-0.5-1-1v-23c0-0.6,0.4-1,1-1h1.4v0.3c0,0.3,0.1,0.5,0.3,0.7c0.2,0.2,0.4,0.3,0.7,0.3
			h7.2c0.3,0,0.5-0.1,0.7-0.3c0.2-0.2,0.3-0.4,0.3-0.7v-0.3h1.4c0.5,0,1,0.4,1,1V43.5z"/>
	</g>
</g>
<circle class="st0" cx="0.1" cy="142.5" r="10"/>
<polyline class="st4" points="-3.6,83.5 -0.6,85.9 4.4,78.1 "/>
<g id="x_3_" class="st0">
	<path class="st5" d="M64,146.9H44.3c-0.6,0-1-0.4-1-1v-36.6c0-0.6,0.4-1,1-1H64c0.6,0,1,0.4,1,1v36.6C65,146.5,64.5,146.9,64,146.9
		z"/>
	<path class="st6" d="M60.3,111.2H48c-0.6,0-1-0.4-1-1v-2.5h14.2v2.5C61.3,110.8,60.8,111.2,60.3,111.2z"/>
</g>
<g id="icon1" class="st0">
	<g class="st1">
		<g>
			<g>
				<g>
					<path class="st2" d="M3,14.4L3,14.4C3,14.3,3,14.3,3,14.4c0-0.1-0.1-0.2-0.1-0.2c0,0,0,0,0-0.1c0,0-0.1-0.1-0.1-0.1
						c-0.1,0-0.1-0.1-0.2-0.1c-0.1,0-0.1,0-0.2-0.1c0,0,0,0-0.1,0h0l-20.7-2c-0.2,0-0.3,0-0.5,0.1l-4.1,2.8l0,0
						c-0.1,0.1-0.2,0.2-0.3,0.4c0,0,0,0.1,0,0.1c0,0,0,0.1,0,0.2v33.9c0,0.4,0.3,0.7,0.7,0.7L-2,52c0.1,0,0.1,0,0.2,0
						c0.1,0,0.1,0,0.2,0c0.1,0,0.1-0.1,0.2-0.1L2.7,49C2.9,48.9,3,48.7,3,48.4V14.5C3,14.5,3,14.4,3,14.4z M-18.3,13.3l18.4,1.8
						L-2,16.6l-18.4-1.8L-18.3,13.3z M-2.6,50.4l-19.3-1.9V16.2l19.3,1.8V50.4z M1.5,48l-2.6,1.8v-32L1.5,16V48z"/>
					<path class="st2" d="M3,14.3C3,14.4,3,14.4,3,14.3S3,14.3,3,14.3C3,14.3,3,14.3,3,14.3z"/>
				</g>
			</g>
		</g>
		<g id="_x36__3_">
			<g>
				<path class="st2" d="M-6.7,21.2l-11.1-1c-1.1,0-2,0.9-2,2v22c0,1.1,0.9,2,1.9,2h0l11,1h0.1c1.1,0,2-0.9,2-2v-22
					C-4.8,22.1-5.7,21.2-6.7,21.2z M-11.9,45.7L-11.9,45.7c-0.2,0.1-0.4,0.2-0.6,0.2c-0.3,0-0.5-0.1-0.7-0.3
					c-0.2-0.2-0.3-0.4-0.3-0.7c0-0.1,0-0.2,0.1-0.3c0.1-0.4,0.5-0.7,0.9-0.7c0.5,0,0.9,0.4,1,0.8c0,0,0,0.1,0,0.2
					C-11.5,45.2-11.7,45.5-11.9,45.7z M-6.3,42.2c0,0.4-0.2,0.7-0.5,0.9c-0.2,0.1-0.3,0.1-0.5,0.1l-10-1c-0.2,0-0.4,0-0.5-0.1
					c-0.3-0.2-0.5-0.5-0.5-0.9v-17c0-0.3,0.2-0.6,0.4-0.8c0.2-0.1,0.4-0.2,0.6-0.2l10,1c0.2,0,0.3,0,0.5,0.1
					c0.3,0.2,0.5,0.5,0.5,0.9V42.2z"/>
			</g>
		</g>
	</g>
	<g class="st1">
		<g>
			<g>
				<path class="st2" d="M-53.3,14.3C-53.3,14.3-53.3,14.3-53.3,14.3C-53.3,14.4-53.3,14.4-53.3,14.3
					C-53.3,14.3-53.3,14.3-53.3,14.3z"/>
			</g>
			<g>
				<path class="st2" d="M-49.2,49.8l-2.6-1.8V16l2.6,1.8V49.8z M-27,15.2C-27,15.2-27,15.2-27,15.2c-0.1-0.2-0.2-0.4-0.3-0.5l0,0
					l-4.1-2.8c-0.2-0.1-0.3-0.1-0.5-0.1l-20.7,2h0c0,0,0,0-0.1,0c-0.1,0-0.2,0-0.2,0.1c-0.1,0-0.1,0.1-0.2,0.1
					c-0.1,0-0.1,0.1-0.1,0.1c0,0,0,0,0,0.1c0,0,0,0.1,0,0.1c0,0,0,0,0,0.1v0c0,0,0,0.1,0,0.1v33.9c0,0.3,0.1,0.5,0.3,0.6l4.1,2.8
					c0,0,0,0,0.1,0c0,0,0.1,0.1,0.1,0.1c0.1,0,0.1,0,0.2,0c0.1,0,0.1,0,0.2,0l20.6-2c0.4,0,0.7-0.4,0.7-0.7V15.4
					C-27,15.3-27,15.3-27,15.2z M-50.5,15.1l18.4-1.8l2.2,1.5l-18.4,1.8L-50.5,15.1z M-28.5,48.6l-19.3,1.9V18.1l19.3-1.8V48.6z"/>
			</g>
		</g>
	</g>
	<g id="x_4_" class="st1">
		<g>
			<path class="st2" d="M-32.2,18.2L-32.2,18.2l-11.9,1.1c-1.1,0-2,0.9-2,2v25c0,1.1,0.9,2,2.1,2h0l12-1.1c1.1,0,2-0.9,2-2v-25
				C-30.1,19.1-31,18.2-32.2,18.2z M-31.1,45.2c0,0.5-0.5,1-1,1l-12,1.1c-0.6,0-1-0.5-1-1v-25c0-0.6,0.4-1,1-1l1.4-0.1v0.5
				c0,0.2,0,0.3,0.1,0.5c0.2,0.3,0.5,0.5,0.9,0.5l7.2-0.8c0.4,0,0.8-0.3,0.9-0.6c0-0.1,0.1-0.3,0.1-0.4v-0.6l1.4-0.1
				c0.5,0,1,0.5,1,1V45.2z"/>
		</g>
	</g>
	<g class="st1">
		<g class="st7">
			
				<image style="overflow:visible;" width="92" height="92" xlink:href="FDA0B8AD.png"  transform="matrix(1 0 0 1 -46.0104 -34.9953)">
			</image>
		</g>
		<circle class="st8" cx="0" cy="11" r="10"/>
		<polyline class="st9" points="-3.5,12.5 -0.5,14.9 4.5,7.1 		"/>
	</g>
</g>
<g id="icon2" class="st0">
	<g class="st1">
		<path class="st2" d="M-18.6,44.9l-0.3-0.2c-0.2-0.1-18-9.2-17.6-36.4l0-0.7l0.7-0.1c0.1,0,7.8-0.9,16.8-6.2l0.4-0.2l0.4,0.2
			c9,5.4,16.8,6.2,16.9,6.2l0.7,0.1l0,0.7c0.4,27.2-17.4,36.3-17.6,36.4L-18.6,44.9z M-35,9c-0.1,23.7,14,32.9,16.4,34.2
			C-16.2,41.8-2,32.7-2.1,9c-2.1-0.3-8.7-1.6-16.4-6.1C-26.3,7.4-32.9,8.7-35,9z"/>
	</g>
	<g class="st1">
		<path class="st2" d="M-8.1,13.1c0.2,16.5-10.5,22.8-10.5,22.8S-29.3,29.5-29,13.1c0,0,4.8-0.5,10.4-3.9
			C-12.9,12.6-8.1,13.1-8.1,13.1z"/>
	</g>
	<g class="st1">
		<g class="st7">
			
				<image style="overflow:visible;" width="92" height="92" xlink:href="FDA0B8AF.png"  transform="matrix(1 0 0 1 -46.0104 -40.9953)">
			</image>
		</g>
		<circle class="st8" cx="0" cy="5" r="10"/>
		<text transform="matrix(1 0 0 1 -4.3551 8.8745)" class="st10 st11 st12">3</text>
	</g>
</g>
<g id="icon3" class="st0">
	<g class="st1">
		<g>
			<path class="st2" d="M22.4,3c0,0-0.1-0.1-0.1-0.1c-0.2-0.2-0.8-0.8-4.6-0.4c-0.3,0-0.6,0.3-0.7,0.6c-0.1,0.1-0.2,0.3-0.5,0.4
				C15.4,3.7,6,3.8,4.4,3.3C4.3,3.1,4.2,3,4.1,2.8C3.3,2.2,2,2.3,1.8,2.3c-0.2,0-0.4,0.1-0.5,0.3c0,0-0.1,0.1-0.2,0.3
				C0.8,3.3,0.5,3.6,0.3,3.7c0-0.1,0-0.2,0-0.3c0-0.1,0-0.3,0.1-0.4c0.4-1.3-2.2-3.4-2.7-3.8C-3-1.2-3.6-1.4-4.1-1.2
				C-4.7-1.1-7.3-2-9.4-2.9C-9.5-2.9-9.5-3-9.6-3h-30c-0.4,0-0.7,0.3-0.8,0.7c0,0-0.1,0.7-0.2,1.3l0,0.1c0,0.3-0.1,0.4-0.1,0.4
				c-0.2,0.3-1,1.5-1,2.8v11.2c0,0.8,0.4,1.3,0.8,1.6c0.1,0.1,0.2,0.2,0.3,0.3c0.6,0.5,0.8,0.7,0.7,1.2c0,0,0,0.1,0,0.1
				c-0.1,1.6,1.5,3.2,2.6,4.1c0.3,0.2,0.5,0.4,0.6,0.6c0.2,0.2,0.5,0.6,0.7,0.9l0.4,0.5c1,1.3,1.6,1.9,2.3,1.7
				c0.1,0,0.2-0.1,0.3-0.1c0.8-0.2,1.1-0.2,1.4,0.1c0.9,1.1,4.2,1.8,5.3,1.9h0.8c0,0,0.1,0,0.2,0c0.7-0.1,2.6-0.4,3.6,0
				c0.2,0.1,0.4,0.2,0.4,0.3c0.1,0.5,0.3,1,0.7,1.5c0.6,1.1,1.5,1.8,1.5,1.9c0.2,0.2,0.4,0.2,0.6,0.2c0.2,0,0.4-0.2,0.5-0.4
				c0,0,0.5-0.8,0.7-1.4c0.4,0.2,0.8,0.9,1.2,2.1c0.1,0.3,0.2,0.7,0.4,1c0.4,0.9,1.1,1.7,2,2.4c0.9,0.7,1.7,1,1.7,1
				c0.2,0.1,0.5,0.1,0.7-0.1s0.3-0.4,0.3-0.6c0,0,0-0.4,0-0.9c0-0.6,0-1.4,0.1-2.1c0-0.2,0-0.4,0-0.6c0.1-0.6,2.5-1.6,3.4-1.8
				c0.2,0,1.1,0.4,1.7,0.6c2,0.8,2.8,1,3.3,0.6c0.2-0.2,0.4-0.4,0.4-0.7c0-0.2,0.8-0.8,1.2-1l0.3-0.2c0.1,0,0.2,0.1,0.3,0.2
				c0.2,0.2,0.5,0.5,0.7,0.7c0.4,0.4,0.7,0.8,1.1,0.8c0.1,0.4,0.3,0.8,0.4,1.3C2.4,32,2.5,32.6,2.5,33c0.1,0.5,0.1,0.8,0,1
				c0,0.4,0.1,0.8,0.4,1.4c0.3,0.6,1,1,2,1.1c0,0,0.3,0,0.7,0c0.6,0,1.4-0.1,1.7-0.4c0.3-0.3,0.5-1.1,0.5-2.4c0-0.5,0.1-1.5-0.1-2.3
				c-0.1-0.6-0.3-1.1-0.6-1.4c-0.1-0.1-0.4-0.8-0.6-2.1c-0.1-0.7-0.1-1.4,0-2c0.1-0.5,0.1-0.6,0.1-0.6C7.2,25,8.3,24,9.5,22.9
				c0.9-0.8,1.7-1.6,2.2-2.2c1.1-1.2,1.5-1.9,1.3-2.5c-0.1-0.3-0.3-0.5-0.6-0.7c-0.2-0.1-0.3-0.1-0.2-0.8c0-0.2,0.1-0.5,0.1-0.8
				c0.1-0.4,0.1-0.8,0.2-1.3c0-0.1,0-0.1,0-0.2c1,0,1.6-0.5,1.9-1.9c0.1-0.3,0.2-0.6,0.5-0.9c0.7-0.6,1.8-0.9,2.5-1.1
				c0.7-0.2,1.2-0.3,1.3-0.9c0.1-0.3-0.1-0.6-0.3-0.8c0,0,0,0-0.1-0.1c-0.1-0.4,0-1.1,0.4-1.4C19,7.3,19.1,7.1,19.4,7
				c0.3-0.2,0.7-0.5,1.1-0.8C21.9,5,23,3.9,22.4,3z M19.5,5c-0.4,0.3-0.7,0.6-1,0.8C18.2,6,18,6.1,17.9,6.2C17,7,16.7,8.3,17,9.2
				c-0.9,0.2-2.1,0.6-3,1.4c-0.5,0.5-0.8,1.1-1,1.7c-0.1,0.6-0.2,0.7-0.2,0.7h-0.2c-0.6,0-1.4,0.1-1.6,1.6c0,0.4-0.1,0.8-0.2,1.2
				c-0.1,0.3-0.1,0.6-0.1,0.9c0,0.5-0.1,1.4,0.7,2c-0.1,0.2-0.4,0.5-0.8,1c-0.5,0.6-1.2,1.3-2.1,2.1c-1.2,1.1-2.3,2-2.7,2.3
				c-0.4,0.3-0.6,0.8-0.7,1.6c-0.1,0.6-0.1,1.5,0,2.3c0.1,0.8,0.4,2.3,1,2.9c0,0,0.1,0.1,0.2,0.6c0.1,0.5,0.1,1.2,0.1,2
				c0,0.7-0.1,1.2-0.2,1.4c-0.6,0.1-1.7,0-1.9-0.3c-0.2-0.4-0.2-0.5-0.2-0.5c0-0.4,0-0.8,0-1.4C4,32.3,3.8,31.7,3.6,31
				C3,28.3,2.4,28.3,2,28.4c0,0-0.1,0-0.1,0c0,0,0,0-0.1-0.1C1.6,28,1.3,27.7,1,27.4c-1-0.9-1.7-0.6-2.1-0.4l-0.4,0.3
				c-0.6,0.4-1.3,0.9-1.6,1.5c-0.5-0.1-1.3-0.4-1.8-0.6c-1.5-0.6-2-0.7-2.4-0.7c0,0-4.6,1.1-4.7,3.2c0,0.2,0,0.4,0,0.6
				c0,0.6,0,1.3,0,1.9c-0.1-0.1-0.3-0.2-0.4-0.3c-0.7-0.6-1.3-1.2-1.6-1.9c-0.1-0.2-0.2-0.5-0.3-0.7c-0.4-1.5-1.1-2.6-1.9-3.1
				c-0.6-0.4-1.3-0.3-1.8,0.1c-0.1,0.1-0.2,0.2-0.2,0.3c-0.1,0.2-0.2,0.4-0.3,0.6c-0.2-0.2-0.4-0.5-0.6-0.8
				c-0.3-0.4-0.4-0.8-0.5-1.1c-0.1-0.4-0.4-1-1.3-1.3c-1.3-0.5-3.4-0.2-4.3,0h-0.6c-1.5-0.2-3.9-0.9-4.2-1.4
				c-0.9-1.1-2.2-0.8-2.9-0.7c0,0-0.1,0-0.1,0c-0.1-0.1-0.4-0.4-1-1.2l-0.4-0.5c-0.3-0.4-0.6-0.8-0.8-1c-0.2-0.2-0.4-0.4-0.8-0.7
				c-0.7-0.7-2.1-1.9-2-2.9c0.2-1.3-0.7-2-1.3-2.5c-0.1-0.1-0.2-0.1-0.3-0.2l0,0c-0.3-0.3-0.3-0.4-0.3-0.5V2.4c0-1,0.7-2,0.7-2
				c0,0,0-0.1,0-0.1c0.1-0.2,0.2-0.4,0.2-0.8l0-0.2c0-0.2,0.1-0.5,0.1-0.7h2.1l0.2-0.5c0-0.2,0.3-0.2,0.3,0l0.2,0.5h4.9l0.2-0.5
				c0.1-0.2,0.3-0.2,0.3,0l0.2,0.5h4.9l0.2-0.5c0.1-0.2,0.3-0.2,0.3,0l0.2,0.5h4.8l0.2-0.5c0.1-0.2,0.3-0.2,0.3,0l0.2,0.5h9.8
				c2.3,0.9,5,1.9,6.1,1.7c0.1,0,0.3,0.1,0.6,0.3c1,0.7,1.9,1.8,2.1,2.2c0,0.2-0.1,0.4-0.1,0.5c-0.1,0.5,0,1.4,0.5,1.9
				c0.3,0.2,0.7,0.3,1.1,0.2c0.2-0.1,0.8-0.3,1.8-1.5c0,0,0,0,0,0c0.3,0,0.7,0,0.8,0.2c0.6,1.9,13.7,1,13.8,0.9
				c0.7-0.2,1.1-0.7,1.3-1c0.9-0.1,1.9-0.1,2.5,0C20.5,4.1,20.1,4.5,19.5,5z"/>
		</g>
		<g>
			<g>
				<line class="st13" x1="-15" y1="30.5" x2="-11.4" y2="30.5"/>
				<line class="st13" x1="3" y1="30.5" x2="6.7" y2="30.5"/>
				<line class="st13" x1="-33.5" y1="23.6" x2="7.5" y2="23.6"/>
				<line class="st13" x1="-38.5" y1="16.7" x2="11" y2="16.7"/>
				<line class="st13" x1="-16.5" y1="9.8" x2="17" y2="9.8"/>
				<line class="st13" x1="-16.5" y1="2.8" x2="-1" y2="2.8"/>
			</g>
		</g>
		<g>
			<path class="st2" d="M-39.6-2.2l-1.5,4.5l0.3,11.8h24.4c0.8,0,1.5-0.7,1.5-1.5V-2.2H-39.6z M-34.5,10.7l-1.1,0.8l0.4,1.3
				c0,0.2-0.1,0.3-0.3,0.2l-1.1-0.8l-1.1,0.8c-0.1,0.1-0.3,0-0.3-0.2l0.4-1.3l-1-0.8c-0.1-0.1-0.1-0.3,0.1-0.3l1.3,0l0.1-0.3l0.3-1
				c0-0.2,0.3-0.2,0.3,0l0.3,1l0.1,0.3l1.3,0C-34.4,10.4-34.4,10.6-34.5,10.7z M-34.5,5.2l-1.1,0.8l0.4,1.3c0,0.2-0.1,0.3-0.3,0.2
				l-1.1-0.8l-1.1,0.8c-0.1,0.1-0.3,0-0.3-0.2l0.4-1.3l-1-0.8c-0.1-0.1-0.1-0.3,0.1-0.3l1.3,0l0.1-0.3l0.3-0.9c0-0.2,0.3-0.2,0.3,0
				l0.3,0.9l0.1,0.3l1.3,0C-34.4,4.8-34.4,5.1-34.5,5.2z M-34.5-0.4l-1.1,0.8l0.4,1.3c0,0.2-0.1,0.3-0.3,0.2l-1.1-0.8l-1.1,0.8
				c-0.1,0.1-0.3,0-0.3-0.2l0.4-1.3l-1-0.8c-0.1-0.1-0.1-0.3,0.1-0.3l1.3,0L-37-1l0.2-0.5l0.2-0.5c0-0.2,0.3-0.2,0.3,0l0.2,0.5
				L-36-1l0.1,0.3l1.3,0C-34.4-0.7-34.4-0.5-34.5-0.4z M-29,10.7l-1.1,0.8l0.4,1.3c0.1,0.2-0.1,0.3-0.3,0.2l-1.1-0.8l-1.1,0.8
				c-0.1,0.1-0.3,0-0.3-0.2l0.4-1.3l-1.1-0.8c-0.1-0.1-0.1-0.3,0.1-0.3l1.3,0l0.1-0.3l0.3-1c0.1-0.2,0.3-0.2,0.3,0l0.3,1l0.1,0.3
				l1.3,0C-28.9,10.4-28.8,10.6-29,10.7z M-29,5.2L-30,5.9l0.4,1.3c0.1,0.2-0.1,0.3-0.3,0.2L-31,6.6L-32,7.4c-0.1,0.1-0.3,0-0.3-0.2
				l0.4-1.3L-33,5.2c-0.1-0.1-0.1-0.3,0.1-0.3l1.3,0l0.1-0.3l0.3-0.9c0.1-0.2,0.3-0.2,0.3,0l0.3,0.9l0.1,0.3l1.3,0
				C-28.9,4.8-28.8,5.1-29,5.2z M-29-0.4L-30,0.4l0.4,1.3c0.1,0.2-0.1,0.3-0.3,0.2L-31,1.1L-32,1.9c-0.1,0.1-0.3,0-0.3-0.2l0.4-1.3
				L-33-0.4c-0.1-0.1-0.1-0.3,0.1-0.3l1.3,0l0.1-0.3l0.2-0.5l0.2-0.5c0.1-0.2,0.3-0.2,0.3,0l0.2,0.5l0.2,0.5l0.1,0.3l1.3,0
				C-28.9-0.7-28.8-0.5-29-0.4z M-23.4,10.7l-1,0.8l0.4,1.3c0,0.2-0.1,0.3-0.3,0.2l-1.1-0.8l-1.1,0.8c-0.1,0.1-0.3,0-0.3-0.2
				l0.4-1.3l-1.1-0.8c-0.1-0.1-0.1-0.3,0.1-0.3l1.3,0l0.1-0.3l0.3-1c0.1-0.2,0.3-0.2,0.3,0l0.3,1l0.1,0.3l1.3,0
				C-23.4,10.4-23.3,10.6-23.4,10.7z M-23.4,5.2l-1,0.8l0.4,1.3c0,0.2-0.1,0.3-0.3,0.2l-1.1-0.8l-1.1,0.8c-0.1,0.1-0.3,0-0.3-0.2
				l0.4-1.3l-1.1-0.8c-0.1-0.1-0.1-0.3,0.1-0.3l1.3,0l0.1-0.3l0.3-0.9c0.1-0.2,0.3-0.2,0.3,0l0.3,0.9l0.1,0.3l1.3,0
				C-23.4,4.8-23.3,5.1-23.4,5.2z M-23.4-0.4l-1,0.8l0.4,1.3c0,0.2-0.1,0.3-0.3,0.2l-1.1-0.8l-1.1,0.8c-0.1,0.1-0.3,0-0.3-0.2
				l0.4-1.3l-1.1-0.8c-0.1-0.1-0.1-0.3,0.1-0.3l1.3,0l0.1-0.3l0.2-0.5l0.2-0.5c0.1-0.2,0.3-0.2,0.3,0l0.2,0.5l0.1,0.5l0.1,0.3l1.3,0
				C-23.4-0.7-23.3-0.5-23.4-0.4z M-17.9,10.7l-1.1,0.8l0.4,1.3c0.1,0.2-0.1,0.3-0.3,0.2l-1.1-0.8l-1.1,0.8c-0.1,0.1-0.3,0-0.3-0.2
				l0.4-1.3l-1.1-0.8c-0.1-0.1-0.1-0.3,0.1-0.3l1.3,0l0.1-0.3l0.3-1c0.1-0.2,0.3-0.2,0.3,0l0.3,1l0.1,0.3l1.3,0
				C-17.8,10.4-17.8,10.6-17.9,10.7z M-17.9,5.2L-19,5.9l0.4,1.3c0.1,0.2-0.1,0.3-0.3,0.2l-1.1-0.8L-21,7.4c-0.1,0.1-0.3,0-0.3-0.2
				l0.4-1.3l-1.1-0.8C-22,5.1-22,4.8-21.8,4.8l1.3,0l0.1-0.3l0.3-0.9c0.1-0.2,0.3-0.2,0.3,0l0.3,0.9l0.1,0.3l1.3,0
				C-17.8,4.8-17.8,5.1-17.9,5.2z M-19.4-1l0.1,0.3l1.3,0c0.2,0,0.2,0.2,0.1,0.3L-19,0.4l0.4,1.3c0.1,0.2-0.1,0.3-0.3,0.2l-1.1-0.8
				L-21,1.9c-0.1,0.1-0.3,0-0.3-0.2l0.4-1.3l-1.1-0.8C-22-0.5-22-0.7-21.8-0.7l1.3,0l0.1-0.3l0.1-0.5l0.2-0.5c0.1-0.2,0.3-0.2,0.3,0
				l0.2,0.5L-19.4-1z"/>
		</g>
	</g>
	<g class="st1">
		<g class="st7">
			
				<image style="overflow:visible;" width="92" height="92" xlink:href="FDA0B8AA.png"  transform="matrix(1 0 0 1 -30.0104 -48.9953)">
			</image>
		</g>
		<circle class="st8" cx="16" cy="-3" r="10"/>
		<path class="st14" d="M20.6-4.4l-3.2,0l-0.2-0.7l-0.8-2.3c-0.1-0.4-0.7-0.4-0.8,0l-0.8,2.3l-0.2,0.7l-3.2,0
			c-0.4,0-0.6,0.5-0.3,0.8l2.5,1.9l-1,3c-0.1,0.4,0.3,0.7,0.7,0.5L16-0.1l2.6,1.8c0.3,0.2,0.8-0.1,0.7-0.5l-1-3l2.5-1.9
			C21.1-3.9,21-4.4,20.6-4.4z"/>
	</g>
</g>
<g id="icon4" class="st0">
	<g id="_x34_" class="st1">
		<g>
			<g id="head">
				<g>
					<path class="st2" d="M4.5-3c-0.3,0-0.7-0.3-1-0.6C3.2-3.9,3-4.3,2.8-4.8C2.7-5,2.6-5.2,2.5-5.4L2.5-5.6c0-0.1-0.1-0.2-0.1-0.4
						c0-0.1,0-0.2-0.1-0.3C2.3-6.8,2-7.2,1.6-7.5C1.2-7.8,0.8-7.9,0.4-7.9c-0.5,0-0.9,0.2-1.3,0.3C-1-7.5-1.1-7.5-1.3-7.4
						c-0.5,0.1-0.9,0.2-1.2,0.3C-3.3-7-4.1-7-4.9-6.9C-5.8-7-6.6-7-7.4-7.1c-0.4-0.1-0.8-0.2-1.2-0.3c-0.1,0-0.3-0.1-0.4-0.2
						c-0.6-0.2-1.5-0.6-2.4,0.1c-0.4,0.3-0.7,0.7-0.8,1.2c0,0.1,0,0.3-0.1,0.4c0,0.2,0,0.3-0.1,0.3c-0.1,0.1-0.1,0.3-0.2,0.4
						c0,0.1-0.1,0.2-0.1,0.4c-0.2,0.5-0.4,1-0.7,1.3c-0.3,0.3-0.8,0.6-1,0.6c-0.1-0.3-0.3-1-0.2-2.3c0-0.4,1-8.6,9.7-8.6
						s9.6,8.3,9.7,8.6C4.9-4,4.7-3.3,4.5-3z"/>
				</g>
			</g>
			<g>
				<path class="st2" d="M12.1,27.9L10,17.6c0-0.1-0.8-2.5-3.4-3.3l-5.5-1.7l-1.6-1.1v-1.1c2.8-1.6,4.8-4.6,4.8-8.1
					c0.1,0,0.2,0,0.3,0c1.7,0,3.1-1.4,3.1-3.1c0-1-0.5-2-1.3-2.5c0.1-0.5,0.1-1.3,0-2.2c0-0.1-1.1-10.1-11.3-10.1
					s-11.3,10-11.3,10.1c-0.1,0.9-0.1,1.6,0,2.2c-0.8,0.6-1.3,1.5-1.3,2.5c0,1.7,1.4,3.1,3.1,3.1c0.1,0,0.2,0,0.3,0
					c0,3.5,2,6.5,4.8,8.1v1.1l-1.6,1.1l-5.5,1.7c-2.6,0.8-3.4,3.2-3.5,3.4L-22,27.9c-0.2,1,0.1,1.7,0.4,2.2c0.9,1.1,2.5,1.3,2.7,1.3
					h4.2l19.3,0H9c0.2,0,1.8-0.2,2.7-1.3C12,29.7,12.3,29,12.1,27.9z M-0.3,13.7l-1.3,3.4l-2.1-0.7l2.5-3.4h0L-0.3,13.7z M-4.9,15.4
					l-2.8-3.8V11c0.9,0.3,1.8,0.4,2.8,0.4S-3,11.3-2.1,11v0.6L-4.9,15.4z M5.7-1.7C5.9-1.4,6-1.1,6-0.8C6,0,5.4,0.6,4.6,0.6
					c-0.1,0-0.2,0-0.3,0v-2c0.1,0,0.2,0,0.3,0C4.9-1.3,5.3-1.4,5.7-1.7L5.7-1.7z M-14.2,0.6c-0.1,0-0.2,0-0.3,0
					c-0.8,0-1.4-0.6-1.4-1.4c0-0.3,0.1-0.7,0.3-0.9l0.1,0.1c0.4,0.3,0.9,0.4,1.3,0.3V0.6z M-13.4-3.6c-0.3,0.3-0.8,0.6-1,0.6
					c-0.1-0.3-0.3-1-0.2-2.3c0-0.4,1-8.6,9.7-8.6s9.6,8.3,9.7,8.6C4.9-4,4.7-3.3,4.5-3c-0.3,0-0.7-0.3-1-0.6C3.2-3.9,3-4.3,2.8-4.8
					C2.7-5,2.6-5.2,2.5-5.4L2.5-5.6c0-0.1-0.1-0.2-0.1-0.4c0-0.1,0-0.2-0.1-0.3C2.3-6.8,2-7.2,1.6-7.5C1.2-7.8,0.8-7.9,0.4-7.9
					c-0.5,0-0.9,0.2-1.3,0.3C-1-7.5-1.1-7.5-1.3-7.4c-0.5,0.1-0.9,0.2-1.2,0.3C-3.3-7-4.1-7-4.9-6.9C-5.8-7-6.6-7-7.4-7.1
					c-0.4-0.1-0.8-0.2-1.2-0.3c-0.1,0-0.3-0.1-0.4-0.2c-0.6-0.2-1.5-0.6-2.4,0.1c-0.4,0.3-0.7,0.7-0.8,1.2c0,0.1,0,0.3-0.1,0.4
					c0,0.2,0,0.3-0.1,0.3c-0.1,0.1-0.1,0.3-0.2,0.4c0,0.1-0.1,0.2-0.1,0.4C-12.9-4.3-13.1-3.9-13.4-3.6z M-12.6,2.2v-4.3
					c0.2-0.1,0.3-0.2,0.3-0.3c0.5-0.5,0.8-1.2,1.1-1.8c0.1-0.1,0.1-0.3,0.2-0.4c0-0.1,0.1-0.2,0.2-0.4c0.1-0.3,0.1-0.5,0.2-0.7
					c0-0.1,0-0.2,0-0.3c0-0.1,0.1-0.1,0.1-0.2c0.2-0.1,0.3-0.1,0.8,0.1C-9.5-6-9.3-5.9-9.1-5.9c0.4,0.1,0.9,0.3,1.4,0.4
					c0.9,0.1,1.8,0.2,2.8,0.2C-4-5.3-3.1-5.4-2.2-5.5c0.4-0.1,0.8-0.2,1.4-0.4C-0.6-5.9-0.4-6-0.2-6.1c0.6-0.2,0.7-0.2,0.8-0.1
					C0.7-6.1,0.7-6,0.7-6c0,0.1,0,0.2,0,0.2c0,0.2,0.1,0.5,0.2,0.8L1-4.8c0.1,0.2,0.2,0.4,0.3,0.7c0.3,0.6,0.6,1.3,1.1,1.8
					c0,0,0.1,0.1,0.3,0.3v4.3c0,4.2-3.4,7.6-7.6,7.6C-9.1,9.8-12.6,6.4-12.6,2.2z M-8.8,13.1l2.5,3.3l-2.1,0.7l-1.3-3.4L-8.8,13.1z
					 M10.4,29.1C10,29.6,9.2,29.7,9,29.8H5.6v-6.3c0-0.5-0.4-0.8-0.8-0.8c-0.5,0-0.8,0.4-0.8,0.8v6.3h-17.7v-6.3
					c0-0.5-0.4-0.8-0.8-0.8c-0.5,0-0.8,0.4-0.8,0.8v6.3h-3.3c-0.2,0-1.1-0.2-1.5-0.7c-0.1-0.1-0.2-0.4-0.1-0.8l2-10.2
					c0,0,0.6-1.7,2.3-2.2l4.9-1.5l1.5,4.1c0.1,0.3,0.4,0.5,0.8,0.5c0.1,0,0.2,0,0.3,0l2.8-0.9v5.9c0,0.5,0.4,0.8,0.8,0.8
					c0.5,0,0.8-0.4,0.8-0.8V18l2.8,0.9c0.1,0,0.2,0,0.3,0c0.3,0,0.7-0.2,0.8-0.5l1.5-4.1l4.9,1.5c0.9,0.3,1.4,0.8,1.8,1.3
					C8.3,17.6,8.4,18,8.4,18l2.1,10.3C10.6,28.7,10.5,29,10.4,29.1z"/>
				<path class="st2" d="M4.8,31.4C4.8,31.4,4.8,31.4,4.8,31.4c-0.1,0-0.1,0-0.2,0H4.8z"/>
			</g>
		</g>
		<g>
			<g>
				<circle class="st2" cx="-7.7" cy="-0.2" r="1.1"/>
			</g>
			<g>
				<circle class="st2" cx="-2.2" cy="-0.2" r="1.1"/>
			</g>
		</g>
		<g>
			<path class="st2" d="M-2.1,4.6c0,1.1-1.3,2-2.9,2s-2.9-0.9-2.9-2C-7.8,4.3-7.6,4-7.2,4c0.3,0,0.6,0.3,0.6,0.6
				c0,0.4,0.7,0.9,1.8,0.9c1,0,1.8-0.5,1.8-0.9C-3.2,4.3-2.9,4-2.6,4C-2.3,4-2.1,4.3-2.1,4.6z"/>
		</g>
	</g>
	<g class="st1">
		<g class="st7">
			
				<image style="overflow:visible;" width="92" height="92" xlink:href="FDA0B8AB.png"  transform="matrix(1 0 0 1 -32.0104 -52.9953)">
			</image>
		</g>
		<circle class="st8" cx="14" cy="-7" r="10"/>
		<g>
			<path class="st10" d="M10.5-8.8H9.1c-0.2,0-0.3,0.2-0.3,0.3v6.1C8.8-2.1,8.9-2,9.1-2h1.4c0.2,0,0.3-0.2,0.3-0.3v-6.1
				C10.8-8.6,10.7-8.8,10.5-8.8z"/>
			<path class="st10" d="M15.7-8.8l0.4-1c0.2-0.7,0.1-1.7-0.6-2.1C15.3-12,15-12,14.7-12c-0.1,0-0.3,0.1-0.3,0.3
				c-0.1,0.1-0.1,0.3-0.1,0.5c-0.1,0.4-0.3,0.8-0.6,1.1c-0.5,0.5-2.2,2-2.2,2v5.4h5.7c0.8,0,1.3-0.9,0.9-1.5
				c0.5-0.3,0.6-0.9,0.3-1.4c0.5-0.3,0.6-0.9,0.3-1.4c0.8-0.5,0.5-1.7-0.4-1.9C18.3-8.8,15.7-8.8,15.7-8.8z"/>
		</g>
	</g>
</g>
<g class="st0">
	<line class="st15" x1="167" y1="-29.9" x2="176.9" y2="-20"/>
	<line class="st15" x1="176.9" y1="-29.9" x2="167" y2="-20"/>
</g>
<g class="st0">
	<path class="st16" d="M156.9-27.5c0,0-0.5-0.5-0.6-0.6c-2-2-5.3-2.1-7.3,0c-2,2-2,5.3,0,7.4c2,2,5.3,2,7.4,0"/>
	<polyline class="st16" points="154.9,-27.1 157.3,-27.1 157.3,-29.4 	"/>
</g>
<g class="st0">
	<line class="st17" x1="103" y1="-15" x2="123" y2="-15"/>
	<line class="st17" x1="103" y1="-9" x2="123" y2="-9"/>
	<line class="st17" x1="103" y1="-3" x2="123" y2="-3"/>
</g>
<circle class="st18" cx="85.5" cy="-15.5" r="2"/>
<circle class="st18" cx="77.5" cy="-15.5" r="2"/>
<circle class="st18" cx="85.5" cy="-7.5" r="2"/>
<circle class="st18" cx="77.5" cy="-7.5" r="2"/>
<g id="skoro" class="st0">
	<path class="st6" d="M-5.6,39.9h-39c-2.2,0-4-1.8-4-4v-8c0-2.2,1.8-4,4-4h39c2.2,0,4,1.8,4,4v8C-1.6,38.1-3.4,39.9-5.6,39.9z"/>
	<text transform="matrix(1 0 0 1 -41.4782 34.76)" class="st23 st11 st22">Скоро</text>
</g>
<g id="skoro_x5F_v_x5F_prodaje" class="st0">
	<g class="st19">
		
			<image style="overflow:visible;" width="144" height="144" xlink:href="FDA0B8B5.png"  transform="matrix(1 0 0 1 -68.0104 -67.9953)">
		</image>
	</g>
	<circle class="st20" cx="4" cy="4" r="35.5"/>
	<g class="st1">
		<ellipse class="st21" cx="4" cy="-14.5" rx="8" ry="8"/>
		<line class="st21" x1="4" y1="-14.5" x2="4" y2="-22.5"/>
		<line class="st21" x1="4" y1="-8.6" x2="4" y2="-6.5"/>
		<line class="st21" x1="12" y1="-14.5" x2="9.8" y2="-14.5"/>
		<line class="st21" x1="-1.8" y1="-14.5" x2="-4" y2="-14.5"/>
		<line class="st21" x1="4" y1="-14.5" x2="9.6" y2="-20.1"/>
		<line class="st21" x1="-0.1" y1="-10.4" x2="-1.7" y2="-8.8"/>
		<line class="st21" x1="9.7" y1="-8.8" x2="8.1" y2="-10.4"/>
		<line class="st21" x1="-0.1" y1="-18.6" x2="-1.7" y2="-20.1"/>
	</g>
	<text transform="matrix(1 0 0 1 -12.4701 7.8694)" class="st1"><tspan x="0" y="0" class="st10 st11 st22">Скоро</tspan><tspan x="-11.3" y="12" class="st10 st11 st22">в продаже</tspan></text>
</g>
<g id="map_x5F_pin" class="st0">
	<g class="st19">
		
			<image style="overflow:visible;" width="108" height="117" xlink:href="FDA0B8B7.png"  transform="matrix(1 0 0 1 -50.0104 -53.9953)">
		</image>
	</g>
	<g class="st1">
		<g>
			<g>
				<g>
					<path class="st8" d="M21.1-1.2c0,13.6-14.9,26.2-15.5,26.7C5.1,25.8,4.6,26,4,26s-1.1-0.2-1.6-0.6C1.8,24.9-13.1,12.4-13.1-1.2
						C-13.1-10.5-5.4-18,4-18S21.1-10.5,21.1-1.2z"/>
				</g>
			</g>
		</g>
	</g>
	<path class="st23" d="M4-7.6c0.6-1.5,2.1-2.9,4.3-2.9c0,2.7-1.9,4.4-3.8,4.5C3.5-5.8,3.5-6.6,4-7.6z M4.4,6.5
		C1.9,6.5-0.5,5-1.7,2.7c-1.1-2.2-0.9-4.7,0.5-6.6C-1.1-3.9-1-4-1-4.1c0.6-0.7,1.4-1.1,2.3-1.2C2.1-5.4,2.8-5.1,3.5-5
		c0.2,0.1,0.4,0.1,0.6,0.1c0.6,0.1,1.2-0.1,1.7-0.3c0.5-0.2,1.1-0.2,1.6-0.2c1,0.1,1.9,0.6,2.6,1.5c0.1,0.2,0.2,0.3,0.3,0.5
		C9.4-2.7,8.9-1.5,8.9-0.2s0.6,2.5,1.5,3.2C9.1,5.1,6.8,6.5,4.4,6.5z"/>
</g>
<polyline id="arrow" class="st24" points="-1,2 4,6 9,2 "/>
<g id="fire_x5F_label" class="st0">
	<g class="st19">
		
			<image style="overflow:visible;" width="103" height="103" xlink:href="FDA0B8BA.png"  transform="matrix(1 0 0 1 -47.0104 -46.9953)">
		</image>
	</g>
	<circle class="st25" cx="4" cy="4" r="15"/>
	<g id="surface1" class="st1">
		<path class="st10" d="M1.1,13c-2-6.6,2.2-9,2.2-9C3,7.6,5,10.3,5,10.3C5.8,10.1,7.2,9,7.2,9c0,1.3-0.7,4-0.7,4S9,11,9.8,7.7
			C10.7,4.4,8.3,1,8.3,1c0.1,2.4-0.7,4.7-2.2,6.4c0.1-0.1,0.1-0.2,0.2-0.3c0.3-0.6,0.7-2,0.5-5.4C6.4-3,2.1-5,2.1-5
			c0.4,2.9-0.7,3.6-3.3,9C-3.9,9.6,1.1,13,1.1,13z"/>
	</g>
</g>
<g id="v_x5F_nalichii" class="st0">
	<path class="st25" d="M10,4c0,3.3-2.7,6-6,6c-3.3,0-6-2.7-6-6s2.7-6,6-6c1.6,0,3.1,0.7,4.2,1.7C8.6,0.1,8.9,0.5,9.1,1
		C9.7,1.9,10,2.9,10,4z"/>
	<g class="st1">
		<path class="st10" d="M9.1,1L4.6,6.5C4.4,6.7,4.2,6.8,4,6.8h0c-0.2,0-0.5-0.1-0.6-0.3l-2-3c-0.2-0.3-0.1-0.8,0.2-1
			c0.3-0.2,0.8-0.1,1,0.2l1.5,2.2l4.1-5C8.6,0.1,8.9,0.5,9.1,1z"/>
	</g>
</g>
<polyline class="st21" points="1,4.5 3,6.5 7,1.5 "/>
</svg>
