<?xml version="1.0" encoding="utf-8"?>
<!-- Generator: Adobe Illustrator 22.0.0, SVG Export Plug-In . SVG Version: 6.00 Build 0)  -->
<svg version="1.1" id="Layer_1" xmlns="http://www.w3.org/2000/svg" xmlns:xlink="http://www.w3.org/1999/xlink" x="0px" y="0px"
	 viewBox="0 0 150 150" style="enable-background:new 0 0 150 150;" xml:space="preserve">
<style type="text/css">
	.st0{fill:url(#SVGID_1_);}
	.st1{fill:url(#SVGID_2_);}
	.st2{fill:url(#SVGID_3_);}
	.st3{fill:url(#SVGID_4_);}
	.st4{opacity:0.74;clip-path:url(#SVGID_6_);fill:url(#SVGID_7_);enable-background:new    ;}
	.st5{fill:#FAF74D;}
	.st6{fill:url(#SVGID_8_);stroke:#5B2702;stroke-miterlimit:10;}
	.st7{fill:url(#SVGID_9_);stroke:#5B2702;stroke-miterlimit:10;}
	.st8{fill:url(#SVGID_10_);stroke:#5B2702;stroke-miterlimit:10;}
</style>
<title>smile</title>
<radialGradient id="SVGID_1_" cx="75" cy="77" r="75" gradientTransform="matrix(1 0 0 -1 0 152)" gradientUnits="userSpaceOnUse">
	<stop  offset="0" style="stop-color:#FFDA30"/>
	<stop  offset="1" style="stop-color:#FE780B"/>
</radialGradient>
<circle class="st0" cx="75" cy="75" r="75"/>
<radialGradient id="SVGID_2_" cx="75" cy="77" r="74" gradientTransform="matrix(1 0 0 -1 0 152)" gradientUnits="userSpaceOnUse">
	<stop  offset="0.59" style="stop-color:#FFDA30"/>
	<stop  offset="1" style="stop-color:#FF8105"/>
</radialGradient>
<circle class="st1" cx="75" cy="75" r="74"/>
<linearGradient id="SVGID_3_" gradientUnits="userSpaceOnUse" x1="75" y1="15.5" x2="75" y2="138.5" gradientTransform="matrix(1 0 0 -1 0 152)">
	<stop  offset="0" style="stop-color:#FFFFFF;stop-opacity:0"/>
	<stop  offset="0.52" style="stop-color:#FFA452;stop-opacity:0.52"/>
	<stop  offset="1" style="stop-color:#FFFEE7"/>
</linearGradient>
<circle class="st2" cx="75" cy="75" r="61.5"/>
<linearGradient id="SVGID_4_" gradientUnits="userSpaceOnUse" x1="75" y1="3" x2="75" y2="151" gradientTransform="matrix(1 0 0 -1 0 152)">
	<stop  offset="0" style="stop-color:#FFDA30;stop-opacity:0"/>
	<stop  offset="1" style="stop-color:#D17404"/>
</linearGradient>
<circle class="st3" cx="75" cy="75" r="74"/>
<g>
	<defs>
		<circle id="SVGID_5_" cx="75" cy="75" r="75"/>
	</defs>
	<clipPath id="SVGID_6_">
		<use xlink:href="#SVGID_5_"  style="overflow:visible;"/>
	</clipPath>
	
		<radialGradient id="SVGID_7_" cx="74.99" cy="-5.1395" r="63.0161" gradientTransform="matrix(1 0 0 -0.57 1.000000e-02 23.54)" gradientUnits="userSpaceOnUse">
		<stop  offset="0" style="stop-color:#FFFFFF"/>
		<stop  offset="1" style="stop-color:#FFFFFF;stop-opacity:0"/>
	</radialGradient>
	<path class="st4" d="M150,11c0,23.4-33.6,42.3-75,42.3S0,34.4,0,11C0,7.2,0.9,3.4,2.6,0h144.9C149.1,3.4,150,7.2,150,11z"/>
</g>
<g>
	<ellipse class="st5" cx="96.3" cy="61.1" rx="8.9" ry="12.8"/>
	<ellipse class="st5" cx="53.8" cy="61.1" rx="8.9" ry="12.8"/>
	<path class="st5" d="M45.1,98.1c-0.8-1,0.5-2.4,1.5-1.6c3,2.5,6.3,4.7,9.8,6.4c2.9,1.4,5.9,2.5,9,3.3c3.1,0.7,6.2,1.1,9.4,1.2
		c3.2,0.1,6.3-0.3,9.4-0.9c3.1-0.6,6.2-1.7,9.1-3c3-1.4,5.8-3,8.5-5c0.5-0.4,1-0.7,1.5-1.1c0.5-0.4,1.2-0.2,1.5,0.2
		c0.3,0.4,0.3,1-0.1,1.4c-2.7,3.3-6,6.1-9.6,8.3c-6.2,3.7-13.2,5.6-20.4,5.5c-7.2-0.1-14.2-2.2-20.3-6.1c-3-2-5.7-4.3-8.1-7
		C46,99.1,45.5,98.6,45.1,98.1z"/>
	
		<radialGradient id="SVGID_8_" cx="53.75" cy="158.7924" r="7.59" gradientTransform="matrix(1 0 0 -1.59 0 312.3)" gradientUnits="userSpaceOnUse">
		<stop  offset="0" style="stop-color:#A66707"/>
		<stop  offset="0.36" style="stop-color:#A36507"/>
		<stop  offset="0.58" style="stop-color:#9B5E06"/>
		<stop  offset="0.76" style="stop-color:#8C5105"/>
		<stop  offset="0.93" style="stop-color:#784004"/>
		<stop  offset="1" style="stop-color:#6C3603"/>
	</radialGradient>
	<ellipse class="st6" cx="53.8" cy="60" rx="7.5" ry="12"/>
	
		<radialGradient id="SVGID_9_" cx="96.25" cy="158.2924" r="7.59" gradientTransform="matrix(1 0 0 -1.59 0 312)" gradientUnits="userSpaceOnUse">
		<stop  offset="0" style="stop-color:#A66707"/>
		<stop  offset="0.36" style="stop-color:#A36507"/>
		<stop  offset="0.58" style="stop-color:#9B5E06"/>
		<stop  offset="0.76" style="stop-color:#8C5105"/>
		<stop  offset="0.93" style="stop-color:#784004"/>
		<stop  offset="1" style="stop-color:#6C3603"/>
	</radialGradient>
	<ellipse class="st7" cx="96.3" cy="60.5" rx="7.5" ry="12"/>
</g>
<radialGradient id="SVGID_10_" cx="75.67" cy="53.8778" r="34.07" gradientTransform="matrix(1 0 0 -0.91 0 129.4)" gradientUnits="userSpaceOnUse">
	<stop  offset="0" style="stop-color:#6C3603"/>
	<stop  offset="0.11" style="stop-color:#6C3603"/>
	<stop  offset="0.81" style="stop-color:#6C3603"/>
	<stop  offset="0.92" style="stop-color:#7F4300"/>
	<stop  offset="0.96" style="stop-color:#7A4001"/>
	<stop  offset="1" style="stop-color:#6C3603"/>
</radialGradient>
<path class="st8" d="M45.6,97.3c-0.4-0.4-0.4-1.1,0-1.5c0.4-0.4,1.1-0.4,1.5,0c3,2.4,6.2,4.4,9.6,6c2.9,1.3,5.8,2.4,8.9,3.1
	c3,0.7,6.2,1.1,9.3,1.1c3.1,0.1,6.2-0.2,9.3-0.9c3.1-0.6,6.1-1.6,9-2.8c2.9-1.3,5.7-2.8,8.3-4.7c0.5-0.3,1-0.7,1.5-1.1
	c0.4-0.4,1.1-0.4,1.5,0c0.4,0.4,0.4,1.1,0,1.5c-2.7,3.1-5.9,5.7-9.5,7.8c-6.1,3.5-13.1,5.3-20.1,5.2c-3.5-0.1-7-0.6-10.4-1.5
	c-3.4-1-6.6-2.4-9.6-4.2c-2.9-1.8-5.6-4-8-6.6C46.4,98.3,46,97.8,45.6,97.3z"/>
</svg>
