<?xml version="1.0" encoding="utf-8"?>
<!-- Generator: Adobe Illustrator 22.0.0, SVG Export Plug-In . SVG Version: 6.00 Build 0)  -->
<svg version="1.1" id="Layer_1" xmlns="http://www.w3.org/2000/svg" xmlns:xlink="http://www.w3.org/1999/xlink" x="0px" y="0px"
	 viewBox="0 0 18.3 28" style="enable-background:new 0 0 18.3 28;" xml:space="preserve">
<style type="text/css">
	.st0{display:none;}
	.st1{display:inline;}
	.st2{fill:#282D3A;}
	.st3{fill:#282D3A;stroke:#282D3A;stroke-width:2;stroke-linejoin:round;stroke-miterlimit:10;}
	.st4{fill:#FFFFFF;}
	.st5{fill:#FFFFFF;stroke:#FFFFFF;stroke-width:2;stroke-linejoin:round;stroke-miterlimit:10;}
	.st6{display:inline;fill:#85898C;stroke:#85898C;stroke-width:2;stroke-linejoin:round;stroke-miterlimit:10;}
	.st7{display:inline;fill:#FFFFFF;}
	.st8{display:inline;fill:#85898C;}
	.st9{display:none;fill:#B2B2B2;}
	.st10{fill:none;stroke:#000000;stroke-width:1.5;stroke-linecap:round;stroke-linejoin:round;stroke-miterlimit:10;}
	.st11{display:none;fill:none;stroke:#FFFFFF;stroke-width:2;stroke-linecap:round;stroke-linejoin:round;stroke-miterlimit:10;}
	.st12{display:inline;fill:none;stroke:#282D3A;stroke-width:1.5;stroke-linejoin:round;stroke-miterlimit:10;}
	.st13{display:inline;fill:#282D3A;}
	.st14{display:inline;fill:none;stroke:#000000;stroke-width:1.5;stroke-miterlimit:10;}
	.st15{fill:#010002;}
	.st16{display:inline;fill:#010002;}
	.st17{fill:none;stroke:#FFFFFF;stroke-width:1.5;stroke-linecap:round;stroke-linejoin:round;stroke-miterlimit:10;}
	.st18{fill:none;stroke:#FFFFFF;stroke-width:1.5;stroke-miterlimit:10;}
	.st19{fill:#FFFFFF;stroke:#FFFFFF;stroke-width:1.5;stroke-miterlimit:10;}
	.st20{display:inline;fill:none;stroke:#FFFFFF;stroke-linecap:round;stroke-miterlimit:10;}
	.st21{display:none;fill:#FFFFFF;}
	
		.st22{display:inline;fill:none;stroke:#282D3A;stroke-width:1.5;stroke-linecap:round;stroke-linejoin:round;stroke-miterlimit:10;}
	.st23{clip-path:url(#SVGID_2_);}
	.st24{fill:none;stroke:#282D3A;stroke-width:1.5;stroke-linecap:round;stroke-linejoin:round;stroke-miterlimit:10;}
	.st25{fill:#F5F5F5;}
	.st26{display:inline;fill:#282D3A;stroke:#282D3A;stroke-width:2;stroke-linejoin:round;stroke-miterlimit:10;}
	.st27{display:inline;fill:none;stroke:#282D3A;stroke-linecap:round;stroke-linejoin:round;stroke-miterlimit:10;}
	
		.st28{display:inline;fill:none;stroke:#000000;stroke-width:1.5;stroke-linecap:round;stroke-linejoin:round;stroke-miterlimit:10;}
	.st29{display:inline;fill:none;stroke:#282D3A;stroke-width:2;stroke-linecap:round;stroke-linejoin:round;stroke-miterlimit:10;}
	.st30{display:none;fill:#282D3A;}
</style>
<g id="_x35_s" class="st0">
	<g class="st1">
		<path class="st2" d="M13.9,1.7h-10c-1.1,0-2,0.9-2,2v20c0,1.1,0.9,2,2,2h10c1.1,0,2-0.9,2-2v-20C15.9,2.6,15,1.7,13.9,1.7z
			 M8.9,24.7c-0.5,0-1-0.4-1-1c0-0.5,0.5-1,1-1c0.6,0,1,0.5,1,1C9.9,24.3,9.5,24.7,8.9,24.7z M14.4,20.7c0,0.4-0.2,0.7-0.5,0.9
			c-0.1,0.1-0.3,0.1-0.5,0.1h-9c-0.2,0-0.3,0-0.5-0.1c-0.3-0.2-0.5-0.5-0.5-0.9v-15c0-0.4,0.2-0.7,0.5-0.9c0.2-0.1,0.3-0.1,0.5-0.1
			h9c0.2,0,0.4,0,0.5,0.1c0.3,0.2,0.5,0.5,0.5,0.9V20.7z"/>
	</g>
</g>
<g id="_x36_" class="st0">
	<g class="st1">
		<path class="st2" d="M14.6,1h-11c-1.1,0-2,0.9-2,2v22c0,1.1,0.9,2,2,2h11c1.1,0,2-0.9,2-2V3C16.6,1.9,15.7,1,14.6,1z M9.1,26
			c-0.6,0-1-0.5-1-1c0-0.6,0.4-1,1-1c0.5,0,1,0.4,1,1C10.1,25.5,9.7,26,9.1,26z M15.1,22c0,0.4-0.2,0.7-0.5,0.9
			c-0.2,0.1-0.3,0.1-0.5,0.1h-10c-0.2,0-0.4,0-0.5-0.1c-0.3-0.2-0.5-0.5-0.5-0.9V5c0-0.4,0.2-0.7,0.5-0.9C3.8,4,3.9,4,4.1,4h10
			c0.2,0,0.3,0,0.5,0.1c0.3,0.2,0.5,0.5,0.5,0.9V22z"/>
	</g>
</g>
<g id="plus" class="st0">
	<g id="_x36__2_" class="st1">
		<g>
			<path class="st2" d="M20.7-1H7.5c-1.1,0-2,0.9-2,2v1h4c0.4,0,0.8,0.1,1.1,0.3h9.5c0.2,0,0.4,0.1,0.6,0.2C21,2.7,21.1,3,21.1,3.3
				v20.2c0,0.3-0.2,0.6-0.4,0.8c-0.2,0.1-0.4,0.2-0.6,0.2h-8.6V28c0,0.5-0.4,1-1,1h10.2c1.1,0,2-0.9,2-2V1C22.7-0.1,21.8-1,20.7-1z
				 M15.3,27c-0.1,0.6-0.6,1-1.2,1c-0.6,0-1.1-0.4-1.2-1c0-0.1,0-0.1,0-0.2c0-0.6,0.5-1.2,1.2-1.2c0.7,0,1.2,0.5,1.2,1.2
				C15.3,26.9,15.3,26.9,15.3,27z"/>
		</g>
	</g>
	<g id="_x36__1_" class="st1">
		<g>
			<path class="st2" d="M8.5,3h-11C-2.8,3-3,3-3.3,3.1C-4,3.5-4.5,4.2-4.5,5v22c0,1.1,0.9,2,2,2h11c0.7,0,1.4-0.4,1.7-1
				c0.2-0.3,0.3-0.6,0.3-1V5C10.5,3.9,9.6,3,8.5,3z M3,28c-0.5,0-1-0.5-1-1s0.5-1,1-1c0.6,0,1,0.5,1,1S3.6,28,3,28z M9,24
				c0,0.2,0,0.3-0.1,0.5c-0.1,0.2-0.2,0.3-0.4,0.4C8.4,24.9,8.2,25,8,25H-2c-0.2,0-0.3,0-0.5-0.1C-2.8,24.7-3,24.3-3,24V7
				c0-0.4,0.2-0.7,0.5-0.9C-2.3,6-2.1,6-2,6H8c0.2,0,0.4,0,0.5,0.1C8.8,6.3,9,6.6,9,7V24z"/>
		</g>
	</g>
</g>
<g id="x">
	<g>
		<path class="st2" d="M15.1,1h-12c-1.1,0-2,0.9-2,2v23c0,1.1,0.9,2,2,2h12c1.1,0,2-0.9,2-2V3C17.1,1.9,16.2,1,15.1,1z M16.1,26
			c0,0.6-0.5,1-1,1h-12c-0.6,0-1-0.4-1-1V3c0-0.5,0.4-1,1-1h1.4v0.3c0,0.3,0.1,0.5,0.3,0.7C5,3.1,5.3,3.2,5.5,3.2h7.2
			c0.3,0,0.5-0.1,0.7-0.3c0.2-0.2,0.3-0.4,0.3-0.7V2h1.4c0.5,0,1,0.5,1,1V26z"/>
	</g>
</g>
<g id="all" class="st0">
	<g id="_x35_s_1_" class="st1">
		<path class="st3" d="M104.9,24.7h-10c-0.6,0-1-0.4-1-1v-20c0-0.6,0.4-1,1-1h10c0.6,0,1,0.4,1,1v20
			C105.9,24.3,105.5,24.7,104.9,24.7z"/>
		<path class="st4" d="M104.4,21.7h-9c-0.6,0-1-0.4-1-1v-15c0-0.6,0.4-1,1-1h9c0.6,0,1,0.4,1,1v15C105.4,21.3,105,21.7,104.4,21.7z"
			/>
		<circle class="st4" cx="99.9" cy="23.7" r="1"/>
	</g>
	<g id="x_2_" class="st1">
		<path class="st5" d="M115.9,24.7h-13v-24c0-0.6,0.4-1,1-1h12c0.6,0,1,0.4,1,1v23C116.9,24.3,116.5,24.7,115.9,24.7z"/>
		<path class="st3" d="M116.9,24.7h-12c-0.6,0-1-0.4-1-1v-23c0-0.6,0.4-1,1-1h12c0.6,0,1,0.4,1,1v23
			C117.9,24.3,117.5,24.7,116.9,24.7z"/>
		<path class="st4" d="M116.9,24.7h-12c-0.6,0-1-0.4-1-1v-23c0-0.6,0.4-1,1-1h12c0.6,0,1,0.4,1,1v23
			C117.9,24.3,117.5,24.7,116.9,24.7z"/>
		<path class="st2" d="M114.5,1h-7.2c-0.6,0-1-0.4-1-1v-1.3h9.2V0C115.5,0.6,115.1,1,114.5,1z"/>
	</g>
</g>
<g id="x_1_" class="st0">
	<path class="st6" d="M78.9,24.7h-12c-0.6,0-1-0.4-1-1v-23c0-0.6,0.4-1,1-1h12c0.6,0,1,0.4,1,1v23C79.9,24.3,79.5,24.7,78.9,24.7z"
		/>
	<path class="st7" d="M78.9,24.7h-12c-0.6,0-1-0.4-1-1v-23c0-0.6,0.4-1,1-1h12c0.6,0,1,0.4,1,1v23C79.9,24.3,79.5,24.7,78.9,24.7z"
		/>
	<path class="st8" d="M76.5,1h-7.2c-0.6,0-1-0.4-1-1v-1.3h9.2V0C77.5,0.6,77.1,1,76.5,1z"/>
</g>
<rect x="-16.6" y="145.4" class="st9" width="50" height="50"/>
<g class="st0">
	<g class="st1">
		<rect x="-13.9" y="183" class="st10" width="16.8" height="8.1"/>
		<rect x="-13.9" y="174.9" class="st10" width="16.8" height="8.1"/>
		<rect x="-13.9" y="166.9" class="st10" width="16.8" height="8.1"/>
		<path class="st10" d="M9.9,186.2l-7,4.9L9.9,186.2z"/>
		<path class="st10" d="M9.9,178.1l-7,4.9L9.9,178.1z"/>
		<path class="st10" d="M9.9,170.1l-7,4.9L9.9,170.1z"/>
		<path class="st10" d="M8.9,162.7l-6,4.2L8.9,162.7z"/>
		<path class="st10" d="M-0.7,157.7l-13.2,9.1L-0.7,157.7z"/>
		<line class="st10" x1="-0.7" y1="157.7" x2="9.9" y2="157.7"/>
	</g>
	<circle class="st1" cx="-5.5" cy="170.9" r="1.5"/>
	<circle class="st1" cx="-5.5" cy="178.9" r="1.5"/>
	<circle class="st1" cx="-5.5" cy="187" r="1.5"/>
</g>
<rect x="63.4" y="145.4" class="st9" width="50" height="50"/>
<rect x="143.4" y="145.4" class="st9" width="50" height="50"/>
<rect x="143.4" y="85.4" class="st9" width="50" height="50"/>
<rect x="15.4" y="-40.6" class="st9" width="50" height="50"/>
<circle class="st0" cx="34.4" cy="125.5" r="10"/>
<polyline class="st11" points="30.6,65.5 33.7,68.9 37.7,61.2 "/>
<g id="x_3_" class="st0">
	<path class="st12" d="M98.2,130H78.6c-0.6,0-1-0.4-1-1V92.3c0-0.6,0.4-1,1-1h19.6c0.6,0,1,0.4,1,1V129
		C99.2,129.5,98.8,130,98.2,130z"/>
	<path class="st13" d="M94.5,94.3H82.3c-0.6,0-1-0.4-1-1v-2.5h14.2v2.5C95.5,93.8,95.1,94.3,94.5,94.3z"/>
</g>
<g id="_x32_" class="st0">
	<path class="st14" d="M105.6,156.7c0.4,27.1-17.2,35.7-17.2,35.7s-17.5-8.7-17.1-35.7c0,0,7.9-0.8,17.1-6.3
		C97.7,155.8,105.6,156.7,105.6,156.7z"/>
	<path class="st1" d="M98.9,161.4c0.2,16.5-10.5,22.8-10.5,22.8s-10.7-6.3-10.4-22.8c0,0,4.8-0.5,10.4-3.9
		C94.1,160.9,98.9,161.4,98.9,161.4z"/>
</g>
<g id="_x33_" class="st0">
	<g class="st1">
		<path class="st15" d="M168,128c-7.6,0-14.3-4.8-16.8-12c-0.1-0.2-0.1-0.4,0-0.6c0.1-0.2,0.3-0.3,0.5-0.4c0.1,0,0.2,0,0.3,0
			c0.3,0,0.7,0.2,0.8,0.6c2.2,6.5,8.4,10.9,15.2,10.9c8.9,0,16.1-7.2,16.1-16.1c0-0.4,0.4-0.8,0.8-0.8c0.4,0,0.8,0.4,0.8,0.8
			C185.7,120,177.8,128,168,128z"/>
		<path class="st15" d="M151.1,111.1c-0.4,0-0.8-0.4-0.8-0.8c0-9.8,8-17.7,17.7-17.7c7.6,0,14.3,4.8,16.8,12c0.1,0.2,0.1,0.4,0,0.6
			c-0.1,0.2-0.3,0.3-0.5,0.4c-0.1,0-0.2,0-0.3,0c-0.3,0-0.7-0.2-0.8-0.5c-2.2-6.5-8.3-10.9-15.2-10.9c-8.9,0-16.1,7.2-16.1,16.1
			C151.9,110.7,151.5,111.1,151.1,111.1z"/>
		<path class="st15" d="M184.3,105.8c-0.1,0-0.2,0-0.2,0l-7.1-2.2c-0.4-0.1-0.7-0.6-0.5-1c0.1-0.3,0.4-0.6,0.8-0.6
			c0.1,0,0.2,0,0.2,0l6.4,2l2.4-6c0.1-0.3,0.4-0.5,0.8-0.5c0.1,0,0.2,0,0.3,0.1c0.2,0.1,0.4,0.2,0.4,0.4c0.1,0.2,0.1,0.4,0,0.6
			l-2.7,6.7C184.9,105.6,184.6,105.8,184.3,105.8z"/>
		<path class="st15" d="M149.2,123.1c-0.1,0-0.2,0-0.3-0.1c-0.4-0.2-0.6-0.6-0.5-1.1l2.7-6.7c0.1-0.3,0.4-0.5,0.7-0.5
			c0.1,0,0.2,0,0.2,0l7.1,2.2c0.4,0.1,0.7,0.6,0.5,1c-0.1,0.3-0.4,0.6-0.8,0.6c-0.1,0-0.2,0-0.2,0l-6.4-2l-2.4,6
			C149.8,122.9,149.5,123.1,149.2,123.1z"/>
	</g>
	<circle class="st16" cx="168.4" cy="110.4" r="6.1"/>
</g>
<g id="_x34_" class="st0">
	<g class="st1">
		<path class="st17" d="M252.2,173v1.9l1.9,1.3l5.1,1.6c2,0.6,2.6,2.5,2.6,2.5l1.9,9.3c0.4,2-2.1,2.3-2.1,2.3h-25.2
			c0,0-2.5-0.2-2.1-2.3l1.9-9.3c0,0,0.6-1.9,2.6-2.5l5.1-1.6l1.9-1.3V173"/>
		<g id="head">
			<path class="st18" d="M241.3,161.8v4.3c0,4.2,3.4,7.7,7.7,7.7h0c4.2,0,7.7-3.4,7.7-7.7v-4.3"/>
			<path class="st18" d="M239.5,161.5c-0.8,0.3-1.3,1-1.3,1.9c0,1.1,0.9,2,2,2c0.4,0,0.7-0.1,1-0.3"/>
			<path class="st18" d="M256.6,165.2c0.3,0.2,0.6,0.3,1,0.3c1.1,0,2-0.9,2-2c0-0.9-0.5-1.6-1.3-1.9"/>
			<path class="st19" d="M258,162c-0.8,0.6-2-0.6-2-0.6c-0.4-0.4-0.6-0.9-0.8-1.4c-0.1-0.2-0.2-0.5-0.3-0.7
				c-0.1-0.3-0.1-0.5-0.2-0.8c0-0.3-0.2-0.5-0.4-0.6c-0.7-0.5-1.3,0-1.9,0.2c-0.4,0.1-0.8,0.2-1.2,0.3c-0.8,0.1-1.6,0.2-2.4,0.2
				c-0.8,0-1.6-0.1-2.4-0.2c-0.4-0.1-0.8-0.2-1.2-0.3c-0.7-0.2-1.3-0.7-1.9-0.2c-0.2,0.2-0.4,0.4-0.4,0.6c-0.1,0.3-0.1,0.5-0.2,0.8
				c-0.1,0.2-0.2,0.5-0.3,0.7c-0.2,0.5-0.4,1-0.8,1.4c0,0-1.2,1.1-2,0.6c0,0-0.6-0.8-0.4-2.8c0,0,0.9-8.5,9.5-8.5
				c8.7,0,9.5,8.5,9.5,8.5C258.6,161.2,258,162,258,162z"/>
		</g>
		<line class="st17" x1="240.1" y1="191.8" x2="240.1" y2="185.4"/>
		<line class="st17" x1="257.7" y1="191.8" x2="257.7" y2="185.4"/>
		<polyline class="st17" points="245.6,174.9 248.9,179.4 245.4,180.5 243.8,176.2 		"/>
		<polyline class="st17" points="252.2,174.9 248.9,179.4 252.5,180.5 254.1,176.2 		"/>
		<line class="st17" x1="248.9" y1="179.4" x2="248.9" y2="185.7"/>
	</g>
	<g class="st1">
		<circle class="st4" cx="246.4" cy="164" r="1"/>
		<circle class="st4" cx="251.4" cy="164" r="1"/>
	</g>
	<path class="st20" d="M246.8,168.3c0,0.7,0.9,1.3,2.1,1.3s2.1-0.6,2.1-1.3"/>
</g>
<path class="st21" d="M35.8,122.5l0.5-1.4c0.3-0.9,0.1-2.4-0.8-2.9c-0.3-0.2-0.7-0.3-1.1-0.2c-0.2,0.1-0.4,0.2-0.5,0.4
	c-0.1,0.2-0.1,0.4-0.2,0.7c-0.1,0.6-0.4,1.1-0.8,1.5c-0.7,0.7-3,2.8-3,2.8v7.6h7.9c1.1,0,1.8-1.2,1.2-2.1c0.6-0.4,0.8-1.2,0.5-1.9
	c0.6-0.4,0.8-1.2,0.5-1.9c1.1-0.7,0.7-2.4-0.5-2.6C39.4,122.5,35.8,122.5,35.8,122.5z"/>
<g class="st0">
	<path class="st22" d="M146.2,99.7v8.1c0,0.3,0.2,0.5,0.4,0.8c0.4,0.4,1,0.7,0.9,1.5c0,0,0,0,0,0.1c-0.1,0.9,0.9,1.9,1.7,2.5
		c0.2,0.2,0.4,0.4,0.5,0.5c0.2,0.2,0.5,0.7,0.8,1.1c0.4,0.6,0.9,1.1,1.2,1.1c0.4-0.1,1.3-0.4,1.8,0.2c0.4,0.5,2.4,1.1,3.4,1.2h0.6
		c0.6-0.1,2-0.3,2.9,0c0.3,0.1,0.6,0.3,0.6,0.6c0.1,0.3,0.2,0.7,0.4,1c0.4,0.7,1,1.2,1,1.2s0.4-0.7,0.6-1.1c0,0,0-0.1,0.1-0.1
		c0.1-0.1,0.3-0.1,0.6,0c0.4,0.2,0.8,0.8,1.1,1.9c0.1,0.2,0.1,0.4,0.2,0.6c0.3,0.7,0.8,1.2,1.3,1.6c0.6,0.5,1.1,0.7,1.1,0.7
		s0-0.3,0-0.7c0-0.5,0-1.1,0-1.6c0-0.2,0-0.3,0-0.5c0.1-0.9,2.5-1.7,3-1.8c0.4-0.1,3.4,1.4,3.4,0.9c0-0.4,0.5-0.8,1-1.2
		c0.1-0.1,0.2-0.2,0.3-0.2c0.2-0.2,0.5,0,0.8,0.2c0.5,0.5,1,1.2,1,0.9c0.1-0.5,0.5,0.8,0.7,1.4c0.1,0.3,0.2,0.8,0.3,1.3
		c0,0.3,0.1,0.6,0,0.9c0,0.2,0.1,0.4,0.2,0.7c0.4,0.7,2.1,0.5,2.3,0.4c0.1-0.1,0.2-0.7,0.3-1.4c0-0.5,0-1.1,0-1.6
		c-0.1-0.3-0.1-0.6-0.3-0.7c-0.3-0.3-0.5-1-0.6-1.8c-0.1-0.5-0.1-1.1,0-1.6c0-0.4,0.1-0.7,0.3-0.8c0.2-0.2,1.1-0.9,1.9-1.7
		c0.6-0.5,1.1-1.1,1.6-1.6c0.6-0.7,1-1.3,0.7-1.4c-0.5-0.2-0.6-0.6-0.5-1.1c0-0.4,0.1-0.9,0.2-1.5c0,0,0,0,0-0.1
		c0.2-1.4,1,0.3,1.4-1.6c0.1-0.4,0.3-0.7,0.5-0.9c1-0.9,2.9-0.9,2.6-1.2c-0.1-0.1-0.2-0.2-0.2-0.4c-0.1-0.5,0-1.2,0.5-1.6
		c0.2-0.2,0.7-0.5,1.2-0.9c0.7-0.6,1.5-1.3,1.3-1.5l0,0c0,0,0,0,0,0c-0.4-0.4-2.9-0.1-2.9-0.1s0,0.1-0.1,0.1
		c-0.1,0.2-0.3,0.5-0.7,0.6c-0.6,0.2-9.1,0.3-9.3-0.3c0-0.1-0.1-0.2-0.2-0.3c-0.4-0.3-1.2-0.2-1.2-0.2s-0.1,0.1-0.2,0.2
		c-0.2,0.3-0.7,0.8-1,0.9c-0.4,0.1-0.5-0.4-0.4-0.9c0-0.1,0-0.3,0.1-0.4c0.1-0.3-0.9-1.5-1.7-2.1c-0.4-0.3-0.7-0.4-0.9-0.3
		c-0.7,0.2-4.2-1.2-4.2-1.2h-21.7c0,0,0,0.5-0.1,1c0,0,0,0.1,0,0.1c0,0.2-0.1,0.4-0.1,0.5C146.8,97.9,146.2,98.8,146.2,99.7z
		 M191.5,100.5"/>
	<g class="st1">
		<defs>
			<path id="SVGID_1_" d="M146.2,99.7v8.1c0,0.3,0.2,0.5,0.4,0.8c0.4,0.4,1,0.7,0.9,1.5c0,0,0,0,0,0.1c-0.1,0.9,0.9,1.9,1.7,2.5
				c0.2,0.2,0.4,0.4,0.5,0.5c0.2,0.2,0.5,0.7,0.8,1.1c0.4,0.6,0.9,1.1,1.2,1.1c0.4-0.1,1.3-0.4,1.8,0.2c0.4,0.5,2.4,1.1,3.4,1.2h0.6
				c0.6-0.1,2-0.3,2.9,0c0.3,0.1,0.6,0.3,0.6,0.6c0.1,0.3,0.2,0.7,0.4,1c0.4,0.7,1,1.2,1,1.2s0.4-0.7,0.6-1.1c0,0,0-0.1,0.1-0.1
				c0.1-0.1,0.3-0.1,0.6,0c0.4,0.2,0.8,0.8,1.1,1.9c0.1,0.2,0.1,0.4,0.2,0.6c0.3,0.7,0.8,1.2,1.3,1.6c0.6,0.5,1.1,0.7,1.1,0.7
				s0-0.3,0-0.7c0-0.5,0-1.1,0-1.6c0-0.2,0-0.3,0-0.5c0.1-0.9,2.5-1.7,3-1.8c0.4-0.1,3.4,1.4,3.4,0.9c0-0.4,0.5-0.8,1-1.2
				c0.1-0.1,0.2-0.2,0.3-0.2c0.2-0.2,0.5,0,0.8,0.2c0.5,0.5,1,1.2,1,0.9c0.1-0.5,0.5,0.8,0.7,1.4c0.1,0.3,0.2,0.8,0.3,1.3
				c0,0.3,0.1,0.6,0,0.9c0,0.2,0.1,0.4,0.2,0.7c0.4,0.7,2.1,0.5,2.3,0.4c0.1-0.1,0.2-0.7,0.3-1.4c0-0.5,0-1.1,0-1.6
				c-0.1-0.3-0.1-0.6-0.3-0.7c-0.3-0.3-0.5-1-0.6-1.8c-0.1-0.5-0.1-1.1,0-1.6c0-0.4,0.1-0.7,0.3-0.8c0.2-0.2,1.1-0.9,1.9-1.7
				c0.6-0.5,1.1-1.1,1.6-1.6c0.6-0.7,1-1.3,0.7-1.4c-0.5-0.2-0.6-0.6-0.5-1.1c0-0.4,0.1-0.9,0.2-1.5c0,0,0,0,0-0.1
				c0.2-1.4,1,0.3,1.4-1.6c0.1-0.4,0.3-0.7,0.5-0.9c1-0.9,2.9-0.9,2.6-1.2c-0.1-0.1-0.2-0.2-0.2-0.4c-0.1-0.5,0-1.2,0.5-1.6
				c0.2-0.2,0.7-0.5,1.2-0.9c0.7-0.6,1.5-1.3,1.3-1.5l0,0c0,0,0,0,0,0c-0.4-0.4-2.9-0.1-2.9-0.1s0,0.1-0.1,0.1
				c-0.1,0.2-0.3,0.5-0.7,0.6c-0.6,0.2-9.1,0.3-9.3-0.3c0-0.1-0.1-0.2-0.2-0.3c-0.4-0.3-1.2-0.2-1.2-0.2s-0.1,0.1-0.2,0.2
				c-0.2,0.3-0.7,0.8-1,0.9c-0.4,0.1-0.5-0.4-0.4-0.9c0-0.1,0-0.3,0.1-0.4c0.1-0.3-0.9-1.5-1.7-2.1c-0.4-0.3-0.7-0.4-0.9-0.3
				c-0.7,0.2-4.2-1.2-4.2-1.2h-21.7c0,0,0,0.5-0.1,1c0,0,0,0.1,0,0.1c0,0.2-0.1,0.4-0.1,0.5C146.8,97.9,146.2,98.8,146.2,99.7z
				 M191.5,100.5"/>
		</defs>
		<clipPath id="SVGID_2_">
			<use xlink:href="#SVGID_1_"  style="overflow:visible;"/>
		</clipPath>
		<g class="st23">
			<line class="st24" x1="144.3" y1="120" x2="194.6" y2="120"/>
			<line class="st24" x1="144.3" y1="115" x2="194.6" y2="115"/>
			<line class="st24" x1="144.3" y1="110" x2="194.6" y2="110"/>
			<line class="st24" x1="144.3" y1="105" x2="194.6" y2="105"/>
			<line class="st24" x1="144.3" y1="100" x2="194.6" y2="100"/>
		</g>
	</g>
	<path class="st13" d="M146.2,108.2h17.7c0.6,0,1.1-0.5,1.1-1.1V96.4h-17.9l-1.1,3.3L146.2,108.2z"/>
	<g class="st1">
		<path class="st25" d="M162.7,105.4l-1,0l-0.1-0.2l-0.2-0.7c0-0.1-0.2-0.1-0.2,0l-0.2,0.7l-0.1,0.2l-1,0c-0.1,0-0.2,0.2-0.1,0.2
			l0.8,0.6l-0.3,0.9c0,0.1,0.1,0.2,0.2,0.1l0.8-0.6l0.8,0.6c0.1,0.1,0.2,0,0.2-0.1l-0.3-0.9l0.8-0.6
			C162.9,105.5,162.8,105.4,162.7,105.4z"/>
		<path class="st25" d="M162.7,101.4l-1,0l-0.1-0.2l-0.2-0.7c0-0.1-0.2-0.1-0.2,0l-0.2,0.7l-0.1,0.2l-1,0c-0.1,0-0.2,0.2-0.1,0.2
			l0.8,0.6l-0.3,0.9c0,0.1,0.1,0.2,0.2,0.1l0.8-0.6l0.8,0.6c0.1,0.1,0.2,0,0.2-0.1l-0.3-0.9l0.8-0.6
			C162.9,101.5,162.8,101.4,162.7,101.4z"/>
		<path class="st25" d="M162.7,97.4l-1,0l-0.1-0.2l-0.2-0.7c0-0.1-0.2-0.1-0.2,0l-0.2,0.7l-0.1,0.2l-1,0c-0.1,0-0.2,0.2-0.1,0.2
			l0.8,0.6l-0.3,0.9c0,0.1,0.1,0.2,0.2,0.1l0.8-0.6l0.8,0.6c0.1,0.1,0.2,0,0.2-0.1l-0.3-0.9l0.8-0.6
			C162.9,97.5,162.8,97.4,162.7,97.4z"/>
	</g>
	<g class="st1">
		<path class="st25" d="M158.7,105.4l-1,0l-0.1-0.2l-0.2-0.7c0-0.1-0.2-0.1-0.2,0l-0.2,0.7l-0.1,0.2l-1,0c-0.1,0-0.2,0.2-0.1,0.2
			l0.8,0.6l-0.3,0.9c0,0.1,0.1,0.2,0.2,0.1l0.8-0.6l0.8,0.6c0.1,0.1,0.2,0,0.2-0.1l-0.3-0.9l0.8-0.6
			C158.9,105.5,158.8,105.4,158.7,105.4z"/>
		<path class="st25" d="M158.7,101.4l-1,0l-0.1-0.2l-0.2-0.7c0-0.1-0.2-0.1-0.2,0l-0.2,0.7l-0.1,0.2l-1,0c-0.1,0-0.2,0.2-0.1,0.2
			l0.8,0.6l-0.3,0.9c0,0.1,0.1,0.2,0.2,0.1l0.8-0.6l0.8,0.6c0.1,0.1,0.2,0,0.2-0.1l-0.3-0.9l0.8-0.6
			C158.9,101.5,158.8,101.4,158.7,101.4z"/>
		<path class="st25" d="M158.7,97.4l-1,0l-0.1-0.2l-0.2-0.7c0-0.1-0.2-0.1-0.2,0l-0.2,0.7l-0.1,0.2l-1,0c-0.1,0-0.2,0.2-0.1,0.2
			l0.8,0.6l-0.3,0.9c0,0.1,0.1,0.2,0.2,0.1l0.8-0.6l0.8,0.6c0.1,0.1,0.2,0,0.2-0.1l-0.3-0.9l0.8-0.6
			C158.9,97.5,158.8,97.4,158.7,97.4z"/>
	</g>
	<g class="st1">
		<path class="st25" d="M154.7,105.4l-1,0l-0.1-0.2l-0.2-0.7c0-0.1-0.2-0.1-0.2,0l-0.2,0.7l-0.1,0.2l-1,0c-0.1,0-0.2,0.2-0.1,0.2
			l0.8,0.6l-0.3,0.9c0,0.1,0.1,0.2,0.2,0.1l0.8-0.6l0.8,0.6c0.1,0.1,0.2,0,0.2-0.1l-0.3-0.9l0.8-0.6
			C154.9,105.5,154.8,105.4,154.7,105.4z"/>
		<path class="st25" d="M154.7,101.4l-1,0l-0.1-0.2l-0.2-0.7c0-0.1-0.2-0.1-0.2,0l-0.2,0.7l-0.1,0.2l-1,0c-0.1,0-0.2,0.2-0.1,0.2
			l0.8,0.6l-0.3,0.9c0,0.1,0.1,0.2,0.2,0.1l0.8-0.6l0.8,0.6c0.1,0.1,0.2,0,0.2-0.1l-0.3-0.9l0.8-0.6
			C154.9,101.5,154.8,101.4,154.7,101.4z"/>
		<path class="st25" d="M154.7,97.4l-1,0l-0.1-0.2l-0.2-0.7c0-0.1-0.2-0.1-0.2,0l-0.2,0.7l-0.1,0.2l-1,0c-0.1,0-0.2,0.2-0.1,0.2
			l0.8,0.6l-0.3,0.9c0,0.1,0.1,0.2,0.2,0.1l0.8-0.6l0.8,0.6c0.1,0.1,0.2,0,0.2-0.1l-0.3-0.9l0.8-0.6
			C154.9,97.5,154.8,97.4,154.7,97.4z"/>
	</g>
	<g class="st1">
		<path class="st25" d="M150.7,105.4l-1,0l-0.1-0.2l-0.2-0.7c0-0.1-0.2-0.1-0.2,0l-0.2,0.7l-0.1,0.2l-1,0c-0.1,0-0.2,0.2-0.1,0.2
			l0.8,0.6l-0.3,0.9c0,0.1,0.1,0.2,0.2,0.1l0.8-0.6l0.8,0.6c0.1,0.1,0.2,0,0.2-0.1l-0.3-0.9l0.8-0.6
			C150.9,105.5,150.8,105.4,150.7,105.4z"/>
		<path class="st25" d="M150.7,101.4l-1,0l-0.1-0.2l-0.2-0.7c0-0.1-0.2-0.1-0.2,0l-0.2,0.7l-0.1,0.2l-1,0c-0.1,0-0.2,0.2-0.1,0.2
			l0.8,0.6l-0.3,0.9c0,0.1,0.1,0.2,0.2,0.1l0.8-0.6l0.8,0.6c0.1,0.1,0.2,0,0.2-0.1l-0.3-0.9l0.8-0.6
			C150.9,101.5,150.8,101.4,150.7,101.4z"/>
		<path class="st25" d="M150.7,97.4l-1,0l-0.1-0.2l-0.2-0.7c0-0.1-0.2-0.1-0.2,0l-0.2,0.7l-0.1,0.2l-1,0c-0.1,0-0.2,0.2-0.1,0.2
			l0.8,0.6l-0.3,0.9c0,0.1,0.1,0.2,0.2,0.1l0.8-0.6l0.8,0.6c0.1,0.1,0.2,0,0.2-0.1l-0.3-0.9l0.8-0.6
			C150.9,97.5,150.8,97.4,150.7,97.4z"/>
	</g>
</g>
<g class="st0">
	<g class="st1">
		<path class="st2" d="M200.8,156.3c0,0-0.1-0.1-0.1-0.1c-0.2-0.2-0.8-0.8-4.6-0.4c-0.3,0-0.6,0.3-0.7,0.6c-0.1,0.1-0.2,0.3-0.5,0.4
			c-1.1,0.2-10.5,0.3-12.1-0.2c-0.1-0.2-0.2-0.3-0.4-0.5c-0.8-0.6-2-0.5-2.3-0.5c-0.2,0-0.4,0.1-0.5,0.3c0,0-0.1,0.1-0.2,0.3
			c-0.3,0.4-0.5,0.6-0.7,0.8c0-0.1,0-0.2,0-0.3c0-0.1,0-0.3,0.1-0.4c0.4-1.3-2.2-3.4-2.7-3.8c-0.8-0.5-1.4-0.7-1.9-0.6
			c-0.6,0.1-3.2-0.8-5.3-1.7c-0.1,0-0.2-0.1-0.3-0.1h-30c-0.4,0-0.7,0.3-0.8,0.7c0,0-0.1,0.7-0.2,1.3l0,0.1c0,0.3-0.1,0.4-0.1,0.4
			c-0.2,0.3-1,1.5-1,2.8v11.2c0,0.8,0.4,1.3,0.8,1.6c0.1,0.1,0.2,0.2,0.3,0.3c0.6,0.5,0.8,0.7,0.7,1.2c0,0,0,0.1,0,0.1
			c-0.1,1.6,1.5,3.2,2.6,4.1c0.3,0.2,0.5,0.4,0.6,0.6c0.2,0.2,0.5,0.6,0.7,0.9l0.4,0.5c1,1.3,1.6,1.9,2.3,1.7c0.1,0,0.2-0.1,0.3-0.1
			c0.8-0.2,1.1-0.2,1.4,0.1c0.9,1.1,4.2,1.8,5.3,1.9h0.8c0,0,0.1,0,0.2,0c0.7-0.1,2.6-0.4,3.6,0c0.2,0.1,0.4,0.2,0.4,0.3
			c0.1,0.5,0.3,1,0.7,1.5c0.6,1.1,1.5,1.8,1.5,1.9c0.2,0.2,0.4,0.2,0.6,0.2c0.2,0,0.4-0.2,0.5-0.4c0,0,0.5-0.8,0.7-1.4
			c0.4,0.2,0.8,0.9,1.2,2.1c0.1,0.3,0.2,0.7,0.4,1c0.4,0.9,1.1,1.7,2,2.4c0.9,0.7,1.7,1,1.7,1c0.2,0.1,0.5,0.1,0.7-0.1
			s0.3-0.4,0.3-0.6c0,0,0-0.4,0-0.9c0-0.6,0-1.4,0.1-2.1c0-0.2,0-0.4,0-0.6c0.1-0.6,2.5-1.6,3.4-1.8c0.2,0,1.1,0.4,1.7,0.6
			c2,0.8,2.8,1,3.3,0.6c0.2-0.2,0.4-0.4,0.4-0.7c0-0.2,0.8-0.8,1.2-1l0.3-0.2c0.1,0,0.2,0.1,0.3,0.2c0.2,0.2,0.5,0.5,0.7,0.7
			c0.4,0.4,0.7,0.8,1.1,0.8c0.1,0.4,0.3,0.8,0.4,1.3c0.2,0.6,0.3,1.2,0.4,1.7c0.1,0.5,0.1,0.8,0,1c0,0.4,0.1,0.8,0.4,1.4
			c0.3,0.6,1,1,2,1.1c0,0,0.3,0,0.7,0c0.6,0,1.4-0.1,1.7-0.4c0.3-0.3,0.5-1.1,0.5-2.4c0-0.5,0.1-1.5-0.1-2.3
			c-0.1-0.6-0.3-1.1-0.6-1.4c-0.1-0.1-0.4-0.8-0.6-2.1c-0.1-0.7-0.1-1.4,0-2c0.1-0.5,0.1-0.6,0.1-0.6c0.4-0.3,1.5-1.3,2.7-2.4
			c0.9-0.8,1.7-1.6,2.2-2.2c1.1-1.2,1.5-1.9,1.3-2.5c-0.1-0.3-0.3-0.5-0.6-0.7c-0.2-0.1-0.3-0.1-0.2-0.8c0-0.2,0.1-0.5,0.1-0.8
			c0.1-0.4,0.1-0.8,0.2-1.3c0-0.1,0-0.1,0-0.2c1,0,1.6-0.5,1.9-1.9c0.1-0.3,0.2-0.6,0.5-0.9c0.7-0.6,1.8-0.9,2.5-1.1
			c0.7-0.2,1.2-0.3,1.3-0.9c0.1-0.3-0.1-0.6-0.3-0.8c0,0,0,0-0.1-0.1c-0.1-0.4,0-1.1,0.4-1.4c0.1-0.1,0.3-0.3,0.5-0.4
			c0.3-0.2,0.7-0.5,1.1-0.8C200.3,158.3,201.4,157.2,200.8,156.3z M197.9,158.3c-0.4,0.3-0.7,0.6-1,0.8c-0.2,0.2-0.4,0.3-0.6,0.5
			c-0.9,0.7-1.1,2.1-0.9,3c-0.9,0.2-2.1,0.6-3,1.4c-0.5,0.5-0.8,1.1-1,1.7c-0.1,0.6-0.2,0.7-0.2,0.7H191c-0.6,0-1.4,0.1-1.6,1.6
			c0,0.4-0.1,0.8-0.2,1.2c-0.1,0.3-0.1,0.6-0.1,0.9c0,0.5-0.1,1.4,0.7,2c-0.1,0.2-0.4,0.5-0.8,1c-0.5,0.6-1.2,1.3-2.1,2.1
			c-1.2,1.1-2.3,2-2.7,2.3c-0.4,0.3-0.6,0.8-0.7,1.6c-0.1,0.6-0.1,1.5,0,2.3c0.1,0.8,0.4,2.3,1,2.9c0,0,0.1,0.1,0.2,0.6
			c0.1,0.5,0.1,1.2,0.1,2c0,0.7-0.1,1.2-0.2,1.4c-0.6,0.1-1.7,0-1.9-0.3c-0.2-0.4-0.2-0.5-0.2-0.5c0-0.4,0-0.8,0-1.4
			c-0.1-0.5-0.2-1.2-0.4-1.8c-0.7-2.7-1.3-2.6-1.6-2.6c0,0-0.1,0-0.1,0c0,0,0,0-0.1-0.1c-0.2-0.3-0.5-0.6-0.8-0.9
			c-1-0.9-1.7-0.6-2.1-0.4l-0.4,0.3c-0.6,0.4-1.3,0.9-1.6,1.5c-0.5-0.1-1.3-0.4-1.8-0.6c-1.5-0.6-2-0.7-2.4-0.7c0,0-4.6,1.1-4.7,3.2
			c0,0.2,0,0.4,0,0.6c0,0.6,0,1.3,0,1.9c-0.1-0.1-0.3-0.2-0.4-0.3c-0.7-0.6-1.3-1.2-1.6-1.9c-0.1-0.2-0.2-0.5-0.3-0.7
			c-0.4-1.5-1.1-2.6-1.9-3.1c-0.6-0.4-1.3-0.3-1.8,0.1c-0.1,0.1-0.2,0.2-0.2,0.3c-0.1,0.2-0.2,0.4-0.3,0.6c-0.2-0.2-0.4-0.5-0.6-0.8
			c-0.3-0.4-0.4-0.8-0.5-1.1c-0.1-0.4-0.4-1-1.3-1.3c-1.3-0.5-3.4-0.2-4.3,0h-0.6c-1.5-0.2-3.9-0.9-4.2-1.4
			c-0.9-1.1-2.2-0.8-2.9-0.7c0,0-0.1,0-0.1,0c-0.1-0.1-0.4-0.4-1-1.2l-0.4-0.5c-0.3-0.4-0.6-0.8-0.8-1c-0.2-0.2-0.4-0.4-0.8-0.7
			c-0.7-0.7-2.1-1.9-2-2.9c0.2-1.3-0.7-2-1.3-2.5c-0.1-0.1-0.2-0.1-0.3-0.2l0,0c-0.3-0.3-0.3-0.4-0.3-0.5v-11.2c0-1,0.7-2,0.7-2
			c0,0,0-0.1,0-0.1c0.1-0.2,0.2-0.4,0.2-0.8l0-0.2c0-0.2,0.1-0.5,0.1-0.7h2.1l0.2-0.5c0-0.2,0.3-0.2,0.3,0l0.2,0.5h4.9l0.2-0.5
			c0.1-0.2,0.3-0.2,0.3,0l0.2,0.5h4.9l0.2-0.5c0.1-0.2,0.3-0.2,0.3,0l0.2,0.5h4.8l0.2-0.5c0.1-0.2,0.3-0.2,0.3,0l0.2,0.5h9.8
			c2.3,0.9,5,1.9,6.1,1.7c0.1,0,0.3,0.1,0.6,0.3c1,0.7,1.9,1.8,2.1,2.2c0,0.2-0.1,0.4-0.1,0.5c-0.1,0.5,0,1.4,0.5,1.9
			c0.3,0.2,0.7,0.3,1.1,0.2c0.2-0.1,0.8-0.3,1.8-1.5c0,0,0,0,0,0c0.3,0,0.7,0,0.8,0.2c0.6,1.9,13.7,1,13.8,0.9
			c0.7-0.2,1.1-0.7,1.3-1c0.9-0.1,1.9-0.1,2.5,0C198.9,157.5,198.5,157.8,197.9,158.3z"/>
	</g>
	<g class="st1">
		<g>
			<line class="st24" x1="163.5" y1="183.8" x2="167" y2="183.8"/>
			<line class="st24" x1="181.4" y1="183.8" x2="185.1" y2="183.8"/>
			<line class="st24" x1="145" y1="176.9" x2="185.9" y2="176.9"/>
			<line class="st24" x1="140" y1="170" x2="189.4" y2="170"/>
			<line class="st24" x1="162" y1="163.1" x2="195.4" y2="163.1"/>
			<line class="st24" x1="162" y1="156.2" x2="177.4" y2="156.2"/>
		</g>
	</g>
	<g class="st1">
		<path class="st2" d="M138.8,151.1l-1.5,4.5l0.3,11.8H162c0.8,0,1.5-0.7,1.5-1.5v-14.8H138.8z M143.9,164l-1.1,0.8l0.4,1.3
			c0,0.2-0.1,0.3-0.3,0.2l-1.1-0.8l-1.1,0.8c-0.1,0.1-0.3,0-0.3-0.2l0.4-1.3l-1-0.8c-0.1-0.1-0.1-0.3,0.1-0.3l1.3,0l0.1-0.3l0.3-1
			c0-0.2,0.3-0.2,0.3,0l0.3,1l0.1,0.3l1.3,0C144,163.7,144.1,163.9,143.9,164z M143.9,158.5l-1.1,0.8l0.4,1.3c0,0.2-0.1,0.3-0.3,0.2
			l-1.1-0.8l-1.1,0.8c-0.1,0.1-0.3,0-0.3-0.2l0.4-1.3l-1-0.8c-0.1-0.1-0.1-0.3,0.1-0.3l1.3,0l0.1-0.3l0.3-0.9c0-0.2,0.3-0.2,0.3,0
			l0.3,0.9l0.1,0.3l1.3,0C144,158.2,144.1,158.4,143.9,158.5z M143.9,153l-1.1,0.8l0.4,1.3c0,0.2-0.1,0.3-0.3,0.2l-1.1-0.8l-1.1,0.8
			c-0.1,0.1-0.3,0-0.3-0.2l0.4-1.3l-1-0.8c-0.1-0.1-0.1-0.3,0.1-0.3l1.3,0l0.1-0.3l0.2-0.5l0.2-0.5c0-0.2,0.3-0.2,0.3,0l0.2,0.5
			l0.1,0.5l0.1,0.3l1.3,0C144,152.7,144.1,152.9,143.9,153z M149.5,164l-1.1,0.8l0.4,1.3c0.1,0.2-0.1,0.3-0.3,0.2l-1.1-0.8l-1.1,0.8
			c-0.1,0.1-0.3,0-0.3-0.2l0.4-1.3l-1.1-0.8c-0.1-0.1-0.1-0.3,0.1-0.3l1.3,0l0.1-0.3l0.3-1c0.1-0.2,0.3-0.2,0.3,0l0.3,1l0.1,0.3
			l1.3,0C149.5,163.7,149.6,163.9,149.5,164z M149.5,158.5l-1.1,0.8l0.4,1.3c0.1,0.2-0.1,0.3-0.3,0.2l-1.1-0.8l-1.1,0.8
			c-0.1,0.1-0.3,0-0.3-0.2l0.4-1.3l-1.1-0.8c-0.1-0.1-0.1-0.3,0.1-0.3l1.3,0l0.1-0.3l0.3-0.9c0.1-0.2,0.3-0.2,0.3,0l0.3,0.9l0.1,0.3
			l1.3,0C149.5,158.2,149.6,158.4,149.5,158.5z M149.5,153l-1.1,0.8l0.4,1.3c0.1,0.2-0.1,0.3-0.3,0.2l-1.1-0.8l-1.1,0.8
			c-0.1,0.1-0.3,0-0.3-0.2l0.4-1.3l-1.1-0.8c-0.1-0.1-0.1-0.3,0.1-0.3l1.3,0l0.1-0.3l0.2-0.5l0.2-0.5c0.1-0.2,0.3-0.2,0.3,0l0.2,0.5
			l0.2,0.5l0.1,0.3l1.3,0C149.5,152.7,149.6,152.9,149.5,153z M155,164l-1,0.8l0.4,1.3c0,0.2-0.1,0.3-0.3,0.2l-1.1-0.8l-1.1,0.8
			c-0.1,0.1-0.3,0-0.3-0.2l0.4-1.3L151,164c-0.1-0.1-0.1-0.3,0.1-0.3l1.3,0l0.1-0.3l0.3-1c0.1-0.2,0.3-0.2,0.3,0l0.3,1l0.1,0.3
			l1.3,0C155,163.7,155.1,163.9,155,164z M155,158.5l-1,0.8l0.4,1.3c0,0.2-0.1,0.3-0.3,0.2L153,160l-1.1,0.8c-0.1,0.1-0.3,0-0.3-0.2
			l0.4-1.3l-1.1-0.8c-0.1-0.1-0.1-0.3,0.1-0.3l1.3,0l0.1-0.3l0.3-0.9c0.1-0.2,0.3-0.2,0.3,0l0.3,0.9l0.1,0.3l1.3,0
			C155,158.2,155.1,158.4,155,158.5z M155,153l-1,0.8l0.4,1.3c0,0.2-0.1,0.3-0.3,0.2l-1.1-0.8l-1.1,0.8c-0.1,0.1-0.3,0-0.3-0.2
			l0.4-1.3L151,153c-0.1-0.1-0.1-0.3,0.1-0.3l1.3,0l0.1-0.3l0.2-0.5l0.2-0.5c0.1-0.2,0.3-0.2,0.3,0l0.2,0.5l0.1,0.5l0.1,0.3l1.3,0
			C155,152.7,155.1,152.9,155,153z M160.5,164l-1.1,0.8l0.4,1.3c0.1,0.2-0.1,0.3-0.3,0.2l-1.1-0.8l-1.1,0.8c-0.1,0.1-0.3,0-0.3-0.2
			l0.4-1.3l-1.1-0.8c-0.1-0.1-0.1-0.3,0.1-0.3l1.3,0l0.1-0.3l0.3-1c0.1-0.2,0.3-0.2,0.3,0l0.3,1l0.1,0.3l1.3,0
			C160.6,163.7,160.7,163.9,160.5,164z M160.5,158.5l-1.1,0.8l0.4,1.3c0.1,0.2-0.1,0.3-0.3,0.2l-1.1-0.8l-1.1,0.8
			c-0.1,0.1-0.3,0-0.3-0.2l0.4-1.3l-1.1-0.8c-0.1-0.1-0.1-0.3,0.1-0.3l1.3,0l0.1-0.3l0.3-0.9c0.1-0.2,0.3-0.2,0.3,0l0.3,0.9l0.1,0.3
			l1.3,0C160.6,158.2,160.7,158.4,160.5,158.5z M159,152.3l0.1,0.3l1.3,0c0.2,0,0.2,0.2,0.1,0.3l-1.1,0.8l0.4,1.3
			c0.1,0.2-0.1,0.3-0.3,0.2l-1.1-0.8l-1.1,0.8c-0.1,0.1-0.3,0-0.3-0.2l0.4-1.3l-1.1-0.8c-0.1-0.1-0.1-0.3,0.1-0.3l1.3,0l0.1-0.3
			l0.1-0.5l0.2-0.5c0.1-0.2,0.3-0.2,0.3,0l0.2,0.5L159,152.3z"/>
	</g>
</g>
<g class="st0">
	<g class="st1">
		<g>
			<polygon class="st24" points="30.6,157.2 9.9,155.2 9.9,189 30.6,191 			"/>
			<polyline class="st24" points="9.9,155.2 14,152.3 34.7,154.3 30.6,157.2 			"/>
			<polyline class="st24" points="34.7,154.3 34.7,188.2 30.6,191 			"/>
		</g>
	</g>
	<g id="_x36__3_" class="st1">
		<path class="st3" d="M25.7,186l-11-1c-0.6,0-1-0.4-1-1v-22c0-0.6,0.4-1,1-1l11,1c0.6,0,1,0.4,1,1v22C26.7,185.5,26.2,186,25.7,186
			z"/>
		<path class="st4" d="M25.2,183l-10-1c-0.6,0-1-0.4-1-1v-17c0-0.6,0.4-1,1-1l10,1c0.6,0,1,0.4,1,1v17C26.2,182.5,25.7,183,25.2,183
			z"/>
		<circle class="st4" cx="19.9" cy="184.7" r="1"/>
	</g>
</g>
<g class="st0">
	<g class="st1">
		<polygon class="st24" points="-16,157.2 4.7,155.2 4.7,189 -16,191 		"/>
		<polyline class="st24" points="4.7,155.2 0.6,152.3 -20.1,154.3 -16,157.2 		"/>
		<polyline class="st24" points="-20.1,154.3 -20.1,188.2 -16,191 		"/>
	</g>
</g>
<g id="x_4_" class="st0">
	<path class="st26" d="M0.4,186l-12,1.1c-0.6,0-1-0.4-1-1v-25c0-0.6,0.4-1,1-1l12-1.1c0.6,0,1,0.4,1,1v25C1.4,185.5,0.9,186,0.4,186
		z"/>
	<path class="st7" d="M0.4,186l-12,1.1c-0.6,0-1-0.4-1-1v-25c0-0.6,0.4-1,1-1l12-1.1c0.6,0,1,0.4,1,1v25C1.4,185.5,0.9,186,0.4,186z
		"/>
	<path class="st13" d="M-2,160.7l-7.2,0.8c-0.6,0-1-0.4-1-1v-1.4l9.2-0.9v1.5C-1,160.3-1.5,160.7-2,160.7z"/>
</g>
<g class="st0">
	<ellipse class="st27" cx="30.3" cy="242" rx="8" ry="8"/>
	<line class="st27" x1="30.3" y1="242" x2="30.3" y2="234"/>
	<line class="st27" x1="30.3" y1="247.9" x2="30.3" y2="250"/>
	<line class="st27" x1="38.3" y1="242" x2="36.1" y2="242"/>
	<line class="st27" x1="24.4" y1="242" x2="22.3" y2="242"/>
	<line class="st27" x1="30.3" y1="242" x2="35.9" y2="236.4"/>
	<line class="st27" x1="26.1" y1="246.2" x2="24.6" y2="247.7"/>
	<line class="st27" x1="35.9" y1="247.7" x2="34.4" y2="246.2"/>
	<line class="st27" x1="26.1" y1="237.9" x2="24.6" y2="236.4"/>
</g>
<g class="st0">
	<line class="st22" x1="68.3" y1="52" x2="68.3" y2="53"/>
	<line class="st22" x1="71.3" y1="50" x2="71.3" y2="53"/>
	<line class="st22" x1="74.3" y1="47" x2="74.3" y2="53"/>
</g>
<g class="st0">
	<line class="st22" x1="201.3" y1="-46.9" x2="211.2" y2="-37"/>
	<line class="st22" x1="211.2" y1="-46.9" x2="201.3" y2="-37"/>
</g>
<g class="st0">
	<path class="st28" d="M191.1-44.4c0,0-0.5-0.5-0.6-0.6c-2-2-5.3-2.1-7.3,0c-2,2-2,5.3,0,7.4c2,2,5.3,2,7.4,0"/>
	<polyline class="st28" points="189.2,-44.1 191.5,-44.1 191.5,-46.4 	"/>
</g>
<g class="st0">
	<line class="st29" x1="137.3" y1="-32" x2="157.3" y2="-32"/>
	<line class="st29" x1="137.3" y1="-26" x2="157.3" y2="-26"/>
	<line class="st29" x1="137.3" y1="-20" x2="157.3" y2="-20"/>
</g>
<circle class="st30" cx="119.8" cy="-32.5" r="2"/>
<circle class="st30" cx="111.8" cy="-32.5" r="2"/>
<circle class="st30" cx="119.8" cy="-24.5" r="2"/>
<circle class="st30" cx="111.8" cy="-24.5" r="2"/>
</svg>
