<?xml version="1.0" encoding="utf-8"?>
<!-- Generator: Adobe Illustrator 22.0.0, SVG Export Plug-In . SVG Version: 6.00 Build 0)  -->
<svg version="1.1" id="Layer_1" xmlns="http://www.w3.org/2000/svg" xmlns:xlink="http://www.w3.org/1999/xlink" x="0px" y="0px"
	 viewBox="0 0 15.8 25.7" style="enable-background:new 0 0 15.8 25.7;" xml:space="preserve">
<style type="text/css">
	.st0{fill:#282D3A;}
	.st1{display:none;}
	.st2{display:inline;fill:#282D3A;stroke:#282D3A;stroke-width:2;stroke-linejoin:round;stroke-miterlimit:10;}
	.st3{display:inline;fill:#FFFFFF;}
	.st4{display:inline;}
	.st5{fill:#282D3A;stroke:#282D3A;stroke-width:2;stroke-linejoin:round;stroke-miterlimit:10;}
	.st6{fill:#FFFFFF;}
	.st7{fill:none;stroke:#FFFFFF;stroke-width:2;stroke-linejoin:round;stroke-miterlimit:10;}
	.st8{display:inline;fill:#282D3A;}
	.st9{fill:#FFFFFF;stroke:#FFFFFF;stroke-width:2;stroke-linejoin:round;stroke-miterlimit:10;}
	.st10{display:inline;fill:#85898C;stroke:#85898C;stroke-width:2;stroke-linejoin:round;stroke-miterlimit:10;}
	.st11{display:inline;fill:#85898C;}
	.st12{display:none;fill:#B2B2B2;}
	.st13{fill:none;stroke:#000000;stroke-width:1.5;stroke-linecap:round;stroke-linejoin:round;stroke-miterlimit:10;}
	.st14{display:none;fill:none;stroke:#FFFFFF;stroke-width:2;stroke-linecap:round;stroke-linejoin:round;stroke-miterlimit:10;}
	.st15{display:inline;fill:none;stroke:#282D3A;stroke-width:1.5;stroke-linejoin:round;stroke-miterlimit:10;}
	.st16{display:inline;fill:none;stroke:#000000;stroke-width:1.5;stroke-miterlimit:10;}
	.st17{fill:#010002;}
	.st18{display:inline;fill:#010002;}
	.st19{fill:none;stroke:#FFFFFF;stroke-width:1.5;stroke-linecap:round;stroke-linejoin:round;stroke-miterlimit:10;}
	.st20{fill:none;stroke:#FFFFFF;stroke-width:1.5;stroke-miterlimit:10;}
	.st21{fill:#FFFFFF;stroke:#FFFFFF;stroke-width:1.5;stroke-miterlimit:10;}
	.st22{display:inline;fill:none;stroke:#FFFFFF;stroke-linecap:round;stroke-miterlimit:10;}
	.st23{display:none;fill:#FFFFFF;}
	
		.st24{display:inline;fill:none;stroke:#282D3A;stroke-width:1.5;stroke-linecap:round;stroke-linejoin:round;stroke-miterlimit:10;}
	.st25{clip-path:url(#SVGID_2_);}
	.st26{fill:none;stroke:#282D3A;stroke-width:1.5;stroke-linecap:round;stroke-linejoin:round;stroke-miterlimit:10;}
	.st27{fill:#F5F5F5;}
	.st28{display:inline;fill:none;stroke:#282D3A;stroke-linecap:round;stroke-linejoin:round;stroke-miterlimit:10;}
	
		.st29{display:inline;fill:none;stroke:#000000;stroke-width:1.5;stroke-linecap:round;stroke-linejoin:round;stroke-miterlimit:10;}
	.st30{display:inline;fill:none;stroke:#282D3A;stroke-width:2;stroke-linecap:round;stroke-linejoin:round;stroke-miterlimit:10;}
	.st31{display:none;fill:#282D3A;}
</style>
<g id="_x35_s">
	<g>
		<path class="st0" d="M12.7,0.6h-10c-1.1,0-2,0.9-2,2v20c0,1.1,0.9,2,2,2h10c1.1,0,2-0.9,2-2v-20C14.7,1.5,13.8,0.6,12.7,0.6z
			 M7.7,23.6c-0.5,0-1-0.4-1-1c0-0.5,0.5-1,1-1c0.6,0,1,0.5,1,1C8.7,23.1,8.2,23.6,7.7,23.6z M13.2,19.6c0,0.4-0.2,0.7-0.5,0.9
			c-0.1,0.1-0.3,0.1-0.5,0.1h-9c-0.2,0-0.3,0-0.5-0.1c-0.3-0.2-0.5-0.5-0.5-0.9v-15c0-0.4,0.2-0.7,0.5-0.9C2.8,3.6,3,3.6,3.2,3.6h9
			c0.2,0,0.4,0,0.5,0.1c0.3,0.2,0.5,0.5,0.5,0.9V19.6z"/>
	</g>
</g>
<g id="_x36_" class="st1">
	<path class="st2" d="M33.7,23.6h-11c-0.6,0-1-0.4-1-1v-22c0-0.6,0.4-1,1-1h11c0.6,0,1,0.4,1,1v22C34.7,23.1,34.2,23.6,33.7,23.6z"
		/>
	<path class="st3" d="M33.2,20.6h-10c-0.6,0-1-0.4-1-1v-17c0-0.6,0.4-1,1-1h10c0.6,0,1,0.4,1,1v17C34.2,20.1,33.7,20.6,33.2,20.6z"
		/>
	<circle class="st3" cx="28.2" cy="22.6" r="1"/>
</g>
<g id="plus" class="st1">
	<g id="_x36__2_" class="st4">
		<path class="st5" d="M45.8,63.6H32.7c-0.6,0-1-0.4-1-1v-26c0-0.6,0.4-1,1-1h13.2c0.6,0,1,0.4,1,1v26
			C46.8,63.1,46.4,63.6,45.8,63.6z"/>
		<path class="st6" d="M45.3,60.1h-12c-0.6,0-1-0.4-1-1V38.9c0-0.6,0.4-1,1-1h12c0.6,0,1,0.4,1,1v20.2
			C46.3,59.6,45.8,60.1,45.3,60.1z"/>
		<circle class="st6" cx="39.3" cy="62.4" r="1.2"/>
	</g>
	<g id="_x36__1_" class="st4">
		<path class="st7" d="M35.7,63.6h-12c-0.6,0-1-0.4-1-1v-23c0-0.6,0.4-1,1-1h11c0.6,0,1,0.4,1,1V63.6z"/>
		<path class="st5" d="M33.7,63.6h-11c-0.6,0-1-0.4-1-1v-22c0-0.6,0.4-1,1-1h11c0.6,0,1,0.4,1,1v22C34.7,63.1,34.2,63.6,33.7,63.6z"
			/>
		<path class="st6" d="M33.2,60.6h-10c-0.6,0-1-0.4-1-1v-17c0-0.6,0.4-1,1-1h10c0.6,0,1,0.4,1,1v17C34.2,60.1,33.7,60.6,33.2,60.6z"
			/>
		<circle class="st6" cx="28.2" cy="62.6" r="1"/>
	</g>
</g>
<g id="x" class="st1">
	<path class="st2" d="M55.7,23.6h-12c-0.6,0-1-0.4-1-1v-23c0-0.6,0.4-1,1-1h12c0.6,0,1,0.4,1,1v23C56.7,23.1,56.2,23.6,55.7,23.6z"
		/>
	<path class="st3" d="M55.7,23.6h-12c-0.6,0-1-0.4-1-1v-23c0-0.6,0.4-1,1-1h12c0.6,0,1,0.4,1,1v23C56.7,23.1,56.2,23.6,55.7,23.6z"
		/>
	<path class="st8" d="M53.3-0.1h-7.2c-0.6,0-1-0.4-1-1v-1.3h9.2v1.3C54.3-0.6,53.8-0.1,53.3-0.1z"/>
</g>
<g id="all" class="st1">
	<g id="_x35_s_1_" class="st4">
		<path class="st5" d="M103.7,23.6h-10c-0.6,0-1-0.4-1-1v-20c0-0.6,0.4-1,1-1h10c0.6,0,1,0.4,1,1v20
			C104.7,23.1,104.2,23.6,103.7,23.6z"/>
		<path class="st6" d="M103.2,20.6h-9c-0.6,0-1-0.4-1-1v-15c0-0.6,0.4-1,1-1h9c0.6,0,1,0.4,1,1v15C104.2,20.1,103.7,20.6,103.2,20.6
			z"/>
		<circle class="st6" cx="98.7" cy="22.6" r="1"/>
	</g>
	<g id="x_2_" class="st4">
		<path class="st9" d="M114.7,23.6h-13v-24c0-0.6,0.4-1,1-1h12c0.6,0,1,0.4,1,1v23C115.7,23.1,115.2,23.6,114.7,23.6z"/>
		<path class="st5" d="M115.7,23.6h-12c-0.6,0-1-0.4-1-1v-23c0-0.6,0.4-1,1-1h12c0.6,0,1,0.4,1,1v23
			C116.7,23.1,116.2,23.6,115.7,23.6z"/>
		<path class="st6" d="M115.7,23.6h-12c-0.6,0-1-0.4-1-1v-23c0-0.6,0.4-1,1-1h12c0.6,0,1,0.4,1,1v23
			C116.7,23.1,116.2,23.6,115.7,23.6z"/>
		<path class="st0" d="M113.3-0.1h-7.2c-0.6,0-1-0.4-1-1v-1.3h9.2v1.3C114.3-0.6,113.8-0.1,113.3-0.1z"/>
	</g>
</g>
<g id="x_1_" class="st1">
	<path class="st10" d="M77.7,23.6h-12c-0.6,0-1-0.4-1-1v-23c0-0.6,0.4-1,1-1h12c0.6,0,1,0.4,1,1v23C78.7,23.1,78.2,23.6,77.7,23.6z"
		/>
	<path class="st3" d="M77.7,23.6h-12c-0.6,0-1-0.4-1-1v-23c0-0.6,0.4-1,1-1h12c0.6,0,1,0.4,1,1v23C78.7,23.1,78.2,23.6,77.7,23.6z"
		/>
	<path class="st11" d="M75.3-0.1h-7.2c-0.6,0-1-0.4-1-1v-1.3h9.2v1.3C76.3-0.6,75.8-0.1,75.3-0.1z"/>
</g>
<rect x="-17.8" y="144.3" class="st12" width="50" height="50"/>
<g class="st1">
	<g class="st4">
		<rect x="-15.1" y="181.9" class="st13" width="16.8" height="8.1"/>
		<rect x="-15.1" y="173.8" class="st13" width="16.8" height="8.1"/>
		<rect x="-15.1" y="165.7" class="st13" width="16.8" height="8.1"/>
		<path class="st13" d="M8.6,185.1l-7,4.9L8.6,185.1z"/>
		<path class="st13" d="M8.6,177l-7,4.9L8.6,177z"/>
		<path class="st13" d="M8.6,168.9l-7,4.9L8.6,168.9z"/>
		<path class="st13" d="M7.6,161.6l-6,4.2L7.6,161.6z"/>
		<path class="st13" d="M-1.9,156.6l-13.2,9.1L-1.9,156.6z"/>
		<line class="st13" x1="-1.9" y1="156.6" x2="8.6" y2="156.6"/>
	</g>
	<circle class="st4" cx="-6.8" cy="169.8" r="1.5"/>
	<circle class="st4" cx="-6.8" cy="177.8" r="1.5"/>
	<circle class="st4" cx="-6.8" cy="185.9" r="1.5"/>
</g>
<rect x="62.2" y="144.3" class="st12" width="50" height="50"/>
<rect x="142.2" y="144.3" class="st12" width="50" height="50"/>
<rect x="142.2" y="84.3" class="st12" width="50" height="50"/>
<rect x="14.2" y="-41.8" class="st12" width="50" height="50"/>
<circle class="st1" cx="33.1" cy="124.4" r="10"/>
<polyline class="st14" points="29.4,64.4 32.4,67.8 36.4,60 "/>
<g id="x_3_" class="st1">
	<path class="st15" d="M97,128.8H77.4c-0.6,0-1-0.4-1-1V91.2c0-0.6,0.4-1,1-1H97c0.6,0,1,0.4,1,1v36.6C98,128.4,97.5,128.8,97,128.8
		z"/>
	<path class="st8" d="M93.3,93.1H81.1c-0.6,0-1-0.4-1-1v-2.5h14.2v2.5C94.3,92.7,93.8,93.1,93.3,93.1z"/>
</g>
<g id="_x32_" class="st1">
	<path class="st16" d="M104.3,155.5c0.4,27.1-17.2,35.7-17.2,35.7s-17.5-8.7-17.1-35.7c0,0,7.9-0.8,17.1-6.3
		C96.4,154.7,104.3,155.5,104.3,155.5z"/>
	<path class="st4" d="M97.6,160.3c0.2,16.5-10.5,22.8-10.5,22.8s-10.7-6.3-10.4-22.8c0,0,4.8-0.5,10.4-3.9
		C92.8,159.8,97.6,160.3,97.6,160.3z"/>
</g>
<g id="_x33_" class="st1">
	<g class="st4">
		<path class="st17" d="M166.8,126.9c-7.6,0-14.3-4.8-16.8-12c-0.1-0.2-0.1-0.4,0-0.6c0.1-0.2,0.3-0.3,0.5-0.4c0.1,0,0.2,0,0.3,0
			c0.3,0,0.7,0.2,0.8,0.6c2.2,6.5,8.4,10.9,15.2,10.9c8.9,0,16.1-7.2,16.1-16.1c0-0.4,0.4-0.8,0.8-0.8c0.4,0,0.8,0.4,0.8,0.8
			C184.5,118.9,176.5,126.9,166.8,126.9z"/>
		<path class="st17" d="M149.9,110c-0.4,0-0.8-0.4-0.8-0.8c0-9.8,8-17.7,17.7-17.7c7.6,0,14.3,4.8,16.8,12c0.1,0.2,0.1,0.4,0,0.6
			c-0.1,0.2-0.3,0.3-0.5,0.4c-0.1,0-0.2,0-0.3,0c-0.3,0-0.7-0.2-0.8-0.5c-2.2-6.5-8.3-10.9-15.2-10.9c-8.9,0-16.1,7.2-16.1,16.1
			C150.7,109.6,150.3,110,149.9,110z"/>
		<path class="st17" d="M183,104.7c-0.1,0-0.2,0-0.2,0l-7.1-2.2c-0.4-0.1-0.7-0.6-0.5-1c0.1-0.3,0.4-0.6,0.8-0.6c0.1,0,0.2,0,0.2,0
			l6.4,2l2.4-6c0.1-0.3,0.4-0.5,0.8-0.5c0.1,0,0.2,0,0.3,0.1c0.2,0.1,0.4,0.2,0.4,0.4c0.1,0.2,0.1,0.4,0,0.6l-2.7,6.7
			C183.7,104.5,183.4,104.7,183,104.7z"/>
		<path class="st17" d="M147.9,122c-0.1,0-0.2,0-0.3-0.1c-0.4-0.2-0.6-0.6-0.5-1.1l2.7-6.7c0.1-0.3,0.4-0.5,0.7-0.5
			c0.1,0,0.2,0,0.2,0l7.1,2.2c0.4,0.1,0.7,0.6,0.5,1c-0.1,0.3-0.4,0.6-0.8,0.6c-0.1,0-0.2,0-0.2,0l-6.4-2l-2.4,6
			C148.5,121.8,148.2,122,147.9,122z"/>
	</g>
	<circle class="st18" cx="167.2" cy="109.3" r="6.1"/>
</g>
<g id="_x34_" class="st1">
	<g class="st4">
		<path class="st19" d="M250.9,171.9v1.9l1.9,1.3l5.1,1.6c2,0.6,2.6,2.5,2.6,2.5l1.9,9.3c0.4,2-2.1,2.3-2.1,2.3H235
			c0,0-2.5-0.2-2.1-2.3l1.9-9.3c0,0,0.6-1.9,2.6-2.5l5.1-1.6l1.9-1.3v-1.9"/>
		<g id="head">
			<path class="st20" d="M240,160.7v4.3c0,4.2,3.4,7.7,7.7,7.7h0c4.2,0,7.7-3.4,7.7-7.7v-4.3"/>
			<path class="st20" d="M238.3,160.4c-0.8,0.3-1.3,1-1.3,1.9c0,1.1,0.9,2,2,2c0.4,0,0.7-0.1,1-0.3"/>
			<path class="st20" d="M255.3,164c0.3,0.2,0.6,0.3,1,0.3c1.1,0,2-0.9,2-2c0-0.9-0.5-1.6-1.3-1.9"/>
			<path class="st21" d="M256.8,160.9c-0.8,0.6-2-0.6-2-0.6c-0.4-0.4-0.6-0.9-0.8-1.4c-0.1-0.2-0.2-0.5-0.3-0.7
				c-0.1-0.3-0.1-0.5-0.2-0.8c0-0.3-0.2-0.5-0.4-0.6c-0.7-0.5-1.3,0-1.9,0.2c-0.4,0.1-0.8,0.2-1.2,0.3c-0.8,0.1-1.6,0.2-2.4,0.2
				c-0.8,0-1.6-0.1-2.4-0.2c-0.4-0.1-0.8-0.2-1.2-0.3c-0.7-0.2-1.3-0.7-1.9-0.2c-0.2,0.2-0.4,0.4-0.4,0.6c-0.1,0.3-0.1,0.5-0.2,0.8
				c-0.1,0.2-0.2,0.5-0.3,0.7c-0.2,0.5-0.4,1-0.8,1.4c0,0-1.2,1.1-2,0.6c0,0-0.6-0.8-0.4-2.8c0,0,0.9-8.5,9.5-8.5
				c8.7,0,9.5,8.5,9.5,8.5C257.4,160.1,256.8,160.9,256.8,160.9z"/>
		</g>
		<line class="st19" x1="238.9" y1="190.7" x2="238.9" y2="184.3"/>
		<line class="st19" x1="256.4" y1="190.7" x2="256.4" y2="184.3"/>
		<polyline class="st19" points="244.4,173.8 247.7,178.2 244.1,179.4 242.5,175.1 		"/>
		<polyline class="st19" points="250.9,173.8 247.7,178.2 251.2,179.4 252.8,175.1 		"/>
		<line class="st19" x1="247.7" y1="178.2" x2="247.7" y2="184.6"/>
	</g>
	<g class="st4">
		<circle class="st6" cx="245.2" cy="162.8" r="1"/>
		<circle class="st6" cx="250.2" cy="162.8" r="1"/>
	</g>
	<path class="st22" d="M245.6,167.1c0,0.7,0.9,1.3,2.1,1.3s2.1-0.6,2.1-1.3"/>
</g>
<path class="st23" d="M34.5,121.4L35,120c0.3-0.9,0.1-2.4-0.8-2.9c-0.3-0.2-0.7-0.3-1.1-0.2c-0.2,0.1-0.4,0.2-0.5,0.4
	c-0.1,0.2-0.1,0.4-0.2,0.7c-0.1,0.6-0.4,1.1-0.8,1.5c-0.7,0.7-3,2.8-3,2.8v7.6h7.9c1.1,0,1.8-1.2,1.2-2.1c0.6-0.4,0.8-1.2,0.5-1.9
	c0.6-0.4,0.8-1.2,0.5-1.9c1.1-0.7,0.7-2.4-0.5-2.6C38.1,121.4,34.5,121.4,34.5,121.4z"/>
<g class="st1">
	<path class="st24" d="M144.9,98.6v8.1c0,0.3,0.2,0.5,0.4,0.8c0.4,0.4,1,0.7,0.9,1.5c0,0,0,0,0,0.1c-0.1,0.9,0.9,1.9,1.7,2.5
		c0.2,0.2,0.4,0.4,0.5,0.5c0.2,0.2,0.5,0.7,0.8,1.1c0.4,0.6,0.9,1.1,1.2,1.1c0.4-0.1,1.3-0.4,1.8,0.2c0.4,0.5,2.4,1.1,3.4,1.2h0.6
		c0.6-0.1,2-0.3,2.9,0c0.3,0.1,0.6,0.3,0.6,0.6c0.1,0.3,0.2,0.7,0.4,1c0.4,0.7,1,1.2,1,1.2s0.4-0.7,0.6-1.1c0,0,0-0.1,0.1-0.1
		c0.1-0.1,0.3-0.1,0.6,0c0.4,0.2,0.8,0.8,1.1,1.9c0.1,0.2,0.1,0.4,0.2,0.6c0.3,0.7,0.8,1.2,1.3,1.6c0.6,0.5,1.1,0.7,1.1,0.7
		s0-0.3,0-0.7c0-0.5,0-1.1,0-1.6c0-0.2,0-0.3,0-0.5c0.1-0.9,2.5-1.7,3-1.8c0.4-0.1,3.4,1.4,3.4,0.9c0-0.4,0.5-0.8,1-1.2
		c0.1-0.1,0.2-0.2,0.3-0.2c0.2-0.2,0.5,0,0.8,0.2c0.5,0.5,1,1.2,1,0.9c0.1-0.5,0.5,0.8,0.7,1.4c0.1,0.3,0.2,0.8,0.3,1.3
		c0,0.3,0.1,0.6,0,0.9c0,0.2,0.1,0.4,0.2,0.7c0.4,0.7,2.1,0.5,2.3,0.4c0.1-0.1,0.2-0.7,0.3-1.4c0-0.5,0-1.1,0-1.6
		c-0.1-0.3-0.1-0.6-0.3-0.7c-0.3-0.3-0.5-1-0.6-1.8c-0.1-0.5-0.1-1.1,0-1.6c0-0.4,0.1-0.7,0.3-0.8c0.2-0.2,1.1-0.9,1.9-1.7
		c0.6-0.5,1.1-1.1,1.6-1.6c0.6-0.7,1-1.3,0.7-1.4c-0.5-0.2-0.6-0.6-0.5-1.1c0-0.4,0.1-0.9,0.2-1.5c0,0,0,0,0-0.1
		c0.2-1.4,1,0.3,1.4-1.6c0.1-0.4,0.3-0.7,0.5-0.9c1-0.9,2.9-0.9,2.6-1.2c-0.1-0.1-0.2-0.2-0.2-0.4c-0.1-0.5,0-1.2,0.5-1.6
		c0.2-0.2,0.7-0.5,1.2-0.9c0.7-0.6,1.5-1.3,1.3-1.5l0,0c0,0,0,0,0,0c-0.4-0.4-2.9-0.1-2.9-0.1s0,0.1-0.1,0.1
		c-0.1,0.2-0.3,0.5-0.7,0.6c-0.6,0.2-9.1,0.3-9.3-0.3c0-0.1-0.1-0.2-0.2-0.3c-0.4-0.3-1.2-0.2-1.2-0.2s-0.1,0.1-0.2,0.2
		c-0.2,0.3-0.7,0.8-1,0.9c-0.4,0.1-0.5-0.4-0.4-0.9c0-0.1,0-0.3,0.1-0.4c0.1-0.3-0.9-1.5-1.7-2.1c-0.4-0.3-0.7-0.4-0.9-0.3
		c-0.7,0.2-4.2-1.2-4.2-1.2h-21.7c0,0,0,0.5-0.1,1c0,0,0,0.1,0,0.1c0,0.2-0.1,0.4-0.1,0.5C145.6,96.8,144.9,97.7,144.9,98.6z
		 M190.2,99.3"/>
	<g class="st4">
		<defs>
			<path id="SVGID_1_" d="M144.9,98.6v8.1c0,0.3,0.2,0.5,0.4,0.8c0.4,0.4,1,0.7,0.9,1.5c0,0,0,0,0,0.1c-0.1,0.9,0.9,1.9,1.7,2.5
				c0.2,0.2,0.4,0.4,0.5,0.5c0.2,0.2,0.5,0.7,0.8,1.1c0.4,0.6,0.9,1.1,1.2,1.1c0.4-0.1,1.3-0.4,1.8,0.2c0.4,0.5,2.4,1.1,3.4,1.2h0.6
				c0.6-0.1,2-0.3,2.9,0c0.3,0.1,0.6,0.3,0.6,0.6c0.1,0.3,0.2,0.7,0.4,1c0.4,0.7,1,1.2,1,1.2s0.4-0.7,0.6-1.1c0,0,0-0.1,0.1-0.1
				c0.1-0.1,0.3-0.1,0.6,0c0.4,0.2,0.8,0.8,1.1,1.9c0.1,0.2,0.1,0.4,0.2,0.6c0.3,0.7,0.8,1.2,1.3,1.6c0.6,0.5,1.1,0.7,1.1,0.7
				s0-0.3,0-0.7c0-0.5,0-1.1,0-1.6c0-0.2,0-0.3,0-0.5c0.1-0.9,2.5-1.7,3-1.8c0.4-0.1,3.4,1.4,3.4,0.9c0-0.4,0.5-0.8,1-1.2
				c0.1-0.1,0.2-0.2,0.3-0.2c0.2-0.2,0.5,0,0.8,0.2c0.5,0.5,1,1.2,1,0.9c0.1-0.5,0.5,0.8,0.7,1.4c0.1,0.3,0.2,0.8,0.3,1.3
				c0,0.3,0.1,0.6,0,0.9c0,0.2,0.1,0.4,0.2,0.7c0.4,0.7,2.1,0.5,2.3,0.4c0.1-0.1,0.2-0.7,0.3-1.4c0-0.5,0-1.1,0-1.6
				c-0.1-0.3-0.1-0.6-0.3-0.7c-0.3-0.3-0.5-1-0.6-1.8c-0.1-0.5-0.1-1.1,0-1.6c0-0.4,0.1-0.7,0.3-0.8c0.2-0.2,1.1-0.9,1.9-1.7
				c0.6-0.5,1.1-1.1,1.6-1.6c0.6-0.7,1-1.3,0.7-1.4c-0.5-0.2-0.6-0.6-0.5-1.1c0-0.4,0.1-0.9,0.2-1.5c0,0,0,0,0-0.1
				c0.2-1.4,1,0.3,1.4-1.6c0.1-0.4,0.3-0.7,0.5-0.9c1-0.9,2.9-0.9,2.6-1.2c-0.1-0.1-0.2-0.2-0.2-0.4c-0.1-0.5,0-1.2,0.5-1.6
				c0.2-0.2,0.7-0.5,1.2-0.9c0.7-0.6,1.5-1.3,1.3-1.5l0,0c0,0,0,0,0,0c-0.4-0.4-2.9-0.1-2.9-0.1s0,0.1-0.1,0.1
				c-0.1,0.2-0.3,0.5-0.7,0.6c-0.6,0.2-9.1,0.3-9.3-0.3c0-0.1-0.1-0.2-0.2-0.3c-0.4-0.3-1.2-0.2-1.2-0.2s-0.1,0.1-0.2,0.2
				c-0.2,0.3-0.7,0.8-1,0.9c-0.4,0.1-0.5-0.4-0.4-0.9c0-0.1,0-0.3,0.1-0.4c0.1-0.3-0.9-1.5-1.7-2.1c-0.4-0.3-0.7-0.4-0.9-0.3
				c-0.7,0.2-4.2-1.2-4.2-1.2h-21.7c0,0,0,0.5-0.1,1c0,0,0,0.1,0,0.1c0,0.2-0.1,0.4-0.1,0.5C145.6,96.8,144.9,97.7,144.9,98.6z
				 M190.2,99.3"/>
		</defs>
		<clipPath id="SVGID_2_">
			<use xlink:href="#SVGID_1_"  style="overflow:visible;"/>
		</clipPath>
		<g class="st25">
			<line class="st26" x1="143.1" y1="118.9" x2="193.3" y2="118.9"/>
			<line class="st26" x1="143.1" y1="113.9" x2="193.3" y2="113.9"/>
			<line class="st26" x1="143.1" y1="108.9" x2="193.3" y2="108.9"/>
			<line class="st26" x1="143.1" y1="103.9" x2="193.3" y2="103.9"/>
			<line class="st26" x1="143.1" y1="98.9" x2="193.3" y2="98.9"/>
		</g>
	</g>
	<path class="st8" d="M144.9,107h17.7c0.6,0,1.1-0.5,1.1-1.1V95.3h-17.9l-1.1,3.3L144.9,107z"/>
	<g class="st4">
		<path class="st27" d="M161.5,104.3l-1,0l-0.1-0.2l-0.2-0.7c0-0.1-0.2-0.1-0.2,0l-0.2,0.7l-0.1,0.2l-1,0c-0.1,0-0.2,0.2-0.1,0.2
			l0.8,0.6l-0.3,0.9c0,0.1,0.1,0.2,0.2,0.1l0.8-0.6l0.8,0.6c0.1,0.1,0.2,0,0.2-0.1l-0.3-0.9l0.8-0.6
			C161.6,104.4,161.6,104.3,161.5,104.3z"/>
		<path class="st27" d="M161.5,100.3l-1,0l-0.1-0.2l-0.2-0.7c0-0.1-0.2-0.1-0.2,0l-0.2,0.7l-0.1,0.2l-1,0c-0.1,0-0.2,0.2-0.1,0.2
			l0.8,0.6l-0.3,0.9c0,0.1,0.1,0.2,0.2,0.1l0.8-0.6l0.8,0.6c0.1,0.1,0.2,0,0.2-0.1l-0.3-0.9l0.8-0.6
			C161.6,100.4,161.6,100.3,161.5,100.3z"/>
		<path class="st27" d="M161.5,96.3l-1,0l-0.1-0.2l-0.2-0.7c0-0.1-0.2-0.1-0.2,0l-0.2,0.7l-0.1,0.2l-1,0c-0.1,0-0.2,0.2-0.1,0.2
			l0.8,0.6l-0.3,0.9c0,0.1,0.1,0.2,0.2,0.1l0.8-0.6l0.8,0.6c0.1,0.1,0.2,0,0.2-0.1l-0.3-0.9l0.8-0.6
			C161.6,96.4,161.6,96.3,161.5,96.3z"/>
	</g>
	<g class="st4">
		<path class="st27" d="M157.5,104.3l-1,0l-0.1-0.2l-0.2-0.7c0-0.1-0.2-0.1-0.2,0l-0.2,0.7l-0.1,0.2l-1,0c-0.1,0-0.2,0.2-0.1,0.2
			l0.8,0.6l-0.3,0.9c0,0.1,0.1,0.2,0.2,0.1l0.8-0.6l0.8,0.6c0.1,0.1,0.2,0,0.2-0.1l-0.3-0.9l0.8-0.6
			C157.6,104.4,157.6,104.3,157.5,104.3z"/>
		<path class="st27" d="M157.5,100.3l-1,0l-0.1-0.2l-0.2-0.7c0-0.1-0.2-0.1-0.2,0l-0.2,0.7l-0.1,0.2l-1,0c-0.1,0-0.2,0.2-0.1,0.2
			l0.8,0.6l-0.3,0.9c0,0.1,0.1,0.2,0.2,0.1l0.8-0.6l0.8,0.6c0.1,0.1,0.2,0,0.2-0.1l-0.3-0.9l0.8-0.6
			C157.6,100.4,157.6,100.3,157.5,100.3z"/>
		<path class="st27" d="M157.5,96.3l-1,0l-0.1-0.2l-0.2-0.7c0-0.1-0.2-0.1-0.2,0l-0.2,0.7l-0.1,0.2l-1,0c-0.1,0-0.2,0.2-0.1,0.2
			l0.8,0.6l-0.3,0.9c0,0.1,0.1,0.2,0.2,0.1l0.8-0.6l0.8,0.6c0.1,0.1,0.2,0,0.2-0.1l-0.3-0.9l0.8-0.6
			C157.6,96.4,157.6,96.3,157.5,96.3z"/>
	</g>
	<g class="st4">
		<path class="st27" d="M153.5,104.3l-1,0l-0.1-0.2l-0.2-0.7c0-0.1-0.2-0.1-0.2,0l-0.2,0.7l-0.1,0.2l-1,0c-0.1,0-0.2,0.2-0.1,0.2
			l0.8,0.6l-0.3,0.9c0,0.1,0.1,0.2,0.2,0.1l0.8-0.6l0.8,0.6c0.1,0.1,0.2,0,0.2-0.1l-0.3-0.9l0.8-0.6
			C153.6,104.4,153.6,104.3,153.5,104.3z"/>
		<path class="st27" d="M153.5,100.3l-1,0l-0.1-0.2l-0.2-0.7c0-0.1-0.2-0.1-0.2,0l-0.2,0.7l-0.1,0.2l-1,0c-0.1,0-0.2,0.2-0.1,0.2
			l0.8,0.6l-0.3,0.9c0,0.1,0.1,0.2,0.2,0.1l0.8-0.6l0.8,0.6c0.1,0.1,0.2,0,0.2-0.1l-0.3-0.9l0.8-0.6
			C153.6,100.4,153.6,100.3,153.5,100.3z"/>
		<path class="st27" d="M153.5,96.3l-1,0l-0.1-0.2l-0.2-0.7c0-0.1-0.2-0.1-0.2,0l-0.2,0.7l-0.1,0.2l-1,0c-0.1,0-0.2,0.2-0.1,0.2
			l0.8,0.6l-0.3,0.9c0,0.1,0.1,0.2,0.2,0.1l0.8-0.6l0.8,0.6c0.1,0.1,0.2,0,0.2-0.1l-0.3-0.9l0.8-0.6
			C153.6,96.4,153.6,96.3,153.5,96.3z"/>
	</g>
	<g class="st4">
		<path class="st27" d="M149.5,104.3l-1,0l-0.1-0.2l-0.2-0.7c0-0.1-0.2-0.1-0.2,0l-0.2,0.7l-0.1,0.2l-1,0c-0.1,0-0.2,0.2-0.1,0.2
			l0.8,0.6l-0.3,0.9c0,0.1,0.1,0.2,0.2,0.1l0.8-0.6l0.8,0.6c0.1,0.1,0.2,0,0.2-0.1l-0.3-0.9l0.8-0.6
			C149.6,104.4,149.6,104.3,149.5,104.3z"/>
		<path class="st27" d="M149.5,100.3l-1,0l-0.1-0.2l-0.2-0.7c0-0.1-0.2-0.1-0.2,0l-0.2,0.7l-0.1,0.2l-1,0c-0.1,0-0.2,0.2-0.1,0.2
			l0.8,0.6l-0.3,0.9c0,0.1,0.1,0.2,0.2,0.1l0.8-0.6l0.8,0.6c0.1,0.1,0.2,0,0.2-0.1l-0.3-0.9l0.8-0.6
			C149.6,100.4,149.6,100.3,149.5,100.3z"/>
		<path class="st27" d="M149.5,96.3l-1,0l-0.1-0.2l-0.2-0.7c0-0.1-0.2-0.1-0.2,0l-0.2,0.7l-0.1,0.2l-1,0c-0.1,0-0.2,0.2-0.1,0.2
			l0.8,0.6l-0.3,0.9c0,0.1,0.1,0.2,0.2,0.1l0.8-0.6l0.8,0.6c0.1,0.1,0.2,0,0.2-0.1l-0.3-0.9l0.8-0.6
			C149.6,96.4,149.6,96.3,149.5,96.3z"/>
	</g>
</g>
<g class="st1">
	<g class="st4">
		<path class="st0" d="M199.5,155.2c0,0-0.1-0.1-0.1-0.1c-0.2-0.2-0.8-0.8-4.6-0.4c-0.3,0-0.6,0.3-0.7,0.6c-0.1,0.1-0.2,0.3-0.5,0.4
			c-1.1,0.2-10.5,0.3-12.1-0.2c-0.1-0.2-0.2-0.3-0.4-0.5c-0.8-0.6-2-0.5-2.3-0.5c-0.2,0-0.4,0.1-0.5,0.3c0,0-0.1,0.1-0.2,0.3
			c-0.3,0.4-0.5,0.6-0.7,0.8c0-0.1,0-0.2,0-0.3c0-0.1,0-0.3,0.1-0.4c0.4-1.3-2.2-3.4-2.7-3.8c-0.8-0.5-1.4-0.7-1.9-0.6
			c-0.6,0.1-3.2-0.8-5.3-1.7c-0.1,0-0.2-0.1-0.3-0.1h-30c-0.4,0-0.7,0.3-0.8,0.7c0,0-0.1,0.7-0.2,1.3l0,0.1c0,0.3-0.1,0.4-0.1,0.4
			c-0.2,0.3-1,1.5-1,2.8v11.2c0,0.8,0.4,1.3,0.8,1.6c0.1,0.1,0.2,0.2,0.3,0.3c0.6,0.5,0.8,0.7,0.7,1.2c0,0,0,0.1,0,0.1
			c-0.1,1.6,1.5,3.2,2.6,4.1c0.3,0.2,0.5,0.4,0.6,0.6c0.2,0.2,0.5,0.6,0.7,0.9l0.4,0.5c1,1.3,1.6,1.9,2.3,1.7c0.1,0,0.2-0.1,0.3-0.1
			c0.8-0.2,1.1-0.2,1.4,0.1c0.9,1.1,4.2,1.8,5.3,1.9h0.8c0,0,0.1,0,0.2,0c0.7-0.1,2.6-0.4,3.6,0c0.2,0.1,0.4,0.2,0.4,0.3
			c0.1,0.5,0.3,1,0.7,1.5c0.6,1.1,1.5,1.8,1.5,1.9c0.2,0.2,0.4,0.2,0.6,0.2c0.2,0,0.4-0.2,0.5-0.4c0,0,0.5-0.8,0.7-1.4
			c0.4,0.2,0.8,0.9,1.2,2.1c0.1,0.3,0.2,0.7,0.4,1c0.4,0.9,1.1,1.7,2,2.4c0.9,0.7,1.7,1,1.7,1c0.2,0.1,0.5,0.1,0.7-0.1
			s0.3-0.4,0.3-0.6c0,0,0-0.4,0-0.9c0-0.6,0-1.4,0.1-2.1c0-0.2,0-0.4,0-0.6c0.1-0.6,2.5-1.6,3.4-1.8c0.2,0,1.1,0.4,1.7,0.6
			c2,0.8,2.8,1,3.3,0.6c0.2-0.2,0.4-0.4,0.4-0.7c0-0.2,0.8-0.8,1.2-1l0.3-0.2c0.1,0,0.2,0.1,0.3,0.2c0.2,0.2,0.5,0.5,0.7,0.7
			c0.4,0.4,0.7,0.8,1.1,0.8c0.1,0.4,0.3,0.8,0.4,1.3c0.2,0.6,0.3,1.2,0.4,1.7c0.1,0.5,0.1,0.8,0,1c0,0.4,0.1,0.8,0.4,1.4
			c0.3,0.6,1,1,2,1.1c0,0,0.3,0,0.7,0c0.6,0,1.4-0.1,1.7-0.4c0.3-0.3,0.5-1.1,0.5-2.4c0-0.5,0.1-1.5-0.1-2.3
			c-0.1-0.6-0.3-1.1-0.6-1.4c-0.1-0.1-0.4-0.8-0.6-2.1c-0.1-0.7-0.1-1.4,0-2c0.1-0.5,0.1-0.6,0.1-0.6c0.4-0.3,1.5-1.3,2.7-2.4
			c0.9-0.8,1.7-1.6,2.2-2.2c1.1-1.2,1.5-1.9,1.3-2.5c-0.1-0.3-0.3-0.5-0.6-0.7c-0.2-0.1-0.3-0.1-0.2-0.8c0-0.2,0.1-0.5,0.1-0.8
			c0.1-0.4,0.1-0.8,0.2-1.3c0-0.1,0-0.1,0-0.2c1,0,1.6-0.5,1.9-1.9c0.1-0.3,0.2-0.6,0.5-0.9c0.7-0.6,1.8-0.9,2.5-1.1
			c0.7-0.2,1.2-0.3,1.3-0.9c0.1-0.3-0.1-0.6-0.3-0.8c0,0,0,0-0.1-0.1c-0.1-0.4,0-1.1,0.4-1.4c0.1-0.1,0.3-0.3,0.5-0.4
			c0.3-0.2,0.7-0.5,1.1-0.8C199,157.2,200.2,156.1,199.5,155.2z M196.6,157.2c-0.4,0.3-0.7,0.6-1,0.8c-0.2,0.2-0.4,0.3-0.6,0.5
			c-0.9,0.7-1.1,2.1-0.9,3c-0.9,0.2-2.1,0.6-3,1.4c-0.5,0.5-0.8,1.1-1,1.7c-0.1,0.6-0.2,0.7-0.2,0.7h-0.2c-0.6,0-1.4,0.1-1.6,1.6
			c0,0.4-0.1,0.8-0.2,1.2c-0.1,0.3-0.1,0.6-0.1,0.9c0,0.5-0.1,1.4,0.7,2c-0.1,0.2-0.4,0.5-0.8,1c-0.5,0.6-1.2,1.3-2.1,2.1
			c-1.2,1.1-2.3,2-2.7,2.3c-0.4,0.3-0.6,0.8-0.7,1.6c-0.1,0.6-0.1,1.5,0,2.3c0.1,0.8,0.4,2.3,1,2.9c0,0,0.1,0.1,0.2,0.6
			c0.1,0.5,0.1,1.2,0.1,2c0,0.7-0.1,1.2-0.2,1.4c-0.6,0.1-1.7,0-1.9-0.3c-0.2-0.4-0.2-0.5-0.2-0.5c0-0.4,0-0.8,0-1.4
			c-0.1-0.5-0.2-1.2-0.4-1.8c-0.7-2.7-1.3-2.6-1.6-2.6c0,0-0.1,0-0.1,0c0,0,0,0-0.1-0.1c-0.2-0.3-0.5-0.6-0.8-0.9
			c-1-0.9-1.7-0.6-2.1-0.4l-0.4,0.3c-0.6,0.4-1.3,0.9-1.6,1.5c-0.5-0.1-1.3-0.4-1.8-0.6c-1.5-0.6-2-0.7-2.4-0.7c0,0-4.6,1.1-4.7,3.2
			c0,0.2,0,0.4,0,0.6c0,0.6,0,1.3,0,1.9c-0.1-0.1-0.3-0.2-0.4-0.3c-0.7-0.6-1.3-1.2-1.6-1.9c-0.1-0.2-0.2-0.5-0.3-0.7
			c-0.4-1.5-1.1-2.6-1.9-3.1c-0.6-0.4-1.3-0.3-1.8,0.1c-0.1,0.1-0.2,0.2-0.2,0.3c-0.1,0.2-0.2,0.4-0.3,0.6c-0.2-0.2-0.4-0.5-0.6-0.8
			c-0.3-0.4-0.4-0.8-0.5-1.1c-0.1-0.4-0.4-1-1.3-1.3c-1.3-0.5-3.4-0.2-4.3,0h-0.6c-1.5-0.2-3.9-0.9-4.2-1.4
			c-0.9-1.1-2.2-0.8-2.9-0.7c0,0-0.1,0-0.1,0c-0.1-0.1-0.4-0.4-1-1.2l-0.4-0.5c-0.3-0.4-0.6-0.8-0.8-1c-0.2-0.2-0.4-0.4-0.8-0.7
			c-0.7-0.7-2.1-1.9-2-2.9c0.2-1.3-0.7-2-1.3-2.5c-0.1-0.1-0.2-0.1-0.3-0.2l0,0c-0.3-0.3-0.3-0.4-0.3-0.5v-11.2c0-1,0.7-2,0.7-2
			c0,0,0-0.1,0-0.1c0.1-0.2,0.2-0.4,0.2-0.8l0-0.2c0-0.2,0.1-0.5,0.1-0.7h2.1l0.2-0.5c0-0.2,0.3-0.2,0.3,0l0.2,0.5h4.9l0.2-0.5
			c0.1-0.2,0.3-0.2,0.3,0l0.2,0.5h4.9l0.2-0.5c0.1-0.2,0.3-0.2,0.3,0l0.2,0.5h4.8l0.2-0.5c0.1-0.2,0.3-0.2,0.3,0l0.2,0.5h9.8
			c2.3,0.9,5,1.9,6.1,1.7c0.1,0,0.3,0.1,0.6,0.3c1,0.7,1.9,1.8,2.1,2.2c0,0.2-0.1,0.4-0.1,0.5c-0.1,0.5,0,1.4,0.5,1.9
			c0.3,0.2,0.7,0.3,1.1,0.2c0.2-0.1,0.8-0.3,1.8-1.5c0,0,0,0,0,0c0.3,0,0.7,0,0.8,0.2c0.6,1.9,13.7,1,13.8,0.9
			c0.7-0.2,1.1-0.7,1.3-1c0.9-0.1,1.9-0.1,2.5,0C197.6,156.3,197.3,156.7,196.6,157.2z"/>
	</g>
	<g class="st4">
		<g>
			<line class="st26" x1="162.2" y1="182.7" x2="165.8" y2="182.7"/>
			<line class="st26" x1="180.1" y1="182.7" x2="183.8" y2="182.7"/>
			<line class="st26" x1="143.7" y1="175.8" x2="184.6" y2="175.8"/>
			<line class="st26" x1="138.7" y1="168.9" x2="188.2" y2="168.9"/>
			<line class="st26" x1="160.7" y1="162" x2="194.2" y2="162"/>
			<line class="st26" x1="160.7" y1="155.1" x2="176.2" y2="155.1"/>
		</g>
	</g>
	<g class="st4">
		<path class="st0" d="M137.6,150l-1.5,4.5l0.3,11.8h24.4c0.8,0,1.5-0.7,1.5-1.5V150H137.6z M142.7,162.9l-1.1,0.8l0.4,1.3
			c0,0.2-0.1,0.3-0.3,0.2l-1.1-0.8l-1.1,0.8c-0.1,0.1-0.3,0-0.3-0.2l0.4-1.3l-1-0.8c-0.1-0.1-0.1-0.3,0.1-0.3l1.3,0l0.1-0.3l0.3-1
			c0-0.2,0.3-0.2,0.3,0l0.3,1l0.1,0.3l1.3,0C142.7,162.6,142.8,162.8,142.7,162.9z M142.7,157.4l-1.1,0.8l0.4,1.3
			c0,0.2-0.1,0.3-0.3,0.2l-1.1-0.8l-1.1,0.8c-0.1,0.1-0.3,0-0.3-0.2l0.4-1.3l-1-0.8c-0.1-0.1-0.1-0.3,0.1-0.3l1.3,0l0.1-0.3l0.3-0.9
			c0-0.2,0.3-0.2,0.3,0l0.3,0.9l0.1,0.3l1.3,0C142.7,157,142.8,157.3,142.7,157.4z M142.7,151.8l-1.1,0.8l0.4,1.3
			c0,0.2-0.1,0.3-0.3,0.2l-1.1-0.8l-1.1,0.8c-0.1,0.1-0.3,0-0.3-0.2l0.4-1.3l-1-0.8c-0.1-0.1-0.1-0.3,0.1-0.3l1.3,0l0.1-0.3l0.2-0.5
			l0.2-0.5c0-0.2,0.3-0.2,0.3,0l0.2,0.5l0.1,0.5l0.1,0.3l1.3,0C142.7,151.5,142.8,151.7,142.7,151.8z M148.2,162.9l-1.1,0.8l0.4,1.3
			c0.1,0.2-0.1,0.3-0.3,0.2l-1.1-0.8l-1.1,0.8c-0.1,0.1-0.3,0-0.3-0.2l0.4-1.3l-1.1-0.8c-0.1-0.1-0.1-0.3,0.1-0.3l1.3,0l0.1-0.3
			l0.3-1c0.1-0.2,0.3-0.2,0.3,0l0.3,1l0.1,0.3l1.3,0C148.3,162.6,148.3,162.8,148.2,162.9z M148.2,157.4l-1.1,0.8l0.4,1.3
			c0.1,0.2-0.1,0.3-0.3,0.2l-1.1-0.8l-1.1,0.8c-0.1,0.1-0.3,0-0.3-0.2l0.4-1.3l-1.1-0.8c-0.1-0.1-0.1-0.3,0.1-0.3l1.3,0l0.1-0.3
			l0.3-0.9c0.1-0.2,0.3-0.2,0.3,0l0.3,0.9l0.1,0.3l1.3,0C148.3,157,148.3,157.3,148.2,157.4z M148.2,151.8l-1.1,0.8l0.4,1.3
			c0.1,0.2-0.1,0.3-0.3,0.2l-1.1-0.8l-1.1,0.8c-0.1,0.1-0.3,0-0.3-0.2l0.4-1.3l-1.1-0.8c-0.1-0.1-0.1-0.3,0.1-0.3l1.3,0l0.1-0.3
			l0.2-0.5l0.2-0.5c0.1-0.2,0.3-0.2,0.3,0l0.2,0.5l0.2,0.5l0.1,0.3l1.3,0C148.3,151.5,148.3,151.7,148.2,151.8z M153.7,162.9l-1,0.8
			l0.4,1.3c0,0.2-0.1,0.3-0.3,0.2l-1.1-0.8l-1.1,0.8c-0.1,0.1-0.3,0-0.3-0.2l0.4-1.3l-1.1-0.8c-0.1-0.1-0.1-0.3,0.1-0.3l1.3,0
			l0.1-0.3l0.3-1c0.1-0.2,0.3-0.2,0.3,0l0.3,1l0.1,0.3l1.3,0C153.8,162.6,153.9,162.8,153.7,162.9z M153.7,157.4l-1,0.8l0.4,1.3
			c0,0.2-0.1,0.3-0.3,0.2l-1.1-0.8l-1.1,0.8c-0.1,0.1-0.3,0-0.3-0.2l0.4-1.3l-1.1-0.8c-0.1-0.1-0.1-0.3,0.1-0.3l1.3,0l0.1-0.3
			l0.3-0.9c0.1-0.2,0.3-0.2,0.3,0l0.3,0.9l0.1,0.3l1.3,0C153.8,157,153.9,157.3,153.7,157.4z M153.7,151.8l-1,0.8l0.4,1.3
			c0,0.2-0.1,0.3-0.3,0.2l-1.1-0.8l-1.1,0.8c-0.1,0.1-0.3,0-0.3-0.2l0.4-1.3l-1.1-0.8c-0.1-0.1-0.1-0.3,0.1-0.3l1.3,0l0.1-0.3
			l0.2-0.5l0.2-0.5c0.1-0.2,0.3-0.2,0.3,0l0.2,0.5l0.1,0.5l0.1,0.3l1.3,0C153.8,151.5,153.9,151.7,153.7,151.8z M159.3,162.9
			l-1.1,0.8l0.4,1.3c0.1,0.2-0.1,0.3-0.3,0.2l-1.1-0.8l-1.1,0.8c-0.1,0.1-0.3,0-0.3-0.2l0.4-1.3l-1.1-0.8c-0.1-0.1-0.1-0.3,0.1-0.3
			l1.3,0l0.1-0.3l0.3-1c0.1-0.2,0.3-0.2,0.3,0l0.3,1l0.1,0.3l1.3,0C159.3,162.6,159.4,162.8,159.3,162.9z M159.3,157.4l-1.1,0.8
			l0.4,1.3c0.1,0.2-0.1,0.3-0.3,0.2l-1.1-0.8l-1.1,0.8c-0.1,0.1-0.3,0-0.3-0.2l0.4-1.3l-1.1-0.8c-0.1-0.1-0.1-0.3,0.1-0.3l1.3,0
			l0.1-0.3l0.3-0.9c0.1-0.2,0.3-0.2,0.3,0l0.3,0.9l0.1,0.3l1.3,0C159.3,157,159.4,157.3,159.3,157.4z M157.8,151.2l0.1,0.3l1.3,0
			c0.2,0,0.2,0.2,0.1,0.3l-1.1,0.8l0.4,1.3c0.1,0.2-0.1,0.3-0.3,0.2l-1.1-0.8l-1.1,0.8c-0.1,0.1-0.3,0-0.3-0.2l0.4-1.3l-1.1-0.8
			c-0.1-0.1-0.1-0.3,0.1-0.3l1.3,0l0.1-0.3l0.1-0.5l0.2-0.5c0.1-0.2,0.3-0.2,0.3,0l0.2,0.5L157.8,151.2z"/>
	</g>
</g>
<g class="st1">
	<g class="st4">
		<g>
			<polygon class="st26" points="29.4,156 8.6,154 8.6,187.9 29.4,189.9 			"/>
			<polyline class="st26" points="8.6,154 12.7,151.2 33.5,153.2 29.4,156 			"/>
			<polyline class="st26" points="33.5,153.2 33.5,187.1 29.4,189.9 			"/>
		</g>
	</g>
	<g id="_x36__3_" class="st4">
		<path class="st5" d="M24.4,184.8l-11-1c-0.6,0-1-0.4-1-1v-22c0-0.6,0.4-1,1-1l11,1c0.6,0,1,0.4,1,1v22
			C25.4,184.4,25,184.8,24.4,184.8z"/>
		<path class="st6" d="M23.9,181.8l-10-1c-0.6,0-1-0.4-1-1v-17c0-0.6,0.4-1,1-1l10,1c0.6,0,1,0.4,1,1v17
			C24.9,181.4,24.5,181.8,23.9,181.8z"/>
		<circle class="st6" cx="18.7" cy="183.6" r="1"/>
	</g>
</g>
<g class="st1">
	<g class="st4">
		<polygon class="st26" points="-17.3,156 3.5,154 3.5,187.9 -17.3,189.9 		"/>
		<polyline class="st26" points="3.5,154 -0.6,151.2 -21.4,153.2 -17.3,156 		"/>
		<polyline class="st26" points="-21.4,153.2 -21.4,187.1 -17.3,189.9 		"/>
	</g>
</g>
<g id="x_4_" class="st1">
	<path class="st2" d="M-0.9,184.8l-12,1.1c-0.6,0-1-0.4-1-1v-25c0-0.6,0.4-1,1-1l12-1.1c0.6,0,1,0.4,1,1v25
		C0.1,184.4-0.3,184.8-0.9,184.8z"/>
	<path class="st3" d="M-0.9,184.8l-12,1.1c-0.6,0-1-0.4-1-1v-25c0-0.6,0.4-1,1-1l12-1.1c0.6,0,1,0.4,1,1v25
		C0.1,184.4-0.3,184.8-0.9,184.8z"/>
	<path class="st8" d="M-3.3,159.6l-7.2,0.8c-0.6,0-1-0.4-1-1V158l9.2-0.9v1.5C-2.3,159.1-2.7,159.6-3.3,159.6z"/>
</g>
<g class="st1">
	<ellipse class="st28" cx="29" cy="240.9" rx="8" ry="8"/>
	<line class="st28" x1="29" y1="240.9" x2="29" y2="232.9"/>
	<line class="st28" x1="29" y1="246.7" x2="29" y2="248.9"/>
	<line class="st28" x1="37" y1="240.9" x2="34.8" y2="240.9"/>
	<line class="st28" x1="23.2" y1="240.9" x2="21" y2="240.9"/>
	<line class="st28" x1="29" y1="240.9" x2="34.6" y2="235.3"/>
	<line class="st28" x1="24.9" y1="245" x2="23.4" y2="246.6"/>
	<line class="st28" x1="34.7" y1="246.6" x2="33.1" y2="245"/>
	<line class="st28" x1="24.9" y1="236.8" x2="23.4" y2="235.2"/>
</g>
<g class="st1">
	<line class="st24" x1="67" y1="50.9" x2="67" y2="51.9"/>
	<line class="st24" x1="70" y1="48.9" x2="70" y2="51.9"/>
	<line class="st24" x1="73" y1="45.9" x2="73" y2="51.9"/>
</g>
<g class="st1">
	<line class="st24" x1="200.1" y1="-48" x2="209.9" y2="-38.1"/>
	<line class="st24" x1="209.9" y1="-48" x2="200.1" y2="-38.1"/>
</g>
<g class="st1">
	<path class="st29" d="M189.9-45.6c0,0-0.5-0.5-0.6-0.6c-2-2-5.3-2.1-7.3,0c-2,2-2,5.3,0,7.4c2,2,5.3,2,7.4,0"/>
	<polyline class="st29" points="188,-45.2 190.3,-45.2 190.3,-47.5 	"/>
</g>
<g class="st1">
	<line class="st30" x1="136" y1="-33.1" x2="156" y2="-33.1"/>
	<line class="st30" x1="136" y1="-27.1" x2="156" y2="-27.1"/>
	<line class="st30" x1="136" y1="-21.1" x2="156" y2="-21.1"/>
</g>
<circle class="st31" cx="118.5" cy="-33.6" r="2"/>
<circle class="st31" cx="110.5" cy="-33.6" r="2"/>
<circle class="st31" cx="118.5" cy="-25.6" r="2"/>
<circle class="st31" cx="110.5" cy="-25.6" r="2"/>
</svg>
