<?xml version="1.0" encoding="utf-8"?>
<!-- Generator: Adobe Illustrator 22.0.0, SVG Export Plug-In . SVG Version: 6.00 Build 0)  -->
<svg version="1.1" id="Layer_1" xmlns="http://www.w3.org/2000/svg" xmlns:xlink="http://www.w3.org/1999/xlink" x="0px" y="0px"
	 viewBox="0 0 28.3 31.9" style="enable-background:new 0 0 28.3 31.9;" xml:space="preserve">
<style type="text/css">
	.st0{display:none;}
	.st1{display:inline;}
	.st2{fill:#282D3A;}
	.st3{display:inline;fill:#282D3A;stroke:#282D3A;stroke-width:2;stroke-linejoin:round;stroke-miterlimit:10;}
	.st4{display:inline;fill:#FFFFFF;}
	.st5{display:inline;fill:#282D3A;}
	.st6{fill:#282D3A;stroke:#282D3A;stroke-width:2;stroke-linejoin:round;stroke-miterlimit:10;}
	.st7{fill:#FFFFFF;}
	.st8{fill:#FFFFFF;stroke:#FFFFFF;stroke-width:2;stroke-linejoin:round;stroke-miterlimit:10;}
	.st9{display:inline;fill:#85898C;stroke:#85898C;stroke-width:2;stroke-linejoin:round;stroke-miterlimit:10;}
	.st10{display:inline;fill:#85898C;}
	.st11{display:none;fill:#B2B2B2;}
	.st12{fill:none;stroke:#000000;stroke-width:1.5;stroke-linecap:round;stroke-linejoin:round;stroke-miterlimit:10;}
	.st13{display:none;fill:none;stroke:#FFFFFF;stroke-width:2;stroke-linecap:round;stroke-linejoin:round;stroke-miterlimit:10;}
	.st14{display:inline;fill:none;stroke:#282D3A;stroke-width:1.5;stroke-linejoin:round;stroke-miterlimit:10;}
	.st15{display:inline;fill:none;stroke:#000000;stroke-width:1.5;stroke-miterlimit:10;}
	.st16{fill:#010002;}
	.st17{display:inline;fill:#010002;}
	.st18{fill:none;stroke:#FFFFFF;stroke-width:1.5;stroke-linecap:round;stroke-linejoin:round;stroke-miterlimit:10;}
	.st19{fill:none;stroke:#FFFFFF;stroke-width:1.5;stroke-miterlimit:10;}
	.st20{fill:#FFFFFF;stroke:#FFFFFF;stroke-width:1.5;stroke-miterlimit:10;}
	.st21{display:inline;fill:none;stroke:#FFFFFF;stroke-linecap:round;stroke-miterlimit:10;}
	.st22{display:none;fill:#FFFFFF;}
	
		.st23{display:inline;fill:none;stroke:#282D3A;stroke-width:1.5;stroke-linecap:round;stroke-linejoin:round;stroke-miterlimit:10;}
	.st24{clip-path:url(#SVGID_2_);}
	.st25{fill:none;stroke:#282D3A;stroke-width:1.5;stroke-linecap:round;stroke-linejoin:round;stroke-miterlimit:10;}
	.st26{fill:#F5F5F5;}
	.st27{display:inline;fill:none;stroke:#282D3A;stroke-linecap:round;stroke-linejoin:round;stroke-miterlimit:10;}
	
		.st28{display:inline;fill:none;stroke:#000000;stroke-width:1.5;stroke-linecap:round;stroke-linejoin:round;stroke-miterlimit:10;}
	.st29{display:inline;fill:none;stroke:#282D3A;stroke-width:2;stroke-linecap:round;stroke-linejoin:round;stroke-miterlimit:10;}
	.st30{display:none;fill:#282D3A;}
</style>
<g id="_x35_s" class="st0">
	<g class="st1">
		<path class="st2" d="M18.9,3.7h-10c-1.1,0-2,0.9-2,2v20c0,1.1,0.9,2,2,2h10c1.1,0,2-0.9,2-2v-20C20.9,4.6,20,3.7,18.9,3.7z
			 M13.9,26.7c-0.5,0-1-0.4-1-1c0-0.5,0.5-1,1-1c0.6,0,1,0.5,1,1C14.9,26.3,14.5,26.7,13.9,26.7z M19.4,22.7c0,0.4-0.2,0.7-0.5,0.9
			c-0.1,0.1-0.3,0.1-0.5,0.1h-9c-0.2,0-0.3,0-0.5-0.1c-0.3-0.2-0.5-0.5-0.5-0.9v-15c0-0.4,0.2-0.7,0.5-0.9c0.2-0.1,0.3-0.1,0.5-0.1
			h9c0.2,0,0.4,0,0.5,0.1c0.3,0.2,0.5,0.5,0.5,0.9V22.7z"/>
	</g>
</g>
<g id="_x36_" class="st0">
	<g class="st1">
		<path class="st2" d="M19.6,3h-11c-1.1,0-2,0.9-2,2v22c0,1.1,0.9,2,2,2h11c1.1,0,2-0.9,2-2V5C21.6,3.9,20.7,3,19.6,3z M14.1,28
			c-0.6,0-1-0.5-1-1c0-0.6,0.4-1,1-1c0.5,0,1,0.4,1,1C15.1,27.5,14.7,28,14.1,28z M20.1,24c0,0.4-0.2,0.7-0.5,0.9
			c-0.2,0.1-0.3,0.1-0.5,0.1h-10c-0.2,0-0.4,0-0.5-0.1c-0.3-0.2-0.5-0.5-0.5-0.9V7c0-0.4,0.2-0.7,0.5-0.9C8.8,6,8.9,6,9.1,6h10
			c0.2,0,0.3,0,0.5,0.1c0.3,0.2,0.5,0.5,0.5,0.9V24z"/>
	</g>
</g>
<g id="plus">
	<g id="_x36__2_">
		<g>
			<path class="st2" d="M25.7,1H12.5c-1.1,0-2,0.9-2,2v1h4c0.4,0,0.8,0.1,1.1,0.3h9.5c0.2,0,0.4,0.1,0.6,0.2C26,4.7,26.1,5,26.1,5.3
				v20.2c0,0.3-0.2,0.6-0.4,0.8c-0.2,0.1-0.4,0.2-0.6,0.2h-8.6V30c0,0.5-0.4,1-1,1h10.2c1.1,0,2-0.9,2-2V3C27.7,1.9,26.8,1,25.7,1z
				 M20.3,29c-0.1,0.6-0.6,1-1.2,1c-0.6,0-1.1-0.4-1.2-1c0-0.1,0-0.1,0-0.2c0-0.6,0.5-1.2,1.2-1.2c0.7,0,1.2,0.5,1.2,1.2
				C20.3,28.9,20.3,28.9,20.3,29z"/>
		</g>
	</g>
	<g id="_x36__1_">
		<g>
			<path class="st2" d="M13.5,5h-11C2.3,5,2,5,1.7,5.1C1,5.5,0.5,6.2,0.5,7v22c0,1.1,0.9,2,2,2h11c0.7,0,1.4-0.4,1.7-1
				c0.2-0.3,0.3-0.6,0.3-1V7C15.5,5.9,14.6,5,13.5,5z M8,30c-0.5,0-1-0.5-1-1s0.5-1,1-1c0.6,0,1,0.5,1,1S8.6,30,8,30z M14,26
				c0,0.2,0,0.3-0.1,0.5c-0.1,0.2-0.2,0.3-0.4,0.4C13.4,26.9,13.2,27,13,27H3c-0.2,0-0.3,0-0.5-0.1C2.2,26.7,2,26.3,2,26V9
				c0-0.4,0.2-0.7,0.5-0.9C2.7,8,2.9,8,3,8h10c0.2,0,0.4,0,0.5,0.1C13.8,8.3,14,8.6,14,9V26z"/>
		</g>
	</g>
</g>
<g id="x" class="st0">
	<path class="st3" d="M61.9,26.7h-12c-0.6,0-1-0.4-1-1v-23c0-0.6,0.4-1,1-1h12c0.6,0,1,0.4,1,1v23C62.9,26.3,62.5,26.7,61.9,26.7z"
		/>
	<path class="st4" d="M61.9,26.7h-12c-0.6,0-1-0.4-1-1v-23c0-0.6,0.4-1,1-1h12c0.6,0,1,0.4,1,1v23C62.9,26.3,62.5,26.7,61.9,26.7z"
		/>
	<path class="st5" d="M59.5,3h-7.2c-0.6,0-1-0.4-1-1V0.7h9.2V2C60.5,2.6,60.1,3,59.5,3z"/>
</g>
<g id="all" class="st0">
	<g id="_x35_s_1_" class="st1">
		<path class="st6" d="M109.9,26.7h-10c-0.6,0-1-0.4-1-1v-20c0-0.6,0.4-1,1-1h10c0.6,0,1,0.4,1,1v20
			C110.9,26.3,110.5,26.7,109.9,26.7z"/>
		<path class="st7" d="M109.4,23.7h-9c-0.6,0-1-0.4-1-1v-15c0-0.6,0.4-1,1-1h9c0.6,0,1,0.4,1,1v15C110.4,23.3,110,23.7,109.4,23.7z"
			/>
		<circle class="st7" cx="104.9" cy="25.7" r="1"/>
	</g>
	<g id="x_2_" class="st1">
		<path class="st8" d="M120.9,26.7h-13v-24c0-0.6,0.4-1,1-1h12c0.6,0,1,0.4,1,1v23C121.9,26.3,121.5,26.7,120.9,26.7z"/>
		<path class="st6" d="M121.9,26.7h-12c-0.6,0-1-0.4-1-1v-23c0-0.6,0.4-1,1-1h12c0.6,0,1,0.4,1,1v23
			C122.9,26.3,122.5,26.7,121.9,26.7z"/>
		<path class="st7" d="M121.9,26.7h-12c-0.6,0-1-0.4-1-1v-23c0-0.6,0.4-1,1-1h12c0.6,0,1,0.4,1,1v23
			C122.9,26.3,122.5,26.7,121.9,26.7z"/>
		<path class="st2" d="M119.5,3h-7.2c-0.6,0-1-0.4-1-1V0.7h9.2V2C120.5,2.6,120.1,3,119.5,3z"/>
	</g>
</g>
<g id="x_1_" class="st0">
	<path class="st9" d="M83.9,26.7h-12c-0.6,0-1-0.4-1-1v-23c0-0.6,0.4-1,1-1h12c0.6,0,1,0.4,1,1v23C84.9,26.3,84.5,26.7,83.9,26.7z"
		/>
	<path class="st4" d="M83.9,26.7h-12c-0.6,0-1-0.4-1-1v-23c0-0.6,0.4-1,1-1h12c0.6,0,1,0.4,1,1v23C84.9,26.3,84.5,26.7,83.9,26.7z"
		/>
	<path class="st10" d="M81.5,3h-7.2c-0.6,0-1-0.4-1-1V0.7h9.2V2C82.5,2.6,82.1,3,81.5,3z"/>
</g>
<rect x="-11.6" y="147.4" class="st11" width="50" height="50"/>
<g class="st0">
	<g class="st1">
		<rect x="-8.9" y="185" class="st12" width="16.8" height="8.1"/>
		<rect x="-8.9" y="176.9" class="st12" width="16.8" height="8.1"/>
		<rect x="-8.9" y="168.9" class="st12" width="16.8" height="8.1"/>
		<path class="st12" d="M14.9,188.2l-7,4.9L14.9,188.2z"/>
		<path class="st12" d="M14.9,180.1l-7,4.9L14.9,180.1z"/>
		<path class="st12" d="M14.9,172.1l-7,4.9L14.9,172.1z"/>
		<path class="st12" d="M13.9,164.7l-6,4.2L13.9,164.7z"/>
		<path class="st12" d="M4.3,159.7l-13.2,9.1L4.3,159.7z"/>
		<line class="st12" x1="4.3" y1="159.7" x2="14.9" y2="159.7"/>
	</g>
	<circle class="st1" cx="-0.5" cy="172.9" r="1.5"/>
	<circle class="st1" cx="-0.5" cy="180.9" r="1.5"/>
	<circle class="st1" cx="-0.5" cy="189" r="1.5"/>
</g>
<rect x="68.4" y="147.4" class="st11" width="50" height="50"/>
<rect x="148.4" y="147.4" class="st11" width="50" height="50"/>
<rect x="148.4" y="87.4" class="st11" width="50" height="50"/>
<rect x="20.4" y="-38.6" class="st11" width="50" height="50"/>
<circle class="st0" cx="39.4" cy="127.5" r="10"/>
<polyline class="st13" points="35.6,67.5 38.7,70.9 42.7,63.2 "/>
<g id="x_3_" class="st0">
	<path class="st14" d="M103.2,132H83.6c-0.6,0-1-0.4-1-1V94.3c0-0.6,0.4-1,1-1h19.6c0.6,0,1,0.4,1,1V131
		C104.2,131.5,103.8,132,103.2,132z"/>
	<path class="st5" d="M99.5,96.3H87.3c-0.6,0-1-0.4-1-1v-2.5h14.2v2.5C100.5,95.8,100.1,96.3,99.5,96.3z"/>
</g>
<g id="_x32_" class="st0">
	<path class="st15" d="M110.6,158.7c0.4,27.1-17.2,35.7-17.2,35.7s-17.5-8.7-17.1-35.7c0,0,7.9-0.8,17.1-6.3
		C102.7,157.8,110.6,158.7,110.6,158.7z"/>
	<path class="st1" d="M103.9,163.4c0.2,16.5-10.5,22.8-10.5,22.8s-10.7-6.3-10.4-22.8c0,0,4.8-0.5,10.4-3.9
		C99.1,162.9,103.9,163.4,103.9,163.4z"/>
</g>
<g id="_x33_" class="st0">
	<g class="st1">
		<path class="st16" d="M173,130c-7.6,0-14.3-4.8-16.8-12c-0.1-0.2-0.1-0.4,0-0.6c0.1-0.2,0.3-0.3,0.5-0.4c0.1,0,0.2,0,0.3,0
			c0.3,0,0.7,0.2,0.8,0.6c2.2,6.5,8.4,10.9,15.2,10.9c8.9,0,16.1-7.2,16.1-16.1c0-0.4,0.4-0.8,0.8-0.8c0.4,0,0.8,0.4,0.8,0.8
			C190.7,122,182.8,130,173,130z"/>
		<path class="st16" d="M156.1,113.1c-0.4,0-0.8-0.4-0.8-0.8c0-9.8,8-17.7,17.7-17.7c7.6,0,14.3,4.8,16.8,12c0.1,0.2,0.1,0.4,0,0.6
			c-0.1,0.2-0.3,0.3-0.5,0.4c-0.1,0-0.2,0-0.3,0c-0.3,0-0.7-0.2-0.8-0.5c-2.2-6.5-8.3-10.9-15.2-10.9c-8.9,0-16.1,7.2-16.1,16.1
			C156.9,112.7,156.5,113.1,156.1,113.1z"/>
		<path class="st16" d="M189.3,107.8c-0.1,0-0.2,0-0.2,0l-7.1-2.2c-0.4-0.1-0.7-0.6-0.5-1c0.1-0.3,0.4-0.6,0.8-0.6
			c0.1,0,0.2,0,0.2,0l6.4,2l2.4-6c0.1-0.3,0.4-0.5,0.8-0.5c0.1,0,0.2,0,0.3,0.1c0.2,0.1,0.4,0.2,0.4,0.4c0.1,0.2,0.1,0.4,0,0.6
			l-2.7,6.7C189.9,107.6,189.6,107.8,189.3,107.8z"/>
		<path class="st16" d="M154.2,125.1c-0.1,0-0.2,0-0.3-0.1c-0.4-0.2-0.6-0.6-0.5-1.1l2.7-6.7c0.1-0.3,0.4-0.5,0.7-0.5
			c0.1,0,0.2,0,0.2,0l7.1,2.2c0.4,0.1,0.7,0.6,0.5,1c-0.1,0.3-0.4,0.6-0.8,0.6c-0.1,0-0.2,0-0.2,0l-6.4-2l-2.4,6
			C154.8,124.9,154.5,125.1,154.2,125.1z"/>
	</g>
	<circle class="st17" cx="173.4" cy="112.4" r="6.1"/>
</g>
<g id="_x34_" class="st0">
	<g class="st1">
		<path class="st18" d="M257.2,175v1.9l1.9,1.3l5.1,1.6c2,0.6,2.6,2.5,2.6,2.5l1.9,9.3c0.4,2-2.1,2.3-2.1,2.3h-25.2
			c0,0-2.5-0.2-2.1-2.3l1.9-9.3c0,0,0.6-1.9,2.6-2.5l5.1-1.6l1.9-1.3V175"/>
		<g id="head">
			<path class="st19" d="M246.3,163.8v4.3c0,4.2,3.4,7.7,7.7,7.7h0c4.2,0,7.7-3.4,7.7-7.7v-4.3"/>
			<path class="st19" d="M244.5,163.5c-0.8,0.3-1.3,1-1.3,1.9c0,1.1,0.9,2,2,2c0.4,0,0.7-0.1,1-0.3"/>
			<path class="st19" d="M261.6,167.2c0.3,0.2,0.6,0.3,1,0.3c1.1,0,2-0.9,2-2c0-0.9-0.5-1.6-1.3-1.9"/>
			<path class="st20" d="M263,164c-0.8,0.6-2-0.6-2-0.6c-0.4-0.4-0.6-0.9-0.8-1.4c-0.1-0.2-0.2-0.5-0.3-0.7
				c-0.1-0.3-0.1-0.5-0.2-0.8c0-0.3-0.2-0.5-0.4-0.6c-0.7-0.5-1.3,0-1.9,0.2c-0.4,0.1-0.8,0.2-1.2,0.3c-0.8,0.1-1.6,0.2-2.4,0.2
				c-0.8,0-1.6-0.1-2.4-0.2c-0.4-0.1-0.8-0.2-1.2-0.3c-0.7-0.2-1.3-0.7-1.9-0.2c-0.2,0.2-0.4,0.4-0.4,0.6c-0.1,0.3-0.1,0.5-0.2,0.8
				c-0.1,0.2-0.2,0.5-0.3,0.7c-0.2,0.5-0.4,1-0.8,1.4c0,0-1.2,1.1-2,0.6c0,0-0.6-0.8-0.4-2.8c0,0,0.9-8.5,9.5-8.5
				c8.7,0,9.5,8.5,9.5,8.5C263.6,163.2,263,164,263,164z"/>
		</g>
		<line class="st18" x1="245.1" y1="193.8" x2="245.1" y2="187.4"/>
		<line class="st18" x1="262.7" y1="193.8" x2="262.7" y2="187.4"/>
		<polyline class="st18" points="250.6,176.9 253.9,181.4 250.4,182.5 248.8,178.2 		"/>
		<polyline class="st18" points="257.2,176.9 253.9,181.4 257.5,182.5 259.1,178.2 		"/>
		<line class="st18" x1="253.9" y1="181.4" x2="253.9" y2="187.7"/>
	</g>
	<g class="st1">
		<circle class="st7" cx="251.4" cy="166" r="1"/>
		<circle class="st7" cx="256.4" cy="166" r="1"/>
	</g>
	<path class="st21" d="M251.8,170.3c0,0.7,0.9,1.3,2.1,1.3s2.1-0.6,2.1-1.3"/>
</g>
<path class="st22" d="M40.8,124.5l0.5-1.4c0.3-0.9,0.1-2.4-0.8-2.9c-0.3-0.2-0.7-0.3-1.1-0.2c-0.2,0.1-0.4,0.2-0.5,0.4
	c-0.1,0.2-0.1,0.4-0.2,0.7c-0.1,0.6-0.4,1.1-0.8,1.5c-0.7,0.7-3,2.8-3,2.8v7.6h7.9c1.1,0,1.8-1.2,1.2-2.1c0.6-0.4,0.8-1.2,0.5-1.9
	c0.6-0.4,0.8-1.2,0.5-1.9c1.1-0.7,0.7-2.4-0.5-2.6C44.4,124.5,40.8,124.5,40.8,124.5z"/>
<g class="st0">
	<path class="st23" d="M151.2,101.7v8.1c0,0.3,0.2,0.5,0.4,0.8c0.4,0.4,1,0.7,0.9,1.5c0,0,0,0,0,0.1c-0.1,0.9,0.9,1.9,1.7,2.5
		c0.2,0.2,0.4,0.4,0.5,0.5c0.2,0.2,0.5,0.7,0.8,1.1c0.4,0.6,0.9,1.1,1.2,1.1c0.4-0.1,1.3-0.4,1.8,0.2c0.4,0.5,2.4,1.1,3.4,1.2h0.6
		c0.6-0.1,2-0.3,2.9,0c0.3,0.1,0.6,0.3,0.6,0.6c0.1,0.3,0.2,0.7,0.4,1c0.4,0.7,1,1.2,1,1.2s0.4-0.7,0.6-1.1c0,0,0-0.1,0.1-0.1
		c0.1-0.1,0.3-0.1,0.6,0c0.4,0.2,0.8,0.8,1.1,1.9c0.1,0.2,0.1,0.4,0.2,0.6c0.3,0.7,0.8,1.2,1.3,1.6c0.6,0.5,1.1,0.7,1.1,0.7
		s0-0.3,0-0.7c0-0.5,0-1.1,0-1.6c0-0.2,0-0.3,0-0.5c0.1-0.9,2.5-1.7,3-1.8c0.4-0.1,3.4,1.4,3.4,0.9c0-0.4,0.5-0.8,1-1.2
		c0.1-0.1,0.2-0.2,0.3-0.2c0.2-0.2,0.5,0,0.8,0.2c0.5,0.5,1,1.2,1,0.9c0.1-0.5,0.5,0.8,0.7,1.4c0.1,0.3,0.2,0.8,0.3,1.3
		c0,0.3,0.1,0.6,0,0.9c0,0.2,0.1,0.4,0.2,0.7c0.4,0.7,2.1,0.5,2.3,0.4c0.1-0.1,0.2-0.7,0.3-1.4c0-0.5,0-1.1,0-1.6
		c-0.1-0.3-0.1-0.6-0.3-0.7c-0.3-0.3-0.5-1-0.6-1.8c-0.1-0.5-0.1-1.1,0-1.6c0-0.4,0.1-0.7,0.3-0.8c0.2-0.2,1.1-0.9,1.9-1.7
		c0.6-0.5,1.1-1.1,1.6-1.6c0.6-0.7,1-1.3,0.7-1.4c-0.5-0.2-0.6-0.6-0.5-1.1c0-0.4,0.1-0.9,0.2-1.5c0,0,0,0,0-0.1
		c0.2-1.4,1,0.3,1.4-1.6c0.1-0.4,0.3-0.7,0.5-0.9c1-0.9,2.9-0.9,2.6-1.2c-0.1-0.1-0.2-0.2-0.2-0.4c-0.1-0.5,0-1.2,0.5-1.6
		c0.2-0.2,0.7-0.5,1.2-0.9c0.7-0.6,1.5-1.3,1.3-1.5l0,0c0,0,0,0,0,0c-0.4-0.4-2.9-0.1-2.9-0.1s0,0.1-0.1,0.1
		c-0.1,0.2-0.3,0.5-0.7,0.6c-0.6,0.2-9.1,0.3-9.3-0.3c0-0.1-0.1-0.2-0.2-0.3c-0.4-0.3-1.2-0.2-1.2-0.2s-0.1,0.1-0.2,0.2
		c-0.2,0.3-0.7,0.8-1,0.9c-0.4,0.1-0.5-0.4-0.4-0.9c0-0.1,0-0.3,0.1-0.4c0.1-0.3-0.9-1.5-1.7-2.1c-0.4-0.3-0.7-0.4-0.9-0.3
		c-0.7,0.2-4.2-1.2-4.2-1.2h-21.7c0,0,0,0.5-0.1,1c0,0,0,0.1,0,0.1c0,0.2-0.1,0.4-0.1,0.5C151.8,99.9,151.2,100.8,151.2,101.7z
		 M196.5,102.5"/>
	<g class="st1">
		<defs>
			<path id="SVGID_1_" d="M151.2,101.7v8.1c0,0.3,0.2,0.5,0.4,0.8c0.4,0.4,1,0.7,0.9,1.5c0,0,0,0,0,0.1c-0.1,0.9,0.9,1.9,1.7,2.5
				c0.2,0.2,0.4,0.4,0.5,0.5c0.2,0.2,0.5,0.7,0.8,1.1c0.4,0.6,0.9,1.1,1.2,1.1c0.4-0.1,1.3-0.4,1.8,0.2c0.4,0.5,2.4,1.1,3.4,1.2h0.6
				c0.6-0.1,2-0.3,2.9,0c0.3,0.1,0.6,0.3,0.6,0.6c0.1,0.3,0.2,0.7,0.4,1c0.4,0.7,1,1.2,1,1.2s0.4-0.7,0.6-1.1c0,0,0-0.1,0.1-0.1
				c0.1-0.1,0.3-0.1,0.6,0c0.4,0.2,0.8,0.8,1.1,1.9c0.1,0.2,0.1,0.4,0.2,0.6c0.3,0.7,0.8,1.2,1.3,1.6c0.6,0.5,1.1,0.7,1.1,0.7
				s0-0.3,0-0.7c0-0.5,0-1.1,0-1.6c0-0.2,0-0.3,0-0.5c0.1-0.9,2.5-1.7,3-1.8c0.4-0.1,3.4,1.4,3.4,0.9c0-0.4,0.5-0.8,1-1.2
				c0.1-0.1,0.2-0.2,0.3-0.2c0.2-0.2,0.5,0,0.8,0.2c0.5,0.5,1,1.2,1,0.9c0.1-0.5,0.5,0.8,0.7,1.4c0.1,0.3,0.2,0.8,0.3,1.3
				c0,0.3,0.1,0.6,0,0.9c0,0.2,0.1,0.4,0.2,0.7c0.4,0.7,2.1,0.5,2.3,0.4c0.1-0.1,0.2-0.7,0.3-1.4c0-0.5,0-1.1,0-1.6
				c-0.1-0.3-0.1-0.6-0.3-0.7c-0.3-0.3-0.5-1-0.6-1.8c-0.1-0.5-0.1-1.1,0-1.6c0-0.4,0.1-0.7,0.3-0.8c0.2-0.2,1.1-0.9,1.9-1.7
				c0.6-0.5,1.1-1.1,1.6-1.6c0.6-0.7,1-1.3,0.7-1.4c-0.5-0.2-0.6-0.6-0.5-1.1c0-0.4,0.1-0.9,0.2-1.5c0,0,0,0,0-0.1
				c0.2-1.4,1,0.3,1.4-1.6c0.1-0.4,0.3-0.7,0.5-0.9c1-0.9,2.9-0.9,2.6-1.2c-0.1-0.1-0.2-0.2-0.2-0.4c-0.1-0.5,0-1.2,0.5-1.6
				c0.2-0.2,0.7-0.5,1.2-0.9c0.7-0.6,1.5-1.3,1.3-1.5l0,0c0,0,0,0,0,0c-0.4-0.4-2.9-0.1-2.9-0.1s0,0.1-0.1,0.1
				c-0.1,0.2-0.3,0.5-0.7,0.6c-0.6,0.2-9.1,0.3-9.3-0.3c0-0.1-0.1-0.2-0.2-0.3c-0.4-0.3-1.2-0.2-1.2-0.2s-0.1,0.1-0.2,0.2
				c-0.2,0.3-0.7,0.8-1,0.9c-0.4,0.1-0.5-0.4-0.4-0.9c0-0.1,0-0.3,0.1-0.4c0.1-0.3-0.9-1.5-1.7-2.1c-0.4-0.3-0.7-0.4-0.9-0.3
				c-0.7,0.2-4.2-1.2-4.2-1.2h-21.7c0,0,0,0.5-0.1,1c0,0,0,0.1,0,0.1c0,0.2-0.1,0.4-0.1,0.5C151.8,99.9,151.2,100.8,151.2,101.7z
				 M196.5,102.5"/>
		</defs>
		<clipPath id="SVGID_2_">
			<use xlink:href="#SVGID_1_"  style="overflow:visible;"/>
		</clipPath>
		<g class="st24">
			<line class="st25" x1="149.3" y1="122" x2="199.6" y2="122"/>
			<line class="st25" x1="149.3" y1="117" x2="199.6" y2="117"/>
			<line class="st25" x1="149.3" y1="112" x2="199.6" y2="112"/>
			<line class="st25" x1="149.3" y1="107" x2="199.6" y2="107"/>
			<line class="st25" x1="149.3" y1="102" x2="199.6" y2="102"/>
		</g>
	</g>
	<path class="st5" d="M151.2,110.2h17.7c0.6,0,1.1-0.5,1.1-1.1V98.4h-17.9l-1.1,3.3L151.2,110.2z"/>
	<g class="st1">
		<path class="st26" d="M167.7,107.4l-1,0l-0.1-0.2l-0.2-0.7c0-0.1-0.2-0.1-0.2,0l-0.2,0.7l-0.1,0.2l-1,0c-0.1,0-0.2,0.2-0.1,0.2
			l0.8,0.6l-0.3,0.9c0,0.1,0.1,0.2,0.2,0.1l0.8-0.6l0.8,0.6c0.1,0.1,0.2,0,0.2-0.1l-0.3-0.9l0.8-0.6
			C167.9,107.5,167.8,107.4,167.7,107.4z"/>
		<path class="st26" d="M167.7,103.4l-1,0l-0.1-0.2l-0.2-0.7c0-0.1-0.2-0.1-0.2,0l-0.2,0.7l-0.1,0.2l-1,0c-0.1,0-0.2,0.2-0.1,0.2
			l0.8,0.6l-0.3,0.9c0,0.1,0.1,0.2,0.2,0.1l0.8-0.6l0.8,0.6c0.1,0.1,0.2,0,0.2-0.1l-0.3-0.9l0.8-0.6
			C167.9,103.5,167.8,103.4,167.7,103.4z"/>
		<path class="st26" d="M167.7,99.4l-1,0l-0.1-0.2l-0.2-0.7c0-0.1-0.2-0.1-0.2,0l-0.2,0.7l-0.1,0.2l-1,0c-0.1,0-0.2,0.2-0.1,0.2
			l0.8,0.6l-0.3,0.9c0,0.1,0.1,0.2,0.2,0.1l0.8-0.6l0.8,0.6c0.1,0.1,0.2,0,0.2-0.1l-0.3-0.9l0.8-0.6
			C167.9,99.5,167.8,99.4,167.7,99.4z"/>
	</g>
	<g class="st1">
		<path class="st26" d="M163.7,107.4l-1,0l-0.1-0.2l-0.2-0.7c0-0.1-0.2-0.1-0.2,0l-0.2,0.7l-0.1,0.2l-1,0c-0.1,0-0.2,0.2-0.1,0.2
			l0.8,0.6l-0.3,0.9c0,0.1,0.1,0.2,0.2,0.1l0.8-0.6l0.8,0.6c0.1,0.1,0.2,0,0.2-0.1l-0.3-0.9l0.8-0.6
			C163.9,107.5,163.8,107.4,163.7,107.4z"/>
		<path class="st26" d="M163.7,103.4l-1,0l-0.1-0.2l-0.2-0.7c0-0.1-0.2-0.1-0.2,0l-0.2,0.7l-0.1,0.2l-1,0c-0.1,0-0.2,0.2-0.1,0.2
			l0.8,0.6l-0.3,0.9c0,0.1,0.1,0.2,0.2,0.1l0.8-0.6l0.8,0.6c0.1,0.1,0.2,0,0.2-0.1l-0.3-0.9l0.8-0.6
			C163.9,103.5,163.8,103.4,163.7,103.4z"/>
		<path class="st26" d="M163.7,99.4l-1,0l-0.1-0.2l-0.2-0.7c0-0.1-0.2-0.1-0.2,0l-0.2,0.7l-0.1,0.2l-1,0c-0.1,0-0.2,0.2-0.1,0.2
			l0.8,0.6l-0.3,0.9c0,0.1,0.1,0.2,0.2,0.1l0.8-0.6l0.8,0.6c0.1,0.1,0.2,0,0.2-0.1l-0.3-0.9l0.8-0.6
			C163.9,99.5,163.8,99.4,163.7,99.4z"/>
	</g>
	<g class="st1">
		<path class="st26" d="M159.7,107.4l-1,0l-0.1-0.2l-0.2-0.7c0-0.1-0.2-0.1-0.2,0l-0.2,0.7l-0.1,0.2l-1,0c-0.1,0-0.2,0.2-0.1,0.2
			l0.8,0.6l-0.3,0.9c0,0.1,0.1,0.2,0.2,0.1l0.8-0.6l0.8,0.6c0.1,0.1,0.2,0,0.2-0.1l-0.3-0.9l0.8-0.6
			C159.9,107.5,159.8,107.4,159.7,107.4z"/>
		<path class="st26" d="M159.7,103.4l-1,0l-0.1-0.2l-0.2-0.7c0-0.1-0.2-0.1-0.2,0l-0.2,0.7l-0.1,0.2l-1,0c-0.1,0-0.2,0.2-0.1,0.2
			l0.8,0.6l-0.3,0.9c0,0.1,0.1,0.2,0.2,0.1l0.8-0.6l0.8,0.6c0.1,0.1,0.2,0,0.2-0.1l-0.3-0.9l0.8-0.6
			C159.9,103.5,159.8,103.4,159.7,103.4z"/>
		<path class="st26" d="M159.7,99.4l-1,0l-0.1-0.2l-0.2-0.7c0-0.1-0.2-0.1-0.2,0l-0.2,0.7l-0.1,0.2l-1,0c-0.1,0-0.2,0.2-0.1,0.2
			l0.8,0.6l-0.3,0.9c0,0.1,0.1,0.2,0.2,0.1l0.8-0.6l0.8,0.6c0.1,0.1,0.2,0,0.2-0.1l-0.3-0.9l0.8-0.6
			C159.9,99.5,159.8,99.4,159.7,99.4z"/>
	</g>
	<g class="st1">
		<path class="st26" d="M155.7,107.4l-1,0l-0.1-0.2l-0.2-0.7c0-0.1-0.2-0.1-0.2,0l-0.2,0.7l-0.1,0.2l-1,0c-0.1,0-0.2,0.2-0.1,0.2
			l0.8,0.6l-0.3,0.9c0,0.1,0.1,0.2,0.2,0.1l0.8-0.6l0.8,0.6c0.1,0.1,0.2,0,0.2-0.1l-0.3-0.9l0.8-0.6
			C155.9,107.5,155.8,107.4,155.7,107.4z"/>
		<path class="st26" d="M155.7,103.4l-1,0l-0.1-0.2l-0.2-0.7c0-0.1-0.2-0.1-0.2,0l-0.2,0.7l-0.1,0.2l-1,0c-0.1,0-0.2,0.2-0.1,0.2
			l0.8,0.6l-0.3,0.9c0,0.1,0.1,0.2,0.2,0.1l0.8-0.6l0.8,0.6c0.1,0.1,0.2,0,0.2-0.1l-0.3-0.9l0.8-0.6
			C155.9,103.5,155.8,103.4,155.7,103.4z"/>
		<path class="st26" d="M155.7,99.4l-1,0l-0.1-0.2l-0.2-0.7c0-0.1-0.2-0.1-0.2,0l-0.2,0.7l-0.1,0.2l-1,0c-0.1,0-0.2,0.2-0.1,0.2
			l0.8,0.6l-0.3,0.9c0,0.1,0.1,0.2,0.2,0.1l0.8-0.6l0.8,0.6c0.1,0.1,0.2,0,0.2-0.1l-0.3-0.9l0.8-0.6
			C155.9,99.5,155.8,99.4,155.7,99.4z"/>
	</g>
</g>
<g class="st0">
	<g class="st1">
		<path class="st2" d="M205.8,158.3c0,0-0.1-0.1-0.1-0.1c-0.2-0.2-0.8-0.8-4.6-0.4c-0.3,0-0.6,0.3-0.7,0.6c-0.1,0.1-0.2,0.3-0.5,0.4
			c-1.1,0.2-10.5,0.3-12.1-0.2c-0.1-0.2-0.2-0.3-0.4-0.5c-0.8-0.6-2-0.5-2.3-0.5c-0.2,0-0.4,0.1-0.5,0.3c0,0-0.1,0.1-0.2,0.3
			c-0.3,0.4-0.5,0.6-0.7,0.8c0-0.1,0-0.2,0-0.3c0-0.1,0-0.3,0.1-0.4c0.4-1.3-2.2-3.4-2.7-3.8c-0.8-0.5-1.4-0.7-1.9-0.6
			c-0.6,0.1-3.2-0.8-5.3-1.7c-0.1,0-0.2-0.1-0.3-0.1h-30c-0.4,0-0.7,0.3-0.8,0.7c0,0-0.1,0.7-0.2,1.3l0,0.1c0,0.3-0.1,0.4-0.1,0.4
			c-0.2,0.3-1,1.5-1,2.8v11.2c0,0.8,0.4,1.3,0.8,1.6c0.1,0.1,0.2,0.2,0.3,0.3c0.6,0.5,0.8,0.7,0.7,1.2c0,0,0,0.1,0,0.1
			c-0.1,1.6,1.5,3.2,2.6,4.1c0.3,0.2,0.5,0.4,0.6,0.6c0.2,0.2,0.5,0.6,0.7,0.9l0.4,0.5c1,1.3,1.6,1.9,2.3,1.7c0.1,0,0.2-0.1,0.3-0.1
			c0.8-0.2,1.1-0.2,1.4,0.1c0.9,1.1,4.2,1.8,5.3,1.9h0.8c0,0,0.1,0,0.2,0c0.7-0.1,2.6-0.4,3.6,0c0.2,0.1,0.4,0.2,0.4,0.3
			c0.1,0.5,0.3,1,0.7,1.5c0.6,1.1,1.5,1.8,1.5,1.9c0.2,0.2,0.4,0.2,0.6,0.2c0.2,0,0.4-0.2,0.5-0.4c0,0,0.5-0.8,0.7-1.4
			c0.4,0.2,0.8,0.9,1.2,2.1c0.1,0.3,0.2,0.7,0.4,1c0.4,0.9,1.1,1.7,2,2.4c0.9,0.7,1.7,1,1.7,1c0.2,0.1,0.5,0.1,0.7-0.1
			s0.3-0.4,0.3-0.6c0,0,0-0.4,0-0.9c0-0.6,0-1.4,0.1-2.1c0-0.2,0-0.4,0-0.6c0.1-0.6,2.5-1.6,3.4-1.8c0.2,0,1.1,0.4,1.7,0.6
			c2,0.8,2.8,1,3.3,0.6c0.2-0.2,0.4-0.4,0.4-0.7c0-0.2,0.8-0.8,1.2-1l0.3-0.2c0.1,0,0.2,0.1,0.3,0.2c0.2,0.2,0.5,0.5,0.7,0.7
			c0.4,0.4,0.7,0.8,1.1,0.8c0.1,0.4,0.3,0.8,0.4,1.3c0.2,0.6,0.3,1.2,0.4,1.7c0.1,0.5,0.1,0.8,0,1c0,0.4,0.1,0.8,0.4,1.4
			c0.3,0.6,1,1,2,1.1c0,0,0.3,0,0.7,0c0.6,0,1.4-0.1,1.7-0.4c0.3-0.3,0.5-1.1,0.5-2.4c0-0.5,0.1-1.5-0.1-2.3
			c-0.1-0.6-0.3-1.1-0.6-1.4c-0.1-0.1-0.4-0.8-0.6-2.1c-0.1-0.7-0.1-1.4,0-2c0.1-0.5,0.1-0.6,0.1-0.6c0.4-0.3,1.5-1.3,2.7-2.4
			c0.9-0.8,1.7-1.6,2.2-2.2c1.1-1.2,1.5-1.9,1.3-2.5c-0.1-0.3-0.3-0.5-0.6-0.7c-0.2-0.1-0.3-0.1-0.2-0.8c0-0.2,0.1-0.5,0.1-0.8
			c0.1-0.4,0.1-0.8,0.2-1.3c0-0.1,0-0.1,0-0.2c1,0,1.6-0.5,1.9-1.9c0.1-0.3,0.2-0.6,0.5-0.9c0.7-0.6,1.8-0.9,2.5-1.1
			c0.7-0.2,1.2-0.3,1.3-0.9c0.1-0.3-0.1-0.6-0.3-0.8c0,0,0,0-0.1-0.1c-0.1-0.4,0-1.1,0.4-1.4c0.1-0.1,0.3-0.3,0.5-0.4
			c0.3-0.2,0.7-0.5,1.1-0.8C205.3,160.3,206.4,159.2,205.8,158.3z M202.9,160.3c-0.4,0.3-0.7,0.6-1,0.8c-0.2,0.2-0.4,0.3-0.6,0.5
			c-0.9,0.7-1.1,2.1-0.9,3c-0.9,0.2-2.1,0.6-3,1.4c-0.5,0.5-0.8,1.1-1,1.7c-0.1,0.6-0.2,0.7-0.2,0.7H196c-0.6,0-1.4,0.1-1.6,1.6
			c0,0.4-0.1,0.8-0.2,1.2c-0.1,0.3-0.1,0.6-0.1,0.9c0,0.5-0.1,1.4,0.7,2c-0.1,0.2-0.4,0.5-0.8,1c-0.5,0.6-1.2,1.3-2.1,2.1
			c-1.2,1.1-2.3,2-2.7,2.3c-0.4,0.3-0.6,0.8-0.7,1.6c-0.1,0.6-0.1,1.5,0,2.3c0.1,0.8,0.4,2.3,1,2.9c0,0,0.1,0.1,0.2,0.6
			c0.1,0.5,0.1,1.2,0.1,2c0,0.7-0.1,1.2-0.2,1.4c-0.6,0.1-1.7,0-1.9-0.3c-0.2-0.4-0.2-0.5-0.2-0.5c0-0.4,0-0.8,0-1.4
			c-0.1-0.5-0.2-1.2-0.4-1.8c-0.7-2.7-1.3-2.6-1.6-2.6c0,0-0.1,0-0.1,0c0,0,0,0-0.1-0.1c-0.2-0.3-0.5-0.6-0.8-0.9
			c-1-0.9-1.7-0.6-2.1-0.4l-0.4,0.3c-0.6,0.4-1.3,0.9-1.6,1.5c-0.5-0.1-1.3-0.4-1.8-0.6c-1.5-0.6-2-0.7-2.4-0.7c0,0-4.6,1.1-4.7,3.2
			c0,0.2,0,0.4,0,0.6c0,0.6,0,1.3,0,1.9c-0.1-0.1-0.3-0.2-0.4-0.3c-0.7-0.6-1.3-1.2-1.6-1.9c-0.1-0.2-0.2-0.5-0.3-0.7
			c-0.4-1.5-1.1-2.6-1.9-3.1c-0.6-0.4-1.3-0.3-1.8,0.1c-0.1,0.1-0.2,0.2-0.2,0.3c-0.1,0.2-0.2,0.4-0.3,0.6c-0.2-0.2-0.4-0.5-0.6-0.8
			c-0.3-0.4-0.4-0.8-0.5-1.1c-0.1-0.4-0.4-1-1.3-1.3c-1.3-0.5-3.4-0.2-4.3,0h-0.6c-1.5-0.2-3.9-0.9-4.2-1.4
			c-0.9-1.1-2.2-0.8-2.9-0.7c0,0-0.1,0-0.1,0c-0.1-0.1-0.4-0.4-1-1.2l-0.4-0.5c-0.3-0.4-0.6-0.8-0.8-1c-0.2-0.2-0.4-0.4-0.8-0.7
			c-0.7-0.7-2.1-1.9-2-2.9c0.2-1.3-0.7-2-1.3-2.5c-0.1-0.1-0.2-0.1-0.3-0.2l0,0c-0.3-0.3-0.3-0.4-0.3-0.5v-11.2c0-1,0.7-2,0.7-2
			c0,0,0-0.1,0-0.1c0.1-0.2,0.2-0.4,0.2-0.8l0-0.2c0-0.2,0.1-0.5,0.1-0.7h2.1l0.2-0.5c0-0.2,0.3-0.2,0.3,0l0.2,0.5h4.9l0.2-0.5
			c0.1-0.2,0.3-0.2,0.3,0l0.2,0.5h4.9l0.2-0.5c0.1-0.2,0.3-0.2,0.3,0l0.2,0.5h4.8l0.2-0.5c0.1-0.2,0.3-0.2,0.3,0l0.2,0.5h9.8
			c2.3,0.9,5,1.9,6.1,1.7c0.1,0,0.3,0.1,0.6,0.3c1,0.7,1.9,1.8,2.1,2.2c0,0.2-0.1,0.4-0.1,0.5c-0.1,0.5,0,1.4,0.5,1.9
			c0.3,0.2,0.7,0.3,1.1,0.2c0.2-0.1,0.8-0.3,1.8-1.5c0,0,0,0,0,0c0.3,0,0.7,0,0.8,0.2c0.6,1.9,13.7,1,13.8,0.9
			c0.7-0.2,1.1-0.7,1.3-1c0.9-0.1,1.9-0.1,2.5,0C203.9,159.5,203.5,159.8,202.9,160.3z"/>
	</g>
	<g class="st1">
		<g>
			<line class="st25" x1="168.5" y1="185.8" x2="172" y2="185.8"/>
			<line class="st25" x1="186.4" y1="185.8" x2="190.1" y2="185.8"/>
			<line class="st25" x1="150" y1="178.9" x2="190.9" y2="178.9"/>
			<line class="st25" x1="145" y1="172" x2="194.4" y2="172"/>
			<line class="st25" x1="167" y1="165.1" x2="200.4" y2="165.1"/>
			<line class="st25" x1="167" y1="158.2" x2="182.4" y2="158.2"/>
		</g>
	</g>
	<g class="st1">
		<path class="st2" d="M143.8,153.1l-1.5,4.5l0.3,11.8H167c0.8,0,1.5-0.7,1.5-1.5v-14.8H143.8z M148.9,166l-1.1,0.8l0.4,1.3
			c0,0.2-0.1,0.3-0.3,0.2l-1.1-0.8l-1.1,0.8c-0.1,0.1-0.3,0-0.3-0.2l0.4-1.3l-1-0.8c-0.1-0.1-0.1-0.3,0.1-0.3l1.3,0l0.1-0.3l0.3-1
			c0-0.2,0.3-0.2,0.3,0l0.3,1l0.1,0.3l1.3,0C149,165.7,149.1,165.9,148.9,166z M148.9,160.5l-1.1,0.8l0.4,1.3c0,0.2-0.1,0.3-0.3,0.2
			l-1.1-0.8l-1.1,0.8c-0.1,0.1-0.3,0-0.3-0.2l0.4-1.3l-1-0.8c-0.1-0.1-0.1-0.3,0.1-0.3l1.3,0l0.1-0.3l0.3-0.9c0-0.2,0.3-0.2,0.3,0
			l0.3,0.9l0.1,0.3l1.3,0C149,160.2,149.1,160.4,148.9,160.5z M148.9,155l-1.1,0.8l0.4,1.3c0,0.2-0.1,0.3-0.3,0.2l-1.1-0.8l-1.1,0.8
			c-0.1,0.1-0.3,0-0.3-0.2l0.4-1.3l-1-0.8c-0.1-0.1-0.1-0.3,0.1-0.3l1.3,0l0.1-0.3l0.2-0.5l0.2-0.5c0-0.2,0.3-0.2,0.3,0l0.2,0.5
			l0.1,0.5l0.1,0.3l1.3,0C149,154.7,149.1,154.9,148.9,155z M154.5,166l-1.1,0.8l0.4,1.3c0.1,0.2-0.1,0.3-0.3,0.2l-1.1-0.8l-1.1,0.8
			c-0.1,0.1-0.3,0-0.3-0.2l0.4-1.3l-1.1-0.8c-0.1-0.1-0.1-0.3,0.1-0.3l1.3,0l0.1-0.3l0.3-1c0.1-0.2,0.3-0.2,0.3,0l0.3,1l0.1,0.3
			l1.3,0C154.5,165.7,154.6,165.9,154.5,166z M154.5,160.5l-1.1,0.8l0.4,1.3c0.1,0.2-0.1,0.3-0.3,0.2l-1.1-0.8l-1.1,0.8
			c-0.1,0.1-0.3,0-0.3-0.2l0.4-1.3l-1.1-0.8c-0.1-0.1-0.1-0.3,0.1-0.3l1.3,0l0.1-0.3l0.3-0.9c0.1-0.2,0.3-0.2,0.3,0l0.3,0.9l0.1,0.3
			l1.3,0C154.5,160.2,154.6,160.4,154.5,160.5z M154.5,155l-1.1,0.8l0.4,1.3c0.1,0.2-0.1,0.3-0.3,0.2l-1.1-0.8l-1.1,0.8
			c-0.1,0.1-0.3,0-0.3-0.2l0.4-1.3l-1.1-0.8c-0.1-0.1-0.1-0.3,0.1-0.3l1.3,0l0.1-0.3l0.2-0.5l0.2-0.5c0.1-0.2,0.3-0.2,0.3,0l0.2,0.5
			l0.2,0.5l0.1,0.3l1.3,0C154.5,154.7,154.6,154.9,154.5,155z M160,166l-1,0.8l0.4,1.3c0,0.2-0.1,0.3-0.3,0.2l-1.1-0.8l-1.1,0.8
			c-0.1,0.1-0.3,0-0.3-0.2l0.4-1.3L156,166c-0.1-0.1-0.1-0.3,0.1-0.3l1.3,0l0.1-0.3l0.3-1c0.1-0.2,0.3-0.2,0.3,0l0.3,1l0.1,0.3
			l1.3,0C160,165.7,160.1,165.9,160,166z M160,160.5l-1,0.8l0.4,1.3c0,0.2-0.1,0.3-0.3,0.2L158,162l-1.1,0.8c-0.1,0.1-0.3,0-0.3-0.2
			l0.4-1.3l-1.1-0.8c-0.1-0.1-0.1-0.3,0.1-0.3l1.3,0l0.1-0.3l0.3-0.9c0.1-0.2,0.3-0.2,0.3,0l0.3,0.9l0.1,0.3l1.3,0
			C160,160.2,160.1,160.4,160,160.5z M160,155l-1,0.8l0.4,1.3c0,0.2-0.1,0.3-0.3,0.2l-1.1-0.8l-1.1,0.8c-0.1,0.1-0.3,0-0.3-0.2
			l0.4-1.3L156,155c-0.1-0.1-0.1-0.3,0.1-0.3l1.3,0l0.1-0.3l0.2-0.5l0.2-0.5c0.1-0.2,0.3-0.2,0.3,0l0.2,0.5l0.1,0.5l0.1,0.3l1.3,0
			C160,154.7,160.1,154.9,160,155z M165.5,166l-1.1,0.8l0.4,1.3c0.1,0.2-0.1,0.3-0.3,0.2l-1.1-0.8l-1.1,0.8c-0.1,0.1-0.3,0-0.3-0.2
			l0.4-1.3l-1.1-0.8c-0.1-0.1-0.1-0.3,0.1-0.3l1.3,0l0.1-0.3l0.3-1c0.1-0.2,0.3-0.2,0.3,0l0.3,1l0.1,0.3l1.3,0
			C165.6,165.7,165.7,165.9,165.5,166z M165.5,160.5l-1.1,0.8l0.4,1.3c0.1,0.2-0.1,0.3-0.3,0.2l-1.1-0.8l-1.1,0.8
			c-0.1,0.1-0.3,0-0.3-0.2l0.4-1.3l-1.1-0.8c-0.1-0.1-0.1-0.3,0.1-0.3l1.3,0l0.1-0.3l0.3-0.9c0.1-0.2,0.3-0.2,0.3,0l0.3,0.9l0.1,0.3
			l1.3,0C165.6,160.2,165.7,160.4,165.5,160.5z M164,154.3l0.1,0.3l1.3,0c0.2,0,0.2,0.2,0.1,0.3l-1.1,0.8l0.4,1.3
			c0.1,0.2-0.1,0.3-0.3,0.2l-1.1-0.8l-1.1,0.8c-0.1,0.1-0.3,0-0.3-0.2l0.4-1.3l-1.1-0.8c-0.1-0.1-0.1-0.3,0.1-0.3l1.3,0l0.1-0.3
			l0.1-0.5l0.2-0.5c0.1-0.2,0.3-0.2,0.3,0l0.2,0.5L164,154.3z"/>
	</g>
</g>
<g class="st0">
	<g class="st1">
		<g>
			<polygon class="st25" points="35.6,159.2 14.9,157.2 14.9,191 35.6,193 			"/>
			<polyline class="st25" points="14.9,157.2 19,154.3 39.7,156.3 35.6,159.2 			"/>
			<polyline class="st25" points="39.7,156.3 39.7,190.2 35.6,193 			"/>
		</g>
	</g>
	<g id="_x36__3_" class="st1">
		<path class="st6" d="M30.7,188l-11-1c-0.6,0-1-0.4-1-1v-22c0-0.6,0.4-1,1-1l11,1c0.6,0,1,0.4,1,1v22C31.7,187.5,31.2,188,30.7,188
			z"/>
		<path class="st7" d="M30.2,185l-10-1c-0.6,0-1-0.4-1-1v-17c0-0.6,0.4-1,1-1l10,1c0.6,0,1,0.4,1,1v17C31.2,184.5,30.7,185,30.2,185
			z"/>
		<circle class="st7" cx="24.9" cy="186.7" r="1"/>
	</g>
</g>
<g class="st0">
	<g class="st1">
		<polygon class="st25" points="-11,159.2 9.7,157.2 9.7,191 -11,193 		"/>
		<polyline class="st25" points="9.7,157.2 5.6,154.3 -15.1,156.3 -11,159.2 		"/>
		<polyline class="st25" points="-15.1,156.3 -15.1,190.2 -11,193 		"/>
	</g>
</g>
<g id="x_4_" class="st0">
	<path class="st3" d="M5.4,188l-12,1.1c-0.6,0-1-0.4-1-1v-25c0-0.6,0.4-1,1-1l12-1.1c0.6,0,1,0.4,1,1v25C6.4,187.5,5.9,188,5.4,188z
		"/>
	<path class="st4" d="M5.4,188l-12,1.1c-0.6,0-1-0.4-1-1v-25c0-0.6,0.4-1,1-1l12-1.1c0.6,0,1,0.4,1,1v25C6.4,187.5,5.9,188,5.4,188z
		"/>
	<path class="st5" d="M3,162.7l-7.2,0.8c-0.6,0-1-0.4-1-1v-1.4l9.2-0.9v1.5C4,162.3,3.5,162.7,3,162.7z"/>
</g>
<g class="st0">
	<ellipse class="st27" cx="35.3" cy="244" rx="8" ry="8"/>
	<line class="st27" x1="35.3" y1="244" x2="35.3" y2="236"/>
	<line class="st27" x1="35.3" y1="249.9" x2="35.3" y2="252"/>
	<line class="st27" x1="43.3" y1="244" x2="41.1" y2="244"/>
	<line class="st27" x1="29.4" y1="244" x2="27.3" y2="244"/>
	<line class="st27" x1="35.3" y1="244" x2="40.9" y2="238.4"/>
	<line class="st27" x1="31.1" y1="248.2" x2="29.6" y2="249.7"/>
	<line class="st27" x1="40.9" y1="249.7" x2="39.4" y2="248.2"/>
	<line class="st27" x1="31.1" y1="239.9" x2="29.6" y2="238.4"/>
</g>
<g class="st0">
	<line class="st23" x1="73.3" y1="54" x2="73.3" y2="55"/>
	<line class="st23" x1="76.3" y1="52" x2="76.3" y2="55"/>
	<line class="st23" x1="79.3" y1="49" x2="79.3" y2="55"/>
</g>
<g class="st0">
	<line class="st23" x1="206.3" y1="-44.9" x2="216.2" y2="-35"/>
	<line class="st23" x1="216.2" y1="-44.9" x2="206.3" y2="-35"/>
</g>
<g class="st0">
	<path class="st28" d="M196.1-42.4c0,0-0.5-0.5-0.6-0.6c-2-2-5.3-2.1-7.3,0c-2,2-2,5.3,0,7.4c2,2,5.3,2,7.4,0"/>
	<polyline class="st28" points="194.2,-42.1 196.5,-42.1 196.5,-44.4 	"/>
</g>
<g class="st0">
	<line class="st29" x1="142.3" y1="-30" x2="162.3" y2="-30"/>
	<line class="st29" x1="142.3" y1="-24" x2="162.3" y2="-24"/>
	<line class="st29" x1="142.3" y1="-18" x2="162.3" y2="-18"/>
</g>
<circle class="st30" cx="124.8" cy="-30.5" r="2"/>
<circle class="st30" cx="116.8" cy="-30.5" r="2"/>
<circle class="st30" cx="124.8" cy="-22.5" r="2"/>
<circle class="st30" cx="116.8" cy="-22.5" r="2"/>
</svg>
