<?xml version="1.0" encoding="utf-8"?>
<!-- Generator: Adobe Illustrator 22.0.0, SVG Export Plug-In . SVG Version: 6.00 Build 0)  -->
<svg version="1.1" id="Layer_1" xmlns="http://www.w3.org/2000/svg" xmlns:xlink="http://www.w3.org/1999/xlink" x="0px" y="0px"
	 viewBox="0 0 16.1 27.7" style="enable-background:new 0 0 16.1 27.7;" xml:space="preserve">
<style type="text/css">
	.st0{display:none;}
	.st1{display:inline;}
	.st2{fill:#282D3A;}
	.st3{fill:#282D3A;stroke:#282D3A;stroke-width:2;stroke-linejoin:round;stroke-miterlimit:10;}
	.st4{fill:#FFFFFF;}
	.st5{fill:none;stroke:#FFFFFF;stroke-width:2;stroke-linejoin:round;stroke-miterlimit:10;}
	.st6{display:inline;fill:#282D3A;stroke:#282D3A;stroke-width:2;stroke-linejoin:round;stroke-miterlimit:10;}
	.st7{display:inline;fill:#FFFFFF;}
	.st8{display:inline;fill:#282D3A;}
	.st9{fill:#FFFFFF;stroke:#FFFFFF;stroke-width:2;stroke-linejoin:round;stroke-miterlimit:10;}
	.st10{display:inline;fill:#85898C;stroke:#85898C;stroke-width:2;stroke-linejoin:round;stroke-miterlimit:10;}
	.st11{display:inline;fill:#85898C;}
	.st12{display:none;fill:#B2B2B2;}
	.st13{fill:none;stroke:#000000;stroke-width:1.5;stroke-linecap:round;stroke-linejoin:round;stroke-miterlimit:10;}
	.st14{display:none;fill:none;stroke:#FFFFFF;stroke-width:2;stroke-linecap:round;stroke-linejoin:round;stroke-miterlimit:10;}
	.st15{display:inline;fill:none;stroke:#282D3A;stroke-width:1.5;stroke-linejoin:round;stroke-miterlimit:10;}
	.st16{display:inline;fill:none;stroke:#000000;stroke-width:1.5;stroke-miterlimit:10;}
	.st17{fill:#010002;}
	.st18{display:inline;fill:#010002;}
	.st19{fill:none;stroke:#FFFFFF;stroke-width:1.5;stroke-linecap:round;stroke-linejoin:round;stroke-miterlimit:10;}
	.st20{fill:none;stroke:#FFFFFF;stroke-width:1.5;stroke-miterlimit:10;}
	.st21{fill:#FFFFFF;stroke:#FFFFFF;stroke-width:1.5;stroke-miterlimit:10;}
	.st22{display:inline;fill:none;stroke:#FFFFFF;stroke-linecap:round;stroke-miterlimit:10;}
	.st23{display:none;fill:#FFFFFF;}
	
		.st24{display:inline;fill:none;stroke:#282D3A;stroke-width:1.5;stroke-linecap:round;stroke-linejoin:round;stroke-miterlimit:10;}
	.st25{clip-path:url(#SVGID_2_);}
	.st26{fill:none;stroke:#282D3A;stroke-width:1.5;stroke-linecap:round;stroke-linejoin:round;stroke-miterlimit:10;}
	.st27{fill:#F5F5F5;}
	.st28{display:inline;fill:none;stroke:#282D3A;stroke-linecap:round;stroke-linejoin:round;stroke-miterlimit:10;}
	
		.st29{display:inline;fill:none;stroke:#000000;stroke-width:1.5;stroke-linecap:round;stroke-linejoin:round;stroke-miterlimit:10;}
	.st30{display:inline;fill:none;stroke:#282D3A;stroke-width:2;stroke-linecap:round;stroke-linejoin:round;stroke-miterlimit:10;}
	.st31{display:none;fill:#282D3A;}
</style>
<g id="_x35_s" class="st0">
	<g class="st1">
		<path class="st2" d="M12.9,1.6h-10c-1.1,0-2,0.9-2,2v20c0,1.1,0.9,2,2,2h10c1.1,0,2-0.9,2-2v-20C14.9,2.5,14,1.6,12.9,1.6z
			 M7.9,24.6c-0.5,0-1-0.4-1-1c0-0.5,0.5-1,1-1c0.6,0,1,0.5,1,1C8.9,24.1,8.4,24.6,7.9,24.6z M13.4,20.6c0,0.4-0.2,0.7-0.5,0.9
			c-0.1,0.1-0.3,0.1-0.5,0.1h-9c-0.2,0-0.3,0-0.5-0.1c-0.3-0.2-0.5-0.5-0.5-0.9v-15c0-0.4,0.2-0.7,0.5-0.9C3,4.6,3.2,4.6,3.4,4.6h9
			c0.2,0,0.4,0,0.5,0.1c0.3,0.2,0.5,0.5,0.5,0.9V20.6z"/>
	</g>
</g>
<g id="_x36_">
	<g>
		<path class="st2" d="M13.6,0.8h-11c-1.1,0-2,0.9-2,2v22c0,1.1,0.9,2,2,2h11c1.1,0,2-0.9,2-2v-22C15.6,1.7,14.7,0.8,13.6,0.8z
			 M8.1,25.8c-0.6,0-1-0.5-1-1c0-0.6,0.4-1,1-1c0.5,0,1,0.4,1,1C9.1,25.4,8.6,25.8,8.1,25.8z M14.1,21.8c0,0.4-0.2,0.7-0.5,0.9
			c-0.2,0.1-0.3,0.1-0.5,0.1h-10c-0.2,0-0.4,0-0.5-0.1c-0.3-0.2-0.5-0.5-0.5-0.9v-17c0-0.4,0.2-0.7,0.5-0.9c0.1-0.1,0.3-0.1,0.5-0.1
			h10c0.2,0,0.3,0,0.5,0.1c0.3,0.2,0.5,0.5,0.5,0.9V21.8z"/>
	</g>
</g>
<g id="plus" class="st0">
	<g id="_x36__2_" class="st1">
		<path class="st3" d="M49,24.6H35.9c-0.6,0-1-0.4-1-1v-26c0-0.6,0.4-1,1-1H49c0.6,0,1,0.4,1,1v26C50,24.1,49.6,24.6,49,24.6z"/>
		<path class="st4" d="M48.4,21.1h-12c-0.6,0-1-0.4-1-1V-0.1c0-0.6,0.4-1,1-1h12c0.6,0,1,0.4,1,1v20.2C49.4,20.6,49,21.1,48.4,21.1z
			"/>
		<circle class="st4" cx="42.4" cy="23.4" r="1.2"/>
	</g>
	<g id="_x36__1_" class="st1">
		<path class="st5" d="M38.9,24.6h-12c-0.6,0-1-0.4-1-1v-23c0-0.6,0.4-1,1-1h11c0.6,0,1,0.4,1,1V24.6z"/>
		<path class="st3" d="M36.9,24.6h-11c-0.6,0-1-0.4-1-1v-22c0-0.6,0.4-1,1-1h11c0.6,0,1,0.4,1,1v22C37.9,24.1,37.4,24.6,36.9,24.6z"
			/>
		<path class="st4" d="M36.4,21.6h-10c-0.6,0-1-0.4-1-1v-17c0-0.6,0.4-1,1-1h10c0.6,0,1,0.4,1,1v17C37.4,21.1,36.9,21.6,36.4,21.6z"
			/>
		<circle class="st4" cx="31.4" cy="23.6" r="1"/>
	</g>
</g>
<g id="x" class="st0">
	<path class="st6" d="M55.9,24.6h-12c-0.6,0-1-0.4-1-1v-23c0-0.6,0.4-1,1-1h12c0.6,0,1,0.4,1,1v23C56.9,24.1,56.4,24.6,55.9,24.6z"
		/>
	<path class="st7" d="M55.9,24.6h-12c-0.6,0-1-0.4-1-1v-23c0-0.6,0.4-1,1-1h12c0.6,0,1,0.4,1,1v23C56.9,24.1,56.4,24.6,55.9,24.6z"
		/>
	<path class="st8" d="M53.5,0.9h-7.2c-0.6,0-1-0.4-1-1v-1.3h9.2v1.3C54.5,0.4,54,0.9,53.5,0.9z"/>
</g>
<g id="all" class="st0">
	<g id="_x35_s_1_" class="st1">
		<path class="st3" d="M103.9,24.6h-10c-0.6,0-1-0.4-1-1v-20c0-0.6,0.4-1,1-1h10c0.6,0,1,0.4,1,1v20
			C104.9,24.1,104.4,24.6,103.9,24.6z"/>
		<path class="st4" d="M103.4,21.6h-9c-0.6,0-1-0.4-1-1v-15c0-0.6,0.4-1,1-1h9c0.6,0,1,0.4,1,1v15C104.4,21.1,103.9,21.6,103.4,21.6
			z"/>
		<circle class="st4" cx="98.9" cy="23.6" r="1"/>
	</g>
	<g id="x_2_" class="st1">
		<path class="st9" d="M114.9,24.6h-13v-24c0-0.6,0.4-1,1-1h12c0.6,0,1,0.4,1,1v23C115.9,24.1,115.4,24.6,114.9,24.6z"/>
		<path class="st3" d="M115.9,24.6h-12c-0.6,0-1-0.4-1-1v-23c0-0.6,0.4-1,1-1h12c0.6,0,1,0.4,1,1v23
			C116.9,24.1,116.4,24.6,115.9,24.6z"/>
		<path class="st4" d="M115.9,24.6h-12c-0.6,0-1-0.4-1-1v-23c0-0.6,0.4-1,1-1h12c0.6,0,1,0.4,1,1v23
			C116.9,24.1,116.4,24.6,115.9,24.6z"/>
		<path class="st2" d="M113.5,0.9h-7.2c-0.6,0-1-0.4-1-1v-1.3h9.2v1.3C114.5,0.4,114,0.9,113.5,0.9z"/>
	</g>
</g>
<g id="x_1_" class="st0">
	<path class="st10" d="M77.9,24.6h-12c-0.6,0-1-0.4-1-1v-23c0-0.6,0.4-1,1-1h12c0.6,0,1,0.4,1,1v23C78.9,24.1,78.4,24.6,77.9,24.6z"
		/>
	<path class="st7" d="M77.9,24.6h-12c-0.6,0-1-0.4-1-1v-23c0-0.6,0.4-1,1-1h12c0.6,0,1,0.4,1,1v23C78.9,24.1,78.4,24.6,77.9,24.6z"
		/>
	<path class="st11" d="M75.5,0.9h-7.2c-0.6,0-1-0.4-1-1v-1.3h9.2v1.3C76.5,0.4,76,0.9,75.5,0.9z"/>
</g>
<rect x="-17.6" y="145.3" class="st12" width="50" height="50"/>
<g class="st0">
	<g class="st1">
		<rect x="-14.9" y="182.9" class="st13" width="16.8" height="8.1"/>
		<rect x="-14.9" y="174.8" class="st13" width="16.8" height="8.1"/>
		<rect x="-14.9" y="166.7" class="st13" width="16.8" height="8.1"/>
		<path class="st13" d="M8.8,186.1l-7,4.9L8.8,186.1z"/>
		<path class="st13" d="M8.8,178l-7,4.9L8.8,178z"/>
		<path class="st13" d="M8.8,169.9l-7,4.9L8.8,169.9z"/>
		<path class="st13" d="M7.8,162.6l-6,4.2L7.8,162.6z"/>
		<path class="st13" d="M-1.8,157.6l-13.2,9.1L-1.8,157.6z"/>
		<line class="st13" x1="-1.8" y1="157.6" x2="8.8" y2="157.6"/>
	</g>
	<circle class="st1" cx="-6.6" cy="170.8" r="1.5"/>
	<circle class="st1" cx="-6.6" cy="178.8" r="1.5"/>
	<circle class="st1" cx="-6.6" cy="186.9" r="1.5"/>
</g>
<rect x="62.4" y="145.3" class="st12" width="50" height="50"/>
<rect x="142.4" y="145.3" class="st12" width="50" height="50"/>
<rect x="142.4" y="85.3" class="st12" width="50" height="50"/>
<rect x="14.4" y="-40.8" class="st12" width="50" height="50"/>
<circle class="st0" cx="33.3" cy="125.4" r="10"/>
<polyline class="st14" points="29.6,65.4 32.6,68.8 36.6,61 "/>
<g id="x_3_" class="st0">
	<path class="st15" d="M97.2,129.8H77.5c-0.6,0-1-0.4-1-1V92.2c0-0.6,0.4-1,1-1h19.6c0.6,0,1,0.4,1,1v36.6
		C98.2,129.4,97.7,129.8,97.2,129.8z"/>
	<path class="st8" d="M93.5,94.1H81.2c-0.6,0-1-0.4-1-1v-2.5h14.2v2.5C94.5,93.7,94,94.1,93.5,94.1z"/>
</g>
<g id="_x32_" class="st0">
	<path class="st16" d="M104.5,156.5c0.4,27.1-17.2,35.7-17.2,35.7s-17.5-8.7-17.1-35.7c0,0,7.9-0.8,17.1-6.3
		C96.6,155.7,104.5,156.5,104.5,156.5z"/>
	<path class="st1" d="M97.8,161.3c0.2,16.5-10.5,22.8-10.5,22.8s-10.7-6.3-10.4-22.8c0,0,4.8-0.5,10.4-3.9
		C93,160.8,97.8,161.3,97.8,161.3z"/>
</g>
<g id="_x33_" class="st0">
	<g class="st1">
		<path class="st17" d="M167,127.9c-7.6,0-14.3-4.8-16.8-12c-0.1-0.2-0.1-0.4,0-0.6c0.1-0.2,0.3-0.3,0.5-0.4c0.1,0,0.2,0,0.3,0
			c0.3,0,0.7,0.2,0.8,0.6c2.2,6.5,8.4,10.9,15.2,10.9c8.9,0,16.1-7.2,16.1-16.1c0-0.4,0.4-0.8,0.8-0.8c0.4,0,0.8,0.4,0.8,0.8
			C184.7,119.9,176.7,127.9,167,127.9z"/>
		<path class="st17" d="M150,111c-0.4,0-0.8-0.4-0.8-0.8c0-9.8,8-17.7,17.7-17.7c7.6,0,14.3,4.8,16.8,12c0.1,0.2,0.1,0.4,0,0.6
			c-0.1,0.2-0.3,0.3-0.5,0.4c-0.1,0-0.2,0-0.3,0c-0.3,0-0.7-0.2-0.8-0.5C180,98.4,173.8,94,167,94c-8.9,0-16.1,7.2-16.1,16.1
			C150.8,110.6,150.5,111,150,111z"/>
		<path class="st17" d="M183.2,105.7c-0.1,0-0.2,0-0.2,0l-7.1-2.2c-0.4-0.1-0.7-0.6-0.5-1c0.1-0.3,0.4-0.6,0.8-0.6
			c0.1,0,0.2,0,0.2,0l6.4,2l2.4-6c0.1-0.3,0.4-0.5,0.8-0.5c0.1,0,0.2,0,0.3,0.1c0.2,0.1,0.4,0.2,0.4,0.4c0.1,0.2,0.1,0.4,0,0.6
			l-2.7,6.7C183.9,105.5,183.6,105.7,183.2,105.7z"/>
		<path class="st17" d="M148.1,123c-0.1,0-0.2,0-0.3-0.1c-0.4-0.2-0.6-0.6-0.5-1.1l2.7-6.7c0.1-0.3,0.4-0.5,0.7-0.5
			c0.1,0,0.2,0,0.2,0l7.1,2.2c0.4,0.1,0.7,0.6,0.5,1c-0.1,0.3-0.4,0.6-0.8,0.6c-0.1,0-0.2,0-0.2,0l-6.4-2l-2.4,6
			C148.7,122.8,148.4,123,148.1,123z"/>
	</g>
	<circle class="st18" cx="167.4" cy="110.3" r="6.1"/>
</g>
<g id="_x34_" class="st0">
	<g class="st1">
		<path class="st19" d="M251.1,172.9v1.9l1.9,1.3l5.1,1.6c2,0.6,2.6,2.5,2.6,2.5l1.9,9.3c0.4,2-2.1,2.3-2.1,2.3h-25.2
			c0,0-2.5-0.2-2.1-2.3l1.9-9.3c0,0,0.6-1.9,2.6-2.5l5.1-1.6l1.9-1.3v-1.9"/>
		<g id="head">
			<path class="st20" d="M240.2,161.7v4.3c0,4.2,3.4,7.7,7.7,7.7h0c4.2,0,7.7-3.4,7.7-7.7v-4.3"/>
			<path class="st20" d="M238.5,161.4c-0.8,0.3-1.3,1-1.3,1.9c0,1.1,0.9,2,2,2c0.4,0,0.7-0.1,1-0.3"/>
			<path class="st20" d="M255.5,165c0.3,0.2,0.6,0.3,1,0.3c1.1,0,2-0.9,2-2c0-0.9-0.5-1.6-1.3-1.9"/>
			<path class="st21" d="M257,161.9c-0.8,0.6-2-0.6-2-0.6c-0.4-0.4-0.6-0.9-0.8-1.4c-0.1-0.2-0.2-0.5-0.3-0.7
				c-0.1-0.3-0.1-0.5-0.2-0.8c0-0.3-0.2-0.5-0.4-0.6c-0.7-0.5-1.3,0-1.9,0.2c-0.4,0.1-0.8,0.2-1.2,0.3c-0.8,0.1-1.6,0.2-2.4,0.2
				c-0.8,0-1.6-0.1-2.4-0.2c-0.4-0.1-0.8-0.2-1.2-0.3c-0.7-0.2-1.3-0.7-1.9-0.2c-0.2,0.2-0.4,0.4-0.4,0.6c-0.1,0.3-0.1,0.5-0.2,0.8
				c-0.1,0.2-0.2,0.5-0.3,0.7c-0.2,0.5-0.4,1-0.8,1.4c0,0-1.2,1.1-2,0.6c0,0-0.6-0.8-0.4-2.8c0,0,0.9-8.5,9.5-8.5
				c8.7,0,9.5,8.5,9.5,8.5C257.6,161.1,257,161.9,257,161.9z"/>
		</g>
		<line class="st19" x1="239.1" y1="191.7" x2="239.1" y2="185.3"/>
		<line class="st19" x1="256.6" y1="191.7" x2="256.6" y2="185.3"/>
		<polyline class="st19" points="244.6,174.8 247.8,179.2 244.3,180.4 242.7,176.1 		"/>
		<polyline class="st19" points="251.1,174.8 247.8,179.2 251.4,180.4 253,176.1 		"/>
		<line class="st19" x1="247.8" y1="179.2" x2="247.8" y2="185.6"/>
	</g>
	<g class="st1">
		<circle class="st4" cx="245.3" cy="163.8" r="1"/>
		<circle class="st4" cx="250.3" cy="163.8" r="1"/>
	</g>
	<path class="st22" d="M245.8,168.1c0,0.7,0.9,1.3,2.1,1.3s2.1-0.6,2.1-1.3"/>
</g>
<path class="st23" d="M34.7,122.4l0.5-1.4c0.3-0.9,0.1-2.4-0.8-2.9c-0.3-0.2-0.7-0.3-1.1-0.2c-0.2,0.1-0.4,0.2-0.5,0.4
	c-0.1,0.2-0.1,0.4-0.2,0.7c-0.1,0.6-0.4,1.1-0.8,1.5c-0.7,0.7-3,2.8-3,2.8v7.6h7.9c1.1,0,1.8-1.2,1.2-2.1c0.6-0.4,0.8-1.2,0.5-1.9
	c0.6-0.4,0.8-1.2,0.5-1.9c1.1-0.7,0.7-2.4-0.5-2.6C38.3,122.4,34.7,122.4,34.7,122.4z"/>
<g class="st0">
	<path class="st24" d="M145.1,99.6v8.1c0,0.3,0.2,0.5,0.4,0.8c0.4,0.4,1,0.7,0.9,1.5c0,0,0,0,0,0.1c-0.1,0.9,0.9,1.9,1.7,2.5
		c0.2,0.2,0.4,0.4,0.5,0.5c0.2,0.2,0.5,0.7,0.8,1.1c0.4,0.6,0.9,1.1,1.2,1.1c0.4-0.1,1.3-0.4,1.8,0.2c0.4,0.5,2.4,1.1,3.4,1.2h0.6
		c0.6-0.1,2-0.3,2.9,0c0.3,0.1,0.6,0.3,0.6,0.6c0.1,0.3,0.2,0.7,0.4,1c0.4,0.7,1,1.2,1,1.2s0.4-0.7,0.6-1.1c0,0,0-0.1,0.1-0.1
		c0.1-0.1,0.3-0.1,0.6,0c0.4,0.2,0.8,0.8,1.1,1.9c0.1,0.2,0.1,0.4,0.2,0.6c0.3,0.7,0.8,1.2,1.3,1.6c0.6,0.5,1.1,0.7,1.1,0.7
		s0-0.3,0-0.7c0-0.5,0-1.1,0-1.6c0-0.2,0-0.3,0-0.5c0.1-0.9,2.5-1.7,3-1.8c0.4-0.1,3.4,1.4,3.4,0.9c0-0.4,0.5-0.8,1-1.2
		c0.1-0.1,0.2-0.2,0.3-0.2c0.2-0.2,0.5,0,0.8,0.2c0.5,0.5,1,1.2,1,0.9c0.1-0.5,0.5,0.8,0.7,1.4c0.1,0.3,0.2,0.8,0.3,1.3
		c0,0.3,0.1,0.6,0,0.9c0,0.2,0.1,0.4,0.2,0.7c0.4,0.7,2.1,0.5,2.3,0.4c0.1-0.1,0.2-0.7,0.3-1.4c0-0.5,0-1.1,0-1.6
		c-0.1-0.3-0.1-0.6-0.3-0.7c-0.3-0.3-0.5-1-0.6-1.8c-0.1-0.5-0.1-1.1,0-1.6c0-0.4,0.1-0.7,0.3-0.8c0.2-0.2,1.1-0.9,1.9-1.7
		c0.6-0.5,1.1-1.1,1.6-1.6c0.6-0.7,1-1.3,0.7-1.4c-0.5-0.2-0.6-0.6-0.5-1.1c0-0.4,0.1-0.9,0.2-1.5c0,0,0,0,0-0.1
		c0.2-1.4,1,0.3,1.4-1.6c0.1-0.4,0.3-0.7,0.5-0.9c1-0.9,2.9-0.9,2.6-1.2c-0.1-0.1-0.2-0.2-0.2-0.4c-0.1-0.5,0-1.2,0.5-1.6
		c0.2-0.2,0.7-0.5,1.2-0.9c0.7-0.6,1.5-1.3,1.3-1.5l0,0c0,0,0,0,0,0c-0.4-0.4-2.9-0.1-2.9-0.1s0,0.1-0.1,0.1
		c-0.1,0.2-0.3,0.5-0.7,0.6c-0.6,0.2-9.1,0.3-9.3-0.3c0-0.1-0.1-0.2-0.2-0.3c-0.4-0.3-1.2-0.2-1.2-0.2s-0.1,0.1-0.2,0.2
		c-0.2,0.3-0.7,0.8-1,0.9c-0.4,0.1-0.5-0.4-0.4-0.9c0-0.1,0-0.3,0.1-0.4c0.1-0.3-0.9-1.5-1.7-2.1c-0.4-0.3-0.7-0.4-0.9-0.3
		c-0.7,0.2-4.2-1.2-4.2-1.2H146c0,0,0,0.5-0.1,1c0,0,0,0.1,0,0.1c0,0.2-0.1,0.4-0.1,0.5C145.8,97.8,145.1,98.7,145.1,99.6z
		 M190.4,100.3"/>
	<g class="st1">
		<defs>
			<path id="SVGID_1_" d="M145.1,99.6v8.1c0,0.3,0.2,0.5,0.4,0.8c0.4,0.4,1,0.7,0.9,1.5c0,0,0,0,0,0.1c-0.1,0.9,0.9,1.9,1.7,2.5
				c0.2,0.2,0.4,0.4,0.5,0.5c0.2,0.2,0.5,0.7,0.8,1.1c0.4,0.6,0.9,1.1,1.2,1.1c0.4-0.1,1.3-0.4,1.8,0.2c0.4,0.5,2.4,1.1,3.4,1.2h0.6
				c0.6-0.1,2-0.3,2.9,0c0.3,0.1,0.6,0.3,0.6,0.6c0.1,0.3,0.2,0.7,0.4,1c0.4,0.7,1,1.2,1,1.2s0.4-0.7,0.6-1.1c0,0,0-0.1,0.1-0.1
				c0.1-0.1,0.3-0.1,0.6,0c0.4,0.2,0.8,0.8,1.1,1.9c0.1,0.2,0.1,0.4,0.2,0.6c0.3,0.7,0.8,1.2,1.3,1.6c0.6,0.5,1.1,0.7,1.1,0.7
				s0-0.3,0-0.7c0-0.5,0-1.1,0-1.6c0-0.2,0-0.3,0-0.5c0.1-0.9,2.5-1.7,3-1.8c0.4-0.1,3.4,1.4,3.4,0.9c0-0.4,0.5-0.8,1-1.2
				c0.1-0.1,0.2-0.2,0.3-0.2c0.2-0.2,0.5,0,0.8,0.2c0.5,0.5,1,1.2,1,0.9c0.1-0.5,0.5,0.8,0.7,1.4c0.1,0.3,0.2,0.8,0.3,1.3
				c0,0.3,0.1,0.6,0,0.9c0,0.2,0.1,0.4,0.2,0.7c0.4,0.7,2.1,0.5,2.3,0.4c0.1-0.1,0.2-0.7,0.3-1.4c0-0.5,0-1.1,0-1.6
				c-0.1-0.3-0.1-0.6-0.3-0.7c-0.3-0.3-0.5-1-0.6-1.8c-0.1-0.5-0.1-1.1,0-1.6c0-0.4,0.1-0.7,0.3-0.8c0.2-0.2,1.1-0.9,1.9-1.7
				c0.6-0.5,1.1-1.1,1.6-1.6c0.6-0.7,1-1.3,0.7-1.4c-0.5-0.2-0.6-0.6-0.5-1.1c0-0.4,0.1-0.9,0.2-1.5c0,0,0,0,0-0.1
				c0.2-1.4,1,0.3,1.4-1.6c0.1-0.4,0.3-0.7,0.5-0.9c1-0.9,2.9-0.9,2.6-1.2c-0.1-0.1-0.2-0.2-0.2-0.4c-0.1-0.5,0-1.2,0.5-1.6
				c0.2-0.2,0.7-0.5,1.2-0.9c0.7-0.6,1.5-1.3,1.3-1.5l0,0c0,0,0,0,0,0c-0.4-0.4-2.9-0.1-2.9-0.1s0,0.1-0.1,0.1
				c-0.1,0.2-0.3,0.5-0.7,0.6c-0.6,0.2-9.1,0.3-9.3-0.3c0-0.1-0.1-0.2-0.2-0.3c-0.4-0.3-1.2-0.2-1.2-0.2s-0.1,0.1-0.2,0.2
				c-0.2,0.3-0.7,0.8-1,0.9c-0.4,0.1-0.5-0.4-0.4-0.9c0-0.1,0-0.3,0.1-0.4c0.1-0.3-0.9-1.5-1.7-2.1c-0.4-0.3-0.7-0.4-0.9-0.3
				c-0.7,0.2-4.2-1.2-4.2-1.2H146c0,0,0,0.5-0.1,1c0,0,0,0.1,0,0.1c0,0.2-0.1,0.4-0.1,0.5C145.8,97.8,145.1,98.7,145.1,99.6z
				 M190.4,100.3"/>
		</defs>
		<clipPath id="SVGID_2_">
			<use xlink:href="#SVGID_1_"  style="overflow:visible;"/>
		</clipPath>
		<g class="st25">
			<line class="st26" x1="143.2" y1="119.9" x2="193.5" y2="119.9"/>
			<line class="st26" x1="143.2" y1="114.9" x2="193.5" y2="114.9"/>
			<line class="st26" x1="143.2" y1="109.9" x2="193.5" y2="109.9"/>
			<line class="st26" x1="143.2" y1="104.9" x2="193.5" y2="104.9"/>
			<line class="st26" x1="143.2" y1="99.9" x2="193.5" y2="99.9"/>
		</g>
	</g>
	<path class="st8" d="M145.1,108h17.7c0.6,0,1.1-0.5,1.1-1.1V96.3H146l-1.1,3.3L145.1,108z"/>
	<g class="st1">
		<path class="st27" d="M161.6,105.3l-1,0l-0.1-0.2l-0.2-0.7c0-0.1-0.2-0.1-0.2,0l-0.2,0.7l-0.1,0.2l-1,0c-0.1,0-0.2,0.2-0.1,0.2
			l0.8,0.6l-0.3,0.9c0,0.1,0.1,0.2,0.2,0.1l0.8-0.6l0.8,0.6c0.1,0.1,0.2,0,0.2-0.1L161,106l0.8-0.6
			C161.8,105.4,161.8,105.3,161.6,105.3z"/>
		<path class="st27" d="M161.6,101.3l-1,0l-0.1-0.2l-0.2-0.7c0-0.1-0.2-0.1-0.2,0l-0.2,0.7l-0.1,0.2l-1,0c-0.1,0-0.2,0.2-0.1,0.2
			l0.8,0.6l-0.3,0.9c0,0.1,0.1,0.2,0.2,0.1l0.8-0.6l0.8,0.6c0.1,0.1,0.2,0,0.2-0.1L161,102l0.8-0.6
			C161.8,101.4,161.8,101.3,161.6,101.3z"/>
		<path class="st27" d="M161.6,97.3l-1,0l-0.1-0.2l-0.2-0.7c0-0.1-0.2-0.1-0.2,0l-0.2,0.7l-0.1,0.2l-1,0c-0.1,0-0.2,0.2-0.1,0.2
			l0.8,0.6l-0.3,0.9c0,0.1,0.1,0.2,0.2,0.1l0.8-0.6l0.8,0.6c0.1,0.1,0.2,0,0.2-0.1L161,98l0.8-0.6C161.8,97.4,161.8,97.3,161.6,97.3
			z"/>
	</g>
	<g class="st1">
		<path class="st27" d="M157.6,105.3l-1,0l-0.1-0.2l-0.2-0.7c0-0.1-0.2-0.1-0.2,0l-0.2,0.7l-0.1,0.2l-1,0c-0.1,0-0.2,0.2-0.1,0.2
			l0.8,0.6l-0.3,0.9c0,0.1,0.1,0.2,0.2,0.1l0.8-0.6l0.8,0.6c0.1,0.1,0.2,0,0.2-0.1L157,106l0.8-0.6
			C157.8,105.4,157.8,105.3,157.6,105.3z"/>
		<path class="st27" d="M157.6,101.3l-1,0l-0.1-0.2l-0.2-0.7c0-0.1-0.2-0.1-0.2,0l-0.2,0.7l-0.1,0.2l-1,0c-0.1,0-0.2,0.2-0.1,0.2
			l0.8,0.6l-0.3,0.9c0,0.1,0.1,0.2,0.2,0.1l0.8-0.6l0.8,0.6c0.1,0.1,0.2,0,0.2-0.1L157,102l0.8-0.6
			C157.8,101.4,157.8,101.3,157.6,101.3z"/>
		<path class="st27" d="M157.6,97.3l-1,0l-0.1-0.2l-0.2-0.7c0-0.1-0.2-0.1-0.2,0l-0.2,0.7l-0.1,0.2l-1,0c-0.1,0-0.2,0.2-0.1,0.2
			l0.8,0.6l-0.3,0.9c0,0.1,0.1,0.2,0.2,0.1l0.8-0.6l0.8,0.6c0.1,0.1,0.2,0,0.2-0.1L157,98l0.8-0.6C157.8,97.4,157.8,97.3,157.6,97.3
			z"/>
	</g>
	<g class="st1">
		<path class="st27" d="M153.6,105.3l-1,0l-0.1-0.2l-0.2-0.7c0-0.1-0.2-0.1-0.2,0l-0.2,0.7l-0.1,0.2l-1,0c-0.1,0-0.2,0.2-0.1,0.2
			l0.8,0.6l-0.3,0.9c0,0.1,0.1,0.2,0.2,0.1l0.8-0.6l0.8,0.6c0.1,0.1,0.2,0,0.2-0.1L153,106l0.8-0.6
			C153.8,105.4,153.8,105.3,153.6,105.3z"/>
		<path class="st27" d="M153.6,101.3l-1,0l-0.1-0.2l-0.2-0.7c0-0.1-0.2-0.1-0.2,0l-0.2,0.7l-0.1,0.2l-1,0c-0.1,0-0.2,0.2-0.1,0.2
			l0.8,0.6l-0.3,0.9c0,0.1,0.1,0.2,0.2,0.1l0.8-0.6l0.8,0.6c0.1,0.1,0.2,0,0.2-0.1L153,102l0.8-0.6
			C153.8,101.4,153.8,101.3,153.6,101.3z"/>
		<path class="st27" d="M153.6,97.3l-1,0l-0.1-0.2l-0.2-0.7c0-0.1-0.2-0.1-0.2,0l-0.2,0.7l-0.1,0.2l-1,0c-0.1,0-0.2,0.2-0.1,0.2
			l0.8,0.6l-0.3,0.9c0,0.1,0.1,0.2,0.2,0.1l0.8-0.6l0.8,0.6c0.1,0.1,0.2,0,0.2-0.1L153,98l0.8-0.6C153.8,97.4,153.8,97.3,153.6,97.3
			z"/>
	</g>
	<g class="st1">
		<path class="st27" d="M149.6,105.3l-1,0l-0.1-0.2l-0.2-0.7c0-0.1-0.2-0.1-0.2,0l-0.2,0.7l-0.1,0.2l-1,0c-0.1,0-0.2,0.2-0.1,0.2
			l0.8,0.6l-0.3,0.9c0,0.1,0.1,0.2,0.2,0.1l0.8-0.6l0.8,0.6c0.1,0.1,0.2,0,0.2-0.1L149,106l0.8-0.6
			C149.8,105.4,149.8,105.3,149.6,105.3z"/>
		<path class="st27" d="M149.6,101.3l-1,0l-0.1-0.2l-0.2-0.7c0-0.1-0.2-0.1-0.2,0l-0.2,0.7l-0.1,0.2l-1,0c-0.1,0-0.2,0.2-0.1,0.2
			l0.8,0.6l-0.3,0.9c0,0.1,0.1,0.2,0.2,0.1l0.8-0.6l0.8,0.6c0.1,0.1,0.2,0,0.2-0.1L149,102l0.8-0.6
			C149.8,101.4,149.8,101.3,149.6,101.3z"/>
		<path class="st27" d="M149.6,97.3l-1,0l-0.1-0.2l-0.2-0.7c0-0.1-0.2-0.1-0.2,0l-0.2,0.7l-0.1,0.2l-1,0c-0.1,0-0.2,0.2-0.1,0.2
			l0.8,0.6l-0.3,0.9c0,0.1,0.1,0.2,0.2,0.1l0.8-0.6l0.8,0.6c0.1,0.1,0.2,0,0.2-0.1L149,98l0.8-0.6C149.8,97.4,149.8,97.3,149.6,97.3
			z"/>
	</g>
</g>
<g class="st0">
	<g class="st1">
		<path class="st2" d="M199.7,156.2c0,0-0.1-0.1-0.1-0.1c-0.2-0.2-0.8-0.8-4.6-0.4c-0.3,0-0.6,0.3-0.7,0.6c-0.1,0.1-0.2,0.3-0.5,0.4
			c-1.1,0.2-10.5,0.3-12.1-0.2c-0.1-0.2-0.2-0.3-0.4-0.5c-0.8-0.6-2-0.5-2.3-0.5c-0.2,0-0.4,0.1-0.5,0.3c0,0-0.1,0.1-0.2,0.3
			c-0.3,0.4-0.5,0.6-0.7,0.8c0-0.1,0-0.2,0-0.3c0-0.1,0-0.3,0.1-0.4c0.4-1.3-2.2-3.4-2.7-3.8c-0.8-0.5-1.4-0.7-1.9-0.6
			c-0.6,0.1-3.2-0.8-5.3-1.7c-0.1,0-0.2-0.1-0.3-0.1h-30c-0.4,0-0.7,0.3-0.8,0.7c0,0-0.1,0.7-0.2,1.3l0,0.1c0,0.3-0.1,0.4-0.1,0.4
			c-0.2,0.3-1,1.5-1,2.8v11.2c0,0.8,0.4,1.3,0.8,1.6c0.1,0.1,0.2,0.2,0.3,0.3c0.6,0.5,0.8,0.7,0.7,1.2c0,0,0,0.1,0,0.1
			c-0.1,1.6,1.5,3.2,2.6,4.1c0.3,0.2,0.5,0.4,0.6,0.6c0.2,0.2,0.5,0.6,0.7,0.9l0.4,0.5c1,1.3,1.6,1.9,2.3,1.7c0.1,0,0.2-0.1,0.3-0.1
			c0.8-0.2,1.1-0.2,1.4,0.1c0.9,1.1,4.2,1.8,5.3,1.9h0.8c0,0,0.1,0,0.2,0c0.7-0.1,2.6-0.4,3.6,0c0.2,0.1,0.4,0.2,0.4,0.3
			c0.1,0.5,0.3,1,0.7,1.5c0.6,1.1,1.5,1.8,1.5,1.9c0.2,0.2,0.4,0.2,0.6,0.2c0.2,0,0.4-0.2,0.5-0.4c0,0,0.5-0.8,0.7-1.4
			c0.4,0.2,0.8,0.9,1.2,2.1c0.1,0.3,0.2,0.7,0.4,1c0.4,0.9,1.1,1.7,2,2.4c0.9,0.7,1.7,1,1.7,1c0.2,0.1,0.5,0.1,0.7-0.1
			s0.3-0.4,0.3-0.6c0,0,0-0.4,0-0.9c0-0.6,0-1.4,0.1-2.1c0-0.2,0-0.4,0-0.6c0.1-0.6,2.5-1.6,3.4-1.8c0.2,0,1.1,0.4,1.7,0.6
			c2,0.8,2.8,1,3.3,0.6c0.2-0.2,0.4-0.4,0.4-0.7c0-0.2,0.8-0.8,1.2-1l0.3-0.2c0.1,0,0.2,0.1,0.3,0.2c0.2,0.2,0.5,0.5,0.7,0.7
			c0.4,0.4,0.7,0.8,1.1,0.8c0.1,0.4,0.3,0.8,0.4,1.3c0.2,0.6,0.3,1.2,0.4,1.7c0.1,0.5,0.1,0.8,0,1c0,0.4,0.1,0.8,0.4,1.4
			c0.3,0.6,1,1,2,1.1c0,0,0.3,0,0.7,0c0.6,0,1.4-0.1,1.7-0.4c0.3-0.3,0.5-1.1,0.5-2.4c0-0.5,0.1-1.5-0.1-2.3
			c-0.1-0.6-0.3-1.1-0.6-1.4c-0.1-0.1-0.4-0.8-0.6-2.1c-0.1-0.7-0.1-1.4,0-2c0.1-0.5,0.1-0.6,0.1-0.6c0.4-0.3,1.5-1.3,2.7-2.4
			c0.9-0.8,1.7-1.6,2.2-2.2c1.1-1.2,1.5-1.9,1.3-2.5c-0.1-0.3-0.3-0.5-0.6-0.7c-0.2-0.1-0.3-0.1-0.2-0.8c0-0.2,0.1-0.5,0.1-0.8
			c0.1-0.4,0.1-0.8,0.2-1.3c0-0.1,0-0.1,0-0.2c1,0,1.6-0.5,1.9-1.9c0.1-0.3,0.2-0.6,0.5-0.9c0.7-0.6,1.8-0.9,2.5-1.1
			c0.7-0.2,1.2-0.3,1.3-0.9c0.1-0.3-0.1-0.6-0.3-0.8c0,0,0,0-0.1-0.1c-0.1-0.4,0-1.1,0.4-1.4c0.1-0.1,0.3-0.3,0.5-0.4
			c0.3-0.2,0.7-0.5,1.1-0.8C199.2,158.2,200.4,157.1,199.7,156.2z M196.8,158.2c-0.4,0.3-0.7,0.6-1,0.8c-0.2,0.2-0.4,0.3-0.6,0.5
			c-0.9,0.7-1.1,2.1-0.9,3c-0.9,0.2-2.1,0.6-3,1.4c-0.5,0.5-0.8,1.1-1,1.7c-0.1,0.6-0.2,0.7-0.2,0.7h-0.2c-0.6,0-1.4,0.1-1.6,1.6
			c0,0.4-0.1,0.8-0.2,1.2c-0.1,0.3-0.1,0.6-0.1,0.9c0,0.5-0.1,1.4,0.7,2c-0.1,0.2-0.4,0.5-0.8,1c-0.5,0.6-1.2,1.3-2.1,2.1
			c-1.2,1.1-2.3,2-2.7,2.3c-0.4,0.3-0.6,0.8-0.7,1.6c-0.1,0.6-0.1,1.5,0,2.3c0.1,0.8,0.4,2.3,1,2.9c0,0,0.1,0.1,0.2,0.6
			c0.1,0.5,0.1,1.2,0.1,2c0,0.7-0.1,1.2-0.2,1.4c-0.6,0.1-1.7,0-1.9-0.3c-0.2-0.4-0.2-0.5-0.2-0.5c0-0.4,0-0.8,0-1.4
			c-0.1-0.5-0.2-1.2-0.4-1.8c-0.7-2.7-1.3-2.6-1.6-2.6c0,0-0.1,0-0.1,0c0,0,0,0-0.1-0.1c-0.2-0.3-0.5-0.6-0.8-0.9
			c-1-0.9-1.7-0.6-2.1-0.4l-0.4,0.3c-0.6,0.4-1.3,0.9-1.6,1.5c-0.5-0.1-1.3-0.4-1.8-0.6c-1.5-0.6-2-0.7-2.4-0.7c0,0-4.6,1.1-4.7,3.2
			c0,0.2,0,0.4,0,0.6c0,0.6,0,1.3,0,1.9c-0.1-0.1-0.3-0.2-0.4-0.3c-0.7-0.6-1.3-1.2-1.6-1.9c-0.1-0.2-0.2-0.5-0.3-0.7
			c-0.4-1.5-1.1-2.6-1.9-3.1c-0.6-0.4-1.3-0.3-1.8,0.1c-0.1,0.1-0.2,0.2-0.2,0.3c-0.1,0.2-0.2,0.4-0.3,0.6c-0.2-0.2-0.4-0.5-0.6-0.8
			c-0.3-0.4-0.4-0.8-0.5-1.1c-0.1-0.4-0.4-1-1.3-1.3c-1.3-0.5-3.4-0.2-4.3,0h-0.6c-1.5-0.2-3.9-0.9-4.2-1.4
			c-0.9-1.1-2.2-0.8-2.9-0.7c0,0-0.1,0-0.1,0c-0.1-0.1-0.4-0.4-1-1.2l-0.4-0.5c-0.3-0.4-0.6-0.8-0.8-1c-0.2-0.2-0.4-0.4-0.8-0.7
			c-0.7-0.7-2.1-1.9-2-2.9c0.2-1.3-0.7-2-1.3-2.5c-0.1-0.1-0.2-0.1-0.3-0.2l0,0c-0.3-0.3-0.3-0.4-0.3-0.5v-11.2c0-1,0.7-2,0.7-2
			c0,0,0-0.1,0-0.1c0.1-0.2,0.2-0.4,0.2-0.8l0-0.2c0-0.2,0.1-0.5,0.1-0.7h2.1l0.2-0.5c0-0.2,0.3-0.2,0.3,0l0.2,0.5h4.9l0.2-0.5
			c0.1-0.2,0.3-0.2,0.3,0l0.2,0.5h4.9l0.2-0.5c0.1-0.2,0.3-0.2,0.3,0l0.2,0.5h4.8l0.2-0.5c0.1-0.2,0.3-0.2,0.3,0l0.2,0.5h9.8
			c2.3,0.9,5,1.9,6.1,1.7c0.1,0,0.3,0.1,0.6,0.3c1,0.7,1.9,1.8,2.1,2.2c0,0.2-0.1,0.4-0.1,0.5c-0.1,0.5,0,1.4,0.5,1.9
			c0.3,0.2,0.7,0.3,1.1,0.2c0.2-0.1,0.8-0.3,1.8-1.5c0,0,0,0,0,0c0.3,0,0.7,0,0.8,0.2c0.6,1.9,13.7,1,13.8,0.9
			c0.7-0.2,1.1-0.7,1.3-1c0.9-0.1,1.9-0.1,2.5,0C197.8,157.3,197.4,157.7,196.8,158.2z"/>
	</g>
	<g class="st1">
		<g>
			<line class="st26" x1="162.4" y1="183.7" x2="166" y2="183.7"/>
			<line class="st26" x1="180.3" y1="183.7" x2="184" y2="183.7"/>
			<line class="st26" x1="143.9" y1="176.8" x2="184.8" y2="176.8"/>
			<line class="st26" x1="138.9" y1="169.9" x2="188.4" y2="169.9"/>
			<line class="st26" x1="160.9" y1="163" x2="194.4" y2="163"/>
			<line class="st26" x1="160.9" y1="156.1" x2="176.4" y2="156.1"/>
		</g>
	</g>
	<g class="st1">
		<path class="st2" d="M137.8,151l-1.5,4.5l0.3,11.8H161c0.8,0,1.5-0.7,1.5-1.5V151H137.8z M142.9,163.9l-1.1,0.8l0.4,1.3
			c0,0.2-0.1,0.3-0.3,0.2l-1.1-0.8l-1.1,0.8c-0.1,0.1-0.3,0-0.3-0.2l0.4-1.3l-1-0.8c-0.1-0.1-0.1-0.3,0.1-0.3l1.3,0l0.1-0.3l0.3-1
			c0-0.2,0.3-0.2,0.3,0l0.3,1l0.1,0.3l1.3,0C142.9,163.6,143,163.8,142.9,163.9z M142.9,158.4l-1.1,0.8l0.4,1.3
			c0,0.2-0.1,0.3-0.3,0.2l-1.1-0.8l-1.1,0.8c-0.1,0.1-0.3,0-0.3-0.2l0.4-1.3l-1-0.8c-0.1-0.1-0.1-0.3,0.1-0.3l1.3,0l0.1-0.3l0.3-0.9
			c0-0.2,0.3-0.2,0.3,0l0.3,0.9l0.1,0.3l1.3,0C142.9,158,143,158.3,142.9,158.4z M142.9,152.8l-1.1,0.8l0.4,1.3
			c0,0.2-0.1,0.3-0.3,0.2l-1.1-0.8l-1.1,0.8c-0.1,0.1-0.3,0-0.3-0.2l0.4-1.3l-1-0.8c-0.1-0.1-0.1-0.3,0.1-0.3l1.3,0l0.1-0.3l0.2-0.5
			l0.2-0.5c0-0.2,0.3-0.2,0.3,0l0.2,0.5l0.1,0.5l0.1,0.3l1.3,0C142.9,152.5,143,152.7,142.9,152.8z M148.4,163.9l-1.1,0.8l0.4,1.3
			c0.1,0.2-0.1,0.3-0.3,0.2l-1.1-0.8l-1.1,0.8c-0.1,0.1-0.3,0-0.3-0.2l0.4-1.3l-1.1-0.8c-0.1-0.1-0.1-0.3,0.1-0.3l1.3,0l0.1-0.3
			l0.3-1c0.1-0.2,0.3-0.2,0.3,0l0.3,1l0.1,0.3l1.3,0C148.5,163.6,148.5,163.8,148.4,163.9z M148.4,158.4l-1.1,0.8l0.4,1.3
			c0.1,0.2-0.1,0.3-0.3,0.2l-1.1-0.8l-1.1,0.8c-0.1,0.1-0.3,0-0.3-0.2l0.4-1.3l-1.1-0.8c-0.1-0.1-0.1-0.3,0.1-0.3l1.3,0l0.1-0.3
			l0.3-0.9c0.1-0.2,0.3-0.2,0.3,0l0.3,0.9l0.1,0.3l1.3,0C148.5,158,148.5,158.3,148.4,158.4z M148.4,152.8l-1.1,0.8l0.4,1.3
			c0.1,0.2-0.1,0.3-0.3,0.2l-1.1-0.8l-1.1,0.8c-0.1,0.1-0.3,0-0.3-0.2l0.4-1.3l-1.1-0.8c-0.1-0.1-0.1-0.3,0.1-0.3l1.3,0l0.1-0.3
			l0.2-0.5l0.2-0.5c0.1-0.2,0.3-0.2,0.3,0l0.2,0.5l0.2,0.5l0.1,0.3l1.3,0C148.5,152.5,148.5,152.7,148.4,152.8z M153.9,163.9l-1,0.8
			l0.4,1.3c0,0.2-0.1,0.3-0.3,0.2l-1.1-0.8l-1.1,0.8c-0.1,0.1-0.3,0-0.3-0.2l0.4-1.3l-1.1-0.8c-0.1-0.1-0.1-0.3,0.1-0.3l1.3,0
			l0.1-0.3l0.3-1c0.1-0.2,0.3-0.2,0.3,0l0.3,1l0.1,0.3l1.3,0C154,163.6,154.1,163.8,153.9,163.9z M153.9,158.4l-1,0.8l0.4,1.3
			c0,0.2-0.1,0.3-0.3,0.2l-1.1-0.8l-1.1,0.8c-0.1,0.1-0.3,0-0.3-0.2l0.4-1.3l-1.1-0.8c-0.1-0.1-0.1-0.3,0.1-0.3l1.3,0l0.1-0.3
			l0.3-0.9c0.1-0.2,0.3-0.2,0.3,0l0.3,0.9l0.1,0.3l1.3,0C154,158,154.1,158.3,153.9,158.4z M153.9,152.8l-1,0.8l0.4,1.3
			c0,0.2-0.1,0.3-0.3,0.2l-1.1-0.8l-1.1,0.8c-0.1,0.1-0.3,0-0.3-0.2l0.4-1.3l-1.1-0.8c-0.1-0.1-0.1-0.3,0.1-0.3l1.3,0l0.1-0.3
			l0.2-0.5l0.2-0.5c0.1-0.2,0.3-0.2,0.3,0l0.2,0.5l0.1,0.5l0.1,0.3l1.3,0C154,152.5,154.1,152.7,153.9,152.8z M159.4,163.9l-1.1,0.8
			l0.4,1.3c0.1,0.2-0.1,0.3-0.3,0.2l-1.1-0.8l-1.1,0.8c-0.1,0.1-0.3,0-0.3-0.2l0.4-1.3l-1.1-0.8c-0.1-0.1-0.1-0.3,0.1-0.3l1.3,0
			l0.1-0.3l0.3-1c0.1-0.2,0.3-0.2,0.3,0l0.3,1l0.1,0.3l1.3,0C159.5,163.6,159.6,163.8,159.4,163.9z M159.4,158.4l-1.1,0.8l0.4,1.3
			c0.1,0.2-0.1,0.3-0.3,0.2l-1.1-0.8l-1.1,0.8c-0.1,0.1-0.3,0-0.3-0.2l0.4-1.3l-1.1-0.8c-0.1-0.1-0.1-0.3,0.1-0.3l1.3,0l0.1-0.3
			l0.3-0.9c0.1-0.2,0.3-0.2,0.3,0l0.3,0.9l0.1,0.3l1.3,0C159.5,158,159.6,158.3,159.4,158.4z M157.9,152.2l0.1,0.3l1.3,0
			c0.2,0,0.2,0.2,0.1,0.3l-1.1,0.8l0.4,1.3c0.1,0.2-0.1,0.3-0.3,0.2l-1.1-0.8l-1.1,0.8c-0.1,0.1-0.3,0-0.3-0.2l0.4-1.3l-1.1-0.8
			c-0.1-0.1-0.1-0.3,0.1-0.3l1.3,0l0.1-0.3l0.1-0.5l0.2-0.5c0.1-0.2,0.3-0.2,0.3,0l0.2,0.5L157.9,152.2z"/>
	</g>
</g>
<g class="st0">
	<g class="st1">
		<g>
			<polygon class="st26" points="29.6,157 8.8,155 8.8,188.9 29.6,190.9 			"/>
			<polyline class="st26" points="8.8,155 12.9,152.2 33.7,154.2 29.6,157 			"/>
			<polyline class="st26" points="33.7,154.2 33.7,188.1 29.6,190.9 			"/>
		</g>
	</g>
	<g id="_x36__3_" class="st1">
		<path class="st3" d="M24.6,185.8l-11-1c-0.6,0-1-0.4-1-1v-22c0-0.6,0.4-1,1-1l11,1c0.6,0,1,0.4,1,1v22
			C25.6,185.4,25.2,185.8,24.6,185.8z"/>
		<path class="st4" d="M24.1,182.8l-10-1c-0.6,0-1-0.4-1-1v-17c0-0.6,0.4-1,1-1l10,1c0.6,0,1,0.4,1,1v17
			C25.1,182.4,24.7,182.8,24.1,182.8z"/>
		<circle class="st4" cx="18.9" cy="184.6" r="1"/>
	</g>
</g>
<g class="st0">
	<g class="st1">
		<polygon class="st26" points="-17.1,157 3.7,155 3.7,188.9 -17.1,190.9 		"/>
		<polyline class="st26" points="3.7,155 -0.4,152.2 -21.2,154.2 -17.1,157 		"/>
		<polyline class="st26" points="-21.2,154.2 -21.2,188.1 -17.1,190.9 		"/>
	</g>
</g>
<g id="x_4_" class="st0">
	<path class="st6" d="M-0.7,185.8l-12,1.1c-0.6,0-1-0.4-1-1v-25c0-0.6,0.4-1,1-1l12-1.1c0.6,0,1,0.4,1,1v25
		C0.3,185.4-0.2,185.8-0.7,185.8z"/>
	<path class="st7" d="M-0.7,185.8l-12,1.1c-0.6,0-1-0.4-1-1v-25c0-0.6,0.4-1,1-1l12-1.1c0.6,0,1,0.4,1,1v25
		C0.3,185.4-0.2,185.8-0.7,185.8z"/>
	<path class="st8" d="M-3.1,160.6l-7.2,0.8c-0.6,0-1-0.4-1-1V159l9.2-0.9v1.5C-2.1,160.1-2.6,160.6-3.1,160.6z"/>
</g>
<g class="st0">
	<ellipse class="st28" cx="29.2" cy="241.9" rx="8" ry="8"/>
	<line class="st28" x1="29.2" y1="241.9" x2="29.2" y2="233.9"/>
	<line class="st28" x1="29.2" y1="247.7" x2="29.2" y2="249.9"/>
	<line class="st28" x1="37.2" y1="241.9" x2="35" y2="241.9"/>
	<line class="st28" x1="23.4" y1="241.9" x2="21.2" y2="241.9"/>
	<line class="st28" x1="29.2" y1="241.9" x2="34.8" y2="236.3"/>
	<line class="st28" x1="25.1" y1="246" x2="23.5" y2="247.6"/>
	<line class="st28" x1="34.9" y1="247.6" x2="33.3" y2="246"/>
	<line class="st28" x1="25.1" y1="237.8" x2="23.5" y2="236.2"/>
</g>
<g class="st0">
	<line class="st24" x1="67.2" y1="51.9" x2="67.2" y2="52.9"/>
	<line class="st24" x1="70.2" y1="49.9" x2="70.2" y2="52.9"/>
	<line class="st24" x1="73.2" y1="46.9" x2="73.2" y2="52.9"/>
</g>
<g class="st0">
	<line class="st24" x1="200.2" y1="-47" x2="210.1" y2="-37.1"/>
	<line class="st24" x1="210.1" y1="-47" x2="200.2" y2="-37.1"/>
</g>
<g class="st0">
	<path class="st29" d="M190.1-44.6c0,0-0.5-0.5-0.6-0.6c-2-2-5.3-2.1-7.3,0c-2,2-2,5.3,0,7.4c2,2,5.3,2,7.4,0"/>
	<polyline class="st29" points="188.1,-44.2 190.5,-44.2 190.5,-46.5 	"/>
</g>
<g class="st0">
	<line class="st30" x1="136.2" y1="-32.1" x2="156.2" y2="-32.1"/>
	<line class="st30" x1="136.2" y1="-26.1" x2="156.2" y2="-26.1"/>
	<line class="st30" x1="136.2" y1="-20.1" x2="156.2" y2="-20.1"/>
</g>
<circle class="st31" cx="118.7" cy="-32.6" r="2"/>
<circle class="st31" cx="110.7" cy="-32.6" r="2"/>
<circle class="st31" cx="118.7" cy="-24.6" r="2"/>
<circle class="st31" cx="110.7" cy="-24.6" r="2"/>
</svg>
