<?xml version="1.0" encoding="utf-8"?>
<!-- Generator: Adobe Illustrator 22.0.0, SVG Export Plug-In . SVG Version: 6.00 Build 0)  -->
<svg version="1.1" id="Layer_1" xmlns="http://www.w3.org/2000/svg" xmlns:xlink="http://www.w3.org/1999/xlink" x="0px" y="0px"
	 viewBox="0 0 28 28.9" style="enable-background:new 0 0 28 28.9;" xml:space="preserve">
<style type="text/css">
	.st0{display:none;}
	.st1{display:inline;}
	.st2{fill:#282D3A;}
	.st3{display:inline;fill:#85898C;stroke:#85898C;stroke-width:2;stroke-linejoin:round;stroke-miterlimit:10;}
	.st4{display:inline;fill:#FFFFFF;}
	.st5{display:inline;fill:#85898C;}
	.st6{display:none;fill:#B2B2B2;}
	.st7{fill:none;stroke:#000000;stroke-width:1.5;stroke-linecap:round;stroke-linejoin:round;stroke-miterlimit:10;}
	.st8{display:none;fill:none;stroke:#FFFFFF;stroke-width:2;stroke-linecap:round;stroke-linejoin:round;stroke-miterlimit:10;}
	.st9{display:inline;fill:none;stroke:#282D3A;stroke-width:1.5;stroke-linejoin:round;stroke-miterlimit:10;}
	.st10{display:inline;fill:#282D3A;}
	.st11{display:inline;fill:none;stroke:#000000;stroke-width:1.5;stroke-miterlimit:10;}
	.st12{fill:#010002;}
	.st13{display:inline;fill:#010002;}
	.st14{fill:none;stroke:#FFFFFF;stroke-width:1.5;stroke-linecap:round;stroke-linejoin:round;stroke-miterlimit:10;}
	.st15{fill:none;stroke:#FFFFFF;stroke-width:1.5;stroke-miterlimit:10;}
	.st16{fill:#FFFFFF;stroke:#FFFFFF;stroke-width:1.5;stroke-miterlimit:10;}
	.st17{fill:#FFFFFF;}
	.st18{display:inline;fill:none;stroke:#FFFFFF;stroke-linecap:round;stroke-miterlimit:10;}
	.st19{display:none;fill:#FFFFFF;}
	
		.st20{display:inline;fill:none;stroke:#282D3A;stroke-width:1.5;stroke-linecap:round;stroke-linejoin:round;stroke-miterlimit:10;}
	.st21{clip-path:url(#SVGID_2_);}
	.st22{fill:none;stroke:#282D3A;stroke-width:1.5;stroke-linecap:round;stroke-linejoin:round;stroke-miterlimit:10;}
	.st23{fill:#F5F5F5;}
	.st24{fill:#282D3A;stroke:#282D3A;stroke-width:2;stroke-linejoin:round;stroke-miterlimit:10;}
	.st25{display:inline;fill:#282D3A;stroke:#282D3A;stroke-width:2;stroke-linejoin:round;stroke-miterlimit:10;}
	.st26{display:inline;fill:none;stroke:#282D3A;stroke-linecap:round;stroke-linejoin:round;stroke-miterlimit:10;}
	
		.st27{display:inline;fill:none;stroke:#000000;stroke-width:1.5;stroke-linecap:round;stroke-linejoin:round;stroke-miterlimit:10;}
	.st28{display:inline;fill:none;stroke:#282D3A;stroke-width:2;stroke-linecap:round;stroke-linejoin:round;stroke-miterlimit:10;}
	.st29{display:none;fill:#282D3A;}
</style>
<g id="_x35_s" class="st0">
	<g class="st1">
		<path class="st2" d="M18.8,1.6h-10c-1.1,0-2,0.9-2,2v20c0,1.1,0.9,2,2,2h10c1.1,0,2-0.9,2-2v-20C20.8,2.5,19.9,1.6,18.8,1.6z
			 M13.8,24.6c-0.5,0-1-0.4-1-1c0-0.5,0.5-1,1-1c0.6,0,1,0.5,1,1C14.8,24.2,14.4,24.6,13.8,24.6z M19.3,20.6c0,0.4-0.2,0.7-0.5,0.9
			c-0.1,0.1-0.3,0.1-0.5,0.1h-9c-0.2,0-0.3,0-0.5-0.1c-0.3-0.2-0.5-0.5-0.5-0.9v-15c0-0.4,0.2-0.7,0.5-0.9c0.2-0.1,0.3-0.1,0.5-0.1
			h9c0.2,0,0.4,0,0.5,0.1c0.3,0.2,0.5,0.5,0.5,0.9V20.6z"/>
	</g>
</g>
<g id="_x36_" class="st0">
	<g class="st1">
		<path class="st2" d="M19.5,0.9h-11c-1.1,0-2,0.9-2,2v22c0,1.1,0.9,2,2,2h11c1.1,0,2-0.9,2-2v-22C21.5,1.8,20.6,0.9,19.5,0.9z
			 M14,25.9c-0.6,0-1-0.5-1-1c0-0.6,0.4-1,1-1c0.5,0,1,0.4,1,1C15,25.4,14.6,25.9,14,25.9z M20,21.9c0,0.4-0.2,0.7-0.5,0.9
			c-0.2,0.1-0.3,0.1-0.5,0.1H9c-0.2,0-0.4,0-0.5-0.1C8.2,22.6,8,22.2,8,21.9v-17C8,4.5,8.2,4.2,8.5,4C8.6,3.9,8.8,3.9,9,3.9h10
			c0.2,0,0.3,0,0.5,0.1C19.8,4.2,20,4.5,20,4.9V21.9z"/>
	</g>
</g>
<g id="plus" class="st0">
	<g id="_x36__2_" class="st1">
		<g>
			<path class="st2" d="M25.6-1.1H12.4c-1.1,0-2,0.9-2,2v1h4c0.4,0,0.8,0.1,1.1,0.3H25c0.2,0,0.4,0.1,0.6,0.2
				C25.8,2.6,26,2.9,26,3.2v20.2c0,0.3-0.2,0.6-0.4,0.8c-0.2,0.1-0.4,0.2-0.6,0.2h-8.6v3.5c0,0.5-0.4,1-1,1h10.2c1.1,0,2-0.9,2-2
				v-26C27.6-0.2,26.7-1.1,25.6-1.1z M20.2,26.9c-0.1,0.6-0.6,1-1.2,1c-0.6,0-1.1-0.4-1.2-1c0-0.1,0-0.1,0-0.2
				c0-0.6,0.5-1.2,1.2-1.2c0.7,0,1.2,0.5,1.2,1.2C20.2,26.8,20.2,26.8,20.2,26.9z"/>
		</g>
	</g>
	<g id="_x36__1_" class="st1">
		<g>
			<path class="st2" d="M13.4,2.9h-11c-0.3,0-0.6,0.1-0.8,0.2c-0.7,0.3-1.2,1-1.2,1.8v22c0,1.1,0.9,2,2,2h11c0.7,0,1.4-0.4,1.7-1
				c0.2-0.3,0.3-0.6,0.3-1v-22C15.4,3.8,14.5,2.9,13.4,2.9z M7.9,27.9c-0.5,0-1-0.5-1-1s0.5-1,1-1c0.6,0,1,0.5,1,1
				S8.5,27.9,7.9,27.9z M13.9,23.9c0,0.2,0,0.3-0.1,0.5c-0.1,0.2-0.2,0.3-0.4,0.4c-0.1,0.1-0.3,0.1-0.5,0.1h-10
				c-0.2,0-0.3,0-0.5-0.1c-0.3-0.2-0.5-0.5-0.5-0.9v-17c0-0.4,0.2-0.7,0.5-0.9c0.2-0.1,0.3-0.1,0.5-0.1h10c0.2,0,0.4,0,0.5,0.1
				c0.3,0.2,0.5,0.5,0.5,0.9V23.9z"/>
		</g>
	</g>
</g>
<g id="x" class="st0">
	<g class="st1">
		<path class="st2" d="M20,0.9H8c-1.1,0-2,0.9-2,2v23c0,1.1,0.9,2,2,2h12c1.1,0,2-0.9,2-2v-23C22,1.8,21.1,0.9,20,0.9z M21,25.9
			c0,0.6-0.5,1-1,1H8c-0.6,0-1-0.4-1-1v-23c0-0.5,0.4-1,1-1h1.4v0.3c0,0.3,0.1,0.5,0.3,0.7c0.2,0.2,0.4,0.3,0.7,0.3h7.2
			c0.3,0,0.5-0.1,0.7-0.3c0.2-0.2,0.3-0.4,0.3-0.7V1.9H20c0.5,0,1,0.5,1,1V25.9z"/>
	</g>
</g>
<g id="all">
	<g id="_x35_s_1_">
		<g>
			<path class="st2" d="M10,26.9v-3H3.5c-0.2,0-0.4,0-0.5-0.1c-0.3-0.2-0.5-0.5-0.5-0.9v-15c0-0.4,0.2-0.7,0.5-0.9
				C3.1,7,3.3,6.9,3.5,6.9H10v-3H3c-1.1,0-2,0.9-2,2v20c0,1.1,0.9,2,2,2h8C10.4,27.9,10,27.5,10,26.9z M8,26.9c-0.6,0-1-0.5-1-1
				c0-0.6,0.4-1,1-1c0.5,0,1,0.4,1,1C9,26.5,8.6,26.9,8,26.9z"/>
		</g>
	</g>
	<g id="x_2_">
		<g>
			<path class="st2" d="M25,0.9H13c-1.1,0-2,0.9-2,2v23c0,0.4,0.1,0.7,0.3,1c0.3,0.6,1,1,1.7,1h12c1.1,0,2-0.9,2-2v-23
				C27,1.8,26.1,0.9,25,0.9z M26,25.9c0,0.5-0.5,1-1,1H13c-0.6,0-1-0.5-1-1v-23c0-0.6,0.4-1,1-1h1.4v0.3c0,0.3,0.1,0.5,0.3,0.7
				c0.2,0.2,0.4,0.3,0.7,0.3h7.2c0.3,0,0.5-0.1,0.7-0.3c0.2-0.2,0.3-0.4,0.3-0.7V1.9H25c0.5,0,1,0.4,1,1V25.9z"/>
		</g>
	</g>
</g>
<g id="x_1_" class="st0">
	<path class="st3" d="M83.8,24.6h-12c-0.6,0-1-0.4-1-1v-23c0-0.6,0.4-1,1-1h12c0.6,0,1,0.4,1,1v23C84.8,24.2,84.4,24.6,83.8,24.6z"
		/>
	<path class="st4" d="M83.8,24.6h-12c-0.6,0-1-0.4-1-1v-23c0-0.6,0.4-1,1-1h12c0.6,0,1,0.4,1,1v23C84.8,24.2,84.4,24.6,83.8,24.6z"
		/>
	<path class="st5" d="M81.4,0.9h-7.2c-0.6,0-1-0.4-1-1v-1.3h9.2v1.3C82.4,0.5,82,0.9,81.4,0.9z"/>
</g>
<rect x="-11.7" y="145.3" class="st6" width="50" height="50"/>
<g class="st0">
	<g class="st1">
		<rect x="-9" y="182.9" class="st7" width="16.8" height="8.1"/>
		<rect x="-9" y="174.8" class="st7" width="16.8" height="8.1"/>
		<rect x="-9" y="166.8" class="st7" width="16.8" height="8.1"/>
		<path class="st7" d="M14.8,186.1l-7,4.9L14.8,186.1z"/>
		<path class="st7" d="M14.8,178l-7,4.9L14.8,178z"/>
		<path class="st7" d="M14.8,170l-7,4.9L14.8,170z"/>
		<path class="st7" d="M13.8,162.6l-6,4.2L13.8,162.6z"/>
		<path class="st7" d="M4.2,157.6L-9,166.8L4.2,157.6z"/>
		<line class="st7" x1="4.2" y1="157.6" x2="14.8" y2="157.6"/>
	</g>
	<circle class="st1" cx="-0.6" cy="170.8" r="1.5"/>
	<circle class="st1" cx="-0.6" cy="178.9" r="1.5"/>
	<circle class="st1" cx="-0.6" cy="186.9" r="1.5"/>
</g>
<rect x="68.3" y="145.3" class="st6" width="50" height="50"/>
<rect x="148.3" y="145.3" class="st6" width="50" height="50"/>
<rect x="148.3" y="85.3" class="st6" width="50" height="50"/>
<rect x="20.3" y="-40.7" class="st6" width="50" height="50"/>
<circle class="st0" cx="39.3" cy="125.5" r="10"/>
<polyline class="st8" points="35.5,65.5 38.6,68.8 42.6,61.1 "/>
<g id="x_3_" class="st0">
	<path class="st9" d="M103.1,129.9H83.5c-0.6,0-1-0.4-1-1V92.2c0-0.6,0.4-1,1-1h19.6c0.6,0,1,0.4,1,1v36.6
		C104.1,129.4,103.7,129.9,103.1,129.9z"/>
	<path class="st10" d="M99.4,94.2H87.2c-0.6,0-1-0.4-1-1v-2.5h14.2v2.5C100.4,93.7,100,94.2,99.4,94.2z"/>
</g>
<g id="_x32_" class="st0">
	<path class="st11" d="M110.5,156.6c0.4,27.1-17.2,35.7-17.2,35.7s-17.5-8.7-17.1-35.7c0,0,7.9-0.8,17.1-6.3
		C102.6,155.8,110.5,156.6,110.5,156.6z"/>
	<path class="st1" d="M103.8,161.3c0.2,16.5-10.5,22.8-10.5,22.8s-10.7-6.3-10.4-22.8c0,0,4.8-0.5,10.4-3.9
		C99,160.8,103.8,161.3,103.8,161.3z"/>
</g>
<g id="_x33_" class="st0">
	<g class="st1">
		<path class="st12" d="M172.9,127.9c-7.6,0-14.3-4.8-16.8-12c-0.1-0.2-0.1-0.4,0-0.6c0.1-0.2,0.3-0.3,0.5-0.4c0.1,0,0.2,0,0.3,0
			c0.3,0,0.7,0.2,0.8,0.6c2.2,6.5,8.4,10.9,15.2,10.9c8.9,0,16.1-7.2,16.1-16.1c0-0.4,0.4-0.8,0.8-0.8c0.4,0,0.8,0.4,0.8,0.8
			C190.6,120,182.7,127.9,172.9,127.9z"/>
		<path class="st12" d="M156,111c-0.4,0-0.8-0.4-0.8-0.8c0-9.8,8-17.7,17.7-17.7c7.6,0,14.3,4.8,16.8,12c0.1,0.2,0.1,0.4,0,0.6
			c-0.1,0.2-0.3,0.3-0.5,0.4c-0.1,0-0.2,0-0.3,0c-0.3,0-0.7-0.2-0.8-0.5c-2.2-6.5-8.3-10.9-15.2-10.9c-8.9,0-16.1,7.2-16.1,16.1
			C156.8,110.6,156.4,111,156,111z"/>
		<path class="st12" d="M189.2,105.7c-0.1,0-0.2,0-0.2,0l-7.1-2.2c-0.4-0.1-0.7-0.6-0.5-1c0.1-0.3,0.4-0.6,0.8-0.6
			c0.1,0,0.2,0,0.2,0l6.4,2l2.4-6c0.1-0.3,0.4-0.5,0.8-0.5c0.1,0,0.2,0,0.3,0.1c0.2,0.1,0.4,0.2,0.4,0.4c0.1,0.2,0.1,0.4,0,0.6
			l-2.7,6.7C189.8,105.5,189.5,105.7,189.2,105.7z"/>
		<path class="st12" d="M154,123c-0.1,0-0.2,0-0.3-0.1c-0.4-0.2-0.6-0.6-0.5-1.1l2.7-6.7c0.1-0.3,0.4-0.5,0.7-0.5c0.1,0,0.2,0,0.2,0
			l7.1,2.2c0.4,0.1,0.7,0.6,0.5,1c-0.1,0.3-0.4,0.6-0.8,0.6c-0.1,0-0.2,0-0.2,0l-6.4-2l-2.4,6C154.7,122.8,154.4,123,154,123z"/>
	</g>
	<circle class="st13" cx="173.3" cy="110.3" r="6.1"/>
</g>
<g id="_x34_" class="st0">
	<g class="st1">
		<path class="st14" d="M257.1,173v1.9l1.9,1.3l5.1,1.6c2,0.6,2.6,2.5,2.6,2.5l1.9,9.3c0.4,2-2.1,2.3-2.1,2.3h-25.2
			c0,0-2.5-0.2-2.1-2.3l1.9-9.3c0,0,0.6-1.9,2.6-2.5l5.1-1.6l1.9-1.3V173"/>
		<g id="head">
			<path class="st15" d="M246.1,161.7v4.3c0,4.2,3.4,7.7,7.7,7.7h0c4.2,0,7.7-3.4,7.7-7.7v-4.3"/>
			<path class="st15" d="M244.4,161.4c-0.8,0.3-1.3,1-1.3,1.9c0,1.1,0.9,2,2,2c0.4,0,0.7-0.1,1-0.3"/>
			<path class="st15" d="M261.4,165.1c0.3,0.2,0.6,0.3,1,0.3c1.1,0,2-0.9,2-2c0-0.9-0.5-1.6-1.3-1.9"/>
			<path class="st16" d="M262.9,161.9c-0.8,0.6-2-0.6-2-0.6c-0.4-0.4-0.6-0.9-0.8-1.4c-0.1-0.2-0.2-0.5-0.3-0.7
				c-0.1-0.3-0.1-0.5-0.2-0.8c0-0.3-0.2-0.5-0.4-0.6c-0.7-0.5-1.3,0-1.9,0.2c-0.4,0.1-0.8,0.2-1.2,0.3c-0.8,0.1-1.6,0.2-2.4,0.2
				c-0.8,0-1.6-0.1-2.4-0.2c-0.4-0.1-0.8-0.2-1.2-0.3c-0.7-0.2-1.3-0.7-1.9-0.2c-0.2,0.2-0.4,0.4-0.4,0.6c-0.1,0.3-0.1,0.5-0.2,0.8
				c-0.1,0.2-0.2,0.5-0.3,0.7c-0.2,0.5-0.4,1-0.8,1.4c0,0-1.2,1.1-2,0.6c0,0-0.6-0.8-0.4-2.8c0,0,0.9-8.5,9.5-8.5
				c8.7,0,9.5,8.5,9.5,8.5C263.5,161.2,262.9,161.9,262.9,161.9z"/>
		</g>
		<line class="st14" x1="245" y1="191.7" x2="245" y2="185.3"/>
		<line class="st14" x1="262.6" y1="191.7" x2="262.6" y2="185.3"/>
		<polyline class="st14" points="250.5,174.8 253.8,179.3 250.2,180.5 248.6,176.1 		"/>
		<polyline class="st14" points="257.1,174.8 253.8,179.3 257.3,180.5 258.9,176.1 		"/>
		<line class="st14" x1="253.8" y1="179.3" x2="253.8" y2="185.7"/>
	</g>
	<g class="st1">
		<circle class="st17" cx="251.3" cy="163.9" r="1"/>
		<circle class="st17" cx="256.3" cy="163.9" r="1"/>
	</g>
	<path class="st18" d="M251.7,168.2c0,0.7,0.9,1.3,2.1,1.3s2.1-0.6,2.1-1.3"/>
</g>
<path class="st19" d="M40.7,122.4l0.5-1.4c0.3-0.9,0.1-2.4-0.8-2.9c-0.3-0.2-0.7-0.3-1.1-0.2c-0.2,0.1-0.4,0.2-0.5,0.4
	c-0.1,0.2-0.1,0.4-0.2,0.7c-0.1,0.6-0.4,1.1-0.8,1.5c-0.7,0.7-3,2.8-3,2.8v7.6h7.9c1.1,0,1.8-1.2,1.2-2.1c0.6-0.4,0.8-1.2,0.5-1.9
	c0.6-0.4,0.8-1.2,0.5-1.9c1.1-0.7,0.7-2.4-0.5-2.6C44.2,122.4,40.7,122.4,40.7,122.4z"/>
<g class="st0">
	<path class="st20" d="M151.1,99.6v8.1c0,0.3,0.2,0.5,0.4,0.8c0.4,0.4,1,0.7,0.9,1.5c0,0,0,0,0,0.1c-0.1,0.9,0.9,1.9,1.7,2.5
		c0.2,0.2,0.4,0.4,0.5,0.5c0.2,0.2,0.5,0.7,0.8,1.1c0.4,0.6,0.9,1.1,1.2,1.1c0.4-0.1,1.3-0.4,1.8,0.2c0.4,0.5,2.4,1.1,3.4,1.2h0.6
		c0.6-0.1,2-0.3,2.9,0c0.3,0.1,0.6,0.3,0.6,0.6c0.1,0.3,0.2,0.7,0.4,1c0.4,0.7,1,1.2,1,1.2s0.4-0.7,0.6-1.1c0,0,0-0.1,0.1-0.1
		c0.1-0.1,0.3-0.1,0.6,0c0.4,0.2,0.8,0.8,1.1,1.9c0.1,0.2,0.1,0.4,0.2,0.6c0.3,0.7,0.8,1.2,1.3,1.6c0.6,0.5,1.1,0.7,1.1,0.7
		s0-0.3,0-0.7c0-0.5,0-1.1,0-1.6c0-0.2,0-0.3,0-0.5c0.1-0.9,2.5-1.7,3-1.8c0.4-0.1,3.4,1.4,3.4,0.9c0-0.4,0.5-0.8,1-1.2
		c0.1-0.1,0.2-0.2,0.3-0.2c0.2-0.2,0.5,0,0.8,0.2c0.5,0.5,1,1.2,1,0.9c0.1-0.5,0.5,0.8,0.7,1.4c0.1,0.3,0.2,0.8,0.3,1.3
		c0,0.3,0.1,0.6,0,0.9c0,0.2,0.1,0.4,0.2,0.7c0.4,0.7,2.1,0.5,2.3,0.4c0.1-0.1,0.2-0.7,0.3-1.4c0-0.5,0-1.1,0-1.6
		c-0.1-0.3-0.1-0.6-0.3-0.7c-0.3-0.3-0.5-1-0.6-1.8c-0.1-0.5-0.1-1.1,0-1.6c0-0.4,0.1-0.7,0.3-0.8c0.2-0.2,1.1-0.9,1.9-1.7
		c0.6-0.5,1.1-1.1,1.6-1.6c0.6-0.7,1-1.3,0.7-1.4c-0.5-0.2-0.6-0.6-0.5-1.1c0-0.4,0.1-0.9,0.2-1.5c0,0,0,0,0-0.1
		c0.2-1.4,1,0.3,1.4-1.6c0.1-0.4,0.3-0.7,0.5-0.9c1-0.9,2.9-0.9,2.6-1.2c-0.1-0.1-0.2-0.2-0.2-0.4c-0.1-0.5,0-1.2,0.5-1.6
		c0.2-0.2,0.7-0.5,1.2-0.9c0.7-0.6,1.5-1.3,1.3-1.5l0,0c0,0,0,0,0,0c-0.4-0.4-2.9-0.1-2.9-0.1s0,0.1-0.1,0.1
		c-0.1,0.2-0.3,0.5-0.7,0.6c-0.6,0.2-9.1,0.3-9.3-0.3c0-0.1-0.1-0.2-0.2-0.3c-0.4-0.3-1.2-0.2-1.2-0.2s-0.1,0.1-0.2,0.2
		c-0.2,0.3-0.7,0.8-1,0.9c-0.4,0.1-0.5-0.4-0.4-0.9c0-0.1,0-0.3,0.1-0.4c0.1-0.3-0.9-1.5-1.7-2.1c-0.4-0.3-0.7-0.4-0.9-0.3
		c-0.7,0.2-4.2-1.2-4.2-1.2H152c0,0,0,0.5-0.1,1c0,0,0,0.1,0,0.1c0,0.2-0.1,0.4-0.1,0.5C151.7,97.8,151.1,98.7,151.1,99.6z
		 M196.3,100.4"/>
	<g class="st1">
		<defs>
			<path id="SVGID_1_" d="M151.1,99.6v8.1c0,0.3,0.2,0.5,0.4,0.8c0.4,0.4,1,0.7,0.9,1.5c0,0,0,0,0,0.1c-0.1,0.9,0.9,1.9,1.7,2.5
				c0.2,0.2,0.4,0.4,0.5,0.5c0.2,0.2,0.5,0.7,0.8,1.1c0.4,0.6,0.9,1.1,1.2,1.1c0.4-0.1,1.3-0.4,1.8,0.2c0.4,0.5,2.4,1.1,3.4,1.2h0.6
				c0.6-0.1,2-0.3,2.9,0c0.3,0.1,0.6,0.3,0.6,0.6c0.1,0.3,0.2,0.7,0.4,1c0.4,0.7,1,1.2,1,1.2s0.4-0.7,0.6-1.1c0,0,0-0.1,0.1-0.1
				c0.1-0.1,0.3-0.1,0.6,0c0.4,0.2,0.8,0.8,1.1,1.9c0.1,0.2,0.1,0.4,0.2,0.6c0.3,0.7,0.8,1.2,1.3,1.6c0.6,0.5,1.1,0.7,1.1,0.7
				s0-0.3,0-0.7c0-0.5,0-1.1,0-1.6c0-0.2,0-0.3,0-0.5c0.1-0.9,2.5-1.7,3-1.8c0.4-0.1,3.4,1.4,3.4,0.9c0-0.4,0.5-0.8,1-1.2
				c0.1-0.1,0.2-0.2,0.3-0.2c0.2-0.2,0.5,0,0.8,0.2c0.5,0.5,1,1.2,1,0.9c0.1-0.5,0.5,0.8,0.7,1.4c0.1,0.3,0.2,0.8,0.3,1.3
				c0,0.3,0.1,0.6,0,0.9c0,0.2,0.1,0.4,0.2,0.7c0.4,0.7,2.1,0.5,2.3,0.4c0.1-0.1,0.2-0.7,0.3-1.4c0-0.5,0-1.1,0-1.6
				c-0.1-0.3-0.1-0.6-0.3-0.7c-0.3-0.3-0.5-1-0.6-1.8c-0.1-0.5-0.1-1.1,0-1.6c0-0.4,0.1-0.7,0.3-0.8c0.2-0.2,1.1-0.9,1.9-1.7
				c0.6-0.5,1.1-1.1,1.6-1.6c0.6-0.7,1-1.3,0.7-1.4c-0.5-0.2-0.6-0.6-0.5-1.1c0-0.4,0.1-0.9,0.2-1.5c0,0,0,0,0-0.1
				c0.2-1.4,1,0.3,1.4-1.6c0.1-0.4,0.3-0.7,0.5-0.9c1-0.9,2.9-0.9,2.6-1.2c-0.1-0.1-0.2-0.2-0.2-0.4c-0.1-0.5,0-1.2,0.5-1.6
				c0.2-0.2,0.7-0.5,1.2-0.9c0.7-0.6,1.5-1.3,1.3-1.5l0,0c0,0,0,0,0,0c-0.4-0.4-2.9-0.1-2.9-0.1s0,0.1-0.1,0.1
				c-0.1,0.2-0.3,0.5-0.7,0.6c-0.6,0.2-9.1,0.3-9.3-0.3c0-0.1-0.1-0.2-0.2-0.3c-0.4-0.3-1.2-0.2-1.2-0.2s-0.1,0.1-0.2,0.2
				c-0.2,0.3-0.7,0.8-1,0.9c-0.4,0.1-0.5-0.4-0.4-0.9c0-0.1,0-0.3,0.1-0.4c0.1-0.3-0.9-1.5-1.7-2.1c-0.4-0.3-0.7-0.4-0.9-0.3
				c-0.7,0.2-4.2-1.2-4.2-1.2H152c0,0,0,0.5-0.1,1c0,0,0,0.1,0,0.1c0,0.2-0.1,0.4-0.1,0.5C151.7,97.8,151.1,98.7,151.1,99.6z
				 M196.3,100.4"/>
		</defs>
		<clipPath id="SVGID_2_">
			<use xlink:href="#SVGID_1_"  style="overflow:visible;"/>
		</clipPath>
		<g class="st21">
			<line class="st22" x1="149.2" y1="120" x2="199.4" y2="120"/>
			<line class="st22" x1="149.2" y1="115" x2="199.4" y2="115"/>
			<line class="st22" x1="149.2" y1="110" x2="199.4" y2="110"/>
			<line class="st22" x1="149.2" y1="105" x2="199.4" y2="105"/>
			<line class="st22" x1="149.2" y1="100" x2="199.4" y2="100"/>
		</g>
	</g>
	<path class="st10" d="M151.1,108.1h17.7c0.6,0,1.1-0.5,1.1-1.1V96.3H152l-1.1,3.3L151.1,108.1z"/>
	<g class="st1">
		<path class="st23" d="M167.6,105.3l-1,0l-0.1-0.2l-0.2-0.7c0-0.1-0.2-0.1-0.2,0l-0.2,0.7l-0.1,0.2l-1,0c-0.1,0-0.2,0.2-0.1,0.2
			l0.8,0.6l-0.3,0.9c0,0.1,0.1,0.2,0.2,0.1l0.8-0.6l0.8,0.6c0.1,0.1,0.2,0,0.2-0.1l-0.3-0.9l0.8-0.6
			C167.8,105.5,167.7,105.3,167.6,105.3z"/>
		<path class="st23" d="M167.6,101.3l-1,0l-0.1-0.2l-0.2-0.7c0-0.1-0.2-0.1-0.2,0l-0.2,0.7l-0.1,0.2l-1,0c-0.1,0-0.2,0.2-0.1,0.2
			l0.8,0.6l-0.3,0.9c0,0.1,0.1,0.2,0.2,0.1l0.8-0.6l0.8,0.6c0.1,0.1,0.2,0,0.2-0.1l-0.3-0.9l0.8-0.6
			C167.8,101.5,167.7,101.3,167.6,101.3z"/>
		<path class="st23" d="M167.6,97.3l-1,0l-0.1-0.2l-0.2-0.7c0-0.1-0.2-0.1-0.2,0l-0.2,0.7l-0.1,0.2l-1,0c-0.1,0-0.2,0.2-0.1,0.2
			l0.8,0.6l-0.3,0.9c0,0.1,0.1,0.2,0.2,0.1l0.8-0.6l0.8,0.6c0.1,0.1,0.2,0,0.2-0.1l-0.3-0.9l0.8-0.6
			C167.8,97.5,167.7,97.3,167.6,97.3z"/>
	</g>
	<g class="st1">
		<path class="st23" d="M163.6,105.3l-1,0l-0.1-0.2l-0.2-0.7c0-0.1-0.2-0.1-0.2,0l-0.2,0.7l-0.1,0.2l-1,0c-0.1,0-0.2,0.2-0.1,0.2
			l0.8,0.6l-0.3,0.9c0,0.1,0.1,0.2,0.2,0.1l0.8-0.6l0.8,0.6c0.1,0.1,0.2,0,0.2-0.1l-0.3-0.9l0.8-0.6
			C163.8,105.5,163.7,105.3,163.6,105.3z"/>
		<path class="st23" d="M163.6,101.3l-1,0l-0.1-0.2l-0.2-0.7c0-0.1-0.2-0.1-0.2,0l-0.2,0.7l-0.1,0.2l-1,0c-0.1,0-0.2,0.2-0.1,0.2
			l0.8,0.6l-0.3,0.9c0,0.1,0.1,0.2,0.2,0.1l0.8-0.6l0.8,0.6c0.1,0.1,0.2,0,0.2-0.1l-0.3-0.9l0.8-0.6
			C163.8,101.5,163.7,101.3,163.6,101.3z"/>
		<path class="st23" d="M163.6,97.3l-1,0l-0.1-0.2l-0.2-0.7c0-0.1-0.2-0.1-0.2,0l-0.2,0.7l-0.1,0.2l-1,0c-0.1,0-0.2,0.2-0.1,0.2
			l0.8,0.6l-0.3,0.9c0,0.1,0.1,0.2,0.2,0.1l0.8-0.6l0.8,0.6c0.1,0.1,0.2,0,0.2-0.1l-0.3-0.9l0.8-0.6
			C163.8,97.5,163.7,97.3,163.6,97.3z"/>
	</g>
	<g class="st1">
		<path class="st23" d="M159.6,105.3l-1,0l-0.1-0.2l-0.2-0.7c0-0.1-0.2-0.1-0.2,0l-0.2,0.7l-0.1,0.2l-1,0c-0.1,0-0.2,0.2-0.1,0.2
			l0.8,0.6l-0.3,0.9c0,0.1,0.1,0.2,0.2,0.1l0.8-0.6l0.8,0.6c0.1,0.1,0.2,0,0.2-0.1l-0.3-0.9l0.8-0.6
			C159.8,105.5,159.7,105.3,159.6,105.3z"/>
		<path class="st23" d="M159.6,101.3l-1,0l-0.1-0.2l-0.2-0.7c0-0.1-0.2-0.1-0.2,0l-0.2,0.7l-0.1,0.2l-1,0c-0.1,0-0.2,0.2-0.1,0.2
			l0.8,0.6l-0.3,0.9c0,0.1,0.1,0.2,0.2,0.1l0.8-0.6l0.8,0.6c0.1,0.1,0.2,0,0.2-0.1l-0.3-0.9l0.8-0.6
			C159.8,101.5,159.7,101.3,159.6,101.3z"/>
		<path class="st23" d="M159.6,97.3l-1,0l-0.1-0.2l-0.2-0.7c0-0.1-0.2-0.1-0.2,0l-0.2,0.7l-0.1,0.2l-1,0c-0.1,0-0.2,0.2-0.1,0.2
			l0.8,0.6l-0.3,0.9c0,0.1,0.1,0.2,0.2,0.1l0.8-0.6l0.8,0.6c0.1,0.1,0.2,0,0.2-0.1l-0.3-0.9l0.8-0.6
			C159.8,97.5,159.7,97.3,159.6,97.3z"/>
	</g>
	<g class="st1">
		<path class="st23" d="M155.6,105.3l-1,0l-0.1-0.2l-0.2-0.7c0-0.1-0.2-0.1-0.2,0l-0.2,0.7l-0.1,0.2l-1,0c-0.1,0-0.2,0.2-0.1,0.2
			l0.8,0.6l-0.3,0.9c0,0.1,0.1,0.2,0.2,0.1l0.8-0.6l0.8,0.6c0.1,0.1,0.2,0,0.2-0.1l-0.3-0.9l0.8-0.6
			C155.8,105.5,155.7,105.3,155.6,105.3z"/>
		<path class="st23" d="M155.6,101.3l-1,0l-0.1-0.2l-0.2-0.7c0-0.1-0.2-0.1-0.2,0l-0.2,0.7l-0.1,0.2l-1,0c-0.1,0-0.2,0.2-0.1,0.2
			l0.8,0.6l-0.3,0.9c0,0.1,0.1,0.2,0.2,0.1l0.8-0.6l0.8,0.6c0.1,0.1,0.2,0,0.2-0.1l-0.3-0.9l0.8-0.6
			C155.8,101.5,155.7,101.3,155.6,101.3z"/>
		<path class="st23" d="M155.6,97.3l-1,0l-0.1-0.2l-0.2-0.7c0-0.1-0.2-0.1-0.2,0l-0.2,0.7l-0.1,0.2l-1,0c-0.1,0-0.2,0.2-0.1,0.2
			l0.8,0.6l-0.3,0.9c0,0.1,0.1,0.2,0.2,0.1l0.8-0.6l0.8,0.6c0.1,0.1,0.2,0,0.2-0.1l-0.3-0.9l0.8-0.6
			C155.8,97.5,155.7,97.3,155.6,97.3z"/>
	</g>
</g>
<g class="st0">
	<g class="st1">
		<path class="st2" d="M205.7,156.3c0,0-0.1-0.1-0.1-0.1c-0.2-0.2-0.8-0.8-4.6-0.4c-0.3,0-0.6,0.3-0.7,0.6c-0.1,0.1-0.2,0.3-0.5,0.4
			c-1.1,0.2-10.5,0.3-12.1-0.2c-0.1-0.2-0.2-0.3-0.4-0.5c-0.8-0.6-2-0.5-2.3-0.5c-0.2,0-0.4,0.1-0.5,0.3c0,0-0.1,0.1-0.2,0.3
			c-0.3,0.4-0.5,0.6-0.7,0.8c0-0.1,0-0.2,0-0.3c0-0.1,0-0.3,0.1-0.4c0.4-1.3-2.2-3.4-2.7-3.8c-0.8-0.5-1.4-0.7-1.9-0.6
			c-0.6,0.1-3.2-0.8-5.3-1.7c-0.1,0-0.2-0.1-0.3-0.1h-30c-0.4,0-0.7,0.3-0.8,0.7c0,0-0.1,0.7-0.2,1.3l0,0.1c0,0.3-0.1,0.4-0.1,0.4
			c-0.2,0.3-1,1.5-1,2.8v11.2c0,0.8,0.4,1.3,0.8,1.6c0.1,0.1,0.2,0.2,0.3,0.3c0.6,0.5,0.8,0.7,0.7,1.2c0,0,0,0.1,0,0.1
			c-0.1,1.6,1.5,3.2,2.6,4.1c0.3,0.2,0.5,0.4,0.6,0.6c0.2,0.2,0.5,0.6,0.7,0.9l0.4,0.5c1,1.3,1.6,1.9,2.3,1.7c0.1,0,0.2-0.1,0.3-0.1
			c0.8-0.2,1.1-0.2,1.4,0.1c0.9,1.1,4.2,1.8,5.3,1.9h0.8c0,0,0.1,0,0.2,0c0.7-0.1,2.6-0.4,3.6,0c0.2,0.1,0.4,0.2,0.4,0.3
			c0.1,0.5,0.3,1,0.7,1.5c0.6,1.1,1.5,1.8,1.5,1.9c0.2,0.2,0.4,0.2,0.6,0.2c0.2,0,0.4-0.2,0.5-0.4c0,0,0.5-0.8,0.7-1.4
			c0.4,0.2,0.8,0.9,1.2,2.1c0.1,0.3,0.2,0.7,0.4,1c0.4,0.9,1.1,1.7,2,2.4c0.9,0.7,1.7,1,1.7,1c0.2,0.1,0.5,0.1,0.7-0.1
			s0.3-0.4,0.3-0.6c0,0,0-0.4,0-0.9c0-0.6,0-1.4,0.1-2.1c0-0.2,0-0.4,0-0.6c0.1-0.6,2.5-1.6,3.4-1.8c0.2,0,1.1,0.4,1.7,0.6
			c2,0.8,2.8,1,3.3,0.6c0.2-0.2,0.4-0.4,0.4-0.7c0-0.2,0.8-0.8,1.2-1l0.3-0.2c0.1,0,0.2,0.1,0.3,0.2c0.2,0.2,0.5,0.5,0.7,0.7
			c0.4,0.4,0.7,0.8,1.1,0.8c0.1,0.4,0.3,0.8,0.4,1.3c0.2,0.6,0.3,1.2,0.4,1.7c0.1,0.5,0.1,0.8,0,1c0,0.4,0.1,0.8,0.4,1.4
			c0.3,0.6,1,1,2,1.1c0,0,0.3,0,0.7,0c0.6,0,1.4-0.1,1.7-0.4c0.3-0.3,0.5-1.1,0.5-2.4c0-0.5,0.1-1.5-0.1-2.3
			c-0.1-0.6-0.3-1.1-0.6-1.4c-0.1-0.1-0.4-0.8-0.6-2.1c-0.1-0.7-0.1-1.4,0-2c0.1-0.5,0.1-0.6,0.1-0.6c0.4-0.3,1.5-1.3,2.7-2.4
			c0.9-0.8,1.7-1.6,2.2-2.2c1.1-1.2,1.5-1.9,1.3-2.5c-0.1-0.3-0.3-0.5-0.6-0.7c-0.2-0.1-0.3-0.1-0.2-0.8c0-0.2,0.1-0.5,0.1-0.8
			c0.1-0.4,0.1-0.8,0.2-1.3c0-0.1,0-0.1,0-0.2c1,0,1.6-0.5,1.9-1.9c0.1-0.3,0.2-0.6,0.5-0.9c0.7-0.6,1.8-0.9,2.5-1.1
			c0.7-0.2,1.2-0.3,1.3-0.9c0.1-0.3-0.1-0.6-0.3-0.8c0,0,0,0-0.1-0.1c-0.1-0.4,0-1.1,0.4-1.4c0.1-0.1,0.3-0.3,0.5-0.4
			c0.3-0.2,0.7-0.5,1.1-0.8C205.2,158.2,206.3,157.2,205.7,156.3z M202.8,158.2c-0.4,0.3-0.7,0.6-1,0.8c-0.2,0.2-0.4,0.3-0.6,0.5
			c-0.9,0.7-1.1,2.1-0.9,3c-0.9,0.2-2.1,0.6-3,1.4c-0.5,0.5-0.8,1.1-1,1.7c-0.1,0.6-0.2,0.7-0.2,0.7h-0.2c-0.6,0-1.4,0.1-1.6,1.6
			c0,0.4-0.1,0.8-0.2,1.2c-0.1,0.3-0.1,0.6-0.1,0.9c0,0.5-0.1,1.4,0.7,2c-0.1,0.2-0.4,0.5-0.8,1c-0.5,0.6-1.2,1.3-2.1,2.1
			c-1.2,1.1-2.3,2-2.7,2.3c-0.4,0.3-0.6,0.8-0.7,1.6c-0.1,0.6-0.1,1.5,0,2.3c0.1,0.8,0.4,2.3,1,2.9c0,0,0.1,0.1,0.2,0.6
			c0.1,0.5,0.1,1.2,0.1,2c0,0.7-0.1,1.2-0.2,1.4c-0.6,0.1-1.7,0-1.9-0.3c-0.2-0.4-0.2-0.5-0.2-0.5c0-0.4,0-0.8,0-1.4
			c-0.1-0.5-0.2-1.2-0.4-1.8c-0.7-2.7-1.3-2.6-1.6-2.6c0,0-0.1,0-0.1,0c0,0,0,0-0.1-0.1c-0.2-0.3-0.5-0.6-0.8-0.9
			c-1-0.9-1.7-0.6-2.1-0.4l-0.4,0.3c-0.6,0.4-1.3,0.9-1.6,1.5c-0.5-0.1-1.3-0.4-1.8-0.6c-1.5-0.6-2-0.7-2.4-0.7c0,0-4.6,1.1-4.7,3.2
			c0,0.2,0,0.4,0,0.6c0,0.6,0,1.3,0,1.9c-0.1-0.1-0.3-0.2-0.4-0.3c-0.7-0.6-1.3-1.2-1.6-1.9c-0.1-0.2-0.2-0.5-0.3-0.7
			c-0.4-1.5-1.1-2.6-1.9-3.1c-0.6-0.4-1.3-0.3-1.8,0.1c-0.1,0.1-0.2,0.2-0.2,0.3c-0.1,0.2-0.2,0.4-0.3,0.6c-0.2-0.2-0.4-0.5-0.6-0.8
			c-0.3-0.4-0.4-0.8-0.5-1.1c-0.1-0.4-0.4-1-1.3-1.3c-1.3-0.5-3.4-0.2-4.3,0h-0.6c-1.5-0.2-3.9-0.9-4.2-1.4
			c-0.9-1.1-2.2-0.8-2.9-0.7c0,0-0.1,0-0.1,0c-0.1-0.1-0.4-0.4-1-1.2l-0.4-0.5c-0.3-0.4-0.6-0.8-0.8-1c-0.2-0.2-0.4-0.4-0.8-0.7
			c-0.7-0.7-2.1-1.9-2-2.9c0.2-1.3-0.7-2-1.3-2.5c-0.1-0.1-0.2-0.1-0.3-0.2l0,0c-0.3-0.3-0.3-0.4-0.3-0.5v-11.2c0-1,0.7-2,0.7-2
			c0,0,0-0.1,0-0.1c0.1-0.2,0.2-0.4,0.2-0.8l0-0.2c0-0.2,0.1-0.5,0.1-0.7h2.1l0.2-0.5c0-0.2,0.3-0.2,0.3,0l0.2,0.5h4.9l0.2-0.5
			c0.1-0.2,0.3-0.2,0.3,0l0.2,0.5h4.9l0.2-0.5c0.1-0.2,0.3-0.2,0.3,0l0.2,0.5h4.8l0.2-0.5c0.1-0.2,0.3-0.2,0.3,0l0.2,0.5h9.8
			c2.3,0.9,5,1.9,6.1,1.7c0.1,0,0.3,0.1,0.6,0.3c1,0.7,1.9,1.8,2.1,2.2c0,0.2-0.1,0.4-0.1,0.5c-0.1,0.5,0,1.4,0.5,1.9
			c0.3,0.2,0.7,0.3,1.1,0.2c0.2-0.1,0.8-0.3,1.8-1.5c0,0,0,0,0,0c0.3,0,0.7,0,0.8,0.2c0.6,1.9,13.7,1,13.8,0.9
			c0.7-0.2,1.1-0.7,1.3-1c0.9-0.1,1.9-0.1,2.5,0C203.8,157.4,203.4,157.7,202.8,158.2z"/>
	</g>
	<g class="st1">
		<g>
			<line class="st22" x1="168.3" y1="183.7" x2="171.9" y2="183.7"/>
			<line class="st22" x1="186.3" y1="183.7" x2="190" y2="183.7"/>
			<line class="st22" x1="149.8" y1="176.8" x2="190.8" y2="176.8"/>
			<line class="st22" x1="144.8" y1="169.9" x2="194.3" y2="169.9"/>
			<line class="st22" x1="166.8" y1="163" x2="200.3" y2="163"/>
			<line class="st22" x1="166.8" y1="156.1" x2="182.3" y2="156.1"/>
		</g>
	</g>
	<g class="st1">
		<path class="st2" d="M143.7,151l-1.5,4.5l0.3,11.8h24.4c0.8,0,1.5-0.7,1.5-1.5V151H143.7z M148.8,163.9l-1.1,0.8l0.4,1.3
			c0,0.2-0.1,0.3-0.3,0.2l-1.1-0.8l-1.1,0.8c-0.1,0.1-0.3,0-0.3-0.2l0.4-1.3l-1-0.8c-0.1-0.1-0.1-0.3,0.1-0.3l1.3,0l0.1-0.3l0.3-1
			c0-0.2,0.3-0.2,0.3,0l0.3,1l0.1,0.3l1.3,0C148.9,163.6,148.9,163.8,148.8,163.9z M148.8,158.4l-1.1,0.8l0.4,1.3
			c0,0.2-0.1,0.3-0.3,0.2l-1.1-0.8l-1.1,0.8c-0.1,0.1-0.3,0-0.3-0.2l0.4-1.3l-1-0.8c-0.1-0.1-0.1-0.3,0.1-0.3l1.3,0l0.1-0.3l0.3-0.9
			c0-0.2,0.3-0.2,0.3,0l0.3,0.9l0.1,0.3l1.3,0C148.9,158.1,148.9,158.3,148.8,158.4z M148.8,152.9l-1.1,0.8l0.4,1.3
			c0,0.2-0.1,0.3-0.3,0.2l-1.1-0.8l-1.1,0.8c-0.1,0.1-0.3,0-0.3-0.2l0.4-1.3l-1-0.8c-0.1-0.1-0.1-0.3,0.1-0.3l1.3,0l0.1-0.3l0.2-0.5
			l0.2-0.5c0-0.2,0.3-0.2,0.3,0l0.2,0.5l0.1,0.5l0.1,0.3l1.3,0C148.9,152.6,148.9,152.8,148.8,152.9z M154.3,163.9l-1.1,0.8l0.4,1.3
			c0.1,0.2-0.1,0.3-0.3,0.2l-1.1-0.8l-1.1,0.8c-0.1,0.1-0.3,0-0.3-0.2l0.4-1.3l-1.1-0.8c-0.1-0.1-0.1-0.3,0.1-0.3l1.3,0l0.1-0.3
			l0.3-1c0.1-0.2,0.3-0.2,0.3,0l0.3,1l0.1,0.3l1.3,0C154.4,163.6,154.5,163.8,154.3,163.9z M154.3,158.4l-1.1,0.8l0.4,1.3
			c0.1,0.2-0.1,0.3-0.3,0.2l-1.1-0.8l-1.1,0.8c-0.1,0.1-0.3,0-0.3-0.2l0.4-1.3l-1.1-0.8c-0.1-0.1-0.1-0.3,0.1-0.3l1.3,0l0.1-0.3
			l0.3-0.9c0.1-0.2,0.3-0.2,0.3,0l0.3,0.9l0.1,0.3l1.3,0C154.4,158.1,154.5,158.3,154.3,158.4z M154.3,152.9l-1.1,0.8l0.4,1.3
			c0.1,0.2-0.1,0.3-0.3,0.2l-1.1-0.8l-1.1,0.8c-0.1,0.1-0.3,0-0.3-0.2l0.4-1.3l-1.1-0.8c-0.1-0.1-0.1-0.3,0.1-0.3l1.3,0l0.1-0.3
			l0.2-0.5l0.2-0.5c0.1-0.2,0.3-0.2,0.3,0l0.2,0.5l0.2,0.5l0.1,0.3l1.3,0C154.4,152.6,154.5,152.8,154.3,152.9z M159.9,163.9l-1,0.8
			l0.4,1.3c0,0.2-0.1,0.3-0.3,0.2l-1.1-0.8l-1.1,0.8c-0.1,0.1-0.3,0-0.3-0.2l0.4-1.3l-1.1-0.8c-0.1-0.1-0.1-0.3,0.1-0.3l1.3,0
			l0.1-0.3l0.3-1c0.1-0.2,0.3-0.2,0.3,0l0.3,1l0.1,0.3l1.3,0C159.9,163.6,160,163.8,159.9,163.9z M159.9,158.4l-1,0.8l0.4,1.3
			c0,0.2-0.1,0.3-0.3,0.2l-1.1-0.8l-1.1,0.8c-0.1,0.1-0.3,0-0.3-0.2l0.4-1.3l-1.1-0.8c-0.1-0.1-0.1-0.3,0.1-0.3l1.3,0l0.1-0.3
			l0.3-0.9c0.1-0.2,0.3-0.2,0.3,0l0.3,0.9l0.1,0.3l1.3,0C159.9,158.1,160,158.3,159.9,158.4z M159.9,152.9l-1,0.8l0.4,1.3
			c0,0.2-0.1,0.3-0.3,0.2l-1.1-0.8l-1.1,0.8c-0.1,0.1-0.3,0-0.3-0.2l0.4-1.3l-1.1-0.8c-0.1-0.1-0.1-0.3,0.1-0.3l1.3,0l0.1-0.3
			l0.2-0.5l0.2-0.5c0.1-0.2,0.3-0.2,0.3,0l0.2,0.5l0.1,0.5l0.1,0.3l1.3,0C159.9,152.6,160,152.8,159.9,152.9z M165.4,163.9l-1.1,0.8
			l0.4,1.3c0.1,0.2-0.1,0.3-0.3,0.2l-1.1-0.8l-1.1,0.8c-0.1,0.1-0.3,0-0.3-0.2l0.4-1.3l-1.1-0.8c-0.1-0.1-0.1-0.3,0.1-0.3l1.3,0
			l0.1-0.3l0.3-1c0.1-0.2,0.3-0.2,0.3,0l0.3,1l0.1,0.3l1.3,0C165.5,163.6,165.5,163.8,165.4,163.9z M165.4,158.4l-1.1,0.8l0.4,1.3
			c0.1,0.2-0.1,0.3-0.3,0.2l-1.1-0.8l-1.1,0.8c-0.1,0.1-0.3,0-0.3-0.2l0.4-1.3l-1.1-0.8c-0.1-0.1-0.1-0.3,0.1-0.3l1.3,0l0.1-0.3
			l0.3-0.9c0.1-0.2,0.3-0.2,0.3,0l0.3,0.9l0.1,0.3l1.3,0C165.5,158.1,165.5,158.3,165.4,158.4z M163.9,152.3l0.1,0.3l1.3,0
			c0.2,0,0.2,0.2,0.1,0.3l-1.1,0.8l0.4,1.3c0.1,0.2-0.1,0.3-0.3,0.2l-1.1-0.8l-1.1,0.8c-0.1,0.1-0.3,0-0.3-0.2l0.4-1.3l-1.1-0.8
			c-0.1-0.1-0.1-0.3,0.1-0.3l1.3,0l0.1-0.3l0.1-0.5l0.2-0.5c0.1-0.2,0.3-0.2,0.3,0l0.2,0.5L163.9,152.3z"/>
	</g>
</g>
<g class="st0">
	<g class="st1">
		<g>
			<polygon class="st22" points="35.5,157.1 14.8,155.1 14.8,189 35.5,191 			"/>
			<polyline class="st22" points="14.8,155.1 18.9,152.2 39.6,154.2 35.5,157.1 			"/>
			<polyline class="st22" points="39.6,154.2 39.6,188.1 35.5,191 			"/>
		</g>
	</g>
	<g id="_x36__3_" class="st1">
		<path class="st24" d="M30.5,185.9l-11-1c-0.6,0-1-0.4-1-1v-22c0-0.6,0.4-1,1-1l11,1c0.6,0,1,0.4,1,1v22
			C31.5,185.4,31.1,185.9,30.5,185.9z"/>
		<path class="st17" d="M30,182.9l-10-1c-0.6,0-1-0.4-1-1v-17c0-0.6,0.4-1,1-1l10,1c0.6,0,1,0.4,1,1v17
			C31,182.4,30.6,182.9,30,182.9z"/>
		<circle class="st17" cx="24.8" cy="184.6" r="1"/>
	</g>
</g>
<g class="st0">
	<g class="st1">
		<polygon class="st22" points="-11.1,157.1 9.6,155.1 9.6,189 -11.1,191 		"/>
		<polyline class="st22" points="9.6,155.1 5.5,152.2 -15.3,154.2 -11.1,157.1 		"/>
		<polyline class="st22" points="-15.3,154.2 -15.3,188.1 -11.1,191 		"/>
	</g>
</g>
<g id="x_4_" class="st0">
	<path class="st25" d="M5.2,185.9l-12,1.1c-0.6,0-1-0.4-1-1v-25c0-0.6,0.4-1,1-1l12-1.1c0.6,0,1,0.4,1,1v25
		C6.2,185.4,5.8,185.9,5.2,185.9z"/>
	<path class="st4" d="M5.2,185.9l-12,1.1c-0.6,0-1-0.4-1-1v-25c0-0.6,0.4-1,1-1l12-1.1c0.6,0,1,0.4,1,1v25
		C6.2,185.4,5.8,185.9,5.2,185.9z"/>
	<path class="st10" d="M2.8,160.6l-7.2,0.8c-0.6,0-1-0.4-1-1V159l9.2-0.9v1.5C3.8,160.2,3.4,160.6,2.8,160.6z"/>
</g>
<g class="st0">
	<ellipse class="st26" cx="35.1" cy="242" rx="8" ry="8"/>
	<line class="st26" x1="35.1" y1="242" x2="35.1" y2="234"/>
	<line class="st26" x1="35.1" y1="247.8" x2="35.1" y2="250"/>
	<line class="st26" x1="43.1" y1="241.9" x2="40.9" y2="241.9"/>
	<line class="st26" x1="29.3" y1="241.9" x2="27.1" y2="241.9"/>
	<line class="st26" x1="35.1" y1="242" x2="40.8" y2="236.3"/>
	<line class="st26" x1="31" y1="246.1" x2="29.5" y2="247.6"/>
	<line class="st26" x1="40.8" y1="247.6" x2="39.3" y2="246.1"/>
	<line class="st26" x1="31" y1="237.8" x2="29.5" y2="236.3"/>
</g>
<g class="st0">
	<line class="st20" x1="73.1" y1="52" x2="73.1" y2="53"/>
	<line class="st20" x1="76.1" y1="50" x2="76.1" y2="53"/>
	<line class="st20" x1="79.1" y1="47" x2="79.1" y2="53"/>
</g>
<g class="st0">
	<line class="st20" x1="206.2" y1="-47" x2="216.1" y2="-37.1"/>
	<line class="st20" x1="216.1" y1="-47" x2="206.2" y2="-37.1"/>
</g>
<g class="st0">
	<path class="st27" d="M196-44.5c0,0-0.5-0.5-0.6-0.6c-2-2-5.3-2.1-7.3,0c-2,2-2,5.3,0,7.4c2,2,5.3,2,7.4,0"/>
	<polyline class="st27" points="194.1,-44.1 196.4,-44.1 196.4,-46.5 	"/>
</g>
<g class="st0">
	<line class="st28" x1="142.1" y1="-32" x2="162.1" y2="-32"/>
	<line class="st28" x1="142.1" y1="-26" x2="162.1" y2="-26"/>
	<line class="st28" x1="142.1" y1="-20" x2="162.1" y2="-20"/>
</g>
<circle class="st29" cx="124.6" cy="-32.5" r="2"/>
<circle class="st29" cx="116.6" cy="-32.5" r="2"/>
<circle class="st29" cx="124.6" cy="-24.5" r="2"/>
<circle class="st29" cx="116.6" cy="-24.5" r="2"/>
</svg>
