<?xml version="1.0" encoding="utf-8"?>
<!-- Generator: Adobe Illustrator 22.0.0, SVG Export Plug-In . SVG Version: 6.00 Build 0)  -->
<svg version="1.1" id="Layer_1" xmlns="http://www.w3.org/2000/svg" xmlns:xlink="http://www.w3.org/1999/xlink" x="0px" y="0px"
	 viewBox="0 0 18.3 28.1" style="enable-background:new 0 0 18.3 28.1;" xml:space="preserve">
<style type="text/css">
	.st0{display:none;}
	.st1{display:inline;}
	.st2{fill:#282D3A;}
	.st3{fill:#85888B;}
	.st4{display:none;fill:#B2B2B2;}
	.st5{fill:none;stroke:#000000;stroke-width:1.5;stroke-linecap:round;stroke-linejoin:round;stroke-miterlimit:10;}
	.st6{display:none;fill:none;stroke:#FFFFFF;stroke-width:2;stroke-linecap:round;stroke-linejoin:round;stroke-miterlimit:10;}
	.st7{display:inline;fill:none;stroke:#282D3A;stroke-width:1.5;stroke-linejoin:round;stroke-miterlimit:10;}
	.st8{display:inline;fill:#282D3A;}
	.st9{display:inline;fill:none;stroke:#000000;stroke-width:1.5;stroke-miterlimit:10;}
	.st10{fill:#010002;}
	.st11{display:inline;fill:#010002;}
	.st12{fill:none;stroke:#FFFFFF;stroke-width:1.5;stroke-linecap:round;stroke-linejoin:round;stroke-miterlimit:10;}
	.st13{fill:none;stroke:#FFFFFF;stroke-width:1.5;stroke-miterlimit:10;}
	.st14{fill:#FFFFFF;stroke:#FFFFFF;stroke-width:1.5;stroke-miterlimit:10;}
	.st15{fill:#FFFFFF;}
	.st16{display:inline;fill:none;stroke:#FFFFFF;stroke-linecap:round;stroke-miterlimit:10;}
	.st17{display:none;fill:#FFFFFF;}
	
		.st18{display:inline;fill:none;stroke:#282D3A;stroke-width:1.5;stroke-linecap:round;stroke-linejoin:round;stroke-miterlimit:10;}
	.st19{clip-path:url(#SVGID_2_);}
	.st20{fill:none;stroke:#282D3A;stroke-width:1.5;stroke-linecap:round;stroke-linejoin:round;stroke-miterlimit:10;}
	.st21{fill:#F5F5F5;}
	.st22{fill:#282D3A;stroke:#282D3A;stroke-width:2;stroke-linejoin:round;stroke-miterlimit:10;}
	.st23{display:inline;fill:#282D3A;stroke:#282D3A;stroke-width:2;stroke-linejoin:round;stroke-miterlimit:10;}
	.st24{display:inline;fill:#FFFFFF;}
	.st25{display:inline;fill:none;stroke:#282D3A;stroke-linecap:round;stroke-linejoin:round;stroke-miterlimit:10;}
	
		.st26{display:inline;fill:none;stroke:#000000;stroke-width:1.5;stroke-linecap:round;stroke-linejoin:round;stroke-miterlimit:10;}
	.st27{display:inline;fill:none;stroke:#282D3A;stroke-width:2;stroke-linecap:round;stroke-linejoin:round;stroke-miterlimit:10;}
	.st28{display:none;fill:#282D3A;}
</style>
<g id="_x35_s" class="st0">
	<g class="st1">
		<path class="st2" d="M13.9,0.8h-10c-1.1,0-2,0.9-2,2v20c0,1.1,0.9,2,2,2h10c1.1,0,2-0.9,2-2v-20C15.9,1.7,15,0.8,13.9,0.8z
			 M8.9,23.8c-0.5,0-1-0.4-1-1c0-0.5,0.5-1,1-1c0.6,0,1,0.5,1,1C9.9,23.4,9.5,23.8,8.9,23.8z M14.4,19.8c0,0.4-0.2,0.7-0.5,0.9
			c-0.1,0.1-0.3,0.1-0.5,0.1h-9c-0.2,0-0.3,0-0.5-0.1c-0.3-0.2-0.5-0.5-0.5-0.9v-15c0-0.4,0.2-0.7,0.5-0.9c0.2-0.1,0.3-0.1,0.5-0.1
			h9c0.2,0,0.4,0,0.5,0.1c0.3,0.2,0.5,0.5,0.5,0.9V19.8z"/>
	</g>
</g>
<g id="_x36_" class="st0">
	<g class="st1">
		<path class="st2" d="M14.6,0.1h-11c-1.1,0-2,0.9-2,2v22c0,1.1,0.9,2,2,2h11c1.1,0,2-0.9,2-2v-22C16.6,1,15.7,0.1,14.6,0.1z
			 M9.1,25.1c-0.6,0-1-0.5-1-1c0-0.6,0.4-1,1-1c0.5,0,1,0.4,1,1C10.1,24.6,9.7,25.1,9.1,25.1z M15.1,21.1c0,0.4-0.2,0.7-0.5,0.9
			c-0.2,0.1-0.3,0.1-0.5,0.1h-10c-0.2,0-0.4,0-0.5-0.1c-0.3-0.2-0.5-0.5-0.5-0.9v-17c0-0.4,0.2-0.7,0.5-0.9c0.1-0.1,0.3-0.1,0.5-0.1
			h10c0.2,0,0.3,0,0.5,0.1c0.3,0.2,0.5,0.5,0.5,0.9V21.1z"/>
	</g>
</g>
<g id="plus" class="st0">
	<g id="_x36__2_" class="st1">
		<g>
			<path class="st2" d="M20.7-1.9H7.5c-1.1,0-2,0.9-2,2v1h4c0.4,0,0.8,0.1,1.1,0.3h9.5c0.2,0,0.4,0.1,0.6,0.2
				c0.3,0.2,0.4,0.5,0.4,0.8v20.2c0,0.3-0.2,0.6-0.4,0.8c-0.2,0.1-0.4,0.2-0.6,0.2h-8.6v3.5c0,0.5-0.4,1-1,1h10.2c1.1,0,2-0.9,2-2
				v-26C22.7-1,21.8-1.9,20.7-1.9z M15.3,26.1c-0.1,0.6-0.6,1-1.2,1c-0.6,0-1.1-0.4-1.2-1c0-0.1,0-0.1,0-0.2c0-0.6,0.5-1.2,1.2-1.2
				c0.7,0,1.2,0.5,1.2,1.2C15.3,26,15.3,26,15.3,26.1z"/>
		</g>
	</g>
	<g id="_x36__1_" class="st1">
		<g>
			<path class="st2" d="M8.5,2.1h-11c-0.3,0-0.6,0.1-0.8,0.2c-0.7,0.3-1.2,1-1.2,1.8v22c0,1.1,0.9,2,2,2h11c0.7,0,1.4-0.4,1.7-1
				c0.2-0.3,0.3-0.6,0.3-1v-22C10.5,3,9.6,2.1,8.5,2.1z M3,27.1c-0.5,0-1-0.5-1-1s0.5-1,1-1c0.6,0,1,0.5,1,1S3.6,27.1,3,27.1z
				 M9,23.1c0,0.2,0,0.3-0.1,0.5c-0.1,0.2-0.2,0.3-0.4,0.4C8.4,24,8.2,24.1,8,24.1H-2c-0.2,0-0.3,0-0.5-0.1C-2.8,23.8-3,23.4-3,23.1
				v-17c0-0.4,0.2-0.7,0.5-0.9C-2.3,5.1-2.1,5.1-2,5.1H8c0.2,0,0.4,0,0.5,0.1C8.8,5.4,9,5.7,9,6.1V23.1z"/>
		</g>
	</g>
</g>
<g id="x" class="st0">
	<g class="st1">
		<path class="st2" d="M15.1,0.1h-12c-1.1,0-2,0.9-2,2v23c0,1.1,0.9,2,2,2h12c1.1,0,2-0.9,2-2v-23C17.1,1,16.2,0.1,15.1,0.1z
			 M16.1,25.1c0,0.6-0.5,1-1,1h-12c-0.6,0-1-0.4-1-1v-23c0-0.5,0.4-1,1-1h1.4v0.3c0,0.3,0.1,0.5,0.3,0.7C5,2.2,5.3,2.3,5.5,2.3h7.2
			c0.3,0,0.5-0.1,0.7-0.3c0.2-0.2,0.3-0.4,0.3-0.7V1.1h1.4c0.5,0,1,0.5,1,1V25.1z"/>
	</g>
</g>
<g id="all" class="st0">
	<g id="_x35_s_1_" class="st1">
		<g>
			<path class="st2" d="M5.1,26.1v-3h-6.5c-0.2,0-0.4,0-0.5-0.1c-0.3-0.2-0.5-0.5-0.5-0.9v-15c0-0.4,0.2-0.7,0.5-0.9
				c0.1-0.1,0.3-0.1,0.5-0.1h6.5v-3h-7c-1.1,0-2,0.9-2,2v20c0,1.1,0.9,2,2,2h8C5.6,27.1,5.1,26.7,5.1,26.1z M3.1,26.1
				c-0.6,0-1-0.5-1-1c0-0.6,0.4-1,1-1c0.5,0,1,0.4,1,1C4.1,25.7,3.7,26.1,3.1,26.1z"/>
		</g>
	</g>
	<g id="x_2_" class="st1">
		<g>
			<path class="st2" d="M20.1,0.1h-12c-1.1,0-2,0.9-2,2v23c0,0.4,0.1,0.7,0.3,1c0.3,0.6,1,1,1.7,1h12c1.1,0,2-0.9,2-2v-23
				C22.1,1,21.2,0.1,20.1,0.1z M21.1,25.1c0,0.5-0.5,1-1,1h-12c-0.6,0-1-0.5-1-1v-23c0-0.6,0.4-1,1-1h1.4v0.3c0,0.3,0.1,0.5,0.3,0.7
				c0.2,0.2,0.4,0.3,0.7,0.3h7.2c0.3,0,0.5-0.1,0.7-0.3c0.2-0.2,0.3-0.4,0.3-0.7V1.1h1.4c0.5,0,1,0.4,1,1V25.1z"/>
		</g>
	</g>
</g>
<g id="x_1_">
	<g>
		<path class="st3" d="M15.1,0.6h-12c-1.1,0-2,0.9-2,2v23c0,1.1,0.9,2,2,2h12c1.1,0,2-0.9,2-2v-23C17.1,1.5,16.2,0.6,15.1,0.6z
			 M16.1,25.6c0,0.5-0.5,1-1,1h-12c-0.6,0-1-0.5-1-1v-23c0-0.6,0.4-1,1-1h1.4v0.3c0,0.3,0.1,0.5,0.3,0.7C5,2.8,5.3,2.9,5.5,2.9h7.2
			c0.3,0,0.5-0.1,0.7-0.3c0.2-0.2,0.3-0.4,0.3-0.7V1.6h1.4c0.5,0,1,0.4,1,1V25.6z"/>
	</g>
</g>
<rect x="-16.6" y="144.5" class="st4" width="50" height="50"/>
<g class="st0">
	<g class="st1">
		<rect x="-13.9" y="182.1" class="st5" width="16.8" height="8.1"/>
		<rect x="-13.9" y="174" class="st5" width="16.8" height="8.1"/>
		<rect x="-13.9" y="166" class="st5" width="16.8" height="8.1"/>
		<path class="st5" d="M9.9,185.3l-7,4.9L9.9,185.3z"/>
		<path class="st5" d="M9.9,177.2l-7,4.9L9.9,177.2z"/>
		<path class="st5" d="M9.9,169.2l-7,4.9L9.9,169.2z"/>
		<path class="st5" d="M8.9,161.8l-6,4.2L8.9,161.8z"/>
		<path class="st5" d="M-0.7,156.8l-13.2,9.1L-0.7,156.8z"/>
		<line class="st5" x1="-0.7" y1="156.8" x2="9.9" y2="156.8"/>
	</g>
	<circle class="st1" cx="-5.5" cy="170" r="1.5"/>
	<circle class="st1" cx="-5.5" cy="178.1" r="1.5"/>
	<circle class="st1" cx="-5.5" cy="186.1" r="1.5"/>
</g>
<rect x="63.4" y="144.5" class="st4" width="50" height="50"/>
<rect x="143.4" y="144.5" class="st4" width="50" height="50"/>
<rect x="143.4" y="84.5" class="st4" width="50" height="50"/>
<rect x="15.4" y="-41.5" class="st4" width="50" height="50"/>
<circle class="st0" cx="34.4" cy="124.6" r="10"/>
<polyline class="st6" points="30.6,64.6 33.7,68 37.7,60.3 "/>
<g id="x_3_" class="st0">
	<path class="st7" d="M98.2,129.1H78.6c-0.6,0-1-0.4-1-1V91.4c0-0.6,0.4-1,1-1h19.6c0.6,0,1,0.4,1,1v36.6
		C99.2,128.6,98.8,129.1,98.2,129.1z"/>
	<path class="st8" d="M94.5,93.4H82.3c-0.6,0-1-0.4-1-1v-2.5h14.2v2.5C95.5,92.9,95.1,93.4,94.5,93.4z"/>
</g>
<g id="_x32_" class="st0">
	<path class="st9" d="M105.6,155.8c0.4,27.1-17.2,35.7-17.2,35.7s-17.5-8.7-17.1-35.7c0,0,7.9-0.8,17.1-6.3
		C97.7,154.9,105.6,155.8,105.6,155.8z"/>
	<path class="st1" d="M98.9,160.5c0.2,16.5-10.5,22.8-10.5,22.8S77.7,177,78,160.5c0,0,4.8-0.5,10.4-3.9
		C94.1,160,98.9,160.5,98.9,160.5z"/>
</g>
<g id="_x33_" class="st0">
	<g class="st1">
		<path class="st10" d="M168,127.1c-7.6,0-14.3-4.8-16.8-12c-0.1-0.2-0.1-0.4,0-0.6c0.1-0.2,0.3-0.3,0.5-0.4c0.1,0,0.2,0,0.3,0
			c0.3,0,0.7,0.2,0.8,0.6c2.2,6.5,8.4,10.9,15.2,10.9c8.9,0,16.1-7.2,16.1-16.1c0-0.4,0.4-0.8,0.8-0.8c0.4,0,0.8,0.4,0.8,0.8
			C185.7,119.1,177.8,127.1,168,127.1z"/>
		<path class="st10" d="M151.1,110.2c-0.4,0-0.8-0.4-0.8-0.8c0-9.8,8-17.7,17.7-17.7c7.6,0,14.3,4.8,16.8,12c0.1,0.2,0.1,0.4,0,0.6
			c-0.1,0.2-0.3,0.3-0.5,0.4c-0.1,0-0.2,0-0.3,0c-0.3,0-0.7-0.2-0.8-0.5c-2.2-6.5-8.3-10.9-15.2-10.9c-8.9,0-16.1,7.2-16.1,16.1
			C151.9,109.8,151.5,110.2,151.1,110.2z"/>
		<path class="st10" d="M184.3,104.9c-0.1,0-0.2,0-0.2,0l-7.1-2.2c-0.4-0.1-0.7-0.6-0.5-1c0.1-0.3,0.4-0.6,0.8-0.6
			c0.1,0,0.2,0,0.2,0l6.4,2l2.4-6c0.1-0.3,0.4-0.5,0.8-0.5c0.1,0,0.2,0,0.3,0.1c0.2,0.1,0.4,0.2,0.4,0.4c0.1,0.2,0.1,0.4,0,0.6
			l-2.7,6.7C184.9,104.7,184.6,104.9,184.3,104.9z"/>
		<path class="st10" d="M149.2,122.2c-0.1,0-0.2,0-0.3-0.1c-0.4-0.2-0.6-0.6-0.5-1.1l2.7-6.7c0.1-0.3,0.4-0.5,0.7-0.5
			c0.1,0,0.2,0,0.2,0l7.1,2.2c0.4,0.1,0.7,0.6,0.5,1c-0.1,0.3-0.4,0.6-0.8,0.6c-0.1,0-0.2,0-0.2,0l-6.4-2l-2.4,6
			C149.8,122,149.5,122.2,149.2,122.2z"/>
	</g>
	<circle class="st11" cx="168.4" cy="109.5" r="6.1"/>
</g>
<g id="_x34_" class="st0">
	<g class="st1">
		<path class="st12" d="M252.2,172.1v1.9l1.9,1.3l5.1,1.6c2,0.6,2.6,2.5,2.6,2.5l1.9,9.3c0.4,2-2.1,2.3-2.1,2.3h-25.2
			c0,0-2.5-0.2-2.1-2.3l1.9-9.3c0,0,0.6-1.9,2.6-2.5l5.1-1.6l1.9-1.3v-1.9"/>
		<g id="head">
			<path class="st13" d="M241.3,160.9v4.3c0,4.2,3.4,7.7,7.7,7.7h0c4.2,0,7.7-3.4,7.7-7.7v-4.3"/>
			<path class="st13" d="M239.5,160.6c-0.8,0.3-1.3,1-1.3,1.9c0,1.1,0.9,2,2,2c0.4,0,0.7-0.1,1-0.3"/>
			<path class="st13" d="M256.6,164.3c0.3,0.2,0.6,0.3,1,0.3c1.1,0,2-0.9,2-2c0-0.9-0.5-1.6-1.3-1.9"/>
			<path class="st14" d="M258,161.1c-0.8,0.6-2-0.6-2-0.6c-0.4-0.4-0.6-0.9-0.8-1.4c-0.1-0.2-0.2-0.5-0.3-0.7
				c-0.1-0.3-0.1-0.5-0.2-0.8c0-0.3-0.2-0.5-0.4-0.6c-0.7-0.5-1.3,0-1.9,0.2c-0.4,0.1-0.8,0.2-1.2,0.3c-0.8,0.1-1.6,0.2-2.4,0.2
				c-0.8,0-1.6-0.1-2.4-0.2c-0.4-0.1-0.8-0.2-1.2-0.3c-0.7-0.2-1.3-0.7-1.9-0.2c-0.2,0.2-0.4,0.4-0.4,0.6c-0.1,0.3-0.1,0.5-0.2,0.8
				c-0.1,0.2-0.2,0.5-0.3,0.7c-0.2,0.5-0.4,1-0.8,1.4c0,0-1.2,1.1-2,0.6c0,0-0.6-0.8-0.4-2.8c0,0,0.9-8.5,9.5-8.5
				c8.7,0,9.5,8.5,9.5,8.5C258.6,160.3,258,161.1,258,161.1z"/>
		</g>
		<line class="st12" x1="240.1" y1="190.9" x2="240.1" y2="184.5"/>
		<line class="st12" x1="257.7" y1="190.9" x2="257.7" y2="184.5"/>
		<polyline class="st12" points="245.6,174 248.9,178.5 245.4,179.6 243.8,175.3 		"/>
		<polyline class="st12" points="252.2,174 248.9,178.5 252.5,179.6 254.1,175.3 		"/>
		<line class="st12" x1="248.9" y1="178.5" x2="248.9" y2="184.8"/>
	</g>
	<g class="st1">
		<circle class="st15" cx="246.4" cy="163.1" r="1"/>
		<circle class="st15" cx="251.4" cy="163.1" r="1"/>
	</g>
	<path class="st16" d="M246.8,167.4c0,0.7,0.9,1.3,2.1,1.3s2.1-0.6,2.1-1.3"/>
</g>
<path class="st17" d="M35.8,121.6l0.5-1.4c0.3-0.9,0.1-2.4-0.8-2.9c-0.3-0.2-0.7-0.3-1.1-0.2c-0.2,0.1-0.4,0.2-0.5,0.4
	c-0.1,0.2-0.1,0.4-0.2,0.7c-0.1,0.6-0.4,1.1-0.8,1.5c-0.7,0.7-3,2.8-3,2.8v7.6h7.9c1.1,0,1.8-1.2,1.2-2.1c0.6-0.4,0.8-1.2,0.5-1.9
	c0.6-0.4,0.8-1.2,0.5-1.9c1.1-0.7,0.7-2.4-0.5-2.6C39.4,121.6,35.8,121.6,35.8,121.6z"/>
<g class="st0">
	<path class="st18" d="M146.2,98.8v8.1c0,0.3,0.2,0.5,0.4,0.8c0.4,0.4,1,0.7,0.9,1.5c0,0,0,0,0,0.1c-0.1,0.9,0.9,1.9,1.7,2.5
		c0.2,0.2,0.4,0.4,0.5,0.5c0.2,0.2,0.5,0.7,0.8,1.1c0.4,0.6,0.9,1.1,1.2,1.1c0.4-0.1,1.3-0.4,1.8,0.2c0.4,0.5,2.4,1.1,3.4,1.2h0.6
		c0.6-0.1,2-0.3,2.9,0c0.3,0.1,0.6,0.3,0.6,0.6c0.1,0.3,0.2,0.7,0.4,1c0.4,0.7,1,1.2,1,1.2s0.4-0.7,0.6-1.1c0,0,0-0.1,0.1-0.1
		c0.1-0.1,0.3-0.1,0.6,0c0.4,0.2,0.8,0.8,1.1,1.9c0.1,0.2,0.1,0.4,0.2,0.6c0.3,0.7,0.8,1.2,1.3,1.6c0.6,0.5,1.1,0.7,1.1,0.7
		s0-0.3,0-0.7c0-0.5,0-1.1,0-1.6c0-0.2,0-0.3,0-0.5c0.1-0.9,2.5-1.7,3-1.8c0.4-0.1,3.4,1.4,3.4,0.9c0-0.4,0.5-0.8,1-1.2
		c0.1-0.1,0.2-0.2,0.3-0.2c0.2-0.2,0.5,0,0.8,0.2c0.5,0.5,1,1.2,1,0.9c0.1-0.5,0.5,0.8,0.7,1.4c0.1,0.3,0.2,0.8,0.3,1.3
		c0,0.3,0.1,0.6,0,0.9c0,0.2,0.1,0.4,0.2,0.7c0.4,0.7,2.1,0.5,2.3,0.4c0.1-0.1,0.2-0.7,0.3-1.4c0-0.5,0-1.1,0-1.6
		c-0.1-0.3-0.1-0.6-0.3-0.7c-0.3-0.3-0.5-1-0.6-1.8c-0.1-0.5-0.1-1.1,0-1.6c0-0.4,0.1-0.7,0.3-0.8c0.2-0.2,1.1-0.9,1.9-1.7
		c0.6-0.5,1.1-1.1,1.6-1.6c0.6-0.7,1-1.3,0.7-1.4c-0.5-0.2-0.6-0.6-0.5-1.1c0-0.4,0.1-0.9,0.2-1.5c0,0,0,0,0-0.1
		c0.2-1.4,1,0.3,1.4-1.6c0.1-0.4,0.3-0.7,0.5-0.9c1-0.9,2.9-0.9,2.6-1.2c-0.1-0.1-0.2-0.2-0.2-0.4c-0.1-0.5,0-1.2,0.5-1.6
		c0.2-0.2,0.7-0.5,1.2-0.9c0.7-0.6,1.5-1.3,1.3-1.5l0,0c0,0,0,0,0,0c-0.4-0.4-2.9-0.1-2.9-0.1s0,0.1-0.1,0.1
		c-0.1,0.2-0.3,0.5-0.7,0.6c-0.6,0.2-9.1,0.3-9.3-0.3c0-0.1-0.1-0.2-0.2-0.3c-0.4-0.3-1.2-0.2-1.2-0.2s-0.1,0.1-0.2,0.2
		c-0.2,0.3-0.7,0.8-1,0.9c-0.4,0.1-0.5-0.4-0.4-0.9c0-0.1,0-0.3,0.1-0.4c0.1-0.3-0.9-1.5-1.7-2.1c-0.4-0.3-0.7-0.4-0.9-0.3
		c-0.7,0.2-4.2-1.2-4.2-1.2h-21.7c0,0,0,0.5-0.1,1c0,0,0,0.1,0,0.1c0,0.2-0.1,0.4-0.1,0.5C146.8,97,146.2,97.9,146.2,98.8z
		 M191.5,99.6"/>
	<g class="st1">
		<defs>
			<path id="SVGID_1_" d="M146.2,98.8v8.1c0,0.3,0.2,0.5,0.4,0.8c0.4,0.4,1,0.7,0.9,1.5c0,0,0,0,0,0.1c-0.1,0.9,0.9,1.9,1.7,2.5
				c0.2,0.2,0.4,0.4,0.5,0.5c0.2,0.2,0.5,0.7,0.8,1.1c0.4,0.6,0.9,1.1,1.2,1.1c0.4-0.1,1.3-0.4,1.8,0.2c0.4,0.5,2.4,1.1,3.4,1.2h0.6
				c0.6-0.1,2-0.3,2.9,0c0.3,0.1,0.6,0.3,0.6,0.6c0.1,0.3,0.2,0.7,0.4,1c0.4,0.7,1,1.2,1,1.2s0.4-0.7,0.6-1.1c0,0,0-0.1,0.1-0.1
				c0.1-0.1,0.3-0.1,0.6,0c0.4,0.2,0.8,0.8,1.1,1.9c0.1,0.2,0.1,0.4,0.2,0.6c0.3,0.7,0.8,1.2,1.3,1.6c0.6,0.5,1.1,0.7,1.1,0.7
				s0-0.3,0-0.7c0-0.5,0-1.1,0-1.6c0-0.2,0-0.3,0-0.5c0.1-0.9,2.5-1.7,3-1.8c0.4-0.1,3.4,1.4,3.4,0.9c0-0.4,0.5-0.8,1-1.2
				c0.1-0.1,0.2-0.2,0.3-0.2c0.2-0.2,0.5,0,0.8,0.2c0.5,0.5,1,1.2,1,0.9c0.1-0.5,0.5,0.8,0.7,1.4c0.1,0.3,0.2,0.8,0.3,1.3
				c0,0.3,0.1,0.6,0,0.9c0,0.2,0.1,0.4,0.2,0.7c0.4,0.7,2.1,0.5,2.3,0.4c0.1-0.1,0.2-0.7,0.3-1.4c0-0.5,0-1.1,0-1.6
				c-0.1-0.3-0.1-0.6-0.3-0.7c-0.3-0.3-0.5-1-0.6-1.8c-0.1-0.5-0.1-1.1,0-1.6c0-0.4,0.1-0.7,0.3-0.8c0.2-0.2,1.1-0.9,1.9-1.7
				c0.6-0.5,1.1-1.1,1.6-1.6c0.6-0.7,1-1.3,0.7-1.4c-0.5-0.2-0.6-0.6-0.5-1.1c0-0.4,0.1-0.9,0.2-1.5c0,0,0,0,0-0.1
				c0.2-1.4,1,0.3,1.4-1.6c0.1-0.4,0.3-0.7,0.5-0.9c1-0.9,2.9-0.9,2.6-1.2c-0.1-0.1-0.2-0.2-0.2-0.4c-0.1-0.5,0-1.2,0.5-1.6
				c0.2-0.2,0.7-0.5,1.2-0.9c0.7-0.6,1.5-1.3,1.3-1.5l0,0c0,0,0,0,0,0c-0.4-0.4-2.9-0.1-2.9-0.1s0,0.1-0.1,0.1
				c-0.1,0.2-0.3,0.5-0.7,0.6c-0.6,0.2-9.1,0.3-9.3-0.3c0-0.1-0.1-0.2-0.2-0.3c-0.4-0.3-1.2-0.2-1.2-0.2s-0.1,0.1-0.2,0.2
				c-0.2,0.3-0.7,0.8-1,0.9c-0.4,0.1-0.5-0.4-0.4-0.9c0-0.1,0-0.3,0.1-0.4c0.1-0.3-0.9-1.5-1.7-2.1c-0.4-0.3-0.7-0.4-0.9-0.3
				c-0.7,0.2-4.2-1.2-4.2-1.2h-21.7c0,0,0,0.5-0.1,1c0,0,0,0.1,0,0.1c0,0.2-0.1,0.4-0.1,0.5C146.8,97,146.2,97.9,146.2,98.8z
				 M191.5,99.6"/>
		</defs>
		<clipPath id="SVGID_2_">
			<use xlink:href="#SVGID_1_"  style="overflow:visible;"/>
		</clipPath>
		<g class="st19">
			<line class="st20" x1="144.3" y1="119.1" x2="194.6" y2="119.1"/>
			<line class="st20" x1="144.3" y1="114.1" x2="194.6" y2="114.1"/>
			<line class="st20" x1="144.3" y1="109.1" x2="194.6" y2="109.1"/>
			<line class="st20" x1="144.3" y1="104.1" x2="194.6" y2="104.1"/>
			<line class="st20" x1="144.3" y1="99.1" x2="194.6" y2="99.1"/>
		</g>
	</g>
	<path class="st8" d="M146.2,107.3h17.7c0.6,0,1.1-0.5,1.1-1.1V95.5h-17.9l-1.1,3.3L146.2,107.3z"/>
	<g class="st1">
		<path class="st21" d="M162.7,104.5l-1,0l-0.1-0.2l-0.2-0.7c0-0.1-0.2-0.1-0.2,0l-0.2,0.7l-0.1,0.2l-1,0c-0.1,0-0.2,0.2-0.1,0.2
			l0.8,0.6l-0.3,0.9c0,0.1,0.1,0.2,0.2,0.1l0.8-0.6l0.8,0.6c0.1,0.1,0.2,0,0.2-0.1l-0.3-0.9l0.8-0.6
			C162.9,104.6,162.8,104.5,162.7,104.5z"/>
		<path class="st21" d="M162.7,100.5l-1,0l-0.1-0.2l-0.2-0.7c0-0.1-0.2-0.1-0.2,0l-0.2,0.7l-0.1,0.2l-1,0c-0.1,0-0.2,0.2-0.1,0.2
			l0.8,0.6l-0.3,0.9c0,0.1,0.1,0.2,0.2,0.1l0.8-0.6l0.8,0.6c0.1,0.1,0.2,0,0.2-0.1l-0.3-0.9l0.8-0.6
			C162.9,100.6,162.8,100.5,162.7,100.5z"/>
		<path class="st21" d="M162.7,96.5l-1,0l-0.1-0.2l-0.2-0.7c0-0.1-0.2-0.1-0.2,0l-0.2,0.7l-0.1,0.2l-1,0c-0.1,0-0.2,0.2-0.1,0.2
			l0.8,0.6l-0.3,0.9c0,0.1,0.1,0.2,0.2,0.1l0.8-0.6l0.8,0.6c0.1,0.1,0.2,0,0.2-0.1l-0.3-0.9l0.8-0.6
			C162.9,96.6,162.8,96.5,162.7,96.5z"/>
	</g>
	<g class="st1">
		<path class="st21" d="M158.7,104.5l-1,0l-0.1-0.2l-0.2-0.7c0-0.1-0.2-0.1-0.2,0l-0.2,0.7l-0.1,0.2l-1,0c-0.1,0-0.2,0.2-0.1,0.2
			l0.8,0.6l-0.3,0.9c0,0.1,0.1,0.2,0.2,0.1l0.8-0.6l0.8,0.6c0.1,0.1,0.2,0,0.2-0.1l-0.3-0.9l0.8-0.6
			C158.9,104.6,158.8,104.5,158.7,104.5z"/>
		<path class="st21" d="M158.7,100.5l-1,0l-0.1-0.2l-0.2-0.7c0-0.1-0.2-0.1-0.2,0l-0.2,0.7l-0.1,0.2l-1,0c-0.1,0-0.2,0.2-0.1,0.2
			l0.8,0.6l-0.3,0.9c0,0.1,0.1,0.2,0.2,0.1l0.8-0.6l0.8,0.6c0.1,0.1,0.2,0,0.2-0.1l-0.3-0.9l0.8-0.6
			C158.9,100.6,158.8,100.5,158.7,100.5z"/>
		<path class="st21" d="M158.7,96.5l-1,0l-0.1-0.2l-0.2-0.7c0-0.1-0.2-0.1-0.2,0l-0.2,0.7l-0.1,0.2l-1,0c-0.1,0-0.2,0.2-0.1,0.2
			l0.8,0.6l-0.3,0.9c0,0.1,0.1,0.2,0.2,0.1l0.8-0.6l0.8,0.6c0.1,0.1,0.2,0,0.2-0.1l-0.3-0.9l0.8-0.6
			C158.9,96.6,158.8,96.5,158.7,96.5z"/>
	</g>
	<g class="st1">
		<path class="st21" d="M154.7,104.5l-1,0l-0.1-0.2l-0.2-0.7c0-0.1-0.2-0.1-0.2,0l-0.2,0.7l-0.1,0.2l-1,0c-0.1,0-0.2,0.2-0.1,0.2
			l0.8,0.6l-0.3,0.9c0,0.1,0.1,0.2,0.2,0.1l0.8-0.6l0.8,0.6c0.1,0.1,0.2,0,0.2-0.1l-0.3-0.9l0.8-0.6
			C154.9,104.6,154.8,104.5,154.7,104.5z"/>
		<path class="st21" d="M154.7,100.5l-1,0l-0.1-0.2l-0.2-0.7c0-0.1-0.2-0.1-0.2,0l-0.2,0.7l-0.1,0.2l-1,0c-0.1,0-0.2,0.2-0.1,0.2
			l0.8,0.6l-0.3,0.9c0,0.1,0.1,0.2,0.2,0.1l0.8-0.6l0.8,0.6c0.1,0.1,0.2,0,0.2-0.1l-0.3-0.9l0.8-0.6
			C154.9,100.6,154.8,100.5,154.7,100.5z"/>
		<path class="st21" d="M154.7,96.5l-1,0l-0.1-0.2l-0.2-0.7c0-0.1-0.2-0.1-0.2,0l-0.2,0.7l-0.1,0.2l-1,0c-0.1,0-0.2,0.2-0.1,0.2
			l0.8,0.6l-0.3,0.9c0,0.1,0.1,0.2,0.2,0.1l0.8-0.6l0.8,0.6c0.1,0.1,0.2,0,0.2-0.1l-0.3-0.9l0.8-0.6
			C154.9,96.6,154.8,96.5,154.7,96.5z"/>
	</g>
	<g class="st1">
		<path class="st21" d="M150.7,104.5l-1,0l-0.1-0.2l-0.2-0.7c0-0.1-0.2-0.1-0.2,0l-0.2,0.7l-0.1,0.2l-1,0c-0.1,0-0.2,0.2-0.1,0.2
			l0.8,0.6l-0.3,0.9c0,0.1,0.1,0.2,0.2,0.1l0.8-0.6l0.8,0.6c0.1,0.1,0.2,0,0.2-0.1l-0.3-0.9l0.8-0.6
			C150.9,104.6,150.8,104.5,150.7,104.5z"/>
		<path class="st21" d="M150.7,100.5l-1,0l-0.1-0.2l-0.2-0.7c0-0.1-0.2-0.1-0.2,0l-0.2,0.7l-0.1,0.2l-1,0c-0.1,0-0.2,0.2-0.1,0.2
			l0.8,0.6l-0.3,0.9c0,0.1,0.1,0.2,0.2,0.1l0.8-0.6l0.8,0.6c0.1,0.1,0.2,0,0.2-0.1l-0.3-0.9l0.8-0.6
			C150.9,100.6,150.8,100.5,150.7,100.5z"/>
		<path class="st21" d="M150.7,96.5l-1,0l-0.1-0.2l-0.2-0.7c0-0.1-0.2-0.1-0.2,0l-0.2,0.7l-0.1,0.2l-1,0c-0.1,0-0.2,0.2-0.1,0.2
			l0.8,0.6l-0.3,0.9c0,0.1,0.1,0.2,0.2,0.1l0.8-0.6l0.8,0.6c0.1,0.1,0.2,0,0.2-0.1l-0.3-0.9l0.8-0.6
			C150.9,96.6,150.8,96.5,150.7,96.5z"/>
	</g>
</g>
<g class="st0">
	<g class="st1">
		<path class="st2" d="M200.8,155.4c0,0-0.1-0.1-0.1-0.1c-0.2-0.2-0.8-0.8-4.6-0.4c-0.3,0-0.6,0.3-0.7,0.6c-0.1,0.1-0.2,0.3-0.5,0.4
			c-1.1,0.2-10.5,0.3-12.1-0.2c-0.1-0.2-0.2-0.3-0.4-0.5c-0.8-0.6-2-0.5-2.3-0.5c-0.2,0-0.4,0.1-0.5,0.3c0,0-0.1,0.1-0.2,0.3
			c-0.3,0.4-0.5,0.6-0.7,0.8c0-0.1,0-0.2,0-0.3c0-0.1,0-0.3,0.1-0.4c0.4-1.3-2.2-3.4-2.7-3.8c-0.8-0.5-1.4-0.7-1.9-0.6
			c-0.6,0.1-3.2-0.8-5.3-1.7c-0.1,0-0.2-0.1-0.3-0.1h-30c-0.4,0-0.7,0.3-0.8,0.7c0,0-0.1,0.7-0.2,1.3l0,0.1c0,0.3-0.1,0.4-0.1,0.4
			c-0.2,0.3-1,1.5-1,2.8V166c0,0.8,0.4,1.3,0.8,1.6c0.1,0.1,0.2,0.2,0.3,0.3c0.6,0.5,0.8,0.7,0.7,1.2c0,0,0,0.1,0,0.1
			c-0.1,1.6,1.5,3.2,2.6,4.1c0.3,0.2,0.5,0.4,0.6,0.6c0.2,0.2,0.5,0.6,0.7,0.9l0.4,0.5c1,1.3,1.6,1.9,2.3,1.7c0.1,0,0.2-0.1,0.3-0.1
			c0.8-0.2,1.1-0.2,1.4,0.1c0.9,1.1,4.2,1.8,5.3,1.9h0.8c0,0,0.1,0,0.2,0c0.7-0.1,2.6-0.4,3.6,0c0.2,0.1,0.4,0.2,0.4,0.3
			c0.1,0.5,0.3,1,0.7,1.5c0.6,1.1,1.5,1.8,1.5,1.9c0.2,0.2,0.4,0.2,0.6,0.2c0.2,0,0.4-0.2,0.5-0.4c0,0,0.5-0.8,0.7-1.4
			c0.4,0.2,0.8,0.9,1.2,2.1c0.1,0.3,0.2,0.7,0.4,1c0.4,0.9,1.1,1.7,2,2.4c0.9,0.7,1.7,1,1.7,1c0.2,0.1,0.5,0.1,0.7-0.1
			s0.3-0.4,0.3-0.6c0,0,0-0.4,0-0.9c0-0.6,0-1.4,0.1-2.1c0-0.2,0-0.4,0-0.6c0.1-0.6,2.5-1.6,3.4-1.8c0.2,0,1.1,0.4,1.7,0.6
			c2,0.8,2.8,1,3.3,0.6c0.2-0.2,0.4-0.4,0.4-0.7c0-0.2,0.8-0.8,1.2-1l0.3-0.2c0.1,0,0.2,0.1,0.3,0.2c0.2,0.2,0.5,0.5,0.7,0.7
			c0.4,0.4,0.7,0.8,1.1,0.8c0.1,0.4,0.3,0.8,0.4,1.3c0.2,0.6,0.3,1.2,0.4,1.7c0.1,0.5,0.1,0.8,0,1c0,0.4,0.1,0.8,0.4,1.4
			c0.3,0.6,1,1,2,1.1c0,0,0.3,0,0.7,0c0.6,0,1.4-0.1,1.7-0.4c0.3-0.3,0.5-1.1,0.5-2.4c0-0.5,0.1-1.5-0.1-2.3
			c-0.1-0.6-0.3-1.1-0.6-1.4c-0.1-0.1-0.4-0.8-0.6-2.1c-0.1-0.7-0.1-1.4,0-2c0.1-0.5,0.1-0.6,0.1-0.6c0.4-0.3,1.5-1.3,2.7-2.4
			c0.9-0.8,1.7-1.6,2.2-2.2c1.1-1.2,1.5-1.9,1.3-2.5c-0.1-0.3-0.3-0.5-0.6-0.7c-0.2-0.1-0.3-0.1-0.2-0.8c0-0.2,0.1-0.5,0.1-0.8
			c0.1-0.4,0.1-0.8,0.2-1.3c0-0.1,0-0.1,0-0.2c1,0,1.6-0.5,1.9-1.9c0.1-0.3,0.2-0.6,0.5-0.9c0.7-0.6,1.8-0.9,2.5-1.1
			c0.7-0.2,1.2-0.3,1.3-0.9c0.1-0.3-0.1-0.6-0.3-0.8c0,0,0,0-0.1-0.1c-0.1-0.4,0-1.1,0.4-1.4c0.1-0.1,0.3-0.3,0.5-0.4
			c0.3-0.2,0.7-0.5,1.1-0.8C200.3,157.4,201.4,156.3,200.8,155.4z M197.9,157.4c-0.4,0.3-0.7,0.6-1,0.8c-0.2,0.2-0.4,0.3-0.6,0.5
			c-0.9,0.7-1.1,2.1-0.9,3c-0.9,0.2-2.1,0.6-3,1.4c-0.5,0.5-0.8,1.1-1,1.7c-0.1,0.6-0.2,0.7-0.2,0.7H191c-0.6,0-1.4,0.1-1.6,1.6
			c0,0.4-0.1,0.8-0.2,1.2c-0.1,0.3-0.1,0.6-0.1,0.9c0,0.5-0.1,1.4,0.7,2c-0.1,0.2-0.4,0.5-0.8,1c-0.5,0.6-1.2,1.3-2.1,2.1
			c-1.2,1.1-2.3,2-2.7,2.3c-0.4,0.3-0.6,0.8-0.7,1.6c-0.1,0.6-0.1,1.5,0,2.3c0.1,0.8,0.4,2.3,1,2.9c0,0,0.1,0.1,0.2,0.6
			c0.1,0.5,0.1,1.2,0.1,2c0,0.7-0.1,1.2-0.2,1.4c-0.6,0.1-1.7,0-1.9-0.3c-0.2-0.4-0.2-0.5-0.2-0.5c0-0.4,0-0.8,0-1.4
			c-0.1-0.5-0.2-1.2-0.4-1.8c-0.7-2.7-1.3-2.6-1.6-2.6c0,0-0.1,0-0.1,0c0,0,0,0-0.1-0.1c-0.2-0.3-0.5-0.6-0.8-0.9
			c-1-0.9-1.7-0.6-2.1-0.4l-0.4,0.3c-0.6,0.4-1.3,0.9-1.6,1.5c-0.5-0.1-1.3-0.4-1.8-0.6c-1.5-0.6-2-0.7-2.4-0.7c0,0-4.6,1.1-4.7,3.2
			c0,0.2,0,0.4,0,0.6c0,0.6,0,1.3,0,1.9c-0.1-0.1-0.3-0.2-0.4-0.3c-0.7-0.6-1.3-1.2-1.6-1.9c-0.1-0.2-0.2-0.5-0.3-0.7
			c-0.4-1.5-1.1-2.6-1.9-3.1c-0.6-0.4-1.3-0.3-1.8,0.1c-0.1,0.1-0.2,0.2-0.2,0.3c-0.1,0.2-0.2,0.4-0.3,0.6c-0.2-0.2-0.4-0.5-0.6-0.8
			c-0.3-0.4-0.4-0.8-0.5-1.1c-0.1-0.4-0.4-1-1.3-1.3c-1.3-0.5-3.4-0.2-4.3,0h-0.6c-1.5-0.2-3.9-0.9-4.2-1.4
			c-0.9-1.1-2.2-0.8-2.9-0.7c0,0-0.1,0-0.1,0c-0.1-0.1-0.4-0.4-1-1.2l-0.4-0.5c-0.3-0.4-0.6-0.8-0.8-1c-0.2-0.2-0.4-0.4-0.8-0.7
			c-0.7-0.7-2.1-1.9-2-2.9c0.2-1.3-0.7-2-1.3-2.5c-0.1-0.1-0.2-0.1-0.3-0.2l0,0c-0.3-0.3-0.3-0.4-0.3-0.5v-11.2c0-1,0.7-2,0.7-2
			c0,0,0-0.1,0-0.1c0.1-0.2,0.2-0.4,0.2-0.8l0-0.2c0-0.2,0.1-0.5,0.1-0.7h2.1l0.2-0.5c0-0.2,0.3-0.2,0.3,0l0.2,0.5h4.9l0.2-0.5
			c0.1-0.2,0.3-0.2,0.3,0l0.2,0.5h4.9l0.2-0.5c0.1-0.2,0.3-0.2,0.3,0l0.2,0.5h4.8l0.2-0.5c0.1-0.2,0.3-0.2,0.3,0l0.2,0.5h9.8
			c2.3,0.9,5,1.9,6.1,1.7c0.1,0,0.3,0.1,0.6,0.3c1,0.7,1.9,1.8,2.1,2.2c0,0.2-0.1,0.4-0.1,0.5c-0.1,0.5,0,1.4,0.5,1.9
			c0.3,0.2,0.7,0.3,1.1,0.2c0.2-0.1,0.8-0.3,1.8-1.5c0,0,0,0,0,0c0.3,0,0.7,0,0.8,0.2c0.6,1.9,13.7,1,13.8,0.9
			c0.7-0.2,1.1-0.7,1.3-1c0.9-0.1,1.9-0.1,2.5,0C198.9,156.6,198.5,156.9,197.9,157.4z"/>
	</g>
	<g class="st1">
		<g>
			<line class="st20" x1="163.5" y1="182.9" x2="167" y2="182.9"/>
			<line class="st20" x1="181.4" y1="182.9" x2="185.1" y2="182.9"/>
			<line class="st20" x1="145" y1="176" x2="185.9" y2="176"/>
			<line class="st20" x1="140" y1="169.1" x2="189.4" y2="169.1"/>
			<line class="st20" x1="162" y1="162.2" x2="195.4" y2="162.2"/>
			<line class="st20" x1="162" y1="155.3" x2="177.4" y2="155.3"/>
		</g>
	</g>
	<g class="st1">
		<path class="st2" d="M138.8,150.2l-1.5,4.5l0.3,11.8H162c0.8,0,1.5-0.7,1.5-1.5v-14.8H138.8z M143.9,163.1l-1.1,0.8l0.4,1.3
			c0,0.2-0.1,0.3-0.3,0.2l-1.1-0.8l-1.1,0.8c-0.1,0.1-0.3,0-0.3-0.2l0.4-1.3l-1-0.8c-0.1-0.1-0.1-0.3,0.1-0.3l1.3,0l0.1-0.3l0.3-1
			c0-0.2,0.3-0.2,0.3,0l0.3,1l0.1,0.3l1.3,0C144,162.8,144.1,163,143.9,163.1z M143.9,157.6l-1.1,0.8l0.4,1.3c0,0.2-0.1,0.3-0.3,0.2
			l-1.1-0.8l-1.1,0.8c-0.1,0.1-0.3,0-0.3-0.2l0.4-1.3l-1-0.8c-0.1-0.1-0.1-0.3,0.1-0.3l1.3,0l0.1-0.3l0.3-0.9c0-0.2,0.3-0.2,0.3,0
			l0.3,0.9l0.1,0.3l1.3,0C144,157.3,144.1,157.5,143.9,157.6z M143.9,152.1l-1.1,0.8l0.4,1.3c0,0.2-0.1,0.3-0.3,0.2l-1.1-0.8
			l-1.1,0.8c-0.1,0.1-0.3,0-0.3-0.2l0.4-1.3l-1-0.8c-0.1-0.1-0.1-0.3,0.1-0.3l1.3,0l0.1-0.3l0.2-0.5l0.2-0.5c0-0.2,0.3-0.2,0.3,0
			l0.2,0.5l0.1,0.5l0.1,0.3l1.3,0C144,151.8,144.1,152,143.9,152.1z M149.5,163.1l-1.1,0.8l0.4,1.3c0.1,0.2-0.1,0.3-0.3,0.2
			l-1.1-0.8l-1.1,0.8c-0.1,0.1-0.3,0-0.3-0.2l0.4-1.3l-1.1-0.8c-0.1-0.1-0.1-0.3,0.1-0.3l1.3,0l0.1-0.3l0.3-1c0.1-0.2,0.3-0.2,0.3,0
			l0.3,1l0.1,0.3l1.3,0C149.5,162.8,149.6,163,149.5,163.1z M149.5,157.6l-1.1,0.8l0.4,1.3c0.1,0.2-0.1,0.3-0.3,0.2l-1.1-0.8
			l-1.1,0.8c-0.1,0.1-0.3,0-0.3-0.2l0.4-1.3l-1.1-0.8c-0.1-0.1-0.1-0.3,0.1-0.3l1.3,0l0.1-0.3l0.3-0.9c0.1-0.2,0.3-0.2,0.3,0
			l0.3,0.9l0.1,0.3l1.3,0C149.5,157.3,149.6,157.5,149.5,157.6z M149.5,152.1l-1.1,0.8l0.4,1.3c0.1,0.2-0.1,0.3-0.3,0.2l-1.1-0.8
			l-1.1,0.8c-0.1,0.1-0.3,0-0.3-0.2l0.4-1.3l-1.1-0.8c-0.1-0.1-0.1-0.3,0.1-0.3l1.3,0l0.1-0.3l0.2-0.5l0.2-0.5
			c0.1-0.2,0.3-0.2,0.3,0l0.2,0.5l0.2,0.5l0.1,0.3l1.3,0C149.5,151.8,149.6,152,149.5,152.1z M155,163.1l-1,0.8l0.4,1.3
			c0,0.2-0.1,0.3-0.3,0.2l-1.1-0.8l-1.1,0.8c-0.1,0.1-0.3,0-0.3-0.2l0.4-1.3l-1.1-0.8c-0.1-0.1-0.1-0.3,0.1-0.3l1.3,0l0.1-0.3l0.3-1
			c0.1-0.2,0.3-0.2,0.3,0l0.3,1l0.1,0.3l1.3,0C155,162.8,155.1,163,155,163.1z M155,157.6l-1,0.8l0.4,1.3c0,0.2-0.1,0.3-0.3,0.2
			l-1.1-0.8l-1.1,0.8c-0.1,0.1-0.3,0-0.3-0.2l0.4-1.3l-1.1-0.8c-0.1-0.1-0.1-0.3,0.1-0.3l1.3,0l0.1-0.3l0.3-0.9
			c0.1-0.2,0.3-0.2,0.3,0l0.3,0.9l0.1,0.3l1.3,0C155,157.3,155.1,157.5,155,157.6z M155,152.1l-1,0.8l0.4,1.3c0,0.2-0.1,0.3-0.3,0.2
			l-1.1-0.8l-1.1,0.8c-0.1,0.1-0.3,0-0.3-0.2l0.4-1.3l-1.1-0.8c-0.1-0.1-0.1-0.3,0.1-0.3l1.3,0l0.1-0.3l0.2-0.5l0.2-0.5
			c0.1-0.2,0.3-0.2,0.3,0l0.2,0.5l0.1,0.5l0.1,0.3l1.3,0C155,151.8,155.1,152,155,152.1z M160.5,163.1l-1.1,0.8l0.4,1.3
			c0.1,0.2-0.1,0.3-0.3,0.2l-1.1-0.8l-1.1,0.8c-0.1,0.1-0.3,0-0.3-0.2l0.4-1.3l-1.1-0.8c-0.1-0.1-0.1-0.3,0.1-0.3l1.3,0l0.1-0.3
			l0.3-1c0.1-0.2,0.3-0.2,0.3,0l0.3,1l0.1,0.3l1.3,0C160.6,162.8,160.7,163,160.5,163.1z M160.5,157.6l-1.1,0.8l0.4,1.3
			c0.1,0.2-0.1,0.3-0.3,0.2l-1.1-0.8l-1.1,0.8c-0.1,0.1-0.3,0-0.3-0.2l0.4-1.3l-1.1-0.8c-0.1-0.1-0.1-0.3,0.1-0.3l1.3,0l0.1-0.3
			l0.3-0.9c0.1-0.2,0.3-0.2,0.3,0l0.3,0.9l0.1,0.3l1.3,0C160.6,157.3,160.7,157.5,160.5,157.6z M159,151.4l0.1,0.3l1.3,0
			c0.2,0,0.2,0.2,0.1,0.3l-1.1,0.8l0.4,1.3c0.1,0.2-0.1,0.3-0.3,0.2l-1.1-0.8l-1.1,0.8c-0.1,0.1-0.3,0-0.3-0.2l0.4-1.3l-1.1-0.8
			c-0.1-0.1-0.1-0.3,0.1-0.3l1.3,0l0.1-0.3l0.1-0.5l0.2-0.5c0.1-0.2,0.3-0.2,0.3,0l0.2,0.5L159,151.4z"/>
	</g>
</g>
<g class="st0">
	<g class="st1">
		<g>
			<polygon class="st20" points="30.6,156.3 9.9,154.3 9.9,188.1 30.6,190.1 			"/>
			<polyline class="st20" points="9.9,154.3 14,151.4 34.7,153.4 30.6,156.3 			"/>
			<polyline class="st20" points="34.7,153.4 34.7,187.3 30.6,190.1 			"/>
		</g>
	</g>
	<g id="_x36__3_" class="st1">
		<path class="st22" d="M25.7,185.1l-11-1c-0.6,0-1-0.4-1-1v-22c0-0.6,0.4-1,1-1l11,1c0.6,0,1,0.4,1,1v22
			C26.7,184.6,26.2,185.1,25.7,185.1z"/>
		<path class="st15" d="M25.2,182.1l-10-1c-0.6,0-1-0.4-1-1v-17c0-0.6,0.4-1,1-1l10,1c0.6,0,1,0.4,1,1v17
			C26.2,181.6,25.7,182.1,25.2,182.1z"/>
		<circle class="st15" cx="19.9" cy="183.8" r="1"/>
	</g>
</g>
<g class="st0">
	<g class="st1">
		<polygon class="st20" points="-16,156.3 4.7,154.3 4.7,188.1 -16,190.1 		"/>
		<polyline class="st20" points="4.7,154.3 0.6,151.4 -20.1,153.4 -16,156.3 		"/>
		<polyline class="st20" points="-20.1,153.4 -20.1,187.3 -16,190.1 		"/>
	</g>
</g>
<g id="x_4_" class="st0">
	<path class="st23" d="M0.4,185.1l-12,1.1c-0.6,0-1-0.4-1-1v-25c0-0.6,0.4-1,1-1l12-1.1c0.6,0,1,0.4,1,1v25
		C1.4,184.6,0.9,185.1,0.4,185.1z"/>
	<path class="st24" d="M0.4,185.1l-12,1.1c-0.6,0-1-0.4-1-1v-25c0-0.6,0.4-1,1-1l12-1.1c0.6,0,1,0.4,1,1v25
		C1.4,184.6,0.9,185.1,0.4,185.1z"/>
	<path class="st8" d="M-2,159.8l-7.2,0.8c-0.6,0-1-0.4-1-1v-1.4l9.2-0.9v1.5C-1,159.4-1.5,159.8-2,159.8z"/>
</g>
<g class="st0">
	<ellipse class="st25" cx="30.3" cy="241.1" rx="8" ry="8"/>
	<line class="st25" x1="30.3" y1="241.1" x2="30.3" y2="233.1"/>
	<line class="st25" x1="30.3" y1="247" x2="30.3" y2="249.1"/>
	<line class="st25" x1="38.3" y1="241.1" x2="36.1" y2="241.1"/>
	<line class="st25" x1="24.4" y1="241.1" x2="22.3" y2="241.1"/>
	<line class="st25" x1="30.3" y1="241.1" x2="35.9" y2="235.5"/>
	<line class="st25" x1="26.1" y1="245.3" x2="24.6" y2="246.8"/>
	<line class="st25" x1="35.9" y1="246.8" x2="34.4" y2="245.3"/>
	<line class="st25" x1="26.1" y1="237" x2="24.6" y2="235.5"/>
</g>
<g class="st0">
	<line class="st18" x1="68.3" y1="51.1" x2="68.3" y2="52.1"/>
	<line class="st18" x1="71.3" y1="49.1" x2="71.3" y2="52.1"/>
	<line class="st18" x1="74.3" y1="46.1" x2="74.3" y2="52.1"/>
</g>
<g class="st0">
	<line class="st18" x1="201.3" y1="-47.8" x2="211.2" y2="-37.9"/>
	<line class="st18" x1="211.2" y1="-47.8" x2="201.3" y2="-37.9"/>
</g>
<g class="st0">
	<path class="st26" d="M191.1-45.3c0,0-0.5-0.5-0.6-0.6c-2-2-5.3-2.1-7.3,0c-2,2-2,5.3,0,7.4c2,2,5.3,2,7.4,0"/>
	<polyline class="st26" points="189.2,-45 191.5,-45 191.5,-47.3 	"/>
</g>
<g class="st0">
	<line class="st27" x1="137.3" y1="-32.9" x2="157.3" y2="-32.9"/>
	<line class="st27" x1="137.3" y1="-26.9" x2="157.3" y2="-26.9"/>
	<line class="st27" x1="137.3" y1="-20.9" x2="157.3" y2="-20.9"/>
</g>
<circle class="st28" cx="119.8" cy="-33.4" r="2"/>
<circle class="st28" cx="111.8" cy="-33.4" r="2"/>
<circle class="st28" cx="119.8" cy="-25.4" r="2"/>
<circle class="st28" cx="111.8" cy="-25.4" r="2"/>
</svg>
