<?xml version="1.0" encoding="utf-8"?>
<!-- Generator: Adobe Illustrator 22.0.0, SVG Export Plug-In . SVG Version: 6.00 Build 0)  -->
<svg version="1.1" id="_x2DC_รรฐ_x5F_1" xmlns="http://www.w3.org/2000/svg" xmlns:xlink="http://www.w3.org/1999/xlink" x="0px"
	 y="0px" viewBox="0 0 850 246.3" style="enable-background:new 0 0 850 246.3;" xml:space="preserve">
<style type="text/css">
	.st0{fill:#FFFFFF;}
</style>
<g>
	<path class="st0" d="M788.5,117.5v95c0,8.7-7.1,15.8-15.8,15.8h-738c-8.7,0-15.8-7.1-15.8-15.8V77.4c0-8.7,7.1-15.8,15.8-15.8
		h697.9c-0.1-1.6-0.2-3.2-0.2-4.9c0-3.1,0.2-6.1,0.7-9.1H34.7c-16.4,0-29.8,13.4-29.8,29.8v135.1c0,16.4,13.4,29.8,29.8,29.8h738
		c16.4,0,29.8-13.4,29.8-29.8V117c-3,0.4-6,0.7-9.1,0.7C791.7,117.7,790.1,117.6,788.5,117.5z"/>
	<polygon class="st0" points="139.2,183.9 139.2,107.7 65,107.7 65,183.9 86.9,183.9 86.9,129.6 117.3,129.6 117.3,183.9 	"/>
	<polygon class="st0" points="306.4,183.9 306.4,107.7 284.7,107.7 284.7,133.9 254.6,133.9 254.6,107.7 232.7,107.7 232.7,183.9 
		254.6,183.9 254.6,155.9 284.7,155.9 284.7,183.9 	"/>
	<polygon class="st0" points="360.2,183.9 360.2,129.6 385.7,129.6 385.7,107.7 312.9,107.7 312.9,129.6 338.3,129.6 338.3,183.9 	
		"/>
	<polygon class="st0" points="742.3,183.9 742.3,107.7 720.5,107.7 720.5,133.9 690.5,133.9 690.5,107.7 668.6,107.7 668.6,183.9 
		690.5,183.9 690.5,155.9 720.5,155.9 720.5,183.9 	"/>
	<path class="st0" d="M145.7,145.8c0,22.2,18.1,40.3,40.3,40.3s40.3-18.1,40.3-40.3c0-22.2-18.1-40.3-40.3-40.3
		S145.7,123.6,145.7,145.8z M206.2,145.8c0,11.1-9.1,20.2-20.2,20.2c-11.1,0-20.2-9.1-20.2-20.2c0-11.1,9.1-20.2,20.2-20.2
		C197.1,125.6,206.2,134.7,206.2,145.8z"/>
	<path class="st0" d="M425.9,186.1c22.2,0,40.3-18.1,40.3-40.3c0-22.2-18.1-40.3-40.3-40.3c-22.2,0-40.3,18.1-40.3,40.3
		C385.7,168,403.7,186.1,425.9,186.1z M425.9,125.6c11.1,0,20.2,9.1,20.2,20.2c0,11.1-9.1,20.2-20.2,20.2
		c-11.1,0-20.2-9.1-20.2-20.2C405.7,134.7,414.8,125.6,425.9,125.6z"/>
	<path class="st0" d="M581.6,145.8c0,22.2,18.1,40.3,40.3,40.3c22.2,0,40.3-18.1,40.3-40.3c0-22.2-18.1-40.3-40.3-40.3
		C599.6,105.5,581.6,123.6,581.6,145.8z M642,145.8c0,11.1-9.1,20.2-20.2,20.2c-11.1,0-20.2-9.1-20.2-20.2
		c0-11.1,9.1-20.2,20.2-20.2C633,125.6,642,134.7,642,145.8z"/>
	<path class="st0" d="M534.8,197.1v-11c22.2,0,40.2-18.1,40.2-40.3c0-22.2-18.1-40.3-40.2-40.3V92.8v-4.1l-21.9,4v6.1v6.7
		c-22.2,0-40.3,18.1-40.3,40.3c0,22.2,18.1,40.3,40.3,40.3v11H534.8z M534.8,125.6c11.1,0,20.2,9.1,20.2,20.2
		c0,11.1-9.1,20.2-20.2,20.2V125.6z M492.7,145.8c0-11.1,9.1-20.2,20.2-20.2V166C501.8,166,492.7,157,492.7,145.8z"/>
	<path class="st0" d="M793.4,5.5c-28.2,0-51.1,22.9-51.1,51.1c0,28.2,22.9,51.1,51.1,51.1c28.2,0,51.1-22.9,51.1-51.1
		C844.5,28.4,821.6,5.5,793.4,5.5z M791.9,32.6c1.9-5.3,7.2-9.9,15-9.9c0,9.2-6.5,15.1-13,15.6C790.4,38.9,790.4,36,791.9,32.6z
		 M793.4,81.4c-8.7,0-16.9-5.2-21-13.2c-3.8-7.6-3.2-16.1,1.7-22.7c0.2-0.3,0.5-0.6,0.7-0.9c2-2.3,4.9-3.9,8-4.2
		c2.6-0.3,5,0.7,7.5,1.3c0.7,0.2,1.3,0.3,2,0.4c2,0.2,4.1-0.3,6-1c1.8-0.6,3.7-0.8,5.6-0.7c3.6,0.3,6.7,2.2,8.9,5.1
		c0.4,0.6,0.8,1.2,1.1,1.7c-3.1,2.4-5.1,6.3-5.1,10.8c0,4.5,2.1,8.5,5.3,10.9C809.8,76.5,801.8,81.4,793.4,81.4z"/>
</g>
</svg>
