<?xml version="1.0" encoding="utf-8"?>
<!-- Generator: Adobe Illustrator 22.0.0, SVG Export Plug-In . SVG Version: 6.00 Build 0)  -->
<svg version="1.1" id="_x2DC_รรฐ_x5F_1" xmlns="http://www.w3.org/2000/svg" xmlns:xlink="http://www.w3.org/1999/xlink" x="0px"
	 y="0px" viewBox="0 0 931 324.3" style="enable-background:new 0 0 931 324.3;" xml:space="preserve">
<style type="text/css">
	.st0{fill:#282E3A;}
	.st1{fill:#FF0669;}
	.st2{fill:#FFFFFF;}
</style>
<g>
	<g>
		<path class="st0" d="M778.7,136.5c8.7,0,15.8,7.1,15.8,15.8v135.1c0,8.7-7.1,15.8-15.8,15.8h-738c-8.7,0-15.8-7.1-15.8-15.8V152.4
			c0-8.7,7.1-15.8,15.8-15.8H778.7 M778.7,122.5h-738c-16.4,0-29.8,13.4-29.8,29.8v135.1c0,16.4,13.4,29.8,29.8,29.8h738
			c16.4,0,29.8-13.4,29.8-29.8V152.4C808.5,135.9,795.1,122.5,778.7,122.5L778.7,122.5z"/>
	</g>
	<g>
		<polygon class="st0" points="71,258.9 92.9,258.9 92.9,204.6 123.3,204.6 123.3,258.9 145.2,258.9 145.2,182.7 71,182.7 		"/>
		<polygon class="st0" points="290.7,208.9 260.6,208.9 260.6,182.7 238.7,182.7 238.7,258.9 260.6,258.9 260.6,230.9 290.7,230.9 
			290.7,258.9 312.5,258.9 312.5,182.7 290.7,182.7 		"/>
		<polygon class="st0" points="391.7,182.7 318.9,182.7 318.9,204.6 344.3,204.6 344.3,258.9 366.3,258.9 366.3,204.6 391.7,204.6 
					"/>
		<polygon class="st0" points="726.5,182.7 726.5,208.9 696.5,208.9 696.5,182.7 674.6,182.7 674.6,258.9 696.5,258.9 696.5,230.9 
			726.5,230.9 726.5,258.9 748.3,258.9 748.3,182.7 		"/>
		<path class="st0" d="M192,180.5c-22.2,0-40.3,18.1-40.3,40.3c0,22.2,18.1,40.3,40.3,40.3s40.3-18.1,40.3-40.3
			C232.2,198.6,214.2,180.5,192,180.5z M192,241c-11.1,0-20.2-9.1-20.2-20.2c0-11.1,9.1-20.2,20.2-20.2c11.1,0,20.2,9.1,20.2,20.2
			C212.2,232,203.1,241,192,241z"/>
		<path class="st0" d="M431.9,180.5c-22.2,0-40.3,18.1-40.3,40.3c0,22.2,18.1,40.3,40.3,40.3c22.2,0,40.3-18.1,40.3-40.3
			C472.2,198.6,454.1,180.5,431.9,180.5z M431.9,241c-11.1,0-20.2-9.1-20.2-20.2c0-11.1,9.1-20.2,20.2-20.2
			c11.1,0,20.2,9.1,20.2,20.2C452.1,232,443.1,241,431.9,241z"/>
		<path class="st0" d="M627.8,180.5c-22.2,0-40.3,18.1-40.3,40.3c0,22.2,18.1,40.3,40.3,40.3c22.2,0,40.3-18.1,40.3-40.3
			C668.1,198.6,650,180.5,627.8,180.5z M627.8,241c-11.1,0-20.2-9.1-20.2-20.2c0-11.1,9.1-20.2,20.2-20.2c11.1,0,20.2,9.1,20.2,20.2
			C648,232,639,241,627.8,241z"/>
		<path class="st0" d="M540.8,180.6v-12.7v-4.1l-21.9,4v6.1v6.7c-22.2,0-40.3,18.1-40.3,40.3c0,22.2,18.1,40.3,40.3,40.3v11h21.9
			v-11c22.2,0,40.2-18.1,40.2-40.3C581.1,198.6,563,180.6,540.8,180.6z M498.7,220.8c0-11.1,9.1-20.2,20.2-20.2V241
			C507.8,241,498.7,232,498.7,220.8z M540.8,241v-40.4c11.1,0,20.2,9.1,20.2,20.2C561,231.9,552,241,540.8,241z"/>
	</g>
	<g>
		
			<image style="overflow:visible;opacity:0.35;" width="282" height="284" xlink:href="928D26F.png"  transform="matrix(0.963 0 0 0.963 643.8468 15.4545)">
		</image>
		<g>
			<circle class="st1" cx="799.4" cy="131.6" r="51.1"/>
		</g>
	</g>
	<g>
		<path class="st2" d="M797.9,107.6c1.9-5.3,7.2-9.9,15-9.9c0,9.2-6.5,15.1-13,15.6C796.5,113.9,796.4,111,797.9,107.6z"/>
		<path class="st2" d="M814.7,133c0-4.5,2-8.4,5.1-10.8c-0.4-0.6-0.7-1.2-1.1-1.7c-2.1-2.9-5.2-4.9-8.9-5.1
			c-1.9-0.1-3.8,0.1-5.6,0.7c-1.9,0.7-3.9,1.2-6,1c-0.7-0.1-1.4-0.2-2-0.4c-2.5-0.6-4.9-1.6-7.5-1.3c-3.1,0.4-6,1.9-8,4.2
			c-0.3,0.3-0.5,0.6-0.7,0.9c-4.9,6.6-5.5,15.1-1.7,22.7c4.1,8,12.3,13.2,21,13.2c8.4,0,16.4-4.9,20.6-12.5
			C816.8,141.5,814.7,137.5,814.7,133z"/>
	</g>
</g>
</svg>
