<?xml version="1.0" encoding="utf-8"?>
<!-- Generator: Adobe Illustrator 22.0.0, SVG Export Plug-In . SVG Version: 6.00 Build 0)  -->
<svg version="1.1" id="Layer_1" xmlns="http://www.w3.org/2000/svg" xmlns:xlink="http://www.w3.org/1999/xlink" x="0px" y="0px"
	 viewBox="0 0 53.9 55.7" style="enable-background:new 0 0 53.9 55.7;" xml:space="preserve">
<style type="text/css">
	.st0{display:none;}
	.st1{display:inline;}
	.st2{fill:#282D3A;}
	.st3{fill:#85888B;}
	.st4{display:none;fill:none;stroke:#FFFFFF;stroke-width:2;stroke-linecap:round;stroke-linejoin:round;stroke-miterlimit:10;}
	.st5{display:inline;fill:none;stroke:#282D3A;stroke-width:1.5;stroke-linejoin:round;stroke-miterlimit:10;}
	.st6{display:inline;fill:#282D3A;}
	.st7{opacity:0.66;}
	.st8{fill:#FF005F;}
	.st9{fill:none;stroke:#FFFFFF;stroke-width:2;stroke-linecap:round;stroke-linejoin:round;stroke-miterlimit:10;}
	.st10{fill:#FFFFFF;}
	.st11{font-family:'SFUIText-Bold';}
	.st12{font-size:12px;}
	.st13{fill:none;stroke:#282D3A;stroke-width:1.5;stroke-linecap:round;stroke-linejoin:round;stroke-miterlimit:10;}
	.st14{fill:#F5F5F5;}
	.st15{display:inline;fill:none;stroke:#282D3A;stroke-linecap:round;stroke-linejoin:round;stroke-miterlimit:10;}
	
		.st16{display:inline;fill:none;stroke:#282D3A;stroke-width:1.5;stroke-linecap:round;stroke-linejoin:round;stroke-miterlimit:10;}
	
		.st17{display:inline;fill:none;stroke:#000000;stroke-width:1.5;stroke-linecap:round;stroke-linejoin:round;stroke-miterlimit:10;}
	.st18{display:inline;fill:none;stroke:#282D3A;stroke-width:2;stroke-linecap:round;stroke-linejoin:round;stroke-miterlimit:10;}
	.st19{display:none;fill:#282D3A;}
	.st20{display:inline;fill:#FFFFFF;}
	.st21{font-size:10px;}
</style>
<g id="_x35_s" class="st0">
	<g class="st1">
		<path class="st2" d="M2.6,42.5h-10c-1.1,0-2,0.9-2,2v20c0,1.1,0.9,2,2,2h10c1.1,0,2-0.9,2-2v-20C4.6,43.4,3.7,42.5,2.6,42.5z
			 M-2.4,65.5c-0.5,0-1-0.4-1-1c0-0.5,0.5-1,1-1c0.6,0,1,0.5,1,1C-1.4,65-1.8,65.5-2.4,65.5z M3.1,61.5c0,0.4-0.2,0.7-0.5,0.9
			c-0.1,0.1-0.3,0.1-0.5,0.1h-9c-0.2,0-0.3,0-0.5-0.1c-0.3-0.2-0.5-0.5-0.5-0.9v-15c0-0.4,0.2-0.7,0.5-0.9c0.2-0.1,0.3-0.1,0.5-0.1
			h9c0.2,0,0.4,0,0.5,0.1c0.3,0.2,0.5,0.5,0.5,0.9V61.5z"/>
	</g>
</g>
<g id="_x36_" class="st0">
	<g class="st1">
		<path class="st2" d="M3.3,41.7h-11c-1.1,0-2,0.9-2,2v22c0,1.1,0.9,2,2,2h11c1.1,0,2-0.9,2-2v-22C5.3,42.6,4.4,41.7,3.3,41.7z
			 M-2.2,66.7c-0.6,0-1-0.5-1-1c0-0.6,0.4-1,1-1c0.5,0,1,0.4,1,1C-1.2,66.3-1.6,66.7-2.2,66.7z M3.8,62.7c0,0.4-0.2,0.7-0.5,0.9
			c-0.2,0.1-0.3,0.1-0.5,0.1h-10c-0.2,0-0.4,0-0.5-0.1c-0.3-0.2-0.5-0.5-0.5-0.9v-17c0-0.4,0.2-0.7,0.5-0.9c0.1-0.1,0.3-0.1,0.5-0.1
			h10c0.2,0,0.3,0,0.5,0.1c0.3,0.2,0.5,0.5,0.5,0.9V62.7z"/>
	</g>
</g>
<g id="plus" class="st0">
	<g id="_x36__2_" class="st1">
		<g>
			<path class="st2" d="M9.4,39.7H-3.8c-1.1,0-2,0.9-2,2v1h4c0.4,0,0.8,0.1,1.1,0.3h9.5c0.2,0,0.4,0.1,0.6,0.2
				c0.3,0.2,0.4,0.5,0.4,0.8v20.2c0,0.3-0.2,0.6-0.4,0.8c-0.2,0.1-0.4,0.2-0.6,0.2H0.2v3.5c0,0.5-0.4,1-1,1H9.4c1.1,0,2-0.9,2-2v-26
				C11.4,40.6,10.5,39.7,9.4,39.7z M4,67.7c-0.1,0.6-0.6,1-1.2,1c-0.6,0-1.1-0.4-1.2-1c0-0.1,0-0.1,0-0.2c0-0.6,0.5-1.2,1.2-1.2
				c0.7,0,1.2,0.5,1.2,1.2C4,67.6,4,67.7,4,67.7z"/>
		</g>
	</g>
	<g id="_x36__1_" class="st1">
		<g>
			<path class="st2" d="M-2.8,43.7h-11c-0.3,0-0.6,0.1-0.8,0.2c-0.7,0.3-1.2,1-1.2,1.8v22c0,1.1,0.9,2,2,2h11c0.7,0,1.4-0.4,1.7-1
				c0.2-0.3,0.3-0.6,0.3-1v-22C-0.8,44.6-1.7,43.7-2.8,43.7z M-8.3,68.7c-0.5,0-1-0.5-1-1s0.5-1,1-1c0.6,0,1,0.5,1,1
				S-7.7,68.7-8.3,68.7z M-2.3,64.7c0,0.2,0,0.3-0.1,0.5c-0.1,0.2-0.2,0.3-0.4,0.4c-0.1,0.1-0.3,0.1-0.5,0.1h-10
				c-0.2,0-0.3,0-0.5-0.1c-0.3-0.2-0.5-0.5-0.5-0.9v-17c0-0.4,0.2-0.7,0.5-0.9c0.2-0.1,0.3-0.1,0.5-0.1h10c0.2,0,0.4,0,0.5,0.1
				c0.3,0.2,0.5,0.5,0.5,0.9V64.7z"/>
		</g>
	</g>
</g>
<g id="x" class="st0">
	<g class="st1">
		<path class="st2" d="M3.8,41.7h-12c-1.1,0-2,0.9-2,2v23c0,1.1,0.9,2,2,2h12c1.1,0,2-0.9,2-2v-23C5.8,42.6,4.9,41.7,3.8,41.7z
			 M4.8,66.7c0,0.6-0.5,1-1,1h-12c-0.6,0-1-0.4-1-1v-23c0-0.5,0.4-1,1-1h1.4V43c0,0.3,0.1,0.5,0.3,0.7c0.2,0.2,0.4,0.3,0.7,0.3h7.2
			c0.3,0,0.5-0.1,0.7-0.3c0.2-0.2,0.3-0.4,0.3-0.7v-0.3h1.4c0.5,0,1,0.5,1,1V66.7z"/>
	</g>
</g>
<g id="all" class="st0">
	<g id="_x35_s_1_" class="st1">
		<g>
			<path class="st2" d="M-6.2,67.8v-3h-6.5c-0.2,0-0.4,0-0.5-0.1c-0.3-0.2-0.5-0.5-0.5-0.9v-15c0-0.4,0.2-0.7,0.5-0.9
				c0.1-0.1,0.3-0.1,0.5-0.1h6.5v-3h-7c-1.1,0-2,0.9-2,2v20c0,1.1,0.9,2,2,2h8C-5.7,68.8-6.2,68.3-6.2,67.8z M-8.2,67.8
				c-0.6,0-1-0.5-1-1c0-0.6,0.4-1,1-1c0.5,0,1,0.4,1,1C-7.2,67.3-7.6,67.8-8.2,67.8z"/>
		</g>
	</g>
	<g id="x_2_" class="st1">
		<g>
			<path class="st2" d="M8.8,41.8h-12c-1.1,0-2,0.9-2,2v23c0,0.4,0.1,0.7,0.3,1c0.3,0.6,1,1,1.7,1h12c1.1,0,2-0.9,2-2v-23
				C10.8,42.7,9.9,41.8,8.8,41.8z M9.8,66.8c0,0.5-0.5,1-1,1h-12c-0.6,0-1-0.5-1-1v-23c0-0.6,0.4-1,1-1h1.4v0.3
				c0,0.3,0.1,0.5,0.3,0.7c0.2,0.2,0.4,0.3,0.7,0.3h7.2c0.3,0,0.5-0.1,0.7-0.3c0.2-0.2,0.3-0.4,0.3-0.7v-0.3h1.4c0.5,0,1,0.4,1,1
				V66.8z"/>
		</g>
	</g>
</g>
<g id="x_1_" class="st0">
	<g class="st1">
		<path class="st3" d="M3.8,42.3h-12c-1.1,0-2,0.9-2,2v23c0,1.1,0.9,2,2,2h12c1.1,0,2-0.9,2-2v-23C5.8,43.2,4.9,42.3,3.8,42.3z
			 M4.8,67.3c0,0.5-0.5,1-1,1h-12c-0.6,0-1-0.5-1-1v-23c0-0.6,0.4-1,1-1h1.4v0.3c0,0.3,0.1,0.5,0.3,0.7c0.2,0.2,0.4,0.3,0.7,0.3h7.2
			c0.3,0,0.5-0.1,0.7-0.3c0.2-0.2,0.3-0.4,0.3-0.7v-0.3h1.4c0.5,0,1,0.4,1,1V67.3z"/>
	</g>
</g>
<circle class="st0" cx="23.1" cy="166.3" r="10"/>
<polyline class="st4" points="19.3,106.3 22.4,109.7 26.4,101.9 "/>
<g id="x_3_" class="st0">
	<path class="st5" d="M86.9,170.7H67.3c-0.6,0-1-0.4-1-1v-36.6c0-0.6,0.4-1,1-1h19.6c0.6,0,1,0.4,1,1v36.6
		C87.9,170.3,87.5,170.7,86.9,170.7z"/>
	<path class="st6" d="M83.2,135H71c-0.6,0-1-0.4-1-1v-2.5h14.2v2.5C84.2,134.6,83.8,135,83.2,135z"/>
</g>
<g id="icon1" class="st0">
	<g class="st1">
		<g>
			<g>
				<g>
					<path class="st2" d="M26,38.2L26,38.2C26,38.1,26,38.1,26,38.2c0-0.1-0.1-0.2-0.1-0.2c0,0,0,0,0-0.1c0,0-0.1-0.1-0.1-0.1
						c-0.1,0-0.1-0.1-0.2-0.1c-0.1,0-0.1,0-0.2-0.1c0,0,0,0-0.1,0h0l-20.7-2c-0.2,0-0.3,0-0.5,0.1L0,38.5l0,0
						c-0.1,0.1-0.2,0.2-0.3,0.4c0,0,0,0.1,0,0.1c0,0,0,0.1,0,0.2v33.9c0,0.4,0.3,0.7,0.7,0.7l20.6,2c0.1,0,0.1,0,0.2,0
						c0.1,0,0.1,0,0.2,0c0.1,0,0.1-0.1,0.2-0.1l4.1-2.8c0.2-0.1,0.3-0.4,0.3-0.6V38.3C26,38.3,26,38.2,26,38.2z M4.7,37.1l18.4,1.8
						l-2.2,1.5L2.5,38.6L4.7,37.1z M20.4,74.2L1.1,72.4V40l19.3,1.8V74.2z M24.5,71.8l-2.6,1.8v-32l2.6-1.8V71.8z"/>
					<path class="st2" d="M26,38.2C26,38.2,26,38.2,26,38.2S26,38.1,26,38.2C26,38.1,26,38.1,26,38.2z"/>
				</g>
			</g>
		</g>
		<g id="_x36__3_">
			<g>
				<path class="st2" d="M16.3,45L5.2,44c-1.1,0-2,0.9-2,2v22c0,1.1,0.9,2,1.9,2h0l11,1h0.1c1.1,0,2-0.9,2-2V47
					C18.2,45.9,17.3,45,16.3,45z M11,69.5L11,69.5c-0.2,0.1-0.4,0.2-0.6,0.2c-0.3,0-0.5-0.1-0.7-0.3c-0.2-0.2-0.3-0.4-0.3-0.7
					c0-0.1,0-0.2,0.1-0.3c0.1-0.4,0.5-0.7,0.9-0.7c0.5,0,0.9,0.4,1,0.8c0,0,0,0.1,0,0.2C11.4,69,11.3,69.3,11,69.5z M16.7,66
					c0,0.4-0.2,0.7-0.5,0.9C16,66.9,15.9,67,15.7,67l-10-1c-0.2,0-0.4,0-0.5-0.1c-0.3-0.2-0.5-0.5-0.5-0.9V48c0-0.3,0.2-0.6,0.4-0.8
					C5.3,47.1,5.5,47,5.7,47l10,1c0.2,0,0.3,0,0.5,0.1c0.3,0.2,0.5,0.5,0.5,0.9V66z"/>
			</g>
		</g>
	</g>
	<g class="st1">
		<g>
			<g>
				<path class="st2" d="M-30.3,38.1C-30.3,38.1-30.3,38.1-30.3,38.1C-30.3,38.2-30.3,38.2-30.3,38.1
					C-30.3,38.1-30.3,38.1-30.3,38.1z"/>
			</g>
			<g>
				<path class="st2" d="M-26.3,73.6l-2.6-1.8V39.8l2.6,1.8V73.6z M-4,39C-4,39-4,39-4,39c-0.1-0.2-0.2-0.4-0.3-0.5l0,0l-4.1-2.8
					c-0.2-0.1-0.3-0.1-0.5-0.1l-20.7,2h0c0,0,0,0-0.1,0c-0.1,0-0.2,0-0.2,0.1c-0.1,0-0.1,0.1-0.2,0.1c-0.1,0-0.1,0.1-0.1,0.1
					c0,0,0,0,0,0.1c0,0,0,0.1,0,0.1c0,0,0,0,0,0.1v0c0,0,0,0.1,0,0.1v33.9c0,0.3,0.1,0.5,0.3,0.6l4.1,2.8c0,0,0,0,0.1,0
					c0,0,0.1,0.1,0.1,0.1c0.1,0,0.1,0,0.2,0c0.1,0,0.1,0,0.2,0l20.6-2c0.4,0,0.7-0.4,0.7-0.7V39.2C-4,39.1-4,39.1-4,39z M-27.5,38.9
					l18.4-1.8l2.2,1.5l-18.4,1.8L-27.5,38.9z M-5.5,72.4l-19.3,1.9V41.9L-5.5,40V72.4z"/>
			</g>
		</g>
	</g>
	<g id="x_4_" class="st1">
		<g>
			<path class="st2" d="M-9.2,42L-9.2,42l-11.9,1.1c-1.1,0-2,0.9-2,2v25c0,1.1,0.9,2,2.1,2h0l12-1.1c1.1,0,2-0.9,2-2V44
				C-7.1,42.9-8,42-9.2,42z M-8.1,69c0,0.5-0.5,1-1,1l-12,1.1c-0.6,0-1-0.5-1-1v-25c0-0.6,0.4-1,1-1l1.4-0.1v0.5
				c0,0.2,0,0.3,0.1,0.5c0.2,0.3,0.5,0.5,0.9,0.5l7.2-0.8c0.4,0,0.8-0.3,0.9-0.6c0-0.1,0.1-0.3,0.1-0.4v-0.6l1.4-0.1
				c0.5,0,1,0.5,1,1V69z"/>
		</g>
	</g>
	<g class="st1">
		<g class="st7">
			
				<image style="overflow:visible;" width="92" height="92" xlink:href="9F3D513B.png"  transform="matrix(1 0 0 1 -23.0625 -11.1875)">
			</image>
		</g>
		<circle class="st8" cx="22.9" cy="34.8" r="10"/>
		<polyline class="st9" points="19.4,36.3 22.5,38.7 27.5,30.9 		"/>
	</g>
</g>
<g id="icon2" class="st0">
	<g class="st1">
		<path class="st2" d="M4.4,68.7L4,68.5c-0.2-0.1-18-9.2-17.6-36.4l0-0.7l0.7-0.1c0.1,0,7.8-0.9,16.8-6.2l0.4-0.2l0.4,0.2
			c9,5.4,16.8,6.2,16.9,6.2l0.7,0.1l0,0.7C22.7,59.3,4.9,68.4,4.7,68.5L4.4,68.7z M-12,32.8C-12.1,56.4,2,65.6,4.4,67
			c2.4-1.4,16.5-10.5,16.4-34.2c-2.1-0.3-8.7-1.6-16.4-6.1C-3.3,31.2-9.9,32.5-12,32.8z"/>
	</g>
	<g class="st1">
		<path class="st2" d="M14.8,36.9C15.1,53.3,4.4,59.6,4.4,59.6S-6.3,53.3-6.1,36.9c0,0,4.8-0.5,10.4-3.9
			C10,36.4,14.8,36.9,14.8,36.9z"/>
	</g>
	<g class="st1">
		<g class="st7">
			
				<image style="overflow:visible;" width="92" height="92" xlink:href="9F3D5139.png"  transform="matrix(1 0 0 1 -23.0625 -17.1875)">
			</image>
		</g>
		<circle class="st8" cx="22.9" cy="28.8" r="10"/>
		<text transform="matrix(1 0 0 1 18.5928 32.6824)" class="st10 st11 st12">3</text>
	</g>
</g>
<g id="icon3" class="st0">
	<g class="st1">
		<g>
			<path class="st2" d="M45.3,26.8c0,0-0.1-0.1-0.1-0.1c-0.2-0.2-0.8-0.8-4.6-0.4c-0.3,0-0.6,0.3-0.7,0.6c-0.1,0.1-0.2,0.3-0.5,0.4
				c-1.1,0.2-10.5,0.3-12.1-0.2c-0.1-0.2-0.2-0.3-0.4-0.5c-0.8-0.6-2-0.5-2.3-0.5c-0.2,0-0.4,0.1-0.5,0.3c0,0-0.1,0.1-0.2,0.3
				c-0.3,0.4-0.5,0.6-0.7,0.8c0-0.1,0-0.2,0-0.3c0-0.1,0-0.3,0.1-0.4c0.4-1.3-2.2-3.4-2.7-3.8c-0.8-0.5-1.4-0.7-1.9-0.6
				c-0.6,0.1-3.2-0.8-5.2-1.7c-0.1,0-0.2-0.1-0.3-0.1h-30c-0.4,0-0.7,0.3-0.8,0.7c0,0-0.1,0.7-0.2,1.3l0,0.1c0,0.3-0.1,0.4-0.1,0.4
				c-0.2,0.3-1,1.5-1,2.8v11.2c0,0.8,0.4,1.3,0.8,1.6c0.1,0.1,0.2,0.2,0.3,0.3c0.6,0.5,0.8,0.7,0.7,1.2c0,0,0,0.1,0,0.1
				c-0.1,1.6,1.5,3.2,2.6,4.1c0.3,0.2,0.5,0.4,0.6,0.6c0.2,0.2,0.5,0.6,0.7,0.9l0.4,0.5c1,1.3,1.6,1.9,2.3,1.7
				c0.1,0,0.2-0.1,0.3-0.1c0.8-0.2,1.1-0.2,1.4,0.1c0.9,1.1,4.2,1.8,5.3,1.9h0.8c0,0,0.1,0,0.2,0c0.7-0.1,2.6-0.4,3.6,0
				c0.2,0.1,0.4,0.2,0.4,0.3c0.1,0.5,0.3,1,0.7,1.5C3.2,53.3,4,54,4,54.1c0.2,0.2,0.4,0.2,0.6,0.2c0.2,0,0.4-0.2,0.5-0.4
				c0,0,0.5-0.8,0.7-1.4c0.4,0.2,0.8,0.9,1.2,2.1c0.1,0.3,0.2,0.7,0.4,1c0.4,0.9,1.1,1.7,2,2.4c0.9,0.7,1.7,1,1.7,1
				c0.2,0.1,0.5,0.1,0.7-0.1s0.3-0.4,0.3-0.6c0,0,0-0.4,0-0.9c0-0.6,0-1.4,0.1-2.1c0-0.2,0-0.4,0-0.6c0.1-0.6,2.5-1.6,3.4-1.8
				c0.2,0,1.1,0.4,1.7,0.6c2,0.8,2.8,1,3.3,0.6c0.2-0.2,0.4-0.4,0.4-0.7c0-0.2,0.8-0.8,1.2-1l0.3-0.2c0.1,0,0.2,0.1,0.3,0.2
				c0.2,0.2,0.5,0.5,0.7,0.7c0.4,0.4,0.7,0.8,1.1,0.8c0.1,0.4,0.3,0.8,0.4,1.3c0.2,0.6,0.3,1.2,0.4,1.7c0.1,0.5,0.1,0.8,0,1
				c0,0.4,0.1,0.8,0.4,1.4c0.3,0.6,1,1,2,1.1c0,0,0.3,0,0.7,0c0.6,0,1.4-0.1,1.7-0.4c0.3-0.3,0.5-1.1,0.5-2.4c0-0.5,0.1-1.5-0.1-2.3
				c-0.1-0.6-0.3-1.1-0.6-1.4c-0.1-0.1-0.4-0.8-0.6-2.1c-0.1-0.7-0.1-1.4,0-2c0.1-0.5,0.1-0.6,0.1-0.6c0.4-0.3,1.5-1.3,2.7-2.4
				c0.9-0.8,1.7-1.6,2.2-2.2c1.1-1.2,1.5-1.9,1.3-2.5c-0.1-0.3-0.3-0.5-0.6-0.7c-0.2-0.1-0.3-0.1-0.2-0.8c0-0.2,0.1-0.5,0.1-0.8
				c0.1-0.4,0.1-0.8,0.2-1.3c0-0.1,0-0.1,0-0.2c1,0,1.6-0.5,1.9-1.9c0.1-0.3,0.2-0.6,0.5-0.9c0.7-0.6,1.8-0.9,2.5-1.1
				c0.7-0.2,1.2-0.3,1.3-0.9c0.1-0.3-0.1-0.6-0.3-0.8c0,0,0,0-0.1-0.1c-0.1-0.4,0-1.1,0.4-1.4c0.1-0.1,0.3-0.3,0.5-0.4
				c0.3-0.2,0.7-0.5,1.1-0.8C44.8,28.8,46,27.7,45.3,26.8z M42.4,28.8c-0.4,0.3-0.7,0.6-1,0.8c-0.2,0.2-0.4,0.3-0.6,0.5
				c-0.9,0.7-1.1,2.1-0.9,3c-0.9,0.2-2.1,0.6-3,1.4c-0.5,0.5-0.8,1.1-1,1.7c-0.1,0.6-0.2,0.7-0.2,0.7h-0.2c-0.6,0-1.4,0.1-1.6,1.6
				c0,0.4-0.1,0.8-0.2,1.2c-0.1,0.3-0.1,0.6-0.1,0.9c0,0.5-0.1,1.4,0.7,2c-0.1,0.2-0.4,0.5-0.8,1c-0.5,0.6-1.2,1.3-2.1,2.1
				c-1.2,1.1-2.3,2-2.7,2.3c-0.4,0.3-0.6,0.8-0.7,1.6c-0.1,0.6-0.1,1.5,0,2.3c0.1,0.8,0.4,2.3,1,2.9c0,0,0.1,0.1,0.2,0.6
				c0.1,0.5,0.1,1.2,0.1,2c0,0.7-0.1,1.2-0.2,1.4c-0.6,0.1-1.7,0-1.9-0.3C27.1,58.2,27,58,27,58c0-0.4,0-0.8,0-1.4
				c-0.1-0.5-0.2-1.2-0.4-1.8c-0.7-2.7-1.3-2.6-1.6-2.6c0,0-0.1,0-0.1,0c0,0,0,0-0.1-0.1c-0.2-0.3-0.5-0.6-0.8-0.9
				c-1-0.9-1.7-0.6-2.1-0.4l-0.4,0.3c-0.6,0.4-1.3,0.9-1.6,1.5c-0.5-0.1-1.3-0.4-1.8-0.6c-1.5-0.6-2-0.7-2.4-0.7
				c0,0-4.6,1.1-4.7,3.2c0,0.2,0,0.4,0,0.6c0,0.6,0,1.3,0,1.9c-0.1-0.1-0.3-0.2-0.4-0.3c-0.7-0.6-1.3-1.2-1.6-1.9
				c-0.1-0.2-0.2-0.5-0.3-0.7c-0.4-1.5-1.1-2.6-1.9-3.1c-0.6-0.4-1.3-0.3-1.8,0.1c-0.1,0.1-0.2,0.2-0.2,0.3
				c-0.1,0.2-0.2,0.4-0.3,0.6C4.2,52,4,51.7,3.8,51.4c-0.3-0.4-0.4-0.8-0.5-1.1c-0.1-0.4-0.4-1-1.3-1.3c-1.3-0.5-3.4-0.2-4.3,0H-3
				c-1.5-0.2-3.9-0.9-4.2-1.4c-0.9-1.1-2.2-0.8-2.9-0.7c0,0-0.1,0-0.1,0c-0.1-0.1-0.4-0.4-1-1.2l-0.4-0.5c-0.3-0.4-0.6-0.8-0.8-1
				c-0.2-0.2-0.4-0.4-0.8-0.7c-0.7-0.7-2.1-1.9-2-2.9c0.2-1.3-0.7-2-1.3-2.5c-0.1-0.1-0.2-0.1-0.3-0.2l0,0c-0.3-0.3-0.3-0.4-0.3-0.5
				V26.2c0-1,0.7-2,0.7-2c0,0,0-0.1,0-0.1c0.1-0.2,0.2-0.4,0.2-0.8l0-0.2c0-0.2,0.1-0.5,0.1-0.7h2.1l0.2-0.5c0-0.2,0.3-0.2,0.3,0
				l0.2,0.5h4.9l0.2-0.5c0.1-0.2,0.3-0.2,0.3,0l0.2,0.5h4.9l0.2-0.5c0.1-0.2,0.3-0.2,0.3,0l0.2,0.5h4.8l0.2-0.5
				c0.1-0.2,0.3-0.2,0.3,0l0.2,0.5h9.8c2.3,0.9,5,1.9,6.1,1.7c0.1,0,0.3,0.1,0.6,0.3c1,0.7,1.9,1.8,2.1,2.2c0,0.2-0.1,0.4-0.1,0.5
				c-0.1,0.5,0,1.4,0.5,1.9c0.3,0.2,0.7,0.3,1.1,0.2c0.2-0.1,0.8-0.3,1.8-1.5c0,0,0,0,0,0c0.3,0,0.7,0,0.8,0.2
				c0.6,1.9,13.7,1,13.8,0.9c0.7-0.2,1.1-0.7,1.3-1c0.9-0.1,1.9-0.1,2.5,0C43.4,27.9,43,28.3,42.4,28.8z"/>
		</g>
		<g>
			<g>
				<line class="st13" x1="8" y1="54.3" x2="11.6" y2="54.3"/>
				<line class="st13" x1="25.9" y1="54.3" x2="29.6" y2="54.3"/>
				<line class="st13" x1="-10.5" y1="47.4" x2="30.4" y2="47.4"/>
				<line class="st13" x1="-15.5" y1="40.5" x2="34" y2="40.5"/>
				<line class="st13" x1="6.5" y1="33.6" x2="40" y2="33.6"/>
				<line class="st13" x1="6.5" y1="26.7" x2="22" y2="26.7"/>
			</g>
		</g>
		<g>
			<path class="st2" d="M-16.7,21.6l-1.5,4.5l0.3,11.8H6.5c0.8,0,1.5-0.7,1.5-1.5V21.6H-16.7z M-11.5,34.5l-1.1,0.8l0.4,1.3
				c0,0.2-0.1,0.3-0.3,0.2l-1.1-0.8l-1.1,0.8c-0.1,0.1-0.3,0-0.3-0.2l0.4-1.3l-1-0.8c-0.1-0.1-0.1-0.3,0.1-0.3l1.3,0l0.1-0.3l0.3-1
				c0-0.2,0.3-0.2,0.3,0l0.3,1l0.1,0.3l1.3,0C-11.5,34.2-11.4,34.4-11.5,34.5z M-11.5,29l-1.1,0.8l0.4,1.3c0,0.2-0.1,0.3-0.3,0.2
				l-1.1-0.8l-1.1,0.8c-0.1,0.1-0.3,0-0.3-0.2l0.4-1.3l-1-0.8c-0.1-0.1-0.1-0.3,0.1-0.3l1.3,0l0.1-0.3l0.3-0.9c0-0.2,0.3-0.2,0.3,0
				l0.3,0.9l0.1,0.3l1.3,0C-11.5,28.6-11.4,28.9-11.5,29z M-11.5,23.4l-1.1,0.8l0.4,1.3c0,0.2-0.1,0.3-0.3,0.2l-1.1-0.8l-1.1,0.8
				c-0.1,0.1-0.3,0-0.3-0.2l0.4-1.3l-1-0.8c-0.1-0.1-0.1-0.3,0.1-0.3l1.3,0l0.1-0.3l0.2-0.5l0.2-0.5c0-0.2,0.3-0.2,0.3,0l0.2,0.5
				l0.1,0.5l0.1,0.3l1.3,0C-11.5,23.1-11.4,23.3-11.5,23.4z M-6,34.5l-1.1,0.8l0.4,1.3c0.1,0.2-0.1,0.3-0.3,0.2L-8,36l-1.1,0.8
				c-0.1,0.1-0.3,0-0.3-0.2l0.4-1.3l-1.1-0.8c-0.1-0.1-0.1-0.3,0.1-0.3l1.3,0l0.1-0.3l0.3-1c0.1-0.2,0.3-0.2,0.3,0l0.3,1l0.1,0.3
				l1.3,0C-6,34.2-5.9,34.4-6,34.5z M-6,29l-1.1,0.8l0.4,1.3c0.1,0.2-0.1,0.3-0.3,0.2L-8,30.4l-1.1,0.8c-0.1,0.1-0.3,0-0.3-0.2
				l0.4-1.3L-10,29c-0.1-0.1-0.1-0.3,0.1-0.3l1.3,0l0.1-0.3l0.3-0.9c0.1-0.2,0.3-0.2,0.3,0l0.3,0.9l0.1,0.3l1.3,0
				C-6,28.6-5.9,28.9-6,29z M-6,23.4l-1.1,0.8l0.4,1.3c0.1,0.2-0.1,0.3-0.3,0.2L-8,24.9l-1.1,0.8c-0.1,0.1-0.3,0-0.3-0.2l0.4-1.3
				l-1.1-0.8c-0.1-0.1-0.1-0.3,0.1-0.3l1.3,0l0.1-0.3l0.2-0.5l0.2-0.5c0.1-0.2,0.3-0.2,0.3,0l0.2,0.5l0.2,0.5l0.1,0.3l1.3,0
				C-6,23.1-5.9,23.3-6,23.4z M-0.5,34.5l-1,0.8l0.4,1.3c0,0.2-0.1,0.3-0.3,0.2L-2.5,36l-1.1,0.8c-0.1,0.1-0.3,0-0.3-0.2l0.4-1.3
				l-1.1-0.8c-0.1-0.1-0.1-0.3,0.1-0.3l1.3,0l0.1-0.3l0.3-1c0.1-0.2,0.3-0.2,0.3,0l0.3,1l0.1,0.3l1.3,0C-0.4,34.2-0.4,34.4-0.5,34.5
				z M-0.5,29l-1,0.8l0.4,1.3c0,0.2-0.1,0.3-0.3,0.2l-1.1-0.8l-1.1,0.8c-0.1,0.1-0.3,0-0.3-0.2l0.4-1.3L-4.5,29
				c-0.1-0.1-0.1-0.3,0.1-0.3l1.3,0l0.1-0.3l0.3-0.9c0.1-0.2,0.3-0.2,0.3,0l0.3,0.9l0.1,0.3l1.3,0C-0.4,28.6-0.4,28.9-0.5,29z
				 M-0.5,23.4l-1,0.8l0.4,1.3c0,0.2-0.1,0.3-0.3,0.2l-1.1-0.8l-1.1,0.8c-0.1,0.1-0.3,0-0.3-0.2l0.4-1.3l-1.1-0.8
				c-0.1-0.1-0.1-0.3,0.1-0.3l1.3,0l0.1-0.3l0.2-0.5l0.2-0.5c0.1-0.2,0.3-0.2,0.3,0l0.2,0.5l0.1,0.5l0.1,0.3l1.3,0
				C-0.4,23.1-0.4,23.3-0.5,23.4z M5,34.5L4,35.3l0.4,1.3c0.1,0.2-0.1,0.3-0.3,0.2L3,36L2,36.7c-0.1,0.1-0.3,0-0.3-0.2l0.4-1.3
				L1,34.5c-0.1-0.1-0.1-0.3,0.1-0.3l1.3,0l0.1-0.3l0.3-1c0.1-0.2,0.3-0.2,0.3,0l0.3,1l0.1,0.3l1.3,0C5.1,34.2,5.2,34.4,5,34.5z
				 M5,29L4,29.7L4.4,31c0.1,0.2-0.1,0.3-0.3,0.2L3,30.4L2,31.2c-0.1,0.1-0.3,0-0.3-0.2l0.4-1.3L1,29c-0.1-0.1-0.1-0.3,0.1-0.3
				l1.3,0l0.1-0.3l0.3-0.9c0.1-0.2,0.3-0.2,0.3,0l0.3,0.9l0.1,0.3l1.3,0C5.1,28.6,5.2,28.9,5,29z M3.5,22.8l0.1,0.3l1.3,0
				c0.2,0,0.2,0.2,0.1,0.3L4,24.2l0.4,1.3c0.1,0.2-0.1,0.3-0.3,0.2L3,24.9L2,25.7c-0.1,0.1-0.3,0-0.3-0.2l0.4-1.3L1,23.4
				c-0.1-0.1-0.1-0.3,0.1-0.3l1.3,0l0.1-0.3l0.1-0.5l0.2-0.5c0.1-0.2,0.3-0.2,0.3,0l0.2,0.5L3.5,22.8z"/>
		</g>
	</g>
	<g class="st1">
		<g class="st7">
			
				<image style="overflow:visible;" width="92" height="92" xlink:href="9F3D513F.png"  transform="matrix(1 0 0 1 -7.0625 -25.1875)">
			</image>
		</g>
		<circle class="st8" cx="38.9" cy="20.8" r="10"/>
		<path class="st14" d="M43.5,19.4l-3.2,0l-0.2-0.7l-0.8-2.3c-0.1-0.4-0.7-0.4-0.8,0l-0.8,2.3l-0.2,0.7l-3.2,0
			c-0.4,0-0.6,0.5-0.3,0.8l2.5,1.9l-1,3c-0.1,0.4,0.3,0.7,0.7,0.5l2.6-1.8l2.6,1.8c0.3,0.2,0.8-0.1,0.7-0.5l-1-3l2.5-1.9
			C44.1,19.9,43.9,19.4,43.5,19.4z"/>
	</g>
</g>
<g id="icon4">
	<g id="_x34_">
		<g>
			<g id="head">
				<g>
					<path class="st2" d="M27.5,20.8c-0.3,0-0.7-0.3-1-0.6c-0.3-0.3-0.5-0.8-0.7-1.3c-0.1-0.2-0.2-0.4-0.2-0.6l-0.1-0.1
						c0-0.1-0.1-0.2-0.1-0.4c0-0.1,0-0.2-0.1-0.3c-0.1-0.5-0.4-0.9-0.8-1.2c-0.4-0.3-0.8-0.4-1.2-0.4c-0.5,0-0.9,0.2-1.3,0.3
						c-0.1,0.1-0.3,0.1-0.4,0.2c-0.5,0.1-0.9,0.2-1.2,0.3c-0.8,0.1-1.6,0.2-2.4,0.2c-0.9,0-1.7-0.1-2.5-0.2
						c-0.4-0.1-0.8-0.2-1.2-0.3c-0.1,0-0.3-0.1-0.4-0.2c-0.6-0.2-1.5-0.6-2.4,0.1c-0.4,0.3-0.7,0.7-0.8,1.2c0,0.1,0,0.3-0.1,0.4
						c0,0.2,0,0.3-0.1,0.3c-0.1,0.1-0.1,0.3-0.2,0.4c0,0.1-0.1,0.2-0.1,0.4c-0.2,0.5-0.4,1-0.7,1.3c-0.3,0.3-0.8,0.6-1,0.6
						c-0.1-0.3-0.3-1-0.2-2.3c0-0.4,1-8.6,9.7-8.6s9.6,8.3,9.7,8.6C27.8,19.8,27.6,20.5,27.5,20.8z"/>
				</g>
			</g>
			<g>
				<path class="st2" d="M35.1,51.7L33,41.4c0-0.1-0.8-2.5-3.4-3.3l-5.5-1.7l-1.6-1.1v-1.1c2.8-1.6,4.8-4.6,4.8-8.1
					c0.1,0,0.2,0,0.3,0c1.7,0,3.1-1.4,3.1-3.1c0-1-0.5-2-1.3-2.5c0.1-0.5,0.1-1.3,0-2.2c0-0.1-1.1-10.1-11.3-10.1S6.7,18.2,6.7,18.3
					c-0.1,0.9-0.1,1.6,0,2.2C5.9,21.1,5.4,22,5.4,23c0,1.7,1.4,3.1,3.1,3.1c0.1,0,0.2,0,0.3,0c0,3.5,2,6.5,4.8,8.1v1.1L12,36.4
					l-5.5,1.7c-2.6,0.8-3.4,3.2-3.5,3.4L0.9,51.7c-0.2,1,0.1,1.7,0.4,2.2c0.9,1.1,2.5,1.3,2.7,1.3h4.2l19.3,0H32
					c0.2,0,1.8-0.2,2.7-1.3C35,53.5,35.3,52.8,35.1,51.7z M22.7,37.5l-1.3,3.4l-2.1-0.7l2.5-3.4h0L22.7,37.5z M18,39.3l-2.8-3.8
					v-0.6c0.9,0.3,1.8,0.4,2.8,0.4s1.9-0.2,2.8-0.4v0.6L18,39.3z M28.6,22.1c0.2,0.3,0.3,0.6,0.3,0.9c0,0.8-0.6,1.4-1.4,1.4
					c-0.1,0-0.2,0-0.3,0v-2c0.1,0,0.2,0,0.3,0C27.9,22.5,28.2,22.4,28.6,22.1L28.6,22.1z M8.7,24.4c-0.1,0-0.2,0-0.3,0
					C7.7,24.4,7,23.8,7,23c0-0.3,0.1-0.7,0.3-0.9l0.1,0.1c0.4,0.3,0.9,0.4,1.3,0.3V24.4z M9.6,20.3c-0.3,0.3-0.8,0.6-1,0.6
					c-0.1-0.3-0.3-1-0.2-2.3c0-0.4,1-8.6,9.7-8.6s9.6,8.3,9.7,8.6c0.1,1.3-0.1,2-0.2,2.3c-0.3,0-0.7-0.3-1-0.6
					c-0.3-0.3-0.5-0.8-0.7-1.3c-0.1-0.2-0.2-0.4-0.2-0.6l-0.1-0.1c0-0.1-0.1-0.2-0.1-0.4c0-0.1,0-0.2-0.1-0.3
					c-0.1-0.5-0.4-0.9-0.8-1.2c-0.4-0.3-0.8-0.4-1.2-0.4c-0.5,0-0.9,0.2-1.3,0.3c-0.1,0.1-0.3,0.1-0.4,0.2c-0.5,0.1-0.9,0.2-1.2,0.3
					c-0.8,0.1-1.6,0.2-2.4,0.2c-0.9,0-1.7-0.1-2.5-0.2c-0.4-0.1-0.8-0.2-1.2-0.3c-0.1,0-0.3-0.1-0.4-0.2c-0.6-0.2-1.5-0.6-2.4,0.1
					c-0.4,0.3-0.7,0.7-0.8,1.2c0,0.1,0,0.3-0.1,0.4c0,0.2,0,0.3-0.1,0.3c-0.1,0.1-0.1,0.3-0.2,0.4c0,0.1-0.1,0.2-0.1,0.4
					C10.1,19.5,9.9,19.9,9.6,20.3z M10.4,26v-4.3c0.2-0.1,0.3-0.2,0.3-0.3c0.5-0.5,0.8-1.2,1.1-1.8c0.1-0.1,0.1-0.3,0.2-0.4
					c0-0.1,0.1-0.2,0.2-0.4c0.1-0.3,0.1-0.5,0.2-0.7c0-0.1,0-0.2,0-0.3c0-0.1,0.1-0.1,0.1-0.2c0.2-0.1,0.3-0.1,0.8,0.1
					c0.2,0.1,0.4,0.1,0.6,0.2c0.4,0.1,0.9,0.3,1.4,0.4c0.9,0.1,1.8,0.2,2.8,0.2c0.9-0.1,1.8-0.1,2.7-0.3c0.4-0.1,0.8-0.2,1.4-0.4
					c0.2-0.1,0.4-0.1,0.6-0.2c0.6-0.2,0.7-0.2,0.8-0.1c0.1,0,0.1,0.1,0.1,0.2c0,0.1,0,0.2,0,0.2c0,0.2,0.1,0.5,0.2,0.8l0.1,0.1
					c0.1,0.2,0.2,0.4,0.3,0.7c0.3,0.6,0.6,1.3,1.1,1.8c0,0,0.1,0.1,0.3,0.3V26c0,4.2-3.4,7.6-7.6,7.6C13.8,33.6,10.4,30.2,10.4,26z
					 M14.2,36.9l2.5,3.3l-2.1,0.7l-1.3-3.4L14.2,36.9z M33.3,52.9c-0.3,0.5-1.2,0.6-1.4,0.7h-3.4v-6.3c0-0.5-0.4-0.8-0.8-0.8
					c-0.5,0-0.8,0.4-0.8,0.8v6.3H9.1v-6.3c0-0.5-0.4-0.8-0.8-0.8c-0.5,0-0.8,0.4-0.8,0.8v6.3H4.2c-0.2,0-1.1-0.2-1.5-0.7
					c-0.1-0.1-0.2-0.4-0.1-0.8l2-10.2c0,0,0.6-1.7,2.3-2.2l4.9-1.5l1.5,4.1c0.1,0.3,0.4,0.5,0.8,0.5c0.1,0,0.2,0,0.3,0l2.8-0.9v5.9
					c0,0.5,0.4,0.8,0.8,0.8c0.5,0,0.8-0.4,0.8-0.8v-5.9l2.8,0.9c0.1,0,0.2,0,0.3,0c0.3,0,0.7-0.2,0.8-0.5l1.5-4.1l4.9,1.5
					c0.9,0.3,1.4,0.8,1.8,1.3c0.4,0.5,0.5,0.9,0.5,0.9l2.1,10.3C33.5,52.5,33.4,52.8,33.3,52.9z"/>
				<path class="st2" d="M27.8,55.2C27.8,55.2,27.7,55.2,27.8,55.2c-0.1,0-0.1,0-0.2,0H27.8z"/>
			</g>
		</g>
		<g>
			<g>
				<circle class="st2" cx="15.3" cy="23.7" r="1.1"/>
			</g>
			<g>
				<circle class="st2" cx="20.8" cy="23.7" r="1.1"/>
			</g>
		</g>
		<g>
			<path class="st2" d="M20.9,28.4c0,1.1-1.3,2-2.9,2c-1.6,0-2.9-0.9-2.9-2c0-0.3,0.2-0.6,0.6-0.6c0.3,0,0.6,0.3,0.6,0.6
				c0,0.4,0.7,0.9,1.8,0.9c1,0,1.8-0.5,1.8-0.9c0-0.3,0.2-0.6,0.6-0.6C20.6,27.9,20.9,28.1,20.9,28.4z"/>
		</g>
	</g>
	<g>
		<g class="st7">
			
				<image style="overflow:visible;" width="92" height="92" xlink:href="9F3D5138.png"  transform="matrix(1 0 0 1 -9.0625 -29.1875)">
			</image>
		</g>
		<circle class="st8" cx="36.9" cy="16.8" r="10"/>
		<g>
			<path class="st10" d="M33.4,15h-1.4c-0.2,0-0.3,0.2-0.3,0.3v6.1c0,0.2,0.2,0.3,0.3,0.3h1.4c0.2,0,0.3-0.2,0.3-0.3v-6.1
				C33.8,15.2,33.6,15,33.4,15z"/>
			<path class="st10" d="M38.7,15l0.4-1c0.2-0.7,0.1-1.7-0.6-2.1c-0.2-0.1-0.5-0.2-0.8-0.1c-0.1,0-0.3,0.1-0.3,0.3
				c-0.1,0.1-0.1,0.3-0.1,0.5c-0.1,0.4-0.3,0.8-0.6,1.1c-0.5,0.5-2.2,2-2.2,2v5.4h5.7c0.8,0,1.3-0.9,0.9-1.5
				c0.5-0.3,0.6-0.9,0.3-1.4c0.5-0.3,0.6-0.9,0.3-1.4c0.8-0.5,0.5-1.7-0.4-1.9C41.2,15,38.7,15,38.7,15z"/>
		</g>
	</g>
</g>
<g class="st0">
	<ellipse class="st15" cx="18.9" cy="282.8" rx="8" ry="8"/>
	<line class="st15" x1="18.9" y1="282.8" x2="18.9" y2="274.8"/>
	<line class="st15" x1="18.9" y1="288.6" x2="18.9" y2="290.8"/>
	<line class="st15" x1="26.9" y1="282.8" x2="24.8" y2="282.8"/>
	<line class="st15" x1="13.1" y1="282.8" x2="10.9" y2="282.8"/>
	<line class="st15" x1="18.9" y1="282.8" x2="24.6" y2="277.2"/>
	<line class="st15" x1="14.8" y1="286.9" x2="13.3" y2="288.5"/>
	<line class="st15" x1="24.6" y1="288.5" x2="23.1" y2="286.9"/>
	<line class="st15" x1="14.8" y1="278.7" x2="13.3" y2="277.1"/>
</g>
<g class="st0">
	<line class="st16" x1="56.9" y1="92.8" x2="56.9" y2="93.8"/>
	<line class="st16" x1="59.9" y1="90.8" x2="59.9" y2="93.8"/>
	<line class="st16" x1="62.9" y1="87.8" x2="62.9" y2="93.8"/>
</g>
<g class="st0">
	<line class="st16" x1="190" y1="-6.1" x2="199.9" y2="3.8"/>
	<line class="st16" x1="199.9" y1="-6.1" x2="190" y2="3.8"/>
</g>
<g class="st0">
	<path class="st17" d="M179.8-3.7c0,0-0.5-0.5-0.6-0.6c-2-2-5.3-2.1-7.3,0c-2,2-2,5.3,0,7.4c2,2,5.3,2,7.4,0"/>
	<polyline class="st17" points="177.9,-3.3 180.2,-3.3 180.2,-5.6 	"/>
</g>
<g class="st0">
	<line class="st18" x1="125.9" y1="8.8" x2="145.9" y2="8.8"/>
	<line class="st18" x1="125.9" y1="14.8" x2="145.9" y2="14.8"/>
	<line class="st18" x1="125.9" y1="20.8" x2="145.9" y2="20.8"/>
</g>
<circle class="st19" cx="108.4" cy="8.3" r="2"/>
<circle class="st19" cx="100.4" cy="8.3" r="2"/>
<circle class="st19" cx="108.4" cy="16.3" r="2"/>
<circle class="st19" cx="100.4" cy="16.3" r="2"/>
<g id="skoro" class="st0">
	<path class="st6" d="M17.3,63.7h-39c-2.2,0-4-1.8-4-4v-8c0-2.2,1.8-4,4-4h39c2.2,0,4,1.8,4,4v8C21.3,61.9,19.5,63.7,17.3,63.7z"/>
	<text transform="matrix(1 0 0 1 -18.5303 58.5678)" class="st20 st11 st21">Скоро</text>
</g>
</svg>
