<?xml version="1.0" encoding="utf-8"?>
<!-- Generator: Adobe Illustrator 22.0.0, SVG Export Plug-In . SVG Version: 6.00 Build 0)  -->
<svg version="1.1" id="Layer_1" xmlns="http://www.w3.org/2000/svg" xmlns:xlink="http://www.w3.org/1999/xlink" x="0px" y="0px"
	 viewBox="0 0 75.8 57.6" style="enable-background:new 0 0 75.8 57.6;" xml:space="preserve">
<style type="text/css">
	.st0{display:none;}
	.st1{display:inline;}
	.st2{fill:#282D3A;}
	.st3{fill:#85888B;}
	.st4{display:none;fill:#B2B2B2;}
	.st5{display:none;fill:none;stroke:#FFFFFF;stroke-width:2;stroke-linecap:round;stroke-linejoin:round;stroke-miterlimit:10;}
	.st6{display:inline;fill:none;stroke:#282D3A;stroke-width:1.5;stroke-linejoin:round;stroke-miterlimit:10;}
	.st7{display:inline;fill:#282D3A;}
	.st8{fill:none;stroke:#FFFFFF;stroke-width:1.5;stroke-linecap:round;stroke-linejoin:round;stroke-miterlimit:10;}
	.st9{fill:none;stroke:#FFFFFF;stroke-width:1.5;stroke-miterlimit:10;}
	.st10{fill:#FFFFFF;stroke:#FFFFFF;stroke-width:1.5;stroke-miterlimit:10;}
	.st11{fill:#FFFFFF;}
	.st12{display:inline;fill:none;stroke:#FFFFFF;stroke-linecap:round;stroke-miterlimit:10;}
	.st13{display:none;fill:#FFFFFF;}
	.st14{opacity:0.66;}
	.st15{fill:#FF005F;}
	.st16{fill:none;stroke:#FFFFFF;stroke-width:2;stroke-linecap:round;stroke-linejoin:round;stroke-miterlimit:10;}
	.st17{font-family:'SFUIText-Bold';}
	.st18{font-size:12px;}
	.st19{fill:none;stroke:#282D3A;stroke-width:1.5;stroke-linecap:round;stroke-linejoin:round;stroke-miterlimit:10;}
	.st20{fill:#F5F5F5;}
	.st21{display:inline;fill:none;stroke:#282D3A;stroke-linecap:round;stroke-linejoin:round;stroke-miterlimit:10;}
	
		.st22{display:inline;fill:none;stroke:#282D3A;stroke-width:1.5;stroke-linecap:round;stroke-linejoin:round;stroke-miterlimit:10;}
	
		.st23{display:inline;fill:none;stroke:#000000;stroke-width:1.5;stroke-linecap:round;stroke-linejoin:round;stroke-miterlimit:10;}
	.st24{display:inline;fill:none;stroke:#282D3A;stroke-width:2;stroke-linecap:round;stroke-linejoin:round;stroke-miterlimit:10;}
	.st25{display:none;fill:#282D3A;}
	.st26{display:inline;fill:#FFFFFF;}
	.st27{font-size:10px;}
</style>
<g id="_x35_s" class="st0">
	<g class="st1">
		<path class="st2" d="M22.5,39.6h-10c-1.1,0-2,0.9-2,2v20c0,1.1,0.9,2,2,2h10c1.1,0,2-0.9,2-2v-20C24.5,40.5,23.6,39.6,22.5,39.6z
			 M17.5,62.6c-0.5,0-1-0.4-1-1c0-0.5,0.5-1,1-1c0.6,0,1,0.5,1,1C18.5,62.1,18.1,62.6,17.5,62.6z M23,58.6c0,0.4-0.2,0.7-0.5,0.9
			c-0.1,0.1-0.3,0.1-0.5,0.1h-9c-0.2,0-0.3,0-0.5-0.1c-0.3-0.2-0.5-0.5-0.5-0.9v-15c0-0.4,0.2-0.7,0.5-0.9c0.2-0.1,0.3-0.1,0.5-0.1
			h9c0.2,0,0.4,0,0.5,0.1c0.3,0.2,0.5,0.5,0.5,0.9V58.6z"/>
	</g>
</g>
<g id="_x36_" class="st0">
	<g class="st1">
		<path class="st2" d="M23.2,38.8h-11c-1.1,0-2,0.9-2,2v22c0,1.1,0.9,2,2,2h11c1.1,0,2-0.9,2-2v-22C25.2,39.7,24.3,38.8,23.2,38.8z
			 M17.7,63.8c-0.6,0-1-0.5-1-1c0-0.6,0.4-1,1-1c0.5,0,1,0.4,1,1C18.7,63.4,18.3,63.8,17.7,63.8z M23.7,59.8c0,0.4-0.2,0.7-0.5,0.9
			c-0.2,0.1-0.3,0.1-0.5,0.1h-10c-0.2,0-0.4,0-0.5-0.1c-0.3-0.2-0.5-0.5-0.5-0.9v-17c0-0.4,0.2-0.7,0.5-0.9c0.1-0.1,0.3-0.1,0.5-0.1
			h10c0.2,0,0.3,0,0.5,0.1c0.3,0.2,0.5,0.5,0.5,0.9V59.8z"/>
	</g>
</g>
<g id="plus" class="st0">
	<g id="_x36__2_" class="st1">
		<g>
			<path class="st2" d="M29.3,36.8H16.1c-1.1,0-2,0.9-2,2v1h4c0.4,0,0.8,0.1,1.1,0.3h9.5c0.2,0,0.4,0.1,0.6,0.2
				c0.3,0.2,0.4,0.5,0.4,0.8v20.2c0,0.3-0.2,0.6-0.4,0.8c-0.2,0.1-0.4,0.2-0.6,0.2h-8.6v3.5c0,0.5-0.4,1-1,1h10.2c1.1,0,2-0.9,2-2
				v-26C31.3,37.7,30.4,36.8,29.3,36.8z M23.9,64.8c-0.1,0.6-0.6,1-1.2,1c-0.6,0-1.1-0.4-1.2-1c0-0.1,0-0.1,0-0.2
				c0-0.6,0.5-1.2,1.2-1.2c0.7,0,1.2,0.5,1.2,1.2C23.9,64.7,23.9,64.8,23.9,64.8z"/>
		</g>
	</g>
	<g id="_x36__1_" class="st1">
		<g>
			<path class="st2" d="M17.1,40.8h-11c-0.3,0-0.6,0.1-0.8,0.2c-0.7,0.3-1.2,1-1.2,1.8v22c0,1.1,0.9,2,2,2h11c0.7,0,1.4-0.4,1.7-1
				c0.2-0.3,0.3-0.6,0.3-1v-22C19.1,41.7,18.2,40.8,17.1,40.8z M11.6,65.8c-0.5,0-1-0.5-1-1s0.5-1,1-1c0.6,0,1,0.5,1,1
				S12.2,65.8,11.6,65.8z M17.6,61.8c0,0.2,0,0.3-0.1,0.5c-0.1,0.2-0.2,0.3-0.4,0.4c-0.1,0.1-0.3,0.1-0.5,0.1h-10
				c-0.2,0-0.3,0-0.5-0.1c-0.3-0.2-0.5-0.5-0.5-0.9v-17c0-0.4,0.2-0.7,0.5-0.9c0.2-0.1,0.3-0.1,0.5-0.1h10c0.2,0,0.4,0,0.5,0.1
				c0.3,0.2,0.5,0.5,0.5,0.9V61.8z"/>
		</g>
	</g>
</g>
<g id="x" class="st0">
	<g class="st1">
		<path class="st2" d="M23.7,38.8h-12c-1.1,0-2,0.9-2,2v23c0,1.1,0.9,2,2,2h12c1.1,0,2-0.9,2-2v-23C25.7,39.7,24.8,38.8,23.7,38.8z
			 M24.7,63.8c0,0.6-0.5,1-1,1h-12c-0.6,0-1-0.4-1-1v-23c0-0.5,0.4-1,1-1h1.4v0.3c0,0.3,0.1,0.5,0.3,0.7c0.2,0.2,0.4,0.3,0.7,0.3
			h7.2c0.3,0,0.5-0.1,0.7-0.3c0.2-0.2,0.3-0.4,0.3-0.7v-0.3h1.4c0.5,0,1,0.5,1,1V63.8z"/>
	</g>
</g>
<g id="all" class="st0">
	<g id="_x35_s_1_" class="st1">
		<g>
			<path class="st2" d="M13.7,64.9v-3H7.2c-0.2,0-0.4,0-0.5-0.1c-0.3-0.2-0.5-0.5-0.5-0.9v-15c0-0.4,0.2-0.7,0.5-0.9
				c0.1-0.1,0.3-0.1,0.5-0.1h6.5v-3h-7c-1.1,0-2,0.9-2,2v20c0,1.1,0.9,2,2,2h8C14.2,65.9,13.7,65.4,13.7,64.9z M11.7,64.9
				c-0.6,0-1-0.5-1-1c0-0.6,0.4-1,1-1c0.5,0,1,0.4,1,1C12.7,64.4,12.3,64.9,11.7,64.9z"/>
		</g>
	</g>
	<g id="x_2_" class="st1">
		<g>
			<path class="st2" d="M28.7,38.9h-12c-1.1,0-2,0.9-2,2v23c0,0.4,0.1,0.7,0.3,1c0.3,0.6,1,1,1.7,1h12c1.1,0,2-0.9,2-2v-23
				C30.7,39.8,29.8,38.9,28.7,38.9z M29.7,63.9c0,0.5-0.5,1-1,1h-12c-0.6,0-1-0.5-1-1v-23c0-0.6,0.4-1,1-1h1.4v0.3
				c0,0.3,0.1,0.5,0.3,0.7c0.2,0.2,0.4,0.3,0.7,0.3h7.2c0.3,0,0.5-0.1,0.7-0.3c0.2-0.2,0.3-0.4,0.3-0.7v-0.3h1.4c0.5,0,1,0.4,1,1
				V63.9z"/>
		</g>
	</g>
</g>
<g id="x_1_" class="st0">
	<g class="st1">
		<path class="st3" d="M23.7,39.4h-12c-1.1,0-2,0.9-2,2v23c0,1.1,0.9,2,2,2h12c1.1,0,2-0.9,2-2v-23C25.7,40.3,24.8,39.4,23.7,39.4z
			 M24.7,64.4c0,0.5-0.5,1-1,1h-12c-0.6,0-1-0.5-1-1v-23c0-0.6,0.4-1,1-1h1.4v0.3c0,0.3,0.1,0.5,0.3,0.7c0.2,0.2,0.4,0.3,0.7,0.3
			h7.2c0.3,0,0.5-0.1,0.7-0.3c0.2-0.2,0.3-0.4,0.3-0.7v-0.3h1.4c0.5,0,1,0.4,1,1V64.4z"/>
	</g>
</g>
<rect x="-8" y="183.2" class="st4" width="50" height="50"/>
<rect x="72" y="183.2" class="st4" width="50" height="50"/>
<rect x="152" y="183.2" class="st4" width="50" height="50"/>
<rect x="152" y="123.2" class="st4" width="50" height="50"/>
<rect x="24" y="-2.8" class="st4" width="50" height="50"/>
<circle class="st0" cx="43" cy="163.4" r="10"/>
<polyline class="st5" points="39.2,103.4 42.3,106.8 46.3,99 "/>
<g id="x_3_" class="st0">
	<path class="st6" d="M106.8,167.8H87.2c-0.6,0-1-0.4-1-1v-36.6c0-0.6,0.4-1,1-1h19.6c0.6,0,1,0.4,1,1v36.6
		C107.8,167.4,107.4,167.8,106.8,167.8z"/>
	<path class="st7" d="M103.1,132.1H90.9c-0.6,0-1-0.4-1-1v-2.5h14.2v2.5C104.1,131.7,103.7,132.1,103.1,132.1z"/>
</g>
<g id="_x34_" class="st0">
	<g class="st1">
		<path class="st8" d="M260.8,210.9v1.9l1.9,1.3l5.1,1.6c2,0.6,2.6,2.5,2.6,2.5l1.9,9.3c0.4,2-2.1,2.3-2.1,2.3h-25.2
			c0,0-2.5-0.2-2.1-2.3l1.9-9.3c0,0,0.6-1.9,2.6-2.5l5.1-1.6l1.9-1.3v-1.9"/>
		<g id="head">
			<path class="st9" d="M249.9,199.6v4.3c0,4.2,3.4,7.7,7.7,7.7h0c4.2,0,7.7-3.4,7.7-7.7v-4.3"/>
			<path class="st9" d="M248.1,199.3c-0.8,0.3-1.3,1-1.3,1.9c0,1.1,0.9,2,2,2c0.4,0,0.7-0.1,1-0.3"/>
			<path class="st9" d="M265.2,203c0.3,0.2,0.6,0.3,1,0.3c1.1,0,2-0.9,2-2c0-0.9-0.5-1.6-1.3-1.9"/>
			<path class="st10" d="M266.7,199.9c-0.8,0.6-2-0.6-2-0.6c-0.4-0.4-0.6-0.9-0.8-1.4c-0.1-0.2-0.2-0.5-0.3-0.7
				c-0.1-0.3-0.1-0.5-0.2-0.8c0-0.3-0.2-0.5-0.4-0.6c-0.7-0.5-1.3,0-1.9,0.2c-0.4,0.1-0.8,0.2-1.2,0.3c-0.8,0.1-1.6,0.2-2.4,0.2
				c-0.8,0-1.6-0.1-2.4-0.2c-0.4-0.1-0.8-0.2-1.2-0.3c-0.7-0.2-1.3-0.7-1.9-0.2c-0.2,0.2-0.4,0.4-0.4,0.6c-0.1,0.3-0.1,0.5-0.2,0.8
				c-0.1,0.2-0.2,0.5-0.3,0.7c-0.2,0.5-0.4,1-0.8,1.4c0,0-1.2,1.1-2,0.6c0,0-0.6-0.8-0.4-2.8c0,0,0.9-8.5,9.5-8.5
				c8.7,0,9.5,8.5,9.5,8.5C267.2,199.1,266.7,199.9,266.7,199.9z"/>
		</g>
		<line class="st8" x1="248.7" y1="229.7" x2="248.7" y2="223.2"/>
		<line class="st8" x1="266.3" y1="229.7" x2="266.3" y2="223.2"/>
		<polyline class="st8" points="254.2,212.8 257.5,217.2 254,218.4 252.4,214.1 		"/>
		<polyline class="st8" points="260.8,212.8 257.5,217.2 261.1,218.4 262.7,214.1 		"/>
		<line class="st8" x1="257.5" y1="217.2" x2="257.5" y2="223.6"/>
	</g>
	<g class="st1">
		<circle class="st11" cx="255" cy="201.8" r="1"/>
		<circle class="st11" cx="260" cy="201.8" r="1"/>
	</g>
	<path class="st12" d="M255.4,206.1c0,0.7,0.9,1.3,2.1,1.3c1.2,0,2.1-0.6,2.1-1.3"/>
</g>
<path class="st13" d="M44.4,160.4l0.5-1.4c0.3-0.9,0.1-2.4-0.8-2.9c-0.3-0.2-0.7-0.3-1.1-0.2c-0.2,0.1-0.4,0.2-0.5,0.4
	c-0.1,0.2-0.1,0.4-0.2,0.7c-0.1,0.6-0.4,1.1-0.8,1.5c-0.7,0.7-3,2.8-3,2.8v7.6h7.9c1.1,0,1.8-1.2,1.2-2.1c0.6-0.4,0.8-1.2,0.5-1.9
	c0.6-0.4,0.8-1.2,0.5-1.9c1.1-0.7,0.7-2.4-0.5-2.6C48,160.3,44.4,160.4,44.4,160.4z"/>
<g id="icon1" class="st0">
	<g class="st1">
		<g>
			<g>
				<g>
					<path class="st2" d="M45.9,35.3L45.9,35.3C45.9,35.2,45.9,35.2,45.9,35.3c0-0.1-0.1-0.2-0.1-0.2c0,0,0,0,0-0.1
						c0,0-0.1-0.1-0.1-0.1c-0.1,0-0.1-0.1-0.2-0.1c-0.1,0-0.1,0-0.2-0.1c0,0,0,0-0.1,0h0l-20.7-2c-0.2,0-0.3,0-0.5,0.1l-4.1,2.8l0,0
						c-0.1,0.1-0.2,0.2-0.3,0.4c0,0,0,0.1,0,0.1c0,0,0,0.1,0,0.2v33.9c0,0.4,0.3,0.7,0.7,0.7l20.6,2c0.1,0,0.1,0,0.2,0
						c0.1,0,0.1,0,0.2,0c0.1,0,0.1-0.1,0.2-0.1l4.1-2.8c0.2-0.1,0.3-0.4,0.3-0.6V35.4C45.9,35.4,45.9,35.3,45.9,35.3z M24.6,34.2
						L43,36l-2.2,1.5l-18.4-1.8L24.6,34.2z M40.3,71.3l-19.3-1.9V37.1l19.3,1.8V71.3z M44.4,68.9l-2.6,1.8v-32l2.6-1.8V68.9z"/>
					<path class="st2" d="M45.9,35.2C45.9,35.2,45.9,35.2,45.9,35.2S45.9,35.2,45.9,35.2C45.9,35.2,45.9,35.2,45.9,35.2z"/>
				</g>
			</g>
		</g>
		<g id="_x36__3_">
			<g>
				<path class="st2" d="M36.2,42.1l-11.1-1c-1.1,0-2,0.9-2,2v22c0,1.1,0.9,2,1.9,2h0l11,1h0.1c1.1,0,2-0.9,2-2v-22
					C38.1,43,37.2,42.1,36.2,42.1z M31,66.6L31,66.6c-0.2,0.1-0.4,0.2-0.6,0.2c-0.3,0-0.5-0.1-0.7-0.3c-0.2-0.2-0.3-0.4-0.3-0.7
					c0-0.1,0-0.2,0.1-0.3c0.1-0.4,0.5-0.7,0.9-0.7c0.5,0,0.9,0.4,1,0.8c0,0,0,0.1,0,0.2C31.4,66.1,31.2,66.4,31,66.6z M36.6,63.1
					c0,0.4-0.2,0.7-0.5,0.9c-0.2,0.1-0.3,0.1-0.5,0.1l-10-1c-0.2,0-0.4,0-0.5-0.1c-0.3-0.2-0.5-0.5-0.5-0.9v-17
					c0-0.3,0.2-0.6,0.4-0.8c0.2-0.1,0.4-0.2,0.6-0.2l10,1c0.2,0,0.3,0,0.5,0.1c0.3,0.2,0.5,0.5,0.5,0.9V63.1z"/>
			</g>
		</g>
	</g>
	<g class="st1">
		<g>
			<g>
				<path class="st2" d="M-10.4,35.2C-10.4,35.2-10.4,35.2-10.4,35.2C-10.4,35.2-10.4,35.2-10.4,35.2
					C-10.4,35.2-10.4,35.2-10.4,35.2z"/>
			</g>
			<g>
				<path class="st2" d="M-6.3,70.7l-2.6-1.8V36.9l2.6,1.8V70.7z M15.9,36.1C15.9,36.1,15.9,36,15.9,36.1c-0.1-0.2-0.2-0.4-0.3-0.5
					l0,0l-4.1-2.8c-0.2-0.1-0.3-0.1-0.5-0.1l-20.7,2h0c0,0,0,0-0.1,0c-0.1,0-0.2,0-0.2,0.1c-0.1,0-0.1,0.1-0.2,0.1
					c-0.1,0-0.1,0.1-0.1,0.1c0,0,0,0,0,0.1c0,0,0,0.1,0,0.1c0,0,0,0,0,0.1v0c0,0,0,0.1,0,0.1v33.9c0,0.3,0.1,0.5,0.3,0.6l4.1,2.8
					c0,0,0,0,0.1,0c0,0,0.1,0.1,0.1,0.1c0.1,0,0.1,0,0.2,0c0.1,0,0.1,0,0.2,0l20.6-2c0.4,0,0.7-0.4,0.7-0.7V36.3
					C15.9,36.2,15.9,36.2,15.9,36.1z M-7.6,36l18.4-1.8l2.2,1.5l-18.4,1.8L-7.6,36z M14.4,69.5l-19.3,1.9V38.9l19.3-1.8V69.5z"/>
			</g>
		</g>
	</g>
	<g id="x_4_" class="st1">
		<g>
			<path class="st2" d="M10.7,39.1L10.7,39.1l-11.9,1.1c-1.1,0-2,0.9-2,2v25c0,1.1,0.9,2,2.1,2h0l12-1.1c1.1,0,2-0.9,2-2v-25
				C12.8,40,11.9,39.1,10.7,39.1z M11.8,66.1c0,0.5-0.5,1-1,1l-12,1.1c-0.6,0-1-0.5-1-1v-25c0-0.6,0.4-1,1-1l1.4-0.1v0.5
				c0,0.2,0,0.3,0.1,0.5c0.2,0.3,0.5,0.5,0.9,0.5l7.2-0.8c0.4,0,0.8-0.3,0.9-0.6c0-0.1,0.1-0.3,0.1-0.4v-0.6l1.4-0.1
				c0.5,0,1,0.5,1,1V66.1z"/>
		</g>
	</g>
	<g class="st1">
		<g class="st14">
			
				<image style="overflow:visible;" width="92" height="92" xlink:href="F6DA309B.png"  transform="matrix(1 0 0 1 -3.1458 -14.1042)">
			</image>
		</g>
		<circle class="st15" cx="42.9" cy="31.9" r="10"/>
		<polyline class="st16" points="39.3,33.4 42.4,35.8 47.4,28 		"/>
	</g>
</g>
<g id="icon2" class="st0">
	<g class="st1">
		<path class="st2" d="M24.3,65.8L24,65.6c-0.2-0.1-18-9.2-17.6-36.4l0-0.7l0.7-0.1c0.1,0,7.8-0.9,16.8-6.2l0.4-0.2l0.4,0.2
			c9,5.4,16.8,6.2,16.9,6.2l0.7,0.1l0,0.7c0.4,27.2-17.4,36.3-17.6,36.4L24.3,65.8z M7.9,29.9c-0.1,23.7,14,32.9,16.4,34.2
			c2.4-1.4,16.5-10.5,16.4-34.2c-2.1-0.3-8.7-1.6-16.4-6.1C16.6,28.2,10,29.5,7.9,29.9z"/>
	</g>
	<g class="st1">
		<path class="st2" d="M34.8,33.9C35,50.4,24.3,56.7,24.3,56.7s-10.7-6.3-10.4-22.8c0,0,4.8-0.5,10.4-3.9
			C30,33.5,34.8,33.9,34.8,33.9z"/>
	</g>
	<g class="st1">
		<g class="st14">
			
				<image style="overflow:visible;" width="92" height="92" xlink:href="F6DA3099.png"  transform="matrix(1 0 0 1 -3.1458 -20.1042)">
			</image>
		</g>
		<circle class="st15" cx="42.9" cy="25.9" r="10"/>
		<text transform="matrix(1 0 0 1 38.5094 29.7657)" class="st11 st17 st18">3</text>
	</g>
</g>
<g id="icon3">
	<g>
		<g>
			<path class="st2" d="M65.2,23.9c0,0-0.1-0.1-0.1-0.1c-0.2-0.2-0.8-0.8-4.6-0.4c-0.3,0-0.6,0.3-0.7,0.6c-0.1,0.1-0.2,0.3-0.5,0.4
				c-1.1,0.2-10.5,0.3-12.1-0.2c-0.1-0.2-0.2-0.3-0.4-0.5c-0.8-0.6-2-0.5-2.3-0.5c-0.2,0-0.4,0.1-0.5,0.3c0,0-0.1,0.1-0.2,0.3
				c-0.3,0.4-0.5,0.6-0.7,0.8c0-0.1,0-0.2,0-0.3c0-0.1,0-0.3,0.1-0.4c0.4-1.3-2.2-3.4-2.7-3.8c-0.8-0.5-1.4-0.7-1.9-0.6
				c-0.6,0.1-3.2-0.8-5.3-1.7c-0.1,0-0.2-0.1-0.3-0.1h-30c-0.4,0-0.7,0.3-0.8,0.7c0,0-0.1,0.7-0.2,1.3l0,0.1c0,0.3-0.1,0.4-0.1,0.4
				c-0.2,0.3-1,1.5-1,2.8v11.2c0,0.8,0.4,1.3,0.8,1.6c0.1,0.1,0.2,0.2,0.3,0.3C3,36.8,3.2,37,3.1,37.5c0,0,0,0.1,0,0.1
				c-0.1,1.6,1.5,3.2,2.6,4.1c0.3,0.2,0.5,0.4,0.6,0.6c0.2,0.2,0.5,0.6,0.7,0.9l0.4,0.5c1,1.3,1.6,1.9,2.3,1.7
				c0.1,0,0.2-0.1,0.3-0.1c0.8-0.2,1.1-0.2,1.4,0.1c0.9,1.1,4.2,1.8,5.3,1.9h0.8c0,0,0.1,0,0.2,0c0.7-0.1,2.6-0.4,3.6,0
				c0.2,0.1,0.4,0.2,0.4,0.3c0.1,0.5,0.3,1,0.7,1.5c0.6,1.1,1.5,1.8,1.5,1.9c0.2,0.2,0.4,0.2,0.6,0.2c0.2,0,0.4-0.2,0.5-0.4
				c0,0,0.5-0.8,0.7-1.4c0.4,0.2,0.8,0.9,1.2,2.1c0.1,0.3,0.2,0.7,0.4,1c0.4,0.9,1.1,1.7,2,2.4c0.9,0.7,1.7,1,1.7,1
				c0.2,0.1,0.5,0.1,0.7-0.1s0.3-0.4,0.3-0.6c0,0,0-0.4,0-0.9c0-0.6,0-1.4,0.1-2.1c0-0.2,0-0.4,0-0.6c0.1-0.6,2.5-1.6,3.4-1.8
				c0.2,0,1.1,0.4,1.7,0.6c2,0.8,2.8,1,3.3,0.6c0.2-0.2,0.4-0.4,0.4-0.7c0-0.2,0.8-0.8,1.2-1l0.3-0.2c0.1,0,0.2,0.1,0.3,0.2
				c0.2,0.2,0.5,0.5,0.7,0.7c0.4,0.4,0.7,0.8,1.1,0.8c0.1,0.4,0.3,0.8,0.4,1.3c0.2,0.6,0.3,1.2,0.4,1.7c0.1,0.5,0.1,0.8,0,1
				c0,0.4,0.1,0.8,0.4,1.4c0.3,0.6,1,1,2,1.1c0,0,0.3,0,0.7,0c0.6,0,1.4-0.1,1.7-0.4c0.3-0.3,0.5-1.1,0.5-2.4c0-0.5,0.1-1.5-0.1-2.3
				c-0.1-0.6-0.3-1.1-0.6-1.4c-0.1-0.1-0.4-0.8-0.6-2.1c-0.1-0.7-0.1-1.4,0-2c0.1-0.5,0.1-0.6,0.1-0.6c0.4-0.3,1.5-1.3,2.7-2.4
				c0.9-0.8,1.7-1.6,2.2-2.2c1.1-1.2,1.5-1.9,1.3-2.5c-0.1-0.3-0.3-0.5-0.6-0.7c-0.2-0.1-0.3-0.1-0.2-0.8c0-0.2,0.1-0.5,0.1-0.8
				c0.1-0.4,0.1-0.8,0.2-1.3c0-0.1,0-0.1,0-0.2c1,0,1.6-0.5,1.9-1.9c0.1-0.3,0.2-0.6,0.5-0.9c0.7-0.6,1.8-0.9,2.5-1.1
				c0.7-0.2,1.2-0.3,1.3-0.9c0.1-0.3-0.1-0.6-0.3-0.8c0,0,0,0-0.1-0.1c-0.1-0.4,0-1.1,0.4-1.4c0.1-0.1,0.3-0.3,0.5-0.4
				c0.3-0.2,0.7-0.5,1.1-0.8C64.7,25.8,65.9,24.8,65.2,23.9z M62.3,25.9c-0.4,0.3-0.7,0.6-1,0.8c-0.2,0.2-0.4,0.3-0.6,0.5
				c-0.9,0.7-1.1,2.1-0.9,3c-0.9,0.2-2.1,0.6-3,1.4c-0.5,0.5-0.8,1.1-1,1.7c-0.1,0.6-0.2,0.7-0.2,0.7h-0.2c-0.6,0-1.4,0.1-1.6,1.6
				c0,0.4-0.1,0.8-0.2,1.2c-0.1,0.3-0.1,0.6-0.1,0.9c0,0.5-0.1,1.4,0.7,2c-0.1,0.2-0.4,0.5-0.8,1c-0.5,0.6-1.2,1.3-2.1,2.1
				c-1.2,1.1-2.3,2-2.7,2.3c-0.4,0.3-0.6,0.8-0.7,1.6c-0.1,0.6-0.1,1.5,0,2.3c0.1,0.8,0.4,2.3,1,2.9c0,0,0.1,0.1,0.2,0.6
				c0.1,0.5,0.1,1.2,0.1,2c0,0.7-0.1,1.2-0.2,1.4c-0.6,0.1-1.7,0-1.9-0.3c-0.2-0.4-0.2-0.5-0.2-0.5c0-0.4,0-0.8,0-1.4
				c-0.1-0.5-0.2-1.2-0.4-1.8c-0.7-2.7-1.3-2.6-1.6-2.6c0,0-0.1,0-0.1,0c0,0,0,0-0.1-0.1c-0.2-0.3-0.5-0.6-0.8-0.9
				c-1-0.9-1.7-0.6-2.1-0.4l-0.4,0.3c-0.6,0.4-1.3,0.9-1.6,1.5c-0.5-0.1-1.3-0.4-1.8-0.6c-1.5-0.6-2-0.7-2.4-0.7
				c0,0-4.6,1.1-4.7,3.2c0,0.2,0,0.4,0,0.6c0,0.6,0,1.3,0,1.9c-0.1-0.1-0.3-0.2-0.4-0.3c-0.7-0.6-1.3-1.2-1.6-1.9
				c-0.1-0.2-0.2-0.5-0.3-0.7c-0.4-1.5-1.1-2.6-1.9-3.1c-0.6-0.4-1.3-0.3-1.8,0.1c-0.1,0.1-0.2,0.2-0.2,0.3
				c-0.1,0.2-0.2,0.4-0.3,0.6c-0.2-0.2-0.4-0.5-0.6-0.8c-0.3-0.4-0.4-0.8-0.5-1.1c-0.1-0.4-0.4-1-1.3-1.3c-1.3-0.5-3.4-0.2-4.3,0
				h-0.6c-1.5-0.2-3.9-0.9-4.2-1.4c-0.9-1.1-2.2-0.8-2.9-0.7c0,0-0.1,0-0.1,0c-0.1-0.1-0.4-0.4-1-1.2l-0.4-0.5
				c-0.3-0.4-0.6-0.8-0.8-1c-0.2-0.2-0.4-0.4-0.8-0.7c-0.7-0.7-2.1-1.9-2-2.9c0.2-1.3-0.7-2-1.2-2.5C3.3,35.1,3.2,35,3.1,35l0,0
				c-0.3-0.3-0.3-0.4-0.3-0.5V23.3c0-1,0.7-2,0.7-2c0,0,0-0.1,0-0.1c0.1-0.2,0.2-0.4,0.2-0.8l0-0.2c0-0.2,0.1-0.5,0.1-0.7H6l0.2-0.5
				c0-0.2,0.3-0.2,0.3,0l0.2,0.5h4.9l0.2-0.5c0.1-0.2,0.3-0.2,0.3,0l0.2,0.5h4.9l0.2-0.5c0.1-0.2,0.3-0.2,0.3,0l0.2,0.5h4.8l0.2-0.5
				c0.1-0.2,0.3-0.2,0.3,0l0.2,0.5h9.8c2.3,0.9,5,1.9,6.1,1.7c0.1,0,0.3,0.1,0.6,0.3c1,0.7,1.9,1.8,2.1,2.2c0,0.2-0.1,0.4-0.1,0.5
				c-0.1,0.5,0,1.4,0.5,1.9c0.3,0.2,0.7,0.3,1.1,0.2c0.2-0.1,0.8-0.3,1.8-1.5c0,0,0,0,0,0c0.3,0,0.7,0,0.8,0.2
				c0.6,1.9,13.7,1,13.8,0.9c0.7-0.2,1.1-0.7,1.3-1c0.9-0.1,1.9-0.1,2.5,0C63.3,25,62.9,25.4,62.3,25.9z"/>
		</g>
		<g>
			<g>
				<line class="st19" x1="27.9" y1="51.4" x2="31.5" y2="51.4"/>
				<line class="st19" x1="45.8" y1="51.4" x2="49.5" y2="51.4"/>
				<line class="st19" x1="9.4" y1="44.5" x2="50.3" y2="44.5"/>
				<line class="st19" x1="4.4" y1="37.6" x2="53.9" y2="37.6"/>
				<line class="st19" x1="26.4" y1="30.6" x2="59.9" y2="30.6"/>
				<line class="st19" x1="26.4" y1="23.7" x2="41.9" y2="23.7"/>
			</g>
		</g>
		<g>
			<path class="st2" d="M3.3,18.7l-1.5,4.5L2,35h24.4c0.8,0,1.5-0.7,1.5-1.5V18.7H3.3z M8.4,31.6l-1.1,0.8l0.4,1.3
				c0,0.2-0.1,0.3-0.3,0.2L6.4,33l-1.1,0.8c-0.1,0.1-0.3,0-0.3-0.2l0.4-1.3l-1-0.8c-0.1-0.1-0.1-0.3,0.1-0.3l1.3,0L5.9,31l0.3-1
				c0-0.2,0.3-0.2,0.3,0l0.3,1L7,31.2l1.3,0C8.4,31.3,8.5,31.5,8.4,31.6z M8.4,26l-1.1,0.8l0.4,1.3c0,0.2-0.1,0.3-0.3,0.2l-1.1-0.8
				l-1.1,0.8c-0.1,0.1-0.3,0-0.3-0.2l0.4-1.3l-1-0.8c-0.1-0.1-0.1-0.3,0.1-0.3l1.3,0l0.1-0.3l0.3-0.9c0-0.2,0.3-0.2,0.3,0l0.3,0.9
				L7,25.7l1.3,0C8.4,25.7,8.5,25.9,8.4,26z M8.4,20.5l-1.1,0.8l0.4,1.3c0,0.2-0.1,0.3-0.3,0.2L6.4,22l-1.1,0.8
				c-0.1,0.1-0.3,0-0.3-0.2l0.4-1.3l-1-0.8c-0.1-0.1-0.1-0.3,0.1-0.3l1.3,0l0.1-0.3L6,19.4l0.2-0.5c0-0.2,0.3-0.2,0.3,0l0.2,0.5
				l0.1,0.5L7,20.2l1.3,0C8.4,20.2,8.5,20.4,8.4,20.5z M13.9,31.6l-1.1,0.8l0.4,1.3c0.1,0.2-0.1,0.3-0.3,0.2L11.9,33l-1.1,0.8
				c-0.1,0.1-0.3,0-0.3-0.2l0.4-1.3l-1.1-0.8c-0.1-0.1-0.1-0.3,0.1-0.3l1.3,0l0.1-0.3l0.3-1c0.1-0.2,0.3-0.2,0.3,0l0.3,1l0.1,0.3
				l1.3,0C14,31.3,14,31.5,13.9,31.6z M13.9,26l-1.1,0.8l0.4,1.3c0.1,0.2-0.1,0.3-0.3,0.2l-1.1-0.8l-1.1,0.8c-0.1,0.1-0.3,0-0.3-0.2
				l0.4-1.3L9.9,26c-0.1-0.1-0.1-0.3,0.1-0.3l1.3,0l0.1-0.3l0.3-0.9c0.1-0.2,0.3-0.2,0.3,0l0.3,0.9l0.1,0.3l1.3,0
				C14,25.7,14,25.9,13.9,26z M13.9,20.5l-1.1,0.8l0.4,1.3c0.1,0.2-0.1,0.3-0.3,0.2L11.9,22l-1.1,0.8c-0.1,0.1-0.3,0-0.3-0.2
				l0.4-1.3l-1.1-0.8c-0.1-0.1-0.1-0.3,0.1-0.3l1.3,0l0.1-0.3l0.2-0.5l0.2-0.5c0.1-0.2,0.3-0.2,0.3,0l0.2,0.5l0.2,0.5l0.1,0.3l1.3,0
				C14,20.2,14,20.4,13.9,20.5z M19.4,31.6l-1,0.8l0.4,1.3c0,0.2-0.1,0.3-0.3,0.2L17.4,33l-1.1,0.8c-0.1,0.1-0.3,0-0.3-0.2l0.4-1.3
				l-1.1-0.8c-0.1-0.1-0.1-0.3,0.1-0.3l1.3,0l0.1-0.3l0.3-1c0.1-0.2,0.3-0.2,0.3,0l0.3,1l0.1,0.3l1.3,0
				C19.5,31.3,19.6,31.5,19.4,31.6z M19.4,26l-1,0.8l0.4,1.3c0,0.2-0.1,0.3-0.3,0.2l-1.1-0.8l-1.1,0.8c-0.1,0.1-0.3,0-0.3-0.2
				l0.4-1.3L15.4,26c-0.1-0.1-0.1-0.3,0.1-0.3l1.3,0l0.1-0.3l0.3-0.9c0.1-0.2,0.3-0.2,0.3,0l0.3,0.9l0.1,0.3l1.3,0
				C19.5,25.7,19.6,25.9,19.4,26z M19.4,20.5l-1,0.8l0.4,1.3c0,0.2-0.1,0.3-0.3,0.2L17.4,22l-1.1,0.8c-0.1,0.1-0.3,0-0.3-0.2
				l0.4-1.3l-1.1-0.8c-0.1-0.1-0.1-0.3,0.1-0.3l1.3,0l0.1-0.3l0.2-0.5l0.2-0.5c0.1-0.2,0.3-0.2,0.3,0l0.2,0.5l0.1,0.5l0.1,0.3l1.3,0
				C19.5,20.2,19.6,20.4,19.4,20.5z M25,31.6l-1.1,0.8l0.4,1.3c0.1,0.2-0.1,0.3-0.3,0.2L23,33l-1.1,0.8c-0.1,0.1-0.3,0-0.3-0.2
				l0.4-1.3L21,31.6c-0.1-0.1-0.1-0.3,0.1-0.3l1.3,0l0.1-0.3l0.3-1c0.1-0.2,0.3-0.2,0.3,0l0.3,1l0.1,0.3l1.3,0
				C25,31.3,25.1,31.5,25,31.6z M25,26l-1.1,0.8l0.4,1.3c0.1,0.2-0.1,0.3-0.3,0.2L23,27.5l-1.1,0.8c-0.1,0.1-0.3,0-0.3-0.2l0.4-1.3
				L21,26c-0.1-0.1-0.1-0.3,0.1-0.3l1.3,0l0.1-0.3l0.3-0.9c0.1-0.2,0.3-0.2,0.3,0l0.3,0.9l0.1,0.3l1.3,0C25,25.7,25.1,25.9,25,26z
				 M23.4,19.9l0.1,0.3l1.3,0c0.2,0,0.2,0.2,0.1,0.3l-1.1,0.8l0.4,1.3c0.1,0.2-0.1,0.3-0.3,0.2L23,22l-1.1,0.8
				c-0.1,0.1-0.3,0-0.3-0.2l0.4-1.3L21,20.5c-0.1-0.1-0.1-0.3,0.1-0.3l1.3,0l0.1-0.3l0.1-0.5l0.2-0.5c0.1-0.2,0.3-0.2,0.3,0l0.2,0.5
				L23.4,19.9z"/>
		</g>
	</g>
	<g>
		<g class="st14">
			
				<image style="overflow:visible;" width="92" height="92" xlink:href="F6DA309F.png"  transform="matrix(1 0 0 1 12.8542 -28.1042)">
			</image>
		</g>
		<circle class="st15" cx="58.9" cy="17.9" r="10"/>
		<path class="st20" d="M63.4,16.4l-3.2,0L60,15.7l-0.8-2.3c-0.1-0.4-0.7-0.4-0.8,0l-0.8,2.3l-0.2,0.7l-3.2,0
			c-0.4,0-0.6,0.5-0.3,0.8l2.5,1.9l-1,3c-0.1,0.4,0.3,0.7,0.7,0.5l2.6-1.8l2.6,1.8c0.3,0.2,0.8-0.1,0.7-0.5l-1-3l2.5-1.9
			C64,17,63.8,16.4,63.4,16.4z"/>
	</g>
</g>
<g class="st0">
	<ellipse class="st21" cx="38.9" cy="279.9" rx="8" ry="8"/>
	<line class="st21" x1="38.9" y1="279.9" x2="38.9" y2="271.9"/>
	<line class="st21" x1="38.9" y1="285.7" x2="38.9" y2="287.9"/>
	<line class="st21" x1="46.9" y1="279.9" x2="44.7" y2="279.9"/>
	<line class="st21" x1="33" y1="279.9" x2="30.9" y2="279.9"/>
	<line class="st21" x1="38.9" y1="279.9" x2="44.5" y2="274.2"/>
	<line class="st21" x1="34.7" y1="284" x2="33.2" y2="285.6"/>
	<line class="st21" x1="44.5" y1="285.6" x2="43" y2="284"/>
	<line class="st21" x1="34.7" y1="275.8" x2="33.2" y2="274.2"/>
</g>
<g class="st0">
	<line class="st22" x1="76.9" y1="89.9" x2="76.9" y2="90.9"/>
	<line class="st22" x1="79.9" y1="87.9" x2="79.9" y2="90.9"/>
	<line class="st22" x1="82.9" y1="84.9" x2="82.9" y2="90.9"/>
</g>
<g class="st0">
	<line class="st22" x1="209.9" y1="-9.1" x2="219.8" y2="0.8"/>
	<line class="st22" x1="219.8" y1="-9.1" x2="209.9" y2="0.8"/>
</g>
<g class="st0">
	<path class="st23" d="M199.7-6.6c0,0-0.5-0.5-0.6-0.6c-2-2-5.3-2.1-7.3,0c-2,2-2,5.3,0,7.4c2,2,5.3,2,7.4,0"/>
	<polyline class="st23" points="197.8,-6.2 200.1,-6.2 200.1,-8.5 	"/>
</g>
<g class="st0">
	<line class="st24" x1="145.9" y1="5.9" x2="165.9" y2="5.9"/>
	<line class="st24" x1="145.9" y1="11.9" x2="165.9" y2="11.9"/>
	<line class="st24" x1="145.9" y1="17.9" x2="165.9" y2="17.9"/>
</g>
<circle class="st25" cx="128.4" cy="5.4" r="2"/>
<circle class="st25" cx="120.4" cy="5.4" r="2"/>
<circle class="st25" cx="128.4" cy="13.4" r="2"/>
<circle class="st25" cx="120.4" cy="13.4" r="2"/>
<g id="skoro" class="st0">
	<path class="st7" d="M37.2,60.8h-39c-2.2,0-4-1.8-4-4v-8c0-2.2,1.8-4,4-4h39c2.2,0,4,1.8,4,4v8C41.2,59,39.4,60.8,37.2,60.8z"/>
	<text transform="matrix(1 0 0 1 1.3864 55.6511)" class="st26 st17 st27">Скоро</text>
</g>
</svg>
