<?xml version="1.0" encoding="utf-8"?>
<!-- Generator: Adobe Illustrator 22.0.0, SVG Export Plug-In . SVG Version: 6.00 Build 0)  -->
<svg version="1.1" id="Layer_1" xmlns="http://www.w3.org/2000/svg" xmlns:xlink="http://www.w3.org/1999/xlink" x="0px" y="0px"
	 viewBox="0 0 73 59.9" style="enable-background:new 0 0 73 59.9;" xml:space="preserve">
<style type="text/css">
	.st0{display:none;}
	.st1{display:inline;}
	.st2{fill:#282D3A;}
	.st3{fill:#85888B;}
	.st4{display:none;fill:#B2B2B2;}
	.st5{display:none;fill:none;stroke:#FFFFFF;stroke-width:2;stroke-linecap:round;stroke-linejoin:round;stroke-miterlimit:10;}
	.st6{display:inline;fill:none;stroke:#282D3A;stroke-width:1.5;stroke-linejoin:round;stroke-miterlimit:10;}
	.st7{display:inline;fill:#282D3A;}
	.st8{display:inline;fill:none;stroke:#000000;stroke-width:1.5;stroke-miterlimit:10;}
	.st9{fill:#010002;}
	.st10{display:inline;fill:#010002;}
	.st11{fill:none;stroke:#FFFFFF;stroke-width:1.5;stroke-linecap:round;stroke-linejoin:round;stroke-miterlimit:10;}
	.st12{fill:none;stroke:#FFFFFF;stroke-width:1.5;stroke-miterlimit:10;}
	.st13{fill:#FFFFFF;stroke:#FFFFFF;stroke-width:1.5;stroke-miterlimit:10;}
	.st14{fill:#FFFFFF;}
	.st15{display:inline;fill:none;stroke:#FFFFFF;stroke-linecap:round;stroke-miterlimit:10;}
	.st16{display:none;fill:#FFFFFF;}
	
		.st17{display:inline;fill:none;stroke:#282D3A;stroke-width:1.5;stroke-linecap:round;stroke-linejoin:round;stroke-miterlimit:10;}
	.st18{clip-path:url(#SVGID_2_);}
	.st19{fill:none;stroke:#282D3A;stroke-width:1.5;stroke-linecap:round;stroke-linejoin:round;stroke-miterlimit:10;}
	.st20{fill:#F5F5F5;}
	.st21{opacity:0.66;}
	.st22{fill:#FF005F;}
	.st23{fill:none;stroke:#FFFFFF;stroke-width:2;stroke-linecap:round;stroke-linejoin:round;stroke-miterlimit:10;}
	.st24{display:inline;fill:none;stroke:#282D3A;stroke-linecap:round;stroke-linejoin:round;stroke-miterlimit:10;}
	
		.st25{display:inline;fill:none;stroke:#000000;stroke-width:1.5;stroke-linecap:round;stroke-linejoin:round;stroke-miterlimit:10;}
	.st26{display:inline;fill:none;stroke:#282D3A;stroke-width:2;stroke-linecap:round;stroke-linejoin:round;stroke-miterlimit:10;}
	.st27{display:none;fill:#282D3A;}
	.st28{display:inline;fill:#FFFFFF;}
	.st29{font-family:'SFUIText-Bold';}
	.st30{font-size:10px;}
</style>
<g id="_x35_s" class="st0">
	<g class="st1">
		<path class="st2" d="M34.7,25.6h-10c-1.1,0-2,0.9-2,2v20c0,1.1,0.9,2,2,2h10c1.1,0,2-0.9,2-2v-20C36.7,26.5,35.8,25.6,34.7,25.6z
			 M29.7,48.6c-0.5,0-1-0.4-1-1c0-0.5,0.5-1,1-1c0.6,0,1,0.5,1,1C30.7,48.2,30.3,48.6,29.7,48.6z M35.2,44.6c0,0.4-0.2,0.7-0.5,0.9
			c-0.1,0.1-0.3,0.1-0.5,0.1h-9c-0.2,0-0.3,0-0.5-0.1c-0.3-0.2-0.5-0.5-0.5-0.9v-15c0-0.4,0.2-0.7,0.5-0.9c0.2-0.1,0.3-0.1,0.5-0.1
			h9c0.2,0,0.4,0,0.5,0.1c0.3,0.2,0.5,0.5,0.5,0.9V44.6z"/>
	</g>
</g>
<g id="_x36_" class="st0">
	<g class="st1">
		<path class="st2" d="M35.4,24.9h-11c-1.1,0-2,0.9-2,2v22c0,1.1,0.9,2,2,2h11c1.1,0,2-0.9,2-2v-22C37.4,25.7,36.5,24.9,35.4,24.9z
			 M29.9,49.9c-0.6,0-1-0.5-1-1c0-0.6,0.4-1,1-1c0.5,0,1,0.4,1,1C30.9,49.4,30.5,49.9,29.9,49.9z M35.9,45.9c0,0.4-0.2,0.7-0.5,0.9
			c-0.2,0.1-0.3,0.1-0.5,0.1h-10c-0.2,0-0.4,0-0.5-0.1c-0.3-0.2-0.5-0.5-0.5-0.9v-17c0-0.4,0.2-0.7,0.5-0.9c0.1-0.1,0.3-0.1,0.5-0.1
			h10c0.2,0,0.3,0,0.5,0.1c0.3,0.2,0.5,0.5,0.5,0.9V45.9z"/>
	</g>
</g>
<g id="plus" class="st0">
	<g id="_x36__2_" class="st1">
		<g>
			<path class="st2" d="M41.5,22.8H28.3c-1.1,0-2,0.9-2,2v1h4c0.4,0,0.8,0.1,1.1,0.3h9.5c0.2,0,0.4,0.1,0.6,0.2
				c0.3,0.2,0.4,0.5,0.4,0.8v20.2c0,0.3-0.2,0.6-0.4,0.8c-0.2,0.1-0.4,0.2-0.6,0.2h-8.6v3.5c0,0.5-0.4,1-1,1h10.2c1.1,0,2-0.9,2-2
				v-26C43.5,23.7,42.6,22.8,41.5,22.8z M36.1,50.9c-0.1,0.6-0.6,1-1.2,1c-0.6,0-1.1-0.4-1.2-1c0-0.1,0-0.1,0-0.2
				c0-0.6,0.5-1.2,1.2-1.2c0.7,0,1.2,0.5,1.2,1.2C36.1,50.7,36.1,50.8,36.1,50.9z"/>
		</g>
	</g>
	<g id="_x36__1_" class="st1">
		<g>
			<path class="st2" d="M29.3,26.9h-11c-0.3,0-0.6,0.1-0.8,0.2c-0.7,0.3-1.2,1-1.2,1.8v22c0,1.1,0.9,2,2,2h11c0.7,0,1.4-0.4,1.7-1
				c0.2-0.3,0.3-0.6,0.3-1v-22C31.3,27.8,30.4,26.9,29.3,26.9z M23.8,51.9c-0.5,0-1-0.5-1-1s0.5-1,1-1c0.6,0,1,0.5,1,1
				S24.4,51.9,23.8,51.9z M29.8,47.9c0,0.2,0,0.3-0.1,0.5c-0.1,0.2-0.2,0.3-0.4,0.4c-0.1,0.1-0.3,0.1-0.5,0.1h-10
				c-0.2,0-0.3,0-0.5-0.1c-0.3-0.2-0.5-0.5-0.5-0.9v-17c0-0.4,0.2-0.7,0.5-0.9c0.2-0.1,0.3-0.1,0.5-0.1h10c0.2,0,0.4,0,0.5,0.1
				c0.3,0.2,0.5,0.5,0.5,0.9V47.9z"/>
		</g>
	</g>
</g>
<g id="x" class="st0">
	<g class="st1">
		<path class="st2" d="M35.9,24.8h-12c-1.1,0-2,0.9-2,2v23c0,1.1,0.9,2,2,2h12c1.1,0,2-0.9,2-2v-23C37.9,25.7,37,24.8,35.9,24.8z
			 M36.9,49.8c0,0.6-0.5,1-1,1h-12c-0.6,0-1-0.4-1-1v-23c0-0.5,0.4-1,1-1h1.4v0.3c0,0.3,0.1,0.5,0.3,0.7c0.2,0.2,0.4,0.3,0.7,0.3
			h7.2c0.3,0,0.5-0.1,0.7-0.3c0.2-0.2,0.3-0.4,0.3-0.7v-0.3h1.4c0.5,0,1,0.5,1,1V49.8z"/>
	</g>
</g>
<g id="all" class="st0">
	<g id="_x35_s_1_" class="st1">
		<g>
			<path class="st2" d="M25.9,50.9v-3h-6.5c-0.2,0-0.4,0-0.5-0.1c-0.3-0.2-0.5-0.5-0.5-0.9v-15c0-0.4,0.2-0.7,0.5-0.9
				c0.1-0.1,0.3-0.1,0.5-0.1h6.5v-3h-7c-1.1,0-2,0.9-2,2v20c0,1.1,0.9,2,2,2h8C26.3,51.9,25.9,51.5,25.9,50.9z M23.9,50.9
				c-0.6,0-1-0.5-1-1c0-0.6,0.4-1,1-1c0.5,0,1,0.4,1,1C24.9,50.5,24.5,50.9,23.9,50.9z"/>
		</g>
	</g>
	<g id="x_2_" class="st1">
		<g>
			<path class="st2" d="M40.9,24.9h-12c-1.1,0-2,0.9-2,2v23c0,0.4,0.1,0.7,0.3,1c0.3,0.6,1,1,1.7,1h12c1.1,0,2-0.9,2-2v-23
				C42.9,25.8,42,24.9,40.9,24.9z M41.9,49.9c0,0.5-0.5,1-1,1h-12c-0.6,0-1-0.5-1-1v-23c0-0.6,0.4-1,1-1h1.4v0.3
				c0,0.3,0.1,0.5,0.3,0.7c0.2,0.2,0.4,0.3,0.7,0.3h7.2c0.3,0,0.5-0.1,0.7-0.3c0.2-0.2,0.3-0.4,0.3-0.7v-0.3h1.4c0.5,0,1,0.4,1,1
				V49.9z"/>
		</g>
	</g>
</g>
<g id="x_1_" class="st0">
	<g class="st1">
		<path class="st3" d="M35.9,25.4h-12c-1.1,0-2,0.9-2,2v23c0,1.1,0.9,2,2,2h12c1.1,0,2-0.9,2-2v-23C37.9,26.3,37,25.4,35.9,25.4z
			 M36.9,50.4c0,0.5-0.5,1-1,1h-12c-0.6,0-1-0.5-1-1v-23c0-0.6,0.4-1,1-1h1.4v0.3c0,0.3,0.1,0.5,0.3,0.7c0.2,0.2,0.4,0.3,0.7,0.3
			h7.2c0.3,0,0.5-0.1,0.7-0.3c0.2-0.2,0.3-0.4,0.3-0.7v-0.3h1.4c0.5,0,1,0.4,1,1V50.4z"/>
	</g>
</g>
<rect x="4.2" y="169.3" class="st4" width="50" height="50"/>
<rect x="84.2" y="169.3" class="st4" width="50" height="50"/>
<rect x="164.2" y="169.3" class="st4" width="50" height="50"/>
<rect x="164.2" y="109.3" class="st4" width="50" height="50"/>
<rect x="36.2" y="-16.7" class="st4" width="50" height="50"/>
<circle class="st0" cx="55.1" cy="149.4" r="10"/>
<polyline class="st5" points="51.4,89.4 54.5,92.8 58.5,85.1 "/>
<g id="x_3_" class="st0">
	<path class="st6" d="M119,153.9H99.4c-0.6,0-1-0.4-1-1v-36.6c0-0.6,0.4-1,1-1H119c0.6,0,1,0.4,1,1v36.6
		C120,153.4,119.6,153.9,119,153.9z"/>
	<path class="st7" d="M115.3,118.2h-12.2c-0.6,0-1-0.4-1-1v-2.5h14.2v2.5C116.3,117.7,115.9,118.2,115.3,118.2z"/>
</g>
<g id="_x32_" class="st0">
	<path class="st8" d="M126.4,180.6c0.4,27.1-17.2,35.7-17.2,35.7s-17.5-8.7-17.1-35.7c0,0,7.9-0.8,17.1-6.3
		C118.5,179.7,126.4,180.6,126.4,180.6z"/>
	<path class="st1" d="M119.6,185.3c0.2,16.5-10.5,22.8-10.5,22.8s-10.7-6.3-10.4-22.8c0,0,4.8-0.5,10.4-3.9
		C114.8,184.8,119.6,185.3,119.6,185.3z"/>
</g>
<g id="_x33_" class="st0">
	<g class="st1">
		<path class="st9" d="M188.8,151.9c-7.6,0-14.3-4.8-16.8-12c-0.1-0.2-0.1-0.4,0-0.6c0.1-0.2,0.3-0.3,0.5-0.4c0.1,0,0.2,0,0.3,0
			c0.3,0,0.7,0.2,0.8,0.6c2.2,6.5,8.4,10.9,15.2,10.9c8.9,0,16.1-7.2,16.1-16.1c0-0.4,0.4-0.8,0.8-0.8c0.4,0,0.8,0.4,0.8,0.8
			C206.5,143.9,198.6,151.9,188.8,151.9z"/>
		<path class="st9" d="M171.9,135c-0.4,0-0.8-0.4-0.8-0.8c0-9.8,8-17.7,17.7-17.7c7.6,0,14.3,4.8,16.8,12c0.1,0.2,0.1,0.4,0,0.6
			c-0.1,0.2-0.3,0.3-0.5,0.4c-0.1,0-0.2,0-0.3,0c-0.3,0-0.7-0.2-0.8-0.5c-2.2-6.5-8.3-10.9-15.2-10.9c-8.9,0-16.1,7.2-16.1,16.1
			C172.7,134.6,172.3,135,171.9,135z"/>
		<path class="st9" d="M205.1,129.7c-0.1,0-0.2,0-0.2,0l-7.1-2.2c-0.4-0.1-0.7-0.6-0.5-1c0.1-0.3,0.4-0.6,0.8-0.6c0.1,0,0.2,0,0.2,0
			l6.4,2l2.4-6c0.1-0.3,0.4-0.5,0.8-0.5c0.1,0,0.2,0,0.3,0.1c0.2,0.1,0.4,0.2,0.4,0.4c0.1,0.2,0.1,0.4,0,0.6l-2.7,6.7
			C205.7,129.5,205.4,129.7,205.1,129.7z"/>
		<path class="st9" d="M169.9,147c-0.1,0-0.2,0-0.3-0.1c-0.4-0.2-0.6-0.6-0.5-1.1l2.7-6.7c0.1-0.3,0.4-0.5,0.7-0.5
			c0.1,0,0.2,0,0.2,0l7.1,2.2c0.4,0.1,0.7,0.6,0.5,1c-0.1,0.3-0.4,0.6-0.8,0.6c-0.1,0-0.2,0-0.2,0l-6.4-2l-2.4,6
			C170.6,146.8,170.3,147,169.9,147z"/>
	</g>
	<circle class="st10" cx="189.2" cy="134.3" r="6.1"/>
</g>
<g id="_x34_" class="st0">
	<g class="st1">
		<path class="st11" d="M273,196.9v1.9l1.9,1.3l5.1,1.6c2,0.6,2.6,2.5,2.6,2.5l1.9,9.3c0.4,2-2.1,2.3-2.1,2.3h-25.2
			c0,0-2.5-0.2-2.1-2.3l1.9-9.3c0,0,0.6-1.9,2.6-2.5l5.1-1.6l1.9-1.3v-1.9"/>
		<g id="head">
			<path class="st12" d="M262,185.7v4.3c0,4.2,3.4,7.7,7.7,7.7l0,0c4.2,0,7.7-3.4,7.7-7.7v-4.3"/>
			<path class="st12" d="M260.3,185.4c-0.8,0.3-1.3,1-1.3,1.9c0,1.1,0.9,2,2,2c0.4,0,0.7-0.1,1-0.3"/>
			<path class="st12" d="M277.3,189.1c0.3,0.2,0.6,0.3,1,0.3c1.1,0,2-0.9,2-2c0-0.9-0.5-1.6-1.3-1.9"/>
			<path class="st13" d="M278.8,185.9c-0.8,0.6-2-0.6-2-0.6c-0.4-0.4-0.6-0.9-0.8-1.4c-0.1-0.2-0.2-0.5-0.3-0.7
				c-0.1-0.3-0.1-0.5-0.2-0.8c0-0.3-0.2-0.5-0.4-0.6c-0.7-0.5-1.3,0-1.9,0.2c-0.4,0.1-0.8,0.2-1.2,0.3c-0.8,0.1-1.6,0.2-2.4,0.2
				c-0.8,0-1.6-0.1-2.4-0.2c-0.4-0.1-0.8-0.2-1.2-0.3c-0.7-0.2-1.3-0.7-1.9-0.2c-0.2,0.2-0.4,0.4-0.4,0.6c-0.1,0.3-0.1,0.5-0.2,0.8
				c-0.1,0.2-0.2,0.5-0.3,0.7c-0.2,0.5-0.4,1-0.8,1.4c0,0-1.2,1.1-2,0.6c0,0-0.6-0.8-0.4-2.8c0,0,0.9-8.5,9.5-8.5
				c8.7,0,9.5,8.5,9.5,8.5C279.4,185.1,278.8,185.9,278.8,185.9z"/>
		</g>
		<line class="st11" x1="260.9" y1="215.7" x2="260.9" y2="209.3"/>
		<line class="st11" x1="278.5" y1="215.7" x2="278.5" y2="209.3"/>
		<polyline class="st11" points="266.4,198.8 269.7,203.3 266.1,204.4 264.5,200.1 		"/>
		<polyline class="st11" points="273,198.8 269.7,203.3 273.2,204.4 274.8,200.1 		"/>
		<line class="st11" x1="269.7" y1="203.3" x2="269.7" y2="209.6"/>
	</g>
	<g class="st1">
		<circle class="st14" cx="267.2" cy="187.9" r="1"/>
		<circle class="st14" cx="272.2" cy="187.9" r="1"/>
	</g>
	<path class="st15" d="M267.6,192.2c0,0.7,0.9,1.3,2.1,1.3c1.2,0,2.1-0.6,2.1-1.3"/>
</g>
<path class="st16" d="M56.6,146.4l0.5-1.4c0.3-0.9,0.1-2.4-0.8-2.9c-0.3-0.2-0.7-0.3-1.1-0.2c-0.2,0.1-0.4,0.2-0.5,0.4
	c-0.1,0.2-0.1,0.4-0.2,0.7c-0.1,0.6-0.4,1.1-0.8,1.5c-0.7,0.7-3,2.8-3,2.8v7.6h7.9c1.1,0,1.8-1.2,1.2-2.1c0.6-0.4,0.8-1.2,0.5-1.9
	c0.6-0.4,0.8-1.2,0.5-1.9c1.1-0.7,0.7-2.4-0.5-2.6C60.1,146.4,56.6,146.4,56.6,146.4z"/>
<g class="st0">
	<path class="st17" d="M167,123.6v8.1c0,0.3,0.2,0.5,0.4,0.8c0.4,0.4,1,0.7,0.9,1.5c0,0,0,0,0,0.1c-0.1,0.9,0.9,1.9,1.7,2.5
		c0.2,0.2,0.4,0.4,0.5,0.5c0.2,0.2,0.5,0.7,0.8,1.1c0.4,0.6,0.9,1.1,1.2,1.1c0.4-0.1,1.3-0.4,1.8,0.2c0.4,0.5,2.4,1.1,3.4,1.2h0.6
		c0.6-0.1,2-0.3,2.9,0c0.3,0.1,0.6,0.3,0.6,0.6c0.1,0.3,0.2,0.7,0.4,1c0.4,0.7,1,1.2,1,1.2s0.4-0.7,0.6-1.1c0,0,0-0.1,0.1-0.1
		c0.1-0.1,0.3-0.1,0.6,0c0.4,0.2,0.8,0.8,1.1,1.9c0.1,0.2,0.1,0.4,0.2,0.6c0.3,0.7,0.8,1.2,1.3,1.6c0.6,0.5,1.1,0.7,1.1,0.7
		s0-0.3,0-0.7c0-0.5,0-1.1,0-1.6c0-0.2,0-0.3,0-0.5c0.1-0.9,2.5-1.7,3-1.8c0.4-0.1,3.4,1.4,3.4,0.9c0-0.4,0.5-0.8,1-1.2
		c0.1-0.1,0.2-0.2,0.3-0.2c0.2-0.2,0.5,0,0.8,0.2c0.5,0.5,1,1.2,1,0.9c0.1-0.5,0.5,0.8,0.7,1.4c0.1,0.3,0.2,0.8,0.3,1.3
		c0,0.3,0.1,0.6,0,0.9c0,0.2,0.1,0.4,0.2,0.7c0.4,0.7,2.1,0.5,2.3,0.4c0.1-0.1,0.2-0.7,0.3-1.4c0-0.5,0-1.1,0-1.6
		c-0.1-0.3-0.1-0.6-0.3-0.7c-0.3-0.3-0.5-1-0.6-1.8c-0.1-0.5-0.1-1.1,0-1.6c0-0.4,0.1-0.7,0.3-0.8c0.2-0.2,1.1-0.9,1.9-1.7
		c0.6-0.5,1.1-1.1,1.6-1.6c0.6-0.7,1-1.3,0.7-1.4c-0.5-0.2-0.6-0.6-0.5-1.1c0-0.4,0.1-0.9,0.2-1.5c0,0,0,0,0-0.1
		c0.2-1.4,1,0.3,1.4-1.6c0.1-0.4,0.3-0.7,0.5-0.9c1-0.9,2.9-0.9,2.6-1.2c-0.1-0.1-0.2-0.2-0.2-0.4c-0.1-0.5,0-1.2,0.5-1.6
		c0.2-0.2,0.7-0.5,1.2-0.9c0.7-0.6,1.5-1.3,1.3-1.5l0,0c0,0,0,0,0,0c-0.4-0.4-2.9-0.1-2.9-0.1s0,0.1-0.1,0.1
		c-0.1,0.2-0.3,0.5-0.7,0.6c-0.6,0.2-9.1,0.3-9.3-0.3c0-0.1-0.1-0.2-0.2-0.3c-0.4-0.3-1.2-0.2-1.2-0.2s-0.1,0.1-0.2,0.2
		c-0.2,0.3-0.7,0.8-1,0.9c-0.4,0.1-0.5-0.4-0.4-0.9c0-0.1,0-0.3,0.1-0.4c0.1-0.3-0.9-1.5-1.7-2.1c-0.4-0.3-0.7-0.4-0.9-0.3
		c-0.7,0.2-4.2-1.2-4.2-1.2h-21.7c0,0,0,0.5-0.1,1c0,0,0,0.1,0,0.1c0,0.2-0.1,0.4-0.1,0.5C167.6,121.8,167,122.7,167,123.6z
		 M212.2,124.4"/>
	<g class="st1">
		<defs>
			<path id="SVGID_1_" d="M167,123.6v8.1c0,0.3,0.2,0.5,0.4,0.8c0.4,0.4,1,0.7,0.9,1.5c0,0,0,0,0,0.1c-0.1,0.9,0.9,1.9,1.7,2.5
				c0.2,0.2,0.4,0.4,0.5,0.5c0.2,0.2,0.5,0.7,0.8,1.1c0.4,0.6,0.9,1.1,1.2,1.1c0.4-0.1,1.3-0.4,1.8,0.2c0.4,0.5,2.4,1.1,3.4,1.2h0.6
				c0.6-0.1,2-0.3,2.9,0c0.3,0.1,0.6,0.3,0.6,0.6c0.1,0.3,0.2,0.7,0.4,1c0.4,0.7,1,1.2,1,1.2s0.4-0.7,0.6-1.1c0,0,0-0.1,0.1-0.1
				c0.1-0.1,0.3-0.1,0.6,0c0.4,0.2,0.8,0.8,1.1,1.9c0.1,0.2,0.1,0.4,0.2,0.6c0.3,0.7,0.8,1.2,1.3,1.6c0.6,0.5,1.1,0.7,1.1,0.7
				s0-0.3,0-0.7c0-0.5,0-1.1,0-1.6c0-0.2,0-0.3,0-0.5c0.1-0.9,2.5-1.7,3-1.8c0.4-0.1,3.4,1.4,3.4,0.9c0-0.4,0.5-0.8,1-1.2
				c0.1-0.1,0.2-0.2,0.3-0.2c0.2-0.2,0.5,0,0.8,0.2c0.5,0.5,1,1.2,1,0.9c0.1-0.5,0.5,0.8,0.7,1.4c0.1,0.3,0.2,0.8,0.3,1.3
				c0,0.3,0.1,0.6,0,0.9c0,0.2,0.1,0.4,0.2,0.7c0.4,0.7,2.1,0.5,2.3,0.4c0.1-0.1,0.2-0.7,0.3-1.4c0-0.5,0-1.1,0-1.6
				c-0.1-0.3-0.1-0.6-0.3-0.7c-0.3-0.3-0.5-1-0.6-1.8c-0.1-0.5-0.1-1.1,0-1.6c0-0.4,0.1-0.7,0.3-0.8c0.2-0.2,1.1-0.9,1.9-1.7
				c0.6-0.5,1.1-1.1,1.6-1.6c0.6-0.7,1-1.3,0.7-1.4c-0.5-0.2-0.6-0.6-0.5-1.1c0-0.4,0.1-0.9,0.2-1.5c0,0,0,0,0-0.1
				c0.2-1.4,1,0.3,1.4-1.6c0.1-0.4,0.3-0.7,0.5-0.9c1-0.9,2.9-0.9,2.6-1.2c-0.1-0.1-0.2-0.2-0.2-0.4c-0.1-0.5,0-1.2,0.5-1.6
				c0.2-0.2,0.7-0.5,1.2-0.9c0.7-0.6,1.5-1.3,1.3-1.5l0,0c0,0,0,0,0,0c-0.4-0.4-2.9-0.1-2.9-0.1s0,0.1-0.1,0.1
				c-0.1,0.2-0.3,0.5-0.7,0.6c-0.6,0.2-9.1,0.3-9.3-0.3c0-0.1-0.1-0.2-0.2-0.3c-0.4-0.3-1.2-0.2-1.2-0.2s-0.1,0.1-0.2,0.2
				c-0.2,0.3-0.7,0.8-1,0.9c-0.4,0.1-0.5-0.4-0.4-0.9c0-0.1,0-0.3,0.1-0.4c0.1-0.3-0.9-1.5-1.7-2.1c-0.4-0.3-0.7-0.4-0.9-0.3
				c-0.7,0.2-4.2-1.2-4.2-1.2h-21.7c0,0,0,0.5-0.1,1c0,0,0,0.1,0,0.1c0,0.2-0.1,0.4-0.1,0.5C167.6,121.8,167,122.7,167,123.6z
				 M212.2,124.4"/>
		</defs>
		<clipPath id="SVGID_2_">
			<use xlink:href="#SVGID_1_"  style="overflow:visible;"/>
		</clipPath>
		<g class="st18">
			<line class="st19" x1="165.1" y1="143.9" x2="215.3" y2="143.9"/>
			<line class="st19" x1="165.1" y1="138.9" x2="215.3" y2="138.9"/>
			<line class="st19" x1="165.1" y1="133.9" x2="215.3" y2="133.9"/>
			<line class="st19" x1="165.1" y1="128.9" x2="215.3" y2="128.9"/>
			<line class="st19" x1="165.1" y1="123.9" x2="215.3" y2="123.9"/>
		</g>
	</g>
	<path class="st7" d="M167,132.1h17.7c0.6,0,1.1-0.5,1.1-1.1v-10.7h-17.9l-1.1,3.3L167,132.1z"/>
	<g class="st1">
		<path class="st20" d="M183.5,129.3l-1,0l-0.1-0.2l-0.2-0.7c0-0.1-0.2-0.1-0.2,0l-0.2,0.7l-0.1,0.2l-1,0c-0.1,0-0.2,0.2-0.1,0.2
			l0.8,0.6l-0.3,0.9c0,0.1,0.1,0.2,0.2,0.1l0.8-0.6l0.8,0.6c0.1,0.1,0.2,0,0.2-0.1l-0.3-0.9l0.8-0.6
			C183.7,129.4,183.6,129.3,183.5,129.3z"/>
		<path class="st20" d="M183.5,125.3l-1,0l-0.1-0.2l-0.2-0.7c0-0.1-0.2-0.1-0.2,0l-0.2,0.7l-0.1,0.2l-1,0c-0.1,0-0.2,0.2-0.1,0.2
			l0.8,0.6l-0.3,0.9c0,0.1,0.1,0.2,0.2,0.1l0.8-0.6l0.8,0.6c0.1,0.1,0.2,0,0.2-0.1l-0.3-0.9l0.8-0.6
			C183.7,125.4,183.6,125.3,183.5,125.3z"/>
		<path class="st20" d="M183.5,121.3l-1,0l-0.1-0.2l-0.2-0.7c0-0.1-0.2-0.1-0.2,0l-0.2,0.7l-0.1,0.2l-1,0c-0.1,0-0.2,0.2-0.1,0.2
			l0.8,0.6l-0.3,0.9c0,0.1,0.1,0.2,0.2,0.1l0.8-0.6l0.8,0.6c0.1,0.1,0.2,0,0.2-0.1l-0.3-0.9l0.8-0.6
			C183.7,121.4,183.6,121.3,183.5,121.3z"/>
	</g>
	<g class="st1">
		<path class="st20" d="M179.5,129.3l-1,0l-0.1-0.2l-0.2-0.7c0-0.1-0.2-0.1-0.2,0l-0.2,0.7l-0.1,0.2l-1,0c-0.1,0-0.2,0.2-0.1,0.2
			l0.8,0.6l-0.3,0.9c0,0.1,0.1,0.2,0.2,0.1l0.8-0.6l0.8,0.6c0.1,0.1,0.2,0,0.2-0.1l-0.3-0.9l0.8-0.6
			C179.7,129.4,179.6,129.3,179.5,129.3z"/>
		<path class="st20" d="M179.5,125.3l-1,0l-0.1-0.2l-0.2-0.7c0-0.1-0.2-0.1-0.2,0l-0.2,0.7l-0.1,0.2l-1,0c-0.1,0-0.2,0.2-0.1,0.2
			l0.8,0.6l-0.3,0.9c0,0.1,0.1,0.2,0.2,0.1l0.8-0.6l0.8,0.6c0.1,0.1,0.2,0,0.2-0.1l-0.3-0.9l0.8-0.6
			C179.7,125.4,179.6,125.3,179.5,125.3z"/>
		<path class="st20" d="M179.5,121.3l-1,0l-0.1-0.2l-0.2-0.7c0-0.1-0.2-0.1-0.2,0l-0.2,0.7l-0.1,0.2l-1,0c-0.1,0-0.2,0.2-0.1,0.2
			l0.8,0.6l-0.3,0.9c0,0.1,0.1,0.2,0.2,0.1l0.8-0.6l0.8,0.6c0.1,0.1,0.2,0,0.2-0.1l-0.3-0.9l0.8-0.6
			C179.7,121.4,179.6,121.3,179.5,121.3z"/>
	</g>
	<g class="st1">
		<path class="st20" d="M175.5,129.3l-1,0l-0.1-0.2l-0.2-0.7c0-0.1-0.2-0.1-0.2,0l-0.2,0.7l-0.1,0.2l-1,0c-0.1,0-0.2,0.2-0.1,0.2
			l0.8,0.6l-0.3,0.9c0,0.1,0.1,0.2,0.2,0.1l0.8-0.6l0.8,0.6c0.1,0.1,0.2,0,0.2-0.1l-0.3-0.9l0.8-0.6
			C175.7,129.4,175.6,129.3,175.5,129.3z"/>
		<path class="st20" d="M175.5,125.3l-1,0l-0.1-0.2l-0.2-0.7c0-0.1-0.2-0.1-0.2,0l-0.2,0.7l-0.1,0.2l-1,0c-0.1,0-0.2,0.2-0.1,0.2
			l0.8,0.6l-0.3,0.9c0,0.1,0.1,0.2,0.2,0.1l0.8-0.6l0.8,0.6c0.1,0.1,0.2,0,0.2-0.1l-0.3-0.9l0.8-0.6
			C175.7,125.4,175.6,125.3,175.5,125.3z"/>
		<path class="st20" d="M175.5,121.3l-1,0l-0.1-0.2l-0.2-0.7c0-0.1-0.2-0.1-0.2,0l-0.2,0.7l-0.1,0.2l-1,0c-0.1,0-0.2,0.2-0.1,0.2
			l0.8,0.6l-0.3,0.9c0,0.1,0.1,0.2,0.2,0.1l0.8-0.6l0.8,0.6c0.1,0.1,0.2,0,0.2-0.1l-0.3-0.9l0.8-0.6
			C175.7,121.4,175.6,121.3,175.5,121.3z"/>
	</g>
	<g class="st1">
		<path class="st20" d="M171.5,129.3l-1,0l-0.1-0.2l-0.2-0.7c0-0.1-0.2-0.1-0.2,0l-0.2,0.7l-0.1,0.2l-1,0c-0.1,0-0.2,0.2-0.1,0.2
			l0.8,0.6l-0.3,0.9c0,0.1,0.1,0.2,0.2,0.1l0.8-0.6l0.8,0.6c0.1,0.1,0.2,0,0.2-0.1l-0.3-0.9l0.8-0.6
			C171.7,129.4,171.6,129.3,171.5,129.3z"/>
		<path class="st20" d="M171.5,125.3l-1,0l-0.1-0.2l-0.2-0.7c0-0.1-0.2-0.1-0.2,0l-0.2,0.7l-0.1,0.2l-1,0c-0.1,0-0.2,0.2-0.1,0.2
			l0.8,0.6l-0.3,0.9c0,0.1,0.1,0.2,0.2,0.1l0.8-0.6l0.8,0.6c0.1,0.1,0.2,0,0.2-0.1l-0.3-0.9l0.8-0.6
			C171.7,125.4,171.6,125.3,171.5,125.3z"/>
		<path class="st20" d="M171.5,121.3l-1,0l-0.1-0.2l-0.2-0.7c0-0.1-0.2-0.1-0.2,0l-0.2,0.7l-0.1,0.2l-1,0c-0.1,0-0.2,0.2-0.1,0.2
			l0.8,0.6l-0.3,0.9c0,0.1,0.1,0.2,0.2,0.1l0.8-0.6l0.8,0.6c0.1,0.1,0.2,0,0.2-0.1l-0.3-0.9l0.8-0.6
			C171.7,121.4,171.6,121.3,171.5,121.3z"/>
	</g>
</g>
<g class="st0">
	<g class="st1">
		<path class="st2" d="M221.6,180.2c0,0-0.1-0.1-0.1-0.1c-0.2-0.2-0.8-0.8-4.6-0.4c-0.3,0-0.6,0.3-0.7,0.6c-0.1,0.1-0.2,0.3-0.5,0.4
			c-1.1,0.2-10.5,0.3-12.1-0.2c-0.1-0.2-0.2-0.3-0.4-0.5c-0.8-0.6-2-0.5-2.3-0.5c-0.2,0-0.4,0.1-0.5,0.3c0,0-0.1,0.1-0.2,0.3
			c-0.3,0.4-0.5,0.6-0.7,0.8c0-0.1,0-0.2,0-0.3c0-0.1,0-0.3,0.1-0.4c0.4-1.3-2.2-3.4-2.7-3.8c-0.8-0.5-1.4-0.7-1.9-0.6
			c-0.6,0.1-3.2-0.8-5.3-1.7c-0.1,0-0.2-0.1-0.3-0.1h-30c-0.4,0-0.7,0.3-0.8,0.7c0,0-0.1,0.7-0.2,1.3l0,0.1c0,0.3-0.1,0.4-0.1,0.4
			c-0.2,0.3-1,1.5-1,2.8v11.2c0,0.8,0.4,1.3,0.8,1.6c0.1,0.1,0.2,0.2,0.3,0.3c0.6,0.5,0.8,0.7,0.7,1.2c0,0,0,0.1,0,0.1
			c-0.1,1.6,1.5,3.2,2.6,4.1c0.3,0.2,0.5,0.4,0.6,0.6c0.2,0.2,0.5,0.6,0.7,0.9l0.4,0.5c1,1.3,1.6,1.9,2.3,1.7c0.1,0,0.2-0.1,0.3-0.1
			c0.8-0.2,1.1-0.2,1.4,0.1c0.9,1.1,4.2,1.8,5.3,1.9h0.8c0,0,0.1,0,0.2,0c0.7-0.1,2.6-0.4,3.6,0c0.2,0.1,0.4,0.2,0.4,0.3
			c0.1,0.5,0.3,1,0.7,1.5c0.6,1.1,1.5,1.8,1.5,1.9c0.2,0.2,0.4,0.2,0.6,0.2c0.2,0,0.4-0.2,0.5-0.4c0,0,0.5-0.8,0.7-1.4
			c0.4,0.2,0.8,0.9,1.2,2.1c0.1,0.3,0.2,0.7,0.4,1c0.4,0.9,1.1,1.7,2,2.4c0.9,0.7,1.7,1,1.7,1c0.2,0.1,0.5,0.1,0.7-0.1
			s0.3-0.4,0.3-0.6c0,0,0-0.4,0-0.9c0-0.6,0-1.4,0.1-2.1c0-0.2,0-0.4,0-0.6c0.1-0.6,2.5-1.6,3.4-1.8c0.2,0,1.1,0.4,1.7,0.6
			c2,0.8,2.8,1,3.3,0.6c0.2-0.2,0.4-0.4,0.4-0.7c0-0.2,0.8-0.8,1.2-1l0.3-0.2c0.1,0,0.2,0.1,0.3,0.2c0.2,0.2,0.5,0.5,0.7,0.7
			c0.4,0.4,0.7,0.8,1.1,0.8c0.1,0.4,0.3,0.8,0.4,1.3c0.2,0.6,0.3,1.2,0.4,1.7c0.1,0.5,0.1,0.8,0,1c0,0.4,0.1,0.8,0.4,1.4
			c0.3,0.6,1,1,2,1.1c0,0,0.3,0,0.7,0c0.6,0,1.4-0.1,1.7-0.4c0.3-0.3,0.5-1.1,0.5-2.4c0-0.5,0.1-1.5-0.1-2.3
			c-0.1-0.6-0.3-1.1-0.6-1.4c-0.1-0.1-0.4-0.8-0.6-2.1c-0.1-0.7-0.1-1.4,0-2c0.1-0.5,0.1-0.6,0.1-0.6c0.4-0.3,1.5-1.3,2.7-2.4
			c0.9-0.8,1.7-1.6,2.2-2.2c1.1-1.2,1.5-1.9,1.3-2.5c-0.1-0.3-0.3-0.5-0.6-0.7c-0.2-0.1-0.3-0.1-0.2-0.8c0-0.2,0.1-0.5,0.1-0.8
			c0.1-0.4,0.1-0.8,0.2-1.3c0-0.1,0-0.1,0-0.2c1,0,1.6-0.5,1.9-1.9c0.1-0.3,0.2-0.6,0.5-0.9c0.7-0.6,1.8-0.9,2.5-1.1
			c0.7-0.2,1.2-0.3,1.3-0.9c0.1-0.3-0.1-0.6-0.3-0.8c0,0,0,0-0.1-0.1c-0.1-0.4,0-1.1,0.4-1.4c0.1-0.1,0.3-0.3,0.5-0.4
			c0.3-0.2,0.7-0.5,1.1-0.8C221.1,182.2,222.2,181.1,221.6,180.2z M218.7,182.2c-0.4,0.3-0.7,0.6-1,0.8c-0.2,0.2-0.4,0.3-0.6,0.5
			c-0.9,0.7-1.1,2.1-0.9,3c-0.9,0.2-2.1,0.6-3,1.4c-0.5,0.5-0.8,1.1-1,1.7c-0.1,0.6-0.2,0.7-0.2,0.7h-0.2c-0.6,0-1.4,0.1-1.6,1.6
			c0,0.4-0.1,0.8-0.2,1.2c-0.1,0.3-0.1,0.6-0.1,0.9c0,0.5-0.1,1.4,0.7,2c-0.1,0.2-0.4,0.5-0.8,1c-0.5,0.6-1.2,1.3-2.1,2.1
			c-1.2,1.1-2.3,2-2.7,2.3c-0.4,0.3-0.6,0.8-0.7,1.6c-0.1,0.6-0.1,1.5,0,2.3c0.1,0.8,0.4,2.3,1,2.9c0,0,0.1,0.1,0.2,0.6
			c0.1,0.5,0.1,1.2,0.1,2c0,0.7-0.1,1.2-0.2,1.4c-0.6,0.1-1.7,0-1.9-0.3c-0.2-0.4-0.2-0.5-0.2-0.5c0-0.4,0-0.8,0-1.4
			c-0.1-0.5-0.2-1.2-0.4-1.8c-0.7-2.7-1.3-2.6-1.6-2.6c0,0-0.1,0-0.1,0c0,0,0,0-0.1-0.1c-0.2-0.3-0.5-0.6-0.8-0.9
			c-1-0.9-1.7-0.6-2.1-0.4l-0.4,0.3c-0.6,0.4-1.3,0.9-1.6,1.5c-0.5-0.1-1.3-0.4-1.8-0.6c-1.5-0.6-2-0.7-2.4-0.7c0,0-4.6,1.1-4.7,3.2
			c0,0.2,0,0.4,0,0.6c0,0.6,0,1.3,0,1.9c-0.1-0.1-0.3-0.2-0.4-0.3c-0.7-0.6-1.3-1.2-1.6-1.9c-0.1-0.2-0.2-0.5-0.3-0.7
			c-0.4-1.5-1.1-2.6-1.9-3.1c-0.6-0.4-1.3-0.3-1.8,0.1c-0.1,0.1-0.2,0.2-0.2,0.3c-0.1,0.2-0.2,0.4-0.3,0.6c-0.2-0.2-0.4-0.5-0.6-0.8
			c-0.3-0.4-0.4-0.8-0.5-1.1c-0.1-0.4-0.4-1-1.3-1.3c-1.3-0.5-3.4-0.2-4.3,0h-0.6c-1.5-0.2-3.9-0.9-4.2-1.4
			c-0.9-1.1-2.2-0.8-2.9-0.7c0,0-0.1,0-0.1,0c-0.1-0.1-0.4-0.4-1-1.2l-0.4-0.5c-0.3-0.4-0.6-0.8-0.8-1c-0.2-0.2-0.4-0.4-0.8-0.7
			c-0.7-0.7-2.1-1.9-2-2.9c0.2-1.3-0.7-2-1.3-2.5c-0.1-0.1-0.2-0.1-0.3-0.2l0,0c-0.3-0.3-0.3-0.4-0.3-0.5v-11.2c0-1,0.7-2,0.7-2
			c0,0,0-0.1,0-0.1c0.1-0.2,0.2-0.4,0.2-0.8l0-0.2c0-0.2,0.1-0.5,0.1-0.7h2.1l0.2-0.5c0-0.2,0.3-0.2,0.3,0l0.2,0.5h4.9l0.2-0.5
			c0.1-0.2,0.3-0.2,0.3,0l0.2,0.5h4.9l0.2-0.5c0.1-0.2,0.3-0.2,0.3,0l0.2,0.5h4.8l0.2-0.5c0.1-0.2,0.3-0.2,0.3,0l0.2,0.5h9.8
			c2.3,0.9,5,1.9,6.1,1.7c0.1,0,0.3,0.1,0.6,0.3c1,0.7,1.9,1.8,2.1,2.2c0,0.2-0.1,0.4-0.1,0.5c-0.1,0.5,0,1.4,0.5,1.9
			c0.3,0.2,0.7,0.3,1.1,0.2c0.2-0.1,0.8-0.3,1.8-1.5c0,0,0,0,0,0c0.3,0,0.7,0,0.8,0.2c0.6,1.9,13.7,1,13.8,0.9
			c0.7-0.2,1.1-0.7,1.3-1c0.9-0.1,1.9-0.1,2.5,0C219.7,181.4,219.3,181.7,218.7,182.2z"/>
	</g>
	<g class="st1">
		<g>
			<line class="st19" x1="184.2" y1="207.7" x2="187.8" y2="207.7"/>
			<line class="st19" x1="202.2" y1="207.7" x2="205.9" y2="207.7"/>
			<line class="st19" x1="165.7" y1="200.8" x2="206.7" y2="200.8"/>
			<line class="st19" x1="160.7" y1="193.9" x2="210.2" y2="193.9"/>
			<line class="st19" x1="182.7" y1="187" x2="216.2" y2="187"/>
			<line class="st19" x1="182.7" y1="180.1" x2="198.2" y2="180.1"/>
		</g>
	</g>
	<g class="st1">
		<path class="st2" d="M159.6,175l-1.5,4.5l0.3,11.8h24.4c0.8,0,1.5-0.7,1.5-1.5V175H159.6z M164.7,187.9l-1.1,0.8l0.4,1.3
			c0,0.2-0.1,0.3-0.3,0.2l-1.1-0.8l-1.1,0.8c-0.1,0.1-0.3,0-0.3-0.2l0.4-1.3l-1-0.8c-0.1-0.1-0.1-0.3,0.1-0.3l1.3,0l0.1-0.3l0.3-1
			c0-0.2,0.3-0.2,0.3,0l0.3,1l0.1,0.3l1.3,0C164.8,187.6,164.8,187.8,164.7,187.9z M164.7,182.4l-1.1,0.8l0.4,1.3
			c0,0.2-0.1,0.3-0.3,0.2l-1.1-0.8l-1.1,0.8c-0.1,0.1-0.3,0-0.3-0.2l0.4-1.3l-1-0.8c-0.1-0.1-0.1-0.3,0.1-0.3l1.3,0l0.1-0.3l0.3-0.9
			c0-0.2,0.3-0.2,0.3,0l0.3,0.9l0.1,0.3l1.3,0C164.8,182.1,164.8,182.3,164.7,182.4z M164.7,176.9l-1.1,0.8l0.4,1.3
			c0,0.2-0.1,0.3-0.3,0.2l-1.1-0.8l-1.1,0.8c-0.1,0.1-0.3,0-0.3-0.2l0.4-1.3l-1-0.8c-0.1-0.1-0.1-0.3,0.1-0.3l1.3,0l0.1-0.3l0.2-0.5
			l0.2-0.5c0-0.2,0.3-0.2,0.3,0l0.2,0.5l0.1,0.5l0.1,0.3l1.3,0C164.8,176.5,164.8,176.8,164.7,176.9z M170.2,187.9l-1.1,0.8l0.4,1.3
			c0.1,0.2-0.1,0.3-0.3,0.2l-1.1-0.8l-1.1,0.8c-0.1,0.1-0.3,0-0.3-0.2l0.4-1.3l-1.1-0.8c-0.1-0.1-0.1-0.3,0.1-0.3l1.3,0l0.1-0.3
			l0.3-1c0.1-0.2,0.3-0.2,0.3,0l0.3,1l0.1,0.3l1.3,0C170.3,187.6,170.4,187.8,170.2,187.9z M170.2,182.4l-1.1,0.8l0.4,1.3
			c0.1,0.2-0.1,0.3-0.3,0.2l-1.1-0.8l-1.1,0.8c-0.1,0.1-0.3,0-0.3-0.2l0.4-1.3l-1.1-0.8c-0.1-0.1-0.1-0.3,0.1-0.3l1.3,0l0.1-0.3
			l0.3-0.9c0.1-0.2,0.3-0.2,0.3,0l0.3,0.9l0.1,0.3l1.3,0C170.3,182.1,170.4,182.3,170.2,182.4z M170.2,176.9l-1.1,0.8l0.4,1.3
			c0.1,0.2-0.1,0.3-0.3,0.2l-1.1-0.8l-1.1,0.8c-0.1,0.1-0.3,0-0.3-0.2l0.4-1.3l-1.1-0.8c-0.1-0.1-0.1-0.3,0.1-0.3l1.3,0l0.1-0.3
			l0.2-0.5l0.2-0.5c0.1-0.2,0.3-0.2,0.3,0l0.2,0.5l0.2,0.5l0.1,0.3l1.3,0C170.3,176.5,170.4,176.8,170.2,176.9z M175.8,187.9l-1,0.8
			l0.4,1.3c0,0.2-0.1,0.3-0.3,0.2l-1.1-0.8l-1.1,0.8c-0.1,0.1-0.3,0-0.3-0.2l0.4-1.3l-1.1-0.8c-0.1-0.1-0.1-0.3,0.1-0.3l1.3,0
			l0.1-0.3l0.3-1c0.1-0.2,0.3-0.2,0.3,0l0.3,1l0.1,0.3l1.3,0C175.8,187.6,175.9,187.8,175.8,187.9z M175.8,182.4l-1,0.8l0.4,1.3
			c0,0.2-0.1,0.3-0.3,0.2l-1.1-0.8l-1.1,0.8c-0.1,0.1-0.3,0-0.3-0.2l0.4-1.3l-1.1-0.8c-0.1-0.1-0.1-0.3,0.1-0.3l1.3,0l0.1-0.3
			l0.3-0.9c0.1-0.2,0.3-0.2,0.3,0l0.3,0.9l0.1,0.3l1.3,0C175.8,182.1,175.9,182.3,175.8,182.4z M175.8,176.9l-1,0.8l0.4,1.3
			c0,0.2-0.1,0.3-0.3,0.2l-1.1-0.8l-1.1,0.8c-0.1,0.1-0.3,0-0.3-0.2l0.4-1.3l-1.1-0.8c-0.1-0.1-0.1-0.3,0.1-0.3l1.3,0l0.1-0.3
			l0.2-0.5l0.2-0.5c0.1-0.2,0.3-0.2,0.3,0l0.2,0.5l0.1,0.5l0.1,0.3l1.3,0C175.8,176.5,175.9,176.8,175.8,176.9z M181.3,187.9
			l-1.1,0.8l0.4,1.3c0.1,0.2-0.1,0.3-0.3,0.2l-1.1-0.8l-1.1,0.8c-0.1,0.1-0.3,0-0.3-0.2l0.4-1.3l-1.1-0.8c-0.1-0.1-0.1-0.3,0.1-0.3
			l1.3,0l0.1-0.3l0.3-1c0.1-0.2,0.3-0.2,0.3,0l0.3,1l0.1,0.3l1.3,0C181.4,187.6,181.4,187.8,181.3,187.9z M181.3,182.4l-1.1,0.8
			l0.4,1.3c0.1,0.2-0.1,0.3-0.3,0.2l-1.1-0.8l-1.1,0.8c-0.1,0.1-0.3,0-0.3-0.2l0.4-1.3l-1.1-0.8c-0.1-0.1-0.1-0.3,0.1-0.3l1.3,0
			l0.1-0.3l0.3-0.9c0.1-0.2,0.3-0.2,0.3,0l0.3,0.9l0.1,0.3l1.3,0C181.4,182.1,181.4,182.3,181.3,182.4z M179.8,176.2l0.1,0.3l1.3,0
			c0.2,0,0.2,0.2,0.1,0.3l-1.1,0.8l0.4,1.3c0.1,0.2-0.1,0.3-0.3,0.2l-1.1-0.8l-1.1,0.8c-0.1,0.1-0.3,0-0.3-0.2l0.4-1.3l-1.1-0.8
			c-0.1-0.1-0.1-0.3,0.1-0.3l1.3,0l0.1-0.3l0.1-0.5l0.2-0.5c0.1-0.2,0.3-0.2,0.3,0l0.2,0.5L179.8,176.2z"/>
	</g>
</g>
<g id="icon1">
	<g>
		<g>
			<g>
				<g>
					<path class="st2" d="M58.1,21.3L58.1,21.3C58.1,21.3,58,21.2,58.1,21.3c0-0.1-0.1-0.2-0.1-0.2c0,0,0,0,0-0.1
						c0,0-0.1-0.1-0.1-0.1c-0.1,0-0.1-0.1-0.2-0.1c-0.1,0-0.1,0-0.2-0.1c0,0,0,0-0.1,0h0l-20.7-2c-0.2,0-0.3,0-0.5,0.1l-4.1,2.8l0,0
						c-0.1,0.1-0.2,0.2-0.3,0.4c0,0,0,0.1,0,0.1c0,0,0,0.1,0,0.2v33.9c0,0.4,0.3,0.7,0.7,0.7l20.6,2c0.1,0,0.1,0,0.2,0
						c0.1,0,0.1,0,0.2,0c0.1,0,0.1-0.1,0.2-0.1l4.1-2.8c0.2-0.1,0.3-0.4,0.3-0.6V21.5C58.1,21.4,58.1,21.4,58.1,21.3z M36.8,20.2
						L55.2,22L53,23.5l-18.4-1.8L36.8,20.2z M52.5,57.4l-19.3-1.9V23.1L52.5,25V57.4z M56.6,54.9L54,56.7v-32l2.6-1.8V54.9z"/>
					<path class="st2" d="M58.1,21.3C58.1,21.3,58.1,21.3,58.1,21.3S58,21.2,58.1,21.3C58,21.2,58,21.3,58.1,21.3z"/>
				</g>
			</g>
		</g>
		<g id="_x36__3_">
			<g>
				<path class="st2" d="M48.4,28.1l-11.1-1c-1.1,0-2,0.9-2,2v22c0,1.1,0.9,2,1.9,2h0l11,1h0.1c1.1,0,2-0.9,2-2v-22
					C50.3,29,49.4,28.1,48.4,28.1z M43.1,52.6L43.1,52.6c-0.2,0.1-0.4,0.2-0.6,0.2c-0.3,0-0.5-0.1-0.7-0.3c-0.2-0.2-0.3-0.4-0.3-0.7
					c0-0.1,0-0.2,0.1-0.3c0.1-0.4,0.5-0.7,0.9-0.7c0.5,0,0.9,0.4,1,0.8c0,0,0,0.1,0,0.2C43.5,52.2,43.4,52.5,43.1,52.6z M48.8,49.1
					c0,0.4-0.2,0.7-0.5,0.9c-0.2,0.1-0.3,0.1-0.5,0.1l-10-1c-0.2,0-0.4,0-0.5-0.1c-0.3-0.2-0.5-0.5-0.5-0.9v-17
					c0-0.3,0.2-0.6,0.4-0.8c0.2-0.1,0.4-0.2,0.6-0.2l10,1c0.2,0,0.3,0,0.5,0.1c0.3,0.2,0.5,0.5,0.5,0.9V49.1z"/>
			</g>
		</g>
	</g>
	<g>
		<g>
			<g>
				<path class="st2" d="M1.8,21.2C1.8,21.2,1.7,21.3,1.8,21.2C1.7,21.3,1.7,21.3,1.8,21.2C1.8,21.3,1.8,21.2,1.8,21.2z"/>
			</g>
			<g>
				<path class="st2" d="M5.8,56.7l-2.6-1.8V22.9l2.6,1.8V56.7z M28.1,22.2C28.1,22.1,28,22.1,28.1,22.2c-0.1-0.2-0.2-0.4-0.3-0.5
					l0,0l-4.1-2.8c-0.2-0.1-0.3-0.1-0.5-0.1l-20.7,2h0c0,0,0,0-0.1,0c-0.1,0-0.2,0-0.2,0.1c-0.1,0-0.1,0.1-0.2,0.1
					c-0.1,0-0.1,0.1-0.1,0.1c0,0,0,0,0,0.1c0,0,0,0.1,0,0.1c0,0,0,0,0,0.1v0c0,0,0,0.1,0,0.1v33.9c0,0.3,0.1,0.5,0.3,0.6l4.1,2.8
					c0,0,0,0,0.1,0c0,0,0.1,0.1,0.1,0.1c0.1,0,0.1,0,0.2,0c0.1,0,0.1,0,0.2,0l20.6-2c0.4,0,0.7-0.4,0.7-0.7V22.3
					C28.1,22.3,28.1,22.2,28.1,22.2z M4.6,22L23,20.2l2.2,1.5L6.8,23.5L4.6,22z M26.6,55.5L7.3,57.4V25l19.3-1.8V55.5z"/>
			</g>
		</g>
	</g>
	<g id="x_4_">
		<g>
			<path class="st2" d="M22.9,25.1L22.9,25.1L11,26.2c-1.1,0-2,0.9-2,2v25c0,1.1,0.9,2,2.1,2h0l12-1.1c1.1,0,2-0.9,2-2v-25
				C25,26,24.1,25.1,22.9,25.1z M24,52.1c0,0.5-0.5,1-1,1l-12,1.1c-0.6,0-1-0.5-1-1v-25c0-0.6,0.4-1,1-1l1.4-0.1v0.5
				c0,0.2,0,0.3,0.1,0.5c0.2,0.3,0.5,0.5,0.9,0.5l7.2-0.8c0.4,0,0.8-0.3,0.9-0.6c0-0.1,0.1-0.3,0.1-0.4v-0.6l1.4-0.1
				c0.5,0,1,0.5,1,1V52.1z"/>
		</g>
	</g>
	<g class="st21">
		
			<image style="overflow:visible;" width="92" height="92" xlink:href="5E209E4C.png"  transform="matrix(1 0 0 1 9.0208 -28.0625)">
		</image>
	</g>
	<circle class="st22" cx="55" cy="17.9" r="10"/>
	<polyline class="st23" points="51.5,19.4 54.6,21.8 59.6,14.1 	"/>
</g>
<g class="st0">
	<ellipse class="st24" cx="51" cy="265.9" rx="8" ry="8"/>
	<line class="st24" x1="51" y1="265.9" x2="51" y2="257.9"/>
	<line class="st24" x1="51" y1="271.8" x2="51" y2="273.9"/>
	<line class="st24" x1="59" y1="265.9" x2="56.8" y2="265.9"/>
	<line class="st24" x1="45.2" y1="265.9" x2="43" y2="265.9"/>
	<line class="st24" x1="51" y1="265.9" x2="56.7" y2="260.3"/>
	<line class="st24" x1="46.9" y1="270.1" x2="45.4" y2="271.6"/>
	<line class="st24" x1="56.7" y1="271.6" x2="55.1" y2="270.1"/>
	<line class="st24" x1="46.9" y1="261.8" x2="45.4" y2="260.3"/>
</g>
<g class="st0">
	<line class="st17" x1="89" y1="75.9" x2="89" y2="76.9"/>
	<line class="st17" x1="92" y1="73.9" x2="92" y2="76.9"/>
	<line class="st17" x1="95" y1="70.9" x2="95" y2="76.9"/>
</g>
<g class="st0">
	<line class="st17" x1="222.1" y1="-23" x2="232" y2="-13.1"/>
	<line class="st17" x1="232" y1="-23" x2="222.1" y2="-13.1"/>
</g>
<g class="st0">
	<path class="st25" d="M211.9-20.6c0,0-0.5-0.5-0.6-0.6c-2-2-5.3-2.1-7.3,0c-2,2-2,5.3,0,7.4c2,2,5.3,2,7.4,0"/>
	<polyline class="st25" points="210,-20.2 212.3,-20.2 212.3,-22.5 	"/>
</g>
<g class="st0">
	<line class="st26" x1="158" y1="-8.1" x2="178" y2="-8.1"/>
	<line class="st26" x1="158" y1="-2.1" x2="178" y2="-2.1"/>
	<line class="st26" x1="158" y1="3.9" x2="178" y2="3.9"/>
</g>
<circle class="st27" cx="140.5" cy="-8.6" r="2"/>
<circle class="st27" cx="132.5" cy="-8.6" r="2"/>
<circle class="st27" cx="140.5" cy="-0.6" r="2"/>
<circle class="st27" cx="132.5" cy="-0.6" r="2"/>
<g id="skoro" class="st0">
	<path class="st7" d="M49.4,46.8h-39c-2.2,0-4-1.8-4-4v-8c0-2.2,1.8-4,4-4h39c2.2,0,4,1.8,4,4v8C53.4,45,51.6,46.8,49.4,46.8z"/>
	<text transform="matrix(1 0 0 1 13.5531 41.6928)" class="st28 st29 st30">Скоро</text>
</g>
</svg>
