<?xml version="1.0" encoding="utf-8"?>
<!-- Generator: Adobe Illustrator 22.0.0, SVG Export Plug-In . SVG Version: 6.00 Build 0)  -->
<svg version="1.1" id="Layer_1" xmlns="http://www.w3.org/2000/svg" xmlns:xlink="http://www.w3.org/1999/xlink" x="0px" y="0px"
	 viewBox="0 0 49.8 58.1" style="enable-background:new 0 0 49.8 58.1;" xml:space="preserve">
<style type="text/css">
	.st0{display:none;}
	.st1{display:inline;}
	.st2{fill:#282D3A;}
	.st3{fill:#85888B;}
	.st4{display:none;fill:none;stroke:#FFFFFF;stroke-width:2;stroke-linecap:round;stroke-linejoin:round;stroke-miterlimit:10;}
	.st5{display:inline;fill:none;stroke:#282D3A;stroke-width:1.5;stroke-linejoin:round;stroke-miterlimit:10;}
	.st6{display:inline;fill:#282D3A;}
	.st7{opacity:0.66;}
	.st8{fill:#FF005F;}
	.st9{fill:none;stroke:#FFFFFF;stroke-width:2;stroke-linecap:round;stroke-linejoin:round;stroke-miterlimit:10;}
	.st10{fill:#FFFFFF;}
	.st11{font-family:'SFUIText-Bold';}
	.st12{font-size:12px;}
	.st13{fill:none;stroke:#282D3A;stroke-width:1.5;stroke-linecap:round;stroke-linejoin:round;stroke-miterlimit:10;}
	.st14{fill:#F5F5F5;}
	
		.st15{display:inline;fill:none;stroke:#282D3A;stroke-width:1.5;stroke-linecap:round;stroke-linejoin:round;stroke-miterlimit:10;}
	
		.st16{display:inline;fill:none;stroke:#000000;stroke-width:1.5;stroke-linecap:round;stroke-linejoin:round;stroke-miterlimit:10;}
	.st17{display:inline;fill:none;stroke:#282D3A;stroke-width:2;stroke-linecap:round;stroke-linejoin:round;stroke-miterlimit:10;}
	.st18{display:none;fill:#282D3A;}
	.st19{display:inline;fill:#FFFFFF;}
	.st20{font-size:10px;}
	.st21{display:inline;opacity:0.66;}
	.st22{display:inline;fill:#FF005F;}
	.st23{fill:none;stroke:#FFFFFF;stroke-width:1.5;stroke-linecap:round;stroke-linejoin:round;stroke-miterlimit:10;}
</style>
<g id="_x35_s" class="st0">
	<g class="st1">
		<path class="st2" d="M0.6,43.7h-10c-1.1,0-2,0.9-2,2v20c0,1.1,0.9,2,2,2h10c1.1,0,2-0.9,2-2v-20C2.6,44.6,1.7,43.7,0.6,43.7z
			 M-4.4,66.7c-0.5,0-1-0.4-1-1c0-0.5,0.5-1,1-1c0.6,0,1,0.5,1,1C-3.4,66.3-3.9,66.7-4.4,66.7z M1.1,62.7c0,0.4-0.2,0.7-0.5,0.9
			c-0.1,0.1-0.3,0.1-0.5,0.1h-9c-0.2,0-0.3,0-0.5-0.1c-0.3-0.2-0.5-0.5-0.5-0.9v-15c0-0.4,0.2-0.7,0.5-0.9c0.2-0.1,0.3-0.1,0.5-0.1
			h9c0.2,0,0.4,0,0.5,0.1c0.3,0.2,0.5,0.5,0.5,0.9V62.7z"/>
	</g>
</g>
<g id="_x36_" class="st0">
	<g class="st1">
		<path class="st2" d="M1.3,42.9h-11c-1.1,0-2,0.9-2,2v22c0,1.1,0.9,2,2,2h11c1.1,0,2-0.9,2-2v-22C3.3,43.8,2.4,42.9,1.3,42.9z
			 M-4.2,67.9c-0.6,0-1-0.5-1-1c0-0.6,0.4-1,1-1c0.5,0,1,0.4,1,1C-3.2,67.5-3.7,67.9-4.2,67.9z M1.8,63.9c0,0.4-0.2,0.7-0.5,0.9
			c-0.2,0.1-0.3,0.1-0.5,0.1h-10c-0.2,0-0.4,0-0.5-0.1c-0.3-0.2-0.5-0.5-0.5-0.9v-17c0-0.4,0.2-0.7,0.5-0.9c0.1-0.1,0.3-0.1,0.5-0.1
			h10c0.2,0,0.3,0,0.5,0.1c0.3,0.2,0.5,0.5,0.5,0.9V63.9z"/>
	</g>
</g>
<g id="plus" class="st0">
	<g id="_x36__2_" class="st1">
		<g>
			<path class="st2" d="M7.4,40.9H-5.8c-1.1,0-2,0.9-2,2v1h4c0.4,0,0.8,0.1,1.1,0.3h9.5c0.2,0,0.4,0.1,0.6,0.2
				c0.3,0.2,0.4,0.5,0.4,0.8v20.2c0,0.3-0.2,0.6-0.4,0.8c-0.2,0.1-0.4,0.2-0.6,0.2h-8.6v3.5c0,0.5-0.4,1-1,1H7.4c1.1,0,2-0.9,2-2
				v-26C9.4,41.8,8.5,40.9,7.4,40.9z M1.9,68.9c-0.1,0.6-0.6,1-1.2,1c-0.6,0-1.1-0.4-1.2-1c0-0.1,0-0.1,0-0.2c0-0.6,0.5-1.2,1.2-1.2
				c0.7,0,1.2,0.5,1.2,1.2C1.9,68.8,1.9,68.9,1.9,68.9z"/>
		</g>
	</g>
	<g id="_x36__1_" class="st1">
		<g>
			<path class="st2" d="M-4.8,44.9h-11c-0.3,0-0.6,0.1-0.8,0.2c-0.7,0.3-1.2,1-1.2,1.8v22c0,1.1,0.9,2,2,2h11c0.7,0,1.4-0.4,1.7-1
				c0.2-0.3,0.3-0.6,0.3-1v-22C-2.8,45.8-3.7,44.9-4.8,44.9z M-10.3,69.9c-0.5,0-1-0.5-1-1s0.5-1,1-1c0.6,0,1,0.5,1,1
				S-9.8,69.9-10.3,69.9z M-4.3,65.9c0,0.2,0,0.3-0.1,0.5c-0.1,0.2-0.2,0.3-0.4,0.4c-0.1,0.1-0.3,0.1-0.5,0.1h-10
				c-0.2,0-0.3,0-0.5-0.1c-0.3-0.2-0.5-0.5-0.5-0.9v-17c0-0.4,0.2-0.7,0.5-0.9c0.2-0.1,0.3-0.1,0.5-0.1h10c0.2,0,0.4,0,0.5,0.1
				c0.3,0.2,0.5,0.5,0.5,0.9V65.9z"/>
		</g>
	</g>
</g>
<g id="x" class="st0">
	<g class="st1">
		<path class="st2" d="M1.8,42.9h-12c-1.1,0-2,0.9-2,2v23c0,1.1,0.9,2,2,2h12c1.1,0,2-0.9,2-2v-23C3.8,43.8,2.9,42.9,1.8,42.9z
			 M2.8,67.9c0,0.6-0.5,1-1,1h-12c-0.6,0-1-0.4-1-1v-23c0-0.5,0.4-1,1-1h1.4v0.3c0,0.3,0.1,0.5,0.3,0.7c0.2,0.2,0.4,0.3,0.7,0.3h7.2
			c0.3,0,0.5-0.1,0.7-0.3c0.2-0.2,0.3-0.4,0.3-0.7v-0.3h1.4c0.5,0,1,0.5,1,1V67.9z"/>
	</g>
</g>
<g id="all" class="st0">
	<g id="_x35_s_1_" class="st1">
		<g>
			<path class="st2" d="M-8.2,69v-3h-6.5c-0.2,0-0.4,0-0.5-0.1c-0.3-0.2-0.5-0.5-0.5-0.9V50c0-0.4,0.2-0.7,0.5-0.9
				c0.1-0.1,0.3-0.1,0.5-0.1h6.5v-3h-7c-1.1,0-2,0.9-2,2v20c0,1.1,0.9,2,2,2h8C-7.8,70-8.2,69.6-8.2,69z M-10.2,69c-0.6,0-1-0.5-1-1
				c0-0.6,0.4-1,1-1c0.5,0,1,0.4,1,1C-9.2,68.6-9.7,69-10.2,69z"/>
		</g>
	</g>
	<g id="x_2_" class="st1">
		<g>
			<path class="st2" d="M6.8,43h-12c-1.1,0-2,0.9-2,2v23c0,0.4,0.1,0.7,0.3,1c0.3,0.6,1,1,1.7,1h12c1.1,0,2-0.9,2-2V45
				C8.8,43.9,7.9,43,6.8,43z M7.8,68c0,0.5-0.5,1-1,1h-12c-0.6,0-1-0.5-1-1V45c0-0.6,0.4-1,1-1h1.4v0.3c0,0.3,0.1,0.5,0.3,0.7
				c0.2,0.2,0.4,0.3,0.7,0.3h7.2c0.3,0,0.5-0.1,0.7-0.3c0.2-0.2,0.3-0.4,0.3-0.7V44h1.4c0.5,0,1,0.4,1,1V68z"/>
		</g>
	</g>
</g>
<g id="x_1_" class="st0">
	<g class="st1">
		<path class="st3" d="M1.8,43.5h-12c-1.1,0-2,0.9-2,2v23c0,1.1,0.9,2,2,2h12c1.1,0,2-0.9,2-2v-23C3.8,44.4,2.9,43.5,1.8,43.5z
			 M2.8,68.5c0,0.5-0.5,1-1,1h-12c-0.6,0-1-0.5-1-1v-23c0-0.6,0.4-1,1-1h1.4v0.3c0,0.3,0.1,0.5,0.3,0.7c0.2,0.2,0.4,0.3,0.7,0.3h7.2
			c0.3,0,0.5-0.1,0.7-0.3c0.2-0.2,0.3-0.4,0.3-0.7v-0.3h1.4c0.5,0,1,0.4,1,1V68.5z"/>
	</g>
</g>
<circle class="st0" cx="21" cy="167.5" r="10"/>
<polyline class="st4" points="17.3,108.5 20.3,110.9 25.3,103.2 "/>
<g id="x_3_" class="st0">
	<path class="st5" d="M84.9,171.9H65.3c-0.6,0-1-0.4-1-1v-36.6c0-0.6,0.4-1,1-1h19.6c0.6,0,1,0.4,1,1v36.6
		C85.9,171.5,85.4,171.9,84.9,171.9z"/>
	<path class="st6" d="M81.2,136.3H69c-0.6,0-1-0.4-1-1v-2.5h14.2v2.5C82.2,135.8,81.8,136.3,81.2,136.3z"/>
</g>
<g id="icon1" class="st0">
	<g class="st1">
		<g>
			<g>
				<g>
					<path class="st2" d="M23.9,39.4L23.9,39.4C23.9,39.4,23.9,39.3,23.9,39.4c0-0.1-0.1-0.2-0.1-0.2c0,0,0,0,0-0.1
						c0,0-0.1-0.1-0.1-0.1c-0.1,0-0.1-0.1-0.2-0.1c-0.1,0-0.1,0-0.2-0.1c0,0,0,0-0.1,0h0l-20.7-2c-0.2,0-0.3,0-0.5,0.1L-2,39.8l0,0
						c-0.1,0.1-0.2,0.2-0.3,0.4c0,0,0,0.1,0,0.1c0,0,0,0.1,0,0.2v33.9c0,0.4,0.3,0.7,0.7,0.7l20.6,2c0.1,0,0.1,0,0.2,0
						c0.1,0,0.1,0,0.2,0c0.1,0,0.1-0.1,0.2-0.1l4.1-2.8c0.2-0.1,0.3-0.4,0.3-0.6V39.5C24,39.5,23.9,39.4,23.9,39.4z M2.7,38.3
						l18.4,1.8l-2.2,1.5L0.5,39.8L2.7,38.3z M18.4,75.4l-19.3-1.9V41.2l19.3,1.8V75.4z M22.5,73l-2.6,1.8v-32l2.6-1.8V73z"/>
					<path class="st2" d="M23.9,39.4C23.9,39.4,23.9,39.4,23.9,39.4S23.9,39.3,23.9,39.4C23.9,39.3,23.9,39.3,23.9,39.4z"/>
				</g>
			</g>
		</g>
		<g id="_x36__3_">
			<g>
				<path class="st2" d="M14.2,46.2l-11.1-1c-1.1,0-2,0.9-2,2v22c0,1.1,0.9,2,1.9,2h0l11,1h0.1c1.1,0,2-0.9,2-2v-22
					C16.2,47.1,15.3,46.2,14.2,46.2z M9,70.7L9,70.7c-0.2,0.1-0.4,0.2-0.6,0.2c-0.3,0-0.5-0.1-0.7-0.3c-0.2-0.2-0.3-0.4-0.3-0.7
					c0-0.1,0-0.2,0.1-0.3c0.1-0.4,0.5-0.7,0.9-0.7c0.5,0,0.9,0.4,1,0.8c0,0,0,0.1,0,0.2C9.4,70.3,9.3,70.5,9,70.7z M14.7,67.2
					c0,0.4-0.2,0.7-0.5,0.9c-0.2,0.1-0.3,0.1-0.5,0.1l-10-1c-0.2,0-0.4,0-0.5-0.1c-0.3-0.2-0.5-0.5-0.5-0.9v-17
					c0-0.3,0.2-0.6,0.4-0.8c0.2-0.1,0.4-0.2,0.6-0.2l10,1c0.2,0,0.3,0,0.5,0.1c0.3,0.2,0.5,0.5,0.5,0.9V67.2z"/>
			</g>
		</g>
	</g>
	<g class="st1">
		<g>
			<g>
				<path class="st2" d="M-32.3,39.3C-32.4,39.3-32.4,39.4-32.3,39.3C-32.4,39.4-32.4,39.4-32.3,39.3
					C-32.4,39.3-32.4,39.3-32.3,39.3z"/>
			</g>
			<g>
				<path class="st2" d="M-28.3,74.8l-2.6-1.8V41l2.6,1.8V74.8z M-6.1,40.2C-6.1,40.2-6.1,40.2-6.1,40.2c-0.1-0.2-0.2-0.4-0.3-0.5
					l0,0l-4.1-2.8c-0.2-0.1-0.3-0.1-0.5-0.1l-20.7,2h0c0,0,0,0-0.1,0c-0.1,0-0.2,0-0.2,0.1c-0.1,0-0.1,0.1-0.2,0.1
					c-0.1,0-0.1,0.1-0.1,0.1c0,0,0,0,0,0.1c0,0,0,0.1,0,0.1c0,0,0,0,0,0.1v0c0,0,0,0.1,0,0.1v33.9c0,0.3,0.1,0.5,0.3,0.6l4.1,2.8
					c0,0,0,0,0.1,0c0,0,0.1,0.1,0.1,0.1c0.1,0,0.1,0,0.2,0c0.1,0,0.1,0,0.2,0l20.6-2c0.4,0,0.7-0.4,0.7-0.7V40.4
					C-6,40.3-6,40.3-6.1,40.2z M-29.5,40.1l18.4-1.8l2.2,1.5l-18.4,1.8L-29.5,40.1z M-7.5,73.6l-19.3,1.9V43.1l19.3-1.8V73.6z"/>
			</g>
		</g>
	</g>
	<g id="x_4_" class="st1">
		<g>
			<path class="st2" d="M-11.3,43.2L-11.3,43.2l-11.9,1.1c-1.1,0-2,0.9-2,2v25c0,1.1,0.9,2,2.1,2h0l12-1.1c1.1,0,2-0.9,2-2v-25
				C-9.2,44.1-10.1,43.2-11.3,43.2z M-10.2,70.2c0,0.5-0.5,1-1,1l-12,1.1c-0.6,0-1-0.5-1-1v-25c0-0.6,0.4-1,1-1l1.4-0.1v0.5
				c0,0.2,0,0.3,0.1,0.5c0.2,0.3,0.5,0.5,0.9,0.5l7.2-0.8c0.4,0,0.8-0.3,0.9-0.6c0-0.1,0.1-0.3,0.1-0.4v-0.6l1.4-0.1
				c0.5,0,1,0.5,1,1V70.2z"/>
		</g>
	</g>
	<g class="st1">
		<g class="st7">
			
				<image style="overflow:visible;" width="92" height="92" xlink:href="A7DE6795.png"  transform="matrix(1 0 0 1 -25.0938 -9.9745)">
			</image>
		</g>
		<circle class="st8" cx="20.9" cy="36" r="10"/>
		<polyline class="st9" points="17.4,37.5 20.4,39.9 25.4,32.2 		"/>
	</g>
</g>
<g id="icon2" class="st0">
	<g class="st1">
		<path class="st2" d="M2.4,69.9L2,69.7c-0.2-0.1-18-9.2-17.6-36.4l0-0.7l0.7-0.1c0.1,0,7.8-0.9,16.8-6.2l0.4-0.2l0.4,0.2
			c9,5.4,16.8,6.2,16.9,6.2l0.7,0.1l0,0.7C20.7,60.5,2.9,69.7,2.7,69.7L2.4,69.9z M-14,34C-14.1,57.7,0,66.8,2.4,68.2
			C4.7,66.9,18.9,57.7,18.8,34c-2.1-0.3-8.7-1.6-16.4-6.1C-5.3,32.4-12,33.7-14,34z"/>
	</g>
	<g class="st1">
		<path class="st2" d="M12.8,38.1C13.1,54.6,2.4,60.9,2.4,60.9S-8.3,54.5-8.1,38.1c0,0,4.8-0.5,10.4-3.9C8,37.6,12.8,38.1,12.8,38.1
			z"/>
	</g>
	<g class="st1">
		<g class="st7">
			
				<image style="overflow:visible;" width="92" height="92" xlink:href="A7DE6797.png"  transform="matrix(1 0 0 1 -25.0938 -15.9745)">
			</image>
		</g>
		<circle class="st8" cx="20.9" cy="30" r="10"/>
		<text transform="matrix(1 0 0 1 16.5615 33.8954)" class="st10 st11 st12">3</text>
	</g>
</g>
<g id="icon3" class="st0">
	<g class="st1">
		<g>
			<path class="st2" d="M43.3,28c0,0-0.1-0.1-0.1-0.1c-0.2-0.2-0.8-0.8-4.6-0.4c-0.3,0-0.6,0.3-0.7,0.6c-0.1,0.1-0.2,0.3-0.5,0.4
				c-1.1,0.2-10.5,0.3-12.1-0.2c-0.1-0.2-0.2-0.3-0.4-0.5c-0.8-0.6-2-0.5-2.3-0.5c-0.2,0-0.4,0.1-0.5,0.3c0,0-0.1,0.1-0.2,0.3
				c-0.3,0.4-0.5,0.6-0.7,0.8c0-0.1,0-0.2,0-0.3c0-0.1,0-0.3,0.1-0.4c0.4-1.3-2.2-3.4-2.7-3.8c-0.8-0.5-1.4-0.7-1.9-0.6
				c-0.6,0.1-3.2-0.8-5.2-1.7c-0.1,0-0.2-0.1-0.3-0.1h-30c-0.4,0-0.7,0.3-0.8,0.7c0,0-0.1,0.7-0.2,1.3l0,0.1c0,0.3-0.1,0.4-0.1,0.4
				c-0.2,0.3-1,1.5-1,2.8v11.2c0,0.8,0.4,1.3,0.8,1.6c0.1,0.1,0.2,0.2,0.3,0.3c0.6,0.5,0.8,0.7,0.7,1.2c0,0,0,0.1,0,0.1
				c-0.1,1.6,1.5,3.2,2.6,4.1c0.3,0.2,0.5,0.4,0.6,0.6c0.2,0.2,0.5,0.6,0.7,0.9l0.4,0.5c1,1.3,1.6,1.9,2.3,1.7
				c0.1,0,0.2-0.1,0.3-0.1c0.8-0.2,1.1-0.2,1.4,0.1c0.9,1.1,4.2,1.8,5.3,1.9h0.8c0,0,0.1,0,0.2,0c0.7-0.1,2.6-0.4,3.6,0
				c0.2,0.1,0.4,0.2,0.4,0.3c0.1,0.5,0.3,1,0.7,1.5C1.1,54.5,2,55.2,2,55.3c0.2,0.2,0.4,0.2,0.6,0.2c0.2,0,0.4-0.2,0.5-0.4
				c0,0,0.5-0.8,0.7-1.4c0.4,0.2,0.8,0.9,1.2,2.1c0.1,0.3,0.2,0.7,0.4,1c0.4,0.9,1.1,1.7,2,2.4c0.9,0.7,1.7,1,1.7,1
				c0.2,0.1,0.5,0.1,0.7-0.1s0.3-0.4,0.3-0.6c0,0,0-0.4,0-0.9c0-0.6,0-1.4,0.1-2.1c0-0.2,0-0.4,0-0.6c0.1-0.6,2.5-1.6,3.4-1.8
				c0.2,0,1.1,0.4,1.7,0.6c2,0.8,2.8,1,3.3,0.6c0.2-0.2,0.4-0.4,0.4-0.7c0-0.2,0.8-0.8,1.2-1l0.3-0.2c0.1,0,0.2,0.1,0.3,0.2
				c0.2,0.2,0.5,0.5,0.7,0.7c0.4,0.4,0.7,0.8,1.1,0.8c0.1,0.4,0.3,0.8,0.4,1.3c0.2,0.6,0.3,1.2,0.4,1.7c0.1,0.5,0.1,0.8,0,1
				c0,0.4,0.1,0.8,0.4,1.4c0.3,0.6,1,1,2,1.1c0,0,0.3,0,0.7,0c0.6,0,1.4-0.1,1.7-0.4c0.3-0.3,0.5-1.1,0.5-2.4c0-0.5,0.1-1.5-0.1-2.3
				c-0.1-0.6-0.3-1.1-0.6-1.4c-0.1-0.1-0.4-0.8-0.6-2.1c-0.1-0.7-0.1-1.4,0-2c0.1-0.5,0.1-0.6,0.1-0.6c0.4-0.3,1.5-1.3,2.7-2.4
				c0.9-0.8,1.7-1.6,2.2-2.2c1.1-1.2,1.5-1.9,1.3-2.5c-0.1-0.3-0.3-0.5-0.6-0.7c-0.2-0.1-0.3-0.1-0.2-0.8c0-0.2,0.1-0.5,0.1-0.8
				c0.1-0.4,0.1-0.8,0.2-1.3c0-0.1,0-0.1,0-0.2c1,0,1.6-0.5,1.9-1.9c0.1-0.3,0.2-0.6,0.5-0.9c0.7-0.6,1.8-0.9,2.5-1.1
				c0.7-0.2,1.2-0.3,1.3-0.9c0.1-0.3-0.1-0.6-0.3-0.8c0,0,0,0-0.1-0.1c-0.1-0.4,0-1.1,0.4-1.4c0.1-0.1,0.3-0.3,0.5-0.4
				c0.3-0.2,0.7-0.5,1.1-0.8C42.8,30,43.9,28.9,43.3,28z M40.4,30c-0.4,0.3-0.7,0.6-1,0.8c-0.2,0.2-0.4,0.3-0.6,0.5
				c-0.9,0.7-1.1,2.1-0.9,3c-0.9,0.2-2.1,0.6-3,1.4c-0.5,0.5-0.8,1.1-1,1.7c-0.1,0.6-0.2,0.7-0.2,0.7h-0.2c-0.6,0-1.4,0.1-1.6,1.6
				c0,0.4-0.1,0.8-0.2,1.2c-0.1,0.3-0.1,0.6-0.1,0.9c0,0.5-0.1,1.4,0.7,2c-0.1,0.2-0.4,0.5-0.8,1c-0.5,0.6-1.2,1.3-2.1,2.1
				c-1.2,1.1-2.3,2-2.7,2.3c-0.4,0.3-0.6,0.8-0.7,1.6c-0.1,0.6-0.1,1.5,0,2.3c0.1,0.8,0.4,2.3,1,2.9c0,0,0.1,0.1,0.2,0.6
				c0.1,0.5,0.1,1.2,0.1,2c0,0.7-0.1,1.2-0.2,1.4c-0.6,0.1-1.7,0-1.9-0.3C25,59.4,25,59.2,25,59.2c0-0.4,0-0.8,0-1.4
				c-0.1-0.5-0.2-1.2-0.4-1.8c-0.7-2.7-1.3-2.6-1.6-2.6c0,0-0.1,0-0.1,0c0,0,0,0-0.1-0.1c-0.2-0.3-0.5-0.6-0.8-0.9
				c-1-0.9-1.7-0.6-2.1-0.4l-0.4,0.3c-0.6,0.4-1.3,0.9-1.6,1.5c-0.5-0.1-1.3-0.4-1.8-0.6c-1.5-0.6-2-0.7-2.4-0.7
				c0,0-4.6,1.1-4.7,3.2c0,0.2,0,0.4,0,0.6c0,0.6,0,1.3,0,1.9c-0.1-0.1-0.3-0.2-0.4-0.3c-0.7-0.6-1.3-1.2-1.6-1.9
				c-0.1-0.2-0.2-0.5-0.3-0.7c-0.4-1.5-1.1-2.6-1.9-3.1C4,52,3.3,52.1,2.9,52.5c-0.1,0.1-0.2,0.2-0.2,0.3c-0.1,0.2-0.2,0.4-0.3,0.6
				c-0.2-0.2-0.4-0.5-0.6-0.8c-0.3-0.4-0.4-0.8-0.5-1.1c-0.1-0.4-0.4-1-1.3-1.3c-1.3-0.5-3.4-0.2-4.3,0H-5c-1.5-0.2-3.9-0.9-4.2-1.4
				c-0.9-1.1-2.2-0.8-2.9-0.7c0,0-0.1,0-0.1,0c-0.1-0.1-0.4-0.4-1-1.2l-0.4-0.5c-0.3-0.4-0.6-0.8-0.8-1c-0.2-0.2-0.4-0.4-0.8-0.7
				c-0.7-0.7-2.1-1.9-2-2.9c0.2-1.3-0.7-2-1.3-2.5c-0.1-0.1-0.2-0.1-0.3-0.2l0,0c-0.3-0.3-0.3-0.4-0.3-0.5V27.4c0-1,0.7-2,0.7-2
				c0,0,0-0.1,0-0.1c0.1-0.2,0.2-0.4,0.2-0.8l0-0.2c0-0.2,0.1-0.5,0.1-0.7h2.1l0.2-0.5c0-0.2,0.3-0.2,0.3,0l0.2,0.5h4.9l0.2-0.5
				c0.1-0.2,0.3-0.2,0.3,0l0.2,0.5h4.9l0.2-0.5c0.1-0.2,0.3-0.2,0.3,0l0.2,0.5h4.8l0.2-0.5c0.1-0.2,0.3-0.2,0.3,0l0.2,0.5h9.8
				c2.3,0.9,5,1.9,6.1,1.7c0.1,0,0.3,0.1,0.6,0.3c1,0.7,1.9,1.8,2.1,2.2c0,0.2-0.1,0.4-0.1,0.5c-0.1,0.5,0,1.4,0.5,1.9
				c0.3,0.2,0.7,0.3,1.1,0.2c0.2-0.1,0.8-0.3,1.8-1.5c0,0,0,0,0,0c0.3,0,0.7,0,0.8,0.2c0.6,1.9,13.7,1,13.8,0.9
				c0.7-0.2,1.1-0.7,1.3-1c0.9-0.1,1.9-0.1,2.5,0C41.4,29.1,41,29.5,40.4,30z"/>
		</g>
		<g>
			<g>
				<line class="st13" x1="6" y1="55.5" x2="9.5" y2="55.5"/>
				<line class="st13" x1="23.9" y1="55.5" x2="27.6" y2="55.5"/>
				<line class="st13" x1="-12.5" y1="48.6" x2="28.4" y2="48.6"/>
				<line class="st13" x1="-17.5" y1="41.7" x2="31.9" y2="41.7"/>
				<line class="st13" x1="4.5" y1="34.8" x2="37.9" y2="34.8"/>
				<line class="st13" x1="4.5" y1="27.9" x2="19.9" y2="27.9"/>
			</g>
		</g>
		<g>
			<path class="st2" d="M-18.7,22.8l-1.5,4.5l0.3,11.8H4.5c0.8,0,1.5-0.7,1.5-1.5V22.8H-18.7z M-13.6,35.7l-1.1,0.8l0.4,1.3
				c0,0.2-0.1,0.3-0.3,0.2l-1.1-0.8l-1.1,0.8c-0.1,0.1-0.3,0-0.3-0.2l0.4-1.3l-1-0.8c-0.1-0.1-0.1-0.3,0.1-0.3l1.3,0l0.1-0.3l0.3-1
				c0-0.2,0.3-0.2,0.3,0l0.3,1l0.1,0.3l1.3,0C-13.5,35.4-13.4,35.6-13.6,35.7z M-13.6,30.2l-1.1,0.8l0.4,1.3c0,0.2-0.1,0.3-0.3,0.2
				l-1.1-0.8l-1.1,0.8c-0.1,0.1-0.3,0-0.3-0.2l0.4-1.3l-1-0.8c-0.1-0.1-0.1-0.3,0.1-0.3l1.3,0l0.1-0.3l0.3-0.9c0-0.2,0.3-0.2,0.3,0
				l0.3,0.9l0.1,0.3l1.3,0C-13.5,29.9-13.4,30.1-13.6,30.2z M-13.6,24.6l-1.1,0.8l0.4,1.3c0,0.2-0.1,0.3-0.3,0.2l-1.1-0.8l-1.1,0.8
				c-0.1,0.1-0.3,0-0.3-0.2l0.4-1.3l-1-0.8c-0.1-0.1-0.1-0.3,0.1-0.3l1.3,0l0.1-0.3l0.2-0.5l0.2-0.5c0-0.2,0.3-0.2,0.3,0l0.2,0.5
				l0.1,0.5l0.1,0.3l1.3,0C-13.5,24.3-13.4,24.5-13.6,24.6z M-8,35.7l-1.1,0.8l0.4,1.3c0.1,0.2-0.1,0.3-0.3,0.2l-1.1-0.8l-1.1,0.8
				c-0.1,0.1-0.3,0-0.3-0.2l0.4-1.3l-1.1-0.8c-0.1-0.1-0.1-0.3,0.1-0.3l1.3,0l0.1-0.3l0.3-1c0.1-0.2,0.3-0.2,0.3,0l0.3,1l0.1,0.3
				l1.3,0C-8,35.4-7.9,35.6-8,35.7z M-8,30.2L-9.1,31l0.4,1.3c0.1,0.2-0.1,0.3-0.3,0.2l-1.1-0.8l-1.1,0.8c-0.1,0.1-0.3,0-0.3-0.2
				L-11,31l-1.1-0.8c-0.1-0.1-0.1-0.3,0.1-0.3l1.3,0l0.1-0.3l0.3-0.9c0.1-0.2,0.3-0.2,0.3,0l0.3,0.9l0.1,0.3l1.3,0
				C-8,29.9-7.9,30.1-8,30.2z M-8,24.6l-1.1,0.8l0.4,1.3c0.1,0.2-0.1,0.3-0.3,0.2l-1.1-0.8l-1.1,0.8c-0.1,0.1-0.3,0-0.3-0.2l0.4-1.3
				l-1.1-0.8c-0.1-0.1-0.1-0.3,0.1-0.3l1.3,0l0.1-0.3l0.2-0.5l0.2-0.5c0.1-0.2,0.3-0.2,0.3,0l0.2,0.5l0.2,0.5l0.1,0.3l1.3,0
				C-8,24.3-7.9,24.5-8,24.6z M-2.5,35.7l-1,0.8l0.4,1.3c0,0.2-0.1,0.3-0.3,0.2l-1.1-0.8l-1.1,0.8c-0.1,0.1-0.3,0-0.3-0.2l0.4-1.3
				l-1.1-0.8c-0.1-0.1-0.1-0.3,0.1-0.3l1.3,0l0.1-0.3l0.3-1c0.1-0.2,0.3-0.2,0.3,0l0.3,1l0.1,0.3l1.3,0C-2.5,35.4-2.4,35.6-2.5,35.7
				z M-2.5,30.2l-1,0.8l0.4,1.3c0,0.2-0.1,0.3-0.3,0.2l-1.1-0.8l-1.1,0.8c-0.1,0.1-0.3,0-0.3-0.2l0.4-1.3l-1.1-0.8
				c-0.1-0.1-0.1-0.3,0.1-0.3l1.3,0l0.1-0.3l0.3-0.9c0.1-0.2,0.3-0.2,0.3,0l0.3,0.9l0.1,0.3l1.3,0C-2.5,29.9-2.4,30.1-2.5,30.2z
				 M-2.5,24.6l-1,0.8l0.4,1.3c0,0.2-0.1,0.3-0.3,0.2l-1.1-0.8l-1.1,0.8c-0.1,0.1-0.3,0-0.3-0.2l0.4-1.3l-1.1-0.8
				c-0.1-0.1-0.1-0.3,0.1-0.3l1.3,0L-5,24l0.2-0.5l0.2-0.5c0.1-0.2,0.3-0.2,0.3,0l0.2,0.5L-4,24l0.1,0.3l1.3,0
				C-2.5,24.3-2.4,24.5-2.5,24.6z M3,35.7l-1.1,0.8l0.4,1.3c0.1,0.2-0.1,0.3-0.3,0.2L1,37.2l-1.1,0.8c-0.1,0.1-0.3,0-0.3-0.2
				l0.4-1.3L-1,35.7c-0.1-0.1-0.1-0.3,0.1-0.3l1.3,0l0.1-0.3l0.3-1c0.1-0.2,0.3-0.2,0.3,0l0.3,1l0.1,0.3l1.3,0
				C3.1,35.4,3.1,35.6,3,35.7z M3,30.2L1.9,31l0.4,1.3c0.1,0.2-0.1,0.3-0.3,0.2L1,31.6l-1.1,0.8c-0.1,0.1-0.3,0-0.3-0.2L0.1,31
				L-1,30.2c-0.1-0.1-0.1-0.3,0.1-0.3l1.3,0l0.1-0.3l0.3-0.9c0.1-0.2,0.3-0.2,0.3,0l0.3,0.9l0.1,0.3l1.3,0C3.1,29.9,3.1,30.1,3,30.2
				z M1.5,24l0.1,0.3l1.3,0c0.2,0,0.2,0.2,0.1,0.3l-1.1,0.8l0.4,1.3c0.1,0.2-0.1,0.3-0.3,0.2L1,26.1l-1.1,0.8
				c-0.1,0.1-0.3,0-0.3-0.2l0.4-1.3L-1,24.6c-0.1-0.1-0.1-0.3,0.1-0.3l1.3,0L0.5,24l0.1-0.5l0.2-0.5c0.1-0.2,0.3-0.2,0.3,0l0.2,0.5
				L1.5,24z"/>
		</g>
	</g>
	<g class="st1">
		<g class="st7">
			
				<image style="overflow:visible;" width="92" height="92" xlink:href="A7DE6792.png"  transform="matrix(1 0 0 1 -9.0938 -23.9745)">
			</image>
		</g>
		<circle class="st8" cx="36.9" cy="22" r="10"/>
		<path class="st14" d="M41.5,20.6l-3.2,0l-0.2-0.7l-0.8-2.3c-0.1-0.4-0.7-0.4-0.8,0l-0.8,2.3l-0.2,0.7l-3.2,0
			c-0.4,0-0.6,0.5-0.3,0.8l2.5,1.9l-1,3c-0.1,0.4,0.3,0.7,0.7,0.5l2.6-1.8l2.6,1.8c0.3,0.2,0.8-0.1,0.7-0.5l-1-3l2.5-1.9
			C42.1,21.1,41.9,20.6,41.5,20.6z"/>
	</g>
</g>
<g id="icon4" class="st0">
	<g id="_x34_" class="st1">
		<g>
			<g id="head">
				<g>
					<path class="st2" d="M25.5,22.1c-0.3,0-0.7-0.3-1-0.6c-0.3-0.3-0.5-0.8-0.7-1.3c-0.1-0.2-0.2-0.4-0.2-0.6l-0.1-0.1
						c0-0.1-0.1-0.2-0.1-0.4c0-0.1,0-0.2-0.1-0.3c-0.1-0.5-0.4-0.9-0.8-1.2c-0.4-0.3-0.8-0.4-1.2-0.4c-0.5,0-0.9,0.2-1.3,0.3
						c-0.1,0.1-0.3,0.1-0.4,0.2c-0.5,0.1-0.9,0.2-1.2,0.3c-0.8,0.1-1.6,0.2-2.4,0.2c-0.9,0-1.7-0.1-2.5-0.2
						c-0.4-0.1-0.8-0.2-1.2-0.3c-0.1,0-0.3-0.1-0.4-0.2c-0.6-0.2-1.5-0.6-2.4,0.1c-0.4,0.3-0.7,0.7-0.8,1.2c0,0.1,0,0.3-0.1,0.4
						c0,0.2,0,0.3-0.1,0.3c-0.1,0.1-0.1,0.3-0.2,0.4c0,0.1-0.1,0.2-0.1,0.4c-0.2,0.5-0.4,1-0.7,1.3c-0.3,0.3-0.8,0.6-1,0.6
						c-0.1-0.3-0.3-1-0.2-2.3c0-0.4,1-8.6,9.7-8.6s9.6,8.3,9.7,8.6C25.8,21,25.6,21.7,25.5,22.1z"/>
				</g>
			</g>
			<g>
				<path class="st2" d="M33,53L31,42.6c0-0.1-0.8-2.5-3.4-3.3L22,37.6l-1.6-1.1v-1.1c2.8-1.6,4.8-4.6,4.8-8.1c0.1,0,0.2,0,0.3,0
					c1.7,0,3.1-1.4,3.1-3.1c0-1-0.5-2-1.3-2.5c0.1-0.5,0.1-1.3,0-2.2c0-0.1-1.1-10.1-11.3-10.1S4.7,19.4,4.7,19.5
					c-0.1,0.9-0.1,1.6,0,2.2c-0.8,0.6-1.3,1.5-1.3,2.5c0,1.7,1.4,3.1,3.1,3.1c0.1,0,0.2,0,0.3,0c0,3.5,2,6.5,4.8,8.1v1.1l-1.6,1.1
					l-5.5,1.7C1.8,40.1,1,42.5,1,42.7L-1.1,53c-0.2,1,0.1,1.7,0.4,2.2c0.9,1.1,2.5,1.3,2.7,1.3h4.2l19.3,0H30c0.2,0,1.8-0.2,2.7-1.3
					C32.9,54.7,33.2,54,33,53z M20.7,38.7l-1.3,3.4l-2.1-0.7l2.5-3.4h0L20.7,38.7z M16,40.5l-2.8-3.8v-0.6c0.9,0.3,1.8,0.4,2.8,0.4
					s1.9-0.2,2.8-0.4v0.6L16,40.5z M26.6,23.3c0.2,0.3,0.3,0.6,0.3,0.9c0,0.8-0.6,1.4-1.4,1.4c-0.1,0-0.2,0-0.3,0v-2
					c0.1,0,0.2,0,0.3,0C25.8,23.7,26.2,23.6,26.6,23.3L26.6,23.3z M6.7,25.6c-0.1,0-0.2,0-0.3,0C5.6,25.7,5,25,5,24.2
					c0-0.3,0.1-0.7,0.3-0.9l0.1,0.1c0.4,0.3,0.9,0.4,1.3,0.3V25.6z M7.5,21.5c-0.3,0.3-0.8,0.6-1,0.6c-0.1-0.3-0.3-1-0.2-2.3
					c0-0.4,1-8.6,9.7-8.6s9.6,8.3,9.7,8.6c0.1,1.3-0.1,2-0.2,2.3c-0.3,0-0.7-0.3-1-0.6c-0.3-0.3-0.5-0.8-0.7-1.3
					c-0.1-0.2-0.2-0.4-0.2-0.6l-0.1-0.1c0-0.1-0.1-0.2-0.1-0.4c0-0.1,0-0.2-0.1-0.3c-0.1-0.5-0.4-0.9-0.8-1.2
					c-0.4-0.3-0.8-0.4-1.2-0.4c-0.5,0-0.9,0.2-1.3,0.3c-0.1,0.1-0.3,0.1-0.4,0.2c-0.5,0.1-0.9,0.2-1.2,0.3c-0.8,0.1-1.6,0.2-2.4,0.2
					c-0.9,0-1.7-0.1-2.5-0.2c-0.4-0.1-0.8-0.2-1.2-0.3c-0.1,0-0.3-0.1-0.4-0.2c-0.6-0.2-1.5-0.6-2.4,0.1c-0.4,0.3-0.7,0.7-0.8,1.2
					c0,0.1,0,0.3-0.1,0.4c0,0.2,0,0.3-0.1,0.3c-0.1,0.1-0.1,0.3-0.2,0.4c0,0.1-0.1,0.2-0.1,0.4C8,20.7,7.8,21.2,7.5,21.5z M8.4,27.2
					v-4.3c0.2-0.1,0.3-0.2,0.3-0.3c0.5-0.5,0.8-1.2,1.1-1.8c0.1-0.1,0.1-0.3,0.2-0.4c0-0.1,0.1-0.2,0.2-0.4c0.1-0.3,0.1-0.5,0.2-0.7
					c0-0.1,0-0.2,0-0.3c0-0.1,0.1-0.1,0.1-0.2c0.2-0.1,0.3-0.1,0.8,0.1c0.2,0.1,0.4,0.1,0.6,0.2c0.4,0.1,0.9,0.3,1.4,0.4
					c0.9,0.1,1.8,0.2,2.8,0.2c0.9-0.1,1.8-0.1,2.7-0.3c0.4-0.1,0.8-0.2,1.4-0.4c0.2-0.1,0.4-0.1,0.6-0.2c0.6-0.2,0.7-0.2,0.8-0.1
					c0.1,0,0.1,0.1,0.1,0.2c0,0.1,0,0.2,0,0.2c0,0.2,0.1,0.5,0.2,0.8l0.1,0.1c0.1,0.2,0.2,0.4,0.3,0.7c0.3,0.6,0.6,1.3,1.1,1.8
					c0,0,0.1,0.1,0.3,0.3v4.3c0,4.2-3.4,7.6-7.6,7.6C11.8,34.8,8.4,31.4,8.4,27.2z M12.2,38.1l2.5,3.3l-2.1,0.7l-1.3-3.4L12.2,38.1z
					 M31.3,54.1c-0.3,0.5-1.2,0.6-1.4,0.7h-3.4v-6.3c0-0.5-0.4-0.8-0.8-0.8c-0.5,0-0.8,0.4-0.8,0.8v6.3H7.1v-6.3
					c0-0.5-0.4-0.8-0.8-0.8c-0.5,0-0.8,0.4-0.8,0.8v6.3H2.1c-0.2,0-1.1-0.2-1.5-0.7c-0.1-0.1-0.2-0.4-0.1-0.8l2-10.2
					c0,0,0.6-1.7,2.3-2.2l4.9-1.5l1.5,4.1c0.1,0.3,0.4,0.5,0.8,0.5c0.1,0,0.2,0,0.3,0l2.8-0.9v5.9c0,0.5,0.4,0.8,0.8,0.8
					c0.5,0,0.8-0.4,0.8-0.8V43l2.8,0.9c0.1,0,0.2,0,0.3,0c0.3,0,0.7-0.2,0.8-0.5l1.5-4.1l4.9,1.5c0.9,0.3,1.4,0.8,1.8,1.3
					c0.4,0.5,0.5,0.9,0.5,0.9l2.1,10.3C31.5,53.8,31.4,54,31.3,54.1z"/>
				<path class="st2" d="M25.7,56.4C25.7,56.4,25.7,56.4,25.7,56.4c-0.1,0-0.1,0-0.2,0H25.7z"/>
			</g>
		</g>
		<g>
			<g>
				<circle class="st2" cx="13.2" cy="24.9" r="1.1"/>
			</g>
			<g>
				<circle class="st2" cx="18.7" cy="24.9" r="1.1"/>
			</g>
		</g>
		<g>
			<path class="st2" d="M18.8,29.6c0,1.1-1.3,2-2.9,2s-2.9-0.9-2.9-2c0-0.3,0.2-0.6,0.6-0.6c0.3,0,0.6,0.3,0.6,0.6
				c0,0.4,0.7,0.9,1.8,0.9c1,0,1.8-0.5,1.8-0.9c0-0.3,0.2-0.6,0.6-0.6C18.6,29.1,18.8,29.3,18.8,29.6z"/>
		</g>
	</g>
	<g class="st1">
		<g class="st7">
			
				<image style="overflow:visible;" width="92" height="92" xlink:href="A7DE6793.png"  transform="matrix(1 0 0 1 -11.0938 -27.9745)">
			</image>
		</g>
		<circle class="st8" cx="34.9" cy="18" r="10"/>
		<g>
			<path class="st10" d="M31.4,16.2H30c-0.2,0-0.3,0.2-0.3,0.3v6.1c0,0.2,0.2,0.3,0.3,0.3h1.4c0.2,0,0.3-0.2,0.3-0.3v-6.1
				C31.7,16.4,31.6,16.2,31.4,16.2z"/>
			<path class="st10" d="M36.6,16.2l0.4-1c0.2-0.7,0.1-1.7-0.6-2.1c-0.2-0.1-0.5-0.2-0.8-0.1c-0.1,0-0.3,0.1-0.3,0.3
				c-0.1,0.1-0.1,0.3-0.1,0.5c-0.1,0.4-0.3,0.8-0.6,1.1c-0.5,0.5-2.2,2-2.2,2v5.4h5.7c0.8,0,1.3-0.9,0.9-1.5
				c0.5-0.3,0.6-0.9,0.3-1.4c0.5-0.3,0.6-0.9,0.3-1.4c0.8-0.5,0.5-1.7-0.4-1.9C39.2,16.2,36.6,16.2,36.6,16.2z"/>
		</g>
	</g>
</g>
<g class="st0">
	<line class="st15" x1="54.9" y1="94" x2="54.9" y2="95"/>
	<line class="st15" x1="57.9" y1="92" x2="57.9" y2="95"/>
	<line class="st15" x1="60.9" y1="89" x2="60.9" y2="95"/>
</g>
<g class="st0">
	<line class="st15" x1="188" y1="-4.9" x2="197.9" y2="5"/>
	<line class="st15" x1="197.9" y1="-4.9" x2="188" y2="5"/>
</g>
<g class="st0">
	<path class="st16" d="M177.8-2.5c0,0-0.5-0.5-0.6-0.6c-2-2-5.3-2.1-7.3,0c-2,2-2,5.3,0,7.4c2,2,5.3,2,7.4,0"/>
	<polyline class="st16" points="175.9,-2.1 178.2,-2.1 178.2,-4.4 	"/>
</g>
<g class="st0">
	<line class="st17" x1="123.9" y1="10" x2="143.9" y2="10"/>
	<line class="st17" x1="123.9" y1="16" x2="143.9" y2="16"/>
	<line class="st17" x1="123.9" y1="22" x2="143.9" y2="22"/>
</g>
<circle class="st18" cx="106.4" cy="9.5" r="2"/>
<circle class="st18" cx="98.4" cy="9.5" r="2"/>
<circle class="st18" cx="106.4" cy="17.5" r="2"/>
<circle class="st18" cx="98.4" cy="17.5" r="2"/>
<g id="skoro" class="st0">
	<path class="st6" d="M15.3,64.9h-39c-2.2,0-4-1.8-4-4v-8c0-2.2,1.8-4,4-4h39c2.2,0,4,1.8,4,4v8C19.3,63.1,17.5,64.9,15.3,64.9z"/>
	<text transform="matrix(1 0 0 1 -20.5615 59.7808)" class="st19 st11 st20">Скоро</text>
</g>
<g id="skoro_x5F_v_x5F_prodaje" class="st0">
	<g class="st21">
		
			<image style="overflow:visible;" width="144" height="144" xlink:href="A7DE679D.png"  transform="matrix(1 0 0 1 -47.0938 -42.9745)">
		</image>
	</g>
	<circle class="st22" cx="24.9" cy="29.1" r="35.5"/>
	<g class="st1">
		<ellipse class="st23" cx="24.9" cy="10.6" rx="8" ry="8"/>
		<line class="st23" x1="24.9" y1="10.6" x2="24.9" y2="2.6"/>
		<line class="st23" x1="24.9" y1="16.4" x2="24.9" y2="18.6"/>
		<line class="st23" x1="32.9" y1="10.5" x2="30.7" y2="10.5"/>
		<line class="st23" x1="19.1" y1="10.5" x2="16.9" y2="10.5"/>
		<line class="st23" x1="24.9" y1="10.6" x2="30.6" y2="4.9"/>
		<line class="st23" x1="20.8" y1="14.7" x2="19.3" y2="16.2"/>
		<line class="st23" x1="30.6" y1="16.2" x2="29" y2="14.7"/>
		<line class="st23" x1="20.8" y1="6.4" x2="19.3" y2="4.9"/>
	</g>
	<text transform="matrix(1 0 0 1 8.4466 32.8902)" class="st1"><tspan x="0" y="0" class="st10 st11 st20">Скоро</tspan><tspan x="-11.3" y="12" class="st10 st11 st20">в продаже</tspan></text>
</g>
<g>
	<g class="st7">
		
			<image style="overflow:visible;" width="108" height="117" xlink:href="A7DE679F.png"  transform="matrix(1 0 0 1 -29.0938 -28.9745)">
		</image>
	</g>
	<g>
		<g>
			<g>
				<g>
					<path class="st8" d="M42,23.8C42,37.4,27.1,50,26.5,50.5c-0.5,0.4-1,0.6-1.6,0.6c-0.6,0-1.1-0.2-1.6-0.6
						C22.7,50,7.8,37.4,7.8,23.8c0-9.2,7.7-16.7,17.1-16.7S42,14.6,42,23.8z"/>
				</g>
			</g>
		</g>
	</g>
	<path class="st10" d="M24.9,17.4c0.6-1.5,2.1-2.9,4.3-2.9c0,2.7-1.9,4.4-3.8,4.5C24.4,19.2,24.4,18.4,24.9,17.4z M25.3,31.6
		c-2.5,0-4.9-1.5-6.1-3.8c-1.1-2.2-0.9-4.7,0.5-6.6c0.1-0.1,0.1-0.2,0.2-0.3c0.6-0.7,1.4-1.1,2.3-1.2c0.8-0.1,1.4,0.2,2.2,0.4
		c0.2,0.1,0.4,0.1,0.6,0.1c0.6,0.1,1.2-0.1,1.7-0.3c0.5-0.2,1.1-0.2,1.6-0.2c1,0.1,1.9,0.6,2.6,1.5c0.1,0.2,0.2,0.3,0.3,0.5
		c-0.9,0.7-1.5,1.8-1.5,3.1c0,1.3,0.6,2.5,1.5,3.2C30.1,30.1,27.7,31.6,25.3,31.6z"/>
</g>
</svg>
