<?xml version="1.0" encoding="utf-8"?>
<!-- Generator: Adobe Illustrator 22.0.0, SVG Export Plug-In . SVG Version: 6.00 Build 0)  -->
<svg version="1.1" id="Layer_1" xmlns="http://www.w3.org/2000/svg" xmlns:xlink="http://www.w3.org/1999/xlink" x="0px" y="0px"
	 viewBox="0 0 18.1 17.3" style="enable-background:new 0 0 18.1 17.3;" xml:space="preserve">
<style type="text/css">
	.st0{display:none;}
	.st1{display:inline;}
	.st2{fill:#282D3A;}
	.st3{fill:#85888B;}
	.st4{display:none;fill:none;stroke:#FFFFFF;stroke-width:2;stroke-linecap:round;stroke-linejoin:round;stroke-miterlimit:10;}
	.st5{display:inline;fill:none;stroke:#282D3A;stroke-width:1.5;stroke-linejoin:round;stroke-miterlimit:10;}
	.st6{display:inline;fill:#282D3A;}
	.st7{opacity:0.66;}
	.st8{fill:#FF005F;}
	.st9{fill:none;stroke:#FFFFFF;stroke-width:2;stroke-linecap:round;stroke-linejoin:round;stroke-miterlimit:10;}
	.st10{fill:#FFFFFF;}
	.st11{font-family:'SFUIText-Bold';}
	.st12{font-size:12px;}
	.st13{fill:none;stroke:#282D3A;stroke-width:1.5;stroke-linecap:round;stroke-linejoin:round;stroke-miterlimit:10;}
	.st14{fill:#F5F5F5;}
	
		.st15{display:inline;fill:none;stroke:#282D3A;stroke-width:1.5;stroke-linecap:round;stroke-linejoin:round;stroke-miterlimit:10;}
	
		.st16{display:inline;fill:none;stroke:#0096FF;stroke-width:1.5;stroke-linecap:round;stroke-linejoin:round;stroke-miterlimit:10;}
	.st17{display:inline;opacity:0.66;}
	.st18{display:inline;fill:#FF005F;}
	.st19{fill:none;stroke:#FFFFFF;stroke-width:1.5;stroke-linecap:round;stroke-linejoin:round;stroke-miterlimit:10;}
	.st20{font-size:10px;}
	.st21{display:inline;fill:#FFFFFF;}
	.st22{display:none;fill:none;stroke:#0096FF;stroke-width:2;stroke-linecap:round;stroke-linejoin:round;stroke-miterlimit:10;}
	.st23{display:inline;fill:#FF005E;}
	.st24{display:none;fill:none;stroke:#FFFFFF;stroke-width:1.5;stroke-linecap:round;stroke-linejoin:round;stroke-miterlimit:10;}
	.st25{display:inline;fill:#282D3B;}
	.st26{fill:none;stroke:#282D3A;stroke-width:2;stroke-linecap:round;stroke-linejoin:round;stroke-miterlimit:10;}
</style>
<g id="_x35_s" class="st0">
	<g class="st1">
		<path class="st2" d="M-17.3,25.8h-10c-1.1,0-2,0.9-2,2v20c0,1.1,0.9,2,2,2h10c1.1,0,2-0.9,2-2v-20C-15.3,26.7-16.1,25.8-17.3,25.8
			z M-22.3,48.8c-0.5,0-1-0.4-1-1c0-0.5,0.5-1,1-1c0.6,0,1,0.5,1,1C-21.3,48.4-21.7,48.8-22.3,48.8z M-16.8,44.8
			c0,0.4-0.2,0.7-0.5,0.9c-0.1,0.1-0.3,0.1-0.5,0.1h-9c-0.2,0-0.3,0-0.5-0.1c-0.3-0.2-0.5-0.5-0.5-0.9v-15c0-0.4,0.2-0.7,0.5-0.9
			c0.2-0.1,0.3-0.1,0.5-0.1h9c0.2,0,0.4,0,0.5,0.1c0.3,0.2,0.5,0.5,0.5,0.9V44.8z"/>
	</g>
</g>
<g id="_x36_" class="st0">
	<g class="st1">
		<path class="st2" d="M-16.5,25h-11c-1.1,0-2,0.9-2,2v22c0,1.1,0.9,2,2,2h11c1.1,0,2-0.9,2-2V27C-14.5,25.9-15.4,25-16.5,25z
			 M-22,50c-0.6,0-1-0.5-1-1c0-0.6,0.4-1,1-1c0.5,0,1,0.4,1,1C-21,49.6-21.5,50-22,50z M-16,46c0,0.4-0.2,0.7-0.5,0.9
			C-16.7,47-16.9,47-17,47h-10c-0.2,0-0.4,0-0.5-0.1c-0.3-0.2-0.5-0.5-0.5-0.9V29c0-0.4,0.2-0.7,0.5-0.9c0.1-0.1,0.3-0.1,0.5-0.1h10
			c0.2,0,0.3,0,0.5,0.1c0.3,0.2,0.5,0.5,0.5,0.9V46z"/>
	</g>
</g>
<g id="plus" class="st0">
	<g id="_x36__2_" class="st1">
		<g>
			<path class="st2" d="M-10.5,23h-13.2c-1.1,0-2,0.9-2,2v1h4c0.4,0,0.8,0.1,1.1,0.3h9.5c0.2,0,0.4,0.1,0.6,0.2
				c0.3,0.2,0.4,0.5,0.4,0.8v20.2c0,0.3-0.2,0.6-0.4,0.8c-0.2,0.1-0.4,0.2-0.6,0.2h-8.6V52c0,0.5-0.4,1-1,1h10.2c1.1,0,2-0.9,2-2V25
				C-8.5,23.9-9.4,23-10.5,23z M-15.9,51c-0.1,0.6-0.6,1-1.2,1c-0.6,0-1.1-0.4-1.2-1c0-0.1,0-0.1,0-0.2c0-0.6,0.5-1.2,1.2-1.2
				c0.7,0,1.2,0.5,1.2,1.2C-15.9,50.9-15.9,51-15.9,51z"/>
		</g>
	</g>
	<g id="_x36__1_" class="st1">
		<g>
			<path class="st2" d="M-22.6,27h-11c-0.3,0-0.6,0.1-0.8,0.2c-0.7,0.3-1.2,1-1.2,1.8v22c0,1.1,0.9,2,2,2h11c0.7,0,1.4-0.4,1.7-1
				c0.2-0.3,0.3-0.6,0.3-1V29C-20.6,27.9-21.5,27-22.6,27z M-28.1,52c-0.5,0-1-0.5-1-1s0.5-1,1-1c0.6,0,1,0.5,1,1S-27.6,52-28.1,52z
				 M-22.1,48c0,0.2,0,0.3-0.1,0.5c-0.1,0.2-0.2,0.3-0.4,0.4C-22.8,49-23,49-23.1,49h-10c-0.2,0-0.3,0-0.5-0.1
				c-0.3-0.2-0.5-0.5-0.5-0.9V31c0-0.4,0.2-0.7,0.5-0.9c0.2-0.1,0.3-0.1,0.5-0.1h10c0.2,0,0.4,0,0.5,0.1c0.3,0.2,0.5,0.5,0.5,0.9V48
				z"/>
		</g>
	</g>
</g>
<g id="x" class="st0">
	<g class="st1">
		<path class="st2" d="M-16,25h-12c-1.1,0-2,0.9-2,2v23c0,1.1,0.9,2,2,2h12c1.1,0,2-0.9,2-2V27C-14,25.9-14.9,25-16,25z M-15,50
			c0,0.6-0.5,1-1,1h-12c-0.6,0-1-0.4-1-1V27c0-0.5,0.4-1,1-1h1.4v0.3c0,0.3,0.1,0.5,0.3,0.7c0.2,0.2,0.4,0.3,0.7,0.3h7.2
			c0.3,0,0.5-0.1,0.7-0.3c0.2-0.2,0.3-0.4,0.3-0.7V26h1.4c0.5,0,1,0.5,1,1V50z"/>
	</g>
</g>
<g id="all" class="st0">
	<g id="_x35_s_1_" class="st1">
		<g>
			<path class="st2" d="M-26,51.1v-3h-6.5c-0.2,0-0.4,0-0.5-0.1c-0.3-0.2-0.5-0.5-0.5-0.9v-15c0-0.4,0.2-0.7,0.5-0.9
				c0.1-0.1,0.3-0.1,0.5-0.1h6.5v-3h-7c-1.1,0-2,0.9-2,2v20c0,1.1,0.9,2,2,2h8C-25.6,52.1-26,51.7-26,51.1z M-28,51.1
				c-0.6,0-1-0.5-1-1c0-0.6,0.4-1,1-1c0.5,0,1,0.4,1,1C-27,50.7-27.5,51.1-28,51.1z"/>
		</g>
	</g>
	<g id="x_2_" class="st1">
		<g>
			<path class="st2" d="M-11,25.1h-12c-1.1,0-2,0.9-2,2v23c0,0.4,0.1,0.7,0.3,1c0.3,0.6,1,1,1.7,1h12c1.1,0,2-0.9,2-2v-23
				C-9,26-9.9,25.1-11,25.1z M-10,50.1c0,0.5-0.5,1-1,1h-12c-0.6,0-1-0.5-1-1v-23c0-0.6,0.4-1,1-1h1.4v0.3c0,0.3,0.1,0.5,0.3,0.7
				c0.2,0.2,0.4,0.3,0.7,0.3h7.2c0.3,0,0.5-0.1,0.7-0.3c0.2-0.2,0.3-0.4,0.3-0.7v-0.3h1.4c0.5,0,1,0.4,1,1V50.1z"/>
		</g>
	</g>
</g>
<g id="x_1_" class="st0">
	<g class="st1">
		<path class="st3" d="M-16,25.6h-12c-1.1,0-2,0.9-2,2v23c0,1.1,0.9,2,2,2h12c1.1,0,2-0.9,2-2v-23C-14,26.5-14.9,25.6-16,25.6z
			 M-15,50.6c0,0.5-0.5,1-1,1h-12c-0.6,0-1-0.5-1-1v-23c0-0.6,0.4-1,1-1h1.4v0.3c0,0.3,0.1,0.5,0.3,0.7c0.2,0.2,0.4,0.3,0.7,0.3h7.2
			c0.3,0,0.5-0.1,0.7-0.3c0.2-0.2,0.3-0.4,0.3-0.7v-0.3h1.4c0.5,0,1,0.4,1,1V50.6z"/>
	</g>
</g>
<circle class="st0" cx="3.2" cy="149.6" r="10"/>
<polyline class="st4" points="-0.6,90.6 2.5,93 7.5,85.3 "/>
<g id="x_3_" class="st0">
	<path class="st5" d="M67.1,154H47.4c-0.6,0-1-0.4-1-1v-36.6c0-0.6,0.4-1,1-1h19.6c0.6,0,1,0.4,1,1V153
		C68.1,153.6,67.6,154,67.1,154z"/>
	<path class="st6" d="M63.4,118.4H51.1c-0.6,0-1-0.4-1-1v-2.5h14.2v2.5C64.4,117.9,63.9,118.4,63.4,118.4z"/>
</g>
<g id="icon1" class="st0">
	<g class="st1">
		<g>
			<g>
				<g>
					<path class="st2" d="M6.1,21.5L6.1,21.5C6.1,21.5,6.1,21.4,6.1,21.5c0-0.1-0.1-0.2-0.1-0.2c0,0,0,0,0-0.1c0,0-0.1-0.1-0.1-0.1
						C5.8,21,5.7,21,5.7,21c-0.1,0-0.1,0-0.2-0.1c0,0,0,0-0.1,0h0l-20.7-2c-0.2,0-0.3,0-0.5,0.1l-4.1,2.8l0,0
						c-0.1,0.1-0.2,0.2-0.3,0.4c0,0,0,0.1,0,0.1c0,0,0,0.1,0,0.2v33.9c0,0.4,0.3,0.7,0.7,0.7l20.6,2c0.1,0,0.1,0,0.2,0
						c0.1,0,0.1,0,0.2,0c0.1,0,0.1-0.1,0.2-0.1l4.1-2.8C6,56,6.1,55.8,6.1,55.5V21.6C6.1,21.6,6.1,21.5,6.1,21.5z M-15.2,20.4
						l18.4,1.8l-2.2,1.5l-18.4-1.8L-15.2,20.4z M0.5,57.5l-19.3-1.9V23.3l19.3,1.8V57.5z M4.6,55.1L2,56.9v-32l2.6-1.8V55.1z"/>
					<path class="st2" d="M6.1,21.5C6.1,21.5,6.1,21.5,6.1,21.5S6.1,21.4,6.1,21.5C6.1,21.4,6.1,21.4,6.1,21.5z"/>
				</g>
			</g>
		</g>
		<g id="_x36__3_">
			<g>
				<path class="st2" d="M-3.6,28.3l-11.1-1c-1.1,0-2,0.9-2,2v22c0,1.1,0.9,2,1.9,2h0l11,1h0.1c1.1,0,2-0.9,2-2v-22
					C-1.7,29.2-2.6,28.3-3.6,28.3z M-8.8,52.8L-8.8,52.8C-9,53-9.2,53-9.4,53c-0.3,0-0.5-0.1-0.7-0.3c-0.2-0.2-0.3-0.4-0.3-0.7
					c0-0.1,0-0.2,0.1-0.3c0.1-0.4,0.5-0.7,0.9-0.7c0.5,0,0.9,0.4,1,0.8c0,0,0,0.1,0,0.2C-8.4,52.4-8.6,52.6-8.8,52.8z M-3.2,49.3
					c0,0.4-0.2,0.7-0.5,0.9c-0.2,0.1-0.3,0.1-0.5,0.1l-10-1c-0.2,0-0.4,0-0.5-0.1c-0.3-0.2-0.5-0.5-0.5-0.9v-17
					c0-0.3,0.2-0.6,0.4-0.8c0.2-0.1,0.4-0.2,0.6-0.2l10,1c0.2,0,0.3,0,0.5,0.1c0.3,0.2,0.5,0.5,0.5,0.9V49.3z"/>
			</g>
		</g>
	</g>
	<g class="st1">
		<g>
			<g>
				<path class="st2" d="M-50.2,21.4C-50.2,21.4-50.2,21.5-50.2,21.4C-50.2,21.5-50.2,21.5-50.2,21.4
					C-50.2,21.4-50.2,21.4-50.2,21.4z"/>
			</g>
			<g>
				<path class="st2" d="M-46.1,56.9l-2.6-1.8V23.1l2.6,1.8V56.9z M-23.9,22.3C-23.9,22.3-23.9,22.3-23.9,22.3
					c-0.1-0.2-0.2-0.4-0.3-0.5l0,0l-4.1-2.8c-0.2-0.1-0.3-0.1-0.5-0.1l-20.7,2h0c0,0,0,0-0.1,0c-0.1,0-0.2,0-0.2,0.1
					c-0.1,0-0.1,0.1-0.2,0.1c-0.1,0-0.1,0.1-0.1,0.1c0,0,0,0,0,0.1c0,0,0,0.1,0,0.1c0,0,0,0,0,0.1v0c0,0,0,0.1,0,0.1v33.9
					c0,0.3,0.1,0.5,0.3,0.6l4.1,2.8c0,0,0,0,0.1,0c0,0,0.1,0.1,0.1,0.1c0.1,0,0.1,0,0.2,0c0.1,0,0.1,0,0.2,0l20.6-2
					c0.4,0,0.7-0.4,0.7-0.7V22.5C-23.9,22.4-23.9,22.4-23.9,22.3z M-47.4,22.2l18.4-1.8l2.2,1.5l-18.4,1.8L-47.4,22.2z M-25.4,55.7
					l-19.2,1.9V25.2l19.2-1.8V55.7z"/>
			</g>
		</g>
	</g>
	<g id="x_4_" class="st1">
		<g>
			<path class="st2" d="M-29.1,25.3L-29.1,25.3L-41,26.4c-1.1,0-2,0.9-2,2v25c0,1.1,0.9,2,2.1,2h0l12-1.1c1.1,0,2-0.9,2-2v-25
				C-27,26.2-27.9,25.3-29.1,25.3z M-28,52.3c0,0.5-0.5,1-1,1l-12,1.1c-0.6,0-1-0.5-1-1v-25c0-0.6,0.4-1,1-1l1.4-0.1v0.5
				c0,0.2,0,0.3,0.1,0.5c0.2,0.3,0.5,0.5,0.9,0.5l7.2-0.8c0.4,0,0.8-0.3,0.9-0.6c0-0.1,0.1-0.3,0.1-0.4v-0.6l1.4-0.1
				c0.5,0,1,0.5,1,1V52.3z"/>
		</g>
	</g>
	<g class="st1">
		<g class="st7">
			
				<image style="overflow:visible;" width="92" height="92" xlink:href="6243CE29.png"  transform="matrix(1 0 0 1 -42.9271 -27.8747)">
			</image>
		</g>
		<circle class="st8" cx="3.1" cy="18.1" r="10"/>
		<polyline class="st9" points="-0.5,19.6 2.6,22 7.6,14.3 		"/>
	</g>
</g>
<g id="icon2" class="st0">
	<g class="st1">
		<path class="st2" d="M-15.5,52l-0.3-0.2c-0.2-0.1-18-9.2-17.6-36.4l0-0.7l0.7-0.1c0.1,0,7.8-0.9,16.8-6.2l0.4-0.2l0.4,0.2
			c9,5.4,16.8,6.2,16.9,6.2l0.7,0.1l0,0.7C2.8,42.6-15,51.8-15.1,51.8L-15.5,52z M-31.9,16.1c-0.1,23.7,14,32.9,16.4,34.2
			C-13.1,49,1,39.8,0.9,16.1c-2.1-0.3-8.7-1.6-16.4-6.1C-23.2,14.5-29.8,15.8-31.9,16.1z"/>
	</g>
	<g class="st1">
		<path class="st2" d="M-5,20.2C-4.8,36.7-15.5,43-15.5,43s-10.7-6.3-10.4-22.8c0,0,4.8-0.5,10.4-3.9C-9.8,19.7-5,20.2-5,20.2z"/>
	</g>
	<g class="st1">
		<g class="st7">
			
				<image style="overflow:visible;" width="92" height="92" xlink:href="6243CE2B.png"  transform="matrix(1 0 0 1 -42.9271 -33.8747)">
			</image>
		</g>
		<circle class="st8" cx="3.1" cy="12.1" r="10"/>
		<text transform="matrix(1 0 0 1 -1.2718 15.9952)" class="st10 st11 st12">3</text>
	</g>
</g>
<g id="icon3" class="st0">
	<g class="st1">
		<g>
			<path class="st2" d="M25.4,10.1c0,0-0.1-0.1-0.1-0.1c-0.2-0.2-0.8-0.8-4.6-0.4c-0.3,0-0.6,0.3-0.7,0.6c-0.1,0.1-0.2,0.3-0.5,0.4
				C18.5,10.8,9,10.9,7.5,10.4c-0.1-0.2-0.2-0.3-0.4-0.5c-0.8-0.6-2-0.5-2.3-0.5c-0.2,0-0.4,0.1-0.5,0.3c0,0-0.1,0.1-0.2,0.3
				c-0.3,0.4-0.5,0.6-0.7,0.8c0-0.1,0-0.2,0-0.3c0-0.1,0-0.3,0.1-0.4C3.9,9,1.3,6.8,0.9,6.4C0.1,5.9-0.6,5.7-1,5.9
				C-1.6,6-4.2,5.1-6.3,4.2c-0.1,0-0.2-0.1-0.3-0.1h-30c-0.4,0-0.7,0.3-0.8,0.7c0,0-0.1,0.7-0.2,1.3l0,0.1c0,0.3-0.1,0.4-0.1,0.4
				c-0.2,0.3-1,1.5-1,2.8v11.2c0,0.8,0.4,1.3,0.8,1.6c0.1,0.1,0.2,0.2,0.3,0.3c0.6,0.5,0.8,0.7,0.7,1.2c0,0,0,0.1,0,0.1
				c-0.1,1.6,1.5,3.2,2.6,4.1c0.3,0.2,0.5,0.4,0.6,0.6c0.2,0.2,0.5,0.6,0.7,0.9l0.4,0.5c1,1.3,1.6,1.9,2.3,1.7
				c0.1,0,0.2-0.1,0.3-0.1c0.8-0.2,1.1-0.2,1.4,0.1c0.9,1.1,4.2,1.8,5.3,1.9h0.8c0,0,0.1,0,0.2,0c0.7-0.1,2.6-0.4,3.6,0
				c0.2,0.1,0.4,0.2,0.4,0.3c0.1,0.5,0.3,1,0.7,1.5c0.6,1.1,1.5,1.8,1.5,1.9c0.2,0.2,0.4,0.2,0.6,0.2c0.2,0,0.4-0.2,0.5-0.4
				c0,0,0.5-0.8,0.7-1.4c0.4,0.2,0.8,0.9,1.2,2.1c0.1,0.3,0.2,0.7,0.4,1c0.4,0.9,1.1,1.7,2,2.4c0.9,0.7,1.7,1,1.7,1
				c0.2,0.1,0.5,0.1,0.7-0.1c0.2-0.1,0.3-0.4,0.3-0.6c0,0,0-0.4,0-0.9c0-0.6,0-1.4,0.1-2.1c0-0.2,0-0.4,0-0.6
				c0.1-0.6,2.5-1.6,3.4-1.8c0.2,0,1.1,0.4,1.7,0.6c2,0.8,2.8,1,3.3,0.6c0.2-0.2,0.4-0.4,0.4-0.7c0-0.2,0.8-0.8,1.2-1l0.3-0.2
				c0.1,0,0.2,0.1,0.3,0.2c0.2,0.2,0.5,0.5,0.7,0.7c0.4,0.4,0.7,0.8,1.1,0.8c0.1,0.4,0.3,0.8,0.4,1.3c0.2,0.6,0.3,1.2,0.4,1.7
				c0.1,0.5,0.1,0.8,0,1c0,0.4,0.1,0.8,0.4,1.4c0.3,0.6,1,1,2,1.1c0,0,0.3,0,0.7,0c0.6,0,1.4-0.1,1.7-0.4c0.3-0.3,0.5-1.1,0.5-2.4
				c0-0.5,0.1-1.5-0.1-2.3c-0.1-0.6-0.3-1.1-0.6-1.4C10.2,37,9.9,36.3,9.8,35c-0.1-0.7-0.1-1.4,0-2c0.1-0.5,0.1-0.6,0.1-0.6
				c0.4-0.3,1.5-1.3,2.7-2.4c0.9-0.8,1.7-1.6,2.2-2.2c1.1-1.2,1.5-1.9,1.3-2.5c-0.1-0.3-0.3-0.5-0.6-0.7c-0.2-0.1-0.3-0.1-0.2-0.8
				c0-0.2,0.1-0.5,0.1-0.8c0.1-0.4,0.1-0.8,0.2-1.3c0-0.1,0-0.1,0-0.2c1,0,1.6-0.5,1.9-1.9c0.1-0.3,0.2-0.6,0.5-0.9
				c0.7-0.6,1.8-0.9,2.5-1.1c0.7-0.2,1.2-0.3,1.3-0.9c0.1-0.3-0.1-0.6-0.3-0.8c0,0,0,0-0.1-0.1c-0.1-0.4,0-1.1,0.4-1.4
				c0.1-0.1,0.3-0.3,0.5-0.4c0.3-0.2,0.7-0.5,1.1-0.8C24.9,12.1,26.1,11,25.4,10.1z M22.6,12.1c-0.4,0.3-0.7,0.6-1,0.8
				c-0.2,0.2-0.4,0.3-0.6,0.5c-0.9,0.7-1.1,2.1-0.9,3c-0.9,0.2-2.1,0.6-3,1.4c-0.5,0.5-0.8,1.1-1,1.7c-0.1,0.6-0.2,0.7-0.2,0.7h-0.2
				c-0.6,0-1.4,0.1-1.6,1.6c0,0.4-0.1,0.8-0.2,1.2c-0.1,0.3-0.1,0.6-0.1,0.9c0,0.5-0.1,1.4,0.7,2c-0.1,0.2-0.4,0.5-0.8,1
				c-0.5,0.6-1.2,1.3-2.1,2.1c-1.2,1.1-2.3,2-2.7,2.3c-0.4,0.3-0.6,0.8-0.7,1.6c-0.1,0.6-0.1,1.5,0,2.3c0.1,0.8,0.4,2.3,1,2.9
				c0,0,0.1,0.1,0.2,0.6c0.1,0.5,0.1,1.2,0.1,2c0,0.7-0.1,1.2-0.2,1.4c-0.6,0.1-1.7,0-1.9-0.3c-0.2-0.4-0.2-0.5-0.2-0.5
				c0-0.4,0-0.8,0-1.4c-0.1-0.5-0.2-1.2-0.4-1.8c-0.7-2.7-1.3-2.6-1.6-2.6c0,0-0.1,0-0.1,0c0,0,0,0-0.1-0.1
				c-0.2-0.3-0.5-0.6-0.8-0.9c-1-0.9-1.7-0.6-2.1-0.4l-0.4,0.3C1,34.9,0.3,35.4,0,36c-0.5-0.1-1.3-0.4-1.8-0.6
				c-1.5-0.6-2-0.7-2.4-0.7c0,0-4.6,1.1-4.7,3.2c0,0.2,0,0.4,0,0.6c0,0.6,0,1.3,0,1.9c-0.1-0.1-0.3-0.2-0.4-0.3
				c-0.7-0.6-1.3-1.2-1.6-1.9c-0.1-0.2-0.2-0.5-0.3-0.7c-0.4-1.5-1.1-2.6-1.9-3.1c-0.6-0.4-1.3-0.3-1.8,0.1
				c-0.1,0.1-0.2,0.2-0.2,0.3c-0.1,0.2-0.2,0.4-0.3,0.6c-0.2-0.2-0.4-0.5-0.6-0.8c-0.3-0.4-0.4-0.8-0.5-1.1c-0.1-0.4-0.4-1-1.3-1.3
				c-1.3-0.5-3.4-0.2-4.3,0h-0.6c-1.5-0.2-3.9-0.9-4.2-1.4c-0.9-1.1-2.2-0.8-2.9-0.7c0,0-0.1,0-0.1,0c-0.1-0.1-0.4-0.4-1-1.2
				l-0.4-0.5c-0.3-0.4-0.6-0.8-0.8-1c-0.2-0.2-0.4-0.4-0.8-0.7c-0.7-0.7-2.1-1.9-2-2.9c0.2-1.3-0.7-2-1.3-2.5
				c-0.1-0.1-0.2-0.1-0.3-0.2l0,0c-0.3-0.3-0.3-0.4-0.3-0.5V9.5c0-1,0.7-2,0.7-2c0,0,0-0.1,0-0.1c0.1-0.2,0.2-0.4,0.2-0.8l0-0.2
				c0-0.2,0.1-0.5,0.1-0.7h2.1l0.2-0.5c0-0.2,0.3-0.2,0.3,0l0.2,0.5h4.9l0.2-0.5c0.1-0.2,0.3-0.2,0.3,0l0.2,0.5h4.9l0.2-0.5
				c0.1-0.2,0.3-0.2,0.3,0l0.2,0.5h4.8l0.2-0.5c0.1-0.2,0.3-0.2,0.3,0l0.2,0.5h9.8c2.3,0.9,5,1.9,6.1,1.7c0.1,0,0.3,0.1,0.6,0.3
				C1,8.4,1.9,9.5,2,9.9c0,0.2-0.1,0.4-0.1,0.5c-0.1,0.5,0,1.4,0.5,1.9c0.3,0.2,0.7,0.3,1.1,0.2c0.2-0.1,0.8-0.3,1.8-1.5
				c0,0,0,0,0,0c0.3,0,0.7,0,0.8,0.2c0.6,1.9,13.7,1,13.8,0.9c0.7-0.2,1.1-0.7,1.3-1c0.9-0.1,1.9-0.1,2.5,0
				C23.5,11.2,23.2,11.6,22.6,12.1z"/>
		</g>
		<g>
			<g>
				<line class="st13" x1="-11.9" y1="37.6" x2="-8.3" y2="37.6"/>
				<line class="st13" x1="6.1" y1="37.6" x2="9.8" y2="37.6"/>
				<line class="st13" x1="-30.4" y1="30.7" x2="10.6" y2="30.7"/>
				<line class="st13" x1="-35.4" y1="23.8" x2="14.1" y2="23.8"/>
				<line class="st13" x1="-13.4" y1="16.9" x2="20.1" y2="16.9"/>
				<line class="st13" x1="-13.4" y1="10" x2="2.1" y2="10"/>
			</g>
		</g>
		<g>
			<path class="st2" d="M-36.5,4.9l-1.5,4.5l0.3,11.8h24.4c0.8,0,1.5-0.7,1.5-1.5V4.9H-36.5z M-31.4,17.8l-1.1,0.8l0.4,1.3
				c0,0.2-0.1,0.3-0.3,0.2l-1.1-0.8l-1.1,0.8c-0.1,0.1-0.3,0-0.3-0.2l0.4-1.3l-1-0.8c-0.1-0.1-0.1-0.3,0.1-0.3l1.3,0l0.1-0.3l0.3-1
				c0-0.2,0.3-0.2,0.3,0l0.3,1l0.1,0.3l1.3,0C-31.3,17.5-31.3,17.7-31.4,17.8z M-31.4,12.3l-1.1,0.8l0.4,1.3c0,0.2-0.1,0.3-0.3,0.2
				l-1.1-0.8l-1.1,0.8c-0.1,0.1-0.3,0-0.3-0.2l0.4-1.3l-1-0.8c-0.1-0.1-0.1-0.3,0.1-0.3l1.3,0l0.1-0.3l0.3-0.9c0-0.2,0.3-0.2,0.3,0
				l0.3,0.9l0.1,0.3l1.3,0C-31.3,12-31.3,12.2-31.4,12.3z M-31.4,6.7l-1.1,0.8l0.4,1.3c0,0.2-0.1,0.3-0.3,0.2l-1.1-0.8L-34.5,9
				c-0.1,0.1-0.3,0-0.3-0.2l0.4-1.3l-1-0.8c-0.1-0.1-0.1-0.3,0.1-0.3l1.3,0l0.1-0.3l0.2-0.5l0.2-0.5c0-0.2,0.3-0.2,0.3,0l0.2,0.5
				l0.1,0.5l0.1,0.3l1.3,0C-31.3,6.4-31.3,6.6-31.4,6.7z M-25.9,17.8l-1.1,0.8l0.4,1.3c0.1,0.2-0.1,0.3-0.3,0.2l-1.1-0.8l-1.1,0.8
				c-0.1,0.1-0.3,0-0.3-0.2l0.4-1.3l-1.1-0.8c-0.1-0.1-0.1-0.3,0.1-0.3l1.3,0l0.1-0.3l0.3-1c0.1-0.2,0.3-0.2,0.3,0l0.3,1l0.1,0.3
				l1.3,0C-25.8,17.5-25.7,17.7-25.9,17.8z M-25.9,12.3l-1.1,0.8l0.4,1.3c0.1,0.2-0.1,0.3-0.3,0.2l-1.1-0.8l-1.1,0.8
				c-0.1,0.1-0.3,0-0.3-0.2l0.4-1.3l-1.1-0.8c-0.1-0.1-0.1-0.3,0.1-0.3l1.3,0l0.1-0.3l0.3-0.9c0.1-0.2,0.3-0.2,0.3,0l0.3,0.9
				l0.1,0.3l1.3,0C-25.8,12-25.7,12.2-25.9,12.3z M-25.9,6.7l-1.1,0.8l0.4,1.3c0.1,0.2-0.1,0.3-0.3,0.2l-1.1-0.8L-28.9,9
				c-0.1,0.1-0.3,0-0.3-0.2l0.4-1.3l-1.1-0.8c-0.1-0.1-0.1-0.3,0.1-0.3l1.3,0l0.1-0.3l0.2-0.5l0.2-0.5c0.1-0.2,0.3-0.2,0.3,0
				l0.2,0.5l0.2,0.5l0.1,0.3l1.3,0C-25.8,6.4-25.7,6.6-25.9,6.7z M-20.4,17.8l-1,0.8l0.4,1.3c0,0.2-0.1,0.3-0.3,0.2l-1.1-0.8
				l-1.1,0.8c-0.1,0.1-0.3,0-0.3-0.2l0.4-1.3l-1.1-0.8c-0.1-0.1-0.1-0.3,0.1-0.3l1.3,0l0.1-0.3l0.3-1c0.1-0.2,0.3-0.2,0.3,0l0.3,1
				l0.1,0.3l1.3,0C-20.3,17.5-20.2,17.7-20.4,17.8z M-20.4,12.3l-1,0.8l0.4,1.3c0,0.2-0.1,0.3-0.3,0.2l-1.1-0.8l-1.1,0.8
				c-0.1,0.1-0.3,0-0.3-0.2l0.4-1.3l-1.1-0.8c-0.1-0.1-0.1-0.3,0.1-0.3l1.3,0l0.1-0.3l0.3-0.9c0.1-0.2,0.3-0.2,0.3,0l0.3,0.9
				l0.1,0.3l1.3,0C-20.3,12-20.2,12.2-20.4,12.3z M-20.4,6.7l-1,0.8l0.4,1.3c0,0.2-0.1,0.3-0.3,0.2l-1.1-0.8L-23.4,9
				c-0.1,0.1-0.3,0-0.3-0.2l0.4-1.3l-1.1-0.8c-0.1-0.1-0.1-0.3,0.1-0.3l1.3,0l0.1-0.3l0.2-0.5l0.2-0.5c0.1-0.2,0.3-0.2,0.3,0
				l0.2,0.5l0.1,0.5l0.1,0.3l1.3,0C-20.3,6.4-20.2,6.6-20.4,6.7z M-14.8,17.8l-1.1,0.8l0.4,1.3c0.1,0.2-0.1,0.3-0.3,0.2l-1.1-0.8
				l-1.1,0.8c-0.1,0.1-0.3,0-0.3-0.2l0.4-1.3l-1.1-0.8c-0.1-0.1-0.1-0.3,0.1-0.3l1.3,0l0.1-0.3l0.3-1c0.1-0.2,0.3-0.2,0.3,0l0.3,1
				l0.1,0.3l1.3,0C-14.8,17.5-14.7,17.7-14.8,17.8z M-14.8,12.3l-1.1,0.8l0.4,1.3c0.1,0.2-0.1,0.3-0.3,0.2l-1.1-0.8l-1.1,0.8
				c-0.1,0.1-0.3,0-0.3-0.2l0.4-1.3l-1.1-0.8c-0.1-0.1-0.1-0.3,0.1-0.3l1.3,0l0.1-0.3l0.3-0.9c0.1-0.2,0.3-0.2,0.3,0l0.3,0.9
				l0.1,0.3l1.3,0C-14.8,12-14.7,12.2-14.8,12.3z M-16.3,6.1l0.1,0.3l1.3,0c0.2,0,0.2,0.2,0.1,0.3l-1.1,0.8l0.4,1.3
				c0.1,0.2-0.1,0.3-0.3,0.2l-1.1-0.8L-17.9,9c-0.1,0.1-0.3,0-0.3-0.2l0.4-1.3l-1.1-0.8c-0.1-0.1-0.1-0.3,0.1-0.3l1.3,0l0.1-0.3
				l0.1-0.5l0.2-0.5c0.1-0.2,0.3-0.2,0.3,0l0.2,0.5L-16.3,6.1z"/>
		</g>
	</g>
	<g class="st1">
		<g class="st7">
			
				<image style="overflow:visible;" width="92" height="92" xlink:href="6243CE2E.png"  transform="matrix(1 0 0 1 -26.9271 -41.8747)">
			</image>
		</g>
		<circle class="st8" cx="19.1" cy="4.1" r="10"/>
		<path class="st14" d="M23.6,2.7l-3.2,0l-0.2-0.7l-0.8-2.3c-0.1-0.4-0.7-0.4-0.8,0l-0.8,2.3l-0.2,0.7l-3.2,0
			c-0.4,0-0.6,0.5-0.3,0.8l2.5,1.9l-1,3c-0.1,0.4,0.3,0.7,0.7,0.5L19.1,7l2.6,1.8c0.3,0.2,0.8-0.1,0.7-0.5l-1-3l2.5-1.9
			C24.2,3.2,24.1,2.7,23.6,2.7z"/>
	</g>
</g>
<g id="icon4" class="st0">
	<g id="_x34_" class="st1">
		<g>
			<g id="head">
				<g>
					<path class="st2" d="M7.6,4.2c-0.3,0-0.7-0.3-1-0.6C6.3,3.3,6.1,2.8,5.9,2.3C5.8,2.1,5.7,1.9,5.6,1.7L5.6,1.6
						c0-0.1-0.1-0.2-0.1-0.4c0-0.1,0-0.2-0.1-0.3C5.3,0.3,5.1-0.1,4.7-0.4C4.3-0.7,3.8-0.8,3.5-0.8C3-0.8,2.5-0.6,2.2-0.5
						C2.1-0.4,1.9-0.4,1.8-0.3C1.3-0.2,0.9-0.1,0.6,0C-0.2,0.1-1,0.2-1.8,0.2c-0.9,0-1.7-0.1-2.5-0.2c-0.4-0.1-0.8-0.2-1.2-0.3
						c-0.1,0-0.3-0.1-0.4-0.2c-0.6-0.2-1.5-0.6-2.4,0.1c-0.4,0.3-0.7,0.7-0.8,1.2c0,0.1,0,0.3-0.1,0.4c0,0.2,0,0.3-0.1,0.3
						c-0.1,0.1-0.1,0.3-0.2,0.4c0,0.1-0.1,0.2-0.1,0.4c-0.2,0.5-0.4,1-0.7,1.3c-0.3,0.3-0.8,0.6-1,0.6c-0.1-0.3-0.3-1-0.2-2.3
						c0-0.4,1-8.6,9.7-8.6s9.6,8.3,9.7,8.6C7.9,3.1,7.7,3.8,7.6,4.2z"/>
				</g>
			</g>
			<g>
				<path class="st2" d="M15.2,35.1l-2.1-10.4c0-0.1-0.8-2.5-3.4-3.3l-5.5-1.7l-1.6-1.1v-1.1c2.8-1.6,4.8-4.6,4.8-8.1
					c0.1,0,0.2,0,0.3,0c1.7,0,3.1-1.4,3.1-3.1c0-1-0.5-2-1.3-2.5c0.1-0.5,0.1-1.3,0-2.2C9.4,1.5,8.3-8.5-1.9-8.5s-11.3,10-11.3,10.1
					c-0.1,0.9-0.1,1.6,0,2.2c-0.8,0.6-1.3,1.5-1.3,2.5c0,1.7,1.4,3.1,3.1,3.1c0.1,0,0.2,0,0.3,0c0,3.5,2,6.5,4.8,8.1v1.1l-1.6,1.1
					l-5.5,1.7c-2.6,0.8-3.4,3.2-3.5,3.4l-2.1,10.3c-0.2,1,0.1,1.7,0.4,2.2c0.9,1.1,2.5,1.3,2.7,1.3h4.2l19.3,0h4.4
					c0.2,0,1.8-0.2,2.7-1.3C15.1,36.8,15.4,36.1,15.2,35.1z M2.8,20.8l-1.3,3.4l-2.1-0.7l2.5-3.4h0L2.8,20.8z M-1.9,22.6l-2.8-3.8
					v-0.6c0.9,0.3,1.8,0.4,2.8,0.4s1.9-0.2,2.8-0.4v0.6L-1.9,22.6z M8.8,5.4C9,5.7,9.1,6,9.1,6.3c0,0.8-0.6,1.4-1.4,1.4
					c-0.1,0-0.2,0-0.3,0v-2c0.1,0,0.2,0,0.3,0C8,5.8,8.4,5.7,8.8,5.4L8.8,5.4z M-11.1,7.7c-0.1,0-0.2,0-0.3,0
					c-0.8,0-1.4-0.6-1.4-1.4c0-0.3,0.1-0.7,0.3-0.9l0.1,0.1c0.4,0.3,0.9,0.4,1.3,0.3V7.7z M-10.3,3.6c-0.3,0.3-0.8,0.6-1,0.6
					c-0.1-0.3-0.3-1-0.2-2.3c0-0.4,1-8.6,9.7-8.6s9.6,8.3,9.7,8.6c0.1,1.3-0.1,2-0.2,2.3c-0.3,0-0.7-0.3-1-0.6
					C6.3,3.3,6.1,2.8,5.9,2.3C5.8,2.1,5.7,1.9,5.6,1.7L5.6,1.6c0-0.1-0.1-0.2-0.1-0.4c0-0.1,0-0.2-0.1-0.3C5.3,0.3,5.1-0.1,4.7-0.4
					C4.3-0.7,3.8-0.8,3.5-0.8C3-0.8,2.5-0.6,2.2-0.5C2.1-0.4,1.9-0.4,1.8-0.3C1.3-0.2,0.9-0.1,0.6,0C-0.2,0.1-1,0.2-1.8,0.2
					c-0.9,0-1.7-0.1-2.5-0.2c-0.4-0.1-0.8-0.2-1.2-0.3c-0.1,0-0.3-0.1-0.4-0.2c-0.6-0.2-1.5-0.6-2.4,0.1c-0.4,0.3-0.7,0.7-0.8,1.2
					c0,0.1,0,0.3-0.1,0.4c0,0.2,0,0.3-0.1,0.3c-0.1,0.1-0.1,0.3-0.2,0.4c0,0.1-0.1,0.2-0.1,0.4C-9.8,2.8-10,3.3-10.3,3.6z M-9.5,9.3
					V5c0.2-0.1,0.3-0.2,0.3-0.3C-8.6,4.2-8.3,3.5-8.1,3C-8,2.8-7.9,2.7-7.9,2.5c0-0.1,0.1-0.2,0.2-0.4c0.1-0.3,0.1-0.5,0.2-0.7
					c0-0.1,0-0.2,0-0.3c0-0.1,0.1-0.1,0.1-0.2c0.2-0.1,0.3-0.1,0.8,0.1C-6.4,1.1-6.2,1.2-6,1.3c0.4,0.1,0.9,0.3,1.4,0.4
					c0.9,0.1,1.8,0.2,2.8,0.2C-0.9,1.8,0,1.8,0.9,1.6c0.4-0.1,0.8-0.2,1.4-0.4c0.2-0.1,0.4-0.1,0.6-0.2C3.4,0.8,3.5,0.8,3.7,1
					c0.1,0,0.1,0.1,0.1,0.2c0,0.1,0,0.2,0,0.2c0,0.2,0.1,0.5,0.2,0.8l0.1,0.1c0.1,0.2,0.2,0.4,0.3,0.7c0.3,0.6,0.6,1.3,1.1,1.8
					c0,0,0.1,0.1,0.3,0.3v4.3c0,4.2-3.4,7.6-7.6,7.6C-6.1,16.9-9.5,13.5-9.5,9.3z M-5.7,20.2l2.5,3.3l-2.1,0.7l-1.3-3.4L-5.7,20.2z
					 M13.5,36.2c-0.3,0.5-1.2,0.6-1.4,0.7H8.7v-6.3c0-0.5-0.4-0.8-0.8-0.8c-0.5,0-0.8,0.4-0.8,0.8v6.3h-17.7v-6.3
					c0-0.5-0.4-0.8-0.8-0.8c-0.5,0-0.8,0.4-0.8,0.8v6.3h-3.3c-0.2,0-1.1-0.2-1.5-0.7c-0.1-0.1-0.2-0.4-0.1-0.8l2-10.2
					c0,0,0.6-1.7,2.3-2.2l4.9-1.5l1.5,4.1c0.1,0.3,0.4,0.5,0.8,0.5c0.1,0,0.2,0,0.3,0l2.8-0.9V31c0,0.5,0.4,0.8,0.8,0.8
					c0.5,0,0.8-0.4,0.8-0.8v-5.9L1.8,26c0.1,0,0.2,0,0.3,0c0.3,0,0.7-0.2,0.8-0.5l1.5-4.1L9.2,23c0.9,0.3,1.4,0.8,1.8,1.3
					c0.4,0.5,0.5,0.9,0.5,0.9l2.1,10.3C13.7,35.9,13.6,36.1,13.5,36.2z"/>
				<path class="st2" d="M7.9,38.5C7.9,38.5,7.9,38.5,7.9,38.5c-0.1,0-0.1,0-0.2,0H7.9z"/>
			</g>
		</g>
		<g>
			<g>
				<circle class="st2" cx="-4.6" cy="7" r="1.1"/>
			</g>
			<g>
				<circle class="st2" cx="0.9" cy="7" r="1.1"/>
			</g>
		</g>
		<g>
			<path class="st2" d="M1,11.7c0,1.1-1.3,2-2.9,2s-2.9-0.9-2.9-2c0-0.3,0.2-0.6,0.6-0.6c0.3,0,0.6,0.3,0.6,0.6
				c0,0.4,0.7,0.9,1.8,0.9c1,0,1.8-0.5,1.8-0.9c0-0.3,0.2-0.6,0.6-0.6C0.7,11.2,1,11.4,1,11.7z"/>
		</g>
	</g>
	<g class="st1">
		<g class="st7">
			
				<image style="overflow:visible;" width="92" height="92" xlink:href="6243CE2F.png"  transform="matrix(1 0 0 1 -28.9271 -45.8747)">
			</image>
		</g>
		<circle class="st8" cx="17.1" cy="0.1" r="10"/>
		<g>
			<path class="st10" d="M13.6-1.7h-1.4c-0.2,0-0.3,0.2-0.3,0.3v6.1c0,0.2,0.2,0.3,0.3,0.3h1.4c0.2,0,0.3-0.2,0.3-0.3v-6.1
				C13.9-1.5,13.7-1.7,13.6-1.7z"/>
			<path class="st10" d="M18.8-1.7l0.4-1c0.2-0.7,0.1-1.7-0.6-2.1c-0.2-0.1-0.5-0.2-0.8-0.1c-0.1,0-0.3,0.1-0.3,0.3
				c-0.1,0.1-0.1,0.3-0.1,0.5c-0.1,0.4-0.3,0.8-0.6,1.1c-0.5,0.5-2.2,2-2.2,2v5.4h5.7c0.8,0,1.3-0.9,0.9-1.5
				c0.5-0.3,0.6-0.9,0.3-1.4c0.5-0.3,0.6-0.9,0.3-1.4c0.8-0.5,0.5-1.7-0.4-1.9C21.4-1.7,18.8-1.7,18.8-1.7z"/>
		</g>
	</g>
</g>
<g id="cross" class="st0">
	<line class="st15" x1="3" y1="2.7" x2="15" y2="14.7"/>
	<line class="st15" x1="15" y1="2.7" x2="3" y2="14.7"/>
</g>
<g id="show_x5F_more" class="st0">
	<path class="st16" d="M12.3,7.6c0,0-0.5-0.5-0.7-0.7c-2.3-2.3-6.1-2.4-8.4,0c-2.3,2.3-2.3,6.1,0,8.5c2.3,2.3,6.1,2.3,8.5,0"/>
	<polyline class="st16" points="10.1,8.1 12.8,8.1 12.8,5.4 	"/>
</g>
<g id="burger_x5F_mob" class="st0">
	<circle class="st6" cx="13" cy="4.7" r="2"/>
	<circle class="st6" cx="5" cy="4.7" r="2"/>
	<circle class="st6" cx="13" cy="12.7" r="2"/>
	<circle class="st6" cx="5" cy="12.7" r="2"/>
</g>
<g id="skoro" class="st0">
	<path class="st6" d="M-2.6,47h-39c-2.2,0-4-1.8-4-4v-8c0-2.2,1.8-4,4-4h39c2.2,0,4,1.8,4,4v8C1.4,45.2-0.3,47-2.6,47z"/>
	<text transform="matrix(1 0 0 1 -38.3949 41.8806)" class="st21 st11 st20">Скоро</text>
</g>
<g id="skoro_x5F_v_x5F_prodaje" class="st0">
	<g class="st17">
		
			<image style="overflow:visible;" width="144" height="144" xlink:href="6243CE2A.png"  transform="matrix(1 0 0 1 -64.9271 -60.8747)">
		</image>
	</g>
	<circle class="st18" cx="7.1" cy="11.2" r="35.5"/>
	<g class="st1">
		<ellipse class="st19" cx="7.1" cy="-7.3" rx="8" ry="8"/>
		<line class="st19" x1="7.1" y1="-7.3" x2="7.1" y2="-15.3"/>
		<line class="st19" x1="7.1" y1="-1.5" x2="7.1" y2="0.7"/>
		<line class="st19" x1="15.1" y1="-7.4" x2="12.9" y2="-7.4"/>
		<line class="st19" x1="1.3" y1="-7.4" x2="-0.9" y2="-7.4"/>
		<line class="st19" x1="7.1" y1="-7.3" x2="12.7" y2="-13"/>
		<line class="st19" x1="3" y1="-3.2" x2="1.4" y2="-1.7"/>
		<line class="st19" x1="12.7" y1="-1.7" x2="11.2" y2="-3.2"/>
		<line class="st19" x1="3" y1="-11.5" x2="1.4" y2="-13"/>
	</g>
	<text transform="matrix(1 0 0 1 -9.3867 14.99)" class="st1"><tspan x="0" y="0" class="st10 st11 st20">Скоро</tspan><tspan x="-11.3" y="12" class="st10 st11 st20">в продаже</tspan></text>
</g>
<g id="map_x5F_pin" class="st0">
	<g class="st17">
		
			<image style="overflow:visible;" width="108" height="117" xlink:href="6243CE25.png"  transform="matrix(1 0 0 1 -46.9271 -46.8747)">
		</image>
	</g>
	<g class="st1">
		<g>
			<g>
				<g>
					<path class="st8" d="M24.2,5.9c0,13.6-14.9,26.2-15.5,26.7c-0.5,0.4-1,0.6-1.6,0.6S6,33,5.5,32.6C4.9,32.1-10,19.5-10,5.9
						c0-9.2,7.7-16.7,17.1-16.7S24.2-3.3,24.2,5.9z"/>
				</g>
			</g>
		</g>
	</g>
	<path class="st21" d="M7-0.5C7.6-2,9.1-3.3,11.4-3.3c0,2.7-1.9,4.4-3.8,4.5C6.6,1.3,6.6,0.5,7-0.5z M7.5,13.7
		c-2.5,0-4.9-1.5-6.1-3.8C0.3,7.6,0.5,5.2,1.9,3.3C1.9,3.2,2,3.1,2.1,3c0.6-0.7,1.4-1.1,2.3-1.2C5.2,1.7,5.9,2,6.6,2.2
		C6.8,2.2,7,2.2,7.2,2.3C7.7,2.3,8.3,2.2,8.9,2c0.5-0.2,1.1-0.2,1.6-0.2c1,0.1,1.9,0.6,2.6,1.5c0.1,0.2,0.2,0.3,0.3,0.5
		c-0.9,0.7-1.5,1.8-1.5,3.1s0.6,2.5,1.5,3.2C12.2,12.2,9.9,13.7,7.5,13.7z"/>
</g>
<polyline id="arrow" class="st22" points="2.1,9.2 7.1,13.2 12.1,9.2 "/>
<g id="fire_x5F_label" class="st0">
	<g class="st17">
		
			<image style="overflow:visible;" width="103" height="103" xlink:href="6243CE26.png"  transform="matrix(1 0 0 1 -43.9271 -39.8747)">
		</image>
	</g>
	<circle class="st23" cx="7.1" cy="11.2" r="15"/>
	<g id="surface1" class="st1">
		<path class="st10" d="M4.2,20.2c-2-6.6,2.2-9,2.2-9c-0.3,3.5,1.7,6.3,1.7,6.3c0.7-0.2,2.1-1.3,2.1-1.3c0,1.3-0.7,4-0.7,4
			s2.6-2,3.4-5.3c0.8-3.3-1.6-6.7-1.6-6.7c0.1,2.4-0.7,4.7-2.2,6.4c0.1-0.1,0.1-0.2,0.2-0.3c0.3-0.6,0.7-2,0.5-5.4
			C9.4,4.2,5.2,2.2,5.2,2.2c0.4,2.9-0.7,3.6-3.3,9C-0.8,16.7,4.2,20.2,4.2,20.2z"/>
	</g>
</g>
<g id="v_x5F_nalichii" class="st0">
	<path class="st23" d="M13.1,11.2c0,3.3-2.7,6-6,6c-3.3,0-6-2.7-6-6s2.7-6,6-6c1.6,0,3.1,0.7,4.2,1.7c0.4,0.4,0.7,0.8,0.9,1.2
		C12.8,9,13.1,10,13.1,11.2z"/>
	<g class="st1">
		<path class="st10" d="M12.2,8.1l-4.6,5.5c-0.2,0.2-0.4,0.3-0.6,0.3h0c-0.2,0-0.5-0.1-0.6-0.3l-2-3c-0.2-0.3-0.1-0.8,0.2-1
			c0.3-0.2,0.8-0.1,1,0.2l1.5,2.2l4.1-5C11.7,7.2,12,7.7,12.2,8.1z"/>
	</g>
</g>
<polyline id="galochka" class="st24" points="4.1,11.7 6.1,13.7 10.1,8.7 "/>
<polyline id="arrow_x5F_slide" class="st22" points="9.1,7.2 5.1,11.2 9.1,15.2 "/>
<g id="_x31_2h" class="st0">
	<circle class="st25" cx="5.1" cy="11.2" r="35"/>
	<g class="st1">
		<path class="st9" d="M-8.8,3.9c-1.3,2.3-2.1,4.4-2.1,7.3c0,8.8,7.2,16,16,16c8.8,0,16-7.2,16-16c0-8.8-7.2-16-16-16"/>
		<circle class="st9" cx="5.1" cy="11.2" r="1.5"/>
		<line class="st9" x1="5.1" y1="11.1" x2="-2.2" y2="6.8"/>
		<line class="st9" x1="5.1" y1="-0.5" x2="5.1" y2="-4.8"/>
	</g>
	<g class="st17">
		
			<image style="overflow:visible;" width="95" height="95" xlink:href="6243CE27.png"  transform="matrix(1 0 0 1 -13.9271 -59.8747)">
		</image>
	</g>
	<circle class="st23" cx="33.1" cy="-12.8" r="11"/>
	<text transform="matrix(1 0 0 1 24.4971 -9.9736)" class="st1"><tspan x="0" y="0" class="st10 st11 st20">12</tspan><tspan x="11.6" y="0" class="st10 st11" style="font-size:9px;">ч</tspan></text>
</g>
<g>
	<line class="st26" x1="1.5" y1="16.2" x2="16.5" y2="1.2"/>
	<line class="st26" x1="16.5" y1="16.2" x2="1.5" y2="1.2"/>
</g>
</svg>
