<?xml version="1.0" encoding="utf-8"?>
<!-- Generator: Adobe Illustrator 22.0.0, SVG Export Plug-In . SVG Version: 6.00 Build 0)  -->
<svg version="1.1" id="Layer_1" xmlns="http://www.w3.org/2000/svg" xmlns:xlink="http://www.w3.org/1999/xlink" x="0px" y="0px"
	 viewBox="0 0 24.4 23.3" style="enable-background:new 0 0 24.4 23.3;" xml:space="preserve">
<style type="text/css">
	.st0{display:none;}
	.st1{display:inline;}
	.st2{fill:#282D3A;}
	.st3{fill:#85888B;}
	.st4{display:none;fill:none;stroke:#FFFFFF;stroke-width:2;stroke-linecap:round;stroke-linejoin:round;stroke-miterlimit:10;}
	.st5{display:inline;fill:none;stroke:#282D3A;stroke-width:1.5;stroke-linejoin:round;stroke-miterlimit:10;}
	.st6{display:inline;fill:#282D3A;}
	.st7{opacity:0.66;}
	.st8{fill:#FF005F;}
	.st9{fill:none;stroke:#FFFFFF;stroke-width:2;stroke-linecap:round;stroke-linejoin:round;stroke-miterlimit:10;}
	.st10{fill:#FFFFFF;}
	.st11{font-family:'SFUIText-Bold';}
	.st12{font-size:12px;}
	.st13{fill:none;stroke:#282D3A;stroke-width:1.5;stroke-linecap:round;stroke-linejoin:round;stroke-miterlimit:10;}
	.st14{fill:#F5F5F5;}
	
		.st15{display:inline;fill:none;stroke:#282D3A;stroke-width:1.5;stroke-linecap:round;stroke-linejoin:round;stroke-miterlimit:10;}
	
		.st16{display:inline;fill:none;stroke:#0096FF;stroke-width:1.5;stroke-linecap:round;stroke-linejoin:round;stroke-miterlimit:10;}
	.st17{display:inline;opacity:0.66;}
	.st18{display:inline;fill:#FF005F;}
	.st19{fill:none;stroke:#FFFFFF;stroke-width:1.5;stroke-linecap:round;stroke-linejoin:round;stroke-miterlimit:10;}
	.st20{font-size:10px;}
	.st21{display:inline;fill:#FFFFFF;}
	.st22{display:none;fill:none;stroke:#0096FF;stroke-width:2;stroke-linecap:round;stroke-linejoin:round;stroke-miterlimit:10;}
	.st23{display:inline;fill:#FF005E;}
	.st24{display:none;fill:none;stroke:#FFFFFF;stroke-width:1.5;stroke-linecap:round;stroke-linejoin:round;stroke-miterlimit:10;}
	.st25{display:inline;fill:#282D3B;}
	.st26{display:inline;fill:none;stroke:#282D3A;stroke-width:2;stroke-linecap:round;stroke-linejoin:round;stroke-miterlimit:10;}
</style>
<g id="_x35_s" class="st0">
	<g class="st1">
		<path class="st2" d="M-14.1,28.8h-10c-1.1,0-2,0.9-2,2v20c0,1.1,0.9,2,2,2h10c1.1,0,2-0.9,2-2v-20C-12.1,29.7-13,28.8-14.1,28.8z
			 M-19.1,51.8c-0.5,0-1-0.4-1-1c0-0.5,0.5-1,1-1c0.6,0,1,0.5,1,1C-18.1,51.4-18.5,51.8-19.1,51.8z M-13.6,47.8
			c0,0.4-0.2,0.7-0.5,0.9c-0.1,0.1-0.3,0.1-0.5,0.1h-9c-0.2,0-0.3,0-0.5-0.1c-0.3-0.2-0.5-0.5-0.5-0.9v-15c0-0.4,0.2-0.7,0.5-0.9
			c0.2-0.1,0.3-0.1,0.5-0.1h9c0.2,0,0.4,0,0.5,0.1c0.3,0.2,0.5,0.5,0.5,0.9V47.8z"/>
	</g>
</g>
<g id="_x36_" class="st0">
	<g class="st1">
		<path class="st2" d="M-13.4,28h-11c-1.1,0-2,0.9-2,2v22c0,1.1,0.9,2,2,2h11c1.1,0,2-0.9,2-2V30C-11.4,28.9-12.3,28-13.4,28z
			 M-18.9,53c-0.6,0-1-0.5-1-1c0-0.6,0.4-1,1-1c0.5,0,1,0.4,1,1C-17.9,52.6-18.3,53-18.9,53z M-12.9,49c0,0.4-0.2,0.7-0.5,0.9
			c-0.2,0.1-0.3,0.1-0.5,0.1h-10c-0.2,0-0.4,0-0.5-0.1c-0.3-0.2-0.5-0.5-0.5-0.9V32c0-0.4,0.2-0.7,0.5-0.9c0.1-0.1,0.3-0.1,0.5-0.1
			h10c0.2,0,0.3,0,0.5,0.1c0.3,0.2,0.5,0.5,0.5,0.9V49z"/>
	</g>
</g>
<g id="plus" class="st0">
	<g id="_x36__2_" class="st1">
		<g>
			<path class="st2" d="M-7.3,26h-13.2c-1.1,0-2,0.9-2,2v1h4c0.4,0,0.8,0.1,1.1,0.3h9.5c0.2,0,0.4,0.1,0.6,0.2
				c0.3,0.2,0.4,0.5,0.4,0.8v20.2c0,0.3-0.2,0.6-0.4,0.8c-0.2,0.1-0.4,0.2-0.6,0.2h-8.6V55c0,0.5-0.4,1-1,1h10.2c1.1,0,2-0.9,2-2V28
				C-5.3,26.9-6.2,26-7.3,26z M-12.7,54c-0.1,0.6-0.6,1-1.2,1c-0.6,0-1.1-0.4-1.2-1c0-0.1,0-0.1,0-0.2c0-0.6,0.5-1.2,1.2-1.2
				c0.7,0,1.2,0.5,1.2,1.2C-12.7,53.9-12.7,54-12.7,54z"/>
		</g>
	</g>
	<g id="_x36__1_" class="st1">
		<g>
			<path class="st2" d="M-19.5,30h-11c-0.3,0-0.6,0.1-0.8,0.2c-0.7,0.3-1.2,1-1.2,1.8v22c0,1.1,0.9,2,2,2h11c0.7,0,1.4-0.4,1.7-1
				c0.2-0.3,0.3-0.6,0.3-1V32C-17.5,30.9-18.4,30-19.5,30z M-25,55c-0.5,0-1-0.5-1-1s0.5-1,1-1c0.6,0,1,0.5,1,1S-24.4,55-25,55z
				 M-19,51c0,0.2,0,0.3-0.1,0.5c-0.1,0.2-0.2,0.3-0.4,0.4C-19.6,52-19.8,52-20,52h-10c-0.2,0-0.3,0-0.5-0.1
				c-0.3-0.2-0.5-0.5-0.5-0.9V34c0-0.4,0.2-0.7,0.5-0.9c0.2-0.1,0.3-0.1,0.5-0.1h10c0.2,0,0.4,0,0.5,0.1c0.3,0.2,0.5,0.5,0.5,0.9V51
				z"/>
		</g>
	</g>
</g>
<g id="x" class="st0">
	<g class="st1">
		<path class="st2" d="M-12.9,28h-12c-1.1,0-2,0.9-2,2v23c0,1.1,0.9,2,2,2h12c1.1,0,2-0.9,2-2V30C-10.9,28.9-11.8,28-12.9,28z
			 M-11.9,53c0,0.6-0.5,1-1,1h-12c-0.6,0-1-0.4-1-1V30c0-0.5,0.4-1,1-1h1.4v0.3c0,0.3,0.1,0.5,0.3,0.7c0.2,0.2,0.4,0.3,0.7,0.3h7.2
			c0.3,0,0.5-0.1,0.7-0.3c0.2-0.2,0.3-0.4,0.3-0.7V29h1.4c0.5,0,1,0.5,1,1V53z"/>
	</g>
</g>
<g id="all" class="st0">
	<g id="_x35_s_1_" class="st1">
		<g>
			<path class="st2" d="M-22.9,54.1v-3h-6.5c-0.2,0-0.4,0-0.5-0.1c-0.3-0.2-0.5-0.5-0.5-0.9v-15c0-0.4,0.2-0.7,0.5-0.9
				c0.1-0.1,0.3-0.1,0.5-0.1h6.5v-3h-7c-1.1,0-2,0.9-2,2v20c0,1.1,0.9,2,2,2h8C-22.4,55.1-22.9,54.7-22.9,54.1z M-24.9,54.1
				c-0.6,0-1-0.5-1-1c0-0.6,0.4-1,1-1c0.5,0,1,0.4,1,1C-23.9,53.7-24.3,54.1-24.9,54.1z"/>
		</g>
	</g>
	<g id="x_2_" class="st1">
		<g>
			<path class="st2" d="M-7.9,28.1h-12c-1.1,0-2,0.9-2,2v23c0,0.4,0.1,0.7,0.3,1c0.3,0.6,1,1,1.7,1h12c1.1,0,2-0.9,2-2v-23
				C-5.9,29-6.8,28.1-7.9,28.1z M-6.9,53.1c0,0.5-0.5,1-1,1h-12c-0.6,0-1-0.5-1-1v-23c0-0.6,0.4-1,1-1h1.4v0.3
				c0,0.3,0.1,0.5,0.3,0.7c0.2,0.2,0.4,0.3,0.7,0.3h7.2c0.3,0,0.5-0.1,0.7-0.3c0.2-0.2,0.3-0.4,0.3-0.7v-0.3h1.4c0.5,0,1,0.4,1,1
				V53.1z"/>
		</g>
	</g>
</g>
<g id="x_1_" class="st0">
	<g class="st1">
		<path class="st3" d="M-12.9,28.6h-12c-1.1,0-2,0.9-2,2v23c0,1.1,0.9,2,2,2h12c1.1,0,2-0.9,2-2v-23C-10.9,29.5-11.8,28.6-12.9,28.6
			z M-11.9,53.6c0,0.5-0.5,1-1,1h-12c-0.6,0-1-0.5-1-1v-23c0-0.6,0.4-1,1-1h1.4v0.3c0,0.3,0.1,0.5,0.3,0.7c0.2,0.2,0.4,0.3,0.7,0.3
			h7.2c0.3,0,0.5-0.1,0.7-0.3c0.2-0.2,0.3-0.4,0.3-0.7v-0.3h1.4c0.5,0,1,0.4,1,1V53.6z"/>
	</g>
</g>
<circle class="st0" cx="6.4" cy="152.6" r="10"/>
<polyline class="st4" points="2.6,93.6 5.7,96 10.7,88.3 "/>
<g id="x_3_" class="st0">
	<path class="st5" d="M70.2,157H50.6c-0.6,0-1-0.4-1-1v-36.6c0-0.6,0.4-1,1-1h19.6c0.6,0,1,0.4,1,1V156
		C71.2,156.6,70.8,157,70.2,157z"/>
	<path class="st6" d="M66.5,121.4H54.3c-0.6,0-1-0.4-1-1v-2.5h14.2v2.5C67.5,120.9,67.1,121.4,66.5,121.4z"/>
</g>
<g id="icon1" class="st0">
	<g class="st1">
		<g>
			<g>
				<g>
					<path class="st2" d="M9.3,24.5L9.3,24.5C9.3,24.5,9.3,24.4,9.3,24.5c0-0.1-0.1-0.2-0.1-0.2c0,0,0,0,0-0.1c0,0-0.1-0.1-0.1-0.1
						C9,24,8.9,24,8.8,24c-0.1,0-0.1,0-0.2-0.1c0,0,0,0-0.1,0h0l-20.7-2c-0.2,0-0.3,0-0.5,0.1l-4.1,2.8l0,0
						c-0.1,0.1-0.2,0.2-0.3,0.4c0,0,0,0.1,0,0.1c0,0,0,0.1,0,0.2v33.9c0,0.4,0.3,0.7,0.7,0.7l20.6,2c0.1,0,0.1,0,0.2,0
						c0.1,0,0.1,0,0.2,0c0.1,0,0.1-0.1,0.2-0.1L9,59.1c0.2-0.1,0.3-0.4,0.3-0.6V24.6C9.3,24.6,9.3,24.5,9.3,24.5z M-12,23.4
						l18.4,1.8l-2.2,1.5l-18.4-1.8L-12,23.4z M3.7,60.5l-19.3-1.9V26.3l19.3,1.8V60.5z M7.8,58.1l-2.6,1.8v-32l2.6-1.8V58.1z"/>
					<path class="st2" d="M9.3,24.5C9.3,24.5,9.3,24.5,9.3,24.5S9.3,24.4,9.3,24.5C9.3,24.4,9.3,24.4,9.3,24.5z"/>
				</g>
			</g>
		</g>
		<g id="_x36__3_">
			<g>
				<path class="st2" d="M-0.4,31.3l-11.1-1c-1.1,0-2,0.9-2,2v22c0,1.1,0.9,2,1.9,2h0l11,1h0.1c1.1,0,2-0.9,2-2v-22
					C1.5,32.2,0.6,31.3-0.4,31.3z M-5.7,55.8L-5.7,55.8C-5.8,56-6,56-6.3,56c-0.3,0-0.5-0.1-0.7-0.3c-0.2-0.2-0.3-0.4-0.3-0.7
					c0-0.1,0-0.2,0.1-0.3c0.1-0.4,0.5-0.7,0.9-0.7c0.5,0,0.9,0.4,1,0.8c0,0,0,0.1,0,0.2C-5.3,55.4-5.4,55.6-5.7,55.8z M0,52.3
					c0,0.4-0.2,0.7-0.5,0.9c-0.2,0.1-0.3,0.1-0.5,0.1l-10-1c-0.2,0-0.4,0-0.5-0.1c-0.3-0.2-0.5-0.5-0.5-0.9v-17
					c0-0.3,0.2-0.6,0.4-0.8c0.2-0.1,0.4-0.2,0.6-0.2l10,1c0.2,0,0.3,0,0.5,0.1c0.3,0.2,0.5,0.5,0.5,0.9V52.3z"/>
			</g>
		</g>
	</g>
	<g class="st1">
		<g>
			<g>
				<path class="st2" d="M-47,24.4C-47,24.4-47,24.5-47,24.4C-47,24.5-47,24.5-47,24.4C-47,24.4-47,24.4-47,24.4z"/>
			</g>
			<g>
				<path class="st2" d="M-43,59.9l-2.6-1.8V26.1l2.6,1.8V59.9z M-20.7,25.3C-20.7,25.3-20.7,25.3-20.7,25.3
					c-0.1-0.2-0.2-0.4-0.3-0.5l0,0l-4.1-2.8c-0.2-0.1-0.3-0.1-0.5-0.1l-20.7,2h0c0,0,0,0-0.1,0c-0.1,0-0.2,0-0.2,0.1
					c-0.1,0-0.1,0.1-0.2,0.1c-0.1,0-0.1,0.1-0.1,0.1c0,0,0,0,0,0.1c0,0,0,0.1,0,0.1c0,0,0,0,0,0.1v0c0,0,0,0.1,0,0.1v33.9
					c0,0.3,0.1,0.5,0.3,0.6l4.1,2.8c0,0,0,0,0.1,0c0,0,0.1,0.1,0.1,0.1c0.1,0,0.1,0,0.2,0c0.1,0,0.1,0,0.2,0l20.6-2
					c0.4,0,0.7-0.4,0.7-0.7V25.5C-20.7,25.4-20.7,25.4-20.7,25.3z M-44.2,25.2l18.4-1.8l2.2,1.5L-42,26.7L-44.2,25.2z M-22.2,58.7
					l-19.3,1.9V28.2l19.3-1.8V58.7z"/>
			</g>
		</g>
	</g>
	<g id="x_4_" class="st1">
		<g>
			<path class="st2" d="M-25.9,28.3L-25.9,28.3l-11.9,1.1c-1.1,0-2,0.9-2,2v25c0,1.1,0.9,2,2.1,2h0l12-1.1c1.1,0,2-0.9,2-2v-25
				C-23.8,29.2-24.7,28.3-25.9,28.3z M-24.8,55.3c0,0.5-0.5,1-1,1l-12,1.1c-0.6,0-1-0.5-1-1v-25c0-0.6,0.4-1,1-1l1.4-0.1v0.5
				c0,0.2,0,0.3,0.1,0.5c0.2,0.3,0.5,0.5,0.9,0.5l7.2-0.8c0.4,0,0.8-0.3,0.9-0.6c0-0.1,0.1-0.3,0.1-0.4v-0.6l1.4-0.1
				c0.5,0,1,0.5,1,1V55.3z"/>
		</g>
	</g>
	<g class="st1">
		<g class="st7">
			
				<image style="overflow:visible;" width="92" height="92" xlink:href="C75A227F.png"  transform="matrix(1 0 0 1 -39.7604 -24.8747)">
			</image>
		</g>
		<circle class="st8" cx="6.2" cy="21.1" r="10"/>
		<polyline class="st9" points="2.7,22.6 5.8,25 10.8,17.3 		"/>
	</g>
</g>
<g id="icon2" class="st0">
	<g class="st1">
		<path class="st2" d="M-12.3,55l-0.3-0.2c-0.2-0.1-18-9.2-17.6-36.4l0-0.7l0.7-0.1c0.1,0,7.8-0.9,16.8-6.2l0.4-0.2l0.4,0.2
			c9,5.4,16.8,6.2,16.9,6.2l0.7,0.1l0,0.7C6,45.6-11.8,54.8-12,54.8L-12.3,55z M-28.7,19.1c-0.1,23.7,14,32.9,16.4,34.2
			C-9.9,52,4.2,42.8,4.1,19.1C2,18.8-4.6,17.5-12.3,13C-20,17.5-26.6,18.8-28.7,19.1z"/>
	</g>
	<g class="st1">
		<path class="st2" d="M-1.8,23.2C-1.6,39.7-12.3,46-12.3,46S-23,39.6-22.8,23.2c0,0,4.8-0.5,10.4-3.9C-6.7,22.7-1.8,23.2-1.8,23.2z
			"/>
	</g>
	<g class="st1">
		<g class="st7">
			
				<image style="overflow:visible;" width="92" height="92" xlink:href="C75A227A.png"  transform="matrix(1 0 0 1 -39.7604 -30.8747)">
			</image>
		</g>
		<circle class="st8" cx="6.2" cy="15.1" r="10"/>
		<text transform="matrix(1 0 0 1 1.8949 18.9952)" class="st10 st11 st12">3</text>
	</g>
</g>
<g id="icon3" class="st0">
	<g class="st1">
		<g>
			<path class="st2" d="M28.6,13.1c0,0-0.1-0.1-0.1-0.1c-0.2-0.2-0.8-0.8-4.6-0.4c-0.3,0-0.6,0.3-0.7,0.6c-0.1,0.1-0.2,0.3-0.5,0.4
				c-1.1,0.2-10.5,0.3-12.1-0.2c-0.1-0.2-0.2-0.3-0.4-0.5c-0.8-0.6-2-0.5-2.3-0.5c-0.2,0-0.4,0.1-0.5,0.3c0,0-0.1,0.1-0.2,0.3
				c-0.3,0.4-0.5,0.6-0.7,0.8c0-0.1,0-0.2,0-0.3c0-0.1,0-0.3,0.1-0.4C7.1,12,4.5,9.8,4,9.4C3.2,8.9,2.6,8.7,2.1,8.9
				C1.6,9-1,8.1-3.1,7.2c-0.1,0-0.2-0.1-0.3-0.1h-30c-0.4,0-0.7,0.3-0.8,0.7c0,0-0.1,0.7-0.2,1.3l0,0.1c0,0.3-0.1,0.4-0.1,0.4
				c-0.2,0.3-1,1.5-1,2.8v11.2c0,0.8,0.4,1.3,0.8,1.6c0.1,0.1,0.2,0.2,0.3,0.3c0.6,0.5,0.8,0.7,0.7,1.2c0,0,0,0.1,0,0.1
				c-0.1,1.6,1.5,3.2,2.6,4.1c0.3,0.2,0.5,0.4,0.6,0.6c0.2,0.2,0.5,0.6,0.7,0.9l0.4,0.5c1,1.3,1.6,1.9,2.3,1.7
				c0.1,0,0.2-0.1,0.3-0.1c0.8-0.2,1.1-0.2,1.4,0.1c0.9,1.1,4.2,1.8,5.3,1.9h0.8c0,0,0.1,0,0.2,0c0.7-0.1,2.6-0.4,3.6,0
				c0.2,0.1,0.4,0.2,0.4,0.3c0.1,0.5,0.3,1,0.7,1.5c0.6,1.1,1.5,1.8,1.5,1.9c0.2,0.2,0.4,0.2,0.6,0.2c0.2,0,0.4-0.2,0.5-0.4
				c0,0,0.5-0.8,0.7-1.4c0.4,0.2,0.8,0.9,1.2,2.1c0.1,0.3,0.2,0.7,0.4,1c0.4,0.9,1.1,1.7,2,2.4c0.9,0.7,1.7,1,1.7,1
				c0.2,0.1,0.5,0.1,0.7-0.1s0.3-0.4,0.3-0.6c0,0,0-0.4,0-0.9c0-0.6,0-1.4,0.1-2.1c0-0.2,0-0.4,0-0.6c0.1-0.6,2.5-1.6,3.4-1.8
				c0.2,0,1.1,0.4,1.7,0.6c2,0.8,2.8,1,3.3,0.6c0.2-0.2,0.4-0.4,0.4-0.7c0-0.2,0.8-0.8,1.2-1L6,38.5c0.1,0,0.2,0.1,0.3,0.2
				c0.2,0.2,0.5,0.5,0.7,0.7c0.4,0.4,0.7,0.8,1.1,0.8c0.1,0.4,0.3,0.8,0.4,1.3c0.2,0.6,0.3,1.2,0.4,1.7c0.1,0.5,0.1,0.8,0,1
				c0,0.4,0.1,0.8,0.4,1.4c0.3,0.6,1,1,2,1.1c0,0,0.3,0,0.7,0c0.6,0,1.4-0.1,1.7-0.4c0.3-0.3,0.5-1.1,0.5-2.4c0-0.5,0.1-1.5-0.1-2.3
				c-0.1-0.6-0.3-1.1-0.6-1.4c-0.1-0.1-0.4-0.8-0.6-2.1c-0.1-0.7-0.1-1.4,0-2c0.1-0.5,0.1-0.6,0.1-0.6c0.4-0.3,1.5-1.3,2.7-2.4
				c0.9-0.8,1.7-1.6,2.2-2.2c1.1-1.2,1.5-1.9,1.3-2.5c-0.1-0.3-0.3-0.5-0.6-0.7c-0.2-0.1-0.3-0.1-0.2-0.8c0-0.2,0.1-0.5,0.1-0.8
				c0.1-0.4,0.1-0.8,0.2-1.3c0-0.1,0-0.1,0-0.2c1,0,1.6-0.5,1.9-1.9c0.1-0.3,0.2-0.6,0.5-0.9c0.7-0.6,1.8-0.9,2.5-1.1
				c0.7-0.2,1.2-0.3,1.3-0.9c0.1-0.3-0.1-0.6-0.3-0.8c0,0,0,0-0.1-0.1c-0.1-0.4,0-1.1,0.4-1.4c0.1-0.1,0.3-0.3,0.5-0.4
				c0.3-0.2,0.7-0.5,1.1-0.8C28.1,15.1,29.3,14,28.6,13.1z M25.7,15.1c-0.4,0.3-0.7,0.6-1,0.8c-0.2,0.2-0.4,0.3-0.6,0.5
				c-0.9,0.7-1.1,2.1-0.9,3c-0.9,0.2-2.1,0.6-3,1.4c-0.5,0.5-0.8,1.1-1,1.7C19.1,23,19,23.2,19,23.2h-0.2c-0.6,0-1.4,0.1-1.6,1.6
				c0,0.4-0.1,0.8-0.2,1.2c-0.1,0.3-0.1,0.6-0.1,0.9c0,0.5-0.1,1.4,0.7,2c-0.1,0.2-0.4,0.5-0.8,1c-0.5,0.6-1.2,1.3-2.1,2.1
				c-1.2,1.1-2.3,2-2.7,2.3c-0.4,0.3-0.6,0.8-0.7,1.6c-0.1,0.6-0.1,1.5,0,2.3c0.1,0.8,0.4,2.3,1,2.9c0,0,0.1,0.1,0.2,0.6
				c0.1,0.5,0.1,1.2,0.1,2c0,0.7-0.1,1.2-0.2,1.4c-0.6,0.1-1.7,0-1.9-0.3c-0.2-0.4-0.2-0.5-0.2-0.5c0-0.4,0-0.8,0-1.4
				c-0.1-0.5-0.2-1.2-0.4-1.8c-0.7-2.7-1.3-2.6-1.6-2.6c0,0-0.1,0-0.1,0c0,0,0,0-0.1-0.1c-0.2-0.3-0.5-0.6-0.8-0.9
				c-1-0.9-1.7-0.6-2.1-0.4l-0.4,0.3c-0.6,0.4-1.3,0.9-1.6,1.5c-0.5-0.1-1.3-0.4-1.8-0.6c-1.5-0.6-2-0.7-2.4-0.7
				c0,0-4.6,1.1-4.7,3.2c0,0.2,0,0.4,0,0.6c0,0.6,0,1.3,0,1.9c-0.1-0.1-0.3-0.2-0.4-0.3c-0.7-0.6-1.3-1.2-1.6-1.9
				C-8,41-8.1,40.8-8.1,40.5c-0.4-1.5-1.1-2.6-1.9-3.1c-0.6-0.4-1.3-0.3-1.8,0.1c-0.1,0.1-0.2,0.2-0.2,0.3c-0.1,0.2-0.2,0.4-0.3,0.6
				c-0.2-0.2-0.4-0.5-0.6-0.8c-0.3-0.4-0.4-0.8-0.5-1.1c-0.1-0.4-0.4-1-1.3-1.3c-1.3-0.5-3.4-0.2-4.3,0h-0.6
				c-1.5-0.2-3.9-0.9-4.2-1.4c-0.9-1.1-2.2-0.8-2.9-0.7c0,0-0.1,0-0.1,0c-0.1-0.1-0.4-0.4-1-1.2l-0.4-0.5c-0.3-0.4-0.6-0.8-0.8-1
				c-0.2-0.2-0.4-0.4-0.8-0.7c-0.7-0.7-2.1-1.9-2-2.9c0.2-1.3-0.7-2-1.2-2.5c-0.1-0.1-0.2-0.1-0.3-0.2l0,0c-0.3-0.3-0.3-0.4-0.3-0.5
				V12.5c0-1,0.7-2,0.7-2c0,0,0-0.1,0-0.1c0.1-0.2,0.2-0.4,0.2-0.8l0-0.2c0-0.2,0.1-0.5,0.1-0.7h2.1l0.2-0.5c0-0.2,0.3-0.2,0.3,0
				l0.2,0.5h4.9l0.2-0.5c0.1-0.2,0.3-0.2,0.3,0l0.2,0.5h4.9l0.2-0.5c0.1-0.2,0.3-0.2,0.3,0l0.2,0.5h4.8l0.2-0.5
				c0.1-0.2,0.3-0.2,0.3,0l0.2,0.5h9.8c2.3,0.9,5,1.9,6.1,1.7c0.1,0,0.3,0.1,0.6,0.3c1,0.7,1.9,1.8,2.1,2.2c0,0.2-0.1,0.4-0.1,0.5
				c-0.1,0.5,0,1.4,0.5,1.9c0.3,0.2,0.7,0.3,1.1,0.2c0.2-0.1,0.8-0.3,1.8-1.5c0,0,0,0,0,0c0.3,0,0.7,0,0.8,0.2
				c0.6,1.9,13.7,1,13.8,0.9c0.7-0.2,1.1-0.7,1.3-1c0.9-0.1,1.9-0.1,2.5,0C26.7,14.2,26.3,14.6,25.7,15.1z"/>
		</g>
		<g>
			<g>
				<line class="st13" x1="-8.7" y1="40.6" x2="-5.1" y2="40.6"/>
				<line class="st13" x1="9.2" y1="40.6" x2="12.9" y2="40.6"/>
				<line class="st13" x1="-27.2" y1="33.7" x2="13.7" y2="33.7"/>
				<line class="st13" x1="-32.2" y1="26.8" x2="17.3" y2="26.8"/>
				<line class="st13" x1="-10.2" y1="19.9" x2="23.3" y2="19.9"/>
				<line class="st13" x1="-10.2" y1="13" x2="5.3" y2="13"/>
			</g>
		</g>
		<g>
			<path class="st2" d="M-33.3,7.9l-1.5,4.5l0.3,11.8h24.4c0.8,0,1.5-0.7,1.5-1.5V7.9H-33.3z M-28.2,20.8l-1.1,0.8l0.4,1.3
				c0,0.2-0.1,0.3-0.3,0.2l-1.1-0.8l-1.1,0.8c-0.1,0.1-0.3,0-0.3-0.2l0.4-1.3l-1-0.8c-0.1-0.1-0.1-0.3,0.1-0.3l1.3,0l0.1-0.3l0.3-1
				c0-0.2,0.3-0.2,0.3,0l0.3,1l0.1,0.3l1.3,0C-28.2,20.5-28.1,20.7-28.2,20.8z M-28.2,15.3l-1.1,0.8l0.4,1.3c0,0.2-0.1,0.3-0.3,0.2
				l-1.1-0.8l-1.1,0.8c-0.1,0.1-0.3,0-0.3-0.2l0.4-1.3l-1-0.8c-0.1-0.1-0.1-0.3,0.1-0.3l1.3,0l0.1-0.3l0.3-0.9c0-0.2,0.3-0.2,0.3,0
				l0.3,0.9l0.1,0.3l1.3,0C-28.2,15-28.1,15.2-28.2,15.3z M-28.2,9.7l-1.1,0.8l0.4,1.3c0,0.2-0.1,0.3-0.3,0.2l-1.1-0.8l-1.1,0.8
				c-0.1,0.1-0.3,0-0.3-0.2l0.4-1.3l-1-0.8c-0.1-0.1-0.1-0.3,0.1-0.3l1.3,0l0.1-0.3l0.2-0.5l0.2-0.5c0-0.2,0.3-0.2,0.3,0l0.2,0.5
				l0.1,0.5l0.1,0.3l1.3,0C-28.2,9.4-28.1,9.6-28.2,9.7z M-22.7,20.8l-1.1,0.8l0.4,1.3c0.1,0.2-0.1,0.3-0.3,0.2l-1.1-0.8l-1.1,0.8
				c-0.1,0.1-0.3,0-0.3-0.2l0.4-1.3l-1.1-0.8c-0.1-0.1-0.1-0.3,0.1-0.3l1.3,0l0.1-0.3l0.3-1c0.1-0.2,0.3-0.2,0.3,0l0.3,1l0.1,0.3
				l1.3,0C-22.6,20.5-22.6,20.7-22.7,20.8z M-22.7,15.3l-1.1,0.8l0.4,1.3c0.1,0.2-0.1,0.3-0.3,0.2l-1.1-0.8l-1.1,0.8
				c-0.1,0.1-0.3,0-0.3-0.2l0.4-1.3l-1.1-0.8c-0.1-0.1-0.1-0.3,0.1-0.3l1.3,0l0.1-0.3l0.3-0.9c0.1-0.2,0.3-0.2,0.3,0l0.3,0.9
				l0.1,0.3l1.3,0C-22.6,15-22.6,15.2-22.7,15.3z M-22.7,9.7l-1.1,0.8l0.4,1.3c0.1,0.2-0.1,0.3-0.3,0.2l-1.1-0.8l-1.1,0.8
				c-0.1,0.1-0.3,0-0.3-0.2l0.4-1.3l-1.1-0.8c-0.1-0.1-0.1-0.3,0.1-0.3l1.3,0l0.1-0.3l0.2-0.5l0.2-0.5c0.1-0.2,0.3-0.2,0.3,0
				l0.2,0.5l0.2,0.5l0.1,0.3l1.3,0C-22.6,9.4-22.6,9.6-22.7,9.7z M-17.2,20.8l-1,0.8l0.4,1.3c0,0.2-0.1,0.3-0.3,0.2l-1.1-0.8
				l-1.1,0.8c-0.1,0.1-0.3,0-0.3-0.2l0.4-1.3l-1.1-0.8c-0.1-0.1-0.1-0.3,0.1-0.3l1.3,0l0.1-0.3l0.3-1c0.1-0.2,0.3-0.2,0.3,0l0.3,1
				l0.1,0.3l1.3,0C-17.1,20.5-17,20.7-17.2,20.8z M-17.2,15.3l-1,0.8l0.4,1.3c0,0.2-0.1,0.3-0.3,0.2l-1.1-0.8l-1.1,0.8
				c-0.1,0.1-0.3,0-0.3-0.2l0.4-1.3l-1.1-0.8c-0.1-0.1-0.1-0.3,0.1-0.3l1.3,0l0.1-0.3l0.3-0.9c0.1-0.2,0.3-0.2,0.3,0l0.3,0.9
				l0.1,0.3l1.3,0C-17.1,15-17,15.2-17.2,15.3z M-17.2,9.7l-1,0.8l0.4,1.3c0,0.2-0.1,0.3-0.3,0.2l-1.1-0.8l-1.1,0.8
				c-0.1,0.1-0.3,0-0.3-0.2l0.4-1.3l-1.1-0.8c-0.1-0.1-0.1-0.3,0.1-0.3l1.3,0l0.1-0.3l0.2-0.5l0.2-0.5c0.1-0.2,0.3-0.2,0.3,0
				l0.2,0.5l0.1,0.5l0.1,0.3l1.3,0C-17.1,9.4-17,9.6-17.2,9.7z M-11.7,20.8l-1.1,0.8l0.4,1.3c0.1,0.2-0.1,0.3-0.3,0.2l-1.1-0.8
				l-1.1,0.8c-0.1,0.1-0.3,0-0.3-0.2l0.4-1.3l-1.1-0.8c-0.1-0.1-0.1-0.3,0.1-0.3l1.3,0l0.1-0.3l0.3-1c0.1-0.2,0.3-0.2,0.3,0l0.3,1
				l0.1,0.3l1.3,0C-11.6,20.5-11.5,20.7-11.7,20.8z M-11.7,15.3l-1.1,0.8l0.4,1.3c0.1,0.2-0.1,0.3-0.3,0.2l-1.1-0.8l-1.1,0.8
				c-0.1,0.1-0.3,0-0.3-0.2l0.4-1.3l-1.1-0.8c-0.1-0.1-0.1-0.3,0.1-0.3l1.3,0l0.1-0.3l0.3-0.9c0.1-0.2,0.3-0.2,0.3,0l0.3,0.9
				l0.1,0.3l1.3,0C-11.6,15-11.5,15.2-11.7,15.3z M-13.2,9.1l0.1,0.3l1.3,0c0.2,0,0.2,0.2,0.1,0.3l-1.1,0.8l0.4,1.3
				c0.1,0.2-0.1,0.3-0.3,0.2l-1.1-0.8l-1.1,0.8c-0.1,0.1-0.3,0-0.3-0.2l0.4-1.3l-1.1-0.8c-0.1-0.1-0.1-0.3,0.1-0.3l1.3,0l0.1-0.3
				l0.1-0.5l0.2-0.5c0.1-0.2,0.3-0.2,0.3,0l0.2,0.5L-13.2,9.1z"/>
		</g>
	</g>
	<g class="st1">
		<g class="st7">
			
				<image style="overflow:visible;" width="92" height="92" xlink:href="C75A2279.png"  transform="matrix(1 0 0 1 -23.7604 -38.8747)">
			</image>
		</g>
		<circle class="st8" cx="22.2" cy="7.1" r="10"/>
		<path class="st14" d="M26.8,5.7l-3.2,0l-0.2-0.7l-0.8-2.3c-0.1-0.4-0.7-0.4-0.8,0l-0.8,2.3l-0.2,0.7l-3.2,0
			c-0.4,0-0.6,0.5-0.3,0.8L20,8.3l-1,3c-0.1,0.4,0.3,0.7,0.7,0.5l2.6-1.8l2.6,1.8c0.3,0.2,0.8-0.1,0.7-0.5l-1-3l2.5-1.9
			C27.4,6.2,27.2,5.7,26.8,5.7z"/>
	</g>
</g>
<g id="icon4" class="st0">
	<g id="_x34_" class="st1">
		<g>
			<g id="head">
				<g>
					<path class="st2" d="M10.8,7.2c-0.3,0-0.7-0.3-1-0.6C9.4,6.3,9.2,5.8,9,5.3C8.9,5.1,8.9,4.9,8.8,4.7L8.7,4.6
						c0-0.1-0.1-0.2-0.1-0.4c0-0.1,0-0.2-0.1-0.3C8.5,3.3,8.2,2.9,7.8,2.6C7.4,2.3,7,2.2,6.6,2.2c-0.5,0-0.9,0.2-1.3,0.3
						C5.2,2.6,5.1,2.6,5,2.7C4.5,2.8,4.1,2.9,3.8,3C3,3.1,2.1,3.2,1.4,3.2C0.5,3.2-0.3,3.1-1.1,3C-1.6,2.9-2,2.8-2.3,2.7
						c-0.1,0-0.3-0.1-0.4-0.2c-0.6-0.2-1.5-0.6-2.4,0.1C-5.6,2.9-5.9,3.3-6,3.8C-6,3.9-6,4.1-6,4.2c0,0.2,0,0.3-0.1,0.3
						c-0.1,0.1-0.1,0.3-0.2,0.4c0,0.1-0.1,0.2-0.1,0.4c-0.2,0.5-0.4,1-0.7,1.3c-0.3,0.3-0.8,0.6-1,0.6c-0.1-0.3-0.3-1-0.2-2.3
						c0-0.4,1-8.6,9.7-8.6s9.6,8.3,9.7,8.6C11.1,6.1,10.9,6.8,10.8,7.2z"/>
				</g>
			</g>
			<g>
				<path class="st2" d="M18.4,38.1l-2.1-10.4c0-0.1-0.8-2.5-3.4-3.3l-5.5-1.7l-1.6-1.1v-1.1c2.8-1.6,4.8-4.6,4.8-8.1
					c0.1,0,0.2,0,0.3,0c1.7,0,3.1-1.4,3.1-3.1c0-1-0.5-2-1.3-2.5c0.1-0.5,0.1-1.3,0-2.2c0-0.1-1.1-10.1-11.3-10.1S-10,4.5-10,4.6
					c-0.1,0.9-0.1,1.6,0,2.2c-0.8,0.6-1.3,1.5-1.3,2.5c0,1.7,1.4,3.1,3.1,3.1c0.1,0,0.2,0,0.3,0c0,3.5,2,6.5,4.8,8.1v1.1l-1.6,1.1
					l-5.5,1.7c-2.6,0.8-3.4,3.2-3.5,3.4l-2.1,10.3c-0.2,1,0.1,1.7,0.4,2.2c0.9,1.1,2.5,1.3,2.7,1.3h4.2l19.3,0h4.4
					c0.2,0,1.8-0.2,2.7-1.3C18.3,39.8,18.6,39.1,18.4,38.1z M6,23.8l-1.3,3.4l-2.1-0.7l2.5-3.4h0L6,23.8z M1.3,25.6l-2.8-3.8v-0.6
					c0.9,0.3,1.8,0.4,2.8,0.4s1.9-0.2,2.8-0.4v0.6L1.3,25.6z M11.9,8.4c0.2,0.3,0.3,0.6,0.3,0.9c0,0.8-0.6,1.4-1.4,1.4
					c-0.1,0-0.2,0-0.3,0v-2c0.1,0,0.2,0,0.3,0C11.2,8.8,11.5,8.7,11.9,8.4L11.9,8.4z M-8,10.7c-0.1,0-0.2,0-0.3,0
					c-0.8,0-1.4-0.6-1.4-1.4c0-0.3,0.1-0.7,0.3-0.9l0.1,0.1C-8.8,8.8-8.4,8.8-8,8.8V10.7z M-7.1,6.6c-0.3,0.3-0.8,0.6-1,0.6
					c-0.1-0.3-0.3-1-0.2-2.3c0-0.4,1-8.6,9.7-8.6s9.6,8.3,9.7,8.6c0.1,1.3-0.1,2-0.2,2.3c-0.3,0-0.7-0.3-1-0.6
					C9.4,6.3,9.2,5.8,9,5.3C8.9,5.1,8.9,4.9,8.8,4.7L8.7,4.6c0-0.1-0.1-0.2-0.1-0.4c0-0.1,0-0.2-0.1-0.3C8.5,3.3,8.2,2.9,7.8,2.6
					C7.4,2.3,7,2.2,6.6,2.2c-0.5,0-0.9,0.2-1.3,0.3C5.2,2.6,5.1,2.6,5,2.7C4.5,2.8,4.1,2.9,3.8,3C3,3.1,2.1,3.2,1.4,3.2
					C0.5,3.2-0.3,3.1-1.1,3C-1.6,2.9-2,2.8-2.3,2.7c-0.1,0-0.3-0.1-0.4-0.2c-0.6-0.2-1.5-0.6-2.4,0.1C-5.6,2.9-5.9,3.3-6,3.8
					C-6,3.9-6,4.1-6,4.2c0,0.2,0,0.3-0.1,0.3c-0.1,0.1-0.1,0.3-0.2,0.4c0,0.1-0.1,0.2-0.1,0.4C-6.6,5.8-6.8,6.3-7.1,6.6z M-6.3,12.3
					V8C-6.1,7.9-6,7.8-6,7.7C-5.5,7.2-5.1,6.5-4.9,6c0.1-0.1,0.1-0.3,0.2-0.4c0-0.1,0.1-0.2,0.2-0.4c0.1-0.3,0.1-0.5,0.2-0.7
					c0-0.1,0-0.2,0-0.3c0-0.1,0.1-0.1,0.1-0.2C-4,3.8-4,3.8-3.4,4.1C-3.2,4.1-3,4.2-2.8,4.3c0.4,0.1,0.9,0.3,1.4,0.4
					c0.9,0.1,1.8,0.2,2.8,0.2c0.9-0.1,1.8-0.1,2.7-0.3c0.4-0.1,0.8-0.2,1.4-0.4C5.7,4.2,5.8,4.1,6,4.1C6.6,3.8,6.7,3.8,6.9,4
					C6.9,4,7,4.1,7,4.1c0,0.1,0,0.2,0,0.2c0,0.2,0.1,0.5,0.2,0.8l0.1,0.1c0.1,0.2,0.2,0.4,0.3,0.7c0.3,0.6,0.6,1.3,1.1,1.8
					c0,0,0.1,0.1,0.3,0.3v4.3c0,4.2-3.4,7.6-7.6,7.6C-2.9,19.9-6.3,16.5-6.3,12.3z M-2.5,23.2L0,26.5l-2.1,0.7l-1.3-3.4L-2.5,23.2z
					 M16.6,39.2c-0.3,0.5-1.2,0.6-1.4,0.7h-3.4v-6.3c0-0.5-0.4-0.8-0.8-0.8c-0.5,0-0.8,0.4-0.8,0.8v6.3H-7.6v-6.3
					c0-0.5-0.4-0.8-0.8-0.8c-0.5,0-0.8,0.4-0.8,0.8v6.3h-3.3c-0.2,0-1.1-0.2-1.5-0.7c-0.1-0.1-0.2-0.4-0.1-0.8l2-10.2
					c0,0,0.6-1.7,2.3-2.2l4.9-1.5l1.5,4.1c0.1,0.3,0.4,0.5,0.8,0.5c0.1,0,0.2,0,0.3,0l2.8-0.9V34c0,0.5,0.4,0.8,0.8,0.8
					c0.5,0,0.8-0.4,0.8-0.8v-5.9L5,29c0.1,0,0.2,0,0.3,0c0.3,0,0.7-0.2,0.8-0.5l1.5-4.1l4.9,1.5c0.9,0.3,1.4,0.8,1.8,1.3
					c0.4,0.5,0.5,0.9,0.5,0.9l2.1,10.3C16.8,38.9,16.7,39.1,16.6,39.2z"/>
				<path class="st2" d="M11.1,41.5C11.1,41.5,11,41.5,11.1,41.5c-0.1,0-0.1,0-0.2,0H11.1z"/>
			</g>
		</g>
		<g>
			<g>
				<circle class="st2" cx="-1.4" cy="10" r="1.1"/>
			</g>
			<g>
				<circle class="st2" cx="4.1" cy="10" r="1.1"/>
			</g>
		</g>
		<g>
			<path class="st2" d="M4.2,14.7c0,1.1-1.3,2-2.9,2s-2.9-0.9-2.9-2c0-0.3,0.2-0.6,0.6-0.6c0.3,0,0.6,0.3,0.6,0.6
				c0,0.4,0.7,0.9,1.8,0.9c1,0,1.8-0.5,1.8-0.9c0-0.3,0.2-0.6,0.6-0.6C3.9,14.2,4.2,14.4,4.2,14.7z"/>
		</g>
	</g>
	<g class="st1">
		<g class="st7">
			
				<image style="overflow:visible;" width="92" height="92" xlink:href="C75A2286.png"  transform="matrix(1 0 0 1 -25.7604 -42.8747)">
			</image>
		</g>
		<circle class="st8" cx="20.2" cy="3.1" r="10"/>
		<g>
			<path class="st10" d="M16.7,1.3h-1.4c-0.2,0-0.3,0.2-0.3,0.3v6.1c0,0.2,0.2,0.3,0.3,0.3h1.4c0.2,0,0.3-0.2,0.3-0.3V1.7
				C17.1,1.5,16.9,1.3,16.7,1.3z"/>
			<path class="st10" d="M22,1.3l0.4-1c0.2-0.7,0.1-1.7-0.6-2.1c-0.2-0.1-0.5-0.2-0.8-0.1c-0.1,0-0.3,0.1-0.3,0.3
				c-0.1,0.1-0.1,0.3-0.1,0.5c-0.1,0.4-0.3,0.8-0.6,1.1c-0.5,0.5-2.2,2-2.2,2v5.4h5.7c0.8,0,1.3-0.9,0.9-1.5
				c0.5-0.3,0.6-0.9,0.3-1.4c0.5-0.3,0.6-0.9,0.3-1.4c0.8-0.5,0.5-1.7-0.4-1.9C24.5,1.3,22,1.3,22,1.3z"/>
		</g>
	</g>
</g>
<g id="cross" class="st0">
	<line class="st15" x1="6.2" y1="5.7" x2="18.2" y2="17.7"/>
	<line class="st15" x1="18.2" y1="5.7" x2="6.2" y2="17.7"/>
</g>
<g id="show_x5F_more" class="st0">
	<path class="st16" d="M15.5,10.6c0,0-0.5-0.5-0.7-0.7c-2.3-2.3-6.1-2.4-8.4,0c-2.3,2.3-2.3,6.1,0,8.5c2.3,2.3,6.1,2.3,8.5,0"/>
	<polyline class="st16" points="13.3,11.1 15.9,11.1 15.9,8.4 	"/>
</g>
<g id="burger_x5F_mob" class="st0">
	<circle class="st6" cx="16.2" cy="7.7" r="2"/>
	<circle class="st6" cx="8.2" cy="7.7" r="2"/>
	<circle class="st6" cx="16.2" cy="15.7" r="2"/>
	<circle class="st6" cx="8.2" cy="15.7" r="2"/>
</g>
<g id="skoro" class="st0">
	<path class="st6" d="M0.6,50h-39c-2.2,0-4-1.8-4-4v-8c0-2.2,1.8-4,4-4h39c2.2,0,4,1.8,4,4v8C4.6,48.2,2.8,50,0.6,50z"/>
	<text transform="matrix(1 0 0 1 -35.2282 44.8806)" class="st21 st11 st20">Скоро</text>
</g>
<g id="skoro_x5F_v_x5F_prodaje" class="st0">
	<g class="st17">
		
			<image style="overflow:visible;" width="144" height="144" xlink:href="C75A2289.png"  transform="matrix(1 0 0 1 -61.7604 -57.8747)">
		</image>
	</g>
	<circle class="st18" cx="10.2" cy="14.2" r="35.5"/>
	<g class="st1">
		<ellipse class="st19" cx="10.2" cy="-4.3" rx="8" ry="8"/>
		<line class="st19" x1="10.2" y1="-4.3" x2="10.2" y2="-12.3"/>
		<line class="st19" x1="10.2" y1="1.5" x2="10.2" y2="3.7"/>
		<line class="st19" x1="18.2" y1="-4.4" x2="16.1" y2="-4.4"/>
		<line class="st19" x1="4.4" y1="-4.4" x2="2.2" y2="-4.4"/>
		<line class="st19" x1="10.2" y1="-4.3" x2="15.9" y2="-10"/>
		<line class="st19" x1="6.1" y1="-0.2" x2="4.6" y2="1.3"/>
		<line class="st19" x1="15.9" y1="1.3" x2="14.4" y2="-0.2"/>
		<line class="st19" x1="6.1" y1="-8.5" x2="4.6" y2="-10"/>
	</g>
	<text transform="matrix(1 0 0 1 -6.2201 17.99)" class="st1"><tspan x="0" y="0" class="st10 st11 st20">Скоро</tspan><tspan x="-11.3" y="12" class="st10 st11 st20">в продаже</tspan></text>
</g>
<g id="map_x5F_pin" class="st0">
	<g class="st17">
		
			<image style="overflow:visible;" width="108" height="117" xlink:href="C75A228A.png"  transform="matrix(1 0 0 1 -43.7604 -43.8747)">
		</image>
	</g>
	<g class="st1">
		<g>
			<g>
				<g>
					<path class="st8" d="M27.4,8.9c0,13.6-14.9,26.2-15.5,26.7c-0.5,0.4-1,0.6-1.6,0.6c-0.6,0-1.1-0.2-1.6-0.6
						C8,35.1-6.9,22.5-6.9,8.9c0-9.2,7.7-16.7,17.1-16.7S27.4-0.3,27.4,8.9z"/>
				</g>
			</g>
		</g>
	</g>
	<path class="st21" d="M10.2,2.5c0.6-1.5,2.1-2.9,4.3-2.9c0,2.7-1.9,4.4-3.8,4.5C9.8,4.3,9.8,3.5,10.2,2.5z M10.6,16.7
		c-2.5,0-4.9-1.5-6.1-3.8c-1.1-2.2-0.9-4.7,0.5-6.6C5.1,6.2,5.2,6.1,5.3,6c0.6-0.7,1.4-1.1,2.3-1.2C8.3,4.7,9,5,9.7,5.2
		c0.2,0.1,0.4,0.1,0.6,0.1c0.6,0.1,1.2-0.1,1.7-0.3c0.5-0.2,1.1-0.2,1.6-0.2c1,0.1,1.9,0.6,2.6,1.5c0.1,0.2,0.2,0.3,0.3,0.5
		c-0.9,0.7-1.5,1.8-1.5,3.1s0.6,2.5,1.5,3.2C15.4,15.2,13.1,16.7,10.6,16.7z"/>
</g>
<polyline id="arrow" class="st22" points="5.2,12.2 10.2,16.2 15.2,12.2 "/>
<g id="fire_x5F_label" class="st0">
	<g class="st17">
		
			<image style="overflow:visible;" width="103" height="103" xlink:href="C75A2288.png"  transform="matrix(1 0 0 1 -40.7604 -36.8747)">
		</image>
	</g>
	<circle class="st23" cx="10.2" cy="14.2" r="15"/>
	<g id="surface1" class="st1">
		<path class="st10" d="M7.4,23.2c-2-6.6,2.2-9,2.2-9c-0.3,3.5,1.7,6.3,1.7,6.3c0.7-0.2,2.1-1.3,2.1-1.3c0,1.3-0.7,4-0.7,4
			s2.6-2,3.4-5.3c0.8-3.3-1.6-6.7-1.6-6.7c0.1,2.4-0.7,4.7-2.2,6.4c0.1-0.1,0.1-0.2,0.2-0.3c0.3-0.6,0.7-2,0.5-5.4
			c-0.4-4.7-4.7-6.7-4.7-6.7C8.7,8,7.6,8.7,5,14.2C2.4,19.7,7.4,23.2,7.4,23.2z"/>
	</g>
</g>
<g id="v_x5F_nalichii" class="st0">
	<path class="st23" d="M16.2,14.2c0,3.3-2.7,6-6,6c-3.3,0-6-2.7-6-6s2.7-6,6-6c1.6,0,3.1,0.7,4.2,1.7c0.4,0.4,0.7,0.8,0.9,1.2
		C15.9,12,16.2,13,16.2,14.2z"/>
	<g class="st1">
		<path class="st10" d="M15.4,11.1l-4.6,5.5c-0.2,0.2-0.4,0.3-0.6,0.3h0c-0.2,0-0.5-0.1-0.6-0.3l-2-3c-0.2-0.3-0.1-0.8,0.2-1
			c0.3-0.2,0.8-0.1,1,0.2l1.5,2.2l4.1-5C14.8,10.2,15.1,10.7,15.4,11.1z"/>
	</g>
</g>
<polyline id="galochka" class="st24" points="7.2,14.7 9.2,16.7 13.2,11.7 "/>
<polyline id="arrow_x5F_slide" class="st22" points="12.2,10.2 8.2,14.2 12.2,18.2 "/>
<g id="_x31_2h" class="st0">
	<circle class="st25" cx="8.2" cy="14.2" r="35"/>
	<g class="st1">
		<path class="st9" d="M-5.6,6.9c-1.3,2.3-2.1,4.4-2.1,7.3c0,8.8,7.2,16,16,16c8.8,0,16-7.2,16-16c0-8.8-7.2-16-16-16"/>
		<circle class="st9" cx="8.2" cy="14.2" r="1.5"/>
		<line class="st9" x1="8.2" y1="14.1" x2="1" y2="9.8"/>
		<line class="st9" x1="8.2" y1="2.5" x2="8.2" y2="-1.8"/>
	</g>
	<g class="st17">
		
			<image style="overflow:visible;" width="95" height="95" xlink:href="C75A228D.png"  transform="matrix(1 0 0 1 -10.7604 -56.8747)">
		</image>
	</g>
	<circle class="st23" cx="36.2" cy="-9.8" r="11"/>
	<text transform="matrix(1 0 0 1 27.6637 -6.9736)" class="st1"><tspan x="0" y="0" class="st10 st11 st20">12</tspan><tspan x="11.6" y="0" class="st10 st11" style="font-size:9px;">ч</tspan></text>
</g>
<g id="cross_1_" class="st0">
	<line class="st26" x1="2.2" y1="21.7" x2="22.2" y2="1.7"/>
	<line class="st26" x1="22.2" y1="21.7" x2="2.2" y2="1.7"/>
</g>
</svg>
