<?xml version="1.0" encoding="utf-8"?>
<!-- Generator: Adobe Illustrator 22.0.0, SVG Export Plug-In . SVG Version: 6.00 Build 0)  -->
<svg version="1.1" id="Layer_1" xmlns="http://www.w3.org/2000/svg" xmlns:xlink="http://www.w3.org/1999/xlink" x="0px" y="0px"
	 viewBox="0 0 13.9 13.9" style="enable-background:new 0 0 13.9 13.9;" xml:space="preserve">
<style type="text/css">
	.st0{display:none;}
	.st1{display:inline;}
	.st2{fill:#282D3A;}
	.st3{fill:#85888B;}
	.st4{display:none;fill:none;stroke:#FFFFFF;stroke-width:2;stroke-linecap:round;stroke-linejoin:round;stroke-miterlimit:10;}
	.st5{display:inline;fill:none;stroke:#282D3A;stroke-width:1.5;stroke-linejoin:round;stroke-miterlimit:10;}
	.st6{display:inline;fill:#282D3A;}
	.st7{opacity:0.66;}
	.st8{fill:#FF005F;}
	.st9{fill:none;stroke:#FFFFFF;stroke-width:2;stroke-linecap:round;stroke-linejoin:round;stroke-miterlimit:10;}
	.st10{fill:#FFFFFF;}
	.st11{font-family:'SFUIText-Bold';}
	.st12{font-size:12px;}
	.st13{fill:none;stroke:#282D3A;stroke-width:1.5;stroke-linecap:round;stroke-linejoin:round;stroke-miterlimit:10;}
	.st14{fill:#F5F5F5;}
	
		.st15{display:inline;fill:none;stroke:#282D3A;stroke-width:1.5;stroke-linecap:round;stroke-linejoin:round;stroke-miterlimit:10;}
	.st16{fill:none;stroke:#0096FF;stroke-width:1.5;stroke-linecap:round;stroke-linejoin:round;stroke-miterlimit:10;}
	.st17{display:inline;fill:none;stroke:#282D3A;stroke-width:2;stroke-linecap:round;stroke-linejoin:round;stroke-miterlimit:10;}
	.st18{display:none;fill:#282D3A;}
	.st19{display:inline;opacity:0.66;}
	.st20{display:inline;fill:#FF005F;}
	.st21{fill:none;stroke:#FFFFFF;stroke-width:1.5;stroke-linecap:round;stroke-linejoin:round;stroke-miterlimit:10;}
	.st22{font-size:10px;}
	.st23{display:inline;fill:#FFFFFF;}
	.st24{display:none;fill:none;stroke:#0096FF;stroke-width:2;stroke-linecap:round;stroke-linejoin:round;stroke-miterlimit:10;}
	.st25{display:inline;fill:#FF005E;}
	.st26{display:none;fill:none;stroke:#FFFFFF;stroke-width:1.5;stroke-linecap:round;stroke-linejoin:round;stroke-miterlimit:10;}
</style>
<g id="_x35_s" class="st0">
	<g class="st1">
		<path class="st2" d="M-17.4,21.6h-10c-1.1,0-2,0.9-2,2v20c0,1.1,0.9,2,2,2h10c1.1,0,2-0.9,2-2v-20C-15.4,22.5-16.3,21.6-17.4,21.6
			z M-22.4,44.6c-0.5,0-1-0.4-1-1c0-0.5,0.5-1,1-1c0.6,0,1,0.5,1,1C-21.4,44.2-21.8,44.6-22.4,44.6z M-16.9,40.6
			c0,0.4-0.2,0.7-0.5,0.9c-0.1,0.1-0.3,0.1-0.5,0.1h-9c-0.2,0-0.3,0-0.5-0.1c-0.3-0.2-0.5-0.5-0.5-0.9v-15c0-0.4,0.2-0.7,0.5-0.9
			c0.2-0.1,0.3-0.1,0.5-0.1h9c0.2,0,0.4,0,0.5,0.1c0.3,0.2,0.5,0.5,0.5,0.9V40.6z"/>
	</g>
</g>
<g id="_x36_" class="st0">
	<g class="st1">
		<path class="st2" d="M-16.7,20.8h-11c-1.1,0-2,0.9-2,2v22c0,1.1,0.9,2,2,2h11c1.1,0,2-0.9,2-2v-22C-14.7,21.7-15.6,20.8-16.7,20.8
			z M-22.2,45.8c-0.6,0-1-0.5-1-1c0-0.6,0.4-1,1-1c0.5,0,1,0.4,1,1C-21.2,45.4-21.6,45.8-22.2,45.8z M-16.2,41.8
			c0,0.4-0.2,0.7-0.5,0.9c-0.2,0.1-0.3,0.1-0.5,0.1h-10c-0.2,0-0.4,0-0.5-0.1c-0.3-0.2-0.5-0.5-0.5-0.9v-17c0-0.4,0.2-0.7,0.5-0.9
			c0.1-0.1,0.3-0.1,0.5-0.1h10c0.2,0,0.3,0,0.5,0.1c0.3,0.2,0.5,0.5,0.5,0.9V41.8z"/>
	</g>
</g>
<g id="plus" class="st0">
	<g id="_x36__2_" class="st1">
		<g>
			<path class="st2" d="M-10.6,18.8h-13.2c-1.1,0-2,0.9-2,2v1h4c0.4,0,0.8,0.1,1.1,0.3h9.5c0.2,0,0.4,0.1,0.6,0.2
				c0.3,0.2,0.4,0.5,0.4,0.8v20.2c0,0.3-0.2,0.6-0.4,0.8c-0.2,0.1-0.4,0.2-0.6,0.2h-8.6v3.5c0,0.5-0.4,1-1,1h10.2c1.1,0,2-0.9,2-2
				v-26C-8.6,19.7-9.5,18.8-10.6,18.8z M-16,46.8c-0.1,0.6-0.6,1-1.2,1c-0.6,0-1.1-0.4-1.2-1c0-0.1,0-0.1,0-0.2
				c0-0.6,0.5-1.2,1.2-1.2c0.7,0,1.2,0.5,1.2,1.2C-16,46.7-16,46.8-16,46.8z"/>
		</g>
	</g>
	<g id="_x36__1_" class="st1">
		<g>
			<path class="st2" d="M-22.8,22.8h-11c-0.3,0-0.6,0.1-0.8,0.2c-0.7,0.3-1.2,1-1.2,1.8v22c0,1.1,0.9,2,2,2h11c0.7,0,1.4-0.4,1.7-1
				c0.2-0.3,0.3-0.6,0.3-1v-22C-20.8,23.7-21.7,22.8-22.8,22.8z M-28.3,47.8c-0.5,0-1-0.5-1-1s0.5-1,1-1c0.6,0,1,0.5,1,1
				S-27.7,47.8-28.3,47.8z M-22.3,43.8c0,0.2,0,0.3-0.1,0.5c-0.1,0.2-0.2,0.3-0.4,0.4c-0.1,0.1-0.3,0.1-0.5,0.1h-10
				c-0.2,0-0.3,0-0.5-0.1c-0.3-0.2-0.5-0.5-0.5-0.9v-17c0-0.4,0.2-0.7,0.5-0.9c0.2-0.1,0.3-0.1,0.5-0.1h10c0.2,0,0.4,0,0.5,0.1
				c0.3,0.2,0.5,0.5,0.5,0.9V43.8z"/>
		</g>
	</g>
</g>
<g id="x" class="st0">
	<g class="st1">
		<path class="st2" d="M-16.2,20.8h-12c-1.1,0-2,0.9-2,2v23c0,1.1,0.9,2,2,2h12c1.1,0,2-0.9,2-2v-23C-14.2,21.7-15.1,20.8-16.2,20.8
			z M-15.2,45.8c0,0.6-0.5,1-1,1h-12c-0.6,0-1-0.4-1-1v-23c0-0.5,0.4-1,1-1h1.4v0.3c0,0.3,0.1,0.5,0.3,0.7c0.2,0.2,0.4,0.3,0.7,0.3
			h7.2c0.3,0,0.5-0.1,0.7-0.3c0.2-0.2,0.3-0.4,0.3-0.7v-0.3h1.4c0.5,0,1,0.5,1,1V45.8z"/>
	</g>
</g>
<g id="all" class="st0">
	<g id="_x35_s_1_" class="st1">
		<g>
			<path class="st2" d="M-26.2,46.9v-3h-6.5c-0.2,0-0.4,0-0.5-0.1c-0.3-0.2-0.5-0.5-0.5-0.9v-15c0-0.4,0.2-0.7,0.5-0.9
				c0.1-0.1,0.3-0.1,0.5-0.1h6.5v-3h-7c-1.1,0-2,0.9-2,2v20c0,1.1,0.9,2,2,2h8C-25.7,47.9-26.2,47.5-26.2,46.9z M-28.2,46.9
				c-0.6,0-1-0.5-1-1c0-0.6,0.4-1,1-1c0.5,0,1,0.4,1,1C-27.2,46.5-27.6,46.9-28.2,46.9z"/>
		</g>
	</g>
	<g id="x_2_" class="st1">
		<g>
			<path class="st2" d="M-11.2,20.9h-12c-1.1,0-2,0.9-2,2v23c0,0.4,0.1,0.7,0.3,1c0.3,0.6,1,1,1.7,1h12c1.1,0,2-0.9,2-2v-23
				C-9.2,21.8-10.1,20.9-11.2,20.9z M-10.2,45.9c0,0.5-0.5,1-1,1h-12c-0.6,0-1-0.5-1-1v-23c0-0.6,0.4-1,1-1h1.4v0.3
				c0,0.3,0.1,0.5,0.3,0.7c0.2,0.2,0.4,0.3,0.7,0.3h7.2c0.3,0,0.5-0.1,0.7-0.3c0.2-0.2,0.3-0.4,0.3-0.7v-0.3h1.4c0.5,0,1,0.4,1,1
				V45.9z"/>
		</g>
	</g>
</g>
<g id="x_1_" class="st0">
	<g class="st1">
		<path class="st3" d="M-16.2,21.4h-12c-1.1,0-2,0.9-2,2v23c0,1.1,0.9,2,2,2h12c1.1,0,2-0.9,2-2v-23C-14.2,22.3-15.1,21.4-16.2,21.4
			z M-15.2,46.4c0,0.5-0.5,1-1,1h-12c-0.6,0-1-0.5-1-1v-23c0-0.6,0.4-1,1-1h1.4v0.3c0,0.3,0.1,0.5,0.3,0.7c0.2,0.2,0.4,0.3,0.7,0.3
			h7.2c0.3,0,0.5-0.1,0.7-0.3c0.2-0.2,0.3-0.4,0.3-0.7v-0.3h1.4c0.5,0,1,0.4,1,1V46.4z"/>
	</g>
</g>
<circle class="st0" cx="3.1" cy="145.4" r="10"/>
<polyline class="st4" points="-0.7,86.4 2.4,88.8 7.4,81 "/>
<g id="x_3_" class="st0">
	<path class="st5" d="M66.9,149.8H47.3c-0.6,0-1-0.4-1-1v-36.6c0-0.6,0.4-1,1-1h19.6c0.6,0,1,0.4,1,1v36.6
		C67.9,149.4,67.5,149.8,66.9,149.8z"/>
	<path class="st6" d="M63.2,114.2H51c-0.6,0-1-0.4-1-1v-2.5h14.2v2.5C64.2,113.7,63.8,114.2,63.2,114.2z"/>
</g>
<g id="icon1" class="st0">
	<g class="st1">
		<g>
			<g>
				<g>
					<path class="st2" d="M6,17.3L6,17.3C6,17.3,6,17.2,6,17.3c0-0.1-0.1-0.2-0.1-0.2c0,0,0,0,0-0.1c0,0-0.1-0.1-0.1-0.1
						c-0.1,0-0.1-0.1-0.2-0.1c-0.1,0-0.1,0-0.2-0.1c0,0,0,0-0.1,0h0l-20.7-2c-0.2,0-0.3,0-0.5,0.1l-4.1,2.8l0,0
						c-0.1,0.1-0.2,0.2-0.3,0.4c0,0,0,0.1,0,0.1c0,0,0,0.1,0,0.2v33.9c0,0.4,0.3,0.7,0.7,0.7l20.6,2c0.1,0,0.1,0,0.2,0
						c0.1,0,0.1,0,0.2,0c0.1,0,0.1-0.1,0.2-0.1l4.1-2.8C5.9,51.8,6,51.6,6,51.3V17.4C6,17.4,6,17.3,6,17.3z M-15.3,16.2L3.1,18
						l-2.2,1.5l-18.4-1.8L-15.3,16.2z M0.4,53.3l-19.3-1.9V19.1L0.4,21V53.3z M4.5,50.9l-2.6,1.8v-32l2.6-1.8V50.9z"/>
					<path class="st2" d="M6,17.3C6,17.3,6,17.3,6,17.3S6,17.2,6,17.3C6,17.2,6,17.2,6,17.3z"/>
				</g>
			</g>
		</g>
		<g id="_x36__3_">
			<g>
				<path class="st2" d="M-3.7,24.1l-11.1-1c-1.1,0-2,0.9-2,2v22c0,1.1,0.9,2,1.9,2h0l11,1h0.1c1.1,0,2-0.9,2-2v-22
					C-1.8,25-2.7,24.1-3.7,24.1z M-8.9,48.6L-8.9,48.6c-0.2,0.1-0.4,0.2-0.6,0.2c-0.3,0-0.5-0.1-0.7-0.3c-0.2-0.2-0.3-0.4-0.3-0.7
					c0-0.1,0-0.2,0.1-0.3c0.1-0.4,0.5-0.7,0.9-0.7c0.5,0,0.9,0.4,1,0.8c0,0,0,0.1,0,0.2C-8.5,48.2-8.7,48.4-8.9,48.6z M-3.3,45.1
					c0,0.4-0.2,0.7-0.5,0.9C-4,46-4.1,46.1-4.3,46.1l-10-1c-0.2,0-0.4,0-0.5-0.1c-0.3-0.2-0.5-0.5-0.5-0.9v-17
					c0-0.3,0.2-0.6,0.4-0.8c0.2-0.1,0.4-0.2,0.6-0.2l10,1c0.2,0,0.3,0,0.5,0.1c0.3,0.2,0.5,0.5,0.5,0.9V45.1z"/>
			</g>
		</g>
	</g>
	<g class="st1">
		<g>
			<g>
				<path class="st2" d="M-50.3,17.2C-50.3,17.2-50.3,17.3-50.3,17.2C-50.3,17.3-50.3,17.3-50.3,17.2
					C-50.3,17.2-50.3,17.2-50.3,17.2z"/>
			</g>
			<g>
				<path class="st2" d="M-46.3,52.7l-2.6-1.8V18.9l2.6,1.8V52.7z M-24,18.1C-24,18.1-24,18.1-24,18.1c-0.1-0.2-0.2-0.4-0.3-0.5l0,0
					l-4.1-2.8c-0.2-0.1-0.3-0.1-0.5-0.1l-20.7,2h0c0,0,0,0-0.1,0c-0.1,0-0.2,0-0.2,0.1c-0.1,0-0.1,0.1-0.2,0.1
					c-0.1,0-0.1,0.1-0.1,0.1c0,0,0,0,0,0.1c0,0,0,0.1,0,0.1c0,0,0,0,0,0.1v0c0,0,0,0.1,0,0.1v33.9c0,0.3,0.1,0.5,0.3,0.6l4.1,2.8
					c0,0,0,0,0.1,0c0,0,0.1,0.1,0.1,0.1c0.1,0,0.1,0,0.2,0c0.1,0,0.1,0,0.2,0l20.6-2c0.4,0,0.7-0.4,0.7-0.7V18.3
					C-24,18.2-24,18.2-24,18.1z M-47.5,18l18.4-1.8l2.2,1.5l-18.4,1.8L-47.5,18z M-25.5,51.5l-19.2,1.9V21l19.2-1.8V51.5z"/>
			</g>
		</g>
	</g>
	<g id="x_4_" class="st1">
		<g>
			<path class="st2" d="M-29.2,21.1L-29.2,21.1l-11.9,1.1c-1.1,0-2,0.9-2,2v25c0,1.1,0.9,2,2.1,2h0l12-1.1c1.1,0,2-0.9,2-2v-25
				C-27.1,22-28,21.1-29.2,21.1z M-28.1,48.1c0,0.5-0.5,1-1,1l-12,1.1c-0.6,0-1-0.5-1-1v-25c0-0.6,0.4-1,1-1l1.4-0.1v0.5
				c0,0.2,0,0.3,0.1,0.5c0.2,0.3,0.5,0.5,0.9,0.5l7.2-0.8c0.4,0,0.8-0.3,0.9-0.6c0-0.1,0.1-0.3,0.1-0.4v-0.6l1.4-0.1
				c0.5,0,1,0.5,1,1V48.1z"/>
		</g>
	</g>
	<g class="st1">
		<g class="st7">
			
				<image style="overflow:visible;" width="92" height="92" xlink:href="4F86F21F.png"  transform="matrix(1 0 0 1 -43.0521 -32.0787)">
			</image>
		</g>
		<circle class="st8" cx="2.9" cy="13.9" r="10"/>
		<polyline class="st9" points="-0.6,15.4 2.5,17.8 7.5,10 		"/>
	</g>
</g>
<g id="icon2" class="st0">
	<g class="st1">
		<path class="st2" d="M-15.6,47.8l-0.3-0.2c-0.2-0.1-18-9.2-17.6-36.4l0-0.7l0.7-0.1c0.1,0,7.8-0.9,16.8-6.2l0.4-0.2l0.4,0.2
			c9,5.4,16.8,6.2,16.9,6.2l0.7,0.1l0,0.7c0.4,27.2-17.4,36.3-17.6,36.4L-15.6,47.8z M-32,11.9c-0.1,23.7,14,32.9,16.4,34.2
			c2.4-1.4,16.5-10.5,16.4-34.2c-2.1-0.3-8.7-1.6-16.4-6.1C-23.3,10.3-29.9,11.6-32,11.9z"/>
	</g>
	<g class="st1">
		<path class="st2" d="M-5.1,16c0.2,16.5-10.5,22.8-10.5,22.8S-26.3,32.4-26,16c0,0,4.8-0.5,10.4-3.9C-9.9,15.5-5.1,16-5.1,16z"/>
	</g>
	<g class="st1">
		<g class="st7">
			
				<image style="overflow:visible;" width="92" height="92" xlink:href="4F86F21D.png"  transform="matrix(1 0 0 1 -43.0521 -38.0787)">
			</image>
		</g>
		<circle class="st8" cx="2.9" cy="7.9" r="10"/>
		<text transform="matrix(1 0 0 1 -1.3968 11.7912)" class="st10 st11 st12">3</text>
	</g>
</g>
<g id="icon3" class="st0">
	<g class="st1">
		<g>
			<path class="st2" d="M25.3,5.9c0,0-0.1-0.1-0.1-0.1C25,5.6,24.4,5,20.6,5.4c-0.3,0-0.6,0.3-0.7,0.6c-0.1,0.1-0.2,0.3-0.5,0.4
				C18.4,6.6,8.9,6.7,7.4,6.2C7.3,6,7.2,5.9,7,5.7C6.2,5.1,5,5.2,4.7,5.3c-0.2,0-0.4,0.1-0.5,0.3c0,0-0.1,0.1-0.2,0.3
				C3.7,6.2,3.5,6.5,3.3,6.6c0-0.1,0-0.2,0-0.3c0-0.1,0-0.3,0.1-0.4c0.4-1.3-2.2-3.4-2.7-3.8c-0.8-0.5-1.4-0.7-1.9-0.6
				C-1.7,1.8-4.3,0.9-6.4,0C-6.5,0-6.6,0-6.7,0h-30c-0.4,0-0.7,0.3-0.8,0.7c0,0-0.1,0.7-0.2,1.3l0,0.1c0,0.3-0.1,0.4-0.1,0.4
				c-0.2,0.3-1,1.5-1,2.8v11.2c0,0.8,0.4,1.3,0.8,1.6c0.1,0.1,0.2,0.2,0.3,0.3c0.6,0.5,0.8,0.7,0.7,1.2c0,0,0,0.1,0,0.1
				c-0.1,1.6,1.5,3.2,2.6,4.1c0.3,0.2,0.5,0.4,0.6,0.6c0.2,0.2,0.5,0.6,0.7,0.9l0.4,0.5c1,1.3,1.6,1.9,2.3,1.7
				c0.1,0,0.2-0.1,0.3-0.1c0.8-0.2,1.1-0.2,1.4,0.1c0.9,1.1,4.2,1.8,5.3,1.9h0.8c0,0,0.1,0,0.2,0c0.7-0.1,2.6-0.4,3.6,0
				c0.2,0.1,0.4,0.2,0.4,0.3c0.1,0.5,0.3,1,0.7,1.5c0.6,1.1,1.5,1.8,1.5,1.9c0.2,0.2,0.4,0.2,0.6,0.2c0.2,0,0.4-0.2,0.5-0.4
				c0,0,0.5-0.8,0.7-1.4c0.4,0.2,0.8,0.9,1.2,2.1c0.1,0.3,0.2,0.7,0.4,1c0.4,0.9,1.1,1.7,2,2.4c0.9,0.7,1.7,1,1.7,1
				c0.2,0.1,0.5,0.1,0.7-0.1c0.2-0.1,0.3-0.4,0.3-0.6c0,0,0-0.4,0-0.9c0-0.6,0-1.4,0.1-2.1c0-0.2,0-0.4,0-0.6
				c0.1-0.6,2.5-1.6,3.4-1.8c0.2,0,1.1,0.4,1.7,0.6c2,0.8,2.8,1,3.3,0.6c0.2-0.2,0.4-0.4,0.4-0.7c0-0.2,0.8-0.8,1.2-1l0.3-0.2
				c0.1,0,0.2,0.1,0.3,0.2c0.2,0.2,0.5,0.5,0.7,0.7C4,32.6,4.3,33,4.7,33c0.1,0.4,0.3,0.8,0.4,1.3c0.2,0.6,0.3,1.2,0.4,1.7
				c0.1,0.5,0.1,0.8,0,1c0,0.4,0.1,0.8,0.4,1.4c0.3,0.6,1,1,2,1.1c0,0,0.3,0,0.7,0c0.6,0,1.4-0.1,1.7-0.4c0.3-0.3,0.5-1.1,0.5-2.4
				c0-0.5,0.1-1.5-0.1-2.3c-0.1-0.6-0.3-1.1-0.6-1.4c-0.1-0.1-0.4-0.8-0.6-2.1c-0.1-0.7-0.1-1.4,0-2c0.1-0.5,0.1-0.6,0.1-0.6
				c0.4-0.3,1.5-1.3,2.7-2.4c0.9-0.8,1.7-1.6,2.2-2.2c1.1-1.2,1.5-1.9,1.3-2.5c-0.1-0.3-0.3-0.5-0.6-0.7c-0.2-0.1-0.3-0.1-0.2-0.8
				c0-0.2,0.1-0.5,0.1-0.8c0.1-0.4,0.1-0.8,0.2-1.3c0-0.1,0-0.1,0-0.2c1,0,1.6-0.5,1.9-1.9c0.1-0.3,0.2-0.6,0.5-0.9
				c0.7-0.6,1.8-0.9,2.5-1.1c0.7-0.2,1.2-0.3,1.3-0.9c0.1-0.3-0.1-0.6-0.3-0.8c0,0,0,0-0.1-0.1c-0.1-0.4,0-1.1,0.4-1.4
				c0.1-0.1,0.3-0.3,0.5-0.4C22.6,9.6,23,9.4,23.4,9C24.8,7.9,26,6.8,25.3,5.9z M22.4,7.9c-0.4,0.3-0.7,0.6-1,0.8
				C21.2,8.9,21,9,20.8,9.2c-0.9,0.7-1.1,2.1-0.9,3c-0.9,0.2-2.1,0.6-3,1.4c-0.5,0.5-0.8,1.1-1,1.7c-0.1,0.6-0.2,0.7-0.2,0.7h-0.2
				c-0.6,0-1.4,0.1-1.6,1.6c0,0.4-0.1,0.8-0.2,1.2c-0.1,0.3-0.1,0.6-0.1,0.9c0,0.5-0.1,1.4,0.7,2c-0.1,0.2-0.4,0.5-0.8,1
				c-0.5,0.6-1.2,1.3-2.1,2.1c-1.2,1.1-2.3,2-2.7,2.3c-0.4,0.3-0.6,0.8-0.7,1.6C8,29.3,8,30.2,8.1,31c0.1,0.8,0.4,2.3,1,2.9
				c0,0,0.1,0.1,0.2,0.6c0.1,0.5,0.1,1.2,0.1,2c0,0.7-0.1,1.2-0.2,1.4c-0.6,0.1-1.7,0-1.9-0.3C7.1,37.3,7,37.1,7,37.1
				c0-0.4,0-0.8,0-1.4c-0.1-0.5-0.2-1.2-0.4-1.8c-0.7-2.7-1.3-2.6-1.6-2.6c0,0-0.1,0-0.1,0c0,0,0,0-0.1-0.1C4.6,31,4.3,30.6,4,30.4
				c-1-0.9-1.7-0.6-2.1-0.4l-0.4,0.3c-0.6,0.4-1.3,0.9-1.6,1.5c-0.5-0.1-1.3-0.4-1.8-0.6c-1.5-0.6-2-0.7-2.4-0.7
				c0,0-4.6,1.1-4.7,3.2c0,0.2,0,0.4,0,0.6c0,0.6,0,1.3,0,1.9c-0.1-0.1-0.3-0.2-0.4-0.3c-0.7-0.6-1.3-1.2-1.6-1.9
				c-0.1-0.2-0.2-0.5-0.3-0.7c-0.4-1.5-1.1-2.6-1.9-3.1c-0.6-0.4-1.3-0.3-1.8,0.1c-0.1,0.1-0.2,0.2-0.2,0.3
				c-0.1,0.2-0.2,0.4-0.3,0.6c-0.2-0.2-0.4-0.5-0.6-0.8c-0.3-0.4-0.4-0.8-0.5-1.1c-0.1-0.4-0.4-1-1.3-1.3c-1.3-0.5-3.4-0.2-4.3,0
				H-23c-1.5-0.2-3.9-0.9-4.2-1.4c-0.9-1.1-2.2-0.8-2.9-0.7c0,0-0.1,0-0.1,0c-0.1-0.1-0.4-0.4-1-1.2l-0.4-0.5
				c-0.3-0.4-0.6-0.8-0.8-1c-0.2-0.2-0.4-0.4-0.8-0.7c-0.7-0.7-2.1-1.9-2-2.9c0.2-1.3-0.7-2-1.3-2.5c-0.1-0.1-0.2-0.1-0.3-0.2l0,0
				c-0.3-0.3-0.3-0.4-0.3-0.5V5.3c0-1,0.7-2,0.7-2c0,0,0-0.1,0-0.1c0.1-0.2,0.2-0.4,0.2-0.8l0-0.2c0-0.2,0.1-0.5,0.1-0.7h2.1
				l0.2-0.5c0-0.2,0.3-0.2,0.3,0l0.2,0.5h4.9l0.2-0.5c0.1-0.2,0.3-0.2,0.3,0l0.2,0.5h4.9l0.2-0.5c0.1-0.2,0.3-0.2,0.3,0l0.2,0.5h4.8
				l0.2-0.5c0.1-0.2,0.3-0.2,0.3,0l0.2,0.5h9.8c2.3,0.9,5,1.9,6.1,1.7c0.1,0,0.3,0.1,0.6,0.3c1,0.7,1.9,1.8,2.1,2.2
				c0,0.2-0.1,0.4-0.1,0.5c-0.1,0.5,0,1.4,0.5,1.9C2.6,8.4,3,8.4,3.4,8.3c0.2-0.1,0.8-0.3,1.8-1.5c0,0,0,0,0,0c0.3,0,0.7,0,0.8,0.2
				c0.6,1.9,13.7,1,13.8,0.9c0.7-0.2,1.1-0.7,1.3-1c0.9-0.1,1.9-0.1,2.5,0C23.4,7,23,7.4,22.4,7.9z"/>
		</g>
		<g>
			<g>
				<line class="st13" x1="-12" y1="33.4" x2="-8.4" y2="33.4"/>
				<line class="st13" x1="5.9" y1="33.4" x2="9.6" y2="33.4"/>
				<line class="st13" x1="-30.5" y1="26.5" x2="10.4" y2="26.5"/>
				<line class="st13" x1="-35.5" y1="19.6" x2="14" y2="19.6"/>
				<line class="st13" x1="-13.5" y1="12.7" x2="20" y2="12.7"/>
				<line class="st13" x1="-13.5" y1="5.8" x2="2" y2="5.8"/>
			</g>
		</g>
		<g>
			<path class="st2" d="M-36.6,0.7l-1.5,4.5l0.3,11.8h24.4c0.8,0,1.5-0.7,1.5-1.5V0.7H-36.6z M-31.5,13.6l-1.1,0.8l0.4,1.3
				c0,0.2-0.1,0.3-0.3,0.2l-1.1-0.8l-1.1,0.8c-0.1,0.1-0.3,0-0.3-0.2l0.4-1.3l-1-0.8c-0.1-0.1-0.1-0.3,0.1-0.3l1.3,0L-34,13l0.3-1
				c0-0.2,0.3-0.2,0.3,0l0.3,1l0.1,0.3l1.3,0C-31.5,13.3-31.4,13.5-31.5,13.6z M-31.5,8.1l-1.1,0.8l0.4,1.3c0,0.2-0.1,0.3-0.3,0.2
				l-1.1-0.8l-1.1,0.8c-0.1,0.1-0.3,0-0.3-0.2l0.4-1.3l-1-0.8c-0.1-0.1-0.1-0.3,0.1-0.3l1.3,0l0.1-0.3l0.3-0.9c0-0.2,0.3-0.2,0.3,0
				l0.3,0.9l0.1,0.3l1.3,0C-31.5,7.8-31.4,8-31.5,8.1z M-31.5,2.5l-1.1,0.8l0.4,1.3c0,0.2-0.1,0.3-0.3,0.2L-33.5,4l-1.1,0.8
				c-0.1,0.1-0.3,0-0.3-0.2l0.4-1.3l-1-0.8c-0.1-0.1-0.1-0.3,0.1-0.3l1.3,0l0.1-0.3l0.2-0.5l0.2-0.5c0-0.2,0.3-0.2,0.3,0l0.2,0.5
				l0.1,0.5l0.1,0.3l1.3,0C-31.5,2.2-31.4,2.4-31.5,2.5z M-26,13.6l-1.1,0.8l0.4,1.3c0.1,0.2-0.1,0.3-0.3,0.2l-1.1-0.8l-1.1,0.8
				c-0.1,0.1-0.3,0-0.3-0.2l0.4-1.3l-1.1-0.8c-0.1-0.1-0.1-0.3,0.1-0.3l1.3,0l0.1-0.3l0.3-1c0.1-0.2,0.3-0.2,0.3,0l0.3,1l0.1,0.3
				l1.3,0C-25.9,13.3-25.9,13.5-26,13.6z M-26,8.1l-1.1,0.8l0.4,1.3c0.1,0.2-0.1,0.3-0.3,0.2L-28,9.5l-1.1,0.8
				c-0.1,0.1-0.3,0-0.3-0.2l0.4-1.3L-30,8.1c-0.1-0.1-0.1-0.3,0.1-0.3l1.3,0l0.1-0.3l0.3-0.9c0.1-0.2,0.3-0.2,0.3,0l0.3,0.9l0.1,0.3
				l1.3,0C-25.9,7.8-25.9,8-26,8.1z M-26,2.5l-1.1,0.8l0.4,1.3c0.1,0.2-0.1,0.3-0.3,0.2L-28,4l-1.1,0.8c-0.1,0.1-0.3,0-0.3-0.2
				l0.4-1.3L-30,2.5c-0.1-0.1-0.1-0.3,0.1-0.3l1.3,0l0.1-0.3l0.2-0.5l0.2-0.5c0.1-0.2,0.3-0.2,0.3,0l0.2,0.5l0.2,0.5l0.1,0.3l1.3,0
				C-25.9,2.2-25.9,2.4-26,2.5z M-20.5,13.6l-1,0.8l0.4,1.3c0,0.2-0.1,0.3-0.3,0.2l-1.1-0.8l-1.1,0.8c-0.1,0.1-0.3,0-0.3-0.2
				l0.4-1.3l-1.1-0.8c-0.1-0.1-0.1-0.3,0.1-0.3l1.3,0L-23,13l0.3-1c0.1-0.2,0.3-0.2,0.3,0l0.3,1l0.1,0.3l1.3,0
				C-20.4,13.3-20.3,13.5-20.5,13.6z M-20.5,8.1l-1,0.8l0.4,1.3c0,0.2-0.1,0.3-0.3,0.2l-1.1-0.8l-1.1,0.8c-0.1,0.1-0.3,0-0.3-0.2
				l0.4-1.3l-1.1-0.8c-0.1-0.1-0.1-0.3,0.1-0.3l1.3,0l0.1-0.3l0.3-0.9c0.1-0.2,0.3-0.2,0.3,0l0.3,0.9l0.1,0.3l1.3,0
				C-20.4,7.8-20.3,8-20.5,8.1z M-20.5,2.5l-1,0.8l0.4,1.3c0,0.2-0.1,0.3-0.3,0.2L-22.5,4l-1.1,0.8c-0.1,0.1-0.3,0-0.3-0.2l0.4-1.3
				l-1.1-0.8c-0.1-0.1-0.1-0.3,0.1-0.3l1.3,0l0.1-0.3l0.2-0.5l0.2-0.5c0.1-0.2,0.3-0.2,0.3,0l0.2,0.5l0.1,0.5l0.1,0.3l1.3,0
				C-20.4,2.2-20.3,2.4-20.5,2.5z M-15,13.6l-1.1,0.8l0.4,1.3c0.1,0.2-0.1,0.3-0.3,0.2l-1.1-0.8l-1.1,0.8c-0.1,0.1-0.3,0-0.3-0.2
				l0.4-1.3l-1.1-0.8c-0.1-0.1-0.1-0.3,0.1-0.3l1.3,0l0.1-0.3l0.3-1c0.1-0.2,0.3-0.2,0.3,0l0.3,1l0.1,0.3l1.3,0
				C-14.9,13.3-14.8,13.5-15,13.6z M-15,8.1L-16,8.9l0.4,1.3c0.1,0.2-0.1,0.3-0.3,0.2L-17,9.5l-1.1,0.8c-0.1,0.1-0.3,0-0.3-0.2
				l0.4-1.3L-19,8.1C-19.1,8-19,7.8-18.9,7.8l1.3,0l0.1-0.3l0.3-0.9c0.1-0.2,0.3-0.2,0.3,0l0.3,0.9l0.1,0.3l1.3,0
				C-14.9,7.8-14.8,8-15,8.1z M-16.5,1.9l0.1,0.3l1.3,0c0.2,0,0.2,0.2,0.1,0.3L-16,3.3l0.4,1.3c0.1,0.2-0.1,0.3-0.3,0.2L-17,4
				L-18,4.8c-0.1,0.1-0.3,0-0.3-0.2l0.4-1.3L-19,2.5c-0.1-0.1-0.1-0.3,0.1-0.3l1.3,0l0.1-0.3l0.1-0.5l0.2-0.5c0.1-0.2,0.3-0.2,0.3,0
				l0.2,0.5L-16.5,1.9z"/>
		</g>
	</g>
	<g class="st1">
		<g class="st7">
			
				<image style="overflow:visible;" width="92" height="92" xlink:href="4F86F223.png"  transform="matrix(1 0 0 1 -27.0521 -46.0787)">
			</image>
		</g>
		<circle class="st8" cx="18.9" cy="-0.1" r="10"/>
		<path class="st14" d="M23.5-1.5l-3.2,0l-0.2-0.7l-0.8-2.3c-0.1-0.4-0.7-0.4-0.8,0l-0.8,2.3l-0.2,0.7l-3.2,0
			c-0.4,0-0.6,0.5-0.3,0.8l2.5,1.9l-1,3c-0.1,0.4,0.3,0.7,0.7,0.5l2.6-1.8l2.6,1.8c0.3,0.2,0.8-0.1,0.7-0.5l-1-3l2.5-1.9
			C24.1-1,23.9-1.5,23.5-1.5z"/>
	</g>
</g>
<g id="icon4" class="st0">
	<g id="_x34_" class="st1">
		<g>
			<g id="head">
				<g>
					<path class="st2" d="M7.5-0.1c-0.3,0-0.7-0.3-1-0.6C6.2-0.9,5.9-1.4,5.7-1.9C5.6-2.1,5.6-2.3,5.5-2.5L5.4-2.6
						c0-0.1-0.1-0.2-0.1-0.4c0-0.1,0-0.2-0.1-0.3C5.2-3.9,4.9-4.3,4.5-4.6C4.1-4.9,3.7-5,3.3-5C2.9-5,2.4-4.8,2.1-4.7
						C1.9-4.6,1.8-4.6,1.7-4.5C1.2-4.4,0.8-4.3,0.5-4.2C-0.3-4.1-1.2-4-1.9-4c-0.9,0-1.7-0.1-2.5-0.2c-0.4-0.1-0.8-0.2-1.2-0.3
						c-0.1,0-0.3-0.1-0.4-0.2c-0.6-0.2-1.5-0.6-2.4,0.1c-0.4,0.3-0.7,0.7-0.8,1.2c0,0.1,0,0.3-0.1,0.4c0,0.2,0,0.3-0.1,0.3
						c-0.1,0.1-0.1,0.3-0.2,0.4c0,0.1-0.1,0.2-0.1,0.4c-0.2,0.5-0.4,1-0.7,1.3c-0.3,0.3-0.8,0.6-1,0.6c-0.1-0.3-0.3-1-0.2-2.3
						c0-0.4,1-8.6,9.7-8.6s9.6,8.3,9.7,8.6C7.8-1.1,7.6-0.4,7.5-0.1z"/>
				</g>
			</g>
			<g>
				<path class="st2" d="M15.1,30.9L13,20.5c0-0.1-0.8-2.5-3.4-3.3l-5.5-1.7l-1.6-1.1v-1.1c2.8-1.6,4.8-4.6,4.8-8.1
					c0.1,0,0.2,0,0.3,0c1.7,0,3.1-1.4,3.1-3.1c0-1-0.5-2-1.3-2.5c0.1-0.5,0.1-1.3,0-2.2C9.3-2.7,8.2-12.7-2-12.7s-11.3,10-11.3,10.1
					c-0.1,0.9-0.1,1.6,0,2.2c-0.8,0.6-1.3,1.5-1.3,2.5c0,1.7,1.4,3.1,3.1,3.1c0.1,0,0.2,0,0.3,0c0,3.5,2,6.5,4.8,8.1v1.1L-8,15.5
					l-5.5,1.7c-2.6,0.8-3.4,3.2-3.5,3.4l-2.1,10.3c-0.2,1,0.1,1.7,0.4,2.2c0.9,1.1,2.5,1.3,2.7,1.3h4.2l19.3,0H12
					c0.2,0,1.8-0.2,2.7-1.3C15,32.6,15.3,31.9,15.1,30.9z M2.7,16.6L1.4,20l-2.1-0.7L1.8,16h0L2.7,16.6z M-2,18.4l-2.8-3.8V14
					c0.9,0.3,1.8,0.4,2.8,0.4s1.9-0.2,2.8-0.4v0.6L-2,18.4z M8.6,1.2C8.8,1.5,9,1.8,9,2.1c0,0.8-0.6,1.4-1.4,1.4c-0.1,0-0.2,0-0.3,0
					v-2c0.1,0,0.2,0,0.3,0C7.9,1.6,8.2,1.5,8.6,1.2L8.6,1.2z M-11.3,3.5c-0.1,0-0.2,0-0.3,0c-0.8,0-1.4-0.6-1.4-1.4
					c0-0.3,0.1-0.7,0.3-0.9l0.1,0.1c0.4,0.3,0.9,0.4,1.3,0.3V3.5z M-10.4-0.6c-0.3,0.3-0.8,0.6-1,0.6c-0.1-0.3-0.3-1-0.2-2.3
					c0-0.4,1-8.6,9.7-8.6s9.6,8.3,9.7,8.6c0.1,1.3-0.1,2-0.2,2.3c-0.3,0-0.7-0.3-1-0.6C6.2-0.9,5.9-1.4,5.7-1.9
					C5.6-2.1,5.6-2.3,5.5-2.5L5.4-2.6c0-0.1-0.1-0.2-0.1-0.4c0-0.1,0-0.2-0.1-0.3C5.2-3.9,4.9-4.3,4.5-4.6C4.1-4.9,3.7-5,3.3-5
					C2.9-5,2.4-4.8,2.1-4.7C1.9-4.6,1.8-4.6,1.7-4.5C1.2-4.4,0.8-4.3,0.5-4.2C-0.3-4.1-1.2-4-1.9-4c-0.9,0-1.7-0.1-2.5-0.2
					c-0.4-0.1-0.8-0.2-1.2-0.3c-0.1,0-0.3-0.1-0.4-0.2c-0.6-0.2-1.5-0.6-2.4,0.1c-0.4,0.3-0.7,0.7-0.8,1.2c0,0.1,0,0.3-0.1,0.4
					c0,0.2,0,0.3-0.1,0.3c-0.1,0.1-0.1,0.3-0.2,0.4c0,0.1-0.1,0.2-0.1,0.4C-9.9-1.4-10.1-0.9-10.4-0.6z M-9.6,5.1V0.8
					c0.2-0.1,0.3-0.2,0.3-0.3C-8.8,0-8.4-0.7-8.2-1.2C-8.1-1.4-8.1-1.5-8-1.7c0-0.1,0.1-0.2,0.2-0.4c0.1-0.3,0.1-0.5,0.2-0.7
					c0-0.1,0-0.2,0-0.3c0-0.1,0.1-0.1,0.1-0.2c0.2-0.1,0.3-0.1,0.8,0.1C-6.5-3.1-6.3-3-6.1-2.9c0.4,0.1,0.9,0.3,1.4,0.4
					c0.9,0.1,1.8,0.2,2.8,0.2c0.9-0.1,1.8-0.1,2.7-0.3c0.4-0.1,0.8-0.2,1.4-0.4C2.4-3,2.6-3.1,2.7-3.2c0.6-0.2,0.7-0.2,0.8-0.1
					c0.1,0,0.1,0.1,0.1,0.2c0,0.1,0,0.2,0,0.2c0,0.2,0.1,0.5,0.2,0.8L4-1.9C4-1.7,4.1-1.5,4.2-1.3C4.5-0.6,4.8,0,5.3,0.6
					c0,0,0.1,0.1,0.3,0.3v4.3c0,4.2-3.4,7.6-7.6,7.6C-6.2,12.7-9.6,9.3-9.6,5.1z M-5.8,16l2.5,3.3L-5.4,20l-1.3-3.4L-5.8,16z
					 M13.3,32c-0.3,0.5-1.2,0.6-1.4,0.7H8.5v-6.3c0-0.5-0.4-0.8-0.8-0.8c-0.5,0-0.8,0.4-0.8,0.8v6.3h-17.7v-6.3
					c0-0.5-0.4-0.8-0.8-0.8c-0.5,0-0.8,0.4-0.8,0.8v6.3h-3.3c-0.2,0-1.1-0.2-1.5-0.7c-0.1-0.1-0.2-0.4-0.1-0.8l2-10.2
					c0,0,0.6-1.7,2.3-2.2l4.9-1.5l1.5,4.1c0.1,0.3,0.4,0.5,0.8,0.5c0.1,0,0.2,0,0.3,0l2.8-0.9v5.9c0,0.5,0.4,0.8,0.8,0.8
					c0.5,0,0.8-0.4,0.8-0.8v-5.9l2.8,0.9c0.1,0,0.2,0,0.3,0c0.3,0,0.7-0.2,0.8-0.5l1.5-4.1l4.9,1.5c0.9,0.3,1.4,0.8,1.8,1.3
					c0.4,0.5,0.5,0.9,0.5,0.9l2.1,10.3C13.6,31.7,13.4,31.9,13.3,32z"/>
				<path class="st2" d="M7.8,34.3C7.8,34.3,7.7,34.3,7.8,34.3c-0.1,0-0.1,0-0.2,0H7.8z"/>
			</g>
		</g>
		<g>
			<g>
				<circle class="st2" cx="-4.7" cy="2.8" r="1.1"/>
			</g>
			<g>
				<circle class="st2" cx="0.8" cy="2.8" r="1.1"/>
			</g>
		</g>
		<g>
			<path class="st2" d="M0.9,7.5c0,1.1-1.3,2-2.9,2s-2.9-0.9-2.9-2C-4.8,7.2-4.6,7-4.3,7C-4,7-3.7,7.2-3.7,7.5C-3.7,7.9-3,8.4-2,8.4
				c1,0,1.8-0.5,1.8-0.9C-0.2,7.2,0,7,0.3,7C0.6,7,0.9,7.2,0.9,7.5z"/>
		</g>
	</g>
	<g class="st1">
		<g class="st7">
			
				<image style="overflow:visible;" width="92" height="92" xlink:href="4F86F225.png"  transform="matrix(1 0 0 1 -29.0521 -50.0787)">
			</image>
		</g>
		<circle class="st8" cx="16.9" cy="-4.1" r="10"/>
		<g>
			<path class="st10" d="M13.4-5.9h-1.4c-0.2,0-0.3,0.2-0.3,0.3v6.1c0,0.2,0.2,0.3,0.3,0.3h1.4c0.2,0,0.3-0.2,0.3-0.3v-6.1
				C13.8-5.7,13.6-5.9,13.4-5.9z"/>
			<path class="st10" d="M18.7-5.9l0.4-1c0.2-0.7,0.1-1.7-0.6-2.1c-0.2-0.1-0.5-0.2-0.8-0.1c-0.1,0-0.3,0.1-0.3,0.3
				c-0.1,0.1-0.1,0.3-0.1,0.5c-0.1,0.4-0.3,0.8-0.6,1.1c-0.5,0.5-2.2,2-2.2,2v5.4h5.7c0.8,0,1.3-0.9,0.9-1.5
				c0.5-0.3,0.6-0.9,0.3-1.4C21.8-2.9,22-3.5,21.7-4c0.8-0.5,0.5-1.7-0.4-1.9C21.3-5.9,18.7-5.9,18.7-5.9z"/>
		</g>
	</g>
</g>
<g class="st0">
	<line class="st15" x1="170" y1="-27" x2="179.9" y2="-17.1"/>
	<line class="st15" x1="179.9" y1="-27" x2="170" y2="-17.1"/>
</g>
<g id="show_x5F_more">
	<path class="st16" d="M12.2,3.4c0,0-0.5-0.5-0.7-0.7C9.1,0.4,5.4,0.4,3,2.7C0.7,5,0.7,8.8,3,11.2c2.3,2.3,6.1,2.3,8.5,0"/>
	<polyline class="st16" points="10,3.9 12.6,3.9 12.6,1.2 	"/>
</g>
<g class="st0">
	<line class="st17" x1="105.9" y1="-12.1" x2="125.9" y2="-12.1"/>
	<line class="st17" x1="105.9" y1="-6.1" x2="125.9" y2="-6.1"/>
	<line class="st17" x1="105.9" y1="-0.1" x2="125.9" y2="-0.1"/>
</g>
<circle class="st18" cx="88.4" cy="-12.6" r="2"/>
<circle class="st18" cx="80.4" cy="-12.6" r="2"/>
<circle class="st18" cx="88.4" cy="-4.6" r="2"/>
<circle class="st18" cx="80.4" cy="-4.6" r="2"/>
<g id="skoro" class="st0">
	<path class="st6" d="M-2.7,42.8h-39c-2.2,0-4-1.8-4-4v-8c0-2.2,1.8-4,4-4h39c2.2,0,4,1.8,4,4v8C1.3,41-0.5,42.8-2.7,42.8z"/>
	<text transform="matrix(1 0 0 1 -38.5199 37.6766)" class="st23 st11 st22">Скоро</text>
</g>
<g id="skoro_x5F_v_x5F_prodaje" class="st0">
	<g class="st19">
		
			<image style="overflow:visible;" width="144" height="144" xlink:href="4F86F227.png"  transform="matrix(1 0 0 1 -65.0521 -65.0787)">
		</image>
	</g>
	<circle class="st20" cx="7" cy="7" r="35.5"/>
	<g class="st1">
		<ellipse class="st21" cx="7" cy="-11.5" rx="8" ry="8"/>
		<line class="st21" x1="7" y1="-11.5" x2="7" y2="-19.5"/>
		<line class="st21" x1="7" y1="-5.7" x2="7" y2="-3.5"/>
		<line class="st21" x1="15" y1="-11.6" x2="12.8" y2="-11.6"/>
		<line class="st21" x1="1.1" y1="-11.6" x2="-1" y2="-11.6"/>
		<line class="st21" x1="7" y1="-11.5" x2="12.6" y2="-17.2"/>
		<line class="st21" x1="2.8" y1="-7.4" x2="1.3" y2="-5.9"/>
		<line class="st21" x1="12.6" y1="-5.9" x2="11.1" y2="-7.4"/>
		<line class="st21" x1="2.8" y1="-15.7" x2="1.3" y2="-17.2"/>
	</g>
	<text transform="matrix(1 0 0 1 -9.5117 10.7861)" class="st1"><tspan x="0" y="0" class="st10 st11 st22">Скоро</tspan><tspan x="-11.3" y="12" class="st10 st11 st22">в продаже</tspan></text>
</g>
<g id="map_x5F_pin" class="st0">
	<g class="st19">
		
			<image style="overflow:visible;" width="108" height="117" xlink:href="4F86F224.png"  transform="matrix(1 0 0 1 -47.0521 -51.0787)">
		</image>
	</g>
	<g class="st1">
		<g>
			<g>
				<g>
					<path class="st8" d="M24.1,1.7c0,13.6-14.9,26.2-15.5,26.7C8.1,28.8,7.5,29,7,29s-1.1-0.2-1.6-0.6C4.8,27.9-10.2,15.3-10.2,1.7
						C-10.2-7.5-2.5-15,7-15S24.1-7.5,24.1,1.7z"/>
				</g>
			</g>
		</g>
	</g>
	<path class="st23" d="M6.9-4.7C7.5-6.2,9-7.5,11.3-7.5c0,2.7-1.9,4.4-3.8,4.5C6.5-2.9,6.5-3.7,6.9-4.7z M7.4,9.5
		c-2.5,0-4.9-1.5-6.1-3.8C0.2,3.4,0.3,1,1.8-0.9C1.8-1,1.9-1.1,2-1.2c0.6-0.7,1.4-1.1,2.3-1.2C5-2.5,5.7-2.2,6.5-2
		C6.7-2,6.8-2,7-1.9C7.6-1.9,8.2-2,8.8-2.2c0.5-0.2,1.1-0.2,1.6-0.2c1,0.1,1.9,0.6,2.6,1.5c0.1,0.2,0.2,0.3,0.3,0.5
		c-0.9,0.7-1.5,1.8-1.5,3.1s0.6,2.5,1.5,3.2C12.1,8,9.8,9.5,7.4,9.5z"/>
</g>
<polyline id="arrow" class="st24" points="2,5 7,9 12,5 "/>
<g id="fire_x5F_label" class="st0">
	<g class="st19">
		
			<image style="overflow:visible;" width="103" height="103" xlink:href="4F86F22C.png"  transform="matrix(1 0 0 1 -44.0521 -44.0787)">
		</image>
	</g>
	<circle class="st25" cx="7" cy="7" r="15"/>
	<g id="surface1" class="st1">
		<path class="st10" d="M4.1,16c-2-6.6,2.2-9,2.2-9C6,10.5,8,13.2,8,13.2C8.7,13,10.1,12,10.1,12c0,1.3-0.7,4-0.7,4s2.6-2,3.4-5.3
			c0.8-3.3-1.6-6.7-1.6-6.7c0.1,2.4-0.7,4.7-2.2,6.4c0.1-0.1,0.1-0.2,0.2-0.3c0.3-0.6,0.7-2,0.5-5.4C9.3,0,5-2,5-2
			c0.4,2.9-0.7,3.6-3.3,9C-0.9,12.5,4.1,16,4.1,16z"/>
	</g>
</g>
<g id="v_x5F_nalichii" class="st0">
	<path class="st25" d="M13,7c0,3.3-2.7,6-6,6c-3.3,0-6-2.7-6-6s2.7-6,6-6c1.6,0,3.1,0.7,4.2,1.7c0.4,0.4,0.7,0.8,0.9,1.2
		C12.7,4.8,13,5.8,13,7z"/>
	<g class="st1">
		<path class="st10" d="M12.1,3.9L7.5,9.4C7.4,9.6,7.2,9.7,6.9,9.7h0c-0.2,0-0.5-0.1-0.6-0.3l-2-3C4.1,6,4.2,5.5,4.5,5.3
			c0.3-0.2,0.8-0.1,1,0.2L7,7.7l4.1-5C11.5,3,11.9,3.5,12.1,3.9z"/>
	</g>
</g>
<polyline id="galochka" class="st26" points="4,7.5 6,9.5 10,4.5 "/>
</svg>
