<?xml version="1.0" encoding="utf-8"?>
<!-- Generator: Adobe Illustrator 22.0.0, SVG Export Plug-In . SVG Version: 6.00 Build 0)  -->
<svg version="1.1" id="Layer_1" xmlns="http://www.w3.org/2000/svg" xmlns:xlink="http://www.w3.org/1999/xlink" x="0px" y="0px"
	 viewBox="0 0 94.7 97.8" style="enable-background:new 0 0 94.7 97.8;" xml:space="preserve">
<style type="text/css">
	.st0{display:none;}
	.st1{display:inline;}
	.st2{fill:#282D3A;}
	.st3{fill:#85888B;}
	.st4{display:none;fill:none;stroke:#FFFFFF;stroke-width:2;stroke-linecap:round;stroke-linejoin:round;stroke-miterlimit:10;}
	.st5{display:inline;fill:none;stroke:#282D3A;stroke-width:1.5;stroke-linejoin:round;stroke-miterlimit:10;}
	.st6{display:inline;fill:#282D3A;}
	.st7{opacity:0.66;}
	.st8{fill:#FF005F;}
	.st9{fill:none;stroke:#FFFFFF;stroke-width:2;stroke-linecap:round;stroke-linejoin:round;stroke-miterlimit:10;}
	.st10{fill:#FFFFFF;}
	.st11{font-family:'SFUIText-Bold';}
	.st12{font-size:12px;}
	.st13{fill:none;stroke:#282D3A;stroke-width:1.5;stroke-linecap:round;stroke-linejoin:round;stroke-miterlimit:10;}
	.st14{fill:#F5F5F5;}
	
		.st15{display:inline;fill:none;stroke:#282D3A;stroke-width:1.5;stroke-linecap:round;stroke-linejoin:round;stroke-miterlimit:10;}
	
		.st16{display:inline;fill:none;stroke:#000000;stroke-width:1.5;stroke-linecap:round;stroke-linejoin:round;stroke-miterlimit:10;}
	.st17{display:inline;fill:none;stroke:#282D3A;stroke-width:2;stroke-linecap:round;stroke-linejoin:round;stroke-miterlimit:10;}
	.st18{display:none;fill:#282D3A;}
	.st19{display:inline;fill:#FFFFFF;}
	.st20{font-size:10px;}
	.st21{fill:none;stroke:#FFFFFF;stroke-width:1.5;stroke-linecap:round;stroke-linejoin:round;stroke-miterlimit:10;}
</style>
<g id="_x35_s" class="st0">
	<g class="st1">
		<path class="st2" d="M23,63.5H13c-1.1,0-2,0.9-2,2v20c0,1.1,0.9,2,2,2h10c1.1,0,2-0.9,2-2v-20C25,64.4,24.1,63.5,23,63.5z
			 M18,86.5c-0.5,0-1-0.4-1-1c0-0.5,0.5-1,1-1c0.6,0,1,0.5,1,1C19,86.1,18.6,86.5,18,86.5z M23.5,82.5c0,0.4-0.2,0.7-0.5,0.9
			c-0.1,0.1-0.3,0.1-0.5,0.1h-9c-0.2,0-0.3,0-0.5-0.1c-0.3-0.2-0.5-0.5-0.5-0.9v-15c0-0.4,0.2-0.7,0.5-0.9c0.2-0.1,0.3-0.1,0.5-0.1
			h9c0.2,0,0.4,0,0.5,0.1c0.3,0.2,0.5,0.5,0.5,0.9V82.5z"/>
	</g>
</g>
<g id="_x36_" class="st0">
	<g class="st1">
		<path class="st2" d="M23.7,62.8h-11c-1.1,0-2,0.9-2,2v22c0,1.1,0.9,2,2,2h11c1.1,0,2-0.9,2-2v-22C25.7,63.7,24.8,62.8,23.7,62.8z
			 M18.2,87.8c-0.6,0-1-0.5-1-1c0-0.6,0.4-1,1-1c0.5,0,1,0.4,1,1C19.2,87.3,18.8,87.8,18.2,87.8z M24.2,83.8c0,0.4-0.2,0.7-0.5,0.9
			c-0.2,0.1-0.3,0.1-0.5,0.1h-10c-0.2,0-0.4,0-0.5-0.1c-0.3-0.2-0.5-0.5-0.5-0.9v-17c0-0.4,0.2-0.7,0.5-0.9c0.1-0.1,0.3-0.1,0.5-0.1
			h10c0.2,0,0.3,0,0.5,0.1c0.3,0.2,0.5,0.5,0.5,0.9V83.8z"/>
	</g>
</g>
<g id="plus" class="st0">
	<g id="_x36__2_" class="st1">
		<g>
			<path class="st2" d="M29.8,60.8H16.6c-1.1,0-2,0.9-2,2v1h4c0.4,0,0.8,0.1,1.1,0.3h9.5c0.2,0,0.4,0.1,0.6,0.2
				c0.3,0.2,0.4,0.5,0.4,0.8v20.2c0,0.3-0.2,0.6-0.4,0.8c-0.2,0.1-0.4,0.2-0.6,0.2h-8.6v3.5c0,0.5-0.4,1-1,1h10.2c1.1,0,2-0.9,2-2
				v-26C31.8,61.7,30.9,60.8,29.8,60.8z M24.4,88.8c-0.1,0.6-0.6,1-1.2,1c-0.6,0-1.1-0.4-1.2-1c0-0.1,0-0.1,0-0.2
				c0-0.6,0.5-1.2,1.2-1.2c0.7,0,1.2,0.5,1.2,1.2C24.4,88.7,24.4,88.7,24.4,88.8z"/>
		</g>
	</g>
	<g id="_x36__1_" class="st1">
		<g>
			<path class="st2" d="M17.6,64.8h-11c-0.3,0-0.6,0.1-0.8,0.2c-0.7,0.3-1.2,1-1.2,1.8v22c0,1.1,0.9,2,2,2h11c0.7,0,1.4-0.4,1.7-1
				c0.2-0.3,0.3-0.6,0.3-1v-22C19.6,65.7,18.7,64.8,17.6,64.8z M12.1,89.8c-0.5,0-1-0.5-1-1s0.5-1,1-1c0.6,0,1,0.5,1,1
				S12.7,89.8,12.1,89.8z M18.1,85.8c0,0.2,0,0.3-0.1,0.5c-0.1,0.2-0.2,0.3-0.4,0.4c-0.1,0.1-0.3,0.1-0.5,0.1h-10
				c-0.2,0-0.3,0-0.5-0.1c-0.3-0.2-0.5-0.5-0.5-0.9v-17c0-0.4,0.2-0.7,0.5-0.9c0.2-0.1,0.3-0.1,0.5-0.1h10c0.2,0,0.4,0,0.5,0.1
				c0.3,0.2,0.5,0.5,0.5,0.9V85.8z"/>
		</g>
	</g>
</g>
<g id="x" class="st0">
	<g class="st1">
		<path class="st2" d="M24.2,62.8h-12c-1.1,0-2,0.9-2,2v23c0,1.1,0.9,2,2,2h12c1.1,0,2-0.9,2-2v-23C26.2,63.7,25.3,62.8,24.2,62.8z
			 M25.2,87.8c0,0.6-0.5,1-1,1h-12c-0.6,0-1-0.4-1-1v-23c0-0.5,0.4-1,1-1h1.4v0.3c0,0.3,0.1,0.5,0.3,0.7c0.2,0.2,0.4,0.3,0.7,0.3
			h7.2c0.3,0,0.5-0.1,0.7-0.3c0.2-0.2,0.3-0.4,0.3-0.7v-0.3h1.4c0.5,0,1,0.5,1,1V87.8z"/>
	</g>
</g>
<g id="all" class="st0">
	<g id="_x35_s_1_" class="st1">
		<g>
			<path class="st2" d="M14.2,88.9v-3H7.7c-0.2,0-0.4,0-0.5-0.1c-0.3-0.2-0.5-0.5-0.5-0.9v-15c0-0.4,0.2-0.7,0.5-0.9
				c0.1-0.1,0.3-0.1,0.5-0.1h6.5v-3h-7c-1.1,0-2,0.9-2,2v20c0,1.1,0.9,2,2,2h8C14.6,89.9,14.2,89.4,14.2,88.9z M12.2,88.9
				c-0.6,0-1-0.5-1-1c0-0.6,0.4-1,1-1c0.5,0,1,0.4,1,1C13.2,88.4,12.8,88.9,12.2,88.9z"/>
		</g>
	</g>
	<g id="x_2_" class="st1">
		<g>
			<path class="st2" d="M29.2,62.9h-12c-1.1,0-2,0.9-2,2v23c0,0.4,0.1,0.7,0.3,1c0.3,0.6,1,1,1.7,1h12c1.1,0,2-0.9,2-2v-23
				C31.2,63.7,30.3,62.9,29.2,62.9z M30.2,87.9c0,0.5-0.5,1-1,1h-12c-0.6,0-1-0.5-1-1v-23c0-0.6,0.4-1,1-1h1.4v0.3
				c0,0.3,0.1,0.5,0.3,0.7c0.2,0.2,0.4,0.3,0.7,0.3h7.2c0.3,0,0.5-0.1,0.7-0.3c0.2-0.2,0.3-0.4,0.3-0.7v-0.3h1.4c0.5,0,1,0.4,1,1
				V87.9z"/>
		</g>
	</g>
</g>
<g id="x_1_" class="st0">
	<g class="st1">
		<path class="st3" d="M24.2,63.4h-12c-1.1,0-2,0.9-2,2v23c0,1.1,0.9,2,2,2h12c1.1,0,2-0.9,2-2v-23C26.2,64.2,25.3,63.4,24.2,63.4z
			 M25.2,88.4c0,0.5-0.5,1-1,1h-12c-0.6,0-1-0.5-1-1v-23c0-0.6,0.4-1,1-1h1.4v0.3c0,0.3,0.1,0.5,0.3,0.7c0.2,0.2,0.4,0.3,0.7,0.3
			h7.2c0.3,0,0.5-0.1,0.7-0.3c0.2-0.2,0.3-0.4,0.3-0.7v-0.3h1.4c0.5,0,1,0.4,1,1V88.4z"/>
	</g>
</g>
<circle class="st0" cx="43.4" cy="187.4" r="10"/>
<polyline class="st4" points="39.7,127.4 42.8,130.8 46.8,123 "/>
<g id="x_3_" class="st0">
	<path class="st5" d="M107.3,191.8H87.7c-0.6,0-1-0.4-1-1v-36.6c0-0.6,0.4-1,1-1h19.6c0.6,0,1,0.4,1,1v36.6
		C108.3,191.4,107.9,191.8,107.3,191.8z"/>
	<path class="st6" d="M103.6,156.1H91.4c-0.6,0-1-0.4-1-1v-2.5h14.2v2.5C104.6,155.7,104.2,156.1,103.6,156.1z"/>
</g>
<g id="icon1" class="st0">
	<g class="st1">
		<g>
			<g>
				<g>
					<path class="st2" d="M46.4,59.2L46.4,59.2C46.4,59.2,46.3,59.2,46.4,59.2c0-0.1-0.1-0.2-0.1-0.2c0,0,0,0,0-0.1
						c0,0-0.1-0.1-0.1-0.1c-0.1,0-0.1-0.1-0.2-0.1c-0.1,0-0.1,0-0.2-0.1c0,0,0,0-0.1,0h0l-20.7-2c-0.2,0-0.3,0-0.5,0.1l-4.1,2.8l0,0
						c-0.1,0.1-0.2,0.2-0.3,0.4c0,0,0,0.1,0,0.1c0,0,0,0.1,0,0.2v33.9c0,0.4,0.3,0.7,0.7,0.7l20.6,2c0.1,0,0.1,0,0.2,0
						c0.1,0,0.1,0,0.2,0c0.1,0,0.1-0.1,0.2-0.1l4.1-2.8c0.2-0.1,0.3-0.4,0.3-0.6V59.4C46.4,59.3,46.4,59.3,46.4,59.2z M25.1,58.2
						L43.5,60l-2.2,1.5l-18.4-1.8L25.1,58.2z M40.8,95.3l-19.3-1.9V61.1l19.3,1.8V95.3z M44.9,92.9l-2.6,1.8v-32l2.6-1.8V92.9z"/>
					<path class="st2" d="M46.4,59.2C46.4,59.2,46.4,59.2,46.4,59.2S46.3,59.2,46.4,59.2C46.3,59.2,46.3,59.2,46.4,59.2z"/>
				</g>
			</g>
		</g>
		<g id="_x36__3_">
			<g>
				<path class="st2" d="M36.7,66l-11.1-1c-1.1,0-2,0.9-2,2v22c0,1.1,0.9,2,1.9,2h0l11,1h0.1c1.1,0,2-0.9,2-2V68
					C38.6,66.9,37.7,66.1,36.7,66z M31.4,90.6L31.4,90.6c-0.2,0.1-0.4,0.2-0.6,0.2c-0.3,0-0.5-0.1-0.7-0.3c-0.2-0.2-0.3-0.4-0.3-0.7
					c0-0.1,0-0.2,0.1-0.3c0.1-0.4,0.5-0.7,0.9-0.7c0.5,0,0.9,0.4,1,0.8c0,0,0,0.1,0,0.2C31.8,90.1,31.7,90.4,31.4,90.6z M37.1,87
					c0,0.4-0.2,0.7-0.5,0.9C36.4,88,36.3,88,36.1,88l-10-1c-0.2,0-0.4,0-0.5-0.1c-0.3-0.2-0.5-0.5-0.5-0.9V69c0-0.3,0.2-0.6,0.4-0.8
					c0.2-0.1,0.4-0.2,0.6-0.2l10,1c0.2,0,0.3,0,0.5,0.1c0.3,0.2,0.5,0.5,0.5,0.9V87z"/>
			</g>
		</g>
	</g>
	<g class="st1">
		<g>
			<g>
				<path class="st2" d="M-9.9,59.2C-9.9,59.2-10,59.2-9.9,59.2C-10,59.2-10,59.2-9.9,59.2C-9.9,59.2-9.9,59.2-9.9,59.2z"/>
			</g>
			<g>
				<path class="st2" d="M-5.9,94.7l-2.6-1.8V60.8l2.6,1.8V94.7z M16.4,60.1C16.4,60.1,16.3,60,16.4,60.1c-0.1-0.2-0.2-0.4-0.3-0.5
					l0,0L12,56.8c-0.2-0.1-0.3-0.1-0.5-0.1l-20.7,2h0c0,0,0,0-0.1,0c-0.1,0-0.2,0-0.2,0.1c-0.1,0-0.1,0.1-0.2,0.1
					c-0.1,0-0.1,0.1-0.1,0.1c0,0,0,0,0,0.1c0,0,0,0.1,0,0.1c0,0,0,0,0,0.1v0c0,0,0,0.1,0,0.1v33.9c0,0.3,0.1,0.5,0.3,0.6l4.1,2.8
					c0,0,0,0,0.1,0c0,0,0.1,0.1,0.1,0.1c0.1,0,0.1,0,0.2,0c0.1,0,0.1,0,0.2,0l20.6-2c0.4,0,0.7-0.4,0.7-0.7V60.2
					C16.4,60.2,16.4,60.1,16.4,60.1z M-7.1,60l18.4-1.8l2.2,1.5l-18.4,1.8L-7.1,60z M14.9,93.4l-19.3,1.9V62.9l19.3-1.8V93.4z"/>
			</g>
		</g>
	</g>
	<g id="x_4_" class="st1">
		<g>
			<path class="st2" d="M11.2,63L11.2,63l-11.9,1.1c-1.1,0-2,0.9-2,2v25c0,1.1,0.9,2,2.1,2h0l12-1.1c1.1,0,2-0.9,2-2V65
				C13.3,63.9,12.4,63,11.2,63z M12.3,90c0,0.5-0.5,1-1,1l-12,1.1c-0.6,0-1-0.5-1-1v-25c0-0.6,0.4-1,1-1l1.4-0.1v0.5
				c0,0.2,0,0.3,0.1,0.5c0.2,0.3,0.5,0.5,0.9,0.5l7.2-0.8c0.4,0,0.8-0.3,0.9-0.6c0-0.1,0.1-0.3,0.1-0.4v-0.6l1.4-0.1
				c0.5,0,1,0.5,1,1V90z"/>
		</g>
	</g>
	<g class="st1">
		<g class="st7">
			
				<image style="overflow:visible;" width="92" height="92" xlink:href="EC44CE4F.png"  transform="matrix(1 0 0 1 -2.6771 9.8797)">
			</image>
		</g>
		<circle class="st8" cx="43.3" cy="55.9" r="10"/>
		<polyline class="st9" points="39.8,57.4 42.9,59.8 47.9,52 		"/>
	</g>
</g>
<g id="icon2" class="st0">
	<g class="st1">
		<path class="st2" d="M24.8,89.8l-0.3-0.2c-0.2-0.1-18-9.2-17.6-36.4l0-0.7l0.7-0.1c0.1,0,7.8-0.9,16.8-6.2l0.4-0.2l0.4,0.2
			c9,5.4,16.8,6.2,16.9,6.2l0.7,0.1l0,0.7c0.4,27.2-17.4,36.3-17.6,36.4L24.8,89.8z M8.4,53.8c-0.1,23.7,14,32.9,16.4,34.2
			c2.4-1.4,16.5-10.5,16.4-34.2c-2.1-0.3-8.7-1.6-16.4-6.1C17.1,52.2,10.4,53.5,8.4,53.8z"/>
	</g>
	<g class="st1">
		<path class="st2" d="M35.2,57.9c0.2,16.5-10.5,22.8-10.5,22.8s-10.7-6.3-10.4-22.8c0,0,4.8-0.5,10.4-3.9
			C30.4,57.4,35.2,57.9,35.2,57.9z"/>
	</g>
	<g class="st1">
		<g class="st7">
			
				<image style="overflow:visible;" width="92" height="92" xlink:href="EC44CE4D.png"  transform="matrix(1 0 0 1 -2.6771 3.8797)">
			</image>
		</g>
		<circle class="st8" cx="43.3" cy="49.9" r="10"/>
		<text transform="matrix(1 0 0 1 38.9782 53.7495)" class="st10 st11 st12">3</text>
	</g>
</g>
<g id="icon3" class="st0">
	<g class="st1">
		<g>
			<path class="st2" d="M65.7,47.9c0,0-0.1-0.1-0.1-0.1c-0.2-0.2-0.8-0.8-4.6-0.4c-0.3,0-0.6,0.3-0.7,0.6c-0.1,0.1-0.2,0.3-0.5,0.4
				c-1.1,0.2-10.5,0.3-12.1-0.2c-0.1-0.2-0.2-0.3-0.4-0.5c-0.8-0.6-2-0.5-2.3-0.5c-0.2,0-0.4,0.1-0.5,0.3c0,0-0.1,0.1-0.2,0.3
				c-0.3,0.4-0.5,0.6-0.7,0.8c0-0.1,0-0.2,0-0.3c0-0.1,0-0.3,0.1-0.4c0.4-1.3-2.2-3.4-2.7-3.8c-0.8-0.5-1.4-0.7-1.9-0.6
				c-0.6,0.1-3.2-0.8-5.3-1.7c-0.1,0-0.2-0.1-0.3-0.1h-30c-0.4,0-0.7,0.3-0.8,0.7c0,0-0.1,0.7-0.2,1.3l0,0.1c0,0.3-0.1,0.4-0.1,0.4
				c-0.2,0.3-1,1.5-1,2.8v11.2c0,0.8,0.4,1.3,0.8,1.6c0.1,0.1,0.2,0.2,0.3,0.3c0.6,0.5,0.8,0.7,0.7,1.2c0,0,0,0.1,0,0.1
				c-0.1,1.6,1.5,3.2,2.6,4.1c0.3,0.2,0.5,0.4,0.6,0.6c0.2,0.2,0.5,0.6,0.7,0.9l0.4,0.5c1,1.3,1.6,1.9,2.3,1.7
				c0.1,0,0.2-0.1,0.3-0.1c0.8-0.2,1.1-0.2,1.4,0.1c0.9,1.1,4.2,1.8,5.3,1.9h0.8c0,0,0.1,0,0.2,0c0.7-0.1,2.6-0.4,3.6,0
				c0.2,0.1,0.4,0.2,0.4,0.3c0.1,0.5,0.3,1,0.7,1.5c0.6,1.1,1.5,1.8,1.5,1.9c0.2,0.2,0.4,0.2,0.6,0.2c0.2,0,0.4-0.2,0.5-0.4
				c0,0,0.5-0.8,0.7-1.4c0.4,0.2,0.8,0.9,1.2,2.1c0.1,0.3,0.2,0.7,0.4,1c0.4,0.9,1.1,1.7,2,2.4c0.9,0.7,1.7,1,1.7,1
				c0.2,0.1,0.5,0.1,0.7-0.1s0.3-0.4,0.3-0.6c0,0,0-0.4,0-0.9c0-0.6,0-1.4,0.1-2.1c0-0.2,0-0.4,0-0.6c0.1-0.6,2.5-1.6,3.4-1.8
				c0.2,0,1.1,0.4,1.7,0.6c2,0.8,2.8,1,3.3,0.6c0.2-0.2,0.4-0.4,0.4-0.7c0-0.2,0.8-0.8,1.2-1l0.3-0.2c0.1,0,0.2,0.1,0.3,0.2
				c0.2,0.2,0.5,0.5,0.7,0.7c0.4,0.4,0.7,0.8,1.1,0.8c0.1,0.4,0.3,0.8,0.4,1.3c0.2,0.6,0.3,1.2,0.4,1.7c0.1,0.5,0.1,0.8,0,1
				c0,0.4,0.1,0.8,0.4,1.4c0.3,0.6,1,1,2,1.1c0,0,0.3,0,0.7,0c0.6,0,1.4-0.1,1.7-0.4c0.3-0.3,0.5-1.1,0.5-2.4c0-0.5,0.1-1.5-0.1-2.3
				c-0.1-0.6-0.3-1.1-0.6-1.4c-0.1-0.1-0.4-0.8-0.6-2.1c-0.1-0.7-0.1-1.4,0-2c0.1-0.5,0.1-0.6,0.1-0.6c0.4-0.3,1.5-1.3,2.7-2.4
				c0.9-0.8,1.7-1.6,2.2-2.2c1.1-1.2,1.5-1.9,1.3-2.5c-0.1-0.3-0.3-0.5-0.6-0.7c-0.2-0.1-0.3-0.1-0.2-0.8c0-0.2,0.1-0.5,0.1-0.8
				c0.1-0.4,0.1-0.8,0.2-1.3c0-0.1,0-0.1,0-0.2c1,0,1.6-0.5,1.9-1.9c0.1-0.3,0.2-0.6,0.5-0.9c0.7-0.6,1.8-0.9,2.5-1.1
				c0.7-0.2,1.2-0.3,1.3-0.9c0.1-0.3-0.1-0.6-0.3-0.8c0,0,0,0-0.1-0.1c-0.1-0.4,0-1.1,0.4-1.4c0.1-0.1,0.3-0.3,0.5-0.4
				c0.3-0.2,0.7-0.5,1.1-0.8C65.2,49.8,66.3,48.8,65.7,47.9z M62.8,49.8c-0.4,0.3-0.7,0.6-1,0.8c-0.2,0.2-0.4,0.3-0.6,0.5
				c-0.9,0.7-1.1,2.1-0.9,3c-0.9,0.2-2.1,0.6-3,1.4c-0.5,0.5-0.8,1.1-1,1.7c-0.1,0.6-0.2,0.7-0.2,0.7h-0.2c-0.6,0-1.4,0.1-1.6,1.6
				c0,0.4-0.1,0.8-0.2,1.2c-0.1,0.3-0.1,0.6-0.1,0.9c0,0.5-0.1,1.4,0.7,2c-0.1,0.2-0.4,0.5-0.8,1c-0.5,0.6-1.2,1.3-2.1,2.1
				c-1.2,1.1-2.3,2-2.7,2.3c-0.4,0.3-0.6,0.8-0.7,1.6c-0.1,0.6-0.1,1.5,0,2.3c0.1,0.8,0.4,2.3,1,2.9c0,0,0.1,0.1,0.2,0.6
				c0.1,0.5,0.1,1.2,0.1,2c0,0.7-0.1,1.2-0.2,1.4c-0.6,0.1-1.7,0-1.9-0.3c-0.2-0.4-0.2-0.5-0.2-0.5c0-0.4,0-0.8,0-1.4
				c-0.1-0.5-0.2-1.2-0.4-1.8c-0.7-2.7-1.3-2.6-1.6-2.6c0,0-0.1,0-0.1,0c0,0,0,0-0.1-0.1c-0.2-0.3-0.5-0.6-0.8-0.9
				c-1-0.9-1.7-0.6-2.1-0.4l-0.4,0.3c-0.6,0.4-1.3,0.9-1.6,1.5c-0.5-0.1-1.3-0.4-1.8-0.6c-1.5-0.6-2-0.7-2.4-0.7
				c0,0-4.6,1.1-4.7,3.2c0,0.2,0,0.4,0,0.6c0,0.6,0,1.3,0,1.9c-0.1-0.1-0.3-0.2-0.4-0.3c-0.7-0.6-1.3-1.2-1.6-1.9
				c-0.1-0.2-0.2-0.5-0.3-0.7c-0.4-1.5-1.1-2.6-1.9-3.1c-0.6-0.4-1.3-0.3-1.8,0.1c-0.1,0.1-0.2,0.2-0.2,0.3
				c-0.1,0.2-0.2,0.4-0.3,0.6c-0.2-0.2-0.4-0.5-0.6-0.8c-0.3-0.4-0.4-0.8-0.5-1.1c-0.1-0.4-0.4-1-1.3-1.3C21,69.6,19,69.8,18,70
				h-0.6c-1.5-0.2-3.9-0.9-4.2-1.4c-0.9-1.1-2.2-0.8-2.9-0.7c0,0-0.1,0-0.1,0c-0.1-0.1-0.4-0.4-1-1.2l-0.4-0.5
				c-0.3-0.4-0.6-0.8-0.8-1c-0.2-0.2-0.4-0.4-0.8-0.7c-0.7-0.7-2.1-1.9-2-2.9c0.2-1.3-0.7-2-1.2-2.5C3.8,59.1,3.7,59,3.6,59l0,0
				c-0.3-0.3-0.3-0.4-0.3-0.5V47.3c0-1,0.7-2,0.7-2c0,0,0-0.1,0-0.1c0.1-0.2,0.2-0.4,0.2-0.8l0-0.2c0-0.2,0.1-0.5,0.1-0.7h2.1
				l0.2-0.5c0-0.2,0.3-0.2,0.3,0l0.2,0.5H12l0.2-0.5c0.1-0.2,0.3-0.2,0.3,0l0.2,0.5h4.9l0.2-0.5c0.1-0.2,0.3-0.2,0.3,0l0.2,0.5h4.8
				l0.2-0.5c0.1-0.2,0.3-0.2,0.3,0l0.2,0.5h9.8c2.3,0.9,5,1.9,6.1,1.7c0.1,0,0.3,0.1,0.6,0.3c1,0.7,1.9,1.8,2.1,2.2
				c0,0.2-0.1,0.4-0.1,0.5c-0.1,0.5,0,1.4,0.5,1.9c0.3,0.2,0.7,0.3,1.1,0.2c0.2-0.1,0.8-0.3,1.8-1.5c0,0,0,0,0,0
				c0.3,0,0.7,0,0.8,0.2c0.6,1.9,13.7,1,13.8,0.9c0.7-0.2,1.1-0.7,1.3-1c0.9-0.1,1.9-0.1,2.5,0C63.8,49,63.4,49.3,62.8,49.8z"/>
		</g>
		<g>
			<g>
				<line class="st13" x1="28.4" y1="75.4" x2="31.9" y2="75.4"/>
				<line class="st13" x1="46.3" y1="75.4" x2="50" y2="75.4"/>
				<line class="st13" x1="9.9" y1="68.5" x2="50.8" y2="68.5"/>
				<line class="st13" x1="4.9" y1="61.5" x2="54.3" y2="61.5"/>
				<line class="st13" x1="26.9" y1="54.6" x2="60.3" y2="54.6"/>
				<line class="st13" x1="26.9" y1="47.7" x2="42.3" y2="47.7"/>
			</g>
		</g>
		<g>
			<path class="st2" d="M3.7,42.7l-1.5,4.5L2.5,59h24.4c0.8,0,1.5-0.7,1.5-1.5V42.7H3.7z M8.8,55.6l-1.1,0.8l0.4,1.3
				c0,0.2-0.1,0.3-0.3,0.2L6.8,57l-1.1,0.8c-0.1,0.1-0.3,0-0.3-0.2l0.4-1.3l-1-0.8c-0.1-0.1-0.1-0.3,0.1-0.3l1.3,0l0.1-0.3l0.3-1
				c0-0.2,0.3-0.2,0.3,0l0.3,1l0.1,0.3l1.3,0C8.9,55.2,9,55.5,8.8,55.6z M8.8,50l-1.1,0.8l0.4,1.3c0,0.2-0.1,0.3-0.3,0.2l-1.1-0.8
				l-1.1,0.8c-0.1,0.1-0.3,0-0.3-0.2l0.4-1.3l-1-0.8c-0.1-0.1-0.1-0.3,0.1-0.3l1.3,0l0.1-0.3l0.3-0.9c0-0.2,0.3-0.2,0.3,0l0.3,0.9
				l0.1,0.3l1.3,0C8.9,49.7,9,49.9,8.8,50z M8.8,44.5l-1.1,0.8l0.4,1.3c0,0.2-0.1,0.3-0.3,0.2L6.8,46l-1.1,0.8
				c-0.1,0.1-0.3,0-0.3-0.2l0.4-1.3l-1-0.8c-0.1-0.1-0.1-0.3,0.1-0.3l1.3,0l0.1-0.3l0.2-0.5l0.2-0.5c0-0.2,0.3-0.2,0.3,0l0.2,0.5
				l0.1,0.5l0.1,0.3l1.3,0C8.9,44.2,9,44.4,8.8,44.5z M14.4,55.6l-1.1,0.8l0.4,1.3c0.1,0.2-0.1,0.3-0.3,0.2L12.4,57l-1.1,0.8
				c-0.1,0.1-0.3,0-0.3-0.2l0.4-1.3l-1.1-0.8c-0.1-0.1-0.1-0.3,0.1-0.3l1.3,0l0.1-0.3l0.3-1c0.1-0.2,0.3-0.2,0.3,0l0.3,1l0.1,0.3
				l1.3,0C14.4,55.2,14.5,55.5,14.4,55.6z M14.4,50l-1.1,0.8l0.4,1.3c0.1,0.2-0.1,0.3-0.3,0.2l-1.1-0.8l-1.1,0.8
				c-0.1,0.1-0.3,0-0.3-0.2l0.4-1.3L10.4,50c-0.1-0.1-0.1-0.3,0.1-0.3l1.3,0l0.1-0.3l0.3-0.9c0.1-0.2,0.3-0.2,0.3,0l0.3,0.9l0.1,0.3
				l1.3,0C14.4,49.7,14.5,49.9,14.4,50z M14.4,44.5l-1.1,0.8l0.4,1.3c0.1,0.2-0.1,0.3-0.3,0.2L12.4,46l-1.1,0.8
				c-0.1,0.1-0.3,0-0.3-0.2l0.4-1.3l-1.1-0.8c-0.1-0.1-0.1-0.3,0.1-0.3l1.3,0l0.1-0.3l0.2-0.5l0.2-0.5c0.1-0.2,0.3-0.2,0.3,0
				l0.2,0.5l0.2,0.5l0.1,0.3l1.3,0C14.4,44.2,14.5,44.4,14.4,44.5z M19.9,55.6l-1,0.8l0.4,1.3c0,0.2-0.1,0.3-0.3,0.2L17.9,57
				l-1.1,0.8c-0.1,0.1-0.3,0-0.3-0.2l0.4-1.3l-1.1-0.8c-0.1-0.1-0.1-0.3,0.1-0.3l1.3,0l0.1-0.3l0.3-1c0.1-0.2,0.3-0.2,0.3,0l0.3,1
				l0.1,0.3l1.3,0C20,55.2,20,55.5,19.9,55.6z M19.9,50l-1,0.8l0.4,1.3c0,0.2-0.1,0.3-0.3,0.2l-1.1-0.8l-1.1,0.8
				c-0.1,0.1-0.3,0-0.3-0.2l0.4-1.3L15.9,50c-0.1-0.1-0.1-0.3,0.1-0.3l1.3,0l0.1-0.3l0.3-0.9c0.1-0.2,0.3-0.2,0.3,0l0.3,0.9l0.1,0.3
				l1.3,0C20,49.7,20,49.9,19.9,50z M19.9,44.5l-1,0.8l0.4,1.3c0,0.2-0.1,0.3-0.3,0.2L17.9,46l-1.1,0.8c-0.1,0.1-0.3,0-0.3-0.2
				l0.4-1.3l-1.1-0.8c-0.1-0.1-0.1-0.3,0.1-0.3l1.3,0l0.1-0.3l0.2-0.5l0.2-0.5c0.1-0.2,0.3-0.2,0.3,0l0.2,0.5l0.1,0.5l0.1,0.3l1.3,0
				C20,44.2,20,44.4,19.9,44.5z M25.4,55.6l-1.1,0.8l0.4,1.3c0.1,0.2-0.1,0.3-0.3,0.2L23.4,57l-1.1,0.8c-0.1,0.1-0.3,0-0.3-0.2
				l0.4-1.3l-1.1-0.8c-0.1-0.1-0.1-0.3,0.1-0.3l1.3,0l0.1-0.3l0.3-1c0.1-0.2,0.3-0.2,0.3,0l0.3,1l0.1,0.3l1.3,0
				C25.5,55.2,25.6,55.5,25.4,55.6z M25.4,50l-1.1,0.8l0.4,1.3c0.1,0.2-0.1,0.3-0.3,0.2l-1.1-0.8l-1.1,0.8c-0.1,0.1-0.3,0-0.3-0.2
				l0.4-1.3L21.4,50c-0.1-0.1-0.1-0.3,0.1-0.3l1.3,0l0.1-0.3l0.3-0.9c0.1-0.2,0.3-0.2,0.3,0l0.3,0.9l0.1,0.3l1.3,0
				C25.5,49.7,25.6,49.9,25.4,50z M23.9,43.9l0.1,0.3l1.3,0c0.2,0,0.2,0.2,0.1,0.3l-1.1,0.8l0.4,1.3c0.1,0.2-0.1,0.3-0.3,0.2
				L23.4,46l-1.1,0.8c-0.1,0.1-0.3,0-0.3-0.2l0.4-1.3l-1.1-0.8c-0.1-0.1-0.1-0.3,0.1-0.3l1.3,0l0.1-0.3l0.1-0.5l0.2-0.5
				c0.1-0.2,0.3-0.2,0.3,0l0.2,0.5L23.9,43.9z"/>
		</g>
	</g>
	<g class="st1">
		<g class="st7">
			
				<image style="overflow:visible;" width="92" height="92" xlink:href="EC44CE53.png"  transform="matrix(1 0 0 1 13.3229 -4.1203)">
			</image>
		</g>
		<circle class="st8" cx="59.3" cy="41.9" r="10"/>
		<path class="st14" d="M63.9,40.4l-3.2,0l-0.2-0.7l-0.8-2.3c-0.1-0.4-0.7-0.4-0.8,0l-0.8,2.3l-0.2,0.7l-3.2,0
			c-0.4,0-0.6,0.5-0.3,0.8l2.5,1.9l-1,3c-0.1,0.4,0.3,0.7,0.7,0.5l2.6-1.8l2.6,1.8c0.3,0.2,0.8-0.1,0.7-0.5l-1-3l2.5-1.9
			C64.5,41,64.3,40.4,63.9,40.4z"/>
	</g>
</g>
<g id="icon4" class="st0">
	<g id="_x34_" class="st1">
		<g>
			<g id="head">
				<g>
					<path class="st2" d="M47.9,41.9c-0.3,0-0.7-0.3-1-0.6c-0.3-0.3-0.5-0.8-0.7-1.3c-0.1-0.2-0.2-0.4-0.2-0.6l-0.1-0.1
						c0-0.1-0.1-0.2-0.1-0.4c0-0.1,0-0.2-0.1-0.3c-0.1-0.5-0.4-0.9-0.8-1.2c-0.4-0.3-0.8-0.4-1.2-0.4c-0.5,0-0.9,0.2-1.3,0.3
						c-0.1,0.1-0.3,0.1-0.4,0.2c-0.5,0.1-0.9,0.2-1.2,0.3c-0.8,0.1-1.6,0.2-2.4,0.2c-0.9,0-1.7-0.1-2.5-0.2
						c-0.4-0.1-0.8-0.2-1.2-0.3c-0.1,0-0.3-0.1-0.4-0.2c-0.6-0.2-1.5-0.6-2.4,0.1c-0.4,0.3-0.7,0.7-0.8,1.2c0,0.1,0,0.3-0.1,0.4
						c0,0.2,0,0.3-0.1,0.3c-0.1,0.1-0.1,0.3-0.2,0.4c0,0.1-0.1,0.2-0.1,0.4c-0.2,0.5-0.4,1-0.7,1.3c-0.3,0.3-0.8,0.6-1,0.6
						c-0.1-0.3-0.3-1-0.2-2.3c0-0.4,1-8.6,9.7-8.6s9.6,8.3,9.7,8.6C48.2,40.9,48,41.6,47.9,41.9z"/>
				</g>
			</g>
			<g>
				<path class="st2" d="M55.5,72.8l-2.1-10.4c0-0.1-0.8-2.5-3.4-3.3l-5.5-1.7l-1.6-1.1v-1.1c2.8-1.6,4.8-4.6,4.8-8.1
					c0.1,0,0.2,0,0.3,0c1.7,0,3.1-1.4,3.1-3.1c0-1-0.5-2-1.3-2.5c0.1-0.5,0.1-1.3,0-2.2c0-0.1-1.1-10.1-11.3-10.1
					s-11.3,10-11.3,10.1c-0.1,0.9-0.1,1.6,0,2.2c-0.8,0.6-1.3,1.5-1.3,2.5c0,1.7,1.4,3.1,3.1,3.1c0.1,0,0.2,0,0.3,0
					c0,3.5,2,6.5,4.8,8.1v1.1l-1.6,1.1l-5.5,1.7c-2.6,0.8-3.4,3.2-3.5,3.4l-2.1,10.3c-0.2,1,0.1,1.7,0.4,2.2
					c0.9,1.1,2.5,1.3,2.7,1.3h4.2l19.3,0h4.4c0.2,0,1.8-0.2,2.7-1.3C55.3,74.5,55.7,73.8,55.5,72.8z M43.1,58.5L41.8,62l-2.1-0.7
					l2.5-3.4h0L43.1,58.5z M38.4,60.3l-2.8-3.8v-0.6c0.9,0.3,1.8,0.4,2.8,0.4c1,0,1.9-0.2,2.8-0.4v0.6L38.4,60.3z M49,43.2
					c0.2,0.3,0.3,0.6,0.3,0.9c0,0.8-0.6,1.4-1.4,1.4c-0.1,0-0.2,0-0.3,0v-2c0.1,0,0.2,0,0.3,0C48.3,43.6,48.6,43.5,49,43.2L49,43.2z
					 M29.1,45.5c-0.1,0-0.2,0-0.3,0c-0.8,0-1.4-0.6-1.4-1.4c0-0.3,0.1-0.7,0.3-0.9l0.1,0.1c0.4,0.3,0.9,0.4,1.3,0.3V45.5z
					 M29.9,41.3c-0.3,0.3-0.8,0.6-1,0.6c-0.1-0.3-0.3-1-0.2-2.3c0-0.4,1-8.6,9.7-8.6s9.6,8.3,9.7,8.6c0.1,1.3-0.1,2-0.2,2.3
					c-0.3,0-0.7-0.3-1-0.6c-0.3-0.3-0.5-0.8-0.7-1.3c-0.1-0.2-0.2-0.4-0.2-0.6l-0.1-0.1c0-0.1-0.1-0.2-0.1-0.4c0-0.1,0-0.2-0.1-0.3
					c-0.1-0.5-0.4-0.9-0.8-1.2c-0.4-0.3-0.8-0.4-1.2-0.4c-0.5,0-0.9,0.2-1.3,0.3c-0.1,0.1-0.3,0.1-0.4,0.2c-0.5,0.1-0.9,0.2-1.2,0.3
					c-0.8,0.1-1.6,0.2-2.4,0.2c-0.9,0-1.7-0.1-2.5-0.2c-0.4-0.1-0.8-0.2-1.2-0.3c-0.1,0-0.3-0.1-0.4-0.2c-0.6-0.2-1.5-0.6-2.4,0.1
					c-0.4,0.3-0.7,0.7-0.8,1.2c0,0.1,0,0.3-0.1,0.4c0,0.2,0,0.3-0.1,0.3c-0.1,0.1-0.1,0.3-0.2,0.4c0,0.1-0.1,0.2-0.1,0.4
					C30.5,40.5,30.2,41,29.9,41.3z M30.8,47.1v-4.3c0.2-0.1,0.3-0.2,0.3-0.3c0.5-0.5,0.8-1.2,1.1-1.8c0.1-0.1,0.1-0.3,0.2-0.4
					c0-0.1,0.1-0.2,0.2-0.4c0.1-0.3,0.1-0.5,0.2-0.7c0-0.1,0-0.2,0-0.3c0-0.1,0.1-0.1,0.1-0.2c0.2-0.1,0.3-0.1,0.8,0.1
					c0.2,0.1,0.4,0.1,0.6,0.2c0.4,0.1,0.9,0.3,1.4,0.4c0.9,0.1,1.8,0.2,2.8,0.2c0.9-0.1,1.8-0.1,2.7-0.3c0.4-0.1,0.8-0.2,1.4-0.4
					c0.2-0.1,0.4-0.1,0.6-0.2c0.6-0.2,0.7-0.2,0.8-0.1c0.1,0,0.1,0.1,0.1,0.2c0,0.1,0,0.2,0,0.2c0,0.2,0.1,0.5,0.2,0.8l0.1,0.1
					c0.1,0.2,0.2,0.4,0.3,0.7c0.3,0.6,0.6,1.3,1.1,1.8c0,0,0.1,0.1,0.3,0.3v4.3c0,4.2-3.4,7.6-7.6,7.6
					C34.2,54.7,30.8,51.3,30.8,47.1z M34.6,58l2.5,3.3L35,62l-1.3-3.4L34.6,58z M53.7,74c-0.3,0.5-1.2,0.6-1.4,0.7h-3.4v-6.3
					c0-0.5-0.4-0.8-0.8-0.8c-0.5,0-0.8,0.4-0.8,0.8v6.3H29.5v-6.3c0-0.5-0.4-0.8-0.8-0.8c-0.5,0-0.8,0.4-0.8,0.8v6.3h-3.3
					c-0.2,0-1.1-0.2-1.5-0.7c-0.1-0.1-0.2-0.4-0.1-0.8l2-10.2c0,0,0.6-1.7,2.3-2.2l4.9-1.5l1.5,4.1c0.1,0.3,0.4,0.5,0.8,0.5
					c0.1,0,0.2,0,0.3,0l2.8-0.9v5.9c0,0.5,0.4,0.8,0.8,0.8c0.5,0,0.8-0.4,0.8-0.8v-5.9l2.8,0.9c0.1,0,0.2,0,0.3,0
					c0.3,0,0.7-0.2,0.8-0.5l1.5-4.1l4.9,1.5c0.9,0.3,1.4,0.8,1.8,1.3c0.4,0.5,0.5,0.9,0.5,0.9l2.1,10.3C53.9,73.6,53.8,73.8,53.7,74
					z"/>
				<path class="st2" d="M48.2,76.3C48.1,76.3,48.1,76.3,48.2,76.3c-0.1,0-0.1,0-0.2,0H48.2z"/>
			</g>
		</g>
		<g>
			<g>
				<circle class="st2" cx="35.6" cy="44.7" r="1.1"/>
			</g>
			<g>
				<circle class="st2" cx="41.2" cy="44.7" r="1.1"/>
			</g>
		</g>
		<g>
			<path class="st2" d="M41.2,49.5c0,1.1-1.3,2-2.9,2c-1.6,0-2.9-0.9-2.9-2c0-0.3,0.2-0.6,0.6-0.6c0.3,0,0.6,0.3,0.6,0.6
				c0,0.4,0.7,0.9,1.8,0.9c1,0,1.8-0.5,1.8-0.9c0-0.3,0.2-0.6,0.6-0.6C41,48.9,41.2,49.2,41.2,49.5z"/>
		</g>
	</g>
	<g class="st1">
		<g class="st7">
			
				<image style="overflow:visible;" width="92" height="92" xlink:href="EC44CE55.png"  transform="matrix(1 0 0 1 11.3229 -8.1203)">
			</image>
		</g>
		<circle class="st8" cx="57.3" cy="37.9" r="10"/>
		<g>
			<path class="st10" d="M53.8,36.1h-1.4c-0.2,0-0.3,0.2-0.3,0.3v6.1c0,0.2,0.2,0.3,0.3,0.3h1.4c0.2,0,0.3-0.2,0.3-0.3v-6.1
				C54.2,36.2,54,36.1,53.8,36.1z"/>
			<path class="st10" d="M59.1,36.1l0.4-1c0.2-0.7,0.1-1.7-0.6-2.1c-0.2-0.1-0.5-0.2-0.8-0.1c-0.1,0-0.3,0.1-0.3,0.3
				c-0.1,0.1-0.1,0.3-0.1,0.5c-0.1,0.4-0.3,0.8-0.6,1.1c-0.5,0.5-2.2,2-2.2,2v5.4h5.7c0.8,0,1.3-0.9,0.9-1.5
				c0.5-0.3,0.6-0.9,0.3-1.4c0.5-0.3,0.6-0.9,0.3-1.4c0.8-0.5,0.5-1.7-0.4-1.9C61.6,36.1,59.1,36.1,59.1,36.1z"/>
		</g>
	</g>
</g>
<g class="st0">
	<line class="st15" x1="77.3" y1="113.9" x2="77.3" y2="114.9"/>
	<line class="st15" x1="80.3" y1="111.9" x2="80.3" y2="114.9"/>
	<line class="st15" x1="83.3" y1="108.9" x2="83.3" y2="114.9"/>
</g>
<g class="st0">
	<line class="st15" x1="210.4" y1="14.9" x2="220.3" y2="24.8"/>
	<line class="st15" x1="220.3" y1="14.9" x2="210.4" y2="24.8"/>
</g>
<g class="st0">
	<path class="st16" d="M200.2,17.4c0,0-0.5-0.5-0.6-0.6c-2-2-5.3-2.1-7.3,0c-2,2-2,5.3,0,7.4c2,2,5.3,2,7.4,0"/>
	<polyline class="st16" points="198.3,17.8 200.6,17.8 200.6,15.5 	"/>
</g>
<g class="st0">
	<line class="st17" x1="146.3" y1="29.9" x2="166.3" y2="29.9"/>
	<line class="st17" x1="146.3" y1="35.9" x2="166.3" y2="35.9"/>
	<line class="st17" x1="146.3" y1="41.9" x2="166.3" y2="41.9"/>
</g>
<circle class="st18" cx="128.8" cy="29.4" r="2"/>
<circle class="st18" cx="120.8" cy="29.4" r="2"/>
<circle class="st18" cx="128.8" cy="37.4" r="2"/>
<circle class="st18" cx="120.8" cy="37.4" r="2"/>
<g id="skoro" class="st0">
	<path class="st6" d="M37.7,84.8h-39c-2.2,0-4-1.8-4-4v-8c0-2.2,1.8-4,4-4h39c2.2,0,4,1.8,4,4v8C41.7,83,39.9,84.8,37.7,84.8z"/>
	<text transform="matrix(1 0 0 1 1.8551 79.635)" class="st19 st11 st20">Скоро</text>
</g>
<g id="skoro_x5F_v_x5F_prodaje">
	<g class="st7">
		
			<image style="overflow:visible;" width="144" height="144" xlink:href="EC44CE57.png"  transform="matrix(1 0 0 1 -24.6771 -23.1203)">
		</image>
	</g>
	<circle class="st8" cx="47.3" cy="48.9" r="35.5"/>
	<g>
		<ellipse class="st21" cx="47.3" cy="30.4" rx="8" ry="8"/>
		<line class="st21" x1="47.3" y1="30.4" x2="47.3" y2="22.4"/>
		<line class="st21" x1="47.3" y1="36.2" x2="47.3" y2="38.4"/>
		<line class="st21" x1="55.3" y1="30.4" x2="53.1" y2="30.4"/>
		<line class="st21" x1="41.5" y1="30.4" x2="39.3" y2="30.4"/>
		<line class="st21" x1="47.3" y1="30.4" x2="53" y2="24.8"/>
		<line class="st21" x1="43.2" y1="34.5" x2="41.7" y2="36.1"/>
		<line class="st21" x1="53" y1="36.1" x2="51.5" y2="34.5"/>
		<line class="st21" x1="43.2" y1="26.3" x2="41.7" y2="24.7"/>
	</g>
	<text transform="matrix(1 0 0 1 30.8633 52.7444)"><tspan x="0" y="0" class="st10 st11 st20">Скоро</tspan><tspan x="-11.3" y="12" class="st10 st11 st20">в продаже</tspan></text>
</g>
</svg>
