<?xml version="1.0" encoding="utf-8"?>
<!-- Generator: Adobe Illustrator 22.0.0, SVG Export Plug-In . SVG Version: 6.00 Build 0)  -->
<svg version="1.1" id="Layer_1" xmlns="http://www.w3.org/2000/svg" xmlns:xlink="http://www.w3.org/1999/xlink" x="0px" y="0px"
	 viewBox="0 0 13.8 14.5" style="enable-background:new 0 0 13.8 14.5;" xml:space="preserve">
<style type="text/css">
	.st0{display:none;}
	.st1{display:inline;}
	.st2{fill:#282D3A;}
	.st3{fill:#85888B;}
	.st4{display:none;fill:none;stroke:#FFFFFF;stroke-width:2;stroke-linecap:round;stroke-linejoin:round;stroke-miterlimit:10;}
	.st5{display:inline;fill:none;stroke:#282D3A;stroke-width:1.5;stroke-linejoin:round;stroke-miterlimit:10;}
	.st6{display:inline;fill:#282D3A;}
	.st7{opacity:0.66;}
	.st8{fill:#FF005F;}
	.st9{fill:none;stroke:#FFFFFF;stroke-width:2;stroke-linecap:round;stroke-linejoin:round;stroke-miterlimit:10;}
	.st10{fill:#FFFFFF;}
	.st11{font-family:'SFUIText-Bold';}
	.st12{font-size:12px;}
	.st13{fill:none;stroke:#282D3A;stroke-width:1.5;stroke-linecap:round;stroke-linejoin:round;stroke-miterlimit:10;}
	.st14{fill:#F5F5F5;}
	
		.st15{display:inline;fill:none;stroke:#282D3A;stroke-width:1.5;stroke-linecap:round;stroke-linejoin:round;stroke-miterlimit:10;}
	
		.st16{display:inline;fill:none;stroke:#000000;stroke-width:1.5;stroke-linecap:round;stroke-linejoin:round;stroke-miterlimit:10;}
	.st17{display:inline;fill:none;stroke:#282D3A;stroke-width:2;stroke-linecap:round;stroke-linejoin:round;stroke-miterlimit:10;}
	.st18{display:none;fill:#282D3A;}
	.st19{display:inline;opacity:0.66;}
	.st20{display:inline;fill:#FF005F;}
	.st21{fill:none;stroke:#FFFFFF;stroke-width:1.5;stroke-linecap:round;stroke-linejoin:round;stroke-miterlimit:10;}
	.st22{font-size:10px;}
	.st23{display:inline;fill:#FFFFFF;}
	.st24{display:none;fill:none;stroke:#0096FF;stroke-width:2;stroke-linecap:round;stroke-linejoin:round;stroke-miterlimit:10;}
	.st25{display:inline;fill:#FF005E;}
	.st26{fill:#FF005E;}
</style>
<g id="_x35_s" class="st0">
	<g class="st1">
		<path class="st2" d="M-17.4,21.9h-10c-1.1,0-2,0.9-2,2v20c0,1.1,0.9,2,2,2h10c1.1,0,2-0.9,2-2v-20C-15.4,22.8-16.3,21.9-17.4,21.9
			z M-22.4,44.9c-0.5,0-1-0.4-1-1c0-0.5,0.5-1,1-1c0.6,0,1,0.5,1,1C-21.4,44.4-21.9,44.9-22.4,44.9z M-16.9,40.9
			c0,0.4-0.2,0.7-0.5,0.9c-0.1,0.1-0.3,0.1-0.5,0.1h-9c-0.2,0-0.3,0-0.5-0.1c-0.3-0.2-0.5-0.5-0.5-0.9v-15c0-0.4,0.2-0.7,0.5-0.9
			c0.2-0.1,0.3-0.1,0.5-0.1h9c0.2,0,0.4,0,0.5,0.1c0.3,0.2,0.5,0.5,0.5,0.9V40.9z"/>
	</g>
</g>
<g id="_x36_" class="st0">
	<g class="st1">
		<path class="st2" d="M-16.7,21.1h-11c-1.1,0-2,0.9-2,2v22c0,1.1,0.9,2,2,2h11c1.1,0,2-0.9,2-2v-22C-14.7,22-15.6,21.1-16.7,21.1z
			 M-22.2,46.1c-0.6,0-1-0.5-1-1c0-0.6,0.4-1,1-1c0.5,0,1,0.4,1,1C-21.2,45.7-21.7,46.1-22.2,46.1z M-16.2,42.1
			c0,0.4-0.2,0.7-0.5,0.9c-0.2,0.1-0.3,0.1-0.5,0.1h-10c-0.2,0-0.4,0-0.5-0.1c-0.3-0.2-0.5-0.5-0.5-0.9v-17c0-0.4,0.2-0.7,0.5-0.9
			c0.1-0.1,0.3-0.1,0.5-0.1h10c0.2,0,0.3,0,0.5,0.1c0.3,0.2,0.5,0.5,0.5,0.9V42.1z"/>
	</g>
</g>
<g id="plus" class="st0">
	<g id="_x36__2_" class="st1">
		<g>
			<path class="st2" d="M-10.6,19.1h-13.2c-1.1,0-2,0.9-2,2v1h4c0.4,0,0.8,0.1,1.1,0.3h9.5c0.2,0,0.4,0.1,0.6,0.2
				c0.3,0.2,0.4,0.5,0.4,0.8v20.2c0,0.3-0.2,0.6-0.4,0.8c-0.2,0.1-0.4,0.2-0.6,0.2h-8.6v3.5c0,0.5-0.4,1-1,1h10.2c1.1,0,2-0.9,2-2
				v-26C-8.6,20-9.5,19.1-10.6,19.1z M-16.1,47.1c-0.1,0.6-0.6,1-1.2,1c-0.6,0-1.1-0.4-1.2-1c0-0.1,0-0.1,0-0.2
				c0-0.6,0.5-1.2,1.2-1.2c0.7,0,1.2,0.5,1.2,1.2C-16.1,47-16.1,47.1-16.1,47.1z"/>
		</g>
	</g>
	<g id="_x36__1_" class="st1">
		<g>
			<path class="st2" d="M-22.8,23.1h-11c-0.3,0-0.6,0.1-0.8,0.2c-0.7,0.3-1.2,1-1.2,1.8v22c0,1.1,0.9,2,2,2h11c0.7,0,1.4-0.4,1.7-1
				c0.2-0.3,0.3-0.6,0.3-1v-22C-20.8,24-21.7,23.1-22.8,23.1z M-28.3,48.1c-0.5,0-1-0.5-1-1s0.5-1,1-1c0.6,0,1,0.5,1,1
				S-27.8,48.1-28.3,48.1z M-22.3,44.1c0,0.2,0,0.3-0.1,0.5c-0.1,0.2-0.2,0.3-0.4,0.4c-0.1,0.1-0.3,0.1-0.5,0.1h-10
				c-0.2,0-0.3,0-0.5-0.1c-0.3-0.2-0.5-0.5-0.5-0.9v-17c0-0.4,0.2-0.7,0.5-0.9c0.2-0.1,0.3-0.1,0.5-0.1h10c0.2,0,0.4,0,0.5,0.1
				c0.3,0.2,0.5,0.5,0.5,0.9V44.1z"/>
		</g>
	</g>
</g>
<g id="x" class="st0">
	<g class="st1">
		<path class="st2" d="M-16.2,21.1h-12c-1.1,0-2,0.9-2,2v23c0,1.1,0.9,2,2,2h12c1.1,0,2-0.9,2-2v-23C-14.2,22-15.1,21.1-16.2,21.1z
			 M-15.2,46.1c0,0.6-0.5,1-1,1h-12c-0.6,0-1-0.4-1-1v-23c0-0.5,0.4-1,1-1h1.4v0.3c0,0.3,0.1,0.5,0.3,0.7c0.2,0.2,0.4,0.3,0.7,0.3
			h7.2c0.3,0,0.5-0.1,0.7-0.3c0.2-0.2,0.3-0.4,0.3-0.7v-0.3h1.4c0.5,0,1,0.5,1,1V46.1z"/>
	</g>
</g>
<g id="all" class="st0">
	<g id="_x35_s_1_" class="st1">
		<g>
			<path class="st2" d="M-26.2,47.2v-3h-6.5c-0.2,0-0.4,0-0.5-0.1c-0.3-0.2-0.5-0.5-0.5-0.9v-15c0-0.4,0.2-0.7,0.5-0.9
				c0.1-0.1,0.3-0.1,0.5-0.1h6.5v-3h-7c-1.1,0-2,0.9-2,2v20c0,1.1,0.9,2,2,2h8C-25.8,48.2-26.2,47.7-26.2,47.2z M-28.2,47.2
				c-0.6,0-1-0.5-1-1c0-0.6,0.4-1,1-1c0.5,0,1,0.4,1,1C-27.2,46.7-27.7,47.2-28.2,47.2z"/>
		</g>
	</g>
	<g id="x_2_" class="st1">
		<g>
			<path class="st2" d="M-11.2,21.2h-12c-1.1,0-2,0.9-2,2v23c0,0.4,0.1,0.7,0.3,1c0.3,0.6,1,1,1.7,1h12c1.1,0,2-0.9,2-2v-23
				C-9.2,22.1-10.1,21.2-11.2,21.2z M-10.2,46.2c0,0.5-0.5,1-1,1h-12c-0.6,0-1-0.5-1-1v-23c0-0.6,0.4-1,1-1h1.4v0.3
				c0,0.3,0.1,0.5,0.3,0.7c0.2,0.2,0.4,0.3,0.7,0.3h7.2c0.3,0,0.5-0.1,0.7-0.3c0.2-0.2,0.3-0.4,0.3-0.7v-0.3h1.4c0.5,0,1,0.4,1,1
				V46.2z"/>
		</g>
	</g>
</g>
<g id="x_1_" class="st0">
	<g class="st1">
		<path class="st3" d="M-16.2,21.7h-12c-1.1,0-2,0.9-2,2v23c0,1.1,0.9,2,2,2h12c1.1,0,2-0.9,2-2v-23C-14.2,22.6-15.1,21.7-16.2,21.7
			z M-15.2,46.7c0,0.5-0.5,1-1,1h-12c-0.6,0-1-0.5-1-1v-23c0-0.6,0.4-1,1-1h1.4V23c0,0.3,0.1,0.5,0.3,0.7c0.2,0.2,0.4,0.3,0.7,0.3
			h7.2c0.3,0,0.5-0.1,0.7-0.3c0.2-0.2,0.3-0.4,0.3-0.7v-0.3h1.4c0.5,0,1,0.4,1,1V46.7z"/>
	</g>
</g>
<circle class="st0" cx="3" cy="145.7" r="10"/>
<polyline class="st4" points="-0.7,86.7 2.3,89.1 7.3,81.3 "/>
<g id="x_3_" class="st0">
	<path class="st5" d="M66.9,150.1H47.3c-0.6,0-1-0.4-1-1v-36.6c0-0.6,0.4-1,1-1h19.6c0.6,0,1,0.4,1,1v36.6
		C67.9,149.7,67.4,150.1,66.9,150.1z"/>
	<path class="st6" d="M63.2,114.4H51c-0.6,0-1-0.4-1-1v-2.5h14.2v2.5C64.2,114,63.8,114.4,63.2,114.4z"/>
</g>
<g id="icon1" class="st0">
	<g class="st1">
		<g>
			<g>
				<g>
					<path class="st2" d="M5.9,17.6L5.9,17.6C5.9,17.5,5.9,17.5,5.9,17.6c0-0.1-0.1-0.2-0.1-0.2c0,0,0,0,0-0.1c0,0-0.1-0.1-0.1-0.1
						c-0.1,0-0.1-0.1-0.2-0.1c-0.1,0-0.1,0-0.2-0.1c0,0,0,0-0.1,0h0l-20.7-2c-0.2,0-0.3,0-0.5,0.1l-4.1,2.8l0,0
						c-0.1,0.1-0.2,0.2-0.3,0.4c0,0,0,0.1,0,0.1c0,0,0,0.1,0,0.2v33.9c0,0.4,0.3,0.7,0.7,0.7l20.6,2c0.1,0,0.1,0,0.2,0
						c0.1,0,0.1,0,0.2,0c0.1,0,0.1-0.1,0.2-0.1l4.1-2.8C5.8,52.1,6,51.9,6,51.6V17.7C6,17.7,5.9,17.6,5.9,17.6z M-15.3,16.5
						l18.4,1.8l-2.2,1.5L-17.5,18L-15.3,16.5z M0.4,53.6l-19.3-1.9V19.4l19.3,1.8V53.6z M4.5,51.2L1.9,53V21l2.6-1.8V51.2z"/>
					<path class="st2" d="M5.9,17.6C5.9,17.6,5.9,17.6,5.9,17.6S5.9,17.5,5.9,17.6C5.9,17.5,5.9,17.5,5.9,17.6z"/>
				</g>
			</g>
		</g>
		<g id="_x36__3_">
			<g>
				<path class="st2" d="M-3.8,24.4l-11.1-1c-1.1,0-2,0.9-2,2v22c0,1.1,0.9,2,1.9,2h0l11,1h0.1c1.1,0,2-0.9,2-2v-22
					C-1.8,25.3-2.7,24.4-3.8,24.4z M-9,48.9L-9,48.9c-0.2,0.1-0.4,0.2-0.6,0.2c-0.3,0-0.5-0.1-0.7-0.3c-0.2-0.2-0.3-0.4-0.3-0.7
					c0-0.1,0-0.2,0.1-0.3c0.1-0.4,0.5-0.7,0.9-0.7c0.5,0,0.9,0.4,1,0.8c0,0,0,0.1,0,0.2C-8.6,48.4-8.7,48.7-9,48.9z M-3.3,45.4
					c0,0.4-0.2,0.7-0.5,0.9c-0.2,0.1-0.3,0.1-0.5,0.1l-10-1c-0.2,0-0.4,0-0.5-0.1c-0.3-0.2-0.5-0.5-0.5-0.9v-17
					c0-0.3,0.2-0.6,0.4-0.8c0.2-0.1,0.4-0.2,0.6-0.2l10,1c0.2,0,0.3,0,0.5,0.1c0.3,0.2,0.5,0.5,0.5,0.9V45.4z"/>
			</g>
		</g>
	</g>
	<g class="st1">
		<g>
			<g>
				<path class="st2" d="M-50.3,17.5C-50.4,17.5-50.4,17.5-50.3,17.5C-50.4,17.6-50.4,17.6-50.3,17.5
					C-50.4,17.5-50.4,17.5-50.3,17.5z"/>
			</g>
			<g>
				<path class="st2" d="M-46.3,53l-2.6-1.8V19.2l2.6,1.8V53z M-24.1,18.4C-24.1,18.4-24.1,18.4-24.1,18.4c-0.1-0.2-0.2-0.4-0.3-0.5
					l0,0l-4.1-2.8C-28.6,15-28.8,15-29,15l-20.7,2h0c0,0,0,0-0.1,0c-0.1,0-0.2,0-0.2,0.1c-0.1,0-0.1,0.1-0.2,0.1
					c-0.1,0-0.1,0.1-0.1,0.1c0,0,0,0,0,0.1c0,0,0,0.1,0,0.1c0,0,0,0,0,0.1v0c0,0,0,0.1,0,0.1v33.9c0,0.3,0.1,0.5,0.3,0.6l4.1,2.8
					c0,0,0,0,0.1,0c0,0,0.1,0.1,0.1,0.1c0.1,0,0.1,0,0.2,0c0.1,0,0.1,0,0.2,0l20.6-2c0.4,0,0.7-0.4,0.7-0.7V18.6
					C-24,18.5-24,18.5-24.1,18.4z M-47.5,18.3l18.4-1.8l2.2,1.5l-18.4,1.8L-47.5,18.3z M-25.5,51.8l-19.3,1.9V21.3l19.3-1.8V51.8z"
					/>
			</g>
		</g>
	</g>
	<g id="x_4_" class="st1">
		<g>
			<path class="st2" d="M-29.3,21.4L-29.3,21.4l-11.9,1.1c-1.1,0-2,0.9-2,2v25c0,1.1,0.9,2,2.1,2h0l12-1.1c1.1,0,2-0.9,2-2v-25
				C-27.2,22.3-28.1,21.4-29.3,21.4z M-28.2,48.4c0,0.5-0.5,1-1,1l-12,1.1c-0.6,0-1-0.5-1-1v-25c0-0.6,0.4-1,1-1l1.4-0.1v0.5
				c0,0.2,0,0.3,0.1,0.5c0.2,0.3,0.5,0.5,0.9,0.5l7.2-0.8c0.4,0,0.8-0.3,0.9-0.6c0-0.1,0.1-0.3,0.1-0.4v-0.6l1.4-0.1
				c0.5,0,1,0.5,1,1V48.4z"/>
		</g>
	</g>
	<g class="st1">
		<g class="st7">
			
				<image style="overflow:visible;" width="92" height="92" xlink:href="9B1115E4.png"  transform="matrix(1 0 0 1 -43.0938 -31.787)">
			</image>
		</g>
		<circle class="st8" cx="2.9" cy="14.2" r="10"/>
		<polyline class="st9" points="-0.6,15.7 2.4,18.1 7.4,10.3 		"/>
	</g>
</g>
<g id="icon2" class="st0">
	<g class="st1">
		<path class="st2" d="M-15.6,48.1l-0.3-0.2c-0.2-0.1-18-9.2-17.6-36.4l0-0.7l0.7-0.1c0.1,0,7.8-0.9,16.8-6.2l0.4-0.2l0.4,0.2
			c9,5.4,16.8,6.2,16.9,6.2l0.7,0.1l0,0.7c0.4,27.2-17.4,36.3-17.6,36.4L-15.6,48.1z M-32,12.2C-32.1,35.8-18,45-15.6,46.4
			C-13.3,45,0.9,35.9,0.8,12.2c-2.1-0.3-8.7-1.6-16.4-6.1C-23.3,10.6-30,11.9-32,12.2z"/>
	</g>
	<g class="st1">
		<path class="st2" d="M-5.2,16.3C-4.9,32.7-15.6,39-15.6,39s-10.7-6.3-10.4-22.8c0,0,4.8-0.5,10.4-3.9C-10,15.8-5.2,16.3-5.2,16.3z
			"/>
	</g>
	<g class="st1">
		<g class="st7">
			
				<image style="overflow:visible;" width="92" height="92" xlink:href="9B1115E5.png"  transform="matrix(1 0 0 1 -43.0938 -37.787)">
			</image>
		</g>
		<circle class="st8" cx="2.9" cy="8.2" r="10"/>
		<text transform="matrix(1 0 0 1 -1.4385 12.0829)" class="st10 st11 st12">3</text>
	</g>
</g>
<g id="icon3" class="st0">
	<g class="st1">
		<g>
			<path class="st2" d="M25.3,6.2c0,0-0.1-0.1-0.1-0.1c-0.2-0.2-0.8-0.8-4.6-0.4c-0.3,0-0.6,0.3-0.7,0.6c-0.1,0.1-0.2,0.3-0.5,0.4
				C18.4,6.9,8.9,7,7.3,6.5C7.3,6.3,7.1,6.2,7,6c-0.8-0.6-2-0.5-2.3-0.5c-0.2,0-0.4,0.1-0.5,0.3c0,0-0.1,0.1-0.2,0.3
				C3.7,6.5,3.4,6.8,3.3,6.9c0-0.1,0-0.2,0-0.3c0-0.1,0-0.3,0.1-0.4C3.7,5,1.2,2.9,0.7,2.5C-0.1,2-0.7,1.8-1.2,2
				c-0.6,0.1-3.2-0.8-5.3-1.7c-0.1,0-0.2-0.1-0.3-0.1h-30c-0.4,0-0.7,0.3-0.8,0.7c0,0-0.1,0.7-0.2,1.3l0,0.1c0,0.3-0.1,0.4-0.1,0.4
				c-0.2,0.3-1,1.5-1,2.8v11.2c0,0.8,0.4,1.3,0.8,1.6c0.1,0.1,0.2,0.2,0.3,0.3c0.6,0.5,0.8,0.7,0.7,1.2c0,0,0,0.1,0,0.1
				c-0.1,1.6,1.5,3.2,2.6,4.1c0.3,0.2,0.5,0.4,0.6,0.6c0.2,0.2,0.5,0.6,0.7,0.9l0.4,0.5c1,1.3,1.6,1.9,2.3,1.7
				c0.1,0,0.2-0.1,0.3-0.1c0.8-0.2,1.1-0.2,1.4,0.1c0.9,1.1,4.2,1.8,5.3,1.9h0.8c0,0,0.1,0,0.2,0c0.7-0.1,2.6-0.4,3.6,0
				c0.2,0.1,0.4,0.2,0.4,0.3c0.1,0.5,0.3,1,0.7,1.5c0.6,1.1,1.5,1.8,1.5,1.9c0.2,0.2,0.4,0.2,0.6,0.2c0.2,0,0.4-0.2,0.5-0.4
				c0,0,0.5-0.8,0.7-1.4c0.4,0.2,0.8,0.9,1.2,2.1c0.1,0.3,0.2,0.7,0.4,1c0.4,0.9,1.1,1.7,2,2.4c0.9,0.7,1.7,1,1.7,1
				c0.2,0.1,0.5,0.1,0.7-0.1s0.3-0.4,0.3-0.6c0,0,0-0.4,0-0.9c0-0.6,0-1.4,0.1-2.1c0-0.2,0-0.4,0-0.6c0.1-0.6,2.5-1.6,3.4-1.8
				c0.2,0,1.1,0.4,1.7,0.6c2,0.8,2.8,1,3.3,0.6c0.2-0.2,0.4-0.4,0.4-0.7c0-0.2,0.8-0.8,1.2-1l0.3-0.2c0.1,0,0.2,0.1,0.3,0.2
				c0.2,0.2,0.5,0.5,0.7,0.7c0.4,0.4,0.7,0.8,1.1,0.8c0.1,0.4,0.3,0.8,0.4,1.3c0.2,0.6,0.3,1.2,0.4,1.7c0.1,0.5,0.1,0.8,0,1
				c0,0.4,0.1,0.8,0.4,1.4c0.3,0.6,1,1,2,1.1c0,0,0.3,0,0.7,0c0.6,0,1.4-0.1,1.7-0.4c0.3-0.3,0.5-1.1,0.5-2.4c0-0.5,0.1-1.5-0.1-2.3
				c-0.1-0.6-0.3-1.1-0.6-1.4c-0.1-0.1-0.4-0.8-0.6-2.1c-0.1-0.7-0.1-1.4,0-2c0.1-0.5,0.1-0.6,0.1-0.6c0.4-0.3,1.5-1.3,2.7-2.4
				c0.9-0.8,1.7-1.6,2.2-2.2c1.1-1.2,1.5-1.9,1.3-2.5c-0.1-0.3-0.3-0.5-0.6-0.7c-0.2-0.1-0.3-0.1-0.2-0.8c0-0.2,0.1-0.5,0.1-0.8
				c0.1-0.4,0.1-0.8,0.2-1.3c0-0.1,0-0.1,0-0.2c1,0,1.6-0.5,1.9-1.9c0.1-0.3,0.2-0.6,0.5-0.9c0.7-0.6,1.8-0.9,2.5-1.1
				c0.7-0.2,1.2-0.3,1.3-0.9c0.1-0.3-0.1-0.6-0.3-0.8c0,0,0,0-0.1-0.1c-0.1-0.4,0-1.1,0.4-1.4c0.1-0.1,0.3-0.3,0.5-0.4
				c0.3-0.2,0.7-0.5,1.1-0.8C24.8,8.2,25.9,7.1,25.3,6.2z M22.4,8.2c-0.4,0.3-0.7,0.6-1,0.8c-0.2,0.2-0.4,0.3-0.6,0.5
				c-0.9,0.7-1.1,2.1-0.9,3c-0.9,0.2-2.1,0.6-3,1.4c-0.5,0.5-0.8,1.1-1,1.7c-0.1,0.6-0.2,0.7-0.2,0.7h-0.2c-0.6,0-1.4,0.1-1.6,1.6
				c0,0.4-0.1,0.8-0.2,1.2c-0.1,0.3-0.1,0.6-0.1,0.9c0,0.5-0.1,1.4,0.7,2c-0.1,0.2-0.4,0.5-0.8,1c-0.5,0.6-1.2,1.3-2.1,2.1
				c-1.2,1.1-2.3,2-2.7,2.3c-0.4,0.3-0.6,0.8-0.7,1.6c-0.1,0.6-0.1,1.5,0,2.3c0.1,0.8,0.4,2.3,1,2.9c0,0,0.1,0.1,0.2,0.6
				c0.1,0.5,0.1,1.2,0.1,2c0,0.7-0.1,1.2-0.2,1.4c-0.6,0.1-1.7,0-1.9-0.3C7,37.6,7,37.4,7,37.4c0-0.4,0-0.8,0-1.4
				c-0.1-0.5-0.2-1.2-0.4-1.8c-0.7-2.7-1.3-2.6-1.6-2.6c0,0-0.1,0-0.1,0c0,0,0,0-0.1-0.1c-0.2-0.3-0.5-0.6-0.8-0.9
				c-1-0.9-1.7-0.6-2.1-0.4l-0.4,0.3c-0.6,0.4-1.3,0.9-1.6,1.5C-0.6,32-1.4,31.7-2,31.5c-1.5-0.6-2-0.7-2.4-0.7c0,0-4.6,1.1-4.7,3.2
				c0,0.2,0,0.4,0,0.6c0,0.6,0,1.3,0,1.9c-0.1-0.1-0.3-0.2-0.4-0.3c-0.7-0.6-1.3-1.2-1.6-1.9c-0.1-0.2-0.2-0.5-0.3-0.7
				c-0.4-1.5-1.1-2.6-1.9-3.1c-0.6-0.4-1.3-0.3-1.8,0.1c-0.1,0.1-0.2,0.2-0.2,0.3c-0.1,0.2-0.2,0.4-0.3,0.6
				c-0.2-0.2-0.4-0.5-0.6-0.8c-0.3-0.4-0.4-0.8-0.5-1.1c-0.1-0.4-0.4-1-1.3-1.3c-1.3-0.5-3.4-0.2-4.3,0H-23
				c-1.5-0.2-3.9-0.9-4.2-1.4c-0.9-1.1-2.2-0.8-2.9-0.7c0,0-0.1,0-0.1,0c-0.1-0.1-0.4-0.4-1-1.2l-0.4-0.5c-0.3-0.4-0.6-0.8-0.8-1
				c-0.2-0.2-0.4-0.4-0.8-0.7c-0.7-0.7-2.1-1.9-2-2.9c0.2-1.3-0.7-2-1.3-2.5c-0.1-0.1-0.2-0.1-0.3-0.2l0,0c-0.3-0.3-0.3-0.4-0.3-0.5
				V5.6c0-1,0.7-2,0.7-2c0,0,0-0.1,0-0.1c0.1-0.2,0.2-0.4,0.2-0.8l0-0.2c0-0.2,0.1-0.5,0.1-0.7h2.1l0.2-0.5c0-0.2,0.3-0.2,0.3,0
				l0.2,0.5h4.9l0.2-0.5c0.1-0.2,0.3-0.2,0.3,0l0.2,0.5h4.9l0.2-0.5c0.1-0.2,0.3-0.2,0.3,0l0.2,0.5h4.8l0.2-0.5
				c0.1-0.2,0.3-0.2,0.3,0l0.2,0.5h9.8c2.3,0.9,5,1.9,6.1,1.7c0.1,0,0.3,0.1,0.6,0.3c1,0.7,1.9,1.8,2.1,2.2c0,0.2-0.1,0.4-0.1,0.5
				C1.7,7,1.7,7.9,2.3,8.4C2.6,8.6,3,8.7,3.4,8.6c0.2-0.1,0.8-0.3,1.8-1.5c0,0,0,0,0,0c0.3,0,0.7,0,0.8,0.2c0.6,1.9,13.7,1,13.8,0.9
				c0.7-0.2,1.1-0.7,1.3-1c0.9-0.1,1.9-0.1,2.5,0C23.4,7.3,23,7.7,22.4,8.2z"/>
		</g>
		<g>
			<g>
				<line class="st13" x1="-12" y1="33.7" x2="-8.5" y2="33.7"/>
				<line class="st13" x1="5.9" y1="33.7" x2="9.6" y2="33.7"/>
				<line class="st13" x1="-30.5" y1="26.8" x2="10.4" y2="26.8"/>
				<line class="st13" x1="-35.5" y1="19.9" x2="13.9" y2="19.9"/>
				<line class="st13" x1="-13.5" y1="13" x2="19.9" y2="13"/>
				<line class="st13" x1="-13.5" y1="6.1" x2="1.9" y2="6.1"/>
			</g>
		</g>
		<g>
			<path class="st2" d="M-36.7,1l-1.5,4.5l0.3,11.8h24.4c0.8,0,1.5-0.7,1.5-1.5V1H-36.7z M-31.6,13.9l-1.1,0.8l0.4,1.3
				c0,0.2-0.1,0.3-0.3,0.2l-1.1-0.8l-1.1,0.8c-0.1,0.1-0.3,0-0.3-0.2l0.4-1.3l-1-0.8c-0.1-0.1-0.1-0.3,0.1-0.3l1.3,0l0.1-0.3l0.3-1
				c0-0.2,0.3-0.2,0.3,0l0.3,1l0.1,0.3l1.3,0C-31.5,13.6-31.4,13.8-31.6,13.9z M-31.6,8.4l-1.1,0.8l0.4,1.3c0,0.2-0.1,0.3-0.3,0.2
				l-1.1-0.8l-1.1,0.8c-0.1,0.1-0.3,0-0.3-0.2l0.4-1.3l-1-0.8C-35.7,8.3-35.6,8-35.5,8l1.3,0l0.1-0.3l0.3-0.9c0-0.2,0.3-0.2,0.3,0
				l0.3,0.9L-33,8l1.3,0C-31.5,8-31.4,8.3-31.6,8.4z M-31.6,2.8l-1.1,0.8l0.4,1.3c0,0.2-0.1,0.3-0.3,0.2l-1.1-0.8l-1.1,0.8
				c-0.1,0.1-0.3,0-0.3-0.2l0.4-1.3l-1-0.8c-0.1-0.1-0.1-0.3,0.1-0.3l1.3,0l0.1-0.3l0.2-0.5l0.2-0.5c0-0.2,0.3-0.2,0.3,0l0.2,0.5
				l0.1,0.5l0.1,0.3l1.3,0C-31.5,2.5-31.4,2.7-31.6,2.8z M-26,13.9l-1.1,0.8l0.4,1.3c0.1,0.2-0.1,0.3-0.3,0.2l-1.1-0.8l-1.1,0.8
				c-0.1,0.1-0.3,0-0.3-0.2l0.4-1.3l-1.1-0.8c-0.1-0.1-0.1-0.3,0.1-0.3l1.3,0l0.1-0.3l0.3-1c0.1-0.2,0.3-0.2,0.3,0l0.3,1l0.1,0.3
				l1.3,0C-26,13.6-25.9,13.8-26,13.9z M-26,8.4l-1.1,0.8l0.4,1.3c0.1,0.2-0.1,0.3-0.3,0.2l-1.1-0.8l-1.1,0.8
				c-0.1,0.1-0.3,0-0.3-0.2l0.4-1.3l-1.1-0.8C-30.2,8.3-30.1,8-29.9,8l1.3,0l0.1-0.3l0.3-0.9c0.1-0.2,0.3-0.2,0.3,0l0.3,0.9l0.1,0.3
				l1.3,0C-26,8-25.9,8.3-26,8.4z M-26,2.8l-1.1,0.8l0.4,1.3c0.1,0.2-0.1,0.3-0.3,0.2l-1.1-0.8l-1.1,0.8c-0.1,0.1-0.3,0-0.3-0.2
				l0.4-1.3l-1.1-0.8c-0.1-0.1-0.1-0.3,0.1-0.3l1.3,0l0.1-0.3l0.2-0.5l0.2-0.5c0.1-0.2,0.3-0.2,0.3,0l0.2,0.5l0.2,0.5l0.1,0.3l1.3,0
				C-26,2.5-25.9,2.7-26,2.8z M-20.5,13.9l-1,0.8l0.4,1.3c0,0.2-0.1,0.3-0.3,0.2l-1.1-0.8l-1.1,0.8c-0.1,0.1-0.3,0-0.3-0.2l0.4-1.3
				l-1.1-0.8c-0.1-0.1-0.1-0.3,0.1-0.3l1.3,0l0.1-0.3l0.3-1c0.1-0.2,0.3-0.2,0.3,0l0.3,1l0.1,0.3l1.3,0
				C-20.5,13.6-20.4,13.8-20.5,13.9z M-20.5,8.4l-1,0.8l0.4,1.3c0,0.2-0.1,0.3-0.3,0.2l-1.1-0.8l-1.1,0.8c-0.1,0.1-0.3,0-0.3-0.2
				l0.4-1.3l-1.1-0.8C-24.7,8.3-24.6,8-24.4,8l1.3,0l0.1-0.3l0.3-0.9c0.1-0.2,0.3-0.2,0.3,0l0.3,0.9l0.1,0.3l1.3,0
				C-20.5,8-20.4,8.3-20.5,8.4z M-20.5,2.8l-1,0.8l0.4,1.3c0,0.2-0.1,0.3-0.3,0.2l-1.1-0.8l-1.1,0.8c-0.1,0.1-0.3,0-0.3-0.2l0.4-1.3
				l-1.1-0.8c-0.1-0.1-0.1-0.3,0.1-0.3l1.3,0l0.1-0.3l0.2-0.5l0.2-0.5c0.1-0.2,0.3-0.2,0.3,0l0.2,0.5l0.1,0.5l0.1,0.3l1.3,0
				C-20.5,2.5-20.4,2.7-20.5,2.8z M-15,13.9l-1.1,0.8l0.4,1.3c0.1,0.2-0.1,0.3-0.3,0.2l-1.1-0.8l-1.1,0.8c-0.1,0.1-0.3,0-0.3-0.2
				l0.4-1.3l-1.1-0.8c-0.1-0.1-0.1-0.3,0.1-0.3l1.3,0l0.1-0.3l0.3-1c0.1-0.2,0.3-0.2,0.3,0l0.3,1l0.1,0.3l1.3,0
				C-14.9,13.6-14.9,13.8-15,13.9z M-15,8.4l-1.1,0.8l0.4,1.3c0.1,0.2-0.1,0.3-0.3,0.2L-17,9.8l-1.1,0.8c-0.1,0.1-0.3,0-0.3-0.2
				l0.4-1.3L-19,8.4C-19.1,8.3-19.1,8-18.9,8l1.3,0l0.1-0.3l0.3-0.9c0.1-0.2,0.3-0.2,0.3,0l0.3,0.9l0.1,0.3l1.3,0
				C-14.9,8-14.9,8.3-15,8.4z M-16.5,2.2l0.1,0.3l1.3,0c0.2,0,0.2,0.2,0.1,0.3l-1.1,0.8l0.4,1.3c0.1,0.2-0.1,0.3-0.3,0.2L-17,4.3
				l-1.1,0.8c-0.1,0.1-0.3,0-0.3-0.2l0.4-1.3L-19,2.8c-0.1-0.1-0.1-0.3,0.1-0.3l1.3,0l0.1-0.3l0.1-0.5l0.2-0.5
				c0.1-0.2,0.3-0.2,0.3,0l0.2,0.5L-16.5,2.2z"/>
		</g>
	</g>
	<g class="st1">
		<g class="st7">
			
				<image style="overflow:visible;" width="92" height="92" xlink:href="9B1115E3.png"  transform="matrix(1 0 0 1 -27.0938 -45.787)">
			</image>
		</g>
		<circle class="st8" cx="18.9" cy="0.2" r="10"/>
		<path class="st14" d="M23.5-1.2l-3.2,0L20.1-2l-0.8-2.3c-0.1-0.4-0.7-0.4-0.8,0L17.7-2l-0.2,0.7l-3.2,0c-0.4,0-0.6,0.5-0.3,0.8
			l2.5,1.9l-1,3c-0.1,0.4,0.3,0.7,0.7,0.5l2.6-1.8l2.6,1.8c0.3,0.2,0.8-0.1,0.7-0.5l-1-3l2.5-1.9C24.1-0.7,23.9-1.2,23.5-1.2z"/>
	</g>
</g>
<g id="icon4" class="st0">
	<g id="_x34_" class="st1">
		<g>
			<g id="head">
				<g>
					<path class="st2" d="M7.5,0.2c-0.3,0-0.7-0.3-1-0.6C6.1-0.7,5.9-1.1,5.7-1.6C5.6-1.8,5.5-2,5.5-2.2L5.4-2.4
						c0-0.1-0.1-0.2-0.1-0.4c0-0.1,0-0.2-0.1-0.3C5.2-3.6,4.9-4,4.5-4.3C4.1-4.6,3.7-4.7,3.3-4.7C2.8-4.7,2.4-4.5,2-4.4
						C1.9-4.3,1.8-4.3,1.6-4.2C1.2-4.1,0.8-4,0.4-3.9C-0.4-3.8-1.2-3.7-2-3.7c-0.9,0-1.7-0.1-2.5-0.2C-4.9-4-5.3-4.1-5.7-4.2
						c-0.1,0-0.3-0.1-0.4-0.2C-6.7-4.6-7.6-5-8.5-4.3C-8.9-4-9.2-3.6-9.3-3.1c0,0.1,0,0.3-0.1,0.4c0,0.2,0,0.3-0.1,0.3
						C-9.5-2.3-9.5-2.1-9.6-2c0,0.1-0.1,0.2-0.1,0.4c-0.2,0.5-0.4,1-0.7,1.3c-0.3,0.3-0.8,0.6-1,0.6c-0.1-0.3-0.3-1-0.2-2.3
						c0-0.4,1-8.6,9.7-8.6s9.6,8.3,9.7,8.6C7.8-0.8,7.6-0.1,7.5,0.2z"/>
				</g>
			</g>
			<g>
				<path class="st2" d="M15,31.1L13,20.8c0-0.1-0.8-2.5-3.4-3.3L4,15.8l-1.6-1.1v-1.1C5.3,12,7.2,9,7.2,5.5c0.1,0,0.2,0,0.3,0
					c1.7,0,3.1-1.4,3.1-3.1c0-1-0.5-2-1.3-2.5c0.1-0.5,0.1-1.3,0-2.2C9.3-2.4,8.2-12.4-2-12.4s-11.3,10-11.3,10.1
					c-0.1,0.9-0.1,1.6,0,2.2c-0.8,0.6-1.3,1.5-1.3,2.5c0,1.7,1.4,3.1,3.1,3.1c0.1,0,0.2,0,0.3,0c0,3.5,2,6.5,4.8,8.1v1.1l-1.6,1.1
					l-5.5,1.7c-2.6,0.8-3.4,3.2-3.5,3.4l-2.1,10.3c-0.2,1,0.1,1.7,0.4,2.2c0.9,1.1,2.5,1.3,2.7,1.3h4.2l19.3,0H12
					c0.2,0,1.8-0.2,2.7-1.3C14.9,32.9,15.2,32.2,15,31.1z M2.7,16.9l-1.3,3.4l-2.1-0.7l2.5-3.4h0L2.7,16.9z M-2,18.7l-2.8-3.8v-0.6
					c0.9,0.3,1.8,0.4,2.8,0.4s1.9-0.2,2.8-0.4v0.6L-2,18.7z M8.6,1.5c0.2,0.3,0.3,0.6,0.3,0.9c0,0.8-0.6,1.4-1.4,1.4
					c-0.1,0-0.2,0-0.3,0v-2c0.1,0,0.2,0,0.3,0C7.8,1.9,8.2,1.8,8.6,1.5L8.6,1.5z M-11.3,3.8c-0.1,0-0.2,0-0.3,0
					c-0.8,0-1.4-0.6-1.4-1.4c0-0.3,0.1-0.7,0.3-0.9l0.1,0.1c0.4,0.3,0.9,0.4,1.3,0.3V3.8z M-10.5-0.3c-0.3,0.3-0.8,0.6-1,0.6
					c-0.1-0.3-0.3-1-0.2-2.3c0-0.4,1-8.6,9.7-8.6s9.6,8.3,9.7,8.6c0.1,1.3-0.1,2-0.2,2.3c-0.3,0-0.7-0.3-1-0.6
					C6.1-0.7,5.9-1.1,5.7-1.6C5.6-1.8,5.5-2,5.5-2.2L5.4-2.4c0-0.1-0.1-0.2-0.1-0.4c0-0.1,0-0.2-0.1-0.3C5.2-3.6,4.9-4,4.5-4.3
					C4.1-4.6,3.7-4.7,3.3-4.7C2.8-4.7,2.4-4.5,2-4.4C1.9-4.3,1.8-4.3,1.6-4.2C1.2-4.1,0.8-4,0.4-3.9C-0.4-3.8-1.2-3.7-2-3.7
					c-0.9,0-1.7-0.1-2.5-0.2C-4.9-4-5.3-4.1-5.7-4.2c-0.1,0-0.3-0.1-0.4-0.2C-6.7-4.6-7.6-5-8.5-4.3C-8.9-4-9.2-3.6-9.3-3.1
					c0,0.1,0,0.3-0.1,0.4c0,0.2,0,0.3-0.1,0.3C-9.5-2.3-9.5-2.1-9.6-2c0,0.1-0.1,0.2-0.1,0.4C-10-1.1-10.2-0.7-10.5-0.3z M-9.6,5.4
					V1.1C-9.5,1-9.4,0.9-9.3,0.8C-8.8,0.3-8.5-0.4-8.2-1c0.1-0.1,0.1-0.3,0.2-0.4C-8-1.5-8-1.6-7.9-1.8C-7.8-2-7.8-2.3-7.7-2.5
					c0-0.1,0-0.2,0-0.3c0-0.1,0.1-0.1,0.1-0.2c0.2-0.1,0.3-0.1,0.8,0.1c0.2,0.1,0.4,0.1,0.6,0.2c0.4,0.1,0.9,0.3,1.4,0.4
					C-3.9-2.1-2.9-2.1-2-2c0.9-0.1,1.8-0.1,2.7-0.3c0.4-0.1,0.8-0.2,1.4-0.4c0.2-0.1,0.4-0.1,0.6-0.2c0.6-0.2,0.7-0.2,0.8-0.1
					c0.1,0,0.1,0.1,0.1,0.2c0,0.1,0,0.2,0,0.2c0,0.2,0.1,0.5,0.2,0.8l0.1,0.1C4-1.4,4.1-1.2,4.2-1c0.3,0.6,0.6,1.3,1.1,1.8
					c0,0,0.1,0.1,0.3,0.3v4.3C5.6,9.6,2.2,13-2,13C-6.2,13-9.6,9.6-9.6,5.4z M-5.8,16.3l2.5,3.3l-2.1,0.7l-1.3-3.4L-5.8,16.3z
					 M13.3,32.3c-0.3,0.5-1.2,0.6-1.4,0.7H8.5v-6.3c0-0.5-0.4-0.8-0.8-0.8c-0.5,0-0.8,0.4-0.8,0.8V33h-17.7v-6.3
					c0-0.5-0.4-0.8-0.8-0.8c-0.5,0-0.8,0.4-0.8,0.8V33h-3.3c-0.2,0-1.1-0.2-1.5-0.7c-0.1-0.1-0.2-0.4-0.1-0.8l2-10.2
					c0,0,0.6-1.7,2.3-2.2l4.9-1.5l1.5,4.1c0.1,0.3,0.4,0.5,0.8,0.5c0.1,0,0.2,0,0.3,0l2.8-0.9v5.9c0,0.5,0.4,0.8,0.8,0.8
					c0.5,0,0.8-0.4,0.8-0.8v-5.9l2.8,0.9c0.1,0,0.2,0,0.3,0c0.3,0,0.7-0.2,0.8-0.5l1.5-4.1L9,19.1c0.9,0.3,1.4,0.8,1.8,1.3
					c0.4,0.5,0.5,0.9,0.5,0.9l2.1,10.3C13.5,31.9,13.4,32.2,13.3,32.3z"/>
				<path class="st2" d="M7.7,34.6C7.7,34.6,7.7,34.6,7.7,34.6c-0.1,0-0.1,0-0.2,0H7.7z"/>
			</g>
		</g>
		<g>
			<g>
				<circle class="st2" cx="-4.8" cy="3.1" r="1.1"/>
			</g>
			<g>
				<circle class="st2" cx="0.7" cy="3.1" r="1.1"/>
			</g>
		</g>
		<g>
			<path class="st2" d="M0.8,7.8c0,1.1-1.3,2-2.9,2s-2.9-0.9-2.9-2c0-0.3,0.2-0.6,0.6-0.6c0.3,0,0.6,0.3,0.6,0.6
				C-3.8,8.2-3,8.7-2,8.7c1,0,1.8-0.5,1.8-0.9c0-0.3,0.2-0.6,0.6-0.6C0.6,7.3,0.8,7.5,0.8,7.8z"/>
		</g>
	</g>
	<g class="st1">
		<g class="st7">
			
				<image style="overflow:visible;" width="92" height="92" xlink:href="9B1115EC.png"  transform="matrix(1 0 0 1 -29.0938 -49.787)">
			</image>
		</g>
		<circle class="st8" cx="16.9" cy="-3.8" r="10"/>
		<g>
			<path class="st10" d="M13.4-5.6H12c-0.2,0-0.3,0.2-0.3,0.3v6.1c0,0.2,0.2,0.3,0.3,0.3h1.4c0.2,0,0.3-0.2,0.3-0.3v-6.1
				C13.7-5.4,13.6-5.6,13.4-5.6z"/>
			<path class="st10" d="M18.6-5.6l0.4-1c0.2-0.7,0.1-1.7-0.6-2.1c-0.2-0.1-0.5-0.2-0.8-0.1c-0.1,0-0.3,0.1-0.3,0.3
				c-0.1,0.1-0.1,0.3-0.1,0.5c-0.1,0.4-0.3,0.8-0.6,1.1c-0.5,0.5-2.2,2-2.2,2v5.4h5.7c0.8,0,1.3-0.9,0.9-1.5
				c0.5-0.3,0.6-0.9,0.3-1.4c0.5-0.3,0.6-0.9,0.3-1.4c0.8-0.5,0.5-1.7-0.4-1.9C21.2-5.6,18.6-5.6,18.6-5.6z"/>
		</g>
	</g>
</g>
<g class="st0">
	<line class="st15" x1="170" y1="-26.7" x2="179.9" y2="-16.8"/>
	<line class="st15" x1="179.9" y1="-26.7" x2="170" y2="-16.8"/>
</g>
<g class="st0">
	<path class="st16" d="M159.8-24.3c0,0-0.5-0.5-0.6-0.6c-2-2-5.3-2.1-7.3,0c-2,2-2,5.3,0,7.4c2,2,5.3,2,7.4,0"/>
	<polyline class="st16" points="157.9,-23.9 160.2,-23.9 160.2,-26.2 	"/>
</g>
<g class="st0">
	<line class="st17" x1="105.9" y1="-11.8" x2="125.9" y2="-11.8"/>
	<line class="st17" x1="105.9" y1="-5.8" x2="125.9" y2="-5.8"/>
	<line class="st17" x1="105.9" y1="0.2" x2="125.9" y2="0.2"/>
</g>
<circle class="st18" cx="88.4" cy="-12.3" r="2"/>
<circle class="st18" cx="80.4" cy="-12.3" r="2"/>
<circle class="st18" cx="88.4" cy="-4.3" r="2"/>
<circle class="st18" cx="80.4" cy="-4.3" r="2"/>
<g id="skoro" class="st0">
	<path class="st6" d="M-2.7,43.1h-39c-2.2,0-4-1.8-4-4v-8c0-2.2,1.8-4,4-4h39c2.2,0,4,1.8,4,4v8C1.3,41.3-0.5,43.1-2.7,43.1z"/>
	<text transform="matrix(1 0 0 1 -38.5615 37.9683)" class="st23 st11 st22">Скоро</text>
</g>
<g id="skoro_x5F_v_x5F_prodaje" class="st0">
	<g class="st19">
		
			<image style="overflow:visible;" width="144" height="144" xlink:href="9B1115EF.png"  transform="matrix(1 0 0 1 -65.0938 -64.787)">
		</image>
	</g>
	<circle class="st20" cx="6.9" cy="7.2" r="35.5"/>
	<g class="st1">
		<ellipse class="st21" cx="6.9" cy="-11.3" rx="8" ry="8"/>
		<line class="st21" x1="6.9" y1="-11.3" x2="6.9" y2="-19.3"/>
		<line class="st21" x1="6.9" y1="-5.4" x2="6.9" y2="-3.3"/>
		<line class="st21" x1="14.9" y1="-11.3" x2="12.7" y2="-11.3"/>
		<line class="st21" x1="1.1" y1="-11.3" x2="-1.1" y2="-11.3"/>
		<line class="st21" x1="6.9" y1="-11.3" x2="12.6" y2="-16.9"/>
		<line class="st21" x1="2.8" y1="-7.1" x2="1.3" y2="-5.6"/>
		<line class="st21" x1="12.6" y1="-5.6" x2="11" y2="-7.1"/>
		<line class="st21" x1="2.8" y1="-15.4" x2="1.3" y2="-16.9"/>
	</g>
	<text transform="matrix(1 0 0 1 -9.5534 11.0777)" class="st1"><tspan x="0" y="0" class="st10 st11 st22">Скоро</tspan><tspan x="-11.3" y="12" class="st10 st11 st22">в продаже</tspan></text>
</g>
<g id="map_x5F_pin" class="st0">
	<g class="st19">
		
			<image style="overflow:visible;" width="108" height="117" xlink:href="9B1115ED.png"  transform="matrix(1 0 0 1 -47.0938 -50.787)">
		</image>
	</g>
	<g class="st1">
		<g>
			<g>
				<g>
					<path class="st8" d="M24,2C24,15.6,9.1,28.1,8.5,28.7c-0.5,0.4-1,0.6-1.6,0.6S5.8,29,5.3,28.7C4.7,28.1-10.2,15.6-10.2,2
						c0-9.2,7.7-16.7,17.1-16.7S24-7.3,24,2z"/>
				</g>
			</g>
		</g>
	</g>
	<path class="st23" d="M6.9-4.4C7.4-5.9,9-7.3,11.2-7.3c0,2.7-1.9,4.4-3.8,4.5C6.4-2.6,6.4-3.4,6.9-4.4z M7.3,9.7
		c-2.5,0-4.9-1.5-6.1-3.8C0.1,3.7,0.3,1.3,1.7-0.7c0.1-0.1,0.1-0.2,0.2-0.3C2.5-1.6,3.3-2,4.2-2.1C5-2.2,5.7-1.9,6.4-1.8
		C6.6-1.7,6.8-1.7,7-1.6c0.6,0.1,1.2-0.1,1.7-0.3c0.5-0.2,1.1-0.2,1.6-0.2c1,0.1,1.9,0.6,2.6,1.5c0.1,0.2,0.2,0.3,0.3,0.5
		c-0.9,0.7-1.5,1.8-1.5,3.1s0.6,2.5,1.5,3.2C12.1,8.3,9.7,9.7,7.3,9.7z"/>
</g>
<polyline id="arrow" class="st24" points="1.9,5.2 6.9,9.2 11.9,5.2 "/>
<g id="fire_x5F_label" class="st0">
	<g class="st19">
		
			<image style="overflow:visible;" width="103" height="103" xlink:href="9B1115E2.png"  transform="matrix(1 0 0 1 -44.0938 -43.787)">
		</image>
	</g>
	<circle class="st25" cx="6.9" cy="7.2" r="15"/>
	<g id="surface1" class="st1">
		<path class="st10" d="M4,16.2c-2-6.6,2.2-9,2.2-9C6,10.8,8,13.5,8,13.5c0.7-0.2,2.1-1.3,2.1-1.3c0,1.3-0.7,4-0.7,4s2.6-2,3.4-5.3
			c0.8-3.3-1.6-6.7-1.6-6.7c0.1,2.4-0.7,4.7-2.2,6.4c0.1-0.1,0.1-0.2,0.2-0.3c0.3-0.6,0.7-2,0.5-5.4C9.3,0.2,5-1.8,5-1.8
			c0.4,2.9-0.7,3.6-3.3,9C-1,12.8,4,16.2,4,16.2z"/>
	</g>
</g>
<path class="st26" d="M12.9,7.2c0,3.3-2.7,6-6,6c-3.3,0-6-2.7-6-6s2.7-6,6-6c1.6,0,3.1,0.7,4.2,1.7c0.4,0.4,0.7,0.8,0.9,1.2
	C12.6,5.1,12.9,6.1,12.9,7.2z"/>
<g>
	<path class="st10" d="M12.1,4.2L7.5,9.7C7.3,9.9,7.1,10,6.9,10h0c-0.2,0-0.5-0.1-0.6-0.3l-2-3c-0.2-0.3-0.1-0.8,0.2-1
		c0.3-0.2,0.8-0.1,1,0.2L7,8l4.1-5C11.5,3.3,11.8,3.7,12.1,4.2z"/>
</g>
</svg>
